<svg xmlns="http://www.w3.org/2000/svg" xmlns:xlink="http://www.w3.org/1999/xlink" width="24" height="26" viewBox="0 0 24 26">
    <defs>
        <path id="ijdn0ddkra" d="M15.722 1.346c.413.498.36 1.249-.117 1.68L8.747 9.194l-.038.032c-.017.015-.035.028-.052.04l.09-.072c-.044.04-.09.075-.14.106-.02.015-.043.03-.066.04-.015.01-.03.018-.047.026l-.065.03c-.02.008-.04.017-.06.023l-.064.02c-.021.007-.042.012-.064.017-.017.005-.034.007-.051.01-.03.005-.058.01-.087.012l-.04.002c-.022.002-.045.002-.067.002-.022 0-.043 0-.065-.002-.021 0-.042-.003-.064-.006l-.058-.008-.066-.014c-.02-.004-.04-.01-.061-.016l-.054-.018c-.022-.007-.044-.016-.065-.026l-.06-.027-.054-.03c-.018-.01-.036-.02-.053-.033-.017-.01-.034-.022-.05-.034l-.093-.074-6.857-6.17c-.478-.43-.53-1.181-.118-1.68.387-.466 1.046-.543 1.52-.197l.092.075 6.109 5.496 6.112-5.496c.477-.43 1.199-.375 1.61.123"/>
    </defs>
    <g fill="none" fill-rule="evenodd">
        <g transform="translate(0 .977) translate(4 7.292)">
            <mask id="wer763uu8b" fill="#fff">
                <use xlink:href="#ijdn0ddkra"/>
            </mask>
            <use fill="#8F8F8F" xlink:href="#ijdn0ddkra"/>
            <g fill="#FFF" mask="url(#wer763uu8b)">
                <path d="M0 0H24V25H0z" transform="translate(-4 -7.292)"/>
            </g>
        </g>
        <path d="M0 0H24V25H0z" transform="translate(0 .977)"/>
    </g>
</svg>
