<svg xmlns="http://www.w3.org/2000/svg" xmlns:xlink="http://www.w3.org/1999/xlink" width="24" height="24" viewBox="0 0 24 24">
    <defs>
        <path id="prefix__a" d="M15.722 1.292c.413.478.36 1.2-.117 1.612L8.747 8.827l-.038.031-.052.04.09-.07c-.044.037-.09.071-.14.101-.02.014-.043.028-.066.04-.015.007-.03.016-.047.023l-.065.03-.06.021-.064.02-.064.016-.051.01-.087.011-.04.002c-.022.002-.045.002-.067.002-.022 0-.043 0-.065-.002-.021 0-.042-.003-.064-.006l-.058-.008-.066-.013c-.02-.004-.04-.01-.061-.016-.018-.005-.036-.01-.054-.017-.022-.007-.044-.015-.065-.025l-.06-.026c-.017-.009-.036-.018-.054-.029-.018-.009-.036-.019-.053-.03-.017-.01-.034-.022-.05-.034l-.093-.07L.396 2.903c-.478-.413-.53-1.134-.118-1.612.387-.448 1.046-.522 1.52-.19l.092.072L7.999 6.45l6.112-5.276c.477-.413 1.199-.36 1.61.118"/>
    </defs>
    <g fill="none" fill-rule="evenodd">
        <g transform="translate(4 7)">
            <mask id="prefix__b" fill="#fff">
                <use xlink:href="#prefix__a"/>
            </mask>
            <use fill="#8F8F8F" xlink:href="#prefix__a"/>
            <g fill="#FFF" mask="url(#prefix__b)">
                <path d="M0 0H24V24H0z" transform="translate(-4 -7)"/>
            </g>
        </g>
        <path d="M0 0H24V24H0z"/>
    </g>
</svg>
