<svg xmlns="http://www.w3.org/2000/svg" width="24" height="24" viewBox="0 0 24 24">
    <g fill="none" fill-rule="evenodd">
        <circle cx="12" cy="12" r="12" fill="#FFF"/>
        <g fill="#1E1E1E" fill-rule="nonzero">
            <path d="M9.77.77c.293-.293.767-.293 1.06 0 .267.266.29.683.073.976l-.073.084-9 9c-.293.293-.767.293-1.06 0-.267-.266-.29-.683-.073-.976L.77 9.77l9-9z" transform="translate(6.2 6.2)"/>
            <path d="M.77.77c.266-.267.683-.29.976-.073L1.83.77l9 9c.293.293.293.767 0 1.06-.266.267-.683.29-.976.073l-.084-.073-9-9C.477 1.537.477 1.063.77.77z" transform="translate(6.2 6.2)"/>
        </g>
    </g>
</svg>
