<svg width="24" height="24" viewBox="0 0 24 24" fill="none" xmlns="http://www.w3.org/2000/svg">
<g id="Filter">
<g id="Icon">
<path id="Vector" d="M9.85999 4.33997H22.26" stroke="white" stroke-width="1.5" stroke-linecap="round" stroke-linejoin="round"/>
<path id="Vector_2" d="M1.78003 4.33997H4.73003" stroke="white" stroke-width="1.5" stroke-linecap="round" stroke-linejoin="round"/>
<path id="Vector_3" d="M19.47 12.03H22.26" stroke="white" stroke-width="1.5" stroke-linecap="round" stroke-linejoin="round"/>
<path id="Vector_4" d="M1.78003 12.03H14.34" stroke="white" stroke-width="1.5" stroke-linecap="round" stroke-linejoin="round"/>
<path id="Vector_5" d="M13.0601 19.72H22.2601" stroke="white" stroke-width="1.5" stroke-linecap="round" stroke-linejoin="round"/>
<path id="Vector_6" d="M1.78003 19.72H7.94003" stroke="white" stroke-width="1.5" stroke-linecap="round" stroke-linejoin="round"/>
<path id="Vector_7" d="M7.29999 6.90003C8.71384 6.90003 9.85999 5.75388 9.85999 4.34003C9.85999 2.92618 8.71384 1.78003 7.29999 1.78003C5.88614 1.78003 4.73999 2.92618 4.73999 4.34003C4.73999 5.75388 5.88614 6.90003 7.29999 6.90003Z" stroke="white" stroke-width="1.5" stroke-linecap="round" stroke-linejoin="round"/>
<path id="Vector_8" d="M16.91 14.59C18.3238 14.59 19.47 13.4438 19.47 12.03C19.47 10.6161 18.3238 9.46997 16.91 9.46997C15.4961 9.46997 14.35 10.6161 14.35 12.03C14.35 13.4438 15.4961 14.59 16.91 14.59Z" stroke="white" stroke-width="1.5" stroke-linecap="round" stroke-linejoin="round"/>
<path id="Vector_9" d="M10.4999 22.28C11.9138 22.28 13.0599 21.1339 13.0599 19.72C13.0599 18.3062 11.9138 17.16 10.4999 17.16C9.08609 17.16 7.93994 18.3062 7.93994 19.72C7.93994 21.1339 9.08609 22.28 10.4999 22.28Z" stroke="white" stroke-width="1.5" stroke-linecap="round" stroke-linejoin="round"/>
</g>
</g>
</svg>
