<svg xmlns="http://www.w3.org/2000/svg" xmlns:xlink="http://www.w3.org/1999/xlink" width="24" height="24" viewBox="0 0 24 24">
    <defs>
        <path id="prefix__a" d="M2.904.396l5.922 6.857.033.04.039.051-.072-.09c.038.043.073.09.103.138.015.023.028.046.04.07.009.015.016.03.023.044l.03.066.02.06c.008.02.015.041.02.063.007.021.012.043.017.064l.009.052c.005.028.009.058.012.086l.003.04.002.067-.002.065-.006.065c-.003.02-.005.038-.01.057l-.012.066-.015.061-.018.054-.024.066-.027.058c-.008.02-.018.037-.028.056l-.031.052-.033.051-.073.092-5.922 6.857c-.413.478-1.134.53-1.612.118-.448-.387-.522-1.045-.19-1.519l.072-.093L6.45 8 1.174 1.89C.76 1.412.814.69 1.292.278c.478-.413 1.199-.36 1.612.118"/>
    </defs>
    <g fill="none" fill-rule="evenodd">
        <g transform="translate(7 4)">
            <mask id="prefix__b" fill="#fff">
                <use xlink:href="#prefix__a"/>
            </mask>
            <use fill="#8F8F8F" xlink:href="#prefix__a"/>
            <g fill="#8F8F8F" mask="url(#prefix__b)">
                <path d="M0 0H24V24H0z" transform="translate(-7 -4)"/>
            </g>
        </g>
        <path d="M0 0H24V24H0z"/>
    </g>
</svg>
