<svg xmlns="http://www.w3.org/2000/svg" width="32" height="33" viewBox="0 0 32 33">
    <path fill="#A990D0" fill-rule="evenodd" d="M16 32.5c8.837 0 16-7.163 16-16S24.837.5 16 .5 0 7.663 0 16.5s7.163 16 16 16zm-1.877-8.686c2.297 0 3.91-1.066 4.676-2.406v2.27l5.701-.67v-1.203l-1.025-.26c-.793-.205-.916-.41-.916-1.19V9.418l-5.756.697v1.203l1.039.274c.765.191.888.396.888 1.162v7.533c-.437.725-1.38 1.313-2.638 1.313-1.805 0-2.858-1.08-2.858-3.104V9.418l-5.742.697v1.203l1.04.274c.765.191.888.396.888 1.162v6.48c0 2.912 1.887 4.58 4.703 4.58z"/>
</svg>
