<svg width="24" height="24" viewBox="0 0 24 24" fill="none" xmlns="http://www.w3.org/2000/svg">
<g id="Search">
<path id="Icon" fill-rule="evenodd" clip-rule="evenodd" d="M2.58997 9.74C2.58997 5.77459 5.80456 2.56 9.76997 2.56C13.7354 2.56 16.95 5.77459 16.95 9.74C16.95 13.7054 13.7354 16.92 9.76997 16.92C5.80456 16.92 2.58997 13.7054 2.58997 9.74ZM9.76997 1.06C4.97613 1.06 1.08997 4.94617 1.08997 9.74C1.08997 14.5338 4.97613 18.42 9.76997 18.42C11.2974 18.42 12.7327 18.0255 13.9795 17.3327L15.0879 18.4486L15.0904 18.451L19.0064 22.357C19.2236 22.5797 19.4833 22.7567 19.77 22.8774C20.0589 22.9991 20.3693 23.0611 20.6828 23.06L20.6869 23.06C21.1535 23.0557 21.6086 22.9143 21.9956 22.6534C22.3825 22.3925 22.6842 22.0236 22.8631 21.5926C23.0421 21.1616 23.0903 20.6875 23.002 20.2293C22.9136 19.7711 22.6924 19.349 22.366 19.0154L22.3661 19.0154L22.3603 19.0097L19.456 16.1054L19.4451 16.0945L17.3403 13.9896C18.0469 12.7335 18.45 11.2838 18.45 9.74C18.45 4.94617 14.5638 1.06 9.76997 1.06ZM16.5006 15.2713L17.8708 16.6415L16.6641 17.9021L16.1509 17.3902L15.2691 16.5025C15.7172 16.1315 16.1295 15.7193 16.5006 15.2713ZM20.0697 21.299L17.7263 18.9616L18.9317 17.7024L21.2964 20.067C21.4157 20.19 21.4966 20.3451 21.5291 20.5134C21.5618 20.6828 21.5439 20.8581 21.4778 21.0175C21.4116 21.1769 21.3001 21.3132 21.157 21.4097C21.0145 21.5058 20.847 21.558 20.6752 21.56C20.5642 21.5601 20.4544 21.538 20.3521 21.495C20.2492 21.4516 20.1561 21.388 20.0784 21.3079L20.0785 21.3078L20.0697 21.299Z" fill="white"/>
</g>
</svg>
