<svg xmlns="http://www.w3.org/2000/svg" xmlns:xlink="http://www.w3.org/1999/xlink" width="48" height="48" viewBox="0 0 48 48">
    <defs>
        <path id="q46xe0p8xa" d="M20 0c11.046 0 20 8.954 20 20s-8.954 20-20 20S0 31.046 0 20 8.954 0 20 0zm0 4C11.163 4 4 11.163 4 20s7.163 16 16 16 16-7.163 16-16S28.837 4 20 4zm7.618 8.112c.822-.024 1.575.459 1.898 1.216.322.757.147 1.634-.44 2.21-3.515 3.523-6.737 7.063-10.333 10.667-.72.725-1.869.793-2.667.157l-5-4c-.558-.447-.836-1.157-.728-1.864.107-.707.584-1.303 1.25-1.563s1.42-.145 1.978.302l3.573 2.864c3.04-3.103 5.929-6.213 9.094-9.385.362-.373.855-.59 1.375-.604z"/>
    </defs>
    <g fill="none" fill-rule="evenodd">
        <g transform="translate(4 4)">
            <mask id="97i2inqwlb" fill="#fff">
                <use xlink:href="#q46xe0p8xa"/>
            </mask>
            <use fill="#979797" fill-rule="nonzero" xlink:href="#q46xe0p8xa"/>
            <g fill="#FFF" mask="url(#97i2inqwlb)">
                <path d="M0 0H48V48H0z" transform="translate(-4 -4)"/>
            </g>
        </g>
        <path d="M0 0H48V48H0z"/>
    </g>
</svg>
