<svg xmlns="http://www.w3.org/2000/svg" viewBox="0 0 64 64" width="32" height="32"><title>mdl-icon-social-pinterest</title><path d="M16,32a15.65,15.65,0,0,1-4.54-.67,13.26,13.26,0,0,0,1.63-3.42s.19-.71,1.12-4.4a4.54,4.54,0,0,0,3.9,2c5.15,0,8.65-4.69,8.65-11,0-4.73-4-9.17-10.15-9.17-7.58,0-11.42,5.46-11.42,10,0,2.75,1,5.21,3.27,6.12a.55.55,0,0,0,.79-.42c.08-.27.25-1,.33-1.27a.79.79,0,0,0-.23-.9,4.65,4.65,0,0,1-1.06-3.15A7.58,7.58,0,0,1,16.17,8.1c4.29,0,6.67,2.63,6.67,6.15,0,4.6-2,8.5-5.08,8.5a2.48,2.48,0,0,1-2.52-3.08c.48-2,1.42-4.21,1.42-5.67a2.16,2.16,0,0,0-2.17-2.42c-1.71,0-3.08,1.77-3.08,4.15a6.67,6.67,0,0,0,.52,2.54C10.17,25.69,9.85,27,9.85,27a14,14,0,0,0-.27,3.69A16,16,0,1,1,16,32Z" style="fill:#e12f44"/></svg>