<svg xmlns="http://www.w3.org/2000/svg" viewBox="0 0 64 64" width="32" height="32"><title>mdl-icon-social-twitter</title><path d="M16,0A16,16,0,1,0,32,16,16,16,0,0,0,16,0Zm7,12.65c0,.16,0,.31,0,.47A10.26,10.26,0,0,1,7.21,21.75a7.51,7.51,0,0,0,.87,0,7.21,7.21,0,0,0,4.47-1.54,3.61,3.61,0,0,1-3.37-2.5,4.58,4.58,0,0,0,.68.06,3.81,3.81,0,0,0,.95-.12,3.6,3.6,0,0,1-2.89-3.54v0a3.63,3.63,0,0,0,1.63.46A3.61,3.61,0,0,1,8.43,9.75a10.24,10.24,0,0,0,7.43,3.77,4.07,4.07,0,0,1-.09-.83A3.61,3.61,0,0,1,22,10.23a7.11,7.11,0,0,0,2.29-.87,3.59,3.59,0,0,1-1.58,2,7.21,7.21,0,0,0,2.07-.56A7.75,7.75,0,0,1,23,12.65Z" style="fill:#e12f44"/></svg>