<svg xmlns="http://www.w3.org/2000/svg" viewBox="0 0 64 64" width="32" height="32"><title>mdl-icon-social-youtube</title><polygon points="13.93 18.82 19.33 16.03 13.93 13.21 13.93 18.82" style="fill:#e12f44"/><path d="M16,0A16,16,0,1,0,32,16,16,16,0,0,0,16,0Zm9.79,20.22a3.56,3.56,0,0,1-.79,2A2.86,2.86,0,0,1,23,23s-2.79.21-7,.21c-5.2,0-6.79-.2-6.79-.2A3.37,3.37,0,0,1,7,22.21a3.56,3.56,0,0,1-.79-2A27,27,0,0,1,6,17V15.47a27,27,0,0,1,.2-3.23,3.51,3.51,0,0,1,.79-2A2.83,2.83,0,0,1,9,9.4s2.79-.2,7-.2,7,.2,7,.2a2.83,2.83,0,0,1,2,.85,3.51,3.51,0,0,1,.79,2,27,27,0,0,1,.2,3.23V17A27,27,0,0,1,25.79,20.22Z" style="fill:#e12f44"/></svg>