<svg xmlns="http://www.w3.org/2000/svg" xmlns:xlink="http://www.w3.org/1999/xlink" width="18" height="18" viewBox="0 0 18 18">
  <defs>
    <path id="32-a" d="M16,17.4142136 L8.70710678,24.7071068 C8.31658249,25.0976311 7.68341751,25.0976311 7.29289322,24.7071068 C6.90236893,24.3165825 6.90236893,23.6834175 7.29289322,23.2928932 L14.5857864,16 L7.29289322,8.70710678 C6.90236893,8.31658249 6.90236893,7.68341751 7.29289322,7.29289322 C7.68341751,6.90236893 8.31658249,6.90236893 8.70710678,7.29289322 L16,14.5857864 L23.2928932,7.29289322 C23.6834175,6.90236893 24.3165825,6.90236893 24.7071068,7.29289322 C25.0976311,7.68341751 25.0976311,8.31658249 24.7071068,8.70710678 L17.4142136,16 L24.7071068,23.2928932 C25.0976311,23.6834175 25.0976311,24.3165825 24.7071068,24.7071068 C24.3165825,25.0976311 23.6834175,25.0976311 23.2928932,24.7071068 L16,17.4142136 Z"/>
  </defs>
  <g fill="none" fill-rule="evenodd" transform="translate(-7 -7)">
    <mask id="32-b" fill="#4b96f8">
      <use xlink:href="#32-a"/>
    </mask>
    <use fill="#4b96f8" fill-rule="nonzero" xlink:href="#32-a"/>
    <g fill="#4b96f8" mask="url(#32-b)">
      <rect width="32" height="32"/>
    </g>
  </g>
</svg>
