<svg id="Layer_1" data-name="Layer 1" xmlns="http://www.w3.org/2000/svg" xmlns:xlink="http://www.w3.org/1999/xlink" viewBox="0 0 220 160"><defs><style>.cls-1,.cls-3,.cls-8{fill:none;}.cls-2,.cls-4{fill:#fff;}.cls-3,.cls-4,.cls-6,.cls-7,.cls-8{stroke:#072456;stroke-width:2px;}.cls-3,.cls-4,.cls-8{stroke-linecap:round;}.cls-3,.cls-4{stroke-linejoin:round;}.cls-5{clip-path:url(#clip-path);}.cls-6{fill:#01c3a7;}.cls-6,.cls-7,.cls-8{stroke-miterlimit:10;}.cls-7{fill:#ff8f1c;}</style><clipPath id="clip-path"><path class="cls-1" d="M165.41,62.07l-41.52,39.21c-7.36,7-18.26,7.9-26.19-.15L56.4,61.21V27.63a6.45,6.45,0,0,1,6.48-6.53l96.21.36a6.34,6.34,0,0,1,6.31,6.34V62.1"/></clipPath></defs><title>Dashboard_optionalextras</title><path id="SVGID" class="cls-2" d="M55.4,60.1l-.25,66.73a4,4,0,0,0,3.76,4.27H162.6a4,4,0,0,0,3.8-4.25l.26-66.75"/><path id="SVGID-2" data-name="SVGID" class="cls-3" d="M55.4,60.1l-.25,66.73a4,4,0,0,0,3.76,4.27H162.6a4,4,0,0,0,3.8-4.25l.26-66.75"/><path class="cls-4" d="M166.41,61.65,123.82,102a19,19,0,0,1-26.21-.15L55.48,60.66a6.28,6.28,0,0,1,6.25-6.56l99.74.68c3.5,0,5.2,2.55,5.18,6"/><g class="cls-5"><path class="cls-6" d="M98,32.21a4.67,4.67,0,0,1,.37.78,4.74,4.74,0,1,1-8.92,3.22,4.81,4.81,0,0,1-.21-.83l-7.74,2.79a4.63,4.63,0,0,1,.37.78,4.74,4.74,0,0,1-8.91,3.23,5.2,5.2,0,0,1-.22-.84l-6.62,2.39,26.39,73L131,102.78l-26.38-73Z"/><path class="cls-2" d="M88.19,62.67A4.12,4.12,0,1,1,85.68,68,4.18,4.18,0,0,1,88.19,62.67Zm4.1,16.21,5.23-19.32,2.74-1L95,77.87ZM90.21,68.21a1.66,1.66,0,0,0,1-2.23,1.66,1.66,0,1,0-1,2.23ZM101.51,67A4.12,4.12,0,1,1,99,72.35,4.18,4.18,0,0,1,101.51,67Zm2,5.54a1.66,1.66,0,0,0,1-2.23,1.66,1.66,0,1,0-1,2.23Z"/><path class="cls-7" d="M153.58,44a6.58,6.58,0,0,1-.12.86,4.74,4.74,0,0,1-9.22-2.23,5.53,5.53,0,0,1,.28-.81l-8-1.93a5,5,0,0,1-.13.85,4.74,4.74,0,1,1-9.21-2.22,5.27,5.27,0,0,1,.28-.82L120.63,36l-18.19,75.43,39.79,9.59,18.19-75.42Z"/><path class="cls-2" d="M129.73,61.55a4.18,4.18,0,0,1,3.13,5,4.19,4.19,0,1,1-3.13-5Zm-5.52,15.78,15-13.23,2.85.67L127.05,78Zm4.15-10a1.65,1.65,0,0,0,2-1.33,1.67,1.67,0,1,0-3.24-.77A1.65,1.65,0,0,0,128.36,67.28Zm10.07,5.25a4.12,4.12,0,1,1-1.91,8,4.12,4.12,0,1,1,1.91-8Zm-1.37,5.74a1.67,1.67,0,0,0,2-1.33,1.63,1.63,0,0,0-1.22-2.08,1.75,1.75,0,0,0-.81,3.41Z"/></g><line class="cls-8" x1="186.4" y1="69.1" x2="186.4" y2="55.1"/><line class="cls-8" x1="177.4" y1="62.1" x2="177.4" y2="59.1"/><path class="cls-8" d="M177.4,54.1V49.62a5.19,5.19,0,0,0-5.19-5.19h0"/><path class="cls-3" d="M166.41,61.65,123.82,102a19,19,0,0,1-26.21-.15L55.48,60.66"/><line class="cls-8" x1="19.4" y1="131.1" x2="199.4" y2="131.1"/></svg>