<svg xmlns="http://www.w3.org/2000/svg" xmlns:xlink="http://www.w3.org/1999/xlink" width="19" height="19" viewBox="0 0 19 19">
  <defs>
    <path id="24-a" d="M22,12.5 C22,17.7471424 17.7471424,22 12.5,22 C7.25285763,22 3,17.7471424 3,12.5 C3,7.25285763 7.25285763,3 12.5,3 C17.7471424,3 22,7.25285763 22,12.5 Z M21,12.5 C21,7.80514237 17.1948576,4 12.5,4 C7.80514237,4 4,7.80514237 4,12.5 C4,17.1948576 7.80514237,21 12.5,21 C17.1948576,21 21,17.1948576 21,12.5 Z M13,16.5 C13,16.7761424 12.7761424,17 12.5,17 C12.2238576,17 12,16.7761424 12,16.5 L12,11.5 C12,11.2238576 12.2238576,11 12.5,11 C12.7761424,11 13,11.2238576 13,11.5 L13,16.5 Z M13.125,8.5 C13.125,8.845 12.845,9.125 12.5,9.125 C12.155,9.125 11.875,8.845 11.875,8.5 C11.875,8.155 12.155,7.875 12.5,7.875 C12.845,7.875 13.125,8.155 13.125,8.5 Z"/>
  </defs>
  <g fill="#4b96f8" fill-rule="evenodd" transform="translate(-3 -3)">
    <mask id="24-b" fill="#4b96f8">
      <use xlink:href="#24-a"/>
    </mask>
    <use fill="#4b96f8" fill-rule="nonzero" xlink:href="#24-a"/>
    <g fill="#4b96f8" mask="url(#24-b)">
      <rect width="24" height="24"/>
    </g>
  </g>
</svg>
