<svg id="Layer_1" data-name="Layer 1" xmlns="http://www.w3.org/2000/svg" xmlns:xlink="http://www.w3.org/1999/xlink" viewBox="0 0 220 160"><defs><style>.cls-1,.cls-10,.cls-12,.cls-5{fill:none;}.cls-11,.cls-2,.cls-3{fill:#fff;}.cls-10,.cls-2,.cls-3,.cls-4,.cls-5,.cls-7{stroke:#072456;}.cls-10,.cls-12,.cls-13,.cls-14,.cls-2,.cls-3,.cls-4,.cls-7{stroke-linejoin:round;}.cls-10,.cls-11,.cls-12,.cls-13,.cls-14,.cls-2,.cls-3,.cls-4,.cls-5,.cls-7{stroke-width:2px;}.cls-12,.cls-13,.cls-14,.cls-3,.cls-5{stroke-linecap:round;}.cls-14,.cls-4,.cls-6{fill:#01c3a7;}.cls-11,.cls-5{stroke-miterlimit:10;}.cls-7{fill:#072456;}.cls-8{clip-path:url(#clip-path);}.cls-9{fill:#f2f7ff;}.cls-11,.cls-12,.cls-13,.cls-14{stroke:#07245b;}.cls-13{fill:#ff585f;}</style><clipPath id="clip-path"><path class="cls-1" d="M70.74,68.23A16.87,16.87,0,1,0,83.6,69.56h0A16.9,16.9,0,0,0,70.74,68.23Z"/></clipPath></defs><title>Dashboard_myaccount</title><path class="cls-2" d="M157,120.17l7,0V54.64a8,8,0,0,0-8.25-7.94L54.56,47a8.18,8.18,0,0,0-8,8.35v63.8"/><line class="cls-3" x1="163.91" y1="57.62" x2="46.56" y2="57.62"/><path class="cls-4" d="M166.89,131.09H42.36c-5.35,0-8.71-4.3-8.73-9.64v-1.28h143.2V121A10.25,10.25,0,0,1,166.89,131.09Z"/><path class="cls-4" d="M155.66,46.7,54.56,47a8.18,8.18,0,0,0-8,8.35v2.25H163.91v-3A8,8,0,0,0,155.66,46.7Z"/><line class="cls-5" x1="20.4" y1="131.09" x2="199.4" y2="131.09"/><rect class="cls-6" x="101.27" y="70.74" width="23.92" height="16.3"/><rect class="cls-6" x="128.88" y="70.74" width="23.92" height="16.3"/><rect class="cls-6" x="101.27" y="91.18" width="23.92" height="16.3"/><rect class="cls-6" x="128.88" y="91.18" width="23.92" height="16.3"/><rect class="cls-6" x="101.27" y="111.63" width="23.92" height="7.46"/><rect class="cls-6" x="128.88" y="111.63" width="23.92" height="7.46"/><path class="cls-7" d="M70.74,68.23A16.87,16.87,0,1,0,83.6,69.56h0A16.9,16.9,0,0,0,70.74,68.23Z"/><g class="cls-8"><path class="cls-9" d="M75.61,81.82a3.58,3.58,0,1,1,3.6-3.58,3.58,3.58,0,0,1-3.6,3.58m0-5.2a1.63,1.63,0,1,0,1.64,1.62,1.63,1.63,0,0,0-1.64-1.62"/><path class="cls-9" d="M80.84,93.94H70.39a1,1,0,0,1-1-1v-6.5A3.59,3.59,0,0,1,73,82.89h5.23a3.59,3.59,0,0,1,3.59,3.58V93a1,1,0,0,1-1,1m-9.47-2h8.49V86.47a1.63,1.63,0,0,0-1.63-1.63H73a1.63,1.63,0,0,0-1.63,1.63Z"/></g><path class="cls-10" d="M70.74,68.23A16.87,16.87,0,1,0,83.6,69.56h0A16.9,16.9,0,0,0,70.74,68.23Z"/><path class="cls-11" d="M184.22,131.1H121.71a5.79,5.79,0,0,1-5.77-5.8v-34a5.79,5.79,0,0,1,5.77-5.81h62.51A5.79,5.79,0,0,1,190,91.28v34A5.79,5.79,0,0,1,184.22,131.1Z"/><line class="cls-12" x1="124.26" y1="115.89" x2="172.61" y2="115.89"/><line class="cls-12" x1="124.26" y1="122.74" x2="137.86" y2="122.74"/><line class="cls-12" x1="143.9" y1="122.74" x2="159.01" y2="122.74"/><rect class="cls-11" x="124.26" y="91.56" width="9.82" height="9.89" rx="0.23" ry="0.23"/><ellipse class="cls-13" cx="170.72" cy="97.26" rx="5.67" ry="5.7"/><ellipse class="cls-14" cx="178.28" cy="97.26" rx="5.67" ry="5.7"/><line class="cls-5" x1="181.27" y1="64.86" x2="181.27" y2="50.96"/><path class="cls-5" d="M170.86,41a6.87,6.87,0,0,1,3.45,6v11"/></svg>