<svg _ngcontent-c3="" viewBox="0 0 140 24" xmlns="http://www.w3.org/2000/svg"><path _ngcontent-c3="" d="M16.1652909,2.5449408 C19.0585833,-0.3411072 23.7661861,-0.3411072 26.659286,2.5449408 C29.5524822,5.4310848 29.5524822,10.1272128 26.659286,13.0133568 L26.659286,13.0133568 L16.5151036,23.1328128 C15.3559581,24.2891328 13.4766894,24.2890368 12.317544,23.1328128 L12.317544,23.1328128 L24.5605062,10.9196928 C25.4014039,10.0808448 25.8645809,8.9655168 25.8645809,7.7791488 C25.8645809,6.5927808 25.4014039,5.4774528 24.5605062,4.6386048 C22.824627,2.9069568 20.0000461,2.9069568 18.2641669,4.6386048 L18.2641669,4.6386048 L10.2187642,12.6643968 L6.37092112,8.8259328 C5.79139653,8.2478208 5.79139653,7.3104768 6.37092112,6.7322688 C6.95054195,6.1541568 7.8901763,6.1541568 8.46979713,6.7322688 L8.46979713,6.7322688 L10.2187642,8.4769728 Z M132.425594,6.7013664 C136.873652,6.7013664 139.551571,9.5312544 139.551571,14.1721824 C139.551571,14.7381024 139.483437,15.3040224 139.483437,15.3719904 L139.483437,15.3719904 L129.15766,15.3719904 C129.225794,17.2736544 130.859761,18.6546144 132.788687,18.6546144 C134.604248,18.6546144 135.602778,17.7490464 136.079428,16.4586144 L136.079428,16.4586144 L139.369977,17.4320544 C138.621079,19.9223904 136.351676,22.0051104 132.788687,22.0051104 C128.817279,22.0051104 125.322424,19.1526624 125.322424,14.2853664 C125.322424,9.6896544 128.726529,6.7013664 132.425594,6.7013664 Z M63.0663835,6.7013856 C67.6505173,6.7013856 69.352522,9.2821536 69.352522,12.1799136 L69.352522,12.1799136 L69.352522,19.2657696 C69.352522,20.0354976 69.4433674,21.0542496 69.5341166,21.5522976 L69.5341166,21.5522976 L65.9485127,21.5522976 C65.8803786,21.1900896 65.8123408,20.3977056 65.8123408,19.8317856 C65.0634433,20.9862816 63.6790128,21.9824736 61.545781,21.9824736 C58.4595383,21.9824736 56.5758428,19.8997536 56.5758428,17.6358816 C56.5758428,15.0550176 58.4821534,13.6060896 60.887729,13.2439776 L60.887729,13.2439776 L64.4507178,12.7232736 C65.2676531,12.6099936 65.5399007,12.2025696 65.5399007,11.7045216 C65.5399007,10.6857696 64.7456768,9.8255136 63.11171,9.8255136 C61.4096091,9.8255136 60.4565982,10.9121376 60.3430414,12.1799136 L60.3430414,12.1799136 L56.870898,11.4554976 C57.0978191,9.1916256 59.1857244,6.7013856 63.0663835,6.7013856 Z M98.9133381,0.3399264 L98.9133381,16.6850784 C98.9133381,17.9301984 99.6168128,18.2924064 100.592631,18.2924064 C100.796937,18.2924064 101.001147,18.2924064 101.273491,18.2697504 L101.273491,18.2697504 L101.273491,21.5975904 C100.728803,21.7107744 100.274961,21.7786464 99.6622355,21.7786464 C96.8481442,21.7786464 95.0780054,20.1261024 95.0780054,17.3415264 L95.0780054,17.3415264 L95.0780054,0.3399264 L98.9133381,0.3399264 Z M41.5306838,2.830176 L41.5306838,7.142112 L44.4416834,7.142112 L44.4416834,10.6032 L41.5306838,10.6032 L41.5306838,16.645728 C41.5306838,17.90688 42.1187733,18.317568 43.2361529,18.317568 C43.7065475,18.317568 44.2358377,18.258912 44.4416834,18.20016 L44.4416834,18.20016 L44.4416834,21.42672 C44.0887912,21.573408 43.3831993,21.778656 42.236372,21.778656 C39.4136195,21.778656 37.6493511,20.106816 37.6493511,17.32032 L37.6493511,17.32032 L37.6493511,10.6032 L35.0325406,10.6032 L35.0325406,7.142112 L35.767484,7.142112 C37.2965552,7.142112 38.0022433,6.144672 38.0022433,4.854144 L38.0022433,4.854144 L38.0022433,2.830176 L41.5306838,2.830176 Z M87.1252382,6.7466688 C90.7109383,6.7466688 92.3448089,9.3047808 92.3448089,12.4742208 L92.3448089,12.4742208 L92.3448089,21.5749248 L88.4415346,21.5749248 L88.4415346,13.1534208 C88.4415346,11.5460928 87.6472145,10.2783168 85.7636152,10.2783168 C84.0615143,10.2783168 83.0629844,11.5913088 83.0629844,13.2666048 L83.0629844,13.2666048 L83.0629844,21.5522688 L79.1597102,21.5522688 L79.1597102,7.1315328 L82.9495239,7.1315328 L82.9495239,8.9200128 C83.8346895,7.4257728 85.5594055,6.7466688 87.1252382,6.7466688 Z M118.203086,6.7466688 C121.788787,6.7466688 123.422753,9.3047808 123.422753,12.4742208 L123.422753,12.4742208 L123.422753,21.5749248 L119.519383,21.5749248 L119.519383,13.1534208 C119.519383,11.5460928 118.725063,10.2783168 116.84156,10.2783168 C115.139459,10.2783168 114.140929,11.5913088 114.140929,13.2666048 L114.140929,13.2666048 L114.140929,21.5522688 L110.237558,21.5522688 L110.237558,7.1315328 L114.027372,7.1315328 L114.027372,8.9200128 C114.912538,7.4257728 116.637254,6.7466688 118.203086,6.7466688 Z M54.6927247,7.01832 C55.0104913,7.01832 55.3054502,7.063632 55.6005054,7.086192 L55.6005054,7.086192 L55.6005054,11.002704 C55.146567,10.912176 54.7834739,10.88952 54.4204771,10.88952 C52.423321,10.88952 50.698605,11.86296 50.698605,14.964432 L50.698605,14.964432 L50.698605,21.55224 L46.7952346,21.55224 L46.7952346,7.131504 L50.5851445,7.131504 L50.5851445,9.282192 C51.4702138,7.380528 53.4672737,7.01832 54.6927247,7.01832 Z M76.1835213,7.131552 L76.1835213,21.552288 L72.2801509,21.552288 L72.2801509,7.131552 L76.1835213,7.131552 Z M107.261418,7.131552 L107.261418,21.552288 L103.358047,21.552288 L103.358047,7.131552 L107.261418,7.131552 Z M2.17335195,2.5449504 C4.9490457,-0.2238816 9.3942168,-0.3359136 12.3056013,2.2078944 L12.3056013,2.2078944 L10.199219,4.3091424 C8.45275399,2.9153184 5.88983487,3.0248544 4.27213172,4.6386144 C2.53625252,6.3702624 2.53625252,9.1879584 4.27213172,10.9197024 L4.27213172,10.9197024 L10.2187546,16.8517344 L20.3629371,6.7322784 C20.9424617,6.1541664 21.8821922,6.1541664 22.4617168,6.7322784 C23.0412414,7.3103904 23.0412414,8.2478304 22.4617168,8.8259424 L22.4617168,8.8259424 L10.2187546,21.0390624 L2.17335195,13.0133664 C0.771887877,11.6152224 -9.62345716e-06,9.7563744 -9.62345716e-06,7.7791584 C-9.62345716e-06,5.8019424 0.771887877,3.9429984 2.17335195,2.5449504 Z M65.5172856,15.0776736 L62.249352,15.5757216 C61.2508221,15.7115616 60.4565982,16.2775776 60.4565982,17.3867616 C60.4565982,18.2471136 61.0693237,19.0620576 62.3401012,19.0620576 C63.9967793,19.0620576 65.5172856,18.2696736 65.5172856,15.7115616 L65.5172856,15.7115616 L65.5172856,15.0776736 Z M132.448305,9.8481504 C130.428534,9.8481504 129.316543,11.3876064 129.225794,12.7005984 L129.225794,12.7005984 L135.670816,12.7005984 C135.625393,11.2517664 134.672382,9.8481504 132.448305,9.8481504 Z M74.2090381,0.0003264 C75.5479497,0.0003264 76.6146137,1.0643904 76.6146137,2.4226944 C76.6146137,3.7130304 75.5706611,4.7997504 74.2090381,4.7997504 C72.8927417,4.7997504 71.8035588,3.7130304 71.8035588,2.4226944 C71.8035588,1.0643904 72.8927417,-0.0223296 74.2090381,0.0003264 Z M105.309723,0.0003264 C106.648634,0.0003264 107.715202,1.0643904 107.715202,2.4226944 C107.715202,3.7130304 106.671346,4.7997504 105.309723,4.7997504 C103.993426,4.7997504 102.904147,3.7130304 102.904147,2.4226944 C102.904147,1.0643904 103.970811,-0.0223296 105.309723,0.0003264 Z" fill="#FFF"></path></svg>