<svg id="Layer_1" data-name="Layer 1" xmlns="http://www.w3.org/2000/svg" viewBox="0 0 220 160"><defs><style>.cls-1{fill:#fff;}.cls-1,.cls-2,.cls-4,.cls-6,.cls-7{stroke:#072456;}.cls-1,.cls-4,.cls-5,.cls-6,.cls-7{stroke-linecap:round;}.cls-1,.cls-4,.cls-5,.cls-7{stroke-linejoin:round;}.cls-1,.cls-2,.cls-4,.cls-5,.cls-6,.cls-7{stroke-width:2px;}.cls-2,.cls-4{fill:#01c3a7;}.cls-2,.cls-6{stroke-miterlimit:10;}.cls-3{fill:#f3a6b1;}.cls-5,.cls-6,.cls-7{fill:none;}.cls-5{stroke:#fff;}</style></defs><title>Dashboard_Onboard</title><path class="cls-1" d="M134.5,34.38a10.45,10.45,0,1,0-17.11,8l-12.26,49h-33a2,2,0,0,0-2,2v1a11.93,11.93,0,0,0,11.94,11.92h28.76a7.62,7.62,0,0,0,7.4-5.77l15.71-62.74A10.51,10.51,0,0,0,134.5,34.38Z"/><path class="cls-2" d="M115.26,79.31a4,4,0,0,1-1.35-.23c-8.65-3.06-19.74-1.88-27.52-.36a4.07,4.07,0,1,1-1.57-8c8.78-1.72,21.42-3,31.8.67a4.07,4.07,0,0,1-1.36,7.9Z"/><path class="cls-1" d="M115.26,79.31a4,4,0,0,1-1.35-.23c-8.65-3.06-19.74-1.88-27.52-.36a4.07,4.07,0,1,1-1.57-8c8.78-1.72,21.42-3,31.8.67a4.07,4.07,0,0,1-1.36,7.9Z"/><path class="cls-3" d="M111.59,106.27H89.68c5.95,6.91,29.53,24.48,29.53,24.48l-7-24.53C112,106.24,111.8,106.27,111.59,106.27Z"/><path class="cls-4" d="M102.67,53.63h0a18.42,18.42,0,0,1-2-14.89,20.38,20.38,0,0,0,.68-8.14,20.66,20.66,0,0,0-41.11,4c.8,10.86,10.23,19.07,21.12,19.07Z"/><polyline class="cls-5" points="73.21 32.62 79.4 39.16 89.52 28.49"/><line class="cls-6" x1="151.67" y1="102.3" x2="131.78" y2="102.3"/><line class="cls-6" x1="136.01" y1="110.19" x2="127.01" y2="110.19"/><line class="cls-6" x1="142.7" y1="110.19" x2="139.71" y2="110.19"/><path class="cls-7" d="M111.69,106.27H89.46c6,7,11.63,17.36,1.22,24.83h28.74l-7.1-24.88C112.11,106.24,111.9,106.27,111.69,106.27Z"/><line class="cls-1" x1="105.63" y1="90.85" x2="109.12" y2="94.76"/><line class="cls-6" x1="20.4" y1="131.1" x2="199.4" y2="131.1"/></svg>