<svg id="Layer_1" data-name="Layer 1" xmlns="http://www.w3.org/2000/svg" viewBox="0 0 220 160"><defs><style>.cls-1,.cls-10,.cls-11,.cls-3,.cls-5,.cls-7{fill:none;}.cls-1,.cls-11,.cls-2,.cls-3,.cls-4,.cls-5,.cls-6,.cls-7{stroke:#072456;stroke-width:2px;}.cls-1,.cls-11,.cls-2,.cls-3,.cls-5,.cls-6,.cls-7{stroke-linecap:round;}.cls-1,.cls-2,.cls-3,.cls-4,.cls-5,.cls-6,.cls-7{stroke-linejoin:round;}.cls-2{fill:#01c3a7;}.cls-3{stroke-dasharray:4.38 7.01;}.cls-4,.cls-6,.cls-8{fill:#fff;}.cls-5{stroke-dasharray:4.38 7.01;}.cls-7{stroke-dasharray:4.38 7.01;}.cls-9{fill:#ff8f1c;}.cls-11{stroke-miterlimit:10;}</style></defs><title>Dashboard_pricesandtickets</title><line class="cls-1" x1="193" y1="97.94" x2="187.63" y2="107.25"/><path class="cls-1" d="M185.53,77.77a8.3,8.3,0,0,1,3.06,11.34l-4.89,8.5"/><path class="cls-2" d="M134.24,122.56l.11-74.37c0-5.84-4.23-10.58-10.07-10.59H120a8.5,8.5,0,0,1-8.61,8.58c-6.52,0-9-6.1-9-8.47h-4c-5.85,0-9.94,4.57-10,10.41l-.12,74.38Z"/><line class="cls-1" x1="87.97" y1="66.6" x2="90.46" y2="66.58"/><line class="cls-3" x1="97.47" y1="66.55" x2="128.13" y2="66.42"/><line class="cls-1" x1="131.63" y1="66.41" x2="134.12" y2="66.4"/><path class="cls-4" d="M112.92,131.1,96.35,68.92a10.59,10.59,0,0,0-12.95-7.5l-4.09,1.09A8.5,8.5,0,0,1,73.21,73c-6.29,1.71-9.92-3.8-10.53-6.09L58.59,68A10.57,10.57,0,0,0,51.09,81L64.45,131.1Z"/><line class="cls-1" x1="55.84" y1="98.82" x2="58.24" y2="98.17"/><line class="cls-5" x1="65" y1="96.33" x2="94.59" y2="88.27"/><line class="cls-1" x1="97.97" y1="87.35" x2="100.37" y2="86.7"/><path class="cls-6" d="M98.34,131.1l36.82-63.95a10.58,10.58,0,0,1,14.44-3.89l3.68,2.11a8.5,8.5,0,0,0,3.16,11.74c5.63,3.28,10.57-1.11,11.75-3.17l3.67,2.12a10.56,10.56,0,0,1,3.9,14.43L152.38,131.1Z"/><line class="cls-1" x1="166.54" y1="106.51" x2="164.39" y2="105.26"/><line class="cls-7" x1="158.33" y1="101.73" x2="131.84" y2="86.3"/><line class="cls-1" x1="128.82" y1="84.54" x2="126.67" y2="83.29"/><path class="cls-8" d="M111.14,94,111,83.3l-3.84.07,0-2.28c2.34-.07,3.94-1.4,4.22-3.08l2.93-.05.29,15.94Z"/><path class="cls-9" d="M77.41,111.49a5.48,5.48,0,0,1-.41-1c-.75-2.7.62-5.7,4.2-6.68s6.18.75,6.91,3.42a5.74,5.74,0,0,1-1.67,5.59L84,115.39a3.33,3.33,0,0,0-1,1.77l7.38-2,.78,2.82-11.39,3.13a7.28,7.28,0,0,1,1.82-7.56l2.12-2.22c1.09-1.14,1.39-2.09,1.1-3.15a2.17,2.17,0,0,0-2.9-1.47,2.4,2.4,0,0,0-1.74,3.23,3.75,3.75,0,0,0,.35.82Z"/><path class="cls-9" d="M133.1,109.19l5.41-1.06-6.08-3.45,1.45-2.54,9.81,5.58-1.35,2.37-5.29,1a4.74,4.74,0,0,1,1.61,6.51c-1.36,2.4-4.58,3.48-7.94,1.57s-4-5.05-2.84-7.47l3.15,1.06a2.82,2.82,0,0,0,1.14,3.87,2.44,2.44,0,0,0,3.54-.76,2.33,2.33,0,0,0-1.09-3.34,3.92,3.92,0,0,0-1.39-.5Z"/><rect class="cls-10" x="35.47" y="33.64" width="149.18" height="97.47"/><line class="cls-11" x1="20.56" y1="131.1" x2="199.56" y2="131.1"/></svg>