<svg xmlns="http://www.w3.org/2000/svg" xmlns:xlink="http://www.w3.org/1999/xlink" width="102" height="37" viewBox="0 0 102 37">
    <defs>
        <path id="a" d="M0 36.87h101.487V0H0z"/>
    </defs>
    <g fill="none" fill-rule="evenodd">
        <path fill="#004774" d="M80.987 30.11s-.607-1.395-1.117-2.218c-1.224-1.972-4.14-4.258-4.14-4.258s-1.09-.724-1.9.057c-.826.795.057 2.22.057 2.22s3.296 1.055 4.983 8.554c.262 1.164.994 2.336 1.883 2.398 1.668.118 2.079-1.566 2.079-1.566s.51-1.797.883-2.93c.467-1.414.796-2.189 1.315-3.585.7-1.888 1.112-2.945 1.822-4.83.767-2.03 1.963-5.208 1.963-5.208S92.938 8.106 98.993 2.536L101.487.13s-1.43-1.564-7.865 6.179c0 0-3.903 4.355-8.18 13.622 0 0-3.632 8.101-4.279 9.704l-.176.475zM27.153 18.532h-1.897s-3.2-4.586-3.213-4.598a31.397 31.397 0 0 1-.855-1.34s.082 1.071.082 1.84v4.098h-1.8V10.02h1.887l3.187 4.644c.326.476.592.817.834 1.221-.049-.783-.036-1.025-.036-1.683V10.02h1.811v8.51zM31.382 14.555a3.118 3.118 0 0 0-.69-.072c-.858 0-1.425.61-1.425 1.635 0 .681.35 1.045.882 1.045.663 0 1.233-.607 1.233-1.51v-1.098zm-1.619 4.098c-1.316 0-2.138-.927-2.138-2.535 0-1.952 1.28-3.074 3.418-3.074.7 0 1.134.05 1.872.269v3.464c0 .753.096 1.755.096 1.755h-1.388s-.024-.33-.049-.722c-.398.551-1.099.843-1.811.843zM35.608 16.482c0 .745.254.975.725.975.277 0 .58-.12.977-.352v1.208c-.373.242-.832.39-1.412.39-1.111 0-1.898-.44-1.898-1.783v-2.596h-.867v-1.158H34v-1.351h1.608v1.351h1.594v1.158h-1.594v2.158z"/>
        <mask id="b" fill="#fff">
            <use xlink:href="#a"/>
        </mask>
        <path fill="#004774" d="M38.18 18.531h1.646v-5.365h-1.645v5.365zm.834-6.073c-.53 0-.966-.412-.966-.926 0-.512.412-.939.966-.939.497 0 .944.438.944.964 0 .5-.424.901-.944.901zM43.193 14.448c-.724 0-1.122.522-1.122 1.39 0 .9.388 1.425 1.122 1.425.736 0 1.16-.513 1.16-1.426 0-.878-.46-1.389-1.16-1.389m0 4.254c-1.665 0-2.801-1.025-2.801-2.865 0-1.793 1.099-2.83 2.801-2.83 1.68 0 2.791 1.003 2.791 2.83 0 1.84-1.123 2.865-2.79 2.865M47.941 18.532h-1.607v-3.647c0-.622-.11-1.34-.265-1.718h1.605c.098.23.121.316.17.596a2.52 2.52 0 0 1 1.764-.741c1.028 0 1.823.791 1.823 2.059v3.45h-1.678v-3.159c0-.865-.484-.915-.711-.915-.208 0-1.1.173-1.1 1.77v2.305zM55.779 14.555a3.091 3.091 0 0 0-.688-.072c-.857 0-1.425.61-1.425 1.635 0 .681.35 1.045.882 1.045.665 0 1.23-.607 1.23-1.51v-1.098zm-1.62 4.098c-1.315 0-2.137-.927-2.137-2.535 0-1.952 1.282-3.074 3.419-3.074.702 0 1.135.05 1.872.269v3.464c0 .753.098 1.755.098 1.755h-1.39s-.024-.33-.05-.722c-.398.551-1.097.843-1.811.843zM57.965 18.531h1.654v-8.51h-1.654zM66.807 13.532s.554.05.678.05c1.025 0 1.665-.416 1.665-1.075 0-.72-.53-1.12-1.727-1.12-.146 0-.362.012-.616.035v2.11zm4.928 5h-2.307l-2.621-3.414v3.413h-1.943v-8.45a59.566 59.566 0 0 1 2.572-.086c2.621 0 3.731.855 3.731 2.464 0 1.304-1.003 2.145-2.609 2.183l3.177 3.89z" mask="url(#b)"/>
        <path fill="#004774" d="M75.226 14.555a3.111 3.111 0 0 0-.689-.072c-.857 0-1.425.61-1.425 1.635 0 .681.35 1.045.882 1.045.663 0 1.232-.607 1.232-1.51v-1.098zm-1.618 4.098c-1.318 0-2.138-.927-2.138-2.535 0-1.952 1.28-3.074 3.416-3.074.7 0 1.136.05 1.875.269v3.464c0 .753.095 1.755.095 1.755h-1.389s-.025-.33-.049-.722c-.397.551-1.098.843-1.81.843zM77.666 18.531h1.642v-5.365h-1.642v5.365zm.832-6.073c-.53 0-.965-.412-.965-.926 0-.512.41-.939.965-.939.494 0 .943.438.943.964 0 .5-.424.901-.943.901zM80.42 18.531h1.653v-8.51H80.42zM0 14.558c0-4.208 3.381-7.621 7.55-7.621 4.173 0 7.555 3.413 7.555 7.621 0 4.21-3.382 7.625-7.555 7.625-4.169 0-7.55-3.414-7.55-7.625zm3.898-3.711l3.825 1.776h-5.94v1.196h5.98l-2.908 1.426H1.783v1.188h3.072l3.637 1.776h2.73l-3.835-1.776h5.96v-1.188h-5.95l2.905-1.426h3.044v-1.196h-3.062l-3.637-1.776h-2.75zM31.53 24.562a2.224 2.224 0 0 0-.671-.086c-.82 0-1.353.645-1.353 1.753 0 .762.325 1.181.848 1.181.643 0 1.176-.666 1.176-1.676v-1.172zm-1.373 3.86c-.997 0-1.69-.796-1.69-2.248 0-1.676.999-2.708 2.579-2.708.533 0 .89.054 1.452.247v3.246c0 .635.07 1.355.07 1.355h-.89s-.05-.516-.06-.688c-.325.527-.908.795-1.461.795zM37.101 28.056c-.454.258-.85.376-1.304.376-1.235 0-2.055-.924-2.055-2.364 0-1.559.79-2.602 2.203-2.602.514 0 .79.118 1.147.3l-.179.979c-.385-.204-.514-.269-.889-.269-.75 0-1.204.602-1.204 1.559 0 .87.414 1.43 1.116 1.43.365 0 .681-.108 1.097-.387l.068.978zM41.309 28.056c-.454.258-.85.376-1.305.376-1.233 0-2.054-.924-2.054-2.364 0-1.559.79-2.602 2.202-2.602.514 0 .792.118 1.147.3l-.178.979c-.386-.204-.514-.269-.889-.269-.75 0-1.205.602-1.205 1.559 0 .87.415 1.43 1.117 1.43.365 0 .681-.108 1.096-.387l.069.978zM43.364 28.314h-.969v-3.172c0-.698-.028-.999-.167-1.558h.939c.087.345.107.463.118.914.346-.72.691-1.021 1.224-1.021.198 0 .287.043.494.14v.924a1.659 1.659 0 0 0-.415-.054c-.76 0-1.224.732-1.224 1.967v1.86zM47.621 24.348c-.513 0-.977.59-1.056 1.3.169.032.246.043.386.043.75 0 1.224-.311 1.224-.796 0-.3-.237-.547-.554-.547zm1.236 3.687c-.445.3-.85.419-1.363.419-1.225 0-1.986-.892-1.986-2.311 0-1.58.889-2.678 2.164-2.678.928 0 1.51.538 1.51 1.388 0 .988-.869 1.601-2.262 1.601-.118 0-.197 0-.375-.011.07.71.445 1.13 1.028 1.13.405 0 .839-.162 1.284-.474v.936zM53.262 24.594a2.075 2.075 0 0 0-.83-.16c-.75 0-1.265.698-1.265 1.74 0 .764.346 1.249.861 1.249.67 0 1.234-.496 1.234-1.947v-.882zm-1.353 3.838c-1.076 0-1.817-.902-1.817-2.267 0-1.57.908-2.699 2.153-2.699.326 0 .632.032 1.017.171v-2.826h.979v5.868c0 .85.078 1.635.078 1.635h-.87s-.048-.462-.058-.634c-.337.516-.909.752-1.482.752zM55.732 28.314h1.047v-4.73h-1.047v4.73zm.533-5.525a.63.63 0 0 1-.622-.634c0-.377.256-.667.603-.667.326 0 .621.3.621.677a.618.618 0 0 1-.602.624zM60.75 28.12a1.63 1.63 0 0 1-.988.334c-.85 0-1.364-.452-1.364-1.56v-2.483h-.65v-.826h.65v-1.109h.979v1.109h1.284v.826h-1.284v2.29c0 .624.217.87.603.87.206 0 .493-.128.77-.321v.87zM63.614 24.348c-.513 0-.978.59-1.057 1.3a1.8 1.8 0 0 0 .386.043c.75 0 1.225-.311 1.225-.796 0-.3-.237-.547-.554-.547zm1.236 3.687c-.445.3-.85.419-1.364.419-1.225 0-1.985-.892-1.985-2.311 0-1.58.888-2.678 2.162-2.678.929 0 1.512.538 1.512 1.388 0 .988-.87 1.601-2.262 1.601-.118 0-.198 0-.375-.011.07.71.445 1.13 1.027 1.13.405 0 .84-.162 1.285-.474v.936zM69.255 24.594a2.075 2.075 0 0 0-.83-.16c-.75 0-1.265.698-1.265 1.74 0 .764.346 1.249.86 1.249.672 0 1.235-.496 1.235-1.947v-.882zm-1.353 3.838c-1.077 0-1.818-.902-1.818-2.267 0-1.57.909-2.699 2.153-2.699.326 0 .633.032 1.018.171v-2.826h.978v5.868c0 .85.079 1.635.079 1.635h-.869s-.05-.462-.06-.634c-.336.516-.909.752-1.481.752z" mask="url(#b)"/>
    </g>
</svg>
