<svg id="Layer_1" data-name="Layer 1" xmlns="http://www.w3.org/2000/svg" viewBox="0 0 220 160"><defs><style>.cls-1,.cls-2,.cls-6{fill:#fff;}.cls-1,.cls-2,.cls-3,.cls-4,.cls-5{stroke:#072456;stroke-width:2px;}.cls-1,.cls-4{stroke-miterlimit:10;}.cls-2,.cls-3,.cls-4,.cls-5{stroke-linecap:round;}.cls-2,.cls-3,.cls-5{stroke-linejoin:round;}.cls-3{fill:#01c3a7;}.cls-4{fill:none;}.cls-5{fill:#033f85;}</style></defs><title>Dashboard_TrainlineforBusiness</title><rect class="cls-1" x="53.3" y="52.79" width="111.84" height="78.25" rx="7.98" ry="7.98"/><path class="cls-2" d="M125.45,38.12H93.93A3.78,3.78,0,0,0,90,41.78v11h7V47.18a2.41,2.41,0,0,1,2.48-2.33h19.7a2.15,2.15,0,0,1,2.22,2.09v5.85h7V40.9A2.87,2.87,0,0,0,125.45,38.12Z"/><path class="cls-3" d="M61.25,52.79h95.94a8,8,0,0,1,8,8V84.19a0,0,0,0,1,0,0H53.3a0,0,0,0,1,0,0V60.75A8,8,0,0,1,61.25,52.79Z"/><rect class="cls-1" x="104.25" y="79.67" width="9.94" height="11.92" rx="1.63" ry="1.63"/><line class="cls-4" x1="20.4" y1="131.1" x2="199.4" y2="131.1"/><path class="cls-5" d="M148.05,74.83h0a20.6,20.6,0,0,0,2.2-16.62,23,23,0,1,1,22.08,16.62H148.05Z"/><path class="cls-6" d="M166.45,63.59a.89.89,0,0,0,.74-.4l2.36-3.55a.89.89,0,0,0-.25-1.23.88.88,0,0,0-1.22.25l-2.37,3.55a.89.89,0,0,0,.74,1.38"/><path class="cls-6" d="M178.27,63.59a.88.88,0,0,0,.73-1.38l-2.36-3.55a.89.89,0,0,0-1.23-.25.88.88,0,0,0-.24,1.23l2.36,3.55a.88.88,0,0,0,.74.4"/><path class="cls-6" d="M174.87,55.6a1,1,0,0,0,2.07,0,1,1,0,1,0-2.07,0"/><path class="cls-6" d="M167.78,55.6a1,1,0,0,0,2.07,0,1,1,0,1,0-2.07,0"/><path class="cls-6" d="M172.36,52.93c3.64,0,6.55-4.17,6.77-9.72a.88.88,0,0,0-.85-.92.89.89,0,0,0-.92.85c-.17,4.42-2.42,8-5,8s-4.83-3.6-5-8a.89.89,0,0,0-.92-.85.88.88,0,0,0-.85.92c.22,5.55,3.13,9.72,6.78,9.72"/><path class="cls-6" d="M167.05,60a3.26,3.26,0,0,1-3.12-2.36,20.13,20.13,0,0,1,.85-13.45l.24-.57a3.24,3.24,0,0,1,3-2h8.7a3.23,3.23,0,0,1,3,2l.25.57a20.26,20.26,0,0,1,.85,13.45A3.26,3.26,0,0,1,177.67,60H167.05m1-16.58a1.49,1.49,0,0,0-1.36.9l-.24.57a18.39,18.39,0,0,0-.78,12.26,1.48,1.48,0,0,0,1.42,1.07h10.62a1.49,1.49,0,0,0,1.42-1.07,18.46,18.46,0,0,0-.78-12.26l-.24-.57a1.5,1.5,0,0,0-1.36-.9Zm10.86.55h0Z"/></svg>