<svg xmlns="http://www.w3.org/2000/svg" xmlns:xlink="http://www.w3.org/1999/xlink" width="74" height="30" viewBox="0 0 74 30">
    <defs>
        <path id="a" d="M23.754 12.097V.33H.644v11.768z"/>
        <path id="c" d="M0 .846v16.112h13.662V.846H0z"/>
    </defs>
    <g fill="none" fill-rule="evenodd">
        <path d="M-8 0h90v30H-8z"/>
        <path fill="#009DE2" d="M6.449 9.674h5.034c2.712 0 3.718 1.422 3.563 3.475-.232 3.396-2.246 5.291-4.957 5.291H8.772c-.387 0-.62.238-.697.949l-.542 3.87c0 .237-.154.394-.387.394H3.893c-.31 0-.387-.236-.31-.71L5.52 10.464c.077-.553.388-.79.93-.79"/>
        <path fill="#113984" d="M43.474 13.307H41.77c-.388 0-.466.237-.388.553l2.092 6.24-2.092 3c-.154.238-.078.474.233.474h1.936c.31 0 .387-.079.542-.315l6.43-9.478c.232-.316.077-.632-.233-.632h-1.782c-.31 0-.464.158-.62.395l-2.71 3.95-1.162-4.029c-.078-.079-.232-.158-.542-.158zm-8.444 5.845c-1.084 0-1.858-.87-1.703-1.975.155-1.105 1.161-1.974 2.323-1.974s1.859.869 1.705 1.974c-.155 1.026-1.163 1.975-2.325 1.975zm1.395 1.026c.155-.157.31-.236.31-.078l-.077.473c0 .237.077.395.309.395h1.705c.309 0 .387-.08.464-.553l1.007-6.555c.077-.316 0-.474-.31-.474h-1.859c-.155 0-.232.08-.31.316l-.077.395c0 .236-.156.236-.232 0-.31-.79-1.085-1.106-2.247-1.027-2.556.079-4.337 2.053-4.493 4.58-.155 1.975 1.24 3.555 3.099 3.555 1.472-.079 2.091-.473 2.71-1.027zm-11.231-5.29h1.548c.93 0 1.628-.712 1.628-1.897.077-.79-.466-1.264-1.24-1.264h-1.472l-.464 3.16zm3.098-5.45c1.704 0 3.253.947 3.02 3.316-.232 2.765-1.703 4.344-4.027 4.344H25.27c-.31 0-.465.237-.543.71l-.387 2.528c-.077.396-.232.553-.542.553H21.94c-.31 0-.387-.157-.31-.632l1.55-10.109c.077-.474.232-.71.62-.71h4.492z"/>
        <g transform="translate(49.928 9.108)">
            <mask id="b" fill="#fff">
                <use xlink:href="#a"/>
            </mask>
            <path fill="#009DE2" d="M21.74 11.86h-1.936c-.155 0-.233-.158-.233-.237l1.705-10.9c0-.157.154-.236.31-.236h1.936c.155 0 .233.158.233.237l-1.628 10.82c-.076.158-.231.316-.387.316zm-7.668-1.816c-1.084 0-1.859-.87-1.704-1.975.155-1.105 1.162-1.974 2.324-1.974 1.084 0 1.859.869 1.704 1.974-.155 1.027-1.24 1.975-2.324 1.975zm1.395 1.026c.155-.158.309-.236.309-.079l-.078.475c0 .236.078.394.31.394h1.704c.31 0 .388-.079.466-.553l1.006-6.555c.078-.316 0-.474-.309-.474h-1.86c-.154 0-.232.08-.31.316l-.077.395c0 .237-.155.237-.232 0-.31-.79-1.085-1.106-2.246-1.027-2.556.079-4.338 2.054-4.493 4.58-.155 1.975 1.24 3.555 3.098 3.555 1.472-.079 2.092-.474 2.712-1.027zM4.235 5.778h1.55c.929 0 1.626-.71 1.626-1.895.077-.79-.465-1.264-1.24-1.264H4.7l-.465 3.16zM7.334.33c1.703 0 3.253.947 3.02 3.317C10.122 6.41 8.651 7.99 6.326 7.99H4.312c-.31 0-.464.237-.542.711l-.387 2.527c-.077.395-.233.553-.542.553H.982c-.31 0-.388-.158-.31-.632L2.222 1.04c.077-.474.231-.71.62-.71h4.492z" mask="url(#b)"/>
        </g>
        <g transform="translate(0 4.563)">
            <mask id="d" fill="#fff">
                <use xlink:href="#c"/>
            </mask>
            <path fill="#113984" d="M3.273.846h5.035c1.394 0 3.098.08 4.26 1.027.774.71 1.162 1.738 1.085 2.923-.31 3.949-2.634 6.16-5.732 6.16H5.442c-.388 0-.697.316-.852 1.027l-.697 4.502c-.078.315-.156.473-.387.473h-3.1c-.309 0-.464-.236-.386-.868L2.266 1.716c.077-.632.387-.87 1.007-.87" mask="url(#d)"/>
        </g>
        <path fill="#172C70" d="M4.667 16.15l.853-5.686c.077-.553.386-.79.929-.79h5.034c.853 0 1.472.158 2.014.395-.542 3.475-2.711 5.45-5.654 5.45H5.364c-.31 0-.542.158-.697.631"/>
    </g>
</svg>
