<svg id="Layer_1" data-name="Layer 1" xmlns="http://www.w3.org/2000/svg" viewBox="0 0 220 160"><defs><style>.cls-1,.cls-6,.cls-9{fill:#fff;}.cls-1,.cls-10,.cls-5,.cls-7,.cls-9{stroke:#072456;}.cls-1,.cls-10,.cls-5,.cls-7{stroke-miterlimit:10;}.cls-1,.cls-10,.cls-5,.cls-7,.cls-8,.cls-9{stroke-width:2px;}.cls-2,.cls-5{fill:#01c3a7;}.cls-3{fill:#072456;}.cls-4{fill:#ff8f1c;}.cls-10,.cls-7,.cls-8{fill:none;}.cls-8{stroke:#07245b;}.cls-10,.cls-8,.cls-9{stroke-linecap:round;}.cls-8,.cls-9{stroke-linejoin:round;}</style></defs><title>Dashboard_Gettingtickets</title><path class="cls-1" d="M127.53,66.56h42.31a7.68,7.68,0,0,1,7.68,7.68v22.1a0,0,0,0,1,0,0H119.85a0,0,0,0,1,0,0V74.25A7.68,7.68,0,0,1,127.53,66.56Z"/><path class="cls-1" d="M168.57,96.35V79.47a2,2,0,0,0-2-2h-35.8a2,2,0,0,0-2,2V96.35"/><path class="cls-2" d="M150.21,84v1.86H154v1.86h1.87V84m0,7.44H154v1.86h1.87M148.33,84h-3.74v1.86h3.74M142.72,84h-1.87v1.86h1.87"/><path class="cls-2" d="M144.59,85.88h-1.87v1.86h1.87m-1.87,0h-1.87v3.72h1.87m0,1.86h-1.87v1.86h1.87M149,90.84h-1.25v1.24H149"/><path class="cls-2" d="M150.21,93.32h-3.75V89.6h3.75Zm-5.62-5.58v3.72h-1.87v1.86h1.87V97h1.87V95.18h1.87V97h1.88V95.18H154V93.32h-1.87V91.46H154V89.6h-1.87V87.74h-1.87V85.88h-1.88v1.86Zm0,11.17V97h-3.74V98.9h3.74Zm3.74,0V97h-1.87V98.9h1.87Zm7.49-3.73H154V97h1.87Z"/><path class="cls-2" d="M154,98.9h-3.74V97H154"/><path class="cls-1" d="M114.6,95.36h67.93a5.81,5.81,0,0,1,5.81,5.81V131.1a0,0,0,0,1,0,0H108.79a0,0,0,0,1,0,0V101.17A5.81,5.81,0,0,1,114.6,95.36Z"/><rect class="cls-3" x="124.82" y="114.22" width="46.74" height="4.96" rx="1.97" ry="1.97"/><circle class="cls-4" cx="168.95" cy="104.79" r="2.49"/><circle class="cls-4" cx="178.9" cy="104.79" r="2.49"/><rect class="cls-5" x="64.16" y="30.82" width="55.69" height="100.29" rx="9.94" ry="9.94"/><polygon class="cls-1" points="119.85 114.22 64.16 114.3 64.16 47.7 119.85 47.7 119.85 114.22"/><path class="cls-2" d="M95,68.72v3.14h6.55V75h3.28V68.72m0,12.54H101.5V84.4h3.28M91.67,68.72H85.11v3.14h6.56m-9.84-3.14H78.55v3.14h3.28"/><path class="cls-2" d="M85.11,71.86H81.83V75h3.28m-3.28,0H78.55v6.28h3.28m0,3.13H78.55v3.14h3.28m10.93-7.32H90.57v2.09h2.19"/><path class="cls-2" d="M95,84.4H88.39V78.13H95ZM85.11,75v6.28H81.83V84.4h3.28v6.28h3.28V87.54h3.28v3.14H95V87.54h6.55V84.4H98.22V81.27h3.28V78.13H98.22V75H95V71.86H91.67V75Zm0,18.82V90.68H78.55v3.13Zm6.56,0V90.68H88.39v3.13Zm13.11-6.27H101.5v3.14h3.28Z"/><path class="cls-2" d="M101.5,93.81H95V90.67h6.55"/><path id="SVGID" class="cls-6" d="M31.34,102.31l-.11,27a1.7,1.7,0,0,0,1.59,1.79h43.3a2.28,2.28,0,0,0,2-2l.11-26.74"/><path id="SVGID-2" data-name="SVGID" class="cls-7" d="M31.34,102.31l-.11,27a1.7,1.7,0,0,0,1.59,1.79h43.3a2.28,2.28,0,0,0,2-2l.11-26.74"/><path class="cls-1" d="M62.13,117.52a10.81,10.81,0,0,1-14.91-.09L31.34,102.12v-.05a2.7,2.7,0,0,1,2.71-2.74H74.76c1.5,0,3.33,1.37,3.32,2.86Z"/><path class="cls-8" d="M42.64,79a6.58,6.58,0,0,0,6.48-6.7l.08-4.73"/><path class="cls-8" d="M47.94,85.42a6.59,6.59,0,0,0,6.48-6.71"/><path class="cls-9" d="M172.6,123.16H132.26c-3-.31-5.11-4-5.11-7l41.35,0C168.87,119.4,171.14,122.52,172.6,123.16Z"/><ellipse class="cls-4" cx="34.32" cy="100.32" rx="9.94" ry="9.93"/><path class="cls-6" d="M33.83,104.76V99.45H31.92V98.31a2,2,0,0,0,2.13-1.49h1.46v7.94Z"/><line class="cls-10" x1="20.4" y1="131.1" x2="199.4" y2="131.1"/></svg>