<svg id="Layer_1" data-name="Layer 1" xmlns="http://www.w3.org/2000/svg" viewBox="0 0 220 160"><defs><style>.cls-1,.cls-2,.cls-5{fill:#fff;}.cls-1,.cls-3,.cls-4,.cls-5,.cls-6,.cls-7,.cls-8{stroke:#07245b;stroke-width:2px;}.cls-1,.cls-7,.cls-8{stroke-linecap:round;}.cls-1,.cls-5,.cls-7{stroke-linejoin:round;}.cls-3,.cls-4,.cls-6,.cls-8{fill:none;stroke-miterlimit:10;}.cls-4{stroke-dasharray:5.68 5.68;}.cls-6{stroke-dasharray:5.86 5.86;}.cls-7{fill:#ff585f;}.cls-9{fill:#01bea2;}</style></defs><title>Dashboard_ticketchanges</title><path class="cls-1" d="M165.79,67.3a8.19,8.19,0,0,1,2.55-11.46l-2.18-3.33a10.58,10.58,0,0,0-14.5-3.16L107.43,77.19,95.18,84.9l-4.75,3a10.55,10.55,0,0,0-3.21,14.72l1.86,2.84a8.57,8.57,0,0,1,11.69,2.5,8.21,8.21,0,0,1-2.55,11.47l2.31,3.52A10.57,10.57,0,0,0,115,126.1l61.24-38.54a10.55,10.55,0,0,0,3.21-14.72l-2-3A8.55,8.55,0,0,1,165.79,67.3Z"/><line class="cls-2" x1="136.39" y1="58.96" x2="161.63" y2="96.48"/><line class="cls-3" x1="136.39" y1="58.96" x2="137.91" y2="61.21"/><line class="cls-4" x1="141.08" y1="65.93" x2="158.53" y2="91.87"/><line class="cls-3" x1="160.12" y1="94.23" x2="161.63" y2="96.48"/><path class="cls-5" d="M157.73,108.05c0-6.51,6.25-8.58,8.62-8.58V95.24a10.9,10.9,0,0,0-10.71-10.81l-74.29.11A10.57,10.57,0,0,0,70.77,95.09v4a8.59,8.59,0,1,1,0,17.18v4.47A10.2,10.2,0,0,0,81.06,131.1h74.59a10.36,10.36,0,0,0,10.67-10.21v-4.23A8.52,8.52,0,0,1,157.73,108.05Z"/><line class="cls-2" x1="137.75" y1="84.43" x2="137.82" y2="131.03"/><line class="cls-3" x1="137.75" y1="84.43" x2="137.75" y2="87.21"/><line class="cls-6" x1="137.76" y1="93.07" x2="137.81" y2="125.32"/><line class="cls-3" x1="137.81" y1="128.25" x2="137.82" y2="131.03"/><path class="cls-7" d="M88.76,64.57h0a18.42,18.42,0,0,1-2-14.89A20.65,20.65,0,1,0,46.36,45.5c.79,10.85,10.22,19.07,21.12,19.07Z"/><path class="cls-2" d="M64.33,43.71,60.11,39.5l2.81-2.81,4.22,4.22,4.22-4.22,2.81,2.81L70,43.71l4.22,4.22-2.81,2.81-4.22-4.22-4.22,4.22-2.81-2.81Z"/><line class="cls-8" x1="38.3" y1="93.37" x2="57.2" y2="93.37"/><line class="cls-8" x1="38.3" y1="84.43" x2="48.25" y2="84.43"/><rect class="cls-9" x="89.02" y="98.33" width="24.86" height="6.95"/><rect class="cls-9" x="89.02" y="112.23" width="37.79" height="6.95"/><line class="cls-8" x1="20.4" y1="131.1" x2="199.4" y2="131.1"/></svg>