<svg id="Layer_1" data-name="Layer 1" xmlns="http://www.w3.org/2000/svg" viewBox="0 0 220 160"><defs><style>.cls-1,.cls-6{fill:none;}.cls-1,.cls-2,.cls-3,.cls-5,.cls-6,.cls-7,.cls-8{stroke:#072456;}.cls-1,.cls-5,.cls-6,.cls-7{stroke-linecap:round;}.cls-1,.cls-2,.cls-3,.cls-8{stroke-miterlimit:10;}.cls-1,.cls-2,.cls-3,.cls-5,.cls-6,.cls-7{stroke-width:2px;}.cls-2{fill:#ffd000;}.cls-3,.cls-5{fill:#01c3a7;}.cls-4,.cls-7{fill:#fff;}.cls-5,.cls-6,.cls-7{stroke-linejoin:round;}.cls-8,.cls-9{fill:#072456;}.cls-8{stroke-width:0.2px;}</style></defs><title>Dashboard_timetables</title><line class="cls-1" x1="30.37" y1="99.24" x2="30.37" y2="113.18"/><line class="cls-1" x1="37.35" y1="103.22" x2="37.35" y2="106.21"/><path class="cls-1" d="M37.35,111.19v4.2a5.16,5.16,0,0,0,5.17,5.16h0"/><rect class="cls-2" x="142.52" y="13.62" width="9.97" height="23.89"/><rect class="cls-2" x="68.75" y="13.62" width="9.97" height="23.89"/><rect class="cls-3" x="67.81" y="7.57" width="84.63" height="128.59" rx="5.98" ry="5.98" transform="translate(38.26 181.98) rotate(-90)"/><rect class="cls-4" x="52.8" y="74.35" width="114.64" height="31.86"/><ellipse class="cls-5" cx="124.57" cy="90.28" rx="8.97" ry="8.96"/><polyline class="cls-6" points="127.73 88.14 123.58 92.28 121.51 90.21"/><ellipse class="cls-7" cx="148.5" cy="90.28" rx="8.97" ry="8.96"/><line class="cls-6" x1="150.64" y1="88.48" x2="146.49" y2="92.63"/><line class="cls-6" x1="150.64" y1="92.63" x2="146.49" y2="88.48"/><path class="cls-8" d="M65.76,96.25v-8h-3V86.57c1.82,0,3.08-1,3.33-2.26h2.65V96.25Z"/><path class="cls-8" d="M71.57,93.77a4.75,4.75,0,0,0,2.1.51,3.43,3.43,0,0,0,3.77-3.36A3.22,3.22,0,0,1,74.7,92.2a3.92,3.92,0,0,1-4.1-4,4.22,4.22,0,0,1,4.55-4.17c2.58,0,4.74,1.83,4.74,5.61,0,4.28-2.14,6.8-6.2,6.8A5.8,5.8,0,0,1,71,95.8Zm3.49-7.58a2,2,0,1,0,2,2A2,2,0,0,0,75.06,86.19Z"/><path class="cls-8" d="M83.49,87.06a1.64,1.64,0,1,1,0,3.28,1.64,1.64,0,0,1,0-3.28Zm0,6a1.64,1.64,0,1,1,0,3.27,1.64,1.64,0,0,1,0-3.27Z"/><path class="cls-8" d="M89.68,96.25v-8h-3V86.57c1.82,0,3.09-1,3.34-2.26h2.64V96.25Z"/><path class="cls-8" d="M95.49,86a4.5,4.5,0,0,1,3.92-2,4.44,4.44,0,0,1,3.9,2,8.93,8.93,0,0,1,0,8.44,4.44,4.44,0,0,1-3.9,2,4.5,4.5,0,0,1-3.92-2,9.08,9.08,0,0,1,0-8.44Zm2.13,7.24a2,2,0,0,0,1.79,1,1.93,1.93,0,0,0,1.77-1,5.55,5.55,0,0,0,.66-3,5.49,5.49,0,0,0-.66-3,1.91,1.91,0,0,0-1.77-1,2,2,0,0,0-1.79,1,5.68,5.68,0,0,0-.64,3A5.74,5.74,0,0,0,97.62,93.28Z"/><rect class="cls-4" x="52.8" y="37.51" width="114.64" height="31.86"/><rect class="cls-9" x="63.76" y="45.48" width="93.7" height="5.97"/><rect class="cls-9" x="63.76" y="56.43" width="41.87" height="5.97"/><line class="cls-1" x1="20.4" y1="131.1" x2="199.83" y2="131.1"/></svg>