<svg xmlns="http://www.w3.org/2000/svg" width="32" height="32" viewBox="0 0 32 32">
    <g fill="none" fill-rule="evenodd">
        <circle cx="16" cy="16" r="16" fill="#61AADB"/>
        <path fill="#FFF" d="M24.054 11.984c.008.172.011.348.011.52 0 5.34-3.921 11.496-11.09 11.496-2.202 0-4.25-.669-5.975-1.816a7.646 7.646 0 0 0 5.77-1.672c-1.705-.032-3.145-1.2-3.64-2.804.237.046.482.07.733.07a3.78 3.78 0 0 0 1.026-.14c-1.782-.372-3.126-2.004-3.126-3.962v-.05a3.79 3.79 0 0 0 1.767.506 4.074 4.074 0 0 1-1.736-3.364c0-.74.191-1.434.528-2.03 1.922 2.444 4.795 4.052 8.034 4.222a4.319 4.319 0 0 1-.1-.922c0-2.23 1.746-4.038 3.898-4.038 1.121 0 2.134.488 2.845 1.274a7.675 7.675 0 0 0 2.476-.98 4.043 4.043 0 0 1-1.714 2.235A7.546 7.546 0 0 0 26 9.894a8.077 8.077 0 0 1-1.945 2.09h-.001z"/>
    </g>
</svg>
