<svg id="Layer_1" data-name="Layer 1" xmlns="http://www.w3.org/2000/svg" xmlns:xlink="http://www.w3.org/1999/xlink" viewBox="0 0 220 160"><defs><style>.cls-1{fill:#01c3a7;}.cls-2,.cls-6{fill:#fff;}.cls-2,.cls-3,.cls-8{stroke:#072456;}.cls-2,.cls-3,.cls-7,.cls-8{stroke-linecap:round;}.cls-2,.cls-3,.cls-7{stroke-linejoin:round;}.cls-2,.cls-3,.cls-6,.cls-7,.cls-8{stroke-width:2px;}.cls-3,.cls-7,.cls-8{fill:none;}.cls-4{clip-path:url(#clip-path);}.cls-5{clip-path:url(#clip-path-2);}.cls-6{stroke:#fff;}.cls-6,.cls-8{stroke-miterlimit:10;}.cls-7{stroke:#21314d;}</style><clipPath id="clip-path"><ellipse class="cls-1" cx="106.9" cy="67.54" rx="45.76" ry="45.7"/></clipPath><clipPath id="clip-path-2"><rect class="cls-1" x="58.29" y="10.82" width="101.83" height="101.69"/></clipPath></defs><title>Dashboard_TrainilneEurope</title><path class="cls-2" d="M89.68,131.1c4.82-5.07,9.78-7.94,16.78-7.94h.17c7,0,12,2.87,16.77,7.94Z"/><line class="cls-3" x1="105.92" y1="20.86" x2="105.92" y2="14.9"/><line class="cls-3" x1="105.92" y1="122.16" x2="105.92" y2="115.21"/><path class="cls-3" d="M107.27,16.25a51.29,51.29,0,1,1,0,102.58"/><ellipse class="cls-1" cx="106.9" cy="67.54" rx="45.76" ry="45.7"/><g class="cls-4"><rect class="cls-1" x="58.29" y="10.82" width="101.83" height="101.69"/><g class="cls-5"><g id="Separate_countries" data-name="Separate countries"><path class="cls-6" d="M133.22,44.63l.24.25a.65.65,0,0,1,0,.93l-.37.37a.51.51,0,0,0,0,.72l.83.83a.64.64,0,0,1,.19.46v3.25a.48.48,0,0,0,.15.36l.53.53a.68.68,0,0,1,.19.46v.65a.66.66,0,0,1-.27.53l.78,0a1.52,1.52,0,0,1,.48.1l1.78.69a.39.39,0,0,1,.28.43l0,.25a.25.25,0,0,0,0,.17l.45.61a.23.23,0,0,0,.22.1.26.26,0,0,0,.19-.15l.19-.44a.38.38,0,0,1,.26-.22.37.37,0,0,1,.33.07l4.05,3.21a.24.24,0,0,0,.14,0l5.9.31a.3.3,0,0,1,.18.06l1.79,1.14a.25.25,0,0,0,.17,0l.53-.09a.26.26,0,0,0,.17-.12.23.23,0,0,0,0-.2l-.46-1.25a.37.37,0,0,1,.08-.4l2.56-2.56a.2.2,0,0,0,.07-.16v-3.7h0V49.8a.23.23,0,0,0-.07-.17l-.36-.36a.37.37,0,0,1-.11-.27.4.4,0,0,1,.11-.27l1.32-1.31a.26.26,0,0,0,.07-.17V44.81a.28.28,0,0,0-.07-.17l-1.15-1.15a.42.42,0,0,1-.09-.14L154,42l-1-1a.43.43,0,0,1-.13-.3v-.19h-6.92a.6.6,0,0,1-.23.06h-1.95a.47.47,0,0,1-.46-.46V39.6a.46.46,0,0,0-.46-.46h-4.64a.46.46,0,0,0-.46.46V41a.47.47,0,0,1-.47.47h-1.82a.51.51,0,0,0-.33.13l-1.31,1.32a.47.47,0,0,1-.66,0l-.07-.07v1.45A.48.48,0,0,0,133.22,44.63Z"/><path class="cls-6" d="M82.64,96.51l.38-.37a1.39,1.39,0,0,0,.4-1V89.74a1.51,1.51,0,0,1,.45-1.08l.91-.9a1.38,1.38,0,0,0,.4-1v-1A1.38,1.38,0,0,0,83.8,84.4H79V96a2.91,2.91,0,0,0,2.91,2.91h.26V97.59A1.5,1.5,0,0,1,82.64,96.51Z"/><path class="cls-6" d="M108.14,52.4h1.52a.49.49,0,0,0,.33-.13l.64-.64a.6.6,0,0,1,.86,0L112.9,53a.62.62,0,0,1,.18.42v.45a.46.46,0,0,0,.46.46.47.47,0,0,0,.46-.46V51a.63.63,0,0,1,.17-.43l1.46-1.45a.51.51,0,0,0,.13-.33V43.5l-2.9.67a1.49,1.49,0,0,0-.55.34l-1.15,1.16a1.46,1.46,0,0,0-.43,1v1.14a1.45,1.45,0,0,1-.42,1l-2.62,2.62v.46A.45.45,0,0,0,108.14,52.4Z"/><path class="cls-6" d="M135.21,72.55a.51.51,0,0,0,.36-.15l.74-.74a.49.49,0,0,0,.15-.36v-.78a.65.65,0,0,1,.2-.47l.81-.81a.51.51,0,0,0,0-.72l0,0a.54.54,0,0,0-.73,0l-.52.53a.68.68,0,0,1-.47.19h-1.17a.49.49,0,0,0-.36.15l-.34.34a.66.66,0,0,1-.46.19h-2a.78.78,0,0,1,0,.22v1.54a.7.7,0,0,1-.16.44h0l.47.46h3.48Z"/><path class="cls-6" d="M152.85,39.17a.32.32,0,0,0-.08-.21l-.55-.55a.32.32,0,0,0-.21-.08h-1.3a.43.43,0,0,1-.3-.13l-2-2v1.94a.46.46,0,0,1-.46.47h-1.32a.46.46,0,0,0-.47.46v1a.52.52,0,0,1-.07.25h6.76Z"/><path class="cls-6" d="M140.62,80.64l-3.33-3.33a1.51,1.51,0,0,1-.45-1.08V73.8a.31.31,0,0,1,.3-.3h5.36a.31.31,0,0,1,.21.09l1.3,1.3a.16.16,0,0,0,.22,0l.49-.48a.15.15,0,0,0,0-.11V72.93a.15.15,0,0,0,0-.11L143.6,71.7s0-.06-.06-.09a2,2,0,0,1-1.2.43h-.09a1.89,1.89,0,0,1-1.06-.39l-1-.75-.13-.11-2.32-2a.62.62,0,0,1-.18.57l-.81.81a.51.51,0,0,0-.15.37v.78a.66.66,0,0,1-.19.46l-.75.75a.66.66,0,0,1-.46.19h-3.34l2.76,2.75,6.4,6.39v-.23A1.36,1.36,0,0,0,140.62,80.64Z"/><path class="cls-6" d="M143.21,79.93l1-1a.29.29,0,0,1,.21-.09h.46a.16.16,0,0,0,.16-.15v-.33a.16.16,0,0,0-.05-.11l-.32-.32a.29.29,0,0,1-.06-.33.28.28,0,0,1,.27-.18.14.14,0,0,0,.14-.1.14.14,0,0,0,0-.16l-.73-.73a.28.28,0,0,1-.07-.3l.47-1.46-.34.34a.31.31,0,0,1-.42,0l-1.3-1.31a.15.15,0,0,0-.11,0h-5.36a.15.15,0,0,0-.15.15v2.43a1.38,1.38,0,0,0,.4,1l3.33,3.32a1.51,1.51,0,0,1,.45,1.08V82l1.59,1.59V81A1.51,1.51,0,0,1,143.21,79.93Z"/><path class="cls-6" d="M104.41,82a.36.36,0,0,0-.36-.36h-2.18a.36.36,0,0,0-.36.35v0a.5.5,0,0,1-.5.5h-2.1a.47.47,0,0,1-.35-.15l-2.81-2.8a.44.44,0,0,1-.1-.16l0,0-.19,0H81.94A2.9,2.9,0,0,0,79,82.36v1.89H83.8a1.53,1.53,0,0,1,1.53,1.53v1a1.51,1.51,0,0,1-.45,1.08l-.91.91a1.35,1.35,0,0,0-.4,1v5.42a1.51,1.51,0,0,1-.45,1.08l-.37.37a1.34,1.34,0,0,0-.41,1v1.32h1.77a.46.46,0,0,1,.33.13l2.2,2.2a1.44,1.44,0,0,0,2,0l1.82-1.81a.45.45,0,0,1,.33-.14h3.44a1.45,1.45,0,0,0,1-.42l4.5-4.49a1.47,1.47,0,0,0,.42-1v-2.1a1.5,1.5,0,0,1,.43-1l2.81-2.8,3.83-3.83a1.46,1.46,0,0,0,.43-1v0h-2.81A.5.5,0,0,1,104.41,82Z"/><path class="cls-6" d="M131.29,71.64V70.1a.51.51,0,0,0-.51-.51H129a.61.61,0,0,1-.46-.2l-1.16-1.15a.51.51,0,0,0-.37-.15h-2.71a.51.51,0,0,0-.36.15l-2.89,2.89a.65.65,0,0,1-.93,0l-.83-.83a.54.54,0,0,0-.73,0l-.7.7a.62.62,0,0,1-.46.19h-2v.36a.55.55,0,0,0,.15.36l.78.77a.68.68,0,0,1,.19.47.66.66,0,0,1-.19.46L116,74a.51.51,0,0,0,0,.72l.26.27a.62.62,0,0,1,.19.46v1.23a.51.51,0,0,0,.52.51h.14l.14,0,1.36-1.36a1.47,1.47,0,0,1,1.79-.22l3,1.84a1.42,1.42,0,0,1,.59.69l1.48,3.67a2.63,2.63,0,0,0,.75,1l3.27,2.86a2.69,2.69,0,0,0,.6.39l4,2a2.7,2.7,0,0,1,1.17,1.1l2.07,3.58a.47.47,0,0,1-.08.56l-1.43,1.43a.46.46,0,0,0,.05.69l.86.66a.46.46,0,0,0,.61,0l2.55-2.55a.46.46,0,0,0,0-.65l-1.77-1.77a.47.47,0,0,1,0-.66l1.15-1.14a.46.46,0,0,1,.65,0l1.51,1.51a.47.47,0,0,0,.66,0l.64-.65a.46.46,0,0,0,0-.65l-3.85-3.84a1.47,1.47,0,0,0-.51-.34l-2.59-1a2.92,2.92,0,0,1-1.07-.73L129,77.35a.47.47,0,0,1-.12-.31V73.85a.48.48,0,0,1,.13-.32L130.47,72a.45.45,0,0,1,.66,0l0,0h0A.5.5,0,0,0,131.29,71.64Z"/><path class="cls-6" d="M117,77.31a.66.66,0,0,1-.66-.66V75.42a.51.51,0,0,0-.15-.36l-.27-.26a.68.68,0,0,1-.19-.47.66.66,0,0,1,.19-.46l.37-.36a.55.55,0,0,0,.15-.36.51.51,0,0,0-.15-.36l-.78-.78a.66.66,0,0,1-.19-.46v-.86a.5.5,0,0,0-.32-.48.51.51,0,0,0-.55.11.65.65,0,0,1-.47.2.66.66,0,0,1-.46-.19l0,0a.67.67,0,0,1,0-.93L117,65.83a.51.51,0,0,0,.15-.36V62.33a.64.64,0,0,1,.19-.47l.6-.6a.49.49,0,0,0,.11-.56.5.5,0,0,0-.47-.31h-1a.66.66,0,0,1-.46-.19l-1-1a.51.51,0,0,0-.36-.15h-1.5a.62.62,0,0,1-.46-.19l-1.5-1.5a.56.56,0,0,0-.37-.15h-1.86a.67.67,0,0,1-.47-.19L106,54.44a.63.63,0,0,1-.2-.46v-.74h-1.43a.45.45,0,0,0-.46.46v2.91a.43.43,0,0,1-.14.32L101,59.66a.51.51,0,0,1-.33.13H97.83a.46.46,0,0,1-.32-.13l-1.37-1.37a.49.49,0,0,0-.33-.13h-.69a.46.46,0,0,0-.33.79l1.59,1.58a.46.46,0,0,1-.33.79h-5.8a1.45,1.45,0,0,0-1.45,1.46v.67a1.45,1.45,0,0,0,1.45,1.45h2.86a1.45,1.45,0,0,1,1,.43l2.32,2.32a1.42,1.42,0,0,1,.43,1V78a1.44,1.44,0,0,1-1.11,1.4h0a.28.28,0,0,0,.08.11l2.8,2.8a.33.33,0,0,0,.25.1H101a.36.36,0,0,0,.36-.35v0a.5.5,0,0,1,.5-.5h2.18a.5.5,0,0,1,.5.5.36.36,0,0,0,.36.36h2.81v-1A1.45,1.45,0,0,1,109.17,80h4.65a1.45,1.45,0,0,0,1-.42l2.25-2.25H117Z"/><path class="cls-6" d="M144.77,83.74v-.37a1.51,1.51,0,0,1,.45-1.08l0,0a1.51,1.51,0,0,1,1.08-.45h.09a.15.15,0,0,0,.11,0l.61-.61L144.35,79l0,0-1,1a1.37,1.37,0,0,0-.4,1v2.72L144.16,85h0l.29-.35A1.34,1.34,0,0,0,144.77,83.74Z"/><path class="cls-6" d="M155-22.78l-.7-.7a2.31,2.31,0,0,1-.7-1.68,2.22,2.22,0,0,0-.66-1.58l-6.13-6.13-.11.11a1.07,1.07,0,0,0-.31.76v1.51a1.22,1.22,0,0,1-1.22,1.22h-1.69a1.07,1.07,0,0,0-.76.32l-3.46,3.45a1.07,1.07,0,0,0-.32.76v3.38a1.2,1.2,0,0,1-.36.86l-5.39,5.39a1.07,1.07,0,0,0-.31.76v9.92a1.22,1.22,0,0,1-.36.86l-3,3a1.1,1.1,0,0,0-.31.76V14.32a1.22,1.22,0,0,1-.36.86l-1.33,1.32a1.07,1.07,0,0,0-.31.76v2.11a1.22,1.22,0,0,1-1.18,1.21l1.53,1.53a.49.49,0,0,1,.13.33V29a.59.59,0,0,0,0,.14l2.69,6.53a1.45,1.45,0,0,0,2.38-.49l.67-1.67a.46.46,0,0,1,.51-.28l1.31.22a1.45,1.45,0,0,0,1.49-.68l1.25-2.08a1.54,1.54,0,0,0,.21-.75V23.27a1.73,1.73,0,0,1,.51-1.23L142,18.8a1.78,1.78,0,0,0,.51-1.24V15A1.76,1.76,0,0,0,142,13.8l-1.3-1.3a1.73,1.73,0,0,1-.51-1.23v-6A1.72,1.72,0,0,1,140.72,4l9-9a1.78,1.78,0,0,0,.51-1.23v-4.19a1.72,1.72,0,0,1,.51-1.23l1.64-1.64a1.75,1.75,0,0,1,2.47,0l.79.79v-8.66A2.26,2.26,0,0,0,155-22.78Z"/><path class="cls-6" d="M172,1.61,170.15,0a1.56,1.56,0,0,1-.55-1.14,1.57,1.57,0,0,1,.46-1.18,1.43,1.43,0,0,0,.42-1,1.42,1.42,0,0,0-.42-1l-1.63-1.63A1.56,1.56,0,0,1,168-7.07v-3.58a1.57,1.57,0,0,1,.46-1.12l.59-.59a1.39,1.39,0,0,0,.42-1v-1a1.42,1.42,0,0,0-.13-.61l-1.75-3.67a1.57,1.57,0,0,1,0-1.37l1.37-2.84a1.42,1.42,0,0,0-.28-1.64l-2-2a1.58,1.58,0,0,1-.47-1.12v-4.68a1.57,1.57,0,0,1,.47-1.12l.54-.55a1.44,1.44,0,0,0,0-2l-2.67-2.66a1.24,1.24,0,0,1-.93.44h-2.16a1.07,1.07,0,0,0-1.07,1.07v4.49a1.22,1.22,0,0,1-.36.86l-1.39,1.39a1.24,1.24,0,0,1-.87.36h-3.86a1.2,1.2,0,0,1-.86-.36L149.47-34a1.07,1.07,0,0,0-.76-.31A1.1,1.1,0,0,0,148-34l-1,1,6.13,6.12a2.38,2.38,0,0,1,.7,1.69,2.18,2.18,0,0,0,.66,1.58l.7.7a2.38,2.38,0,0,1,.7,1.69v8.81l1.27,1.27a1.72,1.72,0,0,1,.51,1.23v2.31a1.73,1.73,0,0,1-.51,1.23L149.55,1.2A1.73,1.73,0,0,0,149,2.43v10.5a1.73,1.73,0,0,0,.51,1.23L152,16.62a1.74,1.74,0,0,0,1.9.37l7.19-3a1.7,1.7,0,0,1,.67-.13h2l8.42-10.26A1.42,1.42,0,0,0,172,1.61Z"/><path class="cls-6" d="M127.1,19.37V17.26a1.22,1.22,0,0,1,.36-.86l1.32-1.32a1.07,1.07,0,0,0,.32-.76V.17a1.22,1.22,0,0,1,.36-.86l3-3a1.1,1.1,0,0,0,.31-.76v-9.92a1.2,1.2,0,0,1,.36-.86l5.39-5.39a1.07,1.07,0,0,0,.32-.76v-3.38a1.21,1.21,0,0,1,.35-.86L142.64-29a1.23,1.23,0,0,1,.87-.36h1.69a1.07,1.07,0,0,0,1.07-1.08V-32a1.2,1.2,0,0,1,.36-.86l1.22-1.22a1.22,1.22,0,0,1,.86-.36,1.23,1.23,0,0,1,.87.36l3.52,3.52a1.07,1.07,0,0,0,.76.31h3.86a1.07,1.07,0,0,0,.76-.31l1.4-1.39a1.1,1.1,0,0,0,.31-.76V-37.2a1.22,1.22,0,0,1,1.22-1.22h2.16a1.07,1.07,0,0,0,1.07-1.07v-6.14H154.33a2.87,2.87,0,0,0-2.05.85L136.73-29.26a2.91,2.91,0,0,0-.85,2.06v1.12a2.91,2.91,0,0,1-.85,2l-6.45,6.44a2.88,2.88,0,0,0-.85,2.05V-9.1A2.91,2.91,0,0,1,126.88-7L119.62.2l-7.54,7.53a2.91,2.91,0,0,0-.85,2V20.94a2.92,2.92,0,0,0,.85,2l2.36,2.36a2.92,2.92,0,0,0,4.11,0l5.82-5.81a.46.46,0,0,1,.65,0l.91.91h.1A1.07,1.07,0,0,0,127.1,19.37Z"/><path class="cls-6" d="M150.71,38.18H152a.44.44,0,0,1,.31.13l.55.55a.44.44,0,0,1,.13.31v1.47a.3.3,0,0,0,.08.2l1.58,1.57a.29.29,0,0,0,.2.09h1.78a.31.31,0,0,0,.21-.09L159,40.26a.29.29,0,0,0,.09-.21V38.86a.43.43,0,0,1,.44-.43H161a.25.25,0,0,0,.2-.09l.5-.49a.28.28,0,0,0,.06-.32.3.3,0,0,0-.27-.17.44.44,0,0,1-.43-.44v-1l-3.33-3.32a1.39,1.39,0,0,0-1-.41h-5.83a1.38,1.38,0,0,0-1,.41l-1.28,1.28a.57.57,0,0,1-.13.08l-.13,0v2l2.1,2.1A.3.3,0,0,0,150.71,38.18Z"/><path class="cls-6" d="M172,69.24a1.45,1.45,0,0,1,1-.42h2.07a1.45,1.45,0,0,1,1,.37l.42.38a1.46,1.46,0,0,1,.06,2.11l-.6.59a.43.43,0,0,0,0,.61l.49.5a1.11,1.11,0,0,1,.34.81v.2a1.15,1.15,0,0,0,.34.82l.33.33a1.15,1.15,0,0,0,1.63,0h0a1.13,1.13,0,0,1,.81-.34h.53a1.45,1.45,0,0,0,1-.42l.09-.09a1.5,1.5,0,0,1,1-.43h.67a.43.43,0,1,0,0-.86h-.89a1.49,1.49,0,0,1-1-.42l-.2-.21a1.46,1.46,0,0,1-.43-1V71a1.5,1.5,0,0,1,.43-1l.72-.72a1.49,1.49,0,0,1,1-.42h2.56a.43.43,0,0,0,.3-.13l1.17-1.16a.75.75,0,0,0,.22-.53.75.75,0,0,1,.75-.76h.28l1.43-1.42a.48.48,0,0,1,.36-.15h1.87a.36.36,0,0,0,.36-.36V59.75a.36.36,0,0,0-.11-.25l-3.57-3.57a1.19,1.19,0,0,0-.87-.36H182.2a.51.51,0,0,1-.51-.51V52.64a.36.36,0,0,0-.36-.36h-1.89a.51.51,0,0,1-.36-.87l.76-.76a.36.36,0,0,0,.11-.26.36.36,0,0,0-.11-.25l-1.37-1.37a.33.33,0,0,0-.25-.1h-3a.37.37,0,0,0-.37.36.5.5,0,0,1-.5.5h-.83a.55.55,0,0,1-.31-.1h-.32a1.43,1.43,0,0,0-1.43,1.43,1.59,1.59,0,0,1-1.59,1.58h-3a1.57,1.57,0,0,1-1.12-.46l-1.11-1.11a1.42,1.42,0,0,0-1-.42h-6.53a1.43,1.43,0,0,0-1,.42L155,52v3.66a.4.4,0,0,1-.11.27l-2.56,2.55a.24.24,0,0,0-.06.25l.47,1.25a.36.36,0,0,1,0,.32.38.38,0,0,1-.27.19l-.53.09h-.06l-.4,2.18.06.06,1.39,1.39a.28.28,0,0,0,.17.07h3.39a.35.35,0,0,1,.27.11l.65.64a.2.2,0,0,0,.16.07H158a.23.23,0,0,0,.23-.23v-.35a.39.39,0,0,1,.39-.38h1.88a.23.23,0,0,0,.24-.23v-.62a.38.38,0,0,1,.38-.38h.69l.11,0v0l.69-.13H165a.23.23,0,0,1,.17.07l2.45,2.44a.28.28,0,0,1,.07.17v.78a.07.07,0,0,0,0,.06l.82.82a.23.23,0,0,1,.07.17v.56a.07.07,0,0,0,0,.06l.65.65a.23.23,0,0,1,.07.17v.88a.23.23,0,0,1-.24.23h-1.17a.23.23,0,0,1-.24-.23.09.09,0,0,0-.16-.07l-.11.11a.07.07,0,0,0,0,.06v1.19a.2.2,0,0,1-.07.16l-1.83,1.83.54.54a.23.23,0,0,0,.17.07h.93a.23.23,0,0,0,.17-.07l.69-.68a.38.38,0,0,1,.54,0l.23.23a1.22,1.22,0,0,1,.35-.78Z"/><path class="cls-6" d="M121.91,36.68a.42.42,0,0,1,.13-.32L124.45,34a2.88,2.88,0,0,0,.85-2.05V28.2A1.26,1.26,0,0,0,124,26.93h-.41a1.26,1.26,0,0,0-1.26,1.27h0a1.26,1.26,0,0,1-1.27,1.26h-.91a1.42,1.42,0,0,0-1,.43l-.64.64a1.46,1.46,0,0,0-.43,1v2.66a1.5,1.5,0,0,0,.43,1l.73.72a1.49,1.49,0,0,1,.42,1v1.75h2.24Z"/><path class="cls-6" d="M148.56,33.77l1.29-1.27a1.49,1.49,0,0,1,1.07-.45h5.83a1.51,1.51,0,0,1,1.08.45l3.23,3.22v-.14a.43.43,0,0,1,.43-.43h2.32a.29.29,0,0,0,.2-.09l1.57-1.56h-.37a.51.51,0,0,1-.51-.51V29.2a.35.35,0,0,0-.1-.26l-1.15-1.14a.51.51,0,0,1-.15-.36.49.49,0,0,1,.15-.36h-3a1.55,1.55,0,0,1-1.08-.44l-.67-.67a1.39,1.39,0,0,0-1-.41,1.36,1.36,0,0,0-1,.41l-.22.21a1.49,1.49,0,0,1,.16.65v1.82a1.42,1.42,0,0,1-2.42,1l-1.78-1.77a1.44,1.44,0,0,0-2.05,0l-1.61,1.61a1.46,1.46,0,0,0-.43,1v3.34l.07,0A.16.16,0,0,0,148.56,33.77Z"/><path class="cls-6" d="M166.42,75.62l.26-.26a1.19,1.19,0,0,1,.85-.35h0a1.19,1.19,0,0,0,1.19-1.19v-.65l-.34-.33a.24.24,0,0,0-.33,0l-.69.69a.39.39,0,0,1-.27.11h-.93a.39.39,0,0,1-.27-.11l-.65-.65a.4.4,0,0,1-.11-.27v-4.9a.28.28,0,0,0-.07-.17l-1.67-1.66a.39.39,0,0,1-.11-.27V64.53a.23.23,0,0,0-.07-.17L162,63.11a.24.24,0,0,0-.16-.07h-.69a.23.23,0,0,0-.23.24v.62a.39.39,0,0,1-.39.38h-1.88a.23.23,0,0,0-.24.23v.35a.38.38,0,0,1-.38.38h-.44a.39.39,0,0,1-.27-.11l-.64-.65a.23.23,0,0,0-.17-.07H153l-.41.53a.38.38,0,0,1-.3.15h-.73a.27.27,0,0,0-.17.06l-.81.81a.28.28,0,0,0-.07.17V67a.39.39,0,0,1-.11.27l-.84.84a.23.23,0,0,0-.07.17V69.4a.36.36,0,0,1-.12.27l-.66.66a.36.36,0,0,1-.25.11l-1.34.07,2.95,2.94a.3.3,0,0,1,.08.21v1.12a.16.16,0,0,0,.16.16h2.05a.29.29,0,0,1,.3.3v1.41a.16.16,0,0,0,.05.11l1.16,1.16a.16.16,0,0,0,.11,0h5.8a.16.16,0,0,0,.11,0L161,76.83a.3.3,0,0,1,.21-.08h2.5a.3.3,0,0,1,.21.08L166.07,79V76.46A1.19,1.19,0,0,1,166.42,75.62Z"/><path class="cls-6" d="M157.73,25.42a1.51,1.51,0,0,1,1.08.45l.67.66a1.39,1.39,0,0,0,1,.41h3.13l.47-.47a.36.36,0,0,0,.11-.25.36.36,0,0,0-.11-.26l-.58-.58A1.51,1.51,0,0,1,163,24.3V22.44a1.51,1.51,0,0,1,.45-1.08l1.65-1.65a.35.35,0,0,0,0-.51l-.72-.73a1,1,0,0,1-.93.75h-6.91a1.38,1.38,0,0,0-1,.42l-.89.88a1.45,1.45,0,0,0-.41,1v1.71a1.43,1.43,0,0,0,.41,1l1.6,1.6a2,2,0,0,1,.19.22l.18-.18A1.53,1.53,0,0,1,157.73,25.42Z"/><path class="cls-6" d="M164.3,83.07a.56.56,0,0,1,0-.79l.49-.5a.52.52,0,0,0,.17-.39v-1a.56.56,0,0,1,.56-.56h0a.55.55,0,0,0,.55-.55v-.11l-2.27-2.27a.16.16,0,0,0-.11,0h-2.5a.16.16,0,0,0-.11,0L160,78a.29.29,0,0,1-.21.09H154a.29.29,0,0,1-.21-.09l-1.16-1.15-.13.3a1,1,0,0,0-.07.35v1.32a.84.84,0,0,0,.26.62,1.06,1.06,0,0,1,.3.73,1,1,0,0,1-.3.73l-.06.06a.85.85,0,0,0-.26.62v2h0l.57.57a.26.26,0,0,1,.08.13l.39,1.33h3a.3.3,0,0,1,.21.08l.24.24a.21.21,0,0,0,.11,0h3.15a.15.15,0,0,0,.15-.15V85a.3.3,0,0,1,.3-.3h.5a.16.16,0,0,0,.11,0l.6-.59a.27.27,0,0,1,.21-.09h3.19a.38.38,0,0,0-.09-.13Z"/><path class="cls-6" d="M196,81.54h.63a.87.87,0,0,1,.87.87v1.82a.83.83,0,0,1-.26.61l-.74.75a1.15,1.15,0,0,1-.29.2l.23,0h2.77a1.1,1.1,0,0,1,.77.32l.24.24,4.26-.11,0,0a.31.31,0,0,1,0-.44l.33-.33a.31.31,0,0,1,.44,0l.94.94a.21.21,0,0,0,.12,0h1.34a.16.16,0,0,0,.16-.16v-.47a.18.18,0,0,0,0-.12l-.63-.63a.34.34,0,0,1-.09-.22v-.15a.29.29,0,0,1,.09-.21l.43-.46h-.91a.34.34,0,0,1-.22-.09l-.71-.71a.31.31,0,0,1-.09-.22.29.29,0,0,1,.09-.22l.25-.25a.2.2,0,0,0,0-.24l-.95-.94a.8.8,0,0,0-.57-.24h-.55a.8.8,0,0,0-.57.24l-.64.64a.31.31,0,0,1-.22.09h-.64a.31.31,0,0,1-.31-.31v-.32a.16.16,0,0,0-.16-.16h-.81a.27.27,0,0,1-.21-.09l-.58-.58a1.39,1.39,0,0,0-1-.4h-2a1.51,1.51,0,0,1-1.08-.45l-.41-.41a1.39,1.39,0,0,0-1-.41h-.74a1.86,1.86,0,0,0-.34,0l-.29.08L195,81.12A1.45,1.45,0,0,0,196,81.54Z"/><path class="cls-6" d="M203.21,91.12v-1.2a.16.16,0,0,0-.17-.16h-.92a.67.67,0,0,1-.66-.66v-.92a1,1,0,0,0-.27-.67l-1.28-1.27a1,1,0,0,0-.67-.28h-2.77a1.18,1.18,0,0,1-.45-.1.76.76,0,0,1-.21,0h-.49a1,1,0,0,0-.72.29l-.87.88a1,1,0,0,1-.72.3h-.29a1,1,0,0,1-.72-.3l-.13-.13a1,1,0,0,0-1.44,0l-.1.1a1.47,1.47,0,0,1-1,.42h-1.19a1.45,1.45,0,0,1-1-.42l-.27-.27a1.45,1.45,0,0,0-1-.43H184a1.49,1.49,0,0,1-1-.42l-1.09-1.1a1.5,1.5,0,0,0-1-.43h-5.21a1.46,1.46,0,0,0-1,.43l-1.33,1.32-.3.3a1.46,1.46,0,0,1-1,.43h-.12a1.46,1.46,0,0,1-1-.43l-.05,0a1.46,1.46,0,0,0-1-.43h-2.23l-.31.59,0,0,.24.24a1.39,1.39,0,0,1,0,2h0a1.38,1.38,0,0,1-1,.42h-4.71l-.07.08-1.2,1.2a1,1,0,0,0-.29.7v1.47a1,1,0,0,0,.29.71l1.73,1.73L165.18,98l2.93,2.93a1.49,1.49,0,0,0,1,.42h.27a1.45,1.45,0,0,0,1.46-1.45v-.3a.45.45,0,0,1,.46-.46h2a.46.46,0,0,1,.47.46v.58a1.45,1.45,0,0,0,1.45,1.45H178a1.41,1.41,0,0,0,1-.43l1.55-1.54a.47.47,0,0,1,.33-.14h19.67a2.9,2.9,0,0,0,2.91-2.9V92.17a.45.45,0,0,1,.17-.36l-.22-.23A.64.64,0,0,1,203.21,91.12Z"/><path class="cls-6" d="M149,87.36h.46a1.38,1.38,0,0,0,1-.4l.23-.24a1.55,1.55,0,0,1,1.08-.44h.88a.16.16,0,0,0,.11,0l.5-.5,0,0-.39-1.34s0,0,0-.06l-1-1a.14.14,0,0,0-.11,0H150a.3.3,0,0,1-.21-.08l-.19-.19h0l-.14.4a.3.3,0,0,1-.27.24l-.9,0a.15.15,0,0,0-.13.1l-.21.47h0a.17.17,0,0,1,0,.07l-.32,1.8a.17.17,0,0,0,0,.1l.49,1.07a.16.16,0,0,0,.15.08l.73,0Z"/><path class="cls-6" d="M206.53,92l-.45-.45a.64.64,0,0,0-.46-.19h-.32a1,1,0,0,1-.67-.27l-.23-.24a.81.81,0,0,0-.57-.23h-.47v.48a.51.51,0,0,0,.14.36l.26.25a.47.47,0,0,1,.48.11l2,2a.45.45,0,0,0,.45.11v-1.5A.66.66,0,0,0,206.53,92Z"/><path class="cls-6" d="M166.66,86a1.41,1.41,0,0,1-1-.41l-.31-.3a.59.59,0,0,1-.16-.4V84.2a.37.37,0,0,0,0-.11h-3.25a.15.15,0,0,0-.11,0l-.6.6a.3.3,0,0,1-.21.08h-.5a.16.16,0,0,0-.15.16v.89a.31.31,0,0,1-.3.3h-3.15a.31.31,0,0,1-.21-.09l-.24-.23a.16.16,0,0,0-.11,0h-3a.16.16,0,0,0-.11,0l-.5.49a.29.29,0,0,1-.21.09h-.88a1.36,1.36,0,0,0-1,.41l-.24.23a1.51,1.51,0,0,1-1.08.45H149a.15.15,0,0,0-.15.15v.72a.29.29,0,0,1-.3.3H148a.15.15,0,0,0-.15.15v.87a.3.3,0,0,1-.3.3h-.46a.14.14,0,0,0-.15.15v.6a.3.3,0,0,1-.3.3h-.18l1.22,1.21a1.74,1.74,0,0,1,.51,1.24v3.07a1.73,1.73,0,0,0,.51,1.23l1.67,1.66a1.72,1.72,0,0,0,1.23.51h.91a.47.47,0,0,0,.46-.46V97.28a1,1,0,0,1,1-1h.75a1,1,0,0,0,1-1v-.86a1,1,0,0,0-.29-.71l-3.41-3.4a1,1,0,1,1,1.42-1.42l.37.37a1,1,0,0,0,1.42,0l1.83-1.83a1,1,0,0,1,.71-.3h2.76a1,1,0,0,1,.71.3l.47.46,0,.06,1.37-1.36a1.41,1.41,0,0,1,1-.41h2.14a1.41,1.41,0,0,1,.84.28l.26-.5Z"/><path class="cls-6" d="M148.14,80.15a.32.32,0,0,1,.43,0l1.6,1.61a.27.27,0,0,1,.09.21.29.29,0,0,1-.09.21l-.5.5-.06.15a.2.2,0,0,0,0,.08l.19.18a.16.16,0,0,0,.11,0h1.76a.31.31,0,0,1,.22.09l.28.27V81.6a1,1,0,0,1,.3-.72l.06-.07a.87.87,0,0,0,0-1.24,1,1,0,0,1-.3-.73V77.52a1,1,0,0,1,.08-.41l.17-.4h0V75.24a.16.16,0,0,0-.16-.16h-2.05a.29.29,0,0,1-.3-.3V73.66a.16.16,0,0,0,0-.11l-3-3a.12.12,0,0,0-.1,0h-1.24a.15.15,0,0,0-.11,0l-.67.67a.27.27,0,0,1-.21.09h-.85a.17.17,0,0,0-.14.09.14.14,0,0,0,0,.17l1.11,1.12a.27.27,0,0,1,.09.21V74.3a.43.43,0,0,1,0,.11h0l-.57,1.75a.15.15,0,0,0,0,.16l.73.73a.28.28,0,0,1,.07.32.3.3,0,0,1-.28.18.16.16,0,0,0-.11.27l.33.32a.3.3,0,0,1,.08.21v.33a.3.3,0,0,1-.3.3h-.34l2.68,2.09Z"/><path class="cls-6" d="M210.76,85.79h-.3a.79.79,0,0,1-.57-.23l-1.18-1.18a1.23,1.23,0,0,0-.87-.36h-.11l-.52.56a.15.15,0,0,0,0,.11v.15a.17.17,0,0,0,.05.12l.63.63a.31.31,0,0,1,.09.22v.47a.31.31,0,0,1-.31.31h-1.34a.32.32,0,0,1-.22-.1l-.94-.94a.17.17,0,0,0-.23,0l-.33.33a.16.16,0,0,0,0,.24l.63.63a.31.31,0,0,1,.09.22v.51a.16.16,0,0,0,.05.11l1.18,1.18a.31.31,0,0,1,.09.22v.47a.31.31,0,0,1-.31.31h-.39a.16.16,0,0,0-.16.16.17.17,0,0,0,.16.17h.56a.62.62,0,0,1,.46.19l.73.72a.66.66,0,0,1,.19.46V93l2.52-2.52a.47.47,0,0,1,.66,0l1,1a.46.46,0,0,1,0,.65l-1.13,1.13a.46.46,0,0,0,0,.65l1.2,1.19a.46.46,0,0,0,.75-.13L217,90a.46.46,0,0,0,.11-.4l0-.12-3.78-5.87-1.94,2A.79.79,0,0,1,210.76,85.79Z"/><path class="cls-6" d="M144.66,71.2a.16.16,0,0,0,.11,0l.67-.67a.29.29,0,0,1,.21-.09h.8l2-.09a.24.24,0,0,0,.16-.07l.66-.66a.23.23,0,0,0,.07-.17V68.31a.39.39,0,0,1,.11-.27l.85-.84a.28.28,0,0,0,.07-.17v-.91a.39.39,0,0,1,.11-.27l.81-.81a.39.39,0,0,1,.27-.11h.73a.25.25,0,0,0,.19-.09l.38-.5-.05,0-1.39-1.39a.21.21,0,0,0-.17-.07h-.91a.39.39,0,0,1-.27-.11l-.55-.55a.24.24,0,0,0-.16-.07h-1.82a.23.23,0,0,0-.23.24V63a.38.38,0,0,1-.38.38H145.5a.23.23,0,0,0-.23.24.38.38,0,0,1-.38.38h-1.25a.24.24,0,0,0-.24.24v.25a.38.38,0,0,1-.38.38h-2.14a.39.39,0,0,1-.27-.11l-.5-.49a.2.2,0,0,0-.16-.07h-.28a.23.23,0,0,0-.23.23V65a.38.38,0,0,1-.38.38h-.75a.24.24,0,0,0-.24.24v1.6a.38.38,0,0,1-.38.38h-.35a.23.23,0,0,0-.19.1.2.2,0,0,0,0,.21l.09.3a.62.62,0,0,1,.33.17l0,0,2.59,2.27.13.11,1,.75a1.76,1.76,0,0,0,2.24-.11l0-.05a.29.29,0,0,1,.27-.18Z"/><path class="cls-6" d="M207.55,91.11l-.72-.72a.49.49,0,0,0-.36-.15h-.56a.31.31,0,1,1,0-.62h.39a.17.17,0,0,0,.17-.16V89a.16.16,0,0,0-.05-.11l-1.18-1.18a.31.31,0,0,1-.09-.22V87a.17.17,0,0,0-.05-.12l-.45-.44-4.26.1.9.9a1.1,1.1,0,0,1,.32.77v.92a.51.51,0,0,0,.51.51H203a.31.31,0,0,1,.32.31v.58h.47a.94.94,0,0,1,.67.27l.23.23a.8.8,0,0,0,.57.24h.32a.81.81,0,0,1,.57.23l.44.45a.8.8,0,0,1,.24.56v1.44l.06,0,.77-.78V91.47A.51.51,0,0,0,207.55,91.11Z"/><path class="cls-6" d="M242.08-37.39l-4.47-4.46a.46.46,0,0,0-.65,0l-1.19,1.19a.46.46,0,0,0,0,.65l4.09,4.08a.51.51,0,0,1,.13.33v4.49a.46.46,0,0,1-.46.46h-2.25a.42.42,0,0,1-.32-.13l-.83-.83a.47.47,0,0,0-.66,0l-2.18,2.18a.47.47,0,0,1-.33.14h-4.32a.51.51,0,0,0-.33.13l-1.66,1.66a.45.45,0,0,1-.33.14h-2a.47.47,0,0,1-.47-.47V-30.6a.46.46,0,0,0-.79-.33l-.7.7a1.45,1.45,0,0,1-1,.42h-2.92a1.46,1.46,0,0,0-1,.43l-5.88,5.87a1.45,1.45,0,0,0-.42,1v3.42a.46.46,0,0,1-.47.46H207.1a.47.47,0,0,1-.33-.13l-2.8-2.8a.94.94,0,0,1,0-1.33l1-1a1,1,0,0,1,.67-.28h1.88a.94.94,0,0,0,.94-.94v-1.4a1,1,0,0,0-.27-.66l-2.71-2.7a.91.91,0,0,0-.66-.28H203a1,1,0,0,0-.67,1.61h0a.94.94,0,0,1,0,1.33l-.3.31a.94.94,0,0,0-.28.66v5.44a.91.91,0,0,0,.28.66l1.8,1.8a.45.45,0,0,1,0,.66l-2.27,2.27a.46.46,0,0,1-.65,0l-1.64-1.64a1.45,1.45,0,0,0-2.06,0l-3.92,3.92-1.07,1.06a1.46,1.46,0,0,0,0,2.05l2.27,2.26a1,1,0,0,1,0,1.44l-.67.67a1,1,0,0,1-1.44,0l-1.69-1.69a1,1,0,0,0-.72-.29h-1.8a1,1,0,0,1-.72-.3l-.95-1a1,1,0,0,0-1.44,0l-.55.55a1,1,0,0,0,0,1.44l3.64,3.63a1,1,0,0,1,0,1.44h0a1,1,0,0,1-1.44,0l-5-4.94a1.5,1.5,0,0,1-.43-1v-4.33a1.45,1.45,0,0,0-.49-1.09l-6.93-6.08a.46.46,0,0,1,0-.67l1.88-1.88a.46.46,0,0,1,.65,0l7.26,7.25a1.48,1.48,0,0,0,1,.43H190a1.46,1.46,0,0,0,1-.43l3.87-3.86a2.91,2.91,0,0,0,.85-2.05V-23.6a2.91,2.91,0,0,0-.85-2L190.48-30a2.93,2.93,0,0,0-1.22-.73l-19.21-5.76a1.4,1.4,0,0,1-1-1.33h0a1.39,1.39,0,0,1,1.39-1.39h.18a1.4,1.4,0,0,0,1.4-1.39v-3.62a1.39,1.39,0,0,0-1.4-1.38h-5.84v6.14a1.17,1.17,0,0,1-.2.66l2.68,2.68a1.58,1.58,0,0,1,0,2.24l-.54.54a1.43,1.43,0,0,0-.42,1v4.68a1.43,1.43,0,0,0,.42,1l2,2a1.59,1.59,0,0,1,.3,1.81L167.69-20a1.42,1.42,0,0,0,0,1.24l1.75,3.67a1.6,1.6,0,0,1,.15.68v1a1.54,1.54,0,0,1-.46,1.12l-.59.59a1.4,1.4,0,0,0-.42,1v3.58a1.39,1.39,0,0,0,.42,1l1.62,1.62a1.58,1.58,0,0,1,.47,1.12,1.57,1.57,0,0,1-.47,1.12,1.49,1.49,0,0,0-.42,1.08,1.43,1.43,0,0,0,.51,1l1.84,1.58a1.57,1.57,0,0,1,.19,2.2l-8.35,10.17h1.91a1.73,1.73,0,0,1,1.23.51l1.34,1.34a.94.94,0,0,1-.67,1.61h-2.37a.94.94,0,0,0-.94,1h0l.81.81a.5.5,0,0,1,0,.71l-1.66,1.65a1.39,1.39,0,0,0-.4,1V24.3a1.38,1.38,0,0,0,.4,1l.58.58a.48.48,0,0,1,.15.36.47.47,0,0,1-.15.35l-.61.61a.35.35,0,0,0-.1.26.32.32,0,0,0,.1.25l1.15,1.15a.49.49,0,0,1,.15.36V33a.36.36,0,0,0,.36.36h2a1,1,0,0,1,1.05,1,.9.9,0,0,0,.9.9h1.47a1,1,0,0,1,1,1v2.53a1.35,1.35,0,0,0,.4,1L176,43.79a.51.51,0,0,1,0,.72l-1.08,1.08a.51.51,0,0,1-.72,0l-.78-.78a.36.36,0,0,0-.51,0l-.76.76a.36.36,0,0,0,0,.51L173,47a.51.51,0,0,1,.15.36V49a.36.36,0,0,0,.1.25h0v0a.36.36,0,0,0,.23.08h.83a.36.36,0,0,0,.36-.36.51.51,0,0,1,.51-.51h3a.51.51,0,0,1,.36.15L180,50a.51.51,0,0,1,.15.35.51.51,0,0,1-.15.36l-.77.76a.39.39,0,0,0-.08.4.36.36,0,0,0,.34.22h1.89a.51.51,0,0,1,.51.51v2.42a.36.36,0,0,0,.36.36h5.42a1.35,1.35,0,0,1,1,.4l3.58,3.57a.55.55,0,0,1,.15.36v4.61a.5.5,0,0,1-.51.5h-1.87a.36.36,0,0,0-.26.11l-1.33,1.32H190a.79.79,0,0,1,.54.22l.15.16a.75.75,0,0,1,0,1.07l-1.16,1.16a.42.42,0,0,1-.3.12h-1a.43.43,0,0,0-.31.74l.27.27a.75.75,0,0,1,0,1.07l-.75.76a.72.72,0,0,0-.23.53.76.76,0,0,1-.76.76H186a.43.43,0,0,0-.3.74l2,2a1.45,1.45,0,0,0,1,.42h.86a1.46,1.46,0,0,1,1,.43L192.82,79l.38-.1a1.5,1.5,0,0,1,.37,0h.74a1.51,1.51,0,0,1,1.08.45l.41.41a1.38,1.38,0,0,0,1,.4h2a1.51,1.51,0,0,1,1.08.45l.58.58a.15.15,0,0,0,.11,0h.81a.31.31,0,0,1,.31.31v.32a.17.17,0,0,0,.16.17h.64a.16.16,0,0,0,.11,0l.65-.65a1,1,0,0,1,.67-.27h.55a1,1,0,0,1,.67.27l1,1a.31.31,0,0,1,0,.44l-.25.25a.17.17,0,0,0-.05.12.16.16,0,0,0,.05.11l.71.71a.17.17,0,0,0,.12.05h1.21a1.34,1.34,0,0,1,1,.41L210,85.45a.66.66,0,0,0,.46.19h.3a.64.64,0,0,0,.47-.19l2-2L209,76.92a1.73,1.73,0,0,1,.26-2.13l2.34-2.33,1.28-1.28a1.74,1.74,0,0,0,0-2.46l-2.63-2.63-2.55-2.54a1.78,1.78,0,0,1-.51-1.23v-2.7a1.78,1.78,0,0,1,.51-1.23l2.5-2.49a.47.47,0,0,1,.66,0l.87.87a.86.86,0,0,0,1.21,0,.85.85,0,0,0,0-1.2l-.62-.61a.47.47,0,0,1,0-.66l3.22-3.21a2.91,2.91,0,0,1,2.05-.85h6.16a2.91,2.91,0,0,1,2.05.85l4.58,4.57a2.87,2.87,0,0,0,2.05.85h9.35a.46.46,0,0,0,.46-.46V-37.06A.47.47,0,0,0,242.08-37.39Z"/><path class="cls-6" d="M148,83.74a.3.3,0,0,1,.25-.18l.9-.06a.15.15,0,0,0,.14-.13l.2-.56a.27.27,0,0,1,.08-.22l.52-.51a.17.17,0,0,0,0-.22l-1.61-1.6a.15.15,0,0,0-.21,0l-1.63,1.62,0,0,1.24,2.18Z"/><path class="cls-6" d="M163.43,64.53v1.08a.22.22,0,0,0,.07.17l1.66,1.66a.39.39,0,0,1,.11.27v4.9a.24.24,0,0,0,.07.16h0L167.18,71a.09.09,0,0,0,0-.06V69.7a.23.23,0,0,1,.07-.17l.11-.11a.27.27,0,0,1,.26,0,.24.24,0,0,1,.15.22.09.09,0,0,0,.09.1h1.17a.1.1,0,0,0,.1-.09v-.88a.07.07,0,0,0,0-.06l-.65-.65a.23.23,0,0,1-.07-.17v-.56a.07.07,0,0,0,0-.06l-.82-.83a.2.2,0,0,1-.07-.16v-.78a.07.07,0,0,0,0-.06L165,62.94a.07.07,0,0,0-.06,0h-2.33l-.55.11,1.25,1.24A.39.39,0,0,1,163.43,64.53Z"/><path class="cls-6" d="M132.49,61.89a.26.26,0,0,0,.23.17h1.33a.24.24,0,0,0,.16-.07l.86-.86a.39.39,0,0,1,.27-.11h1.2a.39.39,0,0,1,.27.11l.62.62a.23.23,0,0,0,.17.07h1.57a.21.21,0,0,0,.17-.07l.49-.48a.37.37,0,0,1,.27-.11h1.21a.24.24,0,0,0,.17-.07l2.16-2.16h0l-4-3.21a.25.25,0,0,0-.37.09l-.19.45a.38.38,0,0,1-.31.23.36.36,0,0,1-.35-.15l-.44-.61a.38.38,0,0,1-.07-.29l0-.24a.24.24,0,0,0-.18-.27l-1.79-.69a1.12,1.12,0,0,0-.44-.09l-1.16-.06h-1.6a.55.55,0,0,0-.36.15l-1.11,1.11a.63.63,0,0,1-.46.2H128a.51.51,0,0,0-.51.51v.24a.49.49,0,0,0,.15.36l4.23,4.23a.66.66,0,0,1,.15.22Z"/><path class="cls-6" d="M155,49.8v2l1-1a1.57,1.57,0,0,1,1.12-.47h6.53a1.58,1.58,0,0,1,1.12.47l1.11,1.1a1.41,1.41,0,0,0,1,.42h3a1.43,1.43,0,0,0,1.44-1.43,1.58,1.58,0,0,1,1.58-1.58h.19A.52.52,0,0,1,173,49V47.32a.36.36,0,0,0-.11-.26l-.88-.88a.53.53,0,0,1,0-.72l.76-.75a.51.51,0,0,1,.72,0l.78.78a.36.36,0,0,0,.51,0l1.09-1.09a.36.36,0,0,0,0-.51l-3.95-4a1.49,1.49,0,0,1-.45-1.07V36.34a.9.9,0,0,0-.9-.9h-1.47a1,1,0,0,1-1-1,.9.9,0,0,0-.9-.9h-1.41l-1.66,1.66a.44.44,0,0,1-.31.13h-2.32a.29.29,0,0,0-.29.29v1.34a.29.29,0,0,0,.29.29.44.44,0,0,1,.31.74l-.49.49a.42.42,0,0,1-.31.13h-1.47a.29.29,0,0,0-.3.29v1.19a.43.43,0,0,1-.12.31L157,42.51a.4.4,0,0,1-.31.13h-1.78a.43.43,0,0,1-.31-.13l-.31-.31.4,1.1a.47.47,0,0,0,.06.09l1.15,1.15a.39.39,0,0,1,.11.27v2.44a.39.39,0,0,1-.11.27l-1.31,1.32a.2.2,0,0,0-.07.16.21.21,0,0,0,.07.17l.36.36A.39.39,0,0,1,155,49.8Z"/><path class="cls-6" d="M141.31,61.3H140.1a.24.24,0,0,0-.17.07l-.49.49-.06,0,0,2.23a.39.39,0,0,1,.25-.1H140a.36.36,0,0,1,.27.12l.49.49a.28.28,0,0,0,.17.07H143a.24.24,0,0,0,.24-.24v-.25a.38.38,0,0,1,.38-.38h1.25a.23.23,0,0,0,.23-.24.38.38,0,0,1,.38-.38h1.43a.23.23,0,0,0,.23-.24v-.64a.38.38,0,0,1,.38-.38h1.82a.39.39,0,0,1,.27.11l.55.55a.23.23,0,0,0,.16.06h1l.4-2.17s-.05,0-.07,0l-1.78-1.14a.28.28,0,0,0-.12,0l-5.9-.31h-.07l-2.2,2.19A.39.39,0,0,1,141.31,61.3Z"/><path class="cls-6" d="M146.82,90.75v-.6a.29.29,0,0,1,.3-.3h.46a.16.16,0,0,0,.16-.15v-.87a.3.3,0,0,1,.29-.3h.47a.15.15,0,0,0,.16-.15v-.72a.32.32,0,0,1,0-.14l-.46,0h0a.31.31,0,0,1-.27-.17l-.49-1.07a.29.29,0,0,1,0-.18l.33-1.81a.12.12,0,0,0,0-.1L146.46,82h-.14a1.39,1.39,0,0,0-1,.4l0,0a1.38,1.38,0,0,0-.4,1v.37a1.56,1.56,0,0,1-.36,1l-.3.36a1.75,1.75,0,0,1,.41,1.12v2.3a1.74,1.74,0,0,0,.51,1.24l1.17,1.16h.32A.15.15,0,0,0,146.82,90.75Z"/><path class="cls-6" d="M122,67.07V65.88h-.44a.66.66,0,0,1-.46-.19l-.66-.66a.52.52,0,0,0-.73,0l-.5.5a.63.63,0,0,1-.47.19h-1.57a.74.74,0,0,1-.14.22l-3.53,3.52a.51.51,0,0,0,0,.72l0,0a.51.51,0,0,0,.72,0,.66.66,0,0,1,.72-.14.63.63,0,0,1,.4.61v.36h2a.49.49,0,0,0,.36-.15l.7-.7A.64.64,0,0,1,119,70a.62.62,0,0,1,.46.19l.83.83a.51.51,0,0,0,.72,0l2.38-2.37-1.12-1.12A.65.65,0,0,1,122,67.07Z"/><path class="cls-6" d="M137.69,67.46a.23.23,0,0,0,.23-.24v-1.6a.38.38,0,0,1,.39-.38h.75a.23.23,0,0,0,.23-.24v-.21L139.23,62H137.6a.39.39,0,0,1-.27-.11l-.62-.63a.28.28,0,0,0-.17-.07h-1.2a.28.28,0,0,0-.17.07l-.85.86a.39.39,0,0,1-.27.11h-1.33a.38.38,0,0,1-.36-.26l-.29-.48a.74.74,0,0,1-.19.36l-2,2a.51.51,0,0,0-.12.54l.08.24a.64.64,0,0,1-.14.67.65.65,0,0,1-.67.18l-.85-.27a.53.53,0,0,0-.43.06l-1.37.9a.68.68,0,0,1-.69,0l-.65-.37a.5.5,0,0,0-.61.09l-.28.27a.63.63,0,0,1-.46.2.65.65,0,0,1-.47-.2L123.1,66a.55.55,0,0,0-.36-.15h-.57v1.19a.48.48,0,0,0,.15.36l1.12,1.12.42-.42a.66.66,0,0,1,.46-.19H127a.67.67,0,0,1,.47.19l1.16,1.16a.48.48,0,0,0,.36.15h1.76a.68.68,0,0,1,.55.29h2.06a.51.51,0,0,0,.36-.15l.34-.33a.6.6,0,0,1,.46-.19h1.17a.51.51,0,0,0,.36-.15l.53-.53a.68.68,0,0,1,.45-.19L137,68a.37.37,0,0,1,.36-.49Z"/><path class="cls-6" d="M87.42,34.5l1.37,1.37a.47.47,0,0,1,0,.66l-.89.88a.51.51,0,0,0-.13.33v.71a.47.47,0,0,0,.46.47H90a.46.46,0,0,1,.33.13S93,41.77,93,41.89V44a.47.47,0,0,1-.46.46H89.77a.47.47,0,0,0-.46.46v.92a.47.47,0,0,0,.46.46h.11a.46.46,0,0,1,.46.46V47a.46.46,0,0,1-.13.32l-2.31,2.3a.51.51,0,0,0-.13.33v.57a.47.47,0,0,0,.46.46h4.23a.47.47,0,0,1,.47.46v1.29a.47.47,0,0,1-.47.46H90.25a.47.47,0,0,0-.33.13L87.16,56.1a.46.46,0,0,0,0,.65l.56.56a.46.46,0,0,0,.65,0l.8-.8a.47.47,0,0,1,.33-.14h2.1a.46.46,0,0,0,.46-.46v-1.2a.47.47,0,0,1,.46-.46h10.19a.47.47,0,0,0,.47-.46v-.87a.47.47,0,0,0-.47-.46h-.18a.46.46,0,0,1-.32-.79l1.93-1.93a.47.47,0,0,0,.14-.33V47.89a.43.43,0,0,0-.14-.32l-.83-.83a.43.43,0,0,0-.32-.14h-2a.46.46,0,0,1-.46-.46V42.25a1.46,1.46,0,0,0-.43-1l-1.06-1.06a1.45,1.45,0,0,0-1-.42h-.55A1.45,1.45,0,0,1,96,38.29V36.21a1.5,1.5,0,0,0-.43-1l-.8-.79a1.42,1.42,0,0,0-1-.43H93a.46.46,0,0,1-.33-.79l2.43-2.42a.46.46,0,0,0,.13-.33V27.58a.45.45,0,0,0-.46-.46H91a.46.46,0,0,1-.32-.79l2.19-2.19a.49.49,0,0,0,.13-.33v-.56a.45.45,0,0,0-.46-.46H89a.48.48,0,0,0-.36.16l-3.11,3.7a1.49,1.49,0,0,0-.34.94v4.1a1.42,1.42,0,0,0,.43,1Z"/><path class="cls-6" d="M78.46,51.81l1.28-1.28a.44.44,0,0,1,.33-.13h2.05a.45.45,0,0,0,.33-.14l2.45-2.44a.46.46,0,0,0,.13-.33V42.35a.45.45,0,0,1,.14-.33l.19-.19h-.1a1,1,0,0,1-.7-.29l-.32-.33a.87.87,0,0,0-1.2,0,1,1,0,0,1-1.4,0l-.09-.09a1,1,0,0,1,0-1.4l.51-.51a.84.84,0,0,0,.25-.6V36.9L80.6,38.6l-1.29,1.3a.43.43,0,0,0-.14.32v.69a.45.45,0,0,1-.46.46H77a.47.47,0,0,0-.47.47v3a.46.46,0,0,0,.47.46h.9a.46.46,0,0,1,.33.79l-2.58,2.58a.47.47,0,0,0-.14.33v1.92a.48.48,0,0,0,.35.45l2.19.56A.47.47,0,0,0,78.46,51.81Z"/><path class="cls-6" d="M82.16,39.31l-.51.51a.85.85,0,0,0,0,1.2l.09.09a.85.85,0,0,0,1.2,0,1,1,0,0,1,1.4,0l.32.32a.84.84,0,0,0,.6.25h.25l1-1a.46.46,0,0,0,.13-.32V37.79a.45.45,0,0,0-.37-.45l-3.45-.7a.47.47,0,0,0-.41.12v1.85A1,1,0,0,1,82.16,39.31Z"/><path class="cls-6" d="M134.27,95.81h-4.81a.69.69,0,0,0,0,1.37h1.18a.68.68,0,0,1,.49.2l1.31,1.31.66.66a.67.67,0,0,0,.48.2h.61a.69.69,0,0,0,.66-.87l-.21-.8a.61.61,0,0,1,0-.4l.26-.76A.68.68,0,0,0,134.27,95.81Z"/><path class="cls-6" d="M120,84.24a.89.89,0,0,0,1.61-.08l0-.08a.89.89,0,0,0,.07-.36l0-1.31a.89.89,0,0,0-1.53-.61h0a.84.84,0,0,0-.26.62l0,1.37a.92.92,0,0,0,.11.43Z"/><path class="cls-6" d="M122,86.82a.47.47,0,0,0-.6-.22l-1.39.62-.11,0-.39.06a.47.47,0,0,0-.35.65l.52,1.16a.49.49,0,0,1,0,.24l-.39,3.25a.46.46,0,0,0,.46.52h1.61a.46.46,0,0,0,.46-.39l.73-4.56a.47.47,0,0,0,0-.28Z"/><path class="cls-6" d="M107.57,90a.46.46,0,0,0-.63,0l-.93.77a.47.47,0,0,0,0,.69l.35.34a.46.46,0,0,0,.65,0l.85-.85a.45.45,0,0,0,0-.66Z"/><path class="cls-6" d="M159.76,103.37H157l-2.46-.57a.47.47,0,0,0-.57.45v.3a.46.46,0,0,0,.32.44l2.37.79a.4.4,0,0,0,.15,0h2.89a.46.46,0,0,0,.46-.42l.05-.5A.47.47,0,0,0,159.76,103.37Z"/><path class="cls-6" d="M183.4,100.4h-1.54a.47.47,0,0,0-.33.14l-.25.25a.46.46,0,0,0,.33.79h1.52a.48.48,0,0,0,.32-.13l.27-.25A.46.46,0,0,0,183.4,100.4Z"/><path class="cls-6" d="M143,28.65l.37-.37a.72.72,0,0,0,.2-.42l.07-.51a.73.73,0,0,0-1.24-.6l-.42.43a.7.7,0,0,0-.22.51v.44A.73.73,0,0,0,143,28.65Z"/><path class="cls-6" d="M126.91,38a1.06,1.06,0,0,0,1.49,0l.25-.25A1.05,1.05,0,0,0,129,37V35.8a1.11,1.11,0,0,0-.12-.5l-.28-.51a1.05,1.05,0,0,0-1.67-.25l-.77.77a1.07,1.07,0,0,0-.3.74v.36a1.07,1.07,0,0,0,.3.74Z"/><path class="cls-6" d="M125.09,36.59a1,1,0,0,0-1.52,0h0a1,1,0,0,0,0,1.44l.52.52a1,1,0,0,0,1.48,0h0a1,1,0,0,0,0-1.48Z"/><path class="cls-6" d="M151.42,24.64l1.11-.41a.78.78,0,0,0,.29-1.28l-1.11-1.11a.83.83,0,0,0-.55-.23.78.78,0,0,0-.78.78v1.52A.78.78,0,0,0,151.42,24.64Z"/><path class="cls-6" d="M114.8,57l-.55-.51-1.35,2.28a.55.55,0,0,0,.34.13h1.48l.36-.84A.88.88,0,0,0,114.8,57Z"/><path class="cls-6" d="M113.51,54.51a.6.6,0,0,1-.58-.6v-.45a.48.48,0,0,0-.13-.32l-1.42-1.41a.47.47,0,0,0-.65,0l-.64.64a.6.6,0,0,1-.43.18h-1.52a.6.6,0,0,1-.6-.61v-.32l-1.49,1.49a.38.38,0,0,1-.13.09V54a.51.51,0,0,0,.15.36L108.68,57a.56.56,0,0,0,.37.15h1.86a.68.68,0,0,1,.47.19l1.45,1.45,1.36-2.29Z"/><path class="cls-6" d="M134.69,52.43l-.53-.52a.64.64,0,0,1-.19-.47V48.19a.53.53,0,0,0-.15-.36L133,47a.64.64,0,0,1,0-.92l.37-.38a.51.51,0,0,0,0-.72l-.24-.24a.65.65,0,0,1-.2-.47v-1.6L131,40.74a1.45,1.45,0,0,0-1-.42h-.75a1.45,1.45,0,0,0-1,.42l-1.46,1.46a.51.51,0,0,1-.33.13H126a.46.46,0,0,1-.32-.79.46.46,0,0,0-.33-.79H123.9a.46.46,0,0,1-.32-.13L122,39.08a.45.45,0,0,1-.12-.2h-2.25v2.61a1.45,1.45,0,0,1-1.45,1.45l-2.31.53V48.8a.62.62,0,0,1-.18.43l-1.45,1.45a.47.47,0,0,0-.14.33v2.9a.6.6,0,0,1-.53.6l.67,1.92.58.53a1,1,0,0,1,.31,1.18l-.35.81a.64.64,0,0,1,.39.18l1,1a.51.51,0,0,0,.36.15h1a.65.65,0,0,1,.61.41.65.65,0,0,1-.14.71l-.61.61a.51.51,0,0,0-.15.36v3.14a.41.41,0,0,1,0,.11h1.53a.51.51,0,0,0,.37-.15l.5-.51a.68.68,0,0,1,.47-.19.66.66,0,0,1,.46.19l.66.67a.55.55,0,0,0,.36.15h1.16a.66.66,0,0,1,.46.19l.12.12a.54.54,0,0,0,.73,0l.28-.28a.65.65,0,0,1,.78-.1l.66.36a.51.51,0,0,0,.53,0l1.37-.9a.66.66,0,0,1,.55-.08l.85.27a.5.5,0,0,0,.53-.14.52.52,0,0,0,.11-.52l-.09-.25a.66.66,0,0,1,.15-.68l2-2a.52.52,0,0,0,0-.73l-4.24-4.23a.66.66,0,0,1-.19-.46v-.24a.67.67,0,0,1,.66-.66h2.78a.51.51,0,0,0,.36-.15l1.11-1.11a.66.66,0,0,1,.46-.19h1.6a.51.51,0,0,0,.52-.51v-.65A.55.55,0,0,0,134.69,52.43Z"/></g></g></g><ellipse class="cls-3" cx="106.92" cy="67.54" rx="46.74" ry="46.68"/><line class="cls-7" x1="29.35" y1="74.49" x2="43.27" y2="74.49"/><line class="cls-7" x1="36.31" y1="66.55" x2="50.23" y2="66.55"/><line class="cls-8" x1="20.4" y1="131.1" x2="199.4" y2="131.1"/></svg>