<?xml version="1.0" encoding="UTF-8"?>
<svg width="19px" height="20px" viewBox="0 0 19 20" version="1.1" xmlns="http://www.w3.org/2000/svg" xmlns:xlink="http://www.w3.org/1999/xlink">
    <title>E2D6CF73-35A8-4D59-81A4-EB817803223D@1.00x</title>
    <g id="Page-1" stroke="none" stroke-width="1" fill="none" fill-rule="evenodd">
        <g id="Desktop-HD-Copy-2" transform="translate(-1001.000000, -756.000000)" fill="#430092" fill-rule="nonzero">
            <g id="Group-15-Copy" transform="translate(995.000000, 751.000000)">
                <path d="M21.5277778,20 L9.30555556,20 L9.30555556,18 L21.5277778,18 L21.5277778,20 Z M21.5277778,16 L9.30555556,16 L9.30555556,14 L21.5277778,14 L21.5277778,16 Z M21.5277778,12 L9.30555556,12 L9.30555556,10 L21.5277778,10 L21.5277778,12 Z M6.25,25 L7.77777778,23.5 L9.30555556,25 L10.8333333,23.5 L12.3611111,25 L13.8888889,23.5 L15.4166667,25 L16.9444444,23.5 L18.4722222,25 L20,23.5 L21.5277778,25 L23.0555556,23.5 L24.5833333,25 L24.5833333,5 L23.0555556,6.5 L21.5277778,5 L20,6.5 L18.4722222,5 L16.9444444,6.5 L15.4166667,5 L13.8888889,6.5 L12.3611111,5 L10.8333333,6.5 L9.30555556,5 L7.77777778,6.5 L6.25,5 L6.25,25 Z" id="Shape-Copy-3"></path>
            </g>
        </g>
    </g>
</svg>