<svg xmlns="http://www.w3.org/2000/svg" width="150" height="150" viewBox="0 0 150 150">
    <defs>
        <linearGradient id="prefix__linear-gradient" x1=".5" x2=".5" y2="1" gradientUnits="objectBoundingBox">
            <stop offset="0" stop-color="#423f90"/>
            <stop offset="1" stop-color="#9d71ad"/>
        </linearGradient>
        <clipPath id="prefix__clip-path">
            <path id="prefix__Rectangle_28" d="M0 0H150V150H0z" data-name="Rectangle 28" transform="translate(185 1326)" style="fill:#fff"/>
        </clipPath>
        <style>
            .prefix__cls-3{fill:#ffffff;}
        </style>
    </defs>
    <g id="prefix__Mask_Group_17" data-name="Mask Group 17" transform="translate(-185 -1326)">
        <g id="prefix__bill" transform="translate(190 1330.61)">
            <path id="prefix__Path_72" d="M355.24 48.432c.062 0 .124.009.187.009a2.308 2.308 0 0 0 .319-.024 5.155 5.155 0 0 1 5.05 5.147 2.306 2.306 0 1 0 4.613 0 9.78 9.78 0 0 0-7.675-9.537V41.81a2.306 2.306 0 0 0-4.613 0v2.321a9.765 9.765 0 0 0 2.523 19.2 5.153 5.153 0 1 1-5.152 5.153 2.306 2.306 0 1 0-4.613 0 9.781 9.781 0 0 0 7.242 9.433v2.527a2.306 2.306 0 0 0 4.613 0v-2.423a9.764 9.764 0 0 0-2.09-19.3 5.15 5.15 0 0 1-.4-10.285zm0 0" class="prefix__cls-3" data-name="Path 72" transform="translate(-248.075 -27.837)"/>
            <path id="prefix__Path_73" d="M107.8.39c-13.955 0-25.863 9.564-30.324 22.369h-56.3a2.44 2.44 0 0 0-2.268 2.489l-.536 83.575H2.328A2.28 2.28 0 0 0 0 111.094V121.7c.029 9.984 7.516 18.187 17.012 18.638v.052h70.03v-.07c.567.022.8.07 1.16.07h.049c9.828-.016 17.788-8.39 17.788-18.713V68.055c.567.033 1.167.05 1.754.05C125.55 68.105 140 52.9 140 34.247S125.557.39 107.8.39zM17.874 135.625h-.014c-7.337-.01-13.29-6.242-13.324-13.95v-8.087h65.778v8.053a19.173 19.173 0 0 0 5.252 13.243c.238.25.534.443.783.741zm83.628-13.95c0 7.694-5.93 13.935-13.254 13.95h-.043c-7.354-.014-13.318-6.258-13.355-13.981v-10.55a2.26 2.26 0 0 0-.614-1.63 2.042 2.042 0 0 0-1.552-.641H22.911l.521-81.3h52.784a37.54 37.54 0 0 0-.621 6.617 35.043 35.043 0 0 0 2.738 13.634H56.909a2.385 2.385 0 0 0 0 4.765h23.885a32.038 32.038 0 0 0 20.706 14.92zm6.3-58.334c-15.279 0-27.667-13.01-27.666-29.06S92.519 5.221 107.8 5.221s27.666 13.011 27.666 29.06c-.017 16.042-12.394 29.043-27.666 29.06zm0 0" class="prefix__cls-3" data-name="Path 73"/>
            <path id="prefix__Path_74" d="M131.143 212.746a7.152 7.152 0 1 0 7.383 7.148 7.275 7.275 0 0 0-7.383-7.148zm0 9.683a2.545 2.545 0 1 1 2.77-2.535 2.662 2.662 0 0 1-2.77 2.535zm0 0" class="prefix__cls-3" data-name="Path 74" transform="translate(-88.74 -148.878)"/>
            <path id="prefix__Path_75" d="M192.719 231.81a2.306 2.306 0 0 0 2.306 2.306h30.749a2.306 2.306 0 0 0 0-4.613h-30.749a2.306 2.306 0 0 0-2.306 2.307zm0 0" class="prefix__cls-3" data-name="Path 75" transform="translate(-138.382 -160.807)"/>
            <path id="prefix__Path_76" d="M131.143 143.2a7.152 7.152 0 1 0 7.383 7.149 7.276 7.276 0 0 0-7.383-7.149zm0 9.684a2.546 2.546 0 1 1 2.77-2.535 2.662 2.662 0 0 1-2.77 2.535zm0 0" class="prefix__cls-3" data-name="Path 76" transform="translate(-88.74 -100.123)"/>
            <path id="prefix__Path_77" d="M131.143 282.281a7.152 7.152 0 1 0 7.383 7.148 7.275 7.275 0 0 0-7.383-7.148zm0 9.683a2.545 2.545 0 1 1 2.77-2.535 2.662 2.662 0 0 1-2.77 2.535zm0 0" class="prefix__cls-3" data-name="Path 77" transform="translate(-88.74 -197.628)"/>
            <path id="prefix__Path_78" d="M225.774 299.5h-30.749a2.306 2.306 0 1 0 0 4.613h30.749a2.306 2.306 0 1 0 0-4.613zm0 0" class="prefix__cls-3" data-name="Path 78" transform="translate(-138.382 -209.937)"/>
        </g>
    </g>
</svg>
