<svg xmlns="http://www.w3.org/2000/svg" width="150" height="150" viewBox="0 0 150 150">
    <defs>
        <linearGradient id="prefix__linear-gradient" x1=".5" x2=".5" y2="1" gradientUnits="objectBoundingBox">
            <stop offset="0" stop-color="#423f90"/>
            <stop offset="1" stop-color="#9d71ad"/>
        </linearGradient>
        <clipPath id="prefix__clip-path">
            <path id="prefix__Rectangle_27" d="M0 0H150V150H0z" data-name="Rectangle 27" transform="translate(454 1324)" style="fill:#fff"/>
        </clipPath>
        <style>
            .prefix__cls-3{fill:#ffffff;}
        </style>
    </defs>
    <g id="prefix__Mask_Group_18" data-name="Mask Group 18" transform="translate(-454 -1324)">
        <g id="prefix__tax" transform="translate(459 1328.918)">
            <g id="prefix__Group_36" data-name="Group 36" transform="translate(110.385 40.533)">
                <g id="prefix__Group_35" data-name="Group 35">
                    <path id="prefix__Path_79" d="M408.588 148.845a2.761 2.761 0 1 0 .81 1.953 2.782 2.782 0 0 0-.81-1.953z" class="prefix__cls-3" data-name="Path 79" transform="translate(-403.872 -148.035)"/>
                </g>
            </g>
            <g id="prefix__Group_38" data-name="Group 38" transform="translate(0 .082)">
                <g id="prefix__Group_37" data-name="Group 37">
                    <path id="prefix__Path_80" d="M112.913 35.219a2.731 2.731 0 0 0 2.727-2.734v-24.2a8.2 8.2 0 0 0-8.182-8.2H8.182A8.2 8.2 0 0 0 0 8.285v123.594a8.2 8.2 0 0 0 8.182 8.2h99.276a8.2 8.2 0 0 0 8.182-8.2V119.6a2.727 2.727 0 1 0-5.455 0v12.281a2.734 2.734 0 0 1-2.727 2.734H8.182a2.734 2.734 0 0 1-2.727-2.734V8.285a2.734 2.734 0 0 1 2.727-2.734h99.276a2.734 2.734 0 0 1 2.727 2.734v24.2a2.731 2.731 0 0 0 2.728 2.734z" class="prefix__cls-3" data-name="Path 80" transform="translate(0 -.082)"/>
                </g>
            </g>
            <g id="prefix__Group_40" data-name="Group 40" transform="translate(19.341 16.142)">
                <g id="prefix__Group_39" data-name="Group 39">
                    <path id="prefix__Path_81" d="M188.239 151.982l-14.077-14.062a29.95 29.95 0 0 0-26.191-44.566c-.165 0-.329 0-.494.006v-15a2.728 2.728 0 0 0-2.729-2.726H128.8V60.916a2.728 2.728 0 0 0-2.729-2.726h-18.677a2.728 2.728 0 0 0-2.729 2.726v16.355H88.716A2.728 2.728 0 0 0 85.987 80v14.72h-13.28a2.728 2.728 0 0 0-2.729 2.726v14.72a2.728 2.728 0 0 0 2.729 2.726h46.475a29.988 29.988 0 0 0 43.4 34.6l13.984 13.969a8.364 8.364 0 0 0 5.921 2.475 8.167 8.167 0 0 0 5.749-13.948zM85.987 109.437H75.436v-9.268h10.551v9.268zm18.677 0H91.445V82.723h13.22zm5.457 0v-45.8h13.22v28.32a2.729 2.729 0 0 0 5.458 0V81.088h13.22v12.86a30.1 30.1 0 0 0-20.627 15.49zm37.849 38.4a24.516 24.516 0 1 1 24.542-24.516 24.557 24.557 0 0 1-24.541 24.517zm36.336 11.924a2.822 2.822 0 0 1-3.878-.163l-13.272-13.258a30.269 30.269 0 0 0 3.859-3.855l13.365 13.35a2.724 2.724 0 0 1-.074 3.926z" class="prefix__cls-3" data-name="Path 81" transform="translate(-69.978 -58.19)"/>
                </g>
            </g>
            <g id="prefix__Group_42" data-name="Group 42" transform="translate(85.446 66.771)">
                <g id="prefix__Group_41" data-name="Group 41">
                    <path id="prefix__Path_82" d="M332.036 245a2.763 2.763 0 0 0-3.764 1.048l-14.856 26.316a2.763 2.763 0 1 0 4.812 2.717l14.857-26.316a2.763 2.763 0 0 0-1.049-3.765z" class="prefix__cls-3" data-name="Path 82" transform="translate(-313.058 -244.642)"/>
                </g>
            </g>
            <g id="prefix__Group_44" data-name="Group 44" transform="translate(98.47 83.528)">
                <g id="prefix__Group_43" data-name="Group 43">
                    <path id="prefix__Path_83" d="M368.925 305.586a8.289 8.289 0 1 0 8.289 8.289 8.3 8.3 0 0 0-8.289-8.289zm0 11.052a2.763 2.763 0 1 1 2.763-2.763 2.766 2.766 0 0 1-2.763 2.763z" class="prefix__cls-3" data-name="Path 83" transform="translate(-360.636 -305.586)"/>
                </g>
            </g>
            <g id="prefix__Group_46" data-name="Group 46" transform="translate(79.395 62.482)">
                <g id="prefix__Group_45" data-name="Group 45">
                    <path id="prefix__Path_84" d="M299.065 228.535a8.289 8.289 0 1 0 8.289 8.289 8.3 8.3 0 0 0-8.289-8.289zm0 11.052a2.763 2.763 0 1 1 2.763-2.763 2.766 2.766 0 0 1-2.763 2.763z" class="prefix__cls-3" data-name="Path 84" transform="translate(-290.776 -228.535)"/>
                </g>
            </g>
            <g id="prefix__Group_48" data-name="Group 48" transform="translate(14.92 119.636)">
                <g id="prefix__Group_47" data-name="Group 47">
                    <path id="prefix__Path_85" d="M133.245 437.943h-76.5a2.763 2.763 0 0 0 0 5.526h76.5a2.763 2.763 0 0 0 0-5.526z" class="prefix__cls-3" data-name="Path 85" transform="translate(-53.983 -437.943)"/>
                </g>
            </g>
            <g id="prefix__Group_50" data-name="Group 50" transform="translate(38.189 104.491)">
                <g id="prefix__Group_49" data-name="Group 49">
                    <path id="prefix__Path_86" d="M159.846 381.961h-17.132a2.763 2.763 0 0 0 0 5.526h17.132a2.763 2.763 0 0 0 0-5.526z" class="prefix__cls-3" data-name="Path 86" transform="translate(-139.951 -381.961)"/>
                </g>
            </g>
            <g id="prefix__Group_52" data-name="Group 52" transform="translate(65.212 104.491)">
                <g id="prefix__Group_51" data-name="Group 51">
                    <path id="prefix__Path_87" d="M243.311 382.771a2.762 2.762 0 1 0 .81 1.953 2.784 2.784 0 0 0-.81-1.953z" class="prefix__cls-3" data-name="Path 87" transform="translate(-238.594 -381.961)"/>
                </g>
            </g>
            <g id="prefix__Group_54" data-name="Group 54" transform="translate(38.189 89.184)">
                <g id="prefix__Group_53" data-name="Group 53">
                    <path id="prefix__Path_88" d="M159.846 325.978h-17.132a2.763 2.763 0 0 0 0 5.526h17.132a2.763 2.763 0 0 0 0-5.526z" class="prefix__cls-3" data-name="Path 88" transform="translate(-139.951 -325.978)"/>
                </g>
            </g>
            <g id="prefix__Group_56" data-name="Group 56" transform="translate(14.92 82.744)">
                <g id="prefix__Group_55" data-name="Group 55">
                    <path id="prefix__Path_89" d="M62.825 316.565a2.8 2.8 0 1 1 3.316-2.754 2.763 2.763 0 1 0 5.526 0 8.365 8.365 0 0 0-6.081-7.864 2.761 2.761 0 0 0-5.521 0 8.365 8.365 0 0 0-6.081 7.864c0 4.565 3.966 8.28 8.842 8.28a2.8 2.8 0 1 1-3.316 2.754 2.763 2.763 0 0 0-5.526 0 8.364 8.364 0 0 0 6.079 7.863v.159a2.763 2.763 0 1 0 5.526 0v-.159a8.364 8.364 0 0 0 6.079-7.863c-.002-4.565-3.968-8.28-8.843-8.28z" class="prefix__cls-3" data-name="Path 89" transform="translate(-53.983 -303.237)"/>
                </g>
            </g>
        </g>
    </g>
</svg>
