<svg xmlns="http://www.w3.org/2000/svg" width="150" height="150" viewBox="0 0 150 150">
    <defs>
        <linearGradient id="prefix__linear-gradient" x1=".5" x2=".5" y2="1" gradientUnits="objectBoundingBox">
            <stop offset="0" stop-color="#423f90"/>
            <stop offset="1" stop-color="#9d71ad"/>
        </linearGradient>
        <clipPath id="prefix__clip-path">
            <path id="prefix__Rectangle_32" d="M0 0H150V150H0z" data-name="Rectangle 32" transform="translate(724 1631)" style="fill:#fff"/>
        </clipPath>
        <style>
            .prefix__cls-3{fill:#ffffff;}
        </style>
    </defs>
    <g id="prefix__Mask_Group_23" data-name="Mask Group 23" transform="translate(-724 -1631)">
        <g id="prefix__price_1_" data-name="price (1)" transform="translate(728.995 1635.999)">
            <path id="prefix__Path_109" d="M105.606 257.614a4.8 4.8 0 0 1 4.8 4.8 2.4 2.4 0 0 0 4.8 0 9.6 9.6 0 0 0-7.2-9.261v-2.742a2.4 2.4 0 0 0-4.8 0v2.742a9.583 9.583 0 0 0 2.4 18.864 4.8 4.8 0 1 1-4.8 4.8 2.4 2.4 0 0 0-4.8 0 9.6 9.6 0 0 0 7.2 9.261v2.742a2.4 2.4 0 0 0 4.8 0v-2.735a9.583 9.583 0 0 0-2.4-18.871 4.8 4.8 0 1 1 0-9.6zm0 0" class="prefix__cls-3" data-name="Path 109" transform="translate(-63.055 -176.571)"/>
            <path id="prefix__Path_110" d="M112.808 200.012H98.4a2.4 2.4 0 0 0 0 4.8h14.4a2.4 2.4 0 0 0 0-4.8zm0 0" class="prefix__cls-3" data-name="Path 110" transform="translate(-63.056 -141.734)"/>
            <path id="prefix__Path_111" d="M112.808 424.012H98.4a2.4 2.4 0 1 0 0 4.8h14.4a2.4 2.4 0 1 0 0-4.8zm0 0" class="prefix__cls-3" data-name="Path 111" transform="translate(-63.056 -300.815)"/>
            <path id="prefix__Path_112" d="M136.754 89.836L97.229 30.511a40.9 40.9 0 0 0 6.413-6.925c4.488-6.3 5.29-12.28 2.256-16.834-6.038-9.065-25.108-8.992-43.413.166a68.059 68.059 0 0 0-7 4.09L53.313 8.87a15.074 15.074 0 0 0-20.462 0L3.419 37.775A10.962 10.962 0 0 0 0 45.6V119c.016 11.592 10.855 20.987 24.231 21h37.696c13.376-.013 24.216-9.407 24.231-21V45.6A10.682 10.682 0 0 0 84 39.261h.021a66.788 66.788 0 0 0 9.132-5.52l38.933 58.428c5.208 7.812 2.122 17.8-6.9 22.315l-32.631 16.333a20.405 20.405 0 0 1-4.576 1.614 2.322 2.322 0 0 0-1.91 2.855 2.755 2.755 0 0 0 3.294 1.655 26.425 26.425 0 0 0 5.871-2.084l32.641-16.333c11.6-5.8 15.573-18.642 8.879-28.69zM80.773 119c-.012 9.016-8.442 16.323-18.846 16.333H24.235C13.833 135.324 5.4 128.018 5.389 119V45.6a6.643 6.643 0 0 1 2.068-4.739l29.432-28.9a9.114 9.114 0 0 1 12.385 0l26.258 25.788a50.379 50.379 0 0 1-19.2 3.691 10.061 10.061 0 0 0 .209-1.77c-.006-6.44-6.029-11.658-13.46-11.67a2.981 2.981 0 0 0-.864.152 2.659 2.659 0 0 0-2.917 1.784 11.509 11.509 0 0 0 1.316 9.474 14.392 14.392 0 0 0 7.853 5.454 9.01 9.01 0 0 1-8.689 1.218A7 7 0 0 1 35 39.67a2.532 2.532 0 0 0-2.692-2.333 2.532 2.532 0 0 0-2.688 2.333c-.007 5.172 3.921 9.73 9.648 11.19s11.876-.525 15.1-4.876q1.589.145 3.191.152a58.429 58.429 0 0 0 21.621-4.718 6.523 6.523 0 0 1 1.593 4.182zM51.158 39.67a6.069 6.069 0 0 1-.118 1.02 9.836 9.836 0 0 1-5.763-3.613 6.662 6.662 0 0 1-1.024-4.3c3.954.5 6.89 3.434 6.906 6.9zM81.33 35.2c-.268.136-.538.252-.807.383L59.065 14.505a62.5 62.5 0 0 1 6.112-3.535c15.166-7.592 31.68-8.45 36.055-1.87 2 3 1.228 7.28-2.173 12.051a34.524 34.524 0 0 1-4.63 5.172l-.028-.042a13.4 13.4 0 0 0-7.471-5.3L76.388 17.9a2.8 2.8 0 0 0-3.336 1.488 2.265 2.265 0 0 0 1.622 2.934l10.543 3.073a8.129 8.129 0 0 1 4.522 3.205l.686 1.029a60.758 60.758 0 0 1-9.094 5.577zm0 0" class="prefix__cls-3" data-name="Path 112"/>
            <path id="prefix__Path_113" d="M272.326 291.653a2.4 2.4 0 0 0 3.279.878l16.632-9.6a2.4 2.4 0 1 0-2.4-4.158l-16.632 9.6a2.4 2.4 0 0 0-.879 3.28zm0 0" class="prefix__cls-3" data-name="Path 113" transform="translate(-178.405 -197.491)"/>
            <path id="prefix__Path_114" d="M282.455 335.615a2.4 2.4 0 0 0 3.279.88l20.79-12a2.4 2.4 0 0 0-2.4-4.16l-20.79 12a2.4 2.4 0 0 0-.879 3.28zm0 0" class="prefix__cls-3" data-name="Path 114" transform="translate(-182.301 -227.032)"/>
            <path id="prefix__Path_115" d="M282.128 253.411a2.4 2.4 0 0 0 1.2-.322l8.315-4.8a2.4 2.4 0 1 0-2.4-4.158l-8.315 4.8a2.4 2.4 0 0 0 1.2 4.48zm0 0" class="prefix__cls-3" data-name="Path 115" transform="translate(-184.387 -172.839)"/>
        </g>
    </g>
</svg>
