<svg xmlns="http://www.w3.org/2000/svg" width="150" height="150" viewBox="0 0 150 150">
    <defs>
        <linearGradient id="prefix__linear-gradient" x1=".5" x2=".5" y2="1" gradientUnits="objectBoundingBox">
            <stop offset="0" stop-color="#423f90"/>
            <stop offset=".82" stop-color="#8d68a8"/>
            <stop offset="1" stop-color="#9d71ad"/>
        </linearGradient>
        <clipPath id="prefix__clip-path">
            <path id="prefix__Rectangle_9" d="M0 0H150V150H0z" data-name="Rectangle 9" transform="translate(718 84)" style="fill:#fff"/>
        </clipPath>
        <style>
            .prefix__cls-3{fill:#ffffff;}
        </style>
    </defs>
    <g id="prefix__Mask_Group_3" data-name="Mask Group 3" transform="translate(-718 -84)">
        <g id="prefix__partner" transform="translate(726 88)">
            <path id="prefix__Path_133" d="M23 31h2.947v2.947H23z" class="prefix__cls-3" data-name="Path 133" transform="translate(25.551 38.526)"/>
            <path id="prefix__Path_134" d="M27 31h2.947v2.947H27z" class="prefix__cls-3" data-name="Path 134" transform="translate(30.196 38.526)"/>
            <path id="prefix__Path_135" d="M86.569 104.871h47.063v-7.808a16.473 16.473 0 0 0-4.473-11.4 15.079 15.079 0 0 0-7.094-4.238l-3.784-1-.7-2.958a13.606 13.606 0 0 0 4.916-7.535l1.087-1.093a19.876 19.876 0 0 0 4.813-8 20.47 20.47 0 0 0 .958-6.207v-1.7a16.487 16.487 0 0 0-2.995-9.484 14.8 14.8 0 0 0-11.98-6.323h-8.557a14.8 14.8 0 0 0-11.98 6.323 16.487 16.487 0 0 0-2.995 9.484v1.7a20.549 20.549 0 0 0 .954 6.2 19.874 19.874 0 0 0 4.815 8l1.083 1.102a13.612 13.612 0 0 0 4.916 7.537l-.7 2.958-3.782 1a15.058 15.058 0 0 0-7.094 4.238 16.423 16.423 0 0 0-1.215 1.463l-2.3-1.215A35.133 35.133 0 0 0 90.847 71a34.355 34.355 0 0 0-14.591-28.357l8.144-15.35a12.127 12.127 0 0 0 4.308.8c7.079 0 12.835-6.076 12.835-13.548S95.787 1 88.708 1 75.873 7.076 75.873 14.548a13.824 13.824 0 0 0 4.79 10.543l-8.147 15.357a30.422 30.422 0 0 0-13.757-3.319 30.951 30.951 0 0 0-20.551 7.89 13.415 13.415 0 0 0-5.265-5.919 12.247 12.247 0 0 0 6.563-11l-2.017-11.915C35.974 7.386 28.724 1 20.253 1S4.532 7.386 3.017 16.185l-1.983 11.51L1 28.1a12.246 12.246 0 0 0 6.582 11.012A13.7 13.7 0 0 0 1 50.9v4.293h29.4a35.023 35.023 0 0 0-3.62 13.549H15.626A7.542 7.542 0 0 0 8.487 63.1a7.915 7.915 0 0 0 0 15.806 7.542 7.542 0 0 0 7.139-5.645H26.78a34.732 34.732 0 0 0 7.393 19.465l-2.526 2c-.092-.077-.173-.165-.267-.239a14.556 14.556 0 0 0-8.987-3.161h-4.279a14.545 14.545 0 0 0-8.985 3.161 16.2 16.2 0 0 0-5.99 12.645 7.909 7.909 0 0 0 2.18 5.494l4.832 4.837a11.4 11.4 0 0 0 2.327 4.15l-.391 1.651-.768.163A13.422 13.422 0 0 0 1 136.707V141h38.506v-4.293a13.422 13.422 0 0 0-10.317-13.284l-.77-.163-.391-1.651a11.4 11.4 0 0 0 2.327-4.15l4.873-4.88a7.878 7.878 0 0 0 2.139-5.451 16.455 16.455 0 0 0-2.766-9.1l2.573-2.037a31.036 31.036 0 0 0 21.585 8.879 30.436 30.436 0 0 0 9.9-1.666l4.813 12.7a13.706 13.706 0 0 0-6.155 11.545c0 7.472 5.757 13.548 12.835 13.548s12.835-6.076 12.835-13.548S87.23 113.9 80.151 113.9a12.1 12.1 0 0 0-2.713.312L72.621 101.5a32.856 32.856 0 0 0 12.784-11.652l2.268 1.2a16.842 16.842 0 0 0-1.1 6.018zm2.139-99.355a8.813 8.813 0 0 1 8.557 9.032 8.569 8.569 0 1 1-17.114 0 8.813 8.813 0 0 1 8.557-9.032zM8.487 74.387a3.392 3.392 0 0 1 0-6.774 3.392 3.392 0 0 1 0 6.774zm80.221 53.065a8.569 8.569 0 1 1-8.557-9.032 8.813 8.813 0 0 1 8.557 9.032zM26.671 25.839a6.611 6.611 0 0 1-6.418 6.774 6.611 6.611 0 0 1-6.418-6.774v-3.984a2.26 2.26 0 0 1 1.183-2.019l5.235-2.764 5.235 2.764a2.26 2.26 0 0 1 1.183 2.019zm-9.935 10.613a10.064 10.064 0 0 0 3.517.677 10.064 10.064 0 0 0 3.517-.677l.633 2.674-4.15 8.761-4.153-8.762zM5.281 28.286l1.946-11.294A13.45 13.45 0 0 1 20.253 5.516a13.45 13.45 0 0 1 13.026 11.476l1.947 11.295a7.706 7.706 0 0 1-4.612 7l-2.46 1.039L27.6 34a11.528 11.528 0 0 0 3.348-8.163v-3.982A6.786 6.786 0 0 0 27.4 15.8l-7.149-3.773L13.1 15.8a6.784 6.784 0 0 0-3.547 6.058v3.983A11.537 11.537 0 0 0 12.9 34l-.552 2.326-2.457-1.035a7.71 7.71 0 0 1-4.61-7zm6.878 13.758l.494-.1 4.139 8.736H5.283a8.932 8.932 0 0 1 6.875-8.635zm11.556 8.633l4.139-8.739.5.1a8.793 8.793 0 0 1 6.535 6.4q-.911 1.074-1.735 2.229h-9.44zm.689 74.252l-4.15 8.764-4.15-8.761.137-.578a10.007 10.007 0 0 0 8.026 0zm2.267-11.029a6.611 6.611 0 0 1-6.418 6.774 6.611 6.611 0 0 1-6.418-6.774v-3.121l6.418-3.387 6.418 3.387zm-14.513 13.951l.494-.1 4.139 8.736H5.283a8.932 8.932 0 0 1 6.875-8.636zm23.067 8.633H23.716l4.139-8.739.5.1a8.941 8.941 0 0 1 6.87 8.639zm-2.982-27.14l-1.294 1.3v-2.649l-10.7-5.645-10.7 5.645v2.649L8.3 109.387a3.311 3.311 0 0 1-.886-2.258A11.571 11.571 0 0 1 11.7 98.1a10.388 10.388 0 0 1 6.418-2.258h4.278A10.388 10.388 0 0 1 28.81 98.1a11.568 11.568 0 0 1 4.278 9.032 3.281 3.281 0 0 1-.845 2.212zM30.949 71c0-16.186 12.476-29.355 27.81-29.355S86.569 54.814 86.569 71a30.333 30.333 0 0 1-4.279 15.574V67.868l-12.835 4.516V61.033L54.48 45.226 39.506 61.033v31.1A30.051 30.051 0 0 1 30.949 71zm34.228 28.535V78.65l4.278-1.506v20.948a26.959 26.959 0 0 1-4.278 1.443zM54.134 77.774h-6.071v4.516h4.278v4.516h-4.278v4.516h4.278v8.213a26.839 26.839 0 0 1-8.557-3.835V64.226h21.393v9.662zM46.809 59.71l7.671-8.1 7.671 8.1zm26.924 15.928l4.278-1.506v18a28.21 28.21 0 0 1-4.278 3.568zM56.62 100.24V81.658l4.28-1.506v20.085c-.708.061-1.416.117-2.139.117s-1.433-.054-2.141-.114zm64.408-14.431a10.879 10.879 0 0 1 5.106 3.051 11.866 11.866 0 0 1 3.22 8.2v3.292h-17.115v-8.28l5.136-7.23zm-25.168-26.4a15.811 15.811 0 0 1-.734-4.776v-1.7a11.775 11.775 0 0 1 2.139-6.774 10.567 10.567 0 0 1 8.557-4.516h8.557a10.57 10.57 0 0 1 8.557 4.516 11.775 11.775 0 0 1 2.139 6.774v1.7a15.822 15.822 0 0 1-.734 4.776 15.5 15.5 0 0 1-1.405 3.145v-1.216a4.493 4.493 0 0 0-2.924-4.284 19.969 19.969 0 0 1-7.812-5.1l-2.1-2.215-2.1 2.216a19.969 19.969 0 0 1-7.812 5.1 4.5 4.5 0 0 0-2.926 4.286v1.217a15.505 15.505 0 0 1-1.403-3.149zm5.684 1.928a24.137 24.137 0 0 0 8.557-5.259 24.137 24.137 0 0 0 8.557 5.259v5.146a8.569 8.569 0 1 1-17.114 0zm8.556 18.695a12.087 12.087 0 0 0 3.549-.54l.546 2.3-4.095 5.766-4.094-5.758.546-2.3a12.087 12.087 0 0 0 3.548.532zm-10.927 5.776l3.649-.964 5.138 7.23v8.28H90.847v-3.291a11.858 11.858 0 0 1 3.22-8.2 10.879 10.879 0 0 1 5.106-3.055z" class="prefix__cls-3" data-name="Path 135"/>
        </g>
    </g>
</svg>
