<svg xmlns="http://www.w3.org/2000/svg" xmlns:xlink="http://www.w3.org/1999/xlink" width="150" height="150" viewBox="0 0 150 150">
    <defs>
        <linearGradient id="prefix__linear-gradient" x1=".293" x2=".829" y1=".263" y2=".5" gradientUnits="objectBoundingBox">
            <stop offset="0" stop-color="#423f90"/>
            <stop offset="1" stop-color="#9d71ad"/>
        </linearGradient>
        <linearGradient id="prefix__linear-gradient-2" x1=".264" x2=".86" y1=".5" y2=".802" xlink:href="#prefix__linear-gradient"/>
        <clipPath id="prefix__clip-path">
            <path id="prefix__Rectangle_12" d="M0 0H150V150H0z" data-name="Rectangle 12" transform="translate(418 406)" style="fill:#fff"/>
        </clipPath>
        <style>
            .prefix__cls-4{fill:url(#prefix__linear-gradient-2)}
        </style>
    </defs>
    <g id="prefix__Mask_Group_6" data-name="Mask Group 6" transform="translate(-418 -406)">
        <g id="prefix__Group_29" data-name="Group 29" transform="translate(-78 -60)">
            <path id="prefix__smart-cart" d="M126.646 26.564a12.384 12.384 0 0 0-9.749-4.6H23.645l-.939-7.52C21.694 6.346 16.417 0 10.69 0H3.838A3.976 3.976 0 0 0 0 4.1a3.976 3.976 0 0 0 3.838 4.1h6.852c1.231 0 3.839 2.782 4.406 7.327l10.987 88.058a16.927 16.927 0 0 0 5.255 10.233 15.493 15.493 0 0 0 7.367 3.917 15.8 15.8 0 0 0-1.7 7.178C37 133.233 43.334 140 51.117 140s14.117-6.767 14.117-15.085a15.814 15.814 0 0 0-1.561-6.881h20.113a15.814 15.814 0 0 0-1.561 6.881c0 8.318 6.333 15.085 14.117 15.085s14.117-6.767 14.117-15.085a15.814 15.814 0 0 0-1.561-6.881h10.057a4.111 4.111 0 0 0 0-8.2h-77.43c-3.75 0-7.337-3.356-7.833-7.328l-.8-6.435h75.785a14.982 14.982 0 0 0 10.187-4.213 16.93 16.93 0 0 0 5.255-10.234l5.503-44.124a14.255 14.255 0 0 0-2.976-10.933zm-69.088 98.351a6.454 6.454 0 1 1-6.44-6.881 6.679 6.679 0 0 1 6.44 6.881zm45.224 0a6.454 6.454 0 1 1-6.44-6.881 6.679 6.679 0 0 1 6.44 6.881zm18.088-92.947a5.783 5.783 0 0 1 1.142 4.444l-2.308 18.5H93.588l1.543-24.746H116.9a5.013 5.013 0 0 1 3.972 1.8zm-54.509 55.9l-1.545-24.75h20.566l-1.544 24.746zM64.3 54.915l-1.539-24.746h24.676l-1.543 24.746zm-9.232-24.746l1.543 24.746H27.755l-3.088-24.746zm-26.29 32.949h28.345l1.544 24.746h-26.8zm79.9 24.746H91.531l1.544-24.746h25.6l-2.173 17.419c-.5 3.972-4.083 7.327-7.833 7.327zm0 0" transform="translate(501 471)" class="prefix__cls-4"/>
            <g id="prefix__ban" transform="translate(581.883 471)">
                <g id="prefix__Group_5" data-name="Group 5">
                    <g id="prefix__Group_4" data-name="Group 4">
                        <path id="prefix__Path_11" d="M29.559 0a29.559 29.559 0 1 0 29.558 29.559A29.43 29.43 0 0 0 29.559 0zm0 55.653a26.095 26.095 0 1 1 26.094-26.094 25.969 25.969 0 0 1-26.094 26.094z" class="prefix__cls-4" data-name="Path 11"/>
                    </g>
                </g>
                <g id="prefix__Group_7" data-name="Group 7" transform="translate(6.939 6.945)">
                    <g id="prefix__Group_6" data-name="Group 6">
                        <path id="prefix__Path_12" d="M95.881 64.408a22.6 22.6 0 0 0-31.63 31.4 1.732 1.732 0 0 0 2.631.225L96.1 67.049a1.733 1.733 0 0 0-.219-2.641zM65.969 92.059a19.141 19.141 0 0 1 26.153-25.946z" class="prefix__cls-4" data-name="Path 12" transform="translate(-60.099 -60.147)"/>
                    </g>
                </g>
                <g id="prefix__Group_9" data-name="Group 9" transform="translate(15.669 15.784)">
                    <g id="prefix__Group_8" data-name="Group 8">
                        <path id="prefix__Path_13" d="M168.062 137.431a1.733 1.733 0 0 0-2.631-.225l-29.215 28.984a1.733 1.733 0 0 0 .216 2.641 22.6 22.6 0 0 0 31.63-31.4zm-4.881 26.518a18.9 18.9 0 0 1-22.99 3.176l26.153-25.946a18.989 18.989 0 0 1-3.163 22.771z" class="prefix__cls-4" data-name="Path 13" transform="translate(-135.704 -136.704)"/>
                    </g>
                </g>
            </g>
        </g>
    </g>
</svg>
