<svg xmlns="http://www.w3.org/2000/svg" width="150" height="150" viewBox="0 0 150 150">
    <defs>
        <linearGradient id="prefix__linear-gradient" x1=".5" x2=".5" y2="1" gradientUnits="objectBoundingBox">
            <stop offset="0" stop-color="#423f90"/>
            <stop offset=".82" stop-color="#8d68a8"/>
            <stop offset="1" stop-color="#9d71ad"/>
        </linearGradient>
        <clipPath id="prefix__clip-path">
            <path id="prefix__Rectangle_8" d="M0 0H150V150H0z" data-name="Rectangle 8" transform="translate(470 95)" style="fill:#fff"/>
        </clipPath>
        <style>
            .prefix__cls-3{fill:#ffffff;}
        </style>
    </defs>
    <g id="prefix__Mask_Group_2" data-name="Mask Group 2" transform="translate(-470 -95)">
        <g id="prefix__camping-tent" transform="translate(479 142.433)">
            <path id="prefix__Path_116" d="M130.689 236.218h-2.349V231.8a3.954 3.954 0 0 0-4.015-3.881h-5.471l-12.3-17.831-5.139-7.451h7.814a1.959 1.959 0 0 0 1.653-.891 1.823 1.823 0 0 0 .085-1.827l-5.031-9.727h3.293a1.959 1.959 0 0 0 1.653-.891 1.823 1.823 0 0 0 .085-1.827l-6.437-12.445-6.437-12.445a1.973 1.973 0 0 0-3.475 0l-6.437 12.445-2.488 4.809-17.434-25.28v-3.58a1.944 1.944 0 0 0-3.886 0v3.58l-17.435 25.281-8.925-17.255a1.94 1.94 0 0 0-1.465-1.02 2 2 0 0 0-.273-.019 1.951 1.951 0 0 0-1.738 1.038L28.1 175.029l-6.437 12.445a1.823 1.823 0 0 0 .085 1.827 1.959 1.959 0 0 0 1.653.891h3.294l-5.031 9.727a1.823 1.823 0 0 0 .085 1.827 1.959 1.959 0 0 0 1.653.891h7.814l-5.139 7.451-12.3 17.832h-5.47a3.954 3.954 0 0 0-4.015 3.88v4.416H1.943a1.879 1.879 0 1 0 0 3.756H28.91a1.879 1.879 0 1 0 0-3.756H8.177V231.8a.127.127 0 0 1 .13-.125h116.018a.127.127 0 0 1 .13.125v4.416H36.681a1.879 1.879 0 1 0 0 3.756h94.008a1.879 1.879 0 1 0 0-3.756zm-82.322-9.832l-9.432-9.118 22.009-24.314zm23.322-33.432L93.7 217.268l-9.432 9.118zm-13.951 19.509l8.578-22.8 8.578 22.8 5.815 15.458H51.923zm7.115-29.534l-30.04 33.188a1.833 1.833 0 0 0 .088 2.565l9.558 9.239H29.635V211.7l6.818-9.886.006-.008 27.914-40.476v14.539a1.944 1.944 0 0 0 3.886 0V161.33l27.914 40.475.006.008L103 211.7v16.221H88.172l9.558-9.239a1.833 1.833 0 0 0 .088-2.565l-30.04-33.188a2.069 2.069 0 0 0-2.924 0zm42.029 34.4l7.3 10.587h-7.3zm-10.525-49.706l3.294 6.368h-6.588zm-5.237 10.124h10.473l4.494 8.689h-3.294a1.959 1.959 0 0 0-1.653.891 1.823 1.823 0 0 0-.085 1.827l5.031 9.727h-7.259l-10.651-15.443zm-51.551-3.756h-6.588l3.294-6.368zm-13.025 24.891l5.031-9.727a1.823 1.823 0 0 0-.085-1.827 1.959 1.959 0 0 0-1.653-.891h-3.293l4.494-8.689h10.474l2.944 5.691L33.8 198.882zm-.8 18.452v10.587h-7.3z" class="prefix__cls-3" data-name="Path 116" transform="translate(0 -142.407)"/>
            <path id="prefix__Path_117" d="M24.667 28.647h35.262a6.027 6.027 0 0 0 0-12.053H53.51v-.2a8.11 8.11 0 0 0-8.1-8.1q-.184 0-.368.008a10.176 10.176 0 0 0-20.178 1.87v2.27h-.2a8.1 8.1 0 1 0 0 16.2zm0-12.445h8.3a1.878 1.878 0 1 0 0-3.756h-4.348v-2.27a6.419 6.419 0 0 1 12.838 0c0 .094 0 .187-.007.279a1.878 1.878 0 0 0 2.505 1.845 4.346 4.346 0 0 1 5.8 4.094v2.074a1.878 1.878 0 0 0 1.878 1.878h8.3a2.27 2.27 0 0 1 0 4.541H24.667a4.345 4.345 0 0 1 0-8.689z" class="prefix__cls-3" data-name="Path 117" transform="translate(-13.169 -26.549)"/>
            <path id="prefix__Path_118" d="M304.227 45.214h35.263a8.1 8.1 0 1 0 0-16.2h-.2v-2.27a10.176 10.176 0 0 0-20.178-1.87q-.184-.008-.368-.008a8.11 8.11 0 0 0-8.1 8.1v.2h-6.419a6.026 6.026 0 1 0 0 12.053zm0-8.3h8.3a1.878 1.878 0 0 0 1.878-1.878v-2.071a4.346 4.346 0 0 1 5.8-4.094 1.878 1.878 0 0 0 2.505-1.849c0-.093-.007-.186-.007-.279a6.419 6.419 0 1 1 12.838 0v2.27h-4.345a1.878 1.878 0 0 0 0 3.756h8.3a4.345 4.345 0 1 1 0 8.689h-35.269a2.27 2.27 0 1 1 0-4.54z" class="prefix__cls-3" data-name="Path 118" transform="translate(-227.12 -59)"/>
        </g>
    </g>
</svg>
