<svg xmlns="http://www.w3.org/2000/svg" width="150" height="150" viewBox="0 0 150 150">
    <defs>
        <linearGradient id="prefix__linear-gradient" x1=".5" x2=".5" y2="1" gradientUnits="objectBoundingBox">
            <stop offset="0" stop-color="#423f90"/>
            <stop offset=".82" stop-color="#8d68a8"/>
            <stop offset="1" stop-color="#9d71ad"/>
        </linearGradient>
        <clipPath id="prefix__clip-path">
            <path id="prefix__Rectangle_21" d="M0 0H150V150H0z" data-name="Rectangle 21" transform="translate(454 1021)" style="fill:#fff"/>
        </clipPath>
        <style>
            .prefix__cls-3{fill:url(#prefix__linear-gradient)}
        </style>
    </defs>
    <g id="prefix__Mask_Group_14" data-name="Mask Group 14" transform="translate(-454 -1021)">
        <g id="prefix__Group_69" data-name="Group 69" transform="translate(-29 -28.667)">
            <g id="prefix__dashboard" transform="translate(507.25 1054.667)">
                <path id="prefix__Path_52" d="M110.065 76.713V32.432c6.6-1.1 11.685-7.68 11.685-15.626C121.75 8.093 115.635 1 108.117 1S94.484 8.093 94.484 16.806H1v90.323h58.527C60.54 126 74.065 141 90.589 141c17.182 0 31.161-16.208 31.161-36.129 0-11.378-4.571-21.531-11.685-28.158zm-1.948-71.2c5.369 0 9.738 5.065 9.738 11.29s-4.368 11.29-9.738 11.29-9.738-5.065-9.738-11.29 4.368-11.287 9.738-11.287zM4.9 21.323h90.158a16.87 16.87 0 0 0 2.156 4.934L85.3 40.067a4.951 4.951 0 0 0-5.007 0l-3.924-4.55a7.6 7.6 0 0 0 .584-2.9c0-3.735-2.621-6.774-5.843-6.774s-5.843 3.039-5.843 6.774a7.547 7.547 0 0 0 .586 2.9l-9.764 11.322a5.146 5.146 0 0 0-2.5-.677c-3.221 0-5.843 3.039-5.843 6.774s2.621 6.774 5.843 6.774 5.843-3.039 5.843-6.774a7.547 7.547 0 0 0-.586-2.9l9.762-11.326a4.958 4.958 0 0 0 5.007 0l3.924 4.55a7.6 7.6 0 0 0-.584 2.9c0 3.735 2.621 6.774 5.843 6.774s5.843-3.039 5.843-6.774a7.547 7.547 0 0 0-.586-2.9l11.913-13.81a12.629 12.629 0 0 0 6.2 2.985v41.2a27.753 27.753 0 0 0-15.581-4.891c-9.309 0-17.657 4.783-23.371 12.313V71H55.532v27.1H60a41.76 41.76 0 0 0-.469 4.516H4.9zM82.8 43.9a2.283 2.283 0 1 1-1.948 2.258A2.122 2.122 0 0 1 82.8 43.9zM69.165 32.613a1.969 1.969 0 1 1 1.948 2.258 2.122 2.122 0 0 1-1.948-2.258zM55.532 52.935a1.969 1.969 0 1 1-1.948-2.258 2.122 2.122 0 0 1 1.948 2.258zm35.056 70c-8.591 0-15.581-8.1-15.581-18.065S82 86.806 90.589 86.806s15.581 8.1 15.581 18.065-6.99 18.064-15.581 18.064zM63.323 87.418a39.034 39.034 0 0 0-2.316 6.162h-1.58V75.516h3.9zm25.318-14.045v9.032c-9.827 1.138-17.528 10.778-17.528 22.465a25.485 25.485 0 0 0 1.735 9.267l-6.756 4.523a35.509 35.509 0 0 1-2.769-13.79c0-16.669 11.193-30.333 25.319-31.5zm1.948 63.111c-9.376 0-17.661-5.516-22.569-13.9l6.783-4.541c3.541 5.686 9.288 9.407 15.785 9.407s12.244-3.721 15.785-9.407l6.783 4.541c-4.907 8.383-13.192 13.9-22.567 13.9zm24.5-17.823l-6.756-4.523a25.484 25.484 0 0 0 1.735-9.267c0-11.688-7.7-21.33-17.528-22.465v-9.033c14.126 1.165 25.319 14.829 25.319 31.5a35.508 35.508 0 0 1-2.769 13.79z" class="prefix__cls-3" data-name="Path 52" transform="translate(-1 -1)"/>
                <path id="prefix__Path_53" d="M54.1 41a13.1 13.1 0 1 0 13.1 13.1A13.11 13.11 0 0 0 54.1 41zm0 21.828a8.731 8.731 0 1 1 8.728-8.728 8.74 8.74 0 0 1-8.728 8.728z" class="prefix__cls-3" data-name="Path 53" transform="translate(34.645 50.045)"/>
                <path id="prefix__Path_54" d="M5 12h4.366v4.366H5z" class="prefix__cls-3" data-name="Path 54" transform="translate(3.731 12.866)"/>
                <path id="prefix__Path_55" d="M9 12h30.559v4.366H9z" class="prefix__cls-3" data-name="Path 55" transform="translate(8.462 12.866)"/>
                <path id="prefix__Path_56" d="M5 16h4.366v4.366H5z" class="prefix__cls-3" data-name="Path 56" transform="translate(3.731 17.909)"/>
                <path id="prefix__Path_57" d="M9 16h30.559v4.366H9z" class="prefix__cls-3" data-name="Path 57" transform="translate(8.462 17.909)"/>
                <path id="prefix__Path_58" d="M5 20h4.366v4.366H5z" class="prefix__cls-3" data-name="Path 58" transform="translate(3.731 22.951)"/>
                <path id="prefix__Path_59" d="M9 20h30.559v4.366H9z" class="prefix__cls-3" data-name="Path 59" transform="translate(8.462 22.951)"/>
                <path id="prefix__Path_60" d="M5 24h4.366v4.366H5z" class="prefix__cls-3" data-name="Path 60" transform="translate(3.731 27.993)"/>
                <path id="prefix__Path_61" d="M9 24h30.559v4.366H9z" class="prefix__cls-3" data-name="Path 61" transform="translate(8.462 27.993)"/>
                <path id="prefix__Path_62" d="M5 55.828h13.1V34H5zm4.366-17.462h4.366v13.1H9.366z" class="prefix__cls-3" data-name="Path 62" transform="translate(3.731 40.994)"/>
                <path id="prefix__Path_63" d="M13 53.462h13.1V36H13zm4.366-13.1h4.366V49.1h-4.366z" class="prefix__cls-3" data-name="Path 63" transform="translate(10.069 43.423)"/>
                <path id="prefix__Path_64" d="M21 62.925h13.1V28H21zm4.366-30.559h4.366v26.193h-4.366z" class="prefix__cls-3" data-name="Path 64" transform="translate(17.448 33.675)"/>
            </g>
            <g id="prefix__Group_33" data-name="Group 33" transform="translate(488 1141)">
                <g id="prefix__Group_32" data-name="Group 32">
                    <g id="prefix__Group_31" data-name="Group 31" transform="translate(5.47 5.25)">
                        <g id="prefix__Group_30" data-name="Group 30">
                            <path id="prefix__Rectangle_23" d="M0 0H33.701V4.349H0z" class="prefix__cls-3" data-name="Rectangle 23" transform="rotate(45 1.538 3.712)"/>
                            <path id="prefix__Rectangle_24" d="M0 0H33.701V4.349H0z" class="prefix__cls-3" data-name="Rectangle 24" transform="rotate(-45 28.765 11.915)"/>
                        </g>
                    </g>
                    <g id="prefix__Ellipse_4" data-name="Ellipse 4" style="stroke:#745ba0;stroke-miterlimit:10;stroke-width:3px;fill:none">
                        <circle cx="19.25" cy="19.25" r="19.25" style="stroke:none"/>
                        <circle cx="19.25" cy="19.25" r="17.75" style="fill:none"/>
                    </g>
                </g>
            </g>
        </g>
    </g>
</svg>
