<svg xmlns="http://www.w3.org/2000/svg" width="150" height="150" viewBox="0 0 150 150">
    <defs>
        <linearGradient id="prefix__linear-gradient" x1=".5" x2=".5" y2="1" gradientUnits="objectBoundingBox">
            <stop offset="0" stop-color="#423f90"/>
            <stop offset="1" stop-color="#9d71ad"/>
        </linearGradient>
        <clipPath id="prefix__clip-path">
            <path id="prefix__Rectangle_19" d="M0 0H150V150H0z" data-name="Rectangle 19" transform="translate(993 1022)" style="fill:#fff"/>
        </clipPath>
        <style>
            .prefix__cls-3{fill:#ffffff}
        </style>
    </defs>
    <g id="prefix__Mask_Group_16" data-name="Mask Group 16" transform="translate(-993 -1022)">
        <g id="prefix__Out_line" data-name="Out line" transform="translate(982 1011)">
            <path id="prefix__Path_65" d="M148.373 240.746v-22.684a2.062 2.062 0 0 0-2.062-2.062h-8.249a2.062 2.062 0 0 0-2.062 2.062v22.684h4.124v-20.622h4.124v20.621z" class="prefix__cls-3" data-name="Path 65" transform="translate(-84.435 -139.972)"/>
            <path id="prefix__Path_66" d="M276.373 254.932v-28.87a2.062 2.062 0 0 0-2.062-2.062h-8.249a2.062 2.062 0 0 0-2.062 2.062v28.87h4.124v-26.808h4.124v26.808z" class="prefix__cls-3" data-name="Path 66" transform="translate(-174.5 -144.983)"/>
            <path id="prefix__Path_67" d="M212.373 231.181v-37.119a2.062 2.062 0 0 0-2.062-2.062h-8.249a2.062 2.062 0 0 0-2.062 2.062v32.994h4.124v-30.932h4.124v35.056z" class="prefix__cls-3" data-name="Path 67" transform="translate(-129.467 -121.902)"/>
            <path id="prefix__Path_68" d="M340.373 214.683v-20.621a2.062 2.062 0 0 0-2.062-2.062h-8.249a2.062 2.062 0 0 0-2.062 2.062v22.684h4.124v-20.622h4.124v18.559z" class="prefix__cls-3" data-name="Path 68" transform="translate(-219.532 -123.175)"/>
            <path id="prefix__Path_69" d="M404.373 176.994v-30.932a2.062 2.062 0 0 0-2.062-2.062h-8.248a2.062 2.062 0 0 0-2.063 2.062v30.932h4.124v-28.87h4.124v28.87z" class="prefix__cls-3" data-name="Path 69" transform="translate(-262.455 -89.089)"/>
            <path id="prefix__Path_70" d="M118.79 62.825a2.062 2.062 0 0 0 2.917 0L138.729 45.8l17.105 19.006a2.062 2.062 0 0 0 1.479.682h.054a2.062 2.062 0 0 0 1.458-.6l27.412-27.412v5.332a2.062 2.062 0 0 0 2.063 2.062h8.249a2.062 2.062 0 0 0 2.062-2.062V18.062A2.062 2.062 0 0 0 196.547 16H171.8a2.062 2.062 0 0 0-2.062 2.062v8.249a2.062 2.062 0 0 0 2.062 2.062h5.332l-19.687 19.688-17.105-19.006a2.062 2.062 0 0 0-2.991-.079L112.6 53.722a2.062 2.062 0 0 0 0 2.916zm19.939-29.4l17.105 19.006a2.062 2.062 0 0 0 2.991.079l24.745-24.741a2.062 2.062 0 0 0-1.458-3.52h-8.249v-4.125h20.621v20.622h-4.124V32.5a2.062 2.062 0 0 0-3.52-1.458l-29.395 29.4-17.105-19.014a2.062 2.062 0 0 0-1.479-.682h-.054a2.062 2.062 0 0 0-1.458.6l-17.1 17.1-3.27-3.27z" class="prefix__cls-3" data-name="Path 70" transform="translate(-54.629)"/>
            <path id="prefix__Path_71" d="M37.06 339.171v-4.124h7.02a2.214 2.214 0 0 0 2.34-2.062v-5.4c23.215 18.779 59.1 18.1 81.381-1.534l25.574-22.536a7.218 7.218 0 0 0 .727-10.442 9.784 9.784 0 0 0-11.672-1.91 9.441 9.441 0 0 0-7.356-3.67 9.614 9.614 0 0 0-7.617 3.231l-.992 1.173a10.357 10.357 0 0 0-1.622-.895 11.282 11.282 0 0 0-7.861-.422 9.668 9.668 0 0 0-5.789 4.706l-5.9 11.552a11.718 11.718 0 0 0-3.885-.657H73.129l-3.994-3.52a20.864 20.864 0 0 0-22.715-2.684v-2.044a2.214 2.214 0 0 0-2.34-2.062h-7.02V293.8a2.214 2.214 0 0 0-2.34-2.062H16v4.124h16.38v41.243H16v4.124h18.72a2.214 2.214 0 0 0 2.34-2.058zm100-47a4.1 4.1 0 0 1 1.792 1.815l-18.567 16.362a39.464 39.464 0 0 1-8.343 5.625l19.271-22.784a4.825 4.825 0 0 1 5.844-1.022zm-21.6 4.807a5.163 5.163 0 0 1 3.092-2.513 6.025 6.025 0 0 1 4.2.225 5.522 5.522 0 0 1 .917.514l-13.169 15.57a9.5 9.5 0 0 0-1.29-1.55zm-49.636 8.6l4.68 4.124a2.509 2.509 0 0 0 1.655.6h29.25c3.231 0 5.85 2.308 5.85 5.155s-2.619 5.155-5.85 5.155H72.16v4.124h29.25a11.2 11.2 0 0 0 7.71-2.969 45.015 45.015 0 0 0 14.471-8.507l20.423-18a4.7 4.7 0 0 1 6.052 0 3.463 3.463 0 0 1 0 5.333l-25.574 22.536c-21.148 18.636-55.436 18.636-76.584 0l-1.488-1.312v-16.806a15.649 15.649 0 0 1 19.405.561zM41.74 299.99v30.932h-4.68V299.99z" class="prefix__cls-3" data-name="Path 71" transform="translate(0 -185.233)"/>
        </g>
    </g>
</svg>
