<svg xmlns="http://www.w3.org/2000/svg" width="150" height="150" viewBox="0 0 150 150">
    <defs>
        <linearGradient id="prefix__linear-gradient" x1=".5" x2=".5" y2="1" gradientUnits="objectBoundingBox">
            <stop offset="0" stop-color="#423f90"/>
            <stop offset="1" stop-color="#9d71ad"/>
        </linearGradient>
        <clipPath id="prefix__clip-path">
            <path id="prefix__Rectangle_33" d="M0 0H150V150H0z" data-name="Rectangle 33" transform="translate(454 1631)" style="fill:#fff"/>
        </clipPath>
        <style>
            .prefix__cls-3{fill:#ffffff;}
        </style>
    </defs>
    <g id="prefix__Mask_Group_22" data-name="Mask Group 22" transform="translate(-454 -1631)">
        <g id="prefix__Outline" transform="translate(443.004 1620)">
            <path id="prefix__Path_104" d="M76.657 116.9l3.3-3.341-26.329-26.684 65.272-66.15h38.665v9.45H152.5a6.983 6.983 0 0 0-7.776-4.623 7.1 7.1 0 0 0 0 13.971A6.983 6.983 0 0 0 152.5 34.9h5.063v25.009l-45.942 46.558 3.3 3.341 46.625-47.25a2.379 2.379 0 0 0 .683-1.671V49.075h6.994a9.451 9.451 0 0 0 0-18.9h-6.993V18.363A2.347 2.347 0 0 0 159.9 16h-41.963a2.316 2.316 0 0 0-1.649.692L48.683 85.2a2.385 2.385 0 0 0 0 3.341zm66.923-84.362a2.35 2.35 0 0 1 2.331-2.363V34.9a2.35 2.35 0 0 1-2.331-2.363zm25.644 2.362a4.725 4.725 0 0 1 0 9.45h-6.994V34.9z" class="prefix__cls-3" data-name="Path 104" transform="translate(-22.553)"/>
            <path id="prefix__Path_105" d="M232.323 107.716a7.531 7.531 0 0 0 4.82 4.9 7.328 7.328 0 0 0 3.023 5.726 7.78 7.78 0 0 0 6.932 1.246 7.881 7.881 0 0 0 12.274 0 7.781 7.781 0 0 0 6.932-1.246 7.328 7.328 0 0 0 3.023-5.726 7.531 7.531 0 0 0 4.82-4.9 7.226 7.226 0 0 0-.982-6.454 7.226 7.226 0 0 0 .982-6.454 7.531 7.531 0 0 0-4.82-4.9 7.328 7.328 0 0 0-3.023-5.726 7.78 7.78 0 0 0-6.932-1.246 7.881 7.881 0 0 0-12.274 0 7.781 7.781 0 0 0-6.932 1.246 7.329 7.329 0 0 0-3.023 5.726 7.531 7.531 0 0 0-4.82 4.9 7.226 7.226 0 0 0 .982 6.454 7.226 7.226 0 0 0-.982 6.454zm5.647-8.424a2.607 2.607 0 0 1-1.141-3.062 2.863 2.863 0 0 1 2.939-2 2.362 2.362 0 0 0 2.28-3.179 2.619 2.619 0 0 1 .952-3.085 3.014 3.014 0 0 1 3.709-.012 2.362 2.362 0 0 0 3.668-1.207 3.034 3.034 0 0 1 5.721 0 2.362 2.362 0 0 0 3.668 1.207 3.012 3.012 0 0 1 3.709.012 2.619 2.619 0 0 1 .949 3.082 2.362 2.362 0 0 0 2.28 3.179 2.869 2.869 0 0 1 2.939 2 2.607 2.607 0 0 1-1.141 3.062 2.363 2.363 0 0 0 0 3.941 2.607 2.607 0 0 1 1.141 3.062 2.865 2.865 0 0 1-2.939 2 2.362 2.362 0 0 0-2.28 3.179 2.619 2.619 0 0 1-.949 3.082 3.014 3.014 0 0 1-3.709.012 2.362 2.362 0 0 0-3.668 1.207 3.034 3.034 0 0 1-5.721 0 2.362 2.362 0 0 0-3.668-1.207 3.015 3.015 0 0 1-3.709-.005 2.619 2.619 0 0 1-.949-3.082 2.362 2.362 0 0 0-2.28-3.179 2.86 2.86 0 0 1-2.939-2 2.607 2.607 0 0 1 1.141-3.062 2.363 2.363 0 0 0 0-3.941z" class="prefix__cls-3" data-name="Path 105" transform="translate(-153.314 -45.1)"/>
            <path id="prefix__Rectangle_35" d="M0 0H20.046V4.725H0z" class="prefix__cls-3" data-name="Rectangle 35" transform="rotate(-45 123.548 -2.058)"/>
            <path id="prefix__Rectangle_36" d="M0 0H20.046V4.725H0z" class="prefix__cls-3" data-name="Rectangle 36" transform="rotate(-45 135.476 -7)"/>
            <path id="prefix__Rectangle_37" d="M0 0H20.046V4.725H0z" class="prefix__cls-3" data-name="Rectangle 37" transform="rotate(-45 147.405 -11.94)"/>
            <path id="prefix__Rectangle_38" d="M0 0H20.046V4.725H0z" class="prefix__cls-3" data-name="Rectangle 38" transform="rotate(-45 159.334 -16.881)"/>
            <path id="prefix__Rectangle_39" d="M0 0H10.023V4.725H0z" class="prefix__cls-3" data-name="Rectangle 39" transform="rotate(-45 166.302 -33.821)"/>
            <path id="prefix__Rectangle_40" d="M0 0H4.725V8.144H0z" class="prefix__cls-3" data-name="Rectangle 40" transform="rotate(-45 110.458 -47.071)"/>
            <path id="prefix__Rectangle_41" d="M0 0H4.725V20.882H0z" class="prefix__cls-3" data-name="Rectangle 41" transform="rotate(-45 125.292 -53.21)"/>
            <path id="prefix__Path_106" d="M97.79 32.468a13.848 13.848 0 0 1 10.094 10.093 2.362 2.362 0 0 0 4.584 0 13.848 13.848 0 0 1 10.094-10.093 2.363 2.363 0 0 0 0-4.584 13.848 13.848 0 0 1-10.094-10.094 2.362 2.362 0 0 0-4.584 0A13.848 13.848 0 0 1 97.79 27.884a2.363 2.363 0 0 0 0 4.584zm12.385-8.145a18.542 18.542 0 0 0 5.853 5.853 18.542 18.542 0 0 0-5.853 5.853 18.542 18.542 0 0 0-5.853-5.853 18.542 18.542 0 0 0 5.854-5.853z" class="prefix__cls-3" data-name="Path 106" transform="translate(-56.744 -.001)"/>
            <path id="prefix__Rectangle_42" d="M0 0H25.197V4.725H0z" class="prefix__cls-3" data-name="Rectangle 42" transform="rotate(-45 173.717 -83.335)"/>
            <path id="prefix__Rectangle_43" d="M0 0H6.682V4.725H0z" class="prefix__cls-3" data-name="Rectangle 43" transform="rotate(-45 158.738 -119.088)"/>
            <path id="prefix__Path_107" d="M153.662 330.362h-21a2.348 2.348 0 0 0-2.333 2.362v2.239a36.221 36.221 0 0 0-39.3-2.2l-4.087 2.328H67.33a11.643 11.643 0 0 0-10.319 6.3 11.933 11.933 0 0 0 .69 12.179l-24.887-12.526a10.9 10.9 0 0 0-4.786-1.157l-1-.008a10.972 10.972 0 0 0-10.728 8.495 11.127 11.127 0 0 0 5.748 12.5l28.631 14.5a20.89 20.89 0 0 0 9.392 2.244h93.592A2.348 2.348 0 0 0 156 375.25v-42.525a2.348 2.348 0 0 0-2.338-2.363zm-100.9 40.779l-28.628-14.494a6.383 6.383 0 0 1-3.3-7.146 6.3 6.3 0 0 1 6.109-4.9h.049l1 .008a6.255 6.255 0 0 1 2.745.664l26.221 13.19a2.312 2.312 0 0 0 1.038.247h30.333a2.363 2.363 0 0 0 0-4.725h-21a7.088 7.088 0 0 1 0-14.175h20.223a2.31 2.31 0 0 0 1.144-.3l4.62-2.631a31.619 31.619 0 0 1 35.611 2.935l1.4 1.135v31.94H60.07a16.25 16.25 0 0 1-7.305-1.748zm98.564 1.746H135v-37.8h16.333z" class="prefix__cls-3" data-name="Path 107" transform="translate(0 -221.612)"/>
            <path id="prefix__Path_108" d="M443.544 439.087a3.544 3.544 0 1 0-3.544-3.543 3.544 3.544 0 0 0 3.544 3.543z" class="prefix__cls-3" data-name="Path 108" transform="translate(-300.542 -294.9)"/>
            <path id="prefix__Rectangle_44" d="M0 0H4.725V26.729H0z" class="prefix__cls-3" data-name="Rectangle 44" transform="rotate(-45 119.255 -36.741)"/>
        </g>
    </g>
</svg>
