<svg xmlns="http://www.w3.org/2000/svg" width="150" height="150" viewBox="0 0 150 150">
    <defs>
        <linearGradient id="prefix__linear-gradient" x1=".5" x2=".5" y2="1" gradientUnits="objectBoundingBox">
            <stop offset="0" stop-color="#423f90"/>
            <stop offset="1" stop-color="#9d71ad"/>
        </linearGradient>
        <clipPath id="prefix__clip-path">
            <path id="prefix__Rectangle_13" d="M0 0H150V150H0z" data-name="Rectangle 13" transform="translate(724 427)" style="fill:#fff"/>
        </clipPath>
        <style>
            .prefix__cls-3{fill:#ffffff;}
        </style>
    </defs>
    <g id="prefix__Mask_Group_7" data-name="Mask Group 7" transform="translate(-724 -427)">
        <g id="prefix__stamp" transform="translate(729.01 431.992)">
            <path id="prefix__Path_14" d="M394.953 56.07V34.2a2.188 2.188 0 0 0-2.187-2.187h-8.75v4.375h6.563V56.07zm0 0" class="prefix__cls-3" data-name="Path 14" transform="translate(-270.276 -23.25)"/>
            <path id="prefix__Path_15" d="M56.016 240.008V294.7a2.188 2.188 0 0 0 2.188 2.187h87.5a2.188 2.188 0 0 0 2.187-2.187v-15.317h-4.375v13.125H60.391v-52.5zm0 0" class="prefix__cls-3" data-name="Path 15" transform="translate(-40.706 -165.625)"/>
            <path id="prefix__Path_16" d="M126.921.227c-.068-.031-.134-.048-.2-.073a2.175 2.175 0 0 0-.566-.113.835.835 0 0 0-.136-.033H58.2A2.188 2.188 0 0 0 56.016 2.2v4.37h4.374V4.383h63.437v17.5a2.188 2.188 0 0 0 2.187 2.187h17.5v10.938h4.375V21.883c0-.046-.023-.088-.027-.136a2.131 2.131 0 0 0-.113-.566c-.025-.07-.042-.136-.073-.2a2.173 2.173 0 0 0-.437-.641L127.553.649a2.191 2.191 0 0 0-.632-.422zm13.5 19.469H128.2V7.476zm0 0" class="prefix__cls-3" data-name="Path 16" transform="translate(-40.706)"/>
            <path id="prefix__Path_17" d="M184.016 330.2v17.5a2.188 2.188 0 0 0 2.187 2.187h28.437v-4.375h-26.25v-13.129h10.938v-4.375H186.2a2.188 2.188 0 0 0-2.184 2.192zm0 0" class="prefix__cls-3" data-name="Path 17" transform="translate(-129.335 -231.138)"/>
            <path id="prefix__Path_18" d="M216.016 360.008h13.125v4.375h-13.125zm0 0" class="prefix__cls-3" data-name="Path 18" transform="translate(-152.585 -254.774)"/>
            <path id="prefix__Path_19" d="M185.7 136.008a15.332 15.332 0 0 0-15.312 15.313v.219l-11.156 11.777-6.984-6.984a2.187 2.187 0 0 0-3.093 0l-19.686 19.687a2.189 2.189 0 0 0 0 3.093l30.625 30.625a2.189 2.189 0 0 0 3.093 0l6.563-6.562 11.578-11.576v34.1H96.016v4.375h87.5a2.188 2.188 0 0 0 2.187-2.188v-52.5h-4.375v10.032l-7.628-7.629 11.781-11.156h.219a15.312 15.312 0 1 0 0-30.625zM161.641 205.1l-27.532-27.53 3.469-3.469 27.532 27.532zm16.594-16.594L168.2 198.54l-27.532-27.532 10.032-10.032 5.521 5.521-4.921 5.193a2.188 2.188 0 0 0 .042 3.062l10.937 10.938a2.187 2.187 0 0 0 3.049.042l5.2-4.922zm7.468-26.25h-1.093a2.191 2.191 0 0 0-1.5.6l-19.24 18.215-7.917-7.917 18.222-19.235a2.187 2.187 0 0 0 .591-1.5v-1.094a10.938 10.938 0 1 1 10.934 10.933zm0 0" class="prefix__cls-3" data-name="Path 19" transform="translate(-61.026 -90.063)"/>
            <path id="prefix__Path_20" d="M152.016 232.008h21.875v4.375h-21.875zm0 0" class="prefix__cls-3" data-name="Path 20" transform="translate(-107.134 -164.188)"/>
            <path id="prefix__Path_21" d="M104.016 264.008h26.25v4.375h-26.25zm0 0" class="prefix__cls-3" data-name="Path 21" transform="translate(-73.213 -186.834)"/>
            <path id="prefix__Path_22" d="M176.016 200.008h26.25v4.375h-26.25zm0 0" class="prefix__cls-3" data-name="Path 22" transform="translate(-123.887 -141.541)"/>
            <path id="prefix__Path_23" d="M104.016 296.008h13.125v4.375h-13.125zm0 0" class="prefix__cls-3" data-name="Path 23" transform="translate(-73.477 -209.481)"/>
            <path id="prefix__Path_24" d="M104.016 328.008h17.5v4.375h-17.5zm0 0" class="prefix__cls-3" data-name="Path 24" transform="translate(-73.396 -232.127)"/>
            <path id="prefix__Path_25" d="M104.016 360.008h17.5v4.375h-17.5zm0 0" class="prefix__cls-3" data-name="Path 25" transform="translate(-73.396 -254.774)"/>
            <path id="prefix__Path_26" d="M104.016 392.008h17.5v4.375h-17.5zm0 0" class="prefix__cls-3" data-name="Path 26" transform="translate(-73.396 -276.063)"/>
            <path id="prefix__Path_27" d="M104.016 232.008h8.75v4.375h-8.75zm0 0" class="prefix__cls-3" data-name="Path 27" transform="translate(-73.552 -164.188)"/>
            <path id="prefix__Path_28" d="M168.016 296.008h8.75v4.375h-8.75zm0 0" class="prefix__cls-3" data-name="Path 28" transform="translate(-118.803 -209.481)"/>
            <path id="prefix__Path_29" d="M200.016 160.008h21.875v4.375h-21.875zm0 0" class="prefix__cls-3" data-name="Path 29" transform="translate(-140.96 -113.233)"/>
            <path id="prefix__Path_30" d="M26.247 84.5a26.251 26.251 0 0 0 26.2-25.331 5.783 5.783 0 0 0 4.241 1.326 5.933 5.933 0 0 0 9.109 0 5.934 5.934 0 0 0 6.44-6.44 5.933 5.933 0 0 0 0-9.109A5.934 5.934 0 0 0 65.8 38.5a5.933 5.933 0 0 0-9.109 0 5.934 5.934 0 0 0-6.44 6.44 5.68 5.68 0 0 0-.875.9A26.25 26.25 0 1 0 26.247 84.5zm27.269-36.446a2.186 2.186 0 0 0 1.243-3A1.531 1.531 0 0 1 56.8 43.01a2.186 2.186 0 0 0 3-1.243 1.532 1.532 0 0 1 2.888 0 2.187 2.187 0 0 0 3 1.243 1.53 1.53 0 0 1 2.044 2.045 2.186 2.186 0 0 0 1.243 3 1.532 1.532 0 0 1 0 2.888 2.187 2.187 0 0 0-1.243 3 1.472 1.472 0 0 1-.3 1.75 1.489 1.489 0 0 1-1.751.3 2.187 2.187 0 0 0-3 1.242 1.532 1.532 0 0 1-2.888 0 2.182 2.182 0 0 0-1.225-1.288 2.23 2.23 0 0 0-.837-.167 2.142 2.142 0 0 0-.931.22 1.531 1.531 0 0 1-2.044-2.045 2.188 2.188 0 0 0-1.243-3 1.531 1.531 0 0 1 0-2.887zM26.247 36.373A21.875 21.875 0 1 1 4.372 58.248a21.875 21.875 0 0 1 21.875-21.875zm0 0" class="prefix__cls-3" data-name="Path 30" transform="translate(0 -23.24)"/>
            <path id="prefix__Path_31" d="M40.922 107.32a2.189 2.189 0 0 0 3.093 0L65.89 85.445l-3.09-3.093-20.332 20.328-5.016-5.016-3.093 3.093zm0 0" class="prefix__cls-3" data-name="Path 31" transform="translate(-24.972 -57.963)"/>
        </g>
    </g>
</svg>
