<svg xmlns="http://www.w3.org/2000/svg" width="150" height="150" viewBox="0 0 150 150">
    <defs>
        <linearGradient id="prefix__linear-gradient" x1=".5" x2=".5" y2="1" gradientUnits="objectBoundingBox">
            <stop offset="0" stop-color="#423f90"/>
            <stop offset="1" stop-color="#9d71ad"/>
        </linearGradient>
        <clipPath id="prefix__clip-path">
            <path id="prefix__Rectangle_22" d="M0 0H150V150H0z" data-name="Rectangle 22" transform="translate(185 1028)" style="fill:#fff"/>
        </clipPath>
        <style>
            .prefix__cls-3{fill:url(#prefix__linear-gradient)}
        </style>
    </defs>
    <g id="prefix__Mask_Group_13" data-name="Mask Group 13" transform="translate(-185 -1028)">
        <g id="prefix__product" transform="translate(190 1032.899)">
            <path id="prefix__Path_50" d="M139.685 100.081a9.8 9.8 0 0 0-7.568-7.655V31.8h4.636a2.5 2.5 0 0 0 2.318-2.642V2.743A2.5 2.5 0 0 0 136.753.1H34.768a2.5 2.5 0 0 0-2.318 2.643v26.415a2.5 2.5 0 0 0 2.318 2.642H39.4v52.83h-2.315a27.253 27.253 0 0 0-16.225 5.412V76.705a2.5 2.5 0 0 0-2.318-2.642H2.318A2.5 2.5 0 0 0 0 76.705v60.755a2.5 2.5 0 0 0 2.318 2.64h16.225a2.5 2.5 0 0 0 2.318-2.642v-13.333a27.28 27.28 0 0 0 16.225 5.411h38.058a27.02 27.02 0 0 0 7.809-1.174l50.183-15.32c4.938-1.534 7.863-7.322 6.548-12.96zm-102.6-94.7h97.35v21.135h-97.35zM44.039 31.8h83.443v61.08l-26.9 8.221a9.822 9.822 0 0 0-6.131-6.134l-31.232-9.546a18.642 18.642 0 0 0-5.388-.792H44.039zM16.225 134.818H4.636V79.347h11.589zm115.709-26.881l-50.174 15.32a22.839 22.839 0 0 1-6.615.994h-38.06a23.354 23.354 0 0 1-15.3-5.812l-.927-.792V96.516l.927-.793a23.339 23.339 0 0 1 15.3-5.811h20.746a14.5 14.5 0 0 1 4.2.62l31.221 9.538a5.18 5.18 0 0 1 3.405 4.549 2.841 2.841 0 0 0 .093.32 2.927 2.927 0 0 0-.061.346 5.091 5.091 0 0 1-.153 1.27 4.781 4.781 0 0 1-4.468 3.907 4.045 4.045 0 0 1-1.208-.174l-19.7-6.021a2.125 2.125 0 0 0-2.285.647 2.9 2.9 0 0 0-.61 2.591 2.484 2.484 0 0 0 1.694 1.862l19.7 6.023a8.341 8.341 0 0 0 2.413.353c4.167 0 7.819-3.179 8.921-7.761a10.659 10.659 0 0 0 .263-1.619l28.257-8.635c.2-.058.42-.117.626-.156a4.691 4.691 0 0 1 5.074 3.885 5.844 5.844 0 0 1 .153 1.368 5.219 5.219 0 0 1-3.428 5.109zm0 0" class="prefix__cls-3" data-name="Path 50"/>
            <path id="prefix__Path_51" d="M250.08 116.262h20.8a2.08 2.08 0 0 0 0-4.16h-20.8a2.08 2.08 0 1 0 0 4.16zm0 0" class="prefix__cls-3" data-name="Path 51" transform="translate(-174.32 -74.711)"/>
        </g>
    </g>
</svg>
