<?xml version="1.0" standalone="no"?>
<!DOCTYPE svg PUBLIC "-//W3C//DTD SVG 1.1//EN" "http://www.w3.org/Graphics/SVG/1.1/DTD/svg11.dtd" >
<svg>
<metadata>
Created by FontForge 20120731 at Mon Jul  1 12:26:57 2019
 By www
Copyright (c) 1985, 1987, 1989, 1990 Adobe Systems Incorporated.  All Rights Reserved.Palatino is a trademark of Linotype AG and/or its subsidiaries.
</metadata>
<defs>
<font id="Palatino-Bold" horiz-adv-x="500" >
  <font-face 
    font-family="Palatino"
    font-weight="700"
    font-stretch="normal"
    units-per-em="1000"
    panose-1="0 0 0 0 0 0 0 0 0 0"
    ascent="800"
    descent="-200"
    x-height="459"
    cap-height="681"
    bbox="-152 -266 1000 924"
    underline-thickness="50"
    underline-position="-75"
    stemv="122"
    unicode-range="U+0020-FB02"
  />
<missing-glyph horiz-adv-x="250" 
 />
    <glyph glyph-name=".notdef" horiz-adv-x="250" 
 />
    <glyph glyph-name="space" unicode=" " horiz-adv-x="250" 
 />
    <glyph glyph-name="exclam" unicode="!" horiz-adv-x="278" 
d="M141 144c41 0 78 -37 78 -80c0 -38 -36 -76 -78 -76c-41 0 -78 34 -78 76s37 80 78 80zM168 688h51c0 -36 -3 -68 -7 -96l-50 -372l-38 -21l-5 8l-47 358c-3 26 -3 50 -4 79z" />
    <glyph glyph-name="quotedbl" unicode="&#x22;" horiz-adv-x="402" 
d="M113 376h-46l-44 239c-7 36 27 80 67 80s74 -44 67 -80zM335 376h-46l-44 239c-7 36 27 80 67 80s74 -44 67 -80z" />
    <glyph glyph-name="numbersign" unicode="#" 
d="M470 290v-75h-105l-32 -215h-75l32 215h-108l-32 -215h-75l32 215h-103v75h115l16 107h-103v75h114l30 201h75l-30 -201h107l29 201h75l-29 -201h93v-75h-104l-16 -107h94zM317 397h-107l-16 -107h107z" />
    <glyph glyph-name="dollar" unicode="$" 
d="M221 37v240c-120 14 -193 53 -193 184c0 117 69 184 193 207l-2 53h50l-2 -53c56 0 115 -10 165 -33l2 -7c-11 -39 -14 -91 -14 -140h-39c1 34 -1 64 -7 80c-7 20 -66 46 -107 46v-212c118 -20 205 -55 205 -188c0 -122 -83 -216 -205 -227l2 -101h-51l3 97
c-65 2 -133 13 -188 40l-3 9c5 45 7 82 9 149h40l1 -40c0 -18 3 -35 11 -48c13 -21 75 -56 130 -56zM267 267v-227c57 13 98 61 98 120c0 61 -37 100 -98 107zM221 408v206c-37 0 -91 -39 -91 -110c0 -54 37 -90 91 -96z" />
    <glyph glyph-name="percent" unicode="%" horiz-adv-x="889" 
d="M224 700c95 0 163 -68 163 -166c0 -97 -77 -162 -163 -162s-163 65 -163 162c0 98 68 166 163 166zM224 668c-25 0 -63 -14 -63 -129c0 -109 27 -135 63 -135s63 26 63 135c0 115 -38 129 -63 129zM665 328c95 0 163 -68 163 -166c0 -97 -77 -162 -163 -162
s-163 65 -163 162c0 98 68 166 163 166zM665 296c-25 0 -63 -14 -63 -129c0 -109 27 -135 63 -135s63 26 63 135c0 115 -38 129 -63 129zM283 -9h-49l366 723h49z" />
    <glyph glyph-name="ampersand" unicode="&#x26;" horiz-adv-x="833" 
d="M350 53c32 0 65 10 91 30c-89 76 -157 152 -219 253c-37 -34 -51 -60 -51 -105c0 -95 85 -178 179 -178zM332 622c-50 0 -67 -35 -67 -80c0 -40 18 -80 34 -116c44 28 91 73 91 130c0 35 -20 66 -58 66zM537 328h-90c9 17 25 46 29 66l118 -4c62 -2 116 0 194 5l3 -9
c-8 -18 -17 -48 -20 -70c-47 5 -106 7 -141 7c12 -63 -10 -125 -62 -190c42 -29 100 -49 152 -49c26 0 40 13 62 27l17 11l14 -32c-35 -29 -73 -68 -93 -99l-66 -3c-61 -3 -123 25 -171 65c-56 -45 -127 -70 -199 -70c-119 0 -232 64 -232 194c0 101 72 155 155 196
c-21 50 -33 90 -33 131c0 30 6 56 51 104l35 38c28 30 72 38 107 38c64 0 110 -40 110 -106c0 -91 -90 -149 -158 -193c57 -86 126 -162 206 -227c17 25 32 58 32 90c0 25 -7 55 -20 80z" />
    <glyph glyph-name="quoteright" unicode="&#x2019;" horiz-adv-x="278" 
d="M109 432l-66 -27l-14 16c27 59 63 165 74 241c45 5 97 18 132 33l14 -13c-27 -62 -89 -172 -140 -250z" />
    <glyph glyph-name="parenleft" unicode="(" horiz-adv-x="333" 
d="M279 723l26 -22c-101 -112 -107 -258 -107 -402c0 -138 6 -263 107 -379l-24 -24c-143 100 -216 233 -216 410c0 179 71 311 214 417z" />
    <glyph glyph-name="parenright" unicode=")" horiz-adv-x="333" 
d="M28 701l26 22c143 -106 214 -238 214 -417c0 -177 -73 -310 -216 -410l-24 24c101 116 107 241 107 379c0 144 -6 290 -107 402z" />
    <glyph glyph-name="asterisk" unicode="*" horiz-adv-x="444" 
d="M319 673l5 -14c-26 -25 -60 -81 -82 -127c48 10 114 20 141 31l6 -3c-3 -26 1 -58 10 -87l-9 -11c-48 20 -106 30 -154 34c24 -38 44 -78 80 -118l-2 -12c-24 -4 -64 -22 -85 -34l-15 7c0 39 -2 91 -11 145c-29 -20 -75 -68 -101 -105l-19 8c-9 27 -27 57 -39 70l4 7
c42 10 96 32 137 53c-39 27 -101 49 -138 59l-3 7c16 25 34 55 44 77h16c32 -37 63 -75 102 -114c10 50 14 102 13 142l8 7c30 -11 60 -18 92 -22z" />
    <glyph glyph-name="plus" unicode="+" horiz-adv-x="606" 
d="M260 298v207h86v-207h209v-86h-209v-212h-86v212h-209v86h209z" />
    <glyph glyph-name="comma" unicode="," horiz-adv-x="250" 
d="M80 -136l-71 -30l-15 13c46 91 78 203 82 256c36 9 88 23 134 38l17 -16c-40 -88 -90 -170 -147 -261z" />
    <glyph glyph-name="hyphen" unicode="-" horiz-adv-x="333" 
d="M50 305h258l9 -10c-11 -25 -27 -68 -32 -100h-261l-8 8c12 37 28 77 34 102z" />
    <glyph glyph-name="period" unicode="." horiz-adv-x="250" 
d="M125 144c41 0 78 -37 78 -80c0 -38 -36 -76 -78 -76c-41 0 -78 34 -78 76s37 80 78 80z" />
    <glyph glyph-name="slash" unicode="/" horiz-adv-x="296" 
d="M215 720h90l-224 -737h-90z" />
    <glyph glyph-name="zero" unicode="0" 
d="M262 660c183 0 206 -161 206 -307c0 -158 -18 -370 -225 -370c-195 0 -210 179 -210 329c0 160 29 348 229 348zM244 610c-98 0 -91 -170 -91 -236s2 -133 11 -199c7 -54 20 -142 93 -142c68 0 91 103 91 217c0 68 -3 138 -11 205c-7 56 -19 155 -93 155z" />
    <glyph glyph-name="one" unicode="1" 
d="M189 564l-140 -65c-11 27 -15 49 -14 70c73 17 213 67 299 101l12 -10c-3 -48 -10 -134 -10 -254v-322c0 -34 25 -45 57 -47l62 -3v-37c-91 1 -133 3 -177 3c-43 0 -86 -2 -203 -3v37l72 3c32 2 57 13 57 47v443c0 21 1 44 -15 37z" />
    <glyph glyph-name="two" unicode="2" 
d="M25 -3v51l167 166c59 58 117 139 117 225c0 72 -38 116 -111 116c-38 0 -86 -24 -94 -55l-18 -68l-37 3l18 165c48 39 102 60 157 60c126 0 217 -66 217 -177c0 -73 -53 -148 -103 -198l-174 -171l2 -8l302 11l4 -5c-4 -36 -4 -80 -1 -115c-97 1 -167 3 -223 3
c-57 0 -128 -2 -223 -3z" />
    <glyph glyph-name="three" unicode="3" 
d="M22 156l34 9c31 -74 74 -126 160 -126c76 0 118 69 118 132c0 76 -49 125 -125 125c-21 0 -42 -2 -62 -8l-7 5l19 74h35c63 0 113 35 113 108c0 51 -38 87 -102 87c-76 0 -107 -56 -117 -101h-35l31 154c49 30 99 45 151 45c107 0 183 -58 183 -140
c0 -69 -51 -118 -109 -145v-2c86 -6 149 -57 149 -147c0 -76 -33 -130 -91 -177c-52 -42 -122 -66 -189 -66c-45 0 -90 5 -131 24c-5 47 -17 105 -25 149z" />
    <glyph glyph-name="four" unicode="4" 
d="M82 247h181v329h-2c-23 -40 -51 -78 -73 -120l-62 -116c-16 -30 -29 -62 -44 -93zM19 165l-7 39c58 147 144 294 245 441l122 27l7 -12c-3 -96 -6 -192 -6 -288v-125h88l1 -2v-80h-89v-54c0 -51 25 -73 57 -74l36 -3v-37c-65 1 -107 3 -151 3c-43 0 -86 -2 -180 -3v37
l64 3c32 1 57 23 57 74v54h-244z" />
    <glyph glyph-name="five" unicode="5" 
d="M149 539l-4 -155c45 21 80 34 130 34c109 0 197 -61 197 -177c0 -76 -29 -138 -87 -187c-53 -45 -125 -71 -194 -71c-47 0 -87 7 -118 22c-7 37 -19 85 -31 134l30 18c23 -61 82 -116 150 -116c83 0 132 52 132 134c0 81 -47 140 -131 140c-47 0 -87 -15 -114 -40l-19 11
c2 41 6 83 6 124v102c0 43 -4 108 -6 136l7 8c51 -2 111 -6 170 -6s118 4 177 6l4 -8c-8 -28 -8 -62 -6 -98l-6 -11c-48 1 -95 3 -143 3s-96 -2 -144 -3z" />
    <glyph glyph-name="six" unicode="6" 
d="M396 660l39 -27l-15 -16c-75 7 -158 -24 -207 -106c-30 -50 -41 -125 -45 -180l2 -2c33 43 75 80 145 80c107 0 154 -90 154 -186c0 -130 -76 -240 -215 -240c-155 0 -217 115 -217 291c0 127 48 238 149 316c66 51 127 70 210 70zM256 323c-55 0 -91 -33 -91 -121
s28 -169 98 -169c72 0 88 80 88 137s-20 153 -95 153z" />
    <glyph glyph-name="seven" unicode="7" 
d="M400 436l-110 -224c-24 -50 -70 -164 -86 -215c-19 1 -39 3 -58 3c-16 0 -33 -2 -52 -3l-6 11l300 518l-4 6h-225c-49 0 -58 -10 -63 -52l-8 -64h-39c1 78 1 160 -3 232l10 8c99 -2 197 -6 296 -6c47 0 94 2 141 3v-45c-27 -42 -62 -107 -93 -172z" />
    <glyph glyph-name="eight" unicode="8" 
d="M253 275l-61 27c-45 -38 -69 -73 -69 -134c0 -73 52 -133 127 -133c63 0 107 53 107 114c0 70 -47 101 -104 126zM250 412l44 -19c39 31 59 66 59 106c0 63 -38 109 -103 109c-55 0 -96 -32 -96 -89c0 -60 49 -87 96 -107zM263 660c92 0 174 -45 174 -147
c0 -57 -38 -101 -94 -137c54 -19 124 -70 124 -172c0 -131 -104 -221 -232 -221c-140 0 -201 89 -201 175c0 73 53 134 117 162c-62 33 -100 82 -100 154c0 110 76 186 212 186z" />
    <glyph glyph-name="nine" unicode="9" 
d="M105 -17l-38 29l9 18c32 -6 82 -4 147 34c26 17 49 45 64 73c30 54 39 118 44 178l-63 -55c-24 -21 -46 -24 -77 -24c-114 0 -160 87 -160 190c0 148 87 234 214 234c167 0 218 -125 218 -271c0 -184 -93 -353 -281 -398c-25 -6 -52 -7 -77 -8zM250 323
c71 0 86 58 86 117c0 62 -11 168 -94 168c-73 0 -93 -71 -93 -131c0 -66 20 -154 101 -154z" />
    <glyph glyph-name="colon" unicode=":" horiz-adv-x="250" 
d="M125 144c41 0 78 -37 78 -80c0 -38 -36 -76 -78 -76c-41 0 -78 34 -78 76s37 80 78 80zM125 454c41 0 78 -37 78 -80c0 -38 -36 -76 -78 -76c-41 0 -78 34 -78 76s37 80 78 80z" />
    <glyph glyph-name="semicolon" unicode=";" horiz-adv-x="250" 
d="M80 -136l-71 -30l-15 13c46 91 78 203 82 256c36 9 88 23 134 38l17 -16c-40 -88 -90 -170 -147 -261zM148 454c41 0 78 -37 78 -80c0 -38 -36 -76 -78 -76c-41 0 -78 34 -78 76s37 80 78 80z" />
    <glyph glyph-name="less" unicode="&#x3c;" horiz-adv-x="606" 
d="M160 252l398 -183v-84l-509 230v74l509 230v-84z" />
    <glyph glyph-name="equal" unicode="=" horiz-adv-x="606" 
d="M555 396v-86h-504v86h504zM555 200v-86h-504v86h504z" />
    <glyph glyph-name="greater" unicode="&#x3e;" horiz-adv-x="606" 
d="M49 69l398 183l-398 183v84l509 -230v-74l-509 -230v84z" />
    <glyph glyph-name="question" unicode="?" horiz-adv-x="444" 
d="M78 497l-35 9c18 54 30 98 32 133c48 35 99 48 149 48c93 0 187 -47 187 -153c0 -67 -22 -97 -71 -138l-77 -64c-71 -59 -70 -94 -53 -128l1 -2l-34 -14c-19 22 -26 50 -26 78c0 38 31 83 76 135c23 27 50 68 50 105c0 51 -43 85 -92 85c-37 0 -69 -8 -76 -23zM194 144
c41 0 78 -37 78 -80c0 -38 -36 -76 -78 -76c-41 0 -78 34 -78 76s37 80 78 80z" />
    <glyph glyph-name="at" unicode="@" horiz-adv-x="747" 
d="M635 173h64c-57 -111 -175 -185 -301 -185c-195 0 -356 139 -356 339c0 198 149 354 349 354c185 0 313 -133 313 -277c0 -68 -22 -135 -68 -185c-35 -38 -100 -82 -153 -82c-47 0 -68 41 -71 82c-33 -45 -61 -76 -116 -76c-82 0 -126 59 -126 140c0 107 95 218 205 218
c44 0 74 -26 81 -68h2l15 60h94l-74 -274c-6 -22 -7 -49 17 -49c32 0 72 46 89 69c33 45 54 107 54 163c0 108 -91 223 -256 223c-169 0 -299 -120 -299 -291c0 -179 139 -290 311 -290c93 0 175 53 226 129zM315 172c42 0 76 58 91 91c18 39 32 97 32 139
c0 29 -12 69 -47 69c-76 0 -126 -160 -126 -221c0 -32 8 -78 50 -78z" />
    <glyph glyph-name="A" unicode="A" horiz-adv-x="778" 
d="M469 206h-251l-42 -112c-14 -38 6 -56 24 -57l50 -3v-37c-48 1 -84 3 -113 3s-65 -2 -113 -3v37l30 3c26 3 44 31 56 60l181 438l26 69l16 41l15 41h71l259 -605c11 -25 24 -40 55 -44l24 -3v-37c-67 1 -116 3 -155 3s-89 -2 -155 -3v37l53 3c16 1 27 23 14 55zM342 516
l-100 -254h204z" />
    <glyph glyph-name="B" unicode="B" horiz-adv-x="667" 
d="M265 348v-292c20 -4 35 -4 54 -4c107 0 142 63 142 151c0 112 -64 145 -166 145h-30zM265 627v-227h30c89 0 145 27 145 124c0 78 -41 107 -114 107c-20 0 -40 -1 -61 -4zM39 644v37c66 -1 117 -3 156 -3c69 0 126 2 203 3c92 1 190 -22 190 -135
c0 -102 -86 -136 -178 -167v-2c128 -5 201 -50 201 -166c0 -123 -115 -218 -278 -214c-45 1 -93 3 -141 3c-42 0 -83 -2 -120 -3v23l32 18c16 9 20 26 20 57v448c0 42 -1 69 -7 81c-5 10 -15 15 -41 17z" />
    <glyph glyph-name="C" unicode="C" horiz-adv-x="722" 
d="M692 87l-22 -49c-69 -42 -150 -55 -230 -55c-228 0 -396 128 -396 367c0 230 187 345 400 345c82 0 149 -7 245 -47l6 -11c-10 -36 -18 -110 -23 -153h-39l-5 86c-49 51 -112 69 -180 69c-166 0 -254 -118 -254 -276c0 -183 106 -315 295 -315c59 0 140 21 191 51z" />
    <glyph glyph-name="D" unicode="D" horiz-adv-x="833" 
d="M120 95v448c0 42 -1 69 -7 81c-5 10 -15 15 -41 17l-37 3v37c66 -1 117 -3 156 -3c65 0 169 3 257 3c215 0 338 -88 338 -312c0 -242 -202 -376 -416 -372c-50 1 -99 3 -149 3s-99 -2 -153 -3v23l32 18c16 9 20 26 20 57zM261 627v-570c29 -5 58 -5 86 -5
c199 0 289 98 289 298c0 198 -86 281 -314 281c-20 0 -40 -1 -61 -4z" />
    <glyph glyph-name="E" unicode="E" horiz-adv-x="611" 
d="M265 620v-240c23 -2 45 -2 67 -2h66c35 0 55 2 57 21l6 57h40c-1 -36 -3 -71 -3 -107s2 -72 3 -108h-40l-6 50c-3 28 -22 37 -57 37h-66c-22 0 -44 -1 -67 -3v-267c42 -2 85 -3 128 -3c46 0 120 9 122 17l23 94h39l-11 -158l-5 -8c-65 -5 -181 -5 -246 -3
c-41 1 -82 3 -123 3c-42 0 -83 -2 -120 -3v23l32 18c16 9 20 26 20 57v448c0 42 -1 69 -7 81c-5 10 -15 15 -41 17l-37 3v37c66 -1 117 -3 156 -3c94 0 162 2 219 3c56 1 100 1 146 -3l6 -7l-14 -142h-36l-8 75c-2 15 -69 19 -115 19c-43 0 -86 -1 -128 -3z" />
    <glyph glyph-name="F" unicode="F" horiz-adv-x="556" 
d="M254 620v-243c23 -2 45 -2 67 -2h51c35 0 55 2 57 21l6 53h40c-1 -32 -3 -67 -3 -103s2 -72 3 -108h-40l-6 50c-3 28 -22 37 -57 37h-51c-22 0 -44 -1 -67 -3v-187c0 -42 1 -69 7 -81c4 -8 15 -12 41 -14l47 -3v-40c-51 1 -106 3 -165 3c-60 0 -115 -2 -156 -3v40l37 3
c26 2 37 6 41 14c6 12 7 39 7 81v408c0 42 -1 69 -7 81c-5 10 -15 15 -41 17l-37 3v37c66 -1 117 -3 156 -3c78 0 146 2 203 3c56 1 100 1 146 -3l6 -7l-14 -142h-36l-8 75c-2 15 -69 19 -115 19c-27 0 -70 -1 -112 -3z" />
    <glyph glyph-name="G" unicode="G" horiz-adv-x="833" 
d="M735 206v-163c-92 -36 -189 -60 -292 -60c-228 0 -396 128 -396 367c0 230 187 345 400 345c91 0 180 -8 275 -47l6 -11c-10 -36 -18 -110 -23 -153h-39l-5 86c-39 46 -128 69 -210 69c-166 0 -254 -118 -254 -276c0 -173 89 -324 269 -324c44 0 85 9 127 25v132
c0 31 -25 36 -57 37l-53 2v41c49 -1 98 -3 147 -3s97 2 146 3v-34c-34 -7 -41 -11 -41 -36z" />
    <glyph glyph-name="H" unicode="H" horiz-adv-x="833" 
d="M262 543v-158c15 -1 34 -2 81 -2h146c47 0 66 1 81 2v158c0 42 -1 69 -7 81c-4 8 -15 12 -41 14l-37 3v40c41 -1 96 -3 156 -3c59 0 114 2 155 3v-40l-37 -3c-26 -2 -37 -6 -41 -14c-6 -12 -7 -39 -7 -81v-408c0 -42 1 -69 7 -81c4 -8 15 -12 41 -14l37 -3v-40
c-41 1 -96 3 -155 3c-60 0 -115 -2 -156 -3v40l37 3c26 2 37 6 41 14c6 12 7 39 7 81v190c-15 1 -34 2 -81 2h-146c-47 0 -66 -1 -81 -2v-190c0 -42 1 -69 7 -81c4 -8 15 -12 41 -14l37 -3v-40c-41 1 -96 3 -155 3c-60 0 -115 -2 -156 -3v40l37 3c26 2 37 6 41 14
c6 12 7 39 7 81v408c0 42 -1 69 -7 81c-4 8 -15 12 -41 14l-37 3v40c41 -1 96 -3 156 -3c59 0 114 2 155 3v-40l-37 -3c-26 -2 -37 -6 -41 -14c-6 -12 -7 -39 -7 -81z" />
    <glyph glyph-name="I" unicode="I" horiz-adv-x="389" 
d="M265 543v-408c0 -42 1 -69 7 -81c4 -8 15 -12 41 -14l37 -3v-40c-41 1 -96 3 -155 3c-60 0 -115 -2 -156 -3v40l37 3c26 2 37 6 41 14c6 12 7 39 7 81v408c0 42 -1 69 -7 81c-4 8 -15 12 -41 14l-37 3v40c41 -1 96 -3 156 -3c59 0 114 2 155 3v-40l-37 -3
c-26 -2 -37 -6 -41 -14c-6 -12 -7 -39 -7 -81z" />
    <glyph glyph-name="J" unicode="J" horiz-adv-x="389" 
d="M265 543v-406c0 -95 1 -159 -57 -240c-40 -56 -118 -110 -188 -110c-11 0 -21 2 -31 5v89l11 6c21 -15 41 -35 69 -35c52 0 55 64 55 130v561c0 42 -1 69 -7 81c-4 8 -15 12 -41 14l-37 3v40c41 -1 96 -3 156 -3c59 0 114 2 155 3v-40l-37 -3c-26 -2 -37 -6 -41 -14
c-6 -12 -7 -39 -7 -81z" />
    <glyph glyph-name="K" unicode="K" horiz-adv-x="778" 
d="M124 135v408c0 42 -1 69 -7 81c-4 8 -15 12 -41 14l-37 3v40c41 -1 96 -3 156 -3c59 0 114 2 155 3v-40l-37 -3c-26 -2 -37 -6 -41 -14c-6 -12 -7 -39 -7 -81v-185c0 -4 4 -6 9 -6l188 184c24 24 55 59 78 84c11 12 16 24 16 36v25c30 -1 61 -3 91 -3s61 2 91 3v-39
c-42 -4 -80 -6 -110 -34l-222 -207l266 -313c21 -25 48 -50 91 -50v-41c-34 1 -67 3 -101 3s-68 -2 -102 -3l-208 249c-23 28 -57 70 -76 79c-8 1 -11 -5 -11 -9v-181c0 -42 1 -69 7 -81c4 -8 15 -12 41 -14l37 -3v-40c-41 1 -96 3 -155 3c-60 0 -115 -2 -156 -3v40l37 3
c26 2 37 6 41 14c6 12 7 39 7 81z" />
    <glyph glyph-name="L" unicode="L" horiz-adv-x="611" 
d="M265 543v-485c42 -2 85 -3 128 -3c46 0 120 9 122 17l23 102h39l-11 -166l-5 -8c-65 -5 -181 -5 -246 -3c-41 1 -82 3 -123 3c-42 0 -83 -2 -120 -3v23l32 18c16 9 20 26 20 57v448c0 42 -1 69 -7 81c-4 8 -15 12 -41 14l-37 3v40c41 -1 96 -3 156 -3c59 0 114 2 155 3
v-40l-37 -3c-26 -2 -37 -6 -41 -14c-6 -12 -7 -39 -7 -81z" />
    <glyph glyph-name="M" unicode="M" horiz-adv-x="1000" 
d="M883 543v-408c0 -42 1 -69 7 -81c4 -8 15 -12 41 -14l37 -3v-40c-41 1 -96 3 -155 3c-60 0 -115 -2 -156 -3v40l37 3c26 2 37 6 41 14c6 12 7 39 7 81v412h-2l-204 -425c-21 -43 -44 -92 -60 -132h-34c-10 28 -23 55 -36 83l-228 475h-2v-413c0 -42 1 -69 7 -81
c5 -10 15 -15 41 -17l37 -3v-37c-38 1 -76 3 -114 3s-77 -2 -115 -3v37l37 3c26 2 36 7 41 17c6 12 7 39 7 81v408c0 42 -1 69 -7 81c-5 10 -15 15 -41 17l-37 3v37c40 -1 80 -3 120 -3s80 2 120 3c18 -41 54 -116 75 -161l158 -330l183 378c18 37 34 78 49 113
c49 -1 86 -3 115 -3c30 0 66 2 116 3v-37l-37 -3c-26 -2 -36 -7 -41 -17c-6 -12 -7 -39 -7 -81z" />
    <glyph glyph-name="N" unicode="N" horiz-adv-x="833" 
d="M120 135v408c0 42 -1 69 -7 81c-5 10 -15 15 -41 17l-37 3v37c40 -1 80 -3 120 -3c28 0 56 2 84 3c34 -44 67 -91 103 -133l312 -364v359c0 42 -1 69 -7 81c-5 10 -15 15 -41 17l-37 3v37c38 -1 77 -3 115 -3s76 2 114 3v-37l-37 -3c-26 -2 -36 -7 -41 -17
c-6 -12 -7 -39 -7 -81v-454c0 -35 2 -71 3 -101l-7 -4l-82 13c-41 46 -83 93 -122 139l-324 390h-2v-391c0 -42 1 -69 7 -81c5 -10 15 -15 41 -17l37 -3v-37c-38 1 -76 3 -114 3s-77 -2 -115 -3v37l37 3c26 2 36 7 41 17c6 12 7 39 7 81z" />
    <glyph glyph-name="O" unicode="O" horiz-adv-x="833" 
d="M427 695c224 0 360 -122 360 -350c0 -236 -151 -362 -380 -362c-224 0 -360 122 -360 350c0 236 151 362 380 362zM427 639c-186 0 -230 -139 -230 -289c0 -165 69 -311 210 -311c186 0 230 138 230 288c0 165 -69 312 -210 312z" />
    <glyph glyph-name="P" unicode="P" horiz-adv-x="611" 
d="M124 135v408c0 42 -1 69 -7 81c-5 10 -15 15 -41 17l-37 3v37c66 -1 117 -3 156 -3c68 0 135 2 203 3c102 2 196 -29 196 -148c0 -133 -103 -214 -231 -214c-18 0 -37 5 -52 7l-17 35l10 10c14 -2 28 -6 42 -6c71 0 104 63 104 126c0 82 -30 140 -121 140
c-21 0 -48 -1 -64 -9v-487c0 -42 1 -69 7 -81c4 -8 15 -12 41 -14l47 -3v-40c-51 1 -106 3 -165 3c-60 0 -115 -2 -156 -3v40l37 3c26 2 37 6 41 14c6 12 7 39 7 81z" />
    <glyph glyph-name="Q" unicode="Q" horiz-adv-x="833" 
d="M606 -174l-199 54c-35 10 -71 20 -108 18c-20 -1 -57 -22 -88 -44l-11 31c53 43 104 80 158 100v2c-195 15 -311 135 -311 346c0 236 151 362 380 362c224 0 360 -122 360 -350c0 -236 -151 -362 -380 -362c-12 0 -24 0 -33 1l-2 -2c37 -7 75 -15 102 -24l120 -42
c32 -11 72 -22 112 -22c21 0 52 14 75 23v-37l-103 -64c-24 0 -49 4 -72 10zM427 639c-186 0 -230 -139 -230 -289c0 -165 69 -311 210 -311c186 0 230 138 230 288c0 165 -69 312 -210 312z" />
    <glyph glyph-name="R" unicode="R" horiz-adv-x="722" 
d="M124 135v408c0 42 -1 69 -7 81c-5 10 -15 15 -41 17l-37 3v37c66 -1 117 -3 168 -3c68 0 135 2 203 3c102 2 196 -29 196 -148c0 -88 -66 -147 -149 -177l181 -274c7 -11 18 -22 29 -31c9 -7 22 -10 41 -14v-40c-32 1 -65 3 -97 3c-30 0 -60 -2 -90 -3l-224 347l7 18
c92 -8 160 49 160 143c0 82 -57 126 -135 126c-21 0 -48 -1 -64 -9v-487c0 -42 1 -69 7 -81c4 -8 15 -12 41 -14l37 -3v-40c-41 1 -96 3 -155 3c-60 0 -115 -2 -156 -3v40l37 3c26 2 37 6 41 14c6 12 7 39 7 81z" />
    <glyph glyph-name="S" unicode="S" horiz-adv-x="611" 
d="M72 202h40l7 -88c27 -46 105 -77 157 -77c85 0 157 45 157 132c0 43 -26 76 -83 93l-140 42c-84 25 -146 84 -146 170c0 160 119 221 264 221c62 0 128 -11 186 -34l5 -12c-10 -32 -14 -90 -14 -142h-41l-6 82c-30 34 -86 55 -133 55c-93 0 -137 -54 -137 -121
c0 -45 32 -78 106 -97l114 -30c92 -24 151 -82 151 -172c0 -170 -141 -241 -293 -241c-72 0 -145 15 -209 46c12 59 15 116 15 173z" />
    <glyph glyph-name="T" unicode="T" horiz-adv-x="667" 
d="M404 619v-484c0 -42 1 -69 7 -81c4 -8 15 -12 41 -14l37 -3v-40c-41 1 -96 3 -155 3c-60 0 -115 -2 -156 -3v40l37 3c26 2 37 6 41 14c6 12 7 39 7 81v484h-117c-27 0 -55 0 -62 -9c-4 -5 -8 -13 -9 -24l-5 -69h-40c-2 65 -5 111 -13 159l6 5c105 -1 209 -3 310 -3
c102 0 206 2 311 3l6 -5c-8 -48 -11 -94 -13 -159h-40l-5 69c-1 11 -5 19 -9 24c-7 9 -35 9 -62 9h-117z" />
    <glyph glyph-name="U" unicode="U" horiz-adv-x="778" 
d="M111 177v366c0 42 -1 69 -7 81c-5 10 -15 15 -41 17l-37 3v37c41 -1 96 -3 156 -3c59 0 114 2 155 3v-37l-37 -3c-26 -2 -36 -7 -41 -17c-6 -12 -7 -39 -7 -81v-248c0 -141 9 -230 178 -230c167 0 186 92 186 237v241c0 42 -1 69 -7 81c-5 10 -15 15 -41 17l-37 3v37
c38 -1 77 -3 115 -3s76 2 114 3v-37l-37 -3c-26 -2 -36 -7 -41 -17c-6 -12 -7 -39 -7 -81v-292c0 -183 -97 -268 -278 -268c-189 0 -286 81 -286 194z" />
    <glyph glyph-name="V" unicode="V" horiz-adv-x="778" 
d="M285 550l157 -387l142 353c17 42 31 80 31 98s-17 26 -37 27l-46 3v37c49 -1 87 -3 116 -3s66 2 115 3v-37l-32 -3c-22 -2 -35 -18 -47 -47l-208 -498c-14 -33 -25 -66 -38 -99h-76l-239 572c-12 28 -28 69 -62 72l-41 3v37c66 -1 117 -3 156 -3s89 2 164 3v-37l-50 -3
c-15 -1 -26 -10 -26 -19c0 -20 12 -50 21 -72z" />
    <glyph glyph-name="W" unicode="W" horiz-adv-x="1000" 
d="M321 210l149 352c17 41 34 83 51 124h45c16 -46 32 -90 49 -133l136 -340h2l96 375c3 12 4 21 4 33s-18 19 -35 20l-46 3v37c45 -1 80 -3 108 -3c27 0 62 2 108 3v-37l-33 -3c-18 -2 -31 -27 -43 -69l-122 -432c-13 -47 -22 -95 -33 -143h-73c-13 35 -24 70 -38 105
l-149 375l-155 -355c-18 -41 -31 -83 -47 -125h-70l-139 602c-7 29 -19 40 -37 42l-32 3v37c66 -1 117 -3 156 -3s89 2 134 3v-37l-42 -3c-13 -1 -30 -12 -30 -23c0 -7 1 -17 3 -28l81 -380h2z" />
    <glyph glyph-name="X" unicode="X" horiz-adv-x="667" 
d="M22 658l183 37c33 -24 53 -56 73 -91l95 -169l165 243h111v-34l-28 -3c-25 -3 -35 -19 -48 -36l-170 -224l159 -275c15 -26 32 -65 63 -69l25 -3v-37c-32 1 -63 3 -95 3s-64 -2 -96 -3l-149 266l-140 -201c-14 -20 -24 -41 -36 -62h-117v34l31 3c14 1 28 11 33 18
l199 261l-94 166c-33 59 -72 108 -88 124c-22 22 -46 18 -71 11z" />
    <glyph glyph-name="Y" unicode="Y" horiz-adv-x="667" 
d="M395 356l188 322h77v-19l-176 -261c-21 -31 -38 -66 -53 -100v-163c0 -42 1 -69 7 -81c4 -8 15 -12 41 -14l37 -3v-40c-41 1 -96 3 -155 3c-60 0 -115 -2 -156 -3v40l37 3c26 2 37 6 41 14c6 12 7 39 7 81v139c-19 43 -31 64 -44 85l-101 163c-14 22 -35 48 -52 67
c-23 25 -44 33 -78 33v37l159 36c55 -31 86 -83 114 -136z" />
    <glyph glyph-name="Z" unicode="Z" horiz-adv-x="667" 
d="M540 536l-325 -479h276c57 0 76 15 81 39l15 78h40c-9 -50 -15 -122 -16 -177c-97 2 -203 3 -287 3c-86 0 -182 -1 -300 -3v38c34 43 71 91 104 139l306 446h-222c-72 0 -81 -6 -87 -46l-8 -55h-37v162c116 -1 203 -3 272 -3s155 2 271 3v-35c-27 -32 -57 -72 -83 -110z
" />
    <glyph glyph-name="bracketleft" unicode="[" horiz-adv-x="333" 
d="M291 720v-38h-49c-28 0 -62 -14 -62 -40c-1 -111 -3 -221 -3 -334s2 -223 3 -334c0 -26 34 -40 62 -40h49v-38c-36 1 -66 3 -98 3c-31 0 -62 -2 -120 -3c2 138 7 276 7 414c0 137 -5 273 -7 410c58 -1 89 -3 120 -3c32 0 62 2 98 3z" />
    <glyph glyph-name="backslash" unicode="\" horiz-adv-x="606" 
d="M72 720h90l372 -720h-90z" />
    <glyph glyph-name="bracketright" unicode="]" horiz-adv-x="333" 
d="M42 682v38c36 -1 66 -3 98 -3c31 0 62 2 120 3c-2 -137 -7 -273 -7 -410c0 -138 5 -276 7 -414c-58 1 -89 3 -120 3c-32 0 -62 -2 -98 -3v38h49c28 0 62 14 62 40c1 111 3 221 3 334s-2 223 -3 334c0 26 -34 40 -62 40h-49z" />
    <glyph glyph-name="asciicircum" unicode="^" horiz-adv-x="606" 
d="M147 275h-95l206 403h90l206 -403h-95l-156 294z" />
    <glyph glyph-name="underscore" unicode="_" 
d="M500 -125h-500v50h500v-50z" />
    <glyph glyph-name="quoteleft" unicode="&#x2018;" horiz-adv-x="278" 
d="M169 668l66 27l14 -16c-27 -59 -63 -165 -74 -241c-45 -5 -97 -18 -132 -33l-14 13c27 62 89 172 140 250z" />
    <glyph glyph-name="a" unicode="a" 
d="M211 257l88 18c0 70 -29 118 -104 118c-17 0 -52 -5 -56 -14l-22 -50l-30 7v69l53 32c43 26 84 34 116 34c88 0 168 -39 165 -146c-1 -41 -3 -82 -3 -123s2 -83 3 -124c1 -25 7 -39 27 -41l30 -3v-37c-32 1 -59 3 -88 3c-28 0 -56 -2 -91 -3l-5 8l5 62l-93 -72
c-15 -12 -37 -12 -55 -12c-74 0 -111 51 -111 122c0 39 12 83 46 106c37 25 82 37 125 46zM299 115v118l-45 -12c-53 -15 -92 -26 -92 -91c0 -42 24 -60 54 -60s71 26 83 45z" />
    <glyph glyph-name="b" unicode="b" horiz-adv-x="611" 
d="M211 714v-331l61 49c25 20 52 39 104 39c106 0 180 -81 180 -186c0 -55 -14 -100 -32 -136c-24 -48 -67 -78 -108 -105c-42 -28 -85 -61 -139 -61c-59 0 -101 17 -136 37l-39 -32l-22 8c6 46 9 126 9 166v406c0 57 -2 68 -26 70l-53 3v36c46 5 84 10 121 21l72 22z
M211 331v-225c23 -35 60 -55 102 -55c93 0 117 100 117 175c0 80 -35 155 -125 155c-36 0 -76 -19 -94 -50z" />
    <glyph glyph-name="c" unicode="c" horiz-adv-x="444" 
d="M390 297h-36l-7 60c-3 29 -55 43 -86 43c-82 0 -100 -72 -100 -141c0 -103 43 -205 162 -205c26 0 52 6 82 19l9 -10l-21 -46c-39 -22 -85 -34 -130 -34c-156 0 -226 99 -226 237c0 70 6 130 121 199l52 31c30 18 60 21 99 21c29 0 58 -7 94 -20l7 -13
c-9 -44 -15 -90 -20 -141z" />
    <glyph glyph-name="d" unicode="d" horiz-adv-x="611" 
d="M508 714v-614c0 -24 1 -37 4 -47s11 -15 32 -17l33 -2v-37c-41 1 -83 3 -111 3c-17 0 -45 -2 -80 -3l-5 8l5 75l-104 -85c-14 -12 -37 -12 -55 -12c-121 0 -185 112 -185 222c0 101 25 154 84 193l72 47c23 15 52 26 86 26s52 -7 82 -17l20 -8v122c0 57 -2 68 -26 70
l-53 3v36c46 5 84 10 121 21l72 22zM386 160v184c-25 36 -67 63 -111 63c-92 0 -107 -80 -107 -158c0 -70 27 -171 115 -171c47 0 103 30 103 82z" />
    <glyph glyph-name="e" unicode="e" 
d="M303 223h-131c0 -97 55 -169 159 -169c33 0 76 16 108 35l12 -15l-22 -48c-60 -32 -101 -43 -160 -43c-146 0 -227 88 -227 231c0 82 11 156 95 206l47 28c25 15 52 23 82 23c111 0 195 -59 195 -176v-52c-54 -15 -114 -20 -158 -20zM252 415c-58 0 -86 -45 -86 -139
c28 -1 56 -3 84 -3s56 2 84 3c0 59 -8 139 -82 139z" />
    <glyph glyph-name="f" unicode="f" horiz-adv-x="389" 
d="M381 714v-97l-16 -7c-19 12 -42 24 -63 24c-62 0 -63 -40 -63 -92v-108c45 0 91 2 131 4l4 -8l-11 -58h-124v-272c0 -24 1 -37 4 -47s25 -16 46 -17l45 -2v-37c-67 1 -109 3 -159 3c-44 0 -86 -2 -141 -3v37l41 2c21 1 35 7 38 17s4 23 4 47v272l-79 -5v24
c28 13 55 28 79 45v43c0 79 5 95 55 137l74 62c47 39 68 42 94 42c14 0 27 -2 41 -6z" />
    <glyph glyph-name="g" unicode="g" horiz-adv-x="556" 
d="M529 368l-77 4c5 -21 5 -41 5 -58c0 -111 -114 -169 -214 -169c-14 0 -33 1 -44 2c-16 -9 -29 -21 -29 -40c0 -17 14 -29 46 -29c66 1 133 4 178 4c95 0 141 -44 141 -120c0 -159 -146 -228 -291 -228c-96 0 -218 30 -218 147c0 21 8 43 26 57l81 48c-37 8 -68 26 -68 63
c0 21 4 40 17 52l71 54c-63 17 -106 71 -106 135c0 58 27 104 67 136c42 34 97 45 152 45c53 0 114 -13 150 -43c39 -2 77 0 118 4zM251 421c-63 0 -81 -54 -81 -107s16 -123 83 -123c65 0 81 53 81 107c0 56 -13 123 -83 123zM274 -216c64 0 150 42 150 116s-35 80 -112 84
c-42 2 -102 1 -132 -7c-29 -8 -60 -43 -60 -88c0 -83 86 -105 154 -105z" />
    <glyph glyph-name="h" unicode="h" horiz-adv-x="611" 
d="M95 100v468c0 57 -2 68 -26 70l-45 3v36c38 5 76 10 113 21l72 22l8 -6v-324l80 62c25 19 54 19 76 19c39 0 82 -13 108 -40c34 -36 37 -86 37 -145v-186c0 -24 1 -37 4 -47s11 -15 32 -17l33 -2v-37c-36 1 -66 3 -98 3c-36 0 -65 -2 -93 -3v272c0 49 -8 75 -26 93
c-17 17 -39 23 -75 23c-41 0 -78 -39 -78 -68v-217c0 -24 1 -37 4 -47s11 -15 32 -17l35 -2v-37c-43 1 -85 3 -135 3c-44 0 -86 -2 -129 -3v37l35 2c21 2 29 7 32 17s4 23 4 47z" />
    <glyph glyph-name="i" unicode="i" horiz-adv-x="333" 
d="M105 100v219c0 57 -2 68 -26 70l-45 3v36c38 5 76 9 113 21l70 22l10 -6v-365c0 -24 1 -37 4 -47s11 -15 32 -17l35 -2v-37c-43 1 -85 3 -135 3c-44 0 -86 -2 -129 -3v37l35 2c21 2 29 7 32 17s4 23 4 47zM162 706c42 0 75 -32 75 -76c0 -41 -35 -74 -75 -74
s-75 33 -75 74c0 44 33 76 75 76z" />
    <glyph glyph-name="j" unicode="j" horiz-adv-x="333" 
d="M105 -38v357c0 57 -2 68 -26 70l-45 3v36c38 5 76 9 113 21l70 22l10 -6v-367c0 -132 -6 -218 -58 -288c-36 -48 -80 -76 -120 -76c-12 0 -24 1 -36 2l-10 35l4 6h23c29 0 48 15 58 44c13 39 17 83 17 141zM166 706c42 0 75 -32 75 -76c0 -41 -35 -74 -75 -74
s-75 33 -75 74c0 44 33 76 75 76z" />
    <glyph glyph-name="k" unicode="k" horiz-adv-x="611" 
d="M100 100v468c0 57 -2 68 -26 70l-53 3v36c46 5 84 10 121 21l72 22l8 -6v-465c34 29 73 63 106 97l107 113h130v-38h-31c-18 0 -36 -9 -48 -18l-62 -45c-28 -21 -54 -48 -78 -72l196 -220c10 -12 30 -30 55 -32v-34h-172c-15 20 -62 77 -87 106l-106 120h-10v-126
c0 -24 1 -37 4 -47s11 -15 32 -17l35 -2v-37c-43 1 -85 3 -135 3c-44 0 -86 -2 -129 -3v37l35 2c21 2 29 7 32 17s4 23 4 47z" />
    <glyph glyph-name="l" unicode="l" horiz-adv-x="333" 
d="M24 641v36c46 5 84 10 121 21l72 22l8 -6v-614c0 -24 1 -37 4 -47s11 -15 32 -17l35 -2v-37c-43 1 -85 3 -135 3c-44 0 -86 -2 -129 -3v37l35 2c21 2 29 7 32 17s4 23 4 47v468c0 57 -2 68 -26 70z" />
    <glyph glyph-name="m" unicode="m" horiz-adv-x="889" 
d="M95 100v219c0 57 -2 68 -26 70l-45 3v36c69 2 128 24 187 43l6 -6v-75l80 62c25 19 54 19 76 19c58 0 108 -25 127 -81l80 62c25 19 54 19 76 19c106 0 139 -53 139 -185v-186c0 -24 1 -37 4 -47s11 -15 32 -17l33 -2v-37c-36 1 -66 3 -98 3c-31 0 -62 -2 -93 -3v272
c0 49 -8 75 -26 93c-17 17 -39 23 -63 23c-41 0 -78 -39 -78 -68v-217c0 -24 1 -37 4 -47s11 -15 32 -17l35 -2v-37c-43 1 -85 3 -135 3c-44 0 -86 -2 -125 -3v37l31 2c21 1 29 7 32 17s4 23 4 47v169c0 49 -8 75 -26 93c-17 17 -39 23 -63 23c-41 0 -78 -39 -78 -68v-217
c0 -24 1 -37 4 -47s11 -15 32 -17l27 -2v-37c-35 1 -77 3 -127 3c-44 0 -86 -2 -129 -3v37l35 2c21 2 29 7 32 17s4 23 4 47z" />
    <glyph glyph-name="n" unicode="n" horiz-adv-x="611" 
d="M95 100v219c0 57 -2 68 -26 70l-45 3v36c69 2 128 24 187 43l6 -6v-75l80 62c25 19 54 19 76 19c39 0 82 -13 108 -40c34 -36 37 -86 37 -145v-186c0 -24 1 -37 4 -47s11 -15 32 -17l33 -2v-37c-36 1 -66 3 -98 3c-36 0 -65 -2 -93 -3v273c0 48 -8 74 -26 92
c-17 17 -39 23 -75 23c-41 0 -78 -39 -78 -68v-217c0 -24 1 -37 4 -47s11 -15 32 -17l35 -2v-37c-43 1 -85 3 -135 3c-44 0 -86 -2 -129 -3v37l35 2c21 2 29 7 32 17s4 23 4 47z" />
    <glyph glyph-name="o" unicode="o" horiz-adv-x="556" 
d="M285 471c153 0 232 -85 232 -234c0 -161 -87 -254 -253 -254c-154 0 -224 101 -224 242c0 155 85 246 245 246zM286 31c88 0 95 101 95 165c0 70 -1 227 -105 227c-94 0 -100 -104 -100 -174c0 -73 7 -218 110 -218z" />
    <glyph glyph-name="p" unicode="p" horiz-adv-x="611" 
d="M100 -155v474c0 57 -2 68 -26 70l-45 3v36c38 5 76 9 113 21l70 22l10 -6v-82l61 49c25 20 52 39 104 39c106 0 180 -81 180 -186c0 -41 -10 -82 -23 -115c-17 -44 -48 -79 -73 -98c-24 -18 -50 -40 -78 -58c-33 -21 -58 -31 -82 -31c-31 0 -62 9 -89 17v-155
c0 -24 1 -37 4 -47s11 -16 32 -17l45 -2v-37c-53 1 -95 3 -145 3c-44 0 -86 -2 -129 -3v37l35 2c21 2 29 7 32 17s4 23 4 47zM222 331v-225c23 -35 60 -55 102 -55c93 0 117 100 117 175c0 80 -35 155 -125 155c-36 0 -76 -19 -94 -50z" />
    <glyph glyph-name="q" unicode="q" horiz-adv-x="611" 
d="M396 -155v230l-96 -77c-16 -13 -41 -15 -60 -15c-127 0 -188 105 -188 222c0 75 14 134 72 177c31 23 71 44 108 62c30 15 58 27 92 27c30 0 70 -12 115 -34l22 -11l52 42l21 -14c-7 -35 -16 -80 -16 -130v-479c0 -24 1 -37 4 -47s11 -15 32 -17l35 -2v-37
c-43 1 -85 3 -135 3c-44 0 -86 -2 -129 -3v37l35 2c21 2 29 7 32 17s4 23 4 47zM396 160v184c-25 36 -67 63 -111 63c-92 0 -107 -80 -107 -158c0 -70 27 -171 115 -171c47 0 103 30 103 82z" />
    <glyph glyph-name="r" unicode="r" horiz-adv-x="389" 
d="M101 100v219c0 57 -2 68 -26 70l-45 3v36c38 5 76 9 113 21l70 22l10 -6v-95l44 48c29 31 51 53 79 53c18 0 32 -1 43 -6l-5 -129l-24 -10c-12 24 -33 36 -59 36c-39 0 -78 -36 -78 -64v-198c0 -24 1 -37 4 -47s23 -16 44 -17l39 -2v-37c-59 1 -101 3 -151 3
c-44 0 -86 -2 -129 -3v37l35 2c21 2 29 7 32 17s4 23 4 47z" />
    <glyph glyph-name="s" unicode="s" horiz-adv-x="444" 
d="M362 326h-36l-10 58c-4 21 -50 39 -82 39c-58 0 -93 -22 -93 -65c0 -32 17 -48 55 -56l82 -18c81 -18 127 -49 127 -131c0 -116 -107 -170 -210 -170c-52 0 -104 9 -156 28l7 141h39l5 -69c29 -38 71 -52 118 -52c45 0 86 27 86 75c0 44 -26 56 -63 65l-86 21
c-70 17 -106 60 -106 123c0 114 89 156 206 156c45 0 89 -5 125 -23z" />
    <glyph glyph-name="t" unicode="t" horiz-adv-x="333" 
d="M86 110v259l-64 -4v22l66 43v60c0 31 -2 61 -4 92c44 16 92 36 122 50l14 -10c-8 -40 -12 -90 -12 -136v-58l114 6l-8 -65h-106v-238c0 -51 17 -65 62 -65c21 0 32 6 46 13l8 -19l-49 -59c-7 -9 -29 -18 -61 -18c-91 0 -128 37 -128 127z" />
    <glyph glyph-name="u" unicode="u" horiz-adv-x="611" 
d="M96 140v179c0 57 -2 68 -26 70l-45 3v36c38 5 76 9 113 21l70 22l10 -6v-261c0 -65 4 -131 81 -131c34 0 66 22 84 51c7 11 9 26 9 39v156c0 57 -2 68 -26 70l-45 3v36c38 5 76 9 113 21l70 22l10 -6v-365c0 -24 1 -37 4 -47s11 -15 32 -17l33 -2v-37c-41 1 -83 3 -111 3
c-17 0 -45 -2 -85 -3l5 83l-76 -74c-14 -14 -40 -23 -64 -23c-110 0 -156 62 -156 157z" />
    <glyph glyph-name="v" unicode="v" horiz-adv-x="556" 
d="M227 -3l-143 360c-13 31 -26 60 -48 62l-25 2v38c43 -1 87 -3 130 -3s86 2 129 3v-38l-41 -2c-13 -1 -23 -5 -23 -18c0 -12 6 -30 14 -50l88 -221c12 26 24 53 35 80l61 151c8 20 9 32 9 42s-14 16 -23 16l-38 2v38c32 -1 65 -3 97 -3s64 2 96 3v-38l-30 -5
c-19 -3 -29 -17 -36 -34l-128 -288c-14 -31 -26 -64 -38 -97h-86z" />
    <glyph glyph-name="w" unicode="w" horiz-adv-x="833" 
d="M194 -3l-107 384c-8 28 -21 37 -41 38l-33 2v38c45 -1 91 -3 136 -3s90 2 135 3v-38l-47 -2c-9 0 -19 -9 -19 -18c0 -7 0 -15 2 -23l58 -224h2c18 41 38 81 56 122l87 195h50l138 -317c13 35 27 73 39 112l36 113c2 7 3 13 3 18c0 16 -15 21 -29 22l-42 2v38
c34 -1 67 -3 101 -3s67 2 101 3v-38l-34 -2c-15 -1 -25 -17 -36 -47l-92 -260c-13 -38 -23 -77 -35 -115h-81l-132 307l-86 -178c-20 -42 -34 -86 -51 -129h-79z" />
    <glyph glyph-name="x" unicode="x" 
d="M200 210l-80 136c-34 58 -56 59 -92 57l-8 36c29 5 116 24 146 32c22 -17 45 -49 62 -77l52 -85l108 150h95v-37c-41 0 -54 -15 -78 -43l-97 -114l89 -152c27 -45 51 -77 86 -79v-37c-26 1 -51 3 -77 3s-52 -2 -78 -3l-100 169l-64 -88c-18 -25 -35 -52 -52 -78h-91v34
c33 2 52 15 69 36z" />
    <glyph glyph-name="y" unicode="y" horiz-adv-x="556" 
d="M231 343l84 -218l101 252c3 8 4 17 4 23c0 12 -14 18 -27 19l-33 2v38c31 -1 62 -3 93 -3s62 2 93 3v-38l-26 -5c-14 -3 -29 -19 -41 -47l-199 -463c-17 -39 -70 -172 -176 -172c-25 0 -51 7 -73 17l18 95l11 4c19 -23 42 -37 72 -37c38 0 71 45 90 91l23 56l-158 404
c-14 36 -27 54 -42 55l-35 2v38c44 -1 89 -3 133 -3s88 2 132 3v-38l-35 -2c-14 -1 -26 -9 -26 -23c0 -16 7 -28 17 -53z" />
    <glyph glyph-name="z" unicode="z" 
d="M454 424l-268 -369h163c49 0 61 13 70 69l5 31h40c-6 -41 -12 -111 -12 -153l-5 -5c-112 1 -204 3 -285 3c-52 0 -104 -2 -146 -3v33c35 45 71 90 104 136l170 238h-118c-58 0 -70 -12 -76 -59l-3 -25h-38l3 134l7 5c90 -2 177 -5 265 -5c41 0 83 3 124 5v-35z" />
    <glyph glyph-name="braceleft" unicode="{" horiz-adv-x="310" 
d="M96 414v178c0 127 84 133 192 133v-2c-70 -18 -95 -42 -95 -117v-177c0 -69 -15 -109 -98 -126v-2c86 -17 98 -61 98 -132v-167c0 -75 25 -99 95 -117v-2c-108 0 -192 6 -192 133v174c0 75 -20 93 -91 111v2c71 18 91 36 91 111z" />
    <glyph glyph-name="bar" unicode="|" horiz-adv-x="606" 
d="M260 0v720h86v-720h-86z" />
    <glyph glyph-name="braceright" unicode="}" horiz-adv-x="310" 
d="M214 592v-178c0 -75 20 -93 91 -111v-2c-71 -18 -91 -36 -91 -111v-174c0 -127 -84 -133 -192 -133v2c70 18 95 42 95 117v167c0 71 12 115 98 132v2c-83 17 -98 57 -98 126v177c0 75 -25 99 -95 117v2c108 0 192 -6 192 -133z" />
    <glyph glyph-name="asciitilde" unicode="~" horiz-adv-x="606" 
d="M507 342l48 -55c-31 -55 -73 -113 -144 -113c-45 0 -100 31 -133 44c-26 10 -54 25 -83 25c-49 0 -75 -51 -96 -88l-48 55c31 57 73 120 145 120c36 0 77 -17 116 -34c40 -18 76 -35 101 -35c44 0 75 46 94 81z" />
    <glyph glyph-name="exclamdown" unicode="&#xa1;" horiz-adv-x="278" 
d="M115 -227h-51c0 36 3 68 7 96l50 372l38 21l5 -8l47 -358c3 -26 3 -50 4 -79zM137 471c41 0 78 -37 78 -80c0 -38 -36 -76 -78 -76c-41 0 -78 34 -78 76s37 80 78 80z" />
    <glyph glyph-name="cent" unicode="&#xa2;" 
d="M230 124l83 276c-97 10 -117 -60 -117 -140c0 -44 9 -90 34 -136zM403 554l-25 -81c26 -6 48 -12 63 -20l5 -9c-8 -34 -16 -100 -18 -148h-38l-6 60c-2 16 -19 30 -31 33l-91 -302c25 -23 60 -32 94 -32c27 0 54 3 85 20l9 -11l-21 -47l-4 -4c-39 -19 -82 -30 -126 -30
c-22 0 -44 3 -69 6l-32 -95h-42l36 106c-87 39 -119 120 -119 210c0 51 6 90 30 135c12 23 42 43 63 56l52 33c40 25 86 42 118 42l26 78h41z" />
    <glyph glyph-name="sterling" unicode="&#xa3;" 
d="M16 363h90v43c0 84 42 150 132 210c57 38 122 60 158 60c29 0 64 -8 84 -27l-10 -136h-31l-3 35c-3 36 -32 62 -81 62c-93 0 -105 -75 -111 -147l-8 -100h168v-43h-173c-17 -96 -57 -170 -111 -224l2 -2c40 12 67 18 97 18c24 0 57 -5 91 -10c41 -6 75 -10 98 -10
c22 0 44 10 48 30l11 56h34l-10 -179c-27 -11 -62 -16 -91 -15c-60 2 -112 14 -154 26c-50 14 -96 22 -134 22c-18 0 -35 -13 -46 -22c-12 -10 -28 -24 -48 -29l-20 59l64 52c16 13 33 38 36 70c5 53 8 105 8 158h-90v43z" />
    <glyph glyph-name="fraction" unicode="&#x2044;" horiz-adv-x="167" 
d="M-83 0h-69l403 660h69z" />
    <glyph glyph-name="yen" unicode="&#xa5;" 
d="M215 135v71h-149v40h149v40c0 18 -15 40 -24 56h-125v40h108l-63 140c-10 22 -25 48 -38 67c-17 25 -32 33 -56 33v37l115 36c39 -31 61 -84 82 -136l80 -203l133 322h56v-19l-135 -277h118v-40h-134c-8 -16 -15 -38 -15 -58v-38h149v-40h-149v-71c0 -42 1 -69 5 -81
c2 -8 10 -12 30 -14l26 -3v-40c-28 1 -68 3 -111 3s-83 -2 -113 -3v40l26 3c20 2 28 6 30 14c4 12 5 39 5 81z" />
    <glyph glyph-name="florin" unicode="&#x192;" 
d="M95 368l13 44h105c13 57 39 127 73 176c41 59 125 116 204 115l-7 -83h-10c-16 12 -32 20 -47 20c-41 0 -57 -31 -63 -70l-25 -158h114l-13 -44h-110l-52 -310c-27 -161 -120 -252 -180 -278c-28 -12 -52 -20 -86 -22c5 28 7 54 8 88l14 8c10 -18 34 -25 50 -25
c18 0 45 19 51 57l73 482h-112z" />
    <glyph glyph-name="section" unicode="&#xa7;" 
d="M407 515h-38c1 31 -3 67 -7 80c-16 22 -74 31 -100 31c-56 0 -131 -27 -131 -94c0 -65 76 -86 126 -100l53 -16c52 -16 161 -32 161 -151c0 -70 -23 -102 -71 -150c41 -28 55 -62 55 -111c0 -63 -39 -123 -86 -162s-99 -59 -161 -59c-53 0 -109 10 -159 45
c5 36 9 94 14 155h39c-2 -25 1 -62 8 -84c29 -38 86 -55 132 -55c72 0 133 56 133 104c0 72 -80 93 -135 111l-61 20c-75 25 -149 58 -149 150c0 58 18 86 59 125l19 18c-31 24 -47 62 -47 101c0 57 35 124 75 163c37 36 104 59 155 59c46 0 92 -12 133 -33
c-8 -34 -14 -94 -17 -147zM282 307l-143 48c-17 -19 -35 -48 -35 -74c0 -35 38 -61 67 -74c21 -9 43 -19 64 -27l133 -49c18 22 29 47 29 66c0 68 -61 92 -115 110z" />
    <glyph glyph-name="currency" unicode="&#xa4;" 
d="M32 141l49 49c-28 32 -42 75 -42 122s13 94 42 123l-49 49l47 47l48 -48c29 25 78 41 125 41c45 0 91 -16 119 -40l48 49l49 -49l-46 -48c25 -28 39 -76 39 -122c0 -47 -14 -93 -40 -125l46 -48l-45 -45l-47 49c-30 -28 -77 -43 -123 -43c-50 0 -96 14 -127 42l-48 -48z
M252 178c73 0 132 63 132 136c0 71 -59 133 -132 133c-74 0 -136 -60 -136 -135c0 -74 62 -134 136 -134z" />
    <glyph glyph-name="quotesingle" unicode="'" horiz-adv-x="227" 
d="M136 376h-46l-44 239c-7 36 27 80 67 80s74 -44 67 -80z" />
    <glyph glyph-name="quotedblleft" unicode="&#x201c;" 
d="M174 668l66 27l14 -16c-27 -59 -63 -165 -74 -241c-45 -5 -97 -18 -132 -33l-14 13c27 62 89 172 140 250zM386 668l66 27l14 -16c-27 -59 -63 -165 -74 -241c-45 -5 -97 -18 -132 -33l-14 13c27 62 89 172 140 250z" />
    <glyph glyph-name="guillemotleft" unicode="&#xab;" 
d="M234 438l27 -22l-110 -173l110 -179l-27 -20c-55 56 -135 136 -198 187v25c55 48 139 122 198 182zM436 438l27 -22l-110 -173l110 -179l-27 -20c-55 56 -135 136 -198 187v25c55 48 139 122 198 182z" />
    <glyph glyph-name="guilsinglleft" unicode="&#x2039;" horiz-adv-x="389" 
d="M280 438l27 -22l-110 -173l110 -179l-27 -20c-55 56 -135 136 -198 187v25c55 48 139 122 198 182z" />
    <glyph glyph-name="guilsinglright" unicode="&#x203a;" horiz-adv-x="389" 
d="M82 416l27 22c59 -60 143 -134 198 -182v-25c-63 -51 -143 -131 -198 -187l-27 20l110 179z" />
    <glyph glyph-name="fi" unicode="&#xfb01;" horiz-adv-x="611" 
d="M524 470v-370c0 -24 1 -37 4 -47s11 -15 32 -17l35 -2v-37c-43 1 -85 3 -135 3c-44 0 -86 -2 -129 -3v37l35 2c21 2 29 7 32 17s4 23 4 47v226c0 48 -12 65 -38 65h-31l-7 -19h-111v-272c0 -24 1 -37 4 -47s15 -16 36 -17l35 -2v-37c-47 1 -89 3 -139 3
c-44 0 -86 -2 -141 -3v37l41 2c21 1 35 7 38 17s4 23 4 47v272l-79 -5v24c28 13 55 28 79 45v43c0 79 5 95 55 137l74 62c47 39 68 42 94 42c14 0 27 -2 41 -6v-97l-16 -7c-19 12 -42 24 -63 24c-62 0 -63 -40 -63 -92v-108h111c43 0 81 4 118 15l72 22zM472 706
c42 0 75 -32 75 -76c0 -41 -35 -74 -75 -74s-75 33 -75 74c0 44 33 76 75 76z" />
    <glyph glyph-name="fl" unicode="&#xfb02;" horiz-adv-x="611" 
d="M400 100v468c0 57 -2 67 -26 70l-27 3v-33l-15 -4c-10 14 -34 30 -55 30c-47 0 -55 -40 -55 -92v-108c35 0 81 2 121 4l4 -8l-11 -58h-114v-272c0 -24 1 -37 4 -47s25 -15 46 -17l25 -2v-37c-47 1 -89 3 -139 3c-44 0 -86 -2 -141 -3v37l41 2c21 1 35 7 38 17s4 23 4 47
v272l-79 -5v24c28 13 55 28 79 45v43c0 79 5 95 55 137l74 62c47 39 68 42 88 42c13 0 22 -2 30 -3v-37c36 5 71 9 106 20l61 20l8 -6v-614c0 -24 1 -37 4 -47s11 -15 32 -17l35 -2v-37c-43 1 -85 3 -135 3c-44 0 -86 -2 -129 -3v37l35 2c21 2 29 7 32 17s4 23 4 47z" />
    <glyph glyph-name="endash" unicode="&#x2013;" 
d="M500 208h-500v83h500v-83z" />
    <glyph glyph-name="dagger" unicode="&#x2020;" 
d="M196 462l-16 213l6 7c22 -1 43 -3 65 -3s43 2 65 3l5 -7l-16 -213l164 8l3 -6c-1 -15 -3 -31 -3 -46c0 -16 2 -31 3 -47l-3 -6l-164 8l18 -374l-5 -5c-22 1 -45 3 -67 3s-45 -2 -67 -3l-6 5l18 374l-164 -8l-3 6c1 16 3 31 3 47c0 15 -2 31 -3 46l3 6z" />
    <glyph glyph-name="daggerdbl" unicode="&#x2021;" 
d="M189 220l14 183l-164 -9l-7 5c1 15 3 30 3 45s-2 30 -3 45l7 5l164 -10l-16 193l8 5c19 -1 38 -3 57 -3c15 0 34 2 53 3l8 -5l-16 -193l164 10l7 -5c-1 -15 -3 -30 -3 -45s2 -30 3 -45l-7 -5l-164 9l14 -183l-14 -189l164 10l7 -5c-1 -15 -3 -30 -3 -45s2 -30 3 -45
l-7 -5l-164 9l16 -190l-8 -5c-18 1 -37 3 -55 3s-37 -2 -55 -3l-8 5l16 190l-164 -9l-7 5c1 15 3 30 3 45s-2 30 -3 45l7 5l164 -10z" />
    <glyph glyph-name="periodcentered" unicode="&#xb7;" horiz-adv-x="250" 
d="M125 335c41 0 78 -37 78 -80c0 -38 -36 -76 -78 -76c-41 0 -78 34 -78 76s37 80 78 80z" />
    <glyph glyph-name="paragraph" unicode="&#xb6;" horiz-adv-x="641" 
d="M280 -54v378c-97 0 -261 67 -261 207c0 84 84 159 222 152c30 -1 60 -3 90 -4c29 0 59 -1 89 -1c60 0 119 2 179 3v-41h-47c-30 0 -38 -24 -38 -77v-617c0 -24 1 -37 4 -47s11 -16 32 -17l49 -2v-41c-67 1 -135 3 -202 3s-135 -2 -202 -3v41l49 2c21 1 29 7 32 17
s4 23 4 47zM426 634h-58v-745h58v745zM280 371v263c-50 7 -130 -25 -130 -123c0 -74 60 -128 130 -140z" />
    <glyph glyph-name="bullet" unicode="&#x2022;" horiz-adv-x="606" 
d="M131 344c0 94 78 172 172 172s172 -78 172 -172s-78 -172 -172 -172s-172 78 -172 172z" />
    <glyph glyph-name="quotesinglbase" unicode="&#x201a;" horiz-adv-x="333" 
d="M136 -133l-66 -27l-14 16c27 59 63 165 74 241c45 5 97 18 132 33l14 -13c-27 -62 -89 -172 -140 -250z" />
    <glyph glyph-name="quotedblbase" unicode="&#x201e;" 
d="M114 -133l-66 -27l-14 16c27 59 63 165 74 241c45 5 97 18 132 33l14 -13c-27 -62 -89 -172 -140 -250zM326 -133l-66 -27l-14 16c27 59 63 165 74 241c45 5 97 18 132 33l14 -13c-27 -62 -89 -172 -140 -250z" />
    <glyph glyph-name="quotedblright" unicode="&#x201d;" 
d="M114 432l-66 -27l-14 16c27 59 63 165 74 241c45 5 97 18 132 33l14 -13c-27 -62 -89 -172 -140 -250zM326 432l-66 -27l-14 16c27 59 63 165 74 241c45 5 97 18 132 33l14 -13c-27 -62 -89 -172 -140 -250z" />
    <glyph glyph-name="guillemotright" unicode="&#xbb;" 
d="M37 416l27 22c59 -60 143 -134 198 -182v-25c-63 -51 -143 -131 -198 -187l-27 20l110 179zM239 416l27 22c59 -60 143 -134 198 -182v-25c-63 -51 -143 -131 -198 -187l-27 20l110 179z" />
    <glyph glyph-name="ellipsis" unicode="&#x2026;" horiz-adv-x="1000" 
d="M167 144c41 0 78 -37 78 -80c0 -38 -36 -76 -78 -76c-41 0 -78 34 -78 76s37 80 78 80zM500 144c41 0 78 -37 78 -80c0 -38 -36 -76 -78 -76c-41 0 -78 34 -78 76s37 80 78 80zM833 144c41 0 78 -37 78 -80c0 -38 -36 -76 -78 -76c-41 0 -78 34 -78 76s37 80 78 80z" />
    <glyph glyph-name="perthousand" unicode="&#x2030;" horiz-adv-x="1000" 
d="M180 700c86 0 147 -59 147 -168c0 -102 -71 -155 -147 -155s-147 53 -147 155c0 109 61 168 147 168zM180 671c-38 0 -54 -32 -54 -137c0 -104 29 -128 54 -128s54 24 54 128c0 105 -16 137 -54 137zM506 323c86 0 147 -59 147 -168c0 -102 -71 -155 -147 -155
s-147 53 -147 155c0 109 61 168 147 168zM506 294c-38 0 -54 -32 -54 -137c0 -104 29 -128 54 -128s54 24 54 128c0 105 -16 137 -54 137zM835 323c86 0 147 -59 147 -168c0 -102 -71 -155 -147 -155s-147 53 -147 155c0 109 61 168 147 168zM835 294
c-38 0 -54 -32 -54 -137c0 -104 29 -128 54 -128s54 24 54 128c0 105 -16 137 -54 137zM170 -9h-51l403 733h51z" />
    <glyph glyph-name="questiondown" unicode="&#xbf;" horiz-adv-x="444" 
d="M366 -41l35 -9c-18 -54 -30 -98 -32 -133c-48 -35 -99 -48 -149 -48c-93 0 -187 47 -187 153c0 67 22 97 71 138l77 64c71 59 70 94 53 128l-1 2l34 14c19 -22 26 -50 26 -78c0 -38 -31 -83 -76 -135c-23 -27 -50 -68 -50 -105c0 -51 43 -85 92 -85c37 0 69 8 76 23z
M250 471c41 0 78 -37 78 -80c0 -38 -36 -76 -78 -76c-41 0 -78 34 -78 76s37 80 78 80z" />
    <glyph glyph-name="grave" unicode="`" horiz-adv-x="333" 
d="M200 506l-131 81c-24 15 -51 27 -51 60c0 24 15 44 43 44c30 0 46 -15 66 -37l129 -148h-56z" />
    <glyph glyph-name="acute" unicode="&#xb4;" horiz-adv-x="333" 
d="M265 587l-131 -81h-56l129 148c20 22 36 37 66 37c28 0 43 -20 43 -44c0 -33 -27 -45 -51 -60z" />
    <glyph glyph-name="circumflex" unicode="&#x2c6;" horiz-adv-x="333" 
d="M119 681h93l123 -175h-57l-112 98l-113 -98h-55z" />
    <glyph glyph-name="tilde" unicode="&#x2dc;" horiz-adv-x="333" 
d="M306 661h43c-15 -63 -48 -126 -121 -126c-25 0 -54 12 -81 25s-54 24 -76 24c-26 0 -41 -26 -47 -48h-40c1 36 33 125 118 125c28 0 53 -12 78 -24s50 -24 74 -24c32 0 40 22 52 48z" />
    <glyph glyph-name="macron" unicode="&#xaf;" horiz-adv-x="333" 
d="M332 538h-331v71h331v-71z" />
    <glyph glyph-name="breve" unicode="&#x2d8;" horiz-adv-x="333" 
d="M15 669h44c9 -61 49 -87 109 -87c72 0 104 58 106 85v2h44c-3 -94 -52 -163 -151 -163s-153 68 -152 163z" />
    <glyph glyph-name="dotaccent" unicode="&#x2d9;" horiz-adv-x="333" 
d="M167 671c37 0 67 -30 67 -67s-30 -67 -67 -67s-67 30 -67 67s30 67 67 67z" />
    <glyph glyph-name="dieresis" unicode="&#xa8;" horiz-adv-x="333" 
d="M274 671c37 0 67 -30 67 -67s-30 -67 -67 -67s-67 30 -67 67s30 67 67 67zM59 671c37 0 67 -30 67 -67s-30 -67 -67 -67s-67 30 -67 67s30 67 67 67z" />
    <glyph glyph-name="ring" unicode="&#x2da;" horiz-adv-x="333" 
d="M167 700c55 0 100 -45 100 -100s-45 -100 -100 -100s-100 45 -100 100s45 100 100 100zM167 650c-28 0 -50 -22 -50 -50s22 -50 50 -50s50 22 50 50s-22 50 -50 50z" />
    <glyph glyph-name="cedilla" unicode="&#xb8;" horiz-adv-x="333" 
d="M122 -103l43 96h41l-28 -64c17 4 31 6 43 6c58 0 79 -35 79 -75c0 -70 -86 -85 -139 -85c-25 0 -65 9 -88 18l16 37c53 -12 117 -20 117 28c0 32 -26 41 -74 31z" />
    <glyph glyph-name="hungarumlaut" unicode="&#x2dd;" horiz-adv-x="333" 
d="M152 506l128 148c20 24 34 37 66 37c25 0 44 -20 44 -44c0 -21 -6 -32 -19 -40l-165 -101h-54zM-56 506l128 148c20 24 34 37 66 37c25 0 44 -20 44 -44c0 -21 -6 -32 -19 -40l-165 -101h-54z" />
    <glyph glyph-name="ogonek" unicode="&#x2db;" horiz-adv-x="333" 
d="M268 -189l6 -26c-24 -20 -72 -31 -110 -31s-104 15 -104 100c0 77 46 113 94 129h38c-36 -36 -56 -79 -56 -113c0 -40 18 -74 68 -74c16 0 42 6 64 15z" />
    <glyph glyph-name="caron" unicode="&#x2c7;" horiz-adv-x="333" 
d="M212 510h-93l-121 175h55l113 -98l112 98h57z" />
    <glyph glyph-name="emdash" unicode="&#x2014;" horiz-adv-x="1000" 
d="M1000 208h-1000v83h1000v-83z" />
    <glyph glyph-name="AE" unicode="&#xc6;" horiz-adv-x="1000" 
d="M501 95v119h-260l-62 -107c-10 -17 -19 -35 -19 -55c0 -4 10 -14 24 -15l54 -3v-37c-41 1 -82 3 -123 3c-33 0 -66 -2 -103 -3v37l38 3c20 2 39 32 54 57l290 490c11 18 17 31 17 40s-19 15 -43 17l-52 3v37c84 -1 170 -3 256 -3c94 0 162 2 219 3c56 1 100 1 146 -3
l6 -7l-14 -142h-36l-8 75c-2 15 -69 19 -115 19c-43 0 -86 -1 -128 -3v-240c23 -2 45 -2 67 -2h66c35 0 55 2 57 21l6 57h40c-1 -36 -3 -71 -3 -107s2 -72 3 -108h-40l-6 50c-3 28 -22 37 -57 37h-66c-22 0 -44 -1 -67 -3v-267c42 -2 85 -3 128 -3c46 0 120 9 122 17l23 94
h39l-11 -158l-5 -8c-65 -5 -181 -5 -246 -3c-41 1 -82 3 -123 3c-43 0 -86 -2 -120 -3v23l32 18c16 9 20 26 20 57zM271 267h230v339c0 6 -3 12 -7 17h-7z" />
    <glyph glyph-name="ordfeminine" unicode="&#xaa;" horiz-adv-x="438" 
d="M188 532l57 10c0 42 -19 71 -68 71c-17 0 -34 -3 -36 -8l-14 -30l-22 4v39l77 37c8 4 20 5 31 5c61 0 111 -23 111 -88v-148c0 -15 5 -23 18 -24l19 -2v-22c-20 0 -38 1 -57 1c-18 0 -36 -1 -59 -1l-3 4l3 38l-60 -44c-10 -7 -24 -7 -36 -7c-48 0 -72 31 -72 73
c0 24 7 50 30 64c24 15 53 22 81 28zM245 446v71l-29 -7c-35 -9 -60 -16 -60 -55c0 -25 16 -36 35 -36c20 0 46 16 54 27z" />
    <glyph glyph-name="Lslash" unicode="&#x141;" horiz-adv-x="611" 
d="M265 543v-135l115 64l14 -40l-129 -72v-302c42 -2 85 -3 128 -3c46 0 120 9 122 17l23 102h39l-11 -166l-5 -8c-65 -5 -181 -5 -246 -3c-41 1 -82 3 -123 3c-42 0 -83 -2 -120 -3v23l32 18c16 9 20 26 20 57v187l-94 -52l-14 40l108 60v213c0 42 -1 69 -7 81
c-4 8 -15 12 -41 14l-37 3v40c41 -1 96 -3 156 -3c59 0 114 2 155 3v-40l-37 -3c-26 -2 -37 -6 -41 -14c-6 -12 -7 -39 -7 -81z" />
    <glyph glyph-name="Oslash" unicode="&#xd8;" horiz-adv-x="833" 
d="M160 62l-90 -82l-38 40l91 83c-59 63 -76 137 -76 230c0 236 151 362 380 362c107 0 198 -28 255 -78l89 81l37 -39l-89 -82c55 -72 68 -143 68 -232c0 -236 -151 -362 -380 -362c-113 0 -203 31 -247 79zM222 192l370 342c-41 78 -97 105 -165 105
c-186 0 -230 -139 -230 -289c0 -47 5 -116 25 -158zM615 481l-373 -343c47 -72 99 -99 165 -99c186 0 230 138 230 288c0 44 -3 113 -22 154z" />
    <glyph glyph-name="OE" unicode="&#x152;" horiz-adv-x="1000" 
d="M43 344c0 242 139 351 372 351c36 0 72 -6 109 -10c30 -3 58 -7 79 -7c94 0 162 2 219 3c56 1 100 1 146 -3l6 -7l-14 -142h-36l-8 75c-2 15 -69 19 -115 19c-43 0 -86 -1 -128 -3v-240c23 -2 45 -2 67 -2h66c35 0 55 2 57 21l6 57h40c-1 -36 -3 -71 -3 -107
s2 -72 3 -108h-40l-6 50c-3 28 -22 37 -57 37h-66c-22 0 -44 -1 -67 -3v-267c42 -2 85 -3 128 -3c46 0 120 9 122 17l23 94h39l-11 -158l-5 -8c-65 -5 -181 -5 -246 -3c-41 1 -82 3 -123 3c-33 0 -66 -1 -99 -6s-66 -11 -99 -11c-228 0 -359 134 -359 361zM532 75v519
c-42 30 -80 45 -122 45c-172 0 -217 -127 -217 -283c0 -145 47 -317 219 -317c36 0 79 6 120 36z" />
    <glyph glyph-name="ordmasculine" unicode="&#xba;" horiz-adv-x="488" 
d="M248 660c99 0 151 -51 151 -140c0 -97 -57 -153 -165 -153c-100 0 -145 61 -145 145c0 93 55 148 159 148zM249 396c57 0 62 61 62 99c0 42 -1 136 -69 136c-61 0 -65 -62 -65 -104c0 -44 5 -131 72 -131z" />
    <glyph glyph-name="ae" unicode="&#xe6;" horiz-adv-x="778" 
d="M522 415c-58 0 -86 -45 -86 -139c28 -1 56 -3 84 -3s56 2 84 3c0 59 -8 139 -82 139zM573 223h-131c0 -97 55 -169 159 -169c33 0 76 16 108 35l12 -15l-22 -48c-60 -32 -101 -43 -160 -43c-74 0 -149 22 -195 95l-114 -82c-9 -7 -44 -13 -59 -13c-74 0 -125 51 -125 121
c0 48 16 92 52 110c45 22 90 34 133 43l88 18c0 70 -29 125 -109 125c-24 0 -48 -8 -70 -24l-16 -42l-32 4v67l53 32c43 26 84 34 116 34c67 0 104 -12 144 -52c38 34 87 52 143 52c97 0 183 -59 183 -176v-52c-54 -15 -114 -20 -158 -20zM319 115v114l-55 -13
c-43 -10 -92 -30 -92 -88c0 -40 22 -58 64 -58c30 0 71 26 83 45z" />
    <glyph glyph-name="dotlessi" unicode="&#x131;" horiz-adv-x="333" 
d="M105 100v219c0 57 -2 68 -26 70l-45 3v36c38 5 76 9 113 21l70 22l10 -6v-365c0 -24 1 -37 4 -47s11 -15 32 -17l35 -2v-37c-43 1 -85 3 -135 3c-44 0 -86 -2 -129 -3v37l35 2c21 2 29 7 32 17s4 23 4 47z" />
    <glyph glyph-name="lslash" unicode="&#x142;" horiz-adv-x="333" 
d="M225 714v-268l95 62l14 -34l-109 -71v-303c0 -24 1 -37 4 -47s11 -15 32 -17l35 -2v-37c-43 1 -85 3 -135 3c-44 0 -86 -2 -129 -3v37l35 2c21 2 29 7 32 17s4 23 4 47v224l-93 -60l-14 34l107 69v201c0 57 -2 68 -26 70l-53 3v36c46 5 84 10 121 21l72 22z" />
    <glyph glyph-name="oslash" unicode="&#xf8;" horiz-adv-x="556" 
d="M510 468l24 -22l-60 -56c36 -48 43 -93 43 -153c0 -161 -87 -254 -253 -254c-37 0 -100 7 -157 57l-61 -58l-23 23l63 59c-27 30 -46 91 -46 161c0 155 85 246 245 246c78 0 136 -22 169 -57zM184 158l184 175c-13 47 -36 90 -92 90c-94 0 -100 -104 -100 -174
c0 -18 2 -51 8 -91zM374 294l-184 -175c18 -52 46 -88 96 -88c88 0 95 101 95 165c0 56 -1 72 -7 98z" />
    <glyph glyph-name="oe" unicode="&#x153;" horiz-adv-x="833" 
d="M590 415c-58 0 -86 -45 -86 -139c28 -1 56 -3 84 -3s56 2 84 3c0 59 -8 139 -82 139zM641 223h-131c0 -97 55 -169 159 -169c33 0 76 16 108 35l12 -15l-22 -48c-60 -32 -101 -43 -160 -43c-50 0 -119 15 -159 64c-43 -44 -108 -64 -176 -64c-154 0 -224 101 -224 242
c0 155 85 246 245 246c59 0 119 -10 169 -57c46 36 96 57 154 57c97 0 183 -59 183 -176v-52c-54 -15 -114 -20 -158 -20zM294 31c88 0 95 101 95 165c0 70 -1 227 -105 227c-94 0 -100 -104 -100 -174c0 -73 7 -218 110 -218z" />
    <glyph glyph-name="germandbls" unicode="&#xdf;" horiz-adv-x="611" 
d="M105 100v268h-71v23l69 45v73c0 43 33 88 99 140c56 44 98 71 171 71c87 0 148 -54 148 -143c0 -49 -13 -99 -24 -146l-6 -26l-13 -9c-15 13 -35 19 -54 19c-23 0 -49 -11 -49 -38c0 -37 36 -52 57 -64l79 -46c37 -21 54 -50 54 -93c0 -55 -14 -78 -52 -114l-45 -42
c-8 -8 -17 -16 -28 -20c-18 -7 -52 -15 -79 -15c-24 0 -56 12 -72 21v-7c-34 1 -76 3 -120 3c-43 0 -86 -2 -139 -3v37l39 2c21 1 29 7 32 17s4 23 4 47zM227 470v-371c0 -31 0 -60 32 -62l29 -3l9 78l33 6l4 -54c21 -14 39 -24 65 -24c34 0 66 24 66 60c0 44 -44 67 -88 94
s-89 56 -89 112c0 64 35 96 81 134c19 16 45 28 72 26c3 22 7 44 7 66c0 66 -41 121 -111 121c-43 0 -91 -22 -102 -68c-8 -34 -8 -80 -8 -115z" />
    <glyph glyph-name="onesuperior" unicode="&#xb9;" horiz-adv-x="300" 
d="M120 338v235c0 13 0 27 -10 22l-87 -39c-7 23 -10 36 -9 48c47 11 138 41 198 61l8 -5c-2 -30 -7 -60 -7 -90v-232c0 -31 17 -44 37 -45l37 -2v-30c-59 1 -87 2 -115 2s-56 -1 -132 -2v30l42 2c21 1 38 14 38 45z" />
    <glyph glyph-name="logicalnot" unicode="&#xac;" horiz-adv-x="606" 
d="M469 114v196h-418v86h504v-282h-86z" />
    <glyph glyph-name="mu" unicode="&#xb5;" horiz-adv-x="611" 
d="M514 465v-365c0 -24 1 -37 4 -47s11 -15 32 -17l33 -2v-37c-41 1 -83 3 -111 3c-17 0 -45 -2 -85 -3l5 83l-85 -85c-12 -12 -39 -12 -56 -12c-31 0 -59 7 -81 23c9 -55 16 -120 16 -156c0 -42 -50 -75 -90 -75v544c0 57 -2 68 -26 70l-45 3v36c38 5 76 9 113 21l70 22
l10 -6v-261c0 -65 4 -131 81 -131c34 0 66 22 84 51c7 11 9 26 9 39v156c0 57 -2 68 -26 70l-45 3v36c38 5 76 9 113 21l70 22z" />
    <glyph glyph-name="trademark" unicode="&#x2122;" horiz-adv-x="998" 
d="M912 618v-269c0 -42 4 -46 49 -49v-26h-173v26c45 1 51 5 51 48v278h-2l-143 -352h-10l-149 352h-2v-294c0 -31 17 -31 50 -32v-26h-131v26c37 1 50 2 50 34v284c0 27 4 36 -27 36h-15v24h132l118 -279l118 279h133v-24h-19c-31 0 -30 -10 -30 -36zM318 274h-197v26
c49 0 64 18 64 45v301h-44c-54 0 -72 -16 -73 -70h-30v102h367v-102h-30c-1 54 -19 70 -73 70h-44v-310c0 -20 11 -36 60 -36v-26z" />
    <glyph glyph-name="Eth" unicode="&#xd0;" horiz-adv-x="833" 
d="M120 380v163c0 42 -1 69 -7 81c-5 10 -15 15 -41 17l-37 3v37c66 -1 117 -3 156 -3c65 0 169 3 257 3c215 0 338 -88 338 -312c0 -242 -202 -376 -416 -372c-50 1 -99 3 -149 3s-99 -2 -153 -3v23l32 18c16 9 20 26 20 57v243h-110v42h110zM261 627v-247h151v-42h-151
v-281c29 -5 58 -5 86 -5c199 0 289 98 289 298c0 198 -86 281 -314 281c-20 0 -40 -1 -61 -4z" />
    <glyph glyph-name="onehalf" unicode="&#xbd;" horiz-adv-x="750" 
d="M115 338v235c0 13 0 27 -10 22l-87 -39c-7 23 -10 36 -9 48c47 11 138 41 198 61l8 -5c-2 -30 -7 -60 -7 -90v-232c0 -31 17 -44 37 -45l37 -2v-30c-59 1 -87 2 -115 2s-56 -1 -132 -2v30l42 2c21 1 38 14 38 45zM455 -2v37l108 101c34 32 70 76 70 127
c0 43 -29 66 -66 66c-35 0 -50 -10 -59 -41l-10 -33l-28 4l12 101c31 23 66 37 102 37c82 0 141 -41 141 -107c0 -44 -31 -92 -67 -125l-96 -90v-8l178 9l5 -5c-2 -26 -2 -52 0 -73c-63 1 -109 2 -145 2c-37 0 -84 -1 -145 -2zM224 0h-69l403 660h69z" />
    <glyph glyph-name="plusminus" unicode="&#xb1;" horiz-adv-x="606" 
d="M260 358v147h86v-147h209v-86h-209v-147h-86v147h-209v86h209zM51 0v86h504v-86h-504z" />
    <glyph glyph-name="Thorn" unicode="&#xde;" horiz-adv-x="611" 
d="M265 487v-352c-2 -42 1 -69 7 -81c4 -8 15 -12 41 -14l47 -3v-40c-51 1 -106 3 -165 3c-60 0 -115 -2 -156 -3v40l37 3c26 2 37 6 41 14c6 12 7 39 7 81v408c0 42 -1 69 -7 81c-5 10 -15 15 -41 17l-37 3v37c41 -1 96 -3 156 -3c59 0 114 2 155 3v-37l-37 -3
c-26 -2 -36 -7 -41 -17c-6 -12 -7 -39 -7 -75c18 -2 36 -3 82 -3c111 0 227 -12 227 -148c0 -133 -103 -214 -201 -214c-27 0 -47 5 -62 7l-17 35l10 10c14 -5 30 -7 56 -7c50 0 70 55 70 117c0 92 -22 150 -83 150c-35 0 -66 -1 -82 -9z" />
    <glyph glyph-name="onequarter" unicode="&#xbc;" horiz-adv-x="750" 
d="M489 152h106v174h-3zM440 99l-4 23c10 23 19 48 31 68l78 129c13 22 31 46 50 68l76 16l8 -7v-244h54v-53h-54v-24c0 -31 16 -43 37 -45l19 -2v-30c-42 1 -69 2 -98 2c-28 0 -56 -1 -117 -2v30l38 2c20 1 37 14 37 45v24h-155zM125 338v235c0 13 0 27 -10 22l-87 -39
c-7 23 -10 36 -9 48c47 11 138 41 198 61l8 -5c-2 -30 -7 -60 -7 -90v-232c0 -31 17 -44 37 -45l37 -2v-30c-59 1 -87 2 -115 2s-56 -1 -132 -2v30l42 2c21 1 38 14 38 45zM257 0h-69l403 660h69z" />
    <glyph glyph-name="divide" unicode="&#xf7;" horiz-adv-x="606" 
d="M51 212v86h504v-86h-504zM303 376c-37 0 -67 30 -67 67s30 67 67 67s67 -30 67 -67s-30 -67 -67 -67zM303 0c-37 0 -67 30 -67 67s30 67 67 67s67 -30 67 -67s-30 -67 -67 -67z" />
    <glyph glyph-name="brokenbar" unicode="&#xa6;" horiz-adv-x="606" 
d="M260 720h86v-288h-86v288zM260 0v288h86v-288h-86z" />
    <glyph glyph-name="degree" unicode="&#xb0;" horiz-adv-x="400" 
d="M200 660c82 0 150 -68 150 -150c0 -83 -68 -150 -150 -150c-83 0 -150 67 -150 150c-1 82 67 150 150 150zM198 599c-47 0 -88 -40 -87 -89c0 -49 40 -89 89 -89s89 40 89 89s-40 89 -91 89z" />
    <glyph glyph-name="thorn" unicode="&#xfe;" horiz-adv-x="611" 
d="M218 331v-225c23 -35 60 -55 102 -55c93 0 117 100 117 175c0 80 -35 155 -125 155c-36 0 -76 -19 -94 -50zM96 -155v723c0 57 -2 68 -26 70l-53 3v36c46 5 84 10 121 21l72 22l8 -6v-331l61 49c25 20 52 39 104 39c106 0 180 -81 180 -186c0 -41 -10 -82 -23 -115
c-17 -44 -48 -79 -73 -98c-24 -18 -50 -40 -78 -58c-33 -21 -58 -31 -82 -31c-31 0 -62 9 -89 17v-155c0 -24 1 -37 4 -47s11 -16 32 -17l45 -2v-37c-53 1 -95 3 -145 3c-44 0 -86 -2 -129 -3v37l35 2c21 2 29 7 32 17s4 23 4 47z" />
    <glyph glyph-name="threequarters" unicode="&#xbe;" horiz-adv-x="750" 
d="M489 152h106v174h-3zM440 99l-4 23c10 23 19 48 31 68l78 129c13 22 31 46 50 68l76 16l8 -7v-244h54v-53h-54v-24c0 -31 16 -43 37 -45l19 -2v-30c-42 1 -69 2 -98 2c-28 0 -56 -1 -117 -2v30l38 2c20 1 37 14 37 45v24h-155zM229 0h-69l403 660h69zM15 365l22 5
c20 -44 48 -72 100 -72c45 0 80 38 80 76c0 45 -31 75 -81 75c-14 0 -27 -2 -40 -5l-5 3l13 44h22c41 0 74 21 74 65c0 31 -25 50 -66 50c-46 0 -66 -31 -73 -58h-26l20 92c32 18 64 27 98 27c70 0 119 -35 119 -84c0 -41 -33 -71 -71 -87v-2c56 -3 97 -33 97 -87
c0 -46 -20 -79 -59 -107c-34 -25 -79 -39 -123 -39c-29 0 -59 3 -85 14c-3 28 -11 63 -16 90z" />
    <glyph glyph-name="twosuperior" unicode="&#xb2;" horiz-adv-x="300" 
d="M5 261v37l108 101c34 32 70 76 70 127c0 43 -29 66 -66 66c-35 0 -50 -10 -59 -41l-10 -33l-28 4l12 101c31 23 66 37 102 37c82 0 141 -41 141 -107c0 -44 -31 -92 -67 -125l-96 -90v-8l178 9l5 -5c-2 -26 -2 -52 0 -73c-63 1 -109 2 -145 2c-37 0 -84 -1 -145 -2z" />
    <glyph glyph-name="registered" unicode="&#xae;" horiz-adv-x="747" 
d="M372 695c192 0 348 -159 348 -357c0 -196 -156 -355 -348 -355c-191 0 -346 159 -346 355c0 197 155 357 346 357zM372 639c-161 0 -290 -134 -290 -300c0 -165 130 -300 290 -300c161 0 292 135 292 300c0 167 -130 300 -292 300zM324 331v-122c0 -21 3 -29 26 -30
l17 -1v-20h-156v20h14c23 0 30 1 30 27v285c0 25 -3 29 -28 29h-15v21h152c34 0 78 2 108 -17c24 -15 41 -48 41 -76c0 -59 -45 -94 -97 -102v-2c41 -7 61 -53 77 -88c8 -17 21 -46 32 -62c8 -11 15 -15 32 -15v-20h-68c-14 0 -25 8 -31 16c-10 14 -23 44 -36 74
s-26 58 -35 69c-13 16 -31 14 -48 14h-15zM324 479v-123l19 -1c57 -3 100 16 100 83c0 54 -30 82 -81 80l-21 -1c-20 -1 -17 -24 -17 -38z" />
    <glyph glyph-name="minus" unicode="&#x2212;" horiz-adv-x="606" 
d="M51 212v86h504v-86h-504z" />
    <glyph glyph-name="eth" unicode="&#xf0;" horiz-adv-x="556" 
d="M285 31c88 0 96 121 96 185c0 70 -2 207 -106 207c-94 0 -99 -104 -99 -174c0 -73 6 -218 109 -218zM474 663l-116 -54c93 -86 162 -205 159 -348c-3 -159 -87 -278 -253 -278c-154 0 -224 101 -224 242c0 155 90 246 235 246c23 0 37 -3 55 -9c-8 34 -31 72 -61 106
l-133 -62l-18 38l121 56c-29 29 -63 53 -95 68l40 52c54 -26 97 -49 138 -81l134 62z" />
    <glyph glyph-name="multiply" unicode="&#xd7;" horiz-adv-x="606" 
d="M241 253l-168 169l61 61l168 -169l169 169l61 -61l-169 -169l171 -171l-61 -61l-171 171l-169 -171l-61 61z" />
    <glyph glyph-name="threesuperior" unicode="&#xb3;" horiz-adv-x="300" 
d="M9 365l22 5c20 -44 48 -72 100 -72c45 0 80 38 80 76c0 45 -31 75 -81 75c-14 0 -27 -2 -40 -5l-5 3l13 44h22c41 0 74 21 74 65c0 31 -25 50 -66 50c-46 0 -66 -31 -73 -58h-26l20 92c32 18 64 27 98 27c70 0 119 -35 119 -84c0 -41 -33 -71 -71 -87v-2
c56 -3 97 -33 97 -87c0 -46 -20 -79 -59 -107c-34 -25 -79 -39 -123 -39c-29 0 -59 3 -85 14c-3 28 -11 63 -16 90z" />
    <glyph glyph-name="copyright" unicode="&#xa9;" horiz-adv-x="747" 
d="M372 695c192 0 348 -159 348 -357c0 -196 -156 -355 -348 -355c-191 0 -346 159 -346 355c0 197 155 357 346 357zM372 639c-161 0 -290 -134 -290 -300c0 -165 130 -300 290 -300c161 0 292 135 292 300c0 167 -130 300 -292 300zM519 507v-104h-32c-8 53 -38 97 -96 97
c-81 0 -118 -76 -118 -149c0 -78 35 -175 128 -175c36 0 77 17 96 50l8 14l26 -11c-25 -62 -96 -92 -159 -92c-112 0 -184 84 -184 196c0 118 79 202 195 202c29 0 43 -4 70 -10c22 -5 46 -10 66 -18z" />
    <glyph glyph-name="Aacute" unicode="&#xc1;" horiz-adv-x="778" 
d="M469 206h-251l-42 -112c-14 -38 6 -56 24 -57l50 -3v-37c-48 1 -84 3 -113 3s-65 -2 -113 -3v37l30 3c26 3 44 31 56 60l181 438l26 69l16 41l15 41h71l259 -605c11 -25 24 -40 55 -44l24 -3v-37c-67 1 -116 3 -155 3s-89 -2 -155 -3v37l53 3c16 1 27 23 14 55zM342 516
l-100 -254h204zM488 811l-131 -81h-56l129 148c20 22 36 37 66 37c28 0 43 -20 43 -44c0 -33 -27 -45 -51 -60z" />
    <glyph glyph-name="Acircumflex" unicode="&#xc2;" horiz-adv-x="778" 
d="M469 206h-251l-42 -112c-14 -38 6 -56 24 -57l50 -3v-37c-48 1 -84 3 -113 3s-65 -2 -113 -3v37l30 3c26 3 44 31 56 60l181 438l26 69l16 41l15 41h71l259 -605c11 -25 24 -40 55 -44l24 -3v-37c-67 1 -116 3 -155 3s-89 -2 -155 -3v37l53 3c16 1 27 23 14 55zM342 516
l-100 -254h204zM330 905h93l123 -175h-57l-112 98l-113 -98h-55z" />
    <glyph glyph-name="Adieresis" unicode="&#xc4;" horiz-adv-x="778" 
d="M469 206h-251l-42 -112c-14 -38 6 -56 24 -57l50 -3v-37c-48 1 -84 3 -113 3s-65 -2 -113 -3v37l30 3c26 3 44 31 56 60l181 438l26 69l16 41l15 41h71l259 -605c11 -25 24 -40 55 -44l24 -3v-37c-67 1 -116 3 -155 3s-89 -2 -155 -3v37l53 3c16 1 27 23 14 55zM342 516
l-100 -254h204zM497 895c37 0 67 -30 67 -67s-30 -67 -67 -67s-67 30 -67 67s30 67 67 67zM282 895c37 0 67 -30 67 -67s-30 -67 -67 -67s-67 30 -67 67s30 67 67 67z" />
    <glyph glyph-name="Agrave" unicode="&#xc0;" horiz-adv-x="778" 
d="M469 206h-251l-42 -112c-14 -38 6 -56 24 -57l50 -3v-37c-48 1 -84 3 -113 3s-65 -2 -113 -3v37l30 3c26 3 44 31 56 60l181 438l26 69l16 41l15 41h71l259 -605c11 -25 24 -40 55 -44l24 -3v-37c-67 1 -116 3 -155 3s-89 -2 -155 -3v37l53 3c16 1 27 23 14 55zM342 516
l-100 -254h204zM415 730l-131 81c-24 15 -51 27 -51 60c0 24 15 44 43 44c30 0 46 -15 66 -37l129 -148h-56z" />
    <glyph glyph-name="Aring" unicode="&#xc5;" horiz-adv-x="778" 
d="M469 206h-251l-42 -112c-14 -38 6 -56 24 -57l50 -3v-37c-48 1 -84 3 -113 3s-65 -2 -113 -3v37l30 3c26 3 44 31 56 60l181 438l26 69l16 41l15 41h71l259 -605c11 -25 24 -40 55 -44l24 -3v-37c-67 1 -116 3 -155 3s-89 -2 -155 -3v37l53 3c16 1 27 23 14 55zM342 516
l-100 -254h204zM390 924c55 0 100 -45 100 -100s-45 -100 -100 -100s-100 45 -100 100s45 100 100 100zM390 874c-28 0 -50 -22 -50 -50s22 -50 50 -50s50 22 50 50s-22 50 -50 50z" />
    <glyph glyph-name="Atilde" unicode="&#xc3;" horiz-adv-x="778" 
d="M469 206h-251l-42 -112c-14 -38 6 -56 24 -57l50 -3v-37c-48 1 -84 3 -113 3s-65 -2 -113 -3v37l30 3c26 3 44 31 56 60l181 438l26 69l16 41l15 41h71l259 -605c11 -25 24 -40 55 -44l24 -3v-37c-67 1 -116 3 -155 3s-89 -2 -155 -3v37l53 3c16 1 27 23 14 55zM342 516
l-100 -254h204zM529 885h43c-15 -63 -48 -126 -121 -126c-25 0 -54 12 -81 25s-54 24 -76 24c-26 0 -41 -26 -47 -48h-40c1 36 33 125 118 125c28 0 53 -12 78 -24s50 -24 74 -24c32 0 40 22 52 48z" />
    <glyph glyph-name="Ccedilla" unicode="&#xc7;" horiz-adv-x="722" 
d="M692 87l-22 -49c-69 -42 -150 -55 -230 -55c-228 0 -396 128 -396 367c0 230 187 345 400 345c82 0 149 -7 245 -47l6 -11c-10 -36 -18 -110 -23 -153h-39l-5 86c-49 51 -112 69 -180 69c-166 0 -254 -118 -254 -276c0 -183 106 -315 295 -315c59 0 140 21 191 51z
M317 -103l43 96h41l-28 -64c17 4 31 6 43 6c58 0 79 -35 79 -75c0 -70 -86 -85 -139 -85c-25 0 -65 9 -88 18l16 37c53 -12 117 -20 117 28c0 32 -26 41 -74 31z" />
    <glyph glyph-name="Eacute" unicode="&#xc9;" horiz-adv-x="611" 
d="M265 620v-240c23 -2 45 -2 67 -2h66c35 0 55 2 57 21l6 57h40c-1 -36 -3 -71 -3 -107s2 -72 3 -108h-40l-6 50c-3 28 -22 37 -57 37h-66c-22 0 -44 -1 -67 -3v-267c42 -2 85 -3 128 -3c46 0 120 9 122 17l23 94h39l-11 -158l-5 -8c-65 -5 -181 -5 -246 -3
c-41 1 -82 3 -123 3c-42 0 -83 -2 -120 -3v23l32 18c16 9 20 26 20 57v448c0 42 -1 69 -7 81c-5 10 -15 15 -41 17l-37 3v37c66 -1 117 -3 156 -3c94 0 162 2 219 3c56 1 100 1 146 -3l6 -7l-14 -142h-36l-8 75c-2 15 -69 19 -115 19c-43 0 -86 -1 -128 -3zM404 811
l-131 -81h-56l129 148c20 22 36 37 66 37c28 0 43 -20 43 -44c0 -33 -27 -45 -51 -60z" />
    <glyph glyph-name="Ecircumflex" unicode="&#xca;" horiz-adv-x="611" 
d="M265 620v-240c23 -2 45 -2 67 -2h66c35 0 55 2 57 21l6 57h40c-1 -36 -3 -71 -3 -107s2 -72 3 -108h-40l-6 50c-3 28 -22 37 -57 37h-66c-22 0 -44 -1 -67 -3v-267c42 -2 85 -3 128 -3c46 0 120 9 122 17l23 94h39l-11 -158l-5 -8c-65 -5 -181 -5 -246 -3
c-41 1 -82 3 -123 3c-42 0 -83 -2 -120 -3v23l32 18c16 9 20 26 20 57v448c0 42 -1 69 -7 81c-5 10 -15 15 -41 17l-37 3v37c66 -1 117 -3 156 -3c94 0 162 2 219 3c56 1 100 1 146 -3l6 -7l-14 -142h-36l-8 75c-2 15 -69 19 -115 19c-43 0 -86 -1 -128 -3zM258 905h93
l123 -175h-57l-112 98l-113 -98h-55z" />
    <glyph glyph-name="Edieresis" unicode="&#xcb;" horiz-adv-x="611" 
d="M265 620v-240c23 -2 45 -2 67 -2h66c35 0 55 2 57 21l6 57h40c-1 -36 -3 -71 -3 -107s2 -72 3 -108h-40l-6 50c-3 28 -22 37 -57 37h-66c-22 0 -44 -1 -67 -3v-267c42 -2 85 -3 128 -3c46 0 120 9 122 17l23 94h39l-11 -158l-5 -8c-65 -5 -181 -5 -246 -3
c-41 1 -82 3 -123 3c-42 0 -83 -2 -120 -3v23l32 18c16 9 20 26 20 57v448c0 42 -1 69 -7 81c-5 10 -15 15 -41 17l-37 3v37c66 -1 117 -3 156 -3c94 0 162 2 219 3c56 1 100 1 146 -3l6 -7l-14 -142h-36l-8 75c-2 15 -69 19 -115 19c-43 0 -86 -1 -128 -3zM413 895
c37 0 67 -30 67 -67s-30 -67 -67 -67s-67 30 -67 67s30 67 67 67zM198 895c37 0 67 -30 67 -67s-30 -67 -67 -67s-67 30 -67 67s30 67 67 67z" />
    <glyph glyph-name="Egrave" unicode="&#xc8;" horiz-adv-x="611" 
d="M265 620v-240c23 -2 45 -2 67 -2h66c35 0 55 2 57 21l6 57h40c-1 -36 -3 -71 -3 -107s2 -72 3 -108h-40l-6 50c-3 28 -22 37 -57 37h-66c-22 0 -44 -1 -67 -3v-267c42 -2 85 -3 128 -3c46 0 120 9 122 17l23 94h39l-11 -158l-5 -8c-65 -5 -181 -5 -246 -3
c-41 1 -82 3 -123 3c-42 0 -83 -2 -120 -3v23l32 18c16 9 20 26 20 57v448c0 42 -1 69 -7 81c-5 10 -15 15 -41 17l-37 3v37c66 -1 117 -3 156 -3c94 0 162 2 219 3c56 1 100 1 146 -3l6 -7l-14 -142h-36l-8 75c-2 15 -69 19 -115 19c-43 0 -86 -1 -128 -3zM339 730l-131 81
c-24 15 -51 27 -51 60c0 24 15 44 43 44c30 0 46 -15 66 -37l129 -148h-56z" />
    <glyph glyph-name="Iacute" unicode="&#xcd;" horiz-adv-x="389" 
d="M265 543v-408c0 -42 1 -69 7 -81c4 -8 15 -12 41 -14l37 -3v-40c-41 1 -96 3 -155 3c-60 0 -115 -2 -156 -3v40l37 3c26 2 37 6 41 14c6 12 7 39 7 81v408c0 42 -1 69 -7 81c-4 8 -15 12 -41 14l-37 3v40c41 -1 96 -3 156 -3c59 0 114 2 155 3v-40l-37 -3
c-26 -2 -37 -6 -41 -14c-6 -12 -7 -39 -7 -81zM293 811l-131 -81h-56l129 148c20 22 36 37 66 37c28 0 43 -20 43 -44c0 -33 -27 -45 -51 -60z" />
    <glyph glyph-name="Icircumflex" unicode="&#xce;" horiz-adv-x="389" 
d="M265 543v-408c0 -42 1 -69 7 -81c4 -8 15 -12 41 -14l37 -3v-40c-41 1 -96 3 -155 3c-60 0 -115 -2 -156 -3v40l37 3c26 2 37 6 41 14c6 12 7 39 7 81v408c0 42 -1 69 -7 81c-4 8 -15 12 -41 14l-37 3v40c41 -1 96 -3 156 -3c59 0 114 2 155 3v-40l-37 -3
c-26 -2 -37 -6 -41 -14c-6 -12 -7 -39 -7 -81zM147 905h93l123 -175h-57l-112 98l-113 -98h-55z" />
    <glyph glyph-name="Idieresis" unicode="&#xcf;" horiz-adv-x="389" 
d="M265 543v-408c0 -42 1 -69 7 -81c4 -8 15 -12 41 -14l37 -3v-40c-41 1 -96 3 -155 3c-60 0 -115 -2 -156 -3v40l37 3c26 2 37 6 41 14c6 12 7 39 7 81v408c0 42 -1 69 -7 81c-4 8 -15 12 -41 14l-37 3v40c41 -1 96 -3 156 -3c59 0 114 2 155 3v-40l-37 -3
c-26 -2 -37 -6 -41 -14c-6 -12 -7 -39 -7 -81zM302 895c37 0 67 -30 67 -67s-30 -67 -67 -67s-67 30 -67 67s30 67 67 67zM87 895c37 0 67 -30 67 -67s-30 -67 -67 -67s-67 30 -67 67s30 67 67 67z" />
    <glyph glyph-name="Igrave" unicode="&#xcc;" horiz-adv-x="389" 
d="M265 543v-408c0 -42 1 -69 7 -81c4 -8 15 -12 41 -14l37 -3v-40c-41 1 -96 3 -155 3c-60 0 -115 -2 -156 -3v40l37 3c26 2 37 6 41 14c6 12 7 39 7 81v408c0 42 -1 69 -7 81c-4 8 -15 12 -41 14l-37 3v40c41 -1 96 -3 156 -3c59 0 114 2 155 3v-40l-37 -3
c-26 -2 -37 -6 -41 -14c-6 -12 -7 -39 -7 -81zM228 730l-131 81c-24 15 -51 27 -51 60c0 24 15 44 43 44c30 0 46 -15 66 -37l129 -148h-56z" />
    <glyph glyph-name="Ntilde" unicode="&#xd1;" horiz-adv-x="833" 
d="M120 135v408c0 42 -1 69 -7 81c-5 10 -15 15 -41 17l-37 3v37c40 -1 80 -3 120 -3c28 0 56 2 84 3c34 -44 67 -91 103 -133l312 -364v359c0 42 -1 69 -7 81c-5 10 -15 15 -41 17l-37 3v37c38 -1 77 -3 115 -3s76 2 114 3v-37l-37 -3c-26 -2 -36 -7 -41 -17
c-6 -12 -7 -39 -7 -81v-454c0 -35 2 -71 3 -101l-7 -4l-82 13c-41 46 -83 93 -122 139l-324 390h-2v-391c0 -42 1 -69 7 -81c5 -10 15 -15 41 -17l37 -3v-37c-38 1 -76 3 -114 3s-77 -2 -115 -3v37l37 3c26 2 36 7 41 17c6 12 7 39 7 81zM556 885h43
c-15 -63 -48 -126 -121 -126c-25 0 -54 12 -81 25s-54 24 -76 24c-26 0 -41 -26 -47 -48h-40c1 36 33 125 118 125c28 0 53 -12 78 -24s50 -24 74 -24c32 0 40 22 52 48z" />
    <glyph glyph-name="Oacute" unicode="&#xd3;" horiz-adv-x="833" 
d="M427 695c224 0 360 -122 360 -350c0 -236 -151 -362 -380 -362c-224 0 -360 122 -360 350c0 236 151 362 380 362zM427 639c-186 0 -230 -139 -230 -289c0 -165 69 -311 210 -311c186 0 230 138 230 288c0 165 -69 312 -210 312zM515 811l-131 -81h-56l129 148
c20 22 36 37 66 37c28 0 43 -20 43 -44c0 -33 -27 -45 -51 -60z" />
    <glyph glyph-name="Ocircumflex" unicode="&#xd4;" horiz-adv-x="833" 
d="M427 695c224 0 360 -122 360 -350c0 -236 -151 -362 -380 -362c-224 0 -360 122 -360 350c0 236 151 362 380 362zM427 639c-186 0 -230 -139 -230 -289c0 -165 69 -311 210 -311c186 0 230 138 230 288c0 165 -69 312 -210 312zM369 905h93l123 -175h-57l-112 98
l-113 -98h-55z" />
    <glyph glyph-name="Odieresis" unicode="&#xd6;" horiz-adv-x="833" 
d="M427 695c224 0 360 -122 360 -350c0 -236 -151 -362 -380 -362c-224 0 -360 122 -360 350c0 236 151 362 380 362zM427 639c-186 0 -230 -139 -230 -289c0 -165 69 -311 210 -311c186 0 230 138 230 288c0 165 -69 312 -210 312zM524 895c37 0 67 -30 67 -67
s-30 -67 -67 -67s-67 30 -67 67s30 67 67 67zM309 895c37 0 67 -30 67 -67s-30 -67 -67 -67s-67 30 -67 67s30 67 67 67z" />
    <glyph glyph-name="Ograve" unicode="&#xd2;" horiz-adv-x="833" 
d="M427 695c224 0 360 -122 360 -350c0 -236 -151 -362 -380 -362c-224 0 -360 122 -360 350c0 236 151 362 380 362zM427 639c-186 0 -230 -139 -230 -289c0 -165 69 -311 210 -311c186 0 230 138 230 288c0 165 -69 312 -210 312zM450 730l-131 81c-24 15 -51 27 -51 60
c0 24 15 44 43 44c30 0 46 -15 66 -37l129 -148h-56z" />
    <glyph glyph-name="Otilde" unicode="&#xd5;" horiz-adv-x="833" 
d="M427 695c224 0 360 -122 360 -350c0 -236 -151 -362 -380 -362c-224 0 -360 122 -360 350c0 236 151 362 380 362zM427 639c-186 0 -230 -139 -230 -289c0 -165 69 -311 210 -311c186 0 230 138 230 288c0 165 -69 312 -210 312zM556 885h43c-15 -63 -48 -126 -121 -126
c-25 0 -54 12 -81 25s-54 24 -76 24c-26 0 -41 -26 -47 -48h-40c1 36 33 125 118 125c28 0 53 -12 78 -24s50 -24 74 -24c32 0 40 22 52 48z" />
    <glyph glyph-name="Scaron" unicode="&#x160;" horiz-adv-x="611" 
d="M72 202h40l7 -88c27 -46 105 -77 157 -77c85 0 157 45 157 132c0 43 -26 76 -83 93l-140 42c-84 25 -146 84 -146 170c0 160 119 221 264 221c62 0 128 -11 186 -34l5 -12c-10 -32 -14 -90 -14 -142h-41l-6 82c-30 34 -86 55 -133 55c-93 0 -137 -54 -137 -121
c0 -45 32 -78 106 -97l114 -30c92 -24 151 -82 151 -172c0 -170 -141 -241 -293 -241c-72 0 -145 15 -209 46c12 59 15 116 15 173zM351 734h-93l-121 175h55l113 -98l112 98h57z" />
    <glyph glyph-name="Uacute" unicode="&#xda;" horiz-adv-x="778" 
d="M111 177v366c0 42 -1 69 -7 81c-5 10 -15 15 -41 17l-37 3v37c41 -1 96 -3 156 -3c59 0 114 2 155 3v-37l-37 -3c-26 -2 -36 -7 -41 -17c-6 -12 -7 -39 -7 -81v-248c0 -141 9 -230 178 -230c167 0 186 92 186 237v241c0 42 -1 69 -7 81c-5 10 -15 15 -41 17l-37 3v37
c38 -1 77 -3 115 -3s76 2 114 3v-37l-37 -3c-26 -2 -36 -7 -41 -17c-6 -12 -7 -39 -7 -81v-292c0 -183 -97 -268 -278 -268c-189 0 -286 81 -286 194zM500 811l-131 -81h-56l129 148c20 22 36 37 66 37c28 0 43 -20 43 -44c0 -33 -27 -45 -51 -60z" />
    <glyph glyph-name="Ucircumflex" unicode="&#xdb;" horiz-adv-x="778" 
d="M111 177v366c0 42 -1 69 -7 81c-5 10 -15 15 -41 17l-37 3v37c41 -1 96 -3 156 -3c59 0 114 2 155 3v-37l-37 -3c-26 -2 -36 -7 -41 -17c-6 -12 -7 -39 -7 -81v-248c0 -141 9 -230 178 -230c167 0 186 92 186 237v241c0 42 -1 69 -7 81c-5 10 -15 15 -41 17l-37 3v37
c38 -1 77 -3 115 -3s76 2 114 3v-37l-37 -3c-26 -2 -36 -7 -41 -17c-6 -12 -7 -39 -7 -81v-292c0 -183 -97 -268 -278 -268c-189 0 -286 81 -286 194zM354 905h93l123 -175h-57l-112 98l-113 -98h-55z" />
    <glyph glyph-name="Udieresis" unicode="&#xdc;" horiz-adv-x="778" 
d="M111 177v366c0 42 -1 69 -7 81c-5 10 -15 15 -41 17l-37 3v37c41 -1 96 -3 156 -3c59 0 114 2 155 3v-37l-37 -3c-26 -2 -36 -7 -41 -17c-6 -12 -7 -39 -7 -81v-248c0 -141 9 -230 178 -230c167 0 186 92 186 237v241c0 42 -1 69 -7 81c-5 10 -15 15 -41 17l-37 3v37
c38 -1 77 -3 115 -3s76 2 114 3v-37l-37 -3c-26 -2 -36 -7 -41 -17c-6 -12 -7 -39 -7 -81v-292c0 -183 -97 -268 -278 -268c-189 0 -286 81 -286 194zM509 895c37 0 67 -30 67 -67s-30 -67 -67 -67s-67 30 -67 67s30 67 67 67zM294 895c37 0 67 -30 67 -67s-30 -67 -67 -67
s-67 30 -67 67s30 67 67 67z" />
    <glyph glyph-name="Ugrave" unicode="&#xd9;" horiz-adv-x="778" 
d="M111 177v366c0 42 -1 69 -7 81c-5 10 -15 15 -41 17l-37 3v37c41 -1 96 -3 156 -3c59 0 114 2 155 3v-37l-37 -3c-26 -2 -36 -7 -41 -17c-6 -12 -7 -39 -7 -81v-248c0 -141 9 -230 178 -230c167 0 186 92 186 237v241c0 42 -1 69 -7 81c-5 10 -15 15 -41 17l-37 3v37
c38 -1 77 -3 115 -3s76 2 114 3v-37l-37 -3c-26 -2 -36 -7 -41 -17c-6 -12 -7 -39 -7 -81v-292c0 -183 -97 -268 -278 -268c-189 0 -286 81 -286 194zM423 730l-131 81c-24 15 -51 27 -51 60c0 24 15 44 43 44c30 0 46 -15 66 -37l129 -148h-56z" />
    <glyph glyph-name="Yacute" unicode="&#xdd;" horiz-adv-x="667" 
d="M395 356l188 322h77v-19l-176 -261c-21 -31 -38 -66 -53 -100v-163c0 -42 1 -69 7 -81c4 -8 15 -12 41 -14l37 -3v-40c-41 1 -96 3 -155 3c-60 0 -115 -2 -156 -3v40l37 3c26 2 37 6 41 14c6 12 7 39 7 81v139c-19 43 -31 64 -44 85l-101 163c-14 22 -35 48 -52 67
c-23 25 -44 33 -78 33v37l159 36c55 -31 86 -83 114 -136zM476 811l-131 -81h-56l129 148c20 22 36 37 66 37c28 0 43 -20 43 -44c0 -33 -27 -45 -51 -60z" />
    <glyph glyph-name="Ydieresis" unicode="&#x178;" horiz-adv-x="667" 
d="M395 356l188 322h77v-19l-176 -261c-21 -31 -38 -66 -53 -100v-163c0 -42 1 -69 7 -81c4 -8 15 -12 41 -14l37 -3v-40c-41 1 -96 3 -155 3c-60 0 -115 -2 -156 -3v40l37 3c26 2 37 6 41 14c6 12 7 39 7 81v139c-19 43 -31 64 -44 85l-101 163c-14 22 -35 48 -52 67
c-23 25 -44 33 -78 33v37l159 36c55 -31 86 -83 114 -136zM473 895c37 0 67 -30 67 -67s-30 -67 -67 -67s-67 30 -67 67s30 67 67 67zM258 895c37 0 67 -30 67 -67s-30 -67 -67 -67s-67 30 -67 67s30 67 67 67z" />
    <glyph glyph-name="Zcaron" unicode="&#x17d;" horiz-adv-x="667" 
d="M540 536l-325 -479h276c57 0 76 15 81 39l15 78h40c-9 -50 -15 -122 -16 -177c-97 2 -203 3 -287 3c-86 0 -182 -1 -300 -3v38c34 43 71 91 104 139l306 446h-222c-72 0 -81 -6 -87 -46l-8 -55h-37v162c116 -1 203 -3 272 -3s155 2 271 3v-35c-27 -32 -57 -72 -83 -110z
M379 734h-93l-121 175h55l113 -98l112 98h57z" />
    <glyph glyph-name="aacute" unicode="&#xe1;" 
d="M211 257l88 18c0 70 -29 118 -104 118c-17 0 -52 -5 -56 -14l-22 -50l-30 7v69l53 32c43 26 84 34 116 34c88 0 168 -39 165 -146c-1 -41 -3 -82 -3 -123s2 -83 3 -124c1 -25 7 -39 27 -41l30 -3v-37c-32 1 -59 3 -88 3c-28 0 -56 -2 -91 -3l-5 8l5 62l-93 -72
c-15 -12 -37 -12 -55 -12c-74 0 -111 51 -111 122c0 39 12 83 46 106c37 25 82 37 125 46zM299 115v118l-45 -12c-53 -15 -92 -26 -92 -91c0 -42 24 -60 54 -60s71 26 83 45zM349 607l-131 -81h-56l129 148c20 22 36 37 66 37c28 0 43 -20 43 -44c0 -33 -27 -45 -51 -60z
" />
    <glyph glyph-name="acircumflex" unicode="&#xe2;" 
d="M211 257l88 18c0 70 -29 118 -104 118c-17 0 -52 -5 -56 -14l-22 -50l-30 7v69l53 32c43 26 84 34 116 34c88 0 168 -39 165 -146c-1 -41 -3 -82 -3 -123s2 -83 3 -124c1 -25 7 -39 27 -41l30 -3v-37c-32 1 -59 3 -88 3c-28 0 -56 -2 -91 -3l-5 8l5 62l-93 -72
c-15 -12 -37 -12 -55 -12c-74 0 -111 51 -111 122c0 39 12 83 46 106c37 25 82 37 125 46zM299 115v118l-45 -12c-53 -15 -92 -26 -92 -91c0 -42 24 -60 54 -60s71 26 83 45zM203 701h93l123 -175h-57l-112 98l-113 -98h-55z" />
    <glyph glyph-name="adieresis" unicode="&#xe4;" 
d="M211 257l88 18c0 70 -29 118 -104 118c-17 0 -52 -5 -56 -14l-22 -50l-30 7v69l53 32c43 26 84 34 116 34c88 0 168 -39 165 -146c-1 -41 -3 -82 -3 -123s2 -83 3 -124c1 -25 7 -39 27 -41l30 -3v-37c-32 1 -59 3 -88 3c-28 0 -56 -2 -91 -3l-5 8l5 62l-93 -72
c-15 -12 -37 -12 -55 -12c-74 0 -111 51 -111 122c0 39 12 83 46 106c37 25 82 37 125 46zM299 115v118l-45 -12c-53 -15 -92 -26 -92 -91c0 -42 24 -60 54 -60s71 26 83 45zM358 691c37 0 67 -30 67 -67s-30 -67 -67 -67s-67 30 -67 67s30 67 67 67zM143 691
c37 0 67 -30 67 -67s-30 -67 -67 -67s-67 30 -67 67s30 67 67 67z" />
    <glyph glyph-name="agrave" unicode="&#xe0;" 
d="M211 257l88 18c0 70 -29 118 -104 118c-17 0 -52 -5 -56 -14l-22 -50l-30 7v69l53 32c43 26 84 34 116 34c88 0 168 -39 165 -146c-1 -41 -3 -82 -3 -123s2 -83 3 -124c1 -25 7 -39 27 -41l30 -3v-37c-32 1 -59 3 -88 3c-28 0 -56 -2 -91 -3l-5 8l5 62l-93 -72
c-15 -12 -37 -12 -55 -12c-74 0 -111 51 -111 122c0 39 12 83 46 106c37 25 82 37 125 46zM299 115v118l-45 -12c-53 -15 -92 -26 -92 -91c0 -42 24 -60 54 -60s71 26 83 45zM284 526l-131 81c-24 15 -51 27 -51 60c0 24 15 44 43 44c30 0 46 -15 66 -37l129 -148h-56z" />
    <glyph glyph-name="aring" unicode="&#xe5;" 
d="M211 257l88 18c0 70 -29 118 -104 118c-17 0 -52 -5 -56 -14l-22 -50l-30 7v69l53 32c43 26 84 34 116 34c88 0 168 -39 165 -146c-1 -41 -3 -82 -3 -123s2 -83 3 -124c1 -25 7 -39 27 -41l30 -3v-37c-32 1 -59 3 -88 3c-28 0 -56 -2 -91 -3l-5 8l5 62l-93 -72
c-15 -12 -37 -12 -55 -12c-74 0 -111 51 -111 122c0 39 12 83 46 106c37 25 82 37 125 46zM299 115v118l-45 -12c-53 -15 -92 -26 -92 -91c0 -42 24 -60 54 -60s71 26 83 45zM251 700c55 0 100 -45 100 -100s-45 -100 -100 -100s-100 45 -100 100s45 100 100 100zM251 650
c-28 0 -50 -22 -50 -50s22 -50 50 -50s50 22 50 50s-22 50 -50 50z" />
    <glyph glyph-name="atilde" unicode="&#xe3;" 
d="M211 257l88 18c0 70 -29 118 -104 118c-17 0 -52 -5 -56 -14l-22 -50l-30 7v69l53 32c43 26 84 34 116 34c88 0 168 -39 165 -146c-1 -41 -3 -82 -3 -123s2 -83 3 -124c1 -25 7 -39 27 -41l30 -3v-37c-32 1 -59 3 -88 3c-28 0 -56 -2 -91 -3l-5 8l5 62l-93 -72
c-15 -12 -37 -12 -55 -12c-74 0 -111 51 -111 122c0 39 12 83 46 106c37 25 82 37 125 46zM299 115v118l-45 -12c-53 -15 -92 -26 -92 -91c0 -42 24 -60 54 -60s71 26 83 45zM390 673h43c-15 -63 -48 -126 -121 -126c-25 0 -54 12 -81 25s-54 24 -76 24
c-26 0 -41 -26 -47 -48h-40c1 36 33 125 118 125c28 0 53 -12 78 -24s50 -24 74 -24c32 0 40 22 52 48z" />
    <glyph glyph-name="ccedilla" unicode="&#xe7;" horiz-adv-x="444" 
d="M390 297h-36l-7 60c-3 29 -55 43 -86 43c-82 0 -100 -72 -100 -141c0 -103 43 -205 162 -205c26 0 52 6 82 19l9 -10l-21 -46c-39 -22 -85 -34 -130 -34c-156 0 -226 99 -226 237c0 70 6 130 121 199l52 31c30 18 60 21 99 21c29 0 58 -7 94 -20l7 -13
c-9 -44 -15 -90 -20 -141zM178 -103l43 96h41l-28 -64c17 4 31 6 43 6c58 0 79 -35 79 -75c0 -70 -86 -85 -139 -85c-25 0 -65 9 -88 18l16 37c53 -12 117 -20 117 28c0 32 -26 41 -74 31z" />
    <glyph glyph-name="eacute" unicode="&#xe9;" 
d="M303 223h-131c0 -97 55 -169 159 -169c33 0 76 16 108 35l12 -15l-22 -48c-60 -32 -101 -43 -160 -43c-146 0 -227 88 -227 231c0 82 11 156 95 206l47 28c25 15 52 23 82 23c111 0 195 -59 195 -176v-52c-54 -15 -114 -20 -158 -20zM252 415c-58 0 -86 -45 -86 -139
c28 -1 56 -3 84 -3s56 2 84 3c0 59 -8 139 -82 139zM349 607l-131 -81h-56l129 148c20 22 36 37 66 37c28 0 43 -20 43 -44c0 -33 -27 -45 -51 -60z" />
    <glyph glyph-name="ecircumflex" unicode="&#xea;" 
d="M303 223h-131c0 -97 55 -169 159 -169c33 0 76 16 108 35l12 -15l-22 -48c-60 -32 -101 -43 -160 -43c-146 0 -227 88 -227 231c0 82 11 156 95 206l47 28c25 15 52 23 82 23c111 0 195 -59 195 -176v-52c-54 -15 -114 -20 -158 -20zM252 415c-58 0 -86 -45 -86 -139
c28 -1 56 -3 84 -3s56 2 84 3c0 59 -8 139 -82 139zM215 701h93l123 -175h-57l-112 98l-113 -98h-55z" />
    <glyph glyph-name="edieresis" unicode="&#xeb;" 
d="M303 223h-131c0 -97 55 -169 159 -169c33 0 76 16 108 35l12 -15l-22 -48c-60 -32 -101 -43 -160 -43c-146 0 -227 88 -227 231c0 82 11 156 95 206l47 28c25 15 52 23 82 23c111 0 195 -59 195 -176v-52c-54 -15 -114 -20 -158 -20zM252 415c-58 0 -86 -45 -86 -139
c28 -1 56 -3 84 -3s56 2 84 3c0 59 -8 139 -82 139zM366 691c37 0 67 -30 67 -67s-30 -67 -67 -67s-67 30 -67 67s30 67 67 67zM151 691c37 0 67 -30 67 -67s-30 -67 -67 -67s-67 30 -67 67s30 67 67 67z" />
    <glyph glyph-name="egrave" unicode="&#xe8;" 
d="M303 223h-131c0 -97 55 -169 159 -169c33 0 76 16 108 35l12 -15l-22 -48c-60 -32 -101 -43 -160 -43c-146 0 -227 88 -227 231c0 82 11 156 95 206l47 28c25 15 52 23 82 23c111 0 195 -59 195 -176v-52c-54 -15 -114 -20 -158 -20zM252 415c-58 0 -86 -45 -86 -139
c28 -1 56 -3 84 -3s56 2 84 3c0 59 -8 139 -82 139zM284 526l-131 81c-24 15 -51 27 -51 60c0 24 15 44 43 44c30 0 46 -15 66 -37l129 -148h-56z" />
    <glyph glyph-name="iacute" unicode="&#xed;" horiz-adv-x="333" 
d="M105 100v219c0 57 -2 68 -26 70l-45 3v36c38 5 76 9 113 21l70 22l10 -6v-365c0 -24 1 -37 4 -47s11 -15 32 -17l35 -2v-37c-43 1 -85 3 -135 3c-44 0 -86 -2 -129 -3v37l35 2c21 2 29 7 32 17s4 23 4 47zM265 607l-131 -81h-56l129 148c20 22 36 37 66 37
c28 0 43 -20 43 -44c0 -33 -27 -45 -51 -60z" />
    <glyph glyph-name="icircumflex" unicode="&#xee;" horiz-adv-x="333" 
d="M105 100v219c0 57 -2 68 -26 70l-45 3v36c38 5 76 9 113 21l70 22l10 -6v-365c0 -24 1 -37 4 -47s11 -15 32 -17l35 -2v-37c-43 1 -85 3 -135 3c-44 0 -86 -2 -129 -3v37l35 2c21 2 29 7 32 17s4 23 4 47zM119 701h93l123 -175h-57l-112 98l-113 -98h-55z" />
    <glyph glyph-name="idieresis" unicode="&#xef;" horiz-adv-x="333" 
d="M105 100v219c0 57 -2 68 -26 70l-45 3v36c38 5 76 9 113 21l70 22l10 -6v-365c0 -24 1 -37 4 -47s11 -15 32 -17l35 -2v-37c-43 1 -85 3 -135 3c-44 0 -86 -2 -129 -3v37l35 2c21 2 29 7 32 17s4 23 4 47zM274 691c37 0 67 -30 67 -67s-30 -67 -67 -67s-67 30 -67 67
s30 67 67 67zM59 691c37 0 67 -30 67 -67s-30 -67 -67 -67s-67 30 -67 67s30 67 67 67z" />
    <glyph glyph-name="igrave" unicode="&#xec;" horiz-adv-x="333" 
d="M105 100v219c0 57 -2 68 -26 70l-45 3v36c38 5 76 9 113 21l70 22l10 -6v-365c0 -24 1 -37 4 -47s11 -15 32 -17l35 -2v-37c-43 1 -85 3 -135 3c-44 0 -86 -2 -129 -3v37l35 2c21 2 29 7 32 17s4 23 4 47zM200 526l-131 81c-24 15 -51 27 -51 60c0 24 15 44 43 44
c30 0 46 -15 66 -37l129 -148h-56z" />
    <glyph glyph-name="ntilde" unicode="&#xf1;" horiz-adv-x="611" 
d="M95 100v219c0 57 -2 68 -26 70l-45 3v36c69 2 128 24 187 43l6 -6v-75l80 62c25 19 54 19 76 19c39 0 82 -13 108 -40c34 -36 37 -86 37 -145v-186c0 -24 1 -37 4 -47s11 -15 32 -17l33 -2v-37c-36 1 -66 3 -98 3c-36 0 -65 -2 -93 -3v273c0 48 -8 74 -26 92
c-17 17 -39 23 -75 23c-41 0 -78 -39 -78 -68v-217c0 -24 1 -37 4 -47s11 -15 32 -17l35 -2v-37c-43 1 -85 3 -135 3c-44 0 -86 -2 -129 -3v37l35 2c21 2 29 7 32 17s4 23 4 47zM445 673h43c-15 -63 -48 -126 -121 -126c-25 0 -54 12 -81 25s-54 24 -76 24
c-26 0 -41 -26 -47 -48h-40c1 36 33 125 118 125c28 0 53 -12 78 -24s50 -24 74 -24c32 0 40 22 52 48z" />
    <glyph glyph-name="oacute" unicode="&#xf3;" horiz-adv-x="556" 
d="M285 471c153 0 232 -85 232 -234c0 -161 -87 -254 -253 -254c-154 0 -224 101 -224 242c0 155 85 246 245 246zM286 31c88 0 95 101 95 165c0 70 -1 227 -105 227c-94 0 -100 -104 -100 -174c0 -73 7 -218 110 -218zM377 607l-131 -81h-56l129 148c20 22 36 37 66 37
c28 0 43 -20 43 -44c0 -33 -27 -45 -51 -60z" />
    <glyph glyph-name="ocircumflex" unicode="&#xf4;" horiz-adv-x="556" 
d="M285 471c153 0 232 -85 232 -234c0 -161 -87 -254 -253 -254c-154 0 -224 101 -224 242c0 155 85 246 245 246zM286 31c88 0 95 101 95 165c0 70 -1 227 -105 227c-94 0 -100 -104 -100 -174c0 -73 7 -218 110 -218zM231 701h93l123 -175h-57l-112 98l-113 -98h-55z" />
    <glyph glyph-name="odieresis" unicode="&#xf6;" horiz-adv-x="556" 
d="M285 471c153 0 232 -85 232 -234c0 -161 -87 -254 -253 -254c-154 0 -224 101 -224 242c0 155 85 246 245 246zM286 31c88 0 95 101 95 165c0 70 -1 227 -105 227c-94 0 -100 -104 -100 -174c0 -73 7 -218 110 -218zM386 691c37 0 67 -30 67 -67s-30 -67 -67 -67
s-67 30 -67 67s30 67 67 67zM171 691c37 0 67 -30 67 -67s-30 -67 -67 -67s-67 30 -67 67s30 67 67 67z" />
    <glyph glyph-name="ograve" unicode="&#xf2;" horiz-adv-x="556" 
d="M285 471c153 0 232 -85 232 -234c0 -161 -87 -254 -253 -254c-154 0 -224 101 -224 242c0 155 85 246 245 246zM286 31c88 0 95 101 95 165c0 70 -1 227 -105 227c-94 0 -100 -104 -100 -174c0 -73 7 -218 110 -218zM312 526l-131 81c-24 15 -51 27 -51 60
c0 24 15 44 43 44c30 0 46 -15 66 -37l129 -148h-56z" />
    <glyph glyph-name="otilde" unicode="&#xf5;" horiz-adv-x="556" 
d="M285 471c153 0 232 -85 232 -234c0 -161 -87 -254 -253 -254c-154 0 -224 101 -224 242c0 155 85 246 245 246zM286 31c88 0 95 101 95 165c0 70 -1 227 -105 227c-94 0 -100 -104 -100 -174c0 -73 7 -218 110 -218zM418 673h43c-15 -63 -48 -126 -121 -126
c-25 0 -54 12 -81 25s-54 24 -76 24c-26 0 -41 -26 -47 -48h-40c1 36 33 125 118 125c28 0 53 -12 78 -24s50 -24 74 -24c32 0 40 22 52 48z" />
    <glyph glyph-name="scaron" unicode="&#x161;" horiz-adv-x="444" 
d="M362 326h-36l-10 58c-4 21 -50 39 -82 39c-58 0 -93 -22 -93 -65c0 -32 17 -48 55 -56l82 -18c81 -18 127 -49 127 -131c0 -116 -107 -170 -210 -170c-52 0 -104 9 -156 28l7 141h39l5 -69c29 -38 71 -52 118 -52c45 0 86 27 86 75c0 44 -26 56 -63 65l-86 21
c-70 17 -106 60 -106 123c0 114 89 156 206 156c45 0 89 -5 125 -23zM268 518h-93l-121 175h55l113 -98l112 98h57z" />
    <glyph glyph-name="uacute" unicode="&#xfa;" horiz-adv-x="611" 
d="M96 140v179c0 57 -2 68 -26 70l-45 3v36c38 5 76 9 113 21l70 22l10 -6v-261c0 -65 4 -131 81 -131c34 0 66 22 84 51c7 11 9 26 9 39v156c0 57 -2 68 -26 70l-45 3v36c38 5 76 9 113 21l70 22l10 -6v-365c0 -24 1 -37 4 -47s11 -15 32 -17l33 -2v-37c-41 1 -83 3 -111 3
c-17 0 -45 -2 -85 -3l5 83l-76 -74c-14 -14 -40 -23 -64 -23c-110 0 -156 62 -156 157zM416 607l-131 -81h-56l129 148c20 22 36 37 66 37c28 0 43 -20 43 -44c0 -33 -27 -45 -51 -60z" />
    <glyph glyph-name="ucircumflex" unicode="&#xfb;" horiz-adv-x="611" 
d="M96 140v179c0 57 -2 68 -26 70l-45 3v36c38 5 76 9 113 21l70 22l10 -6v-261c0 -65 4 -131 81 -131c34 0 66 22 84 51c7 11 9 26 9 39v156c0 57 -2 68 -26 70l-45 3v36c38 5 76 9 113 21l70 22l10 -6v-365c0 -24 1 -37 4 -47s11 -15 32 -17l33 -2v-37c-41 1 -83 3 -111 3
c-17 0 -45 -2 -85 -3l5 83l-76 -74c-14 -14 -40 -23 -64 -23c-110 0 -156 62 -156 157zM258 701h93l123 -175h-57l-112 98l-113 -98h-55z" />
    <glyph glyph-name="udieresis" unicode="&#xfc;" horiz-adv-x="611" 
d="M96 140v179c0 57 -2 68 -26 70l-45 3v36c38 5 76 9 113 21l70 22l10 -6v-261c0 -65 4 -131 81 -131c34 0 66 22 84 51c7 11 9 26 9 39v156c0 57 -2 68 -26 70l-45 3v36c38 5 76 9 113 21l70 22l10 -6v-365c0 -24 1 -37 4 -47s11 -15 32 -17l33 -2v-37c-41 1 -83 3 -111 3
c-17 0 -45 -2 -85 -3l5 83l-76 -74c-14 -14 -40 -23 -64 -23c-110 0 -156 62 -156 157zM413 691c37 0 67 -30 67 -67s-30 -67 -67 -67s-67 30 -67 67s30 67 67 67zM198 691c37 0 67 -30 67 -67s-30 -67 -67 -67s-67 30 -67 67s30 67 67 67z" />
    <glyph glyph-name="ugrave" unicode="&#xf9;" horiz-adv-x="611" 
d="M96 140v179c0 57 -2 68 -26 70l-45 3v36c38 5 76 9 113 21l70 22l10 -6v-261c0 -65 4 -131 81 -131c34 0 66 22 84 51c7 11 9 26 9 39v156c0 57 -2 68 -26 70l-45 3v36c38 5 76 9 113 21l70 22l10 -6v-365c0 -24 1 -37 4 -47s11 -15 32 -17l33 -2v-37c-41 1 -83 3 -111 3
c-17 0 -45 -2 -85 -3l5 83l-76 -74c-14 -14 -40 -23 -64 -23c-110 0 -156 62 -156 157zM331 526l-131 81c-24 15 -51 27 -51 60c0 24 15 44 43 44c30 0 46 -15 66 -37l129 -148h-56z" />
    <glyph glyph-name="yacute" unicode="&#xfd;" horiz-adv-x="556" 
d="M231 343l84 -218l101 252c3 8 4 17 4 23c0 12 -14 18 -27 19l-33 2v38c31 -1 62 -3 93 -3s62 2 93 3v-38l-26 -5c-14 -3 -29 -19 -41 -47l-199 -463c-17 -39 -70 -172 -176 -172c-25 0 -51 7 -73 17l18 95l11 4c19 -23 42 -37 72 -37c38 0 71 45 90 91l23 56l-158 404
c-14 36 -27 54 -42 55l-35 2v38c44 -1 89 -3 133 -3s88 2 132 3v-38l-35 -2c-14 -1 -26 -9 -26 -23c0 -16 7 -28 17 -53zM409 607l-131 -81h-56l129 148c20 22 36 37 66 37c28 0 43 -20 43 -44c0 -33 -27 -45 -51 -60z" />
    <glyph glyph-name="ydieresis" unicode="&#xff;" horiz-adv-x="556" 
d="M231 343l84 -218l101 252c3 8 4 17 4 23c0 12 -14 18 -27 19l-33 2v38c31 -1 62 -3 93 -3s62 2 93 3v-38l-26 -5c-14 -3 -29 -19 -41 -47l-199 -463c-17 -39 -70 -172 -176 -172c-25 0 -51 7 -73 17l18 95l11 4c19 -23 42 -37 72 -37c38 0 71 45 90 91l23 56l-158 404
c-14 36 -27 54 -42 55l-35 2v38c44 -1 89 -3 133 -3s88 2 132 3v-38l-35 -2c-14 -1 -26 -9 -26 -23c0 -16 7 -28 17 -53zM398 691c37 0 67 -30 67 -67s-30 -67 -67 -67s-67 30 -67 67s30 67 67 67zM183 691c37 0 67 -30 67 -67s-30 -67 -67 -67s-67 30 -67 67s30 67 67 67z
" />
    <glyph glyph-name="zcaron" unicode="&#x17e;" 
d="M454 424l-268 -369h163c49 0 61 13 70 69l5 31h40c-6 -41 -12 -111 -12 -153l-5 -5c-112 1 -204 3 -285 3c-52 0 -104 -2 -146 -3v33c35 45 71 90 104 136l170 238h-118c-58 0 -70 -12 -76 -59l-3 -25h-38l3 134l7 5c90 -2 177 -5 265 -5c41 0 83 3 124 5v-35zM296 518
h-93l-121 175h55l113 -98l112 98h57z" />
    </font>
</defs>
</svg>
