<svg xmlns="http://www.w3.org/2000/svg" width="14.734" height="14.734" viewBox="0 0 14.734 14.734"><defs><style>.a{fill:#6f787b;}</style></defs><g transform="translate(-240 -1178)"><g transform="translate(240 1178)"><path class="a" d="M385.725,365.1a.307.307,0,0,1-.069-.309l1.053-3.153a7.248,7.248,0,0,1-1.069-3.81,7.371,7.371,0,1,1,3.727,6.4l-3.336.952a.309.309,0,0,1-.306-.083Zm.529-7.272a6.631,6.631,0,0,0,1.05,3.6.308.308,0,0,1,.033.264l-.915,2.738,2.9-.829a.309.309,0,0,1,.242.032,6.751,6.751,0,1,0-3.312-5.808Z" transform="translate(-385.64 -350.458)"/><g transform="translate(3.684 5.525)"><path class="a" d="M391.948,360.072H398.7a.307.307,0,1,0,0-.614h-6.753a.307.307,0,0,0,0,.614Z" transform="translate(-391.641 -359.458)"/></g><g transform="translate(3.684 7.367)"><path class="a" d="M391.948,363.072H398.7a.307.307,0,0,0,0-.614h-6.753a.307.307,0,0,0,0,.614Z" transform="translate(-391.641 -362.458)"/></g><g transform="translate(3.684 9.209)"><path class="a" d="M391.948,366.072H398.7a.307.307,0,1,0,0-.614h-6.753a.307.307,0,0,0,0,.614Z" transform="translate(-391.641 -365.458)"/></g></g></g></svg>