<svg xmlns="http://www.w3.org/2000/svg" width="19.583" height="18.765" viewBox="0 0 19.583 18.765"><defs><style>.a{fill:none;}.a,.b,.c{stroke:#163567;stroke-linecap:round;stroke-linejoin:round;stroke-width:0.75px;}.b{fill:#55f2fa;}.c{fill:#fff;}</style></defs><g transform="translate(-102.625 -351.625)"><path class="a" d="M424.728,650.145h0a1.229,1.229,0,0,1-1.228-1.228V639.5h2.457v9.417A1.229,1.229,0,0,1,424.728,650.145Z" transform="translate(-320.5 -280.13)"/><path class="b" d="M426.327,648.515l-.008-18.015H442.7v16.377a1.637,1.637,0,0,1-1.638,1.638H425.5" transform="translate(-320.862 -278.5)"/><rect class="c" width="5.732" height="6.551" transform="translate(107.913 354.457)"/><line class="a" x2="4.094" transform="translate(116.102 356.094)"/><line class="a" x2="4.094" transform="translate(116.102 358.551)"/><line class="a" x2="4.094" transform="translate(116.102 361.007)"/><line class="a" x2="11.464" transform="translate(108.732 365.102)"/><line class="a" x2="11.464" transform="translate(108.732 367.558)"/></g></svg>