<svg xmlns="http://www.w3.org/2000/svg" width="43.304" height="41.5" viewBox="0 0 43.304 41.5"><defs><style>.a{fill:#6f787b;}</style></defs><g transform="translate(-423 -630)"><g transform="translate(423 646.239)"><path class="a" d="M426.609,664.261A3.612,3.612,0,0,1,423,660.652V639.9a.9.9,0,0,1,.9-.9h5.413a.9.9,0,0,1,.9.9v20.75A3.613,3.613,0,0,1,426.609,664.261ZM424.8,640.8v19.848a1.8,1.8,0,0,0,3.609,0V640.8Z" transform="translate(-423 -639)"/></g><g transform="translate(426.609 630)"><path class="a" d="M460.185,671.5H425.9a.9.9,0,1,1,0-1.8h34.283a2.71,2.71,0,0,0,2.706-2.707V631.8H428.609v35.185a.9.9,0,1,1-1.8,0V630.9a.9.9,0,0,1,.9-.9h36.087a.9.9,0,0,1,.9.9v36.087A4.515,4.515,0,0,1,460.185,671.5Z" transform="translate(-425 -630)"/></g><g transform="translate(433.826 635.413)"><path class="a" d="M442.533,649.239H429.9a.9.9,0,0,1-.9-.9V633.9a.9.9,0,0,1,.9-.9h12.63a.9.9,0,0,1,.9.9v14.435A.9.9,0,0,1,442.533,649.239Zm-11.728-1.8H441.63V634.8H430.8Z" transform="translate(-429 -633)"/></g><g transform="translate(451.87 639.022)"><path class="a" d="M448.924,636.8H439.9a.9.9,0,0,1,0-1.8h9.022a.9.9,0,0,1,0,1.8Z" transform="translate(-439 -635)"/></g><g transform="translate(451.87 644.435)"><path class="a" d="M448.924,639.8H439.9a.9.9,0,1,1,0-1.8h9.022a.9.9,0,1,1,0,1.8Z" transform="translate(-439 -638)"/></g><g transform="translate(451.87 649.848)"><path class="a" d="M448.924,642.8H439.9a.9.9,0,1,1,0-1.8h9.022a.9.9,0,1,1,0,1.8Z" transform="translate(-439 -641)"/></g><g transform="translate(435.63 658.87)"><path class="a" d="M456.163,647.8H430.9a.9.9,0,1,1,0-1.8h25.261a.9.9,0,1,1,0,1.8Z" transform="translate(-430 -646)"/></g><g transform="translate(435.63 664.283)"><path class="a" d="M456.163,650.8H430.9a.9.9,0,0,1,0-1.8h25.261a.9.9,0,0,1,0,1.8Z" transform="translate(-430 -649)"/></g></g></svg>