<svg xmlns="http://www.w3.org/2000/svg" xmlns:xlink="http://www.w3.org/1999/xlink" width="624.983" height="483.929" viewBox="0 0 624.983 483.929"><defs><style>.a{opacity:0.259;}.b{fill:none;}.c,.d{fill:#fff;}.d{opacity:0.59;}.e{fill:url(#a);}.f{fill:url(#c);}.g{fill:url(#d);}.h{opacity:0.3;fill:url(#e);}.i{fill:#0d2333;}</style><linearGradient id="a" x1="-0.197" y1="0.808" x2="0.983" y2="-0.006" gradientUnits="objectBoundingBox"><stop offset="0" stop-color="#fff"/><stop offset="1" stop-color="#fff" stop-opacity="0"/></linearGradient><linearGradient id="c" x1="6.714" y1="1.999" x2="7.894" y2="1.185" xlink:href="#a"/><linearGradient id="d" x1="0" y1="0.5" x2="1" y2="0.5" xlink:href="#a"/><linearGradient id="e" x1="0.214" y1="-0.331" x2="0.786" y2="0.556" gradientUnits="objectBoundingBox"><stop offset="0" stop-color="#fff"/><stop offset="0.264" stop-color="#fcfcfc"/><stop offset="0.406" stop-color="#f4f4f4"/><stop offset="0.519" stop-color="#e7e7e7"/><stop offset="0.616" stop-color="#d3d3d3"/><stop offset="0.704" stop-color="#bbbbba"/><stop offset="0.785" stop-color="#9c9c9b"/><stop offset="0.86" stop-color="#777"/><stop offset="0.93" stop-color="#4e4e4d"/><stop offset="0.995" stop-color="#1f1f1e"/><stop offset="1" stop-color="#1c1c1b"/></linearGradient></defs><g class="a" transform="translate(583.266 798.16) rotate(90)"><path class="b" d="M-729.148,278.259h0l-69.012-89.064.006-.007h138.026l.006.007.006-.007h138.025l.006.007-.006-.007H-660.117l-.006.008-.006-.008H-798.155l-.006.008Z" transform="translate(0 -52.76)"/><path class="c" d="M-440.562,422.018l69.011,89.062h.016l69.011-89.062h0l-.008-.009H-440.554Z" transform="translate(-81.709 -105.958)"/><path class="d" d="M-301.289,395.63-370.3,306.566l-69.012,89.064Z" transform="translate(-81.995 -79.581)"/><path class="e" d="M-529.789,536.826l69.011,89.063h.016l69.011-89.063-.007-.009H-529.782Z" transform="translate(-61.321 -132.192)"/><path class="e" d="M-707.7,306.785l69.011,89.063h.016l69.011-89.063-.007-.009H-707.694Z" transform="translate(-20.669 -79.629)"/><path class="f" d="M-481.154,626.035l-69.011-89.063h-.016l-69.011,89.063.007.009h138.023Z" transform="translate(-40.893 -132.227)"/><path class="g" d="M-550.22,73.744l-69.013,89.065h138.025Z" transform="translate(-40.884 -26.382)"/><path class="h" d="M-639.687,162.807h.012l69.013-89.065-.006-.007H-708.695l-.006.007Z" transform="translate(-20.441 -26.38)"/><path class="d" d="M-639.68-41.709l-69.013,89.066h138.026Z" transform="translate(-20.443 -0.002)"/><path class="c" d="M-659.634,422.008H-797.657l-.007.009,69.011,89.062h138.038l-69.011-89.062Z" transform="translate(-0.113 -105.958)"/><path class="d" d="M-659.632,395.63l-69.011-89.064-69.012,89.064Z" transform="translate(-0.115 -79.581)"/><path class="d" d="M-618.233,652.912h0l-.008.01h0l69.01,89.062h.018l69.01-89.062-.008-.011H-618.233Z" transform="translate(-41.11 -158.719)"/><path class="c" d="M-797.658,191.1l-.006.007,69.012,89.064h0l.007.008.006-.008h138.025l-69.012-89.064-.006-.007Z" transform="translate(-0.113 -53.198)"/><path class="g" d="M-729.14,73.744l-69.013,89.065h138.026Z" transform="translate(-0.002 -26.382)"/><path class="i" d="M-708.7,73.735h-.011l.006.007Z" transform="translate(-20.439 -26.38)"/><path class="i" d="M-619.237,189.187h-.012l.006.008Z" transform="translate(-40.88 -52.76)"/><path class="i" d="M-619.247-41.718l0,.006.005-.006Z" transform="translate(-40.881 0)"/><g transform="translate(-521.314 137.906)"><path class="c" d="M-170.95,306.556Z" transform="translate(378 -217.484)"/><path class="c" d="M-439.316,191.1l-.006.007,69.012,89.065L-301.29,191.1Z" transform="translate(439.321 -191.104)"/><path class="c" d="M-280.851,191.1l-69.019,89.072H-211.8Z" transform="translate(418.882 -191.104)"/></g><path class="g" d="M-460.2,395.848h.018l69-89.047-.011-.014.008-.011H-529.205l-.009.011Z" transform="translate(-61.452 -79.629)"/></g></svg>