<svg xmlns="http://www.w3.org/2000/svg" xmlns:xlink="http://www.w3.org/1999/xlink" width="481.907" height="373.144" viewBox="0 0 481.907 373.144"><defs><style>.a{opacity:0.259;}.b{fill:none;}.c,.d{fill:#fff;}.d{opacity:0.59;}.e{fill:url(#a);}.f{fill:url(#c);}.g{fill:url(#d);}.h{opacity:0.3;fill:url(#e);}.i{fill:#0d2333;}</style><linearGradient id="a" x1="-0.197" y1="0.808" x2="0.983" y2="-0.006" gradientUnits="objectBoundingBox"><stop offset="0" stop-color="#fff"/><stop offset="1" stop-color="#fff" stop-opacity="0"/></linearGradient><linearGradient id="c" x1="6.714" y1="1.999" x2="7.894" y2="1.185" xlink:href="#a"/><linearGradient id="d" x1="0" y1="0.5" x2="1" y2="0.5" xlink:href="#a"/><linearGradient id="e" x1="0.214" y1="-0.331" x2="0.786" y2="0.556" gradientUnits="objectBoundingBox"><stop offset="0" stop-color="#fff"/><stop offset="0.264" stop-color="#fcfcfc"/><stop offset="0.406" stop-color="#f4f4f4"/><stop offset="0.519" stop-color="#e7e7e7"/><stop offset="0.616" stop-color="#d3d3d3"/><stop offset="0.704" stop-color="#bbbbba"/><stop offset="0.785" stop-color="#9c9c9b"/><stop offset="0.86" stop-color="#777"/><stop offset="0.93" stop-color="#4e4e4d"/><stop offset="0.995" stop-color="#1f1f1e"/><stop offset="1" stop-color="#1c1c1b"/></linearGradient></defs><g transform="translate(138.515 27.215)"><g class="a" transform="translate(-96.797 -452.231) rotate(-90)"><path class="b" d="M-744.947,257.868h0l-53.213-68.675,0-.006h106.428l0,.006,0-.006h106.427l0,.005,0-.006H-691.719l0,.006,0-.006H-798.156l0,.006Z" transform="translate(0 -93.542)"/><path class="c" d="M-440.562,422.015l53.212,68.673h.013l53.212-68.673h0l-.006-.007H-440.556Z" transform="translate(-144.868 -187.861)"/><path class="d" d="M-332.886,375.241-386.1,306.566l-53.213,68.675Z" transform="translate(-145.374 -141.094)"/><path class="e" d="M-529.789,536.824l53.213,68.674h.012l53.212-68.674-.005-.007H-529.784Z" transform="translate(-108.721 -234.372)"/><path class="e" d="M-707.7,306.783l53.213,68.674h.012l53.213-68.674-.006-.007H-707.7Z" transform="translate(-36.646 -141.179)"/><path class="f" d="M-512.755,605.646l-53.213-68.674h-.012l-53.212,68.674.005.007H-512.76Z" transform="translate(-72.502 -234.435)"/><path class="g" d="M-566.019,73.744l-53.214,68.675h106.427Z" transform="translate(-72.486 -46.775)"/><path class="h" d="M-655.486,142.416h.009l53.214-68.675,0-.006H-708.7l0,.006Z" transform="translate(-36.241 -46.771)"/><path class="d" d="M-655.479-41.709l-53.214,68.676h106.428Z" transform="translate(-36.244 -0.003)"/><path class="c" d="M-691.233,422.008H-797.659l-.005.007,53.213,68.674h106.437l-53.213-68.674Z" transform="translate(-0.201 -187.861)"/><path class="d" d="M-691.229,375.241l-53.213-68.675-53.213,68.675Z" transform="translate(-0.205 -141.094)"/><path class="d" d="M-618.235,652.912h0l-.006.008h0l53.212,68.673h.014L-511.8,652.92l-.006-.008H-618.235Z" transform="translate(-72.888 -281.403)"/><path class="c" d="M-797.659,191.1l0,.006,53.213,68.675h0l.005.006,0-.006h106.427l-53.213-68.675,0-.006Z" transform="translate(-0.201 -94.319)"/><path class="g" d="M-744.939,73.744l-53.214,68.675h106.428Z" transform="translate(-0.003 -46.775)"/><path class="i" d="M-708.7,73.735h-.008l0,.006Z" transform="translate(-36.238 -46.771)"/><path class="i" d="M-619.239,189.187h-.009l0,.006Z" transform="translate(-72.48 -93.542)"/><path class="i" d="M-619.247-41.718l0,.005,0-.005Z" transform="translate(-72.48 0)"/><g transform="translate(-584.692 96.785)"><path class="c" d="M-170.95,306.556Z" transform="translate(330.6 -237.875)"/><path class="c" d="M-439.317,191.1l0,.005,53.213,68.675,53.219-68.681Z" transform="translate(439.321 -191.104)"/><path class="c" d="M-296.651,191.1l-53.219,68.681h106.462Z" transform="translate(403.083 -191.104)"/></g><path class="g" d="M-476,375.457h.014l53.2-68.661-.008-.011.006-.009h-106.42l-.007.009Z" transform="translate(-108.954 -141.179)"/></g></g></svg>