<svg xmlns="http://www.w3.org/2000/svg" width="62.854" height="37.701" viewBox="0 0 62.854 37.701"><defs><style>path{fill:#01c3d9;}</style></defs><g transform="translate(-7.31 -14.195)"><path d="M7.352,43.607a7.5,7.5,0,0,0,.62-2.661c.912-3.987,3.015-5.883,7.086-6.447a73.381,73.381,0,0,0,7.493-.959c4.622-1.13,7.889-4.161,10.712-7.778a16.023,16.023,0,0,0,2.269-4.028,3.663,3.663,0,0,1,5.767-1.89,2.716,2.716,0,0,1,1.2,2.714,11.448,11.448,0,0,1-.9,3.209c-2.145,5.583-5.176,10.55-10.2,14.008a2.711,2.711,0,0,0-1.357,2.686c.091,2.341.021,4.689.029,7.033,0,.476.026.946-.429,1.26H15.363c-.775-.222-.808-.851-.715-1.46.135-.882-.157-1.714-.043-2.573-.166,1.355.589,2.788-.542,4.033-1.912,0-3.827-.047-5.737.022-.817.029-1.131-.184-.98-1a2.937,2.937,0,0,0,0-.54,20.876,20.876,0,0,0,0-4.763Z" transform="translate(0 1.118)"/><path d="M41.855,49.807a2.041,2.041,0,0,1-.252-1.342c.007-2.632-.01-5.265.043-7.9a1.339,1.339,0,0,0-.77-1.348,21.77,21.77,0,0,1-7.14-7.538,1.224,1.224,0,0,1,.049-1.3,52.06,52.06,0,0,0,2.924-6.59c.091-.292.265-.542.592-.546.372,0,.532.292.7.586a20.005,20.005,0,0,0,5.112,5.941,3.727,3.727,0,0,0,.8.555c2.633,1.108,4.343,3.243,6.014,5.408.474.614.795.614,1.313.088s1.174-.871,1.628-1.416c1.175-1.415,2.612-1.37,4.2-1,4.445,1.043,6.154,3.1,6.663,8.069a8.184,8.184,0,0,0,.425,2.7v2.165c-.321,1.14.092,2.325-.216,3.464h-6.28a1.093,1.093,0,0,1-.653-1.127c.022-.935.006-1.87,0-2.806,0,.936-.018,1.871,0,2.806a1.094,1.094,0,0,1-.655,1.127Z" transform="translate(5.987 2.063)"/><path d="M32.354,14.195c.7,1.528.566,3.205.855,4.806.056.308-.189.533-.508.589a.472.472,0,0,1-.583-.357c-.179-1.676-.873-3.312-.413-5.039Z" transform="translate(5.527)"/><path d="M52.129,45.869A1.506,1.506,0,0,0,52.56,44.5c-.012-1.329,0-2.657,0-3.986h.513q0,1.975,0,3.951c0,.5-.086,1.018.357,1.4Z" transform="translate(10.219 6.001)"/><path d="M12.81,45.645c.5-1.337.341-2.754.612-4.145.084,1,.189,2,.241,3.007a1.284,1.284,0,0,0,.447,1.137Z" transform="translate(1.254 6.226)"/><path d="M7.344,39.762a10.974,10.974,0,0,1,0,4.763Z" transform="translate(0.008 5.83)"/><path d="M58.306,45.518c.112-1.152-.246-2.334.216-3.464,0,1.046,0,2.093,0,3.139C58.516,45.325,58.651,45.592,58.306,45.518Z" transform="translate(11.622 6.352)"/><path d="M49.213,33.216A7.041,7.041,0,1,1,56.3,26.159,7.037,7.037,0,0,1,49.213,33.216Z" transform="translate(7.968 1.126)"/><path d="M19.272,33.216a7.041,7.041,0,1,1,7.067-6.965A7.056,7.056,0,0,1,19.272,33.216Z" transform="translate(1.134 1.126)"/><path d="M38.071,15.925c-.183.371-.357.723-.529,1.077q-.757,1.549-1.512,3.1c-.167.341-.362.652-.82.436a.607.607,0,0,1-.276-.91c.639-1.325,1.283-2.648,1.953-3.958a.593.593,0,0,1,.8-.352A.748.748,0,0,1,38.071,15.925Z" transform="translate(6.276 0.242)"/><path d="M27.315,16.143a.991.991,0,0,1,.727.366q1.347,1.313,2.686,2.633c.334.327.586.7.177,1.1s-.731.039-1.008-.227c-.932-.89-1.852-1.8-2.767-2.705-.225-.225-.473-.468-.242-.839A.634.634,0,0,1,27.315,16.143Z" transform="translate(4.443 0.444)"/><path d="M41.856,18.983a.926.926,0,0,1-.424.6q-1.525,1.111-3.048,2.224c-.35.258-.715.418-1.03,0-.335-.446,0-.734.327-.976,1.012-.745,2.039-1.474,3.049-2.221a.746.746,0,0,1,.8-.14A.584.584,0,0,1,41.856,18.983Z" transform="translate(6.819 0.959)"/><path d="M22.222,49.288c-1.876,0-3.752-.021-5.627.012-.613.011-.81-.2-.823-.8-.025-1.152-.187-2.3-.188-3.453,0-1.045-.682-.987-1.383-1.05-.78-.07-1.008.3-1.03,1.008-.037,1.189-.185,2.375-.189,3.561,0,.69-.252.857-.889.826-.971-.049-1.948-.023-2.921-.009-.447.006-.748-.05-.759-.625a30.358,30.358,0,0,1,.561-8.062c.775-3.1,1.819-4.572,6.564-5.312,2.451-.383,4.965-.35,7.378-.99C27.64,33.14,31.03,30.03,33.946,26.3A15.809,15.809,0,0,0,36.375,22a2.47,2.47,0,0,1,1.6-1.773,2.672,2.672,0,0,1,2.624.583,1.957,1.957,0,0,1,.325,2.215c-2.121,6.7-5.49,12.509-11.645,16.323a1.36,1.36,0,0,0-.679,1.339c.023,2.417-.041,4.835.033,7.249.032,1.039-.163,1.466-1.326,1.384C25.619,49.2,23.917,49.288,22.222,49.288Z" transform="translate(0.245 1.348)"/><path d="M37.251,24.969a21.943,21.943,0,0,0,4.584,5.125,4.514,4.514,0,0,0,1.044.764c2.811,1.089,4.384,3.526,6.236,5.659,1.043,1.2,1.028,1.211,2.258.165.742-.63,1.545-1.2,2.217-1.9a2.6,2.6,0,0,1,2.66-.655c3.89.8,5.255,2.193,5.888,6.119a44.943,44.943,0,0,1,.508,7.221c0,.592-.141.849-.783.812-1.146-.068-2.608.351-3.355-.21-.721-.543-.153-2.088-.231-3.188-.007-.108,0-.217,0-.325,0-2.034-.109-2.1-2.072-1.679a.832.832,0,0,0-.755.969c-.009,1.154-.066,2.307-.072,3.462,0,.6-.145.9-.858.889q-5.574-.057-11.149,0c-.781.009-.871-.316-.86-.959.039-2.526.012-5.052.066-7.577a1.584,1.584,0,0,0-.965-1.675,19.026,19.026,0,0,1-6.787-6.824.96.96,0,0,1,.02-1.086C35.644,28.43,36.408,26.764,37.251,24.969Z" transform="translate(6.237 2.457)"/><path d="M49.08,20.137a5.809,5.809,0,1,1-5.842,5.8A5.707,5.707,0,0,1,49.08,20.137Z" transform="translate(8.192 1.355)"/><path d="M19.119,20.137a5.809,5.809,0,1,1-5.833,5.8A5.718,5.718,0,0,1,19.119,20.137Z" transform="translate(1.363 1.355)"/></g></svg>