<svg xmlns="http://www.w3.org/2000/svg" width="46.87" height="47.713" viewBox="0 0 46.87 47.713"><defs><style>path{fill:#01c3d9;}</style></defs><g transform="translate(-1.565 -1)"><g transform="translate(1.565 1)"><path d="M29,30.334a18.847,18.847,0,0,1,1.468,6.637h2.241a18.867,18.867,0,0,1,1.468-6.637C39.381,19.347,38.022,1.022,31.589,1,24.888.978,24.01,19.8,29,30.334Z" transform="translate(-7.736 -1)"/><path d="M24.36,37.173h1.648a17.525,17.525,0,0,0-1.316-6c-4.961-10.465-3.918-23.4-.306-29.381a13.759,13.759,0,0,0-9.255,9.093,17.291,17.291,0,0,0,5.338,19.07,8.234,8.234,0,0,1,3.146,6.471A.743.743,0,0,0,24.36,37.173Z" transform="translate(-4.775 -1.202)"/><path d="M40.676,32.5a35.707,35.707,0,0,1-2.289,6.486,17.526,17.526,0,0,0-1.312,6H38.73a.748.748,0,0,0,.746-.746c0-3.578,1.64-5.092,3.549-6.851.365-.335.731-.671,1.088-1.036A4.607,4.607,0,0,1,40.676,32.5Z" transform="translate(-10.602 -9.016)"/><path d="M41.869,21.668A4.545,4.545,0,0,1,43.7,19.976,5.15,5.15,0,0,1,48.75,16.1a4.37,4.37,0,0,1,.7.052C49.37,8.907,45.1,3.554,39.275,1.83,42.267,6.821,42.883,15.395,41.869,21.668Z" transform="translate(-11.162 -1.211)"/><path d="M37.278,52.614h-1.17l-.939-1.364H33.357l.939,1.364H28.213l.939-1.364H27.34L26.4,52.614h-1.17a.746.746,0,0,0,0,1.491h.708v5.9A1.5,1.5,0,0,0,27.43,61.5h7.649A1.491,1.491,0,0,0,36.57,60.01v-5.9h.708a.746.746,0,0,0,0-1.491Z" transform="translate(-7.398 -13.788)"/><path d="M58.069,27.062a3.032,3.032,0,0,0-1.8-.716,3.014,3.014,0,0,0-3.668-2.1,3.631,3.631,0,0,0-6.382,2.184,3.124,3.124,0,0,0,.746,6.158h9.1a3.123,3.123,0,0,0,2-5.524Z" transform="translate(-12.325 -6.59)"/><path d="M9.669,21.682a19.114,19.114,0,0,1,.842-8.827c.037-.112.082-.224.127-.335A3.843,3.843,0,0,0,4.13,15.144a3.312,3.312,0,0,0,.738,6.538Z" transform="translate(-1.565 -3.656)"/><path d="M54.933,8.11A1.493,1.493,0,0,1,56.424,9.6a.746.746,0,1,0,1.491,0A1.493,1.493,0,0,1,59.406,8.11a.746.746,0,0,0,0-1.491,2.975,2.975,0,0,0-2.237,1.012,2.975,2.975,0,0,0-2.237-1.012.746.746,0,0,0,0,1.491Z" transform="translate(-14.957 -2.43)"/><path d="M10.776,34.542A3.351,3.351,0,0,0,8.167,35.79a3.349,3.349,0,0,0-2.609-1.248.746.746,0,1,0,0,1.491A1.866,1.866,0,0,1,7.421,37.9a.746.746,0,0,0,1.491,0,1.866,1.866,0,0,1,1.864-1.864.746.746,0,1,0,0-1.491Z" transform="translate(-2.391 -9.536)"/></g></g></svg>