<svg xmlns="http://www.w3.org/2000/svg" width="41.549" height="40.135" viewBox="0 0 41.549 40.135"><defs><style>.a{fill:#01c3d9;}</style></defs><g transform="translate(-2.68 -4.289)"><path class="a" d="M7.791,27m2.055-6.235a.852.852,0,0,0,.307,1.164.879.879,0,0,0,.413.114.852.852,0,1,0-.72-1.278ZM7.791,27a.852.852,0,0,0,.732.956h.084a.852.852,0,0,0,.878-.76h0A.853.853,0,0,0,7.791,27Zm30.417-.733a.852.852,0,0,0,.07,1.695h.11a.852.852,0,0,0-.058-1.7.87.87,0,0,0-.117.012Zm-1.84-4.18a.837.837,0,0,0,.439-.114.848.848,0,1,0-.439.114ZM17.75,41.513a.852.852,0,0,0-.694,1.554.821.821,0,0,0,.329.075.852.852,0,0,0,.36-1.625Zm11.417,0h0a.852.852,0,1,0,1.124.439.852.852,0,0,0-1.124-.439h0Zm3.759-24.4a.852.852,0,1,0-1.19.184h0A.852.852,0,0,0,32.926,17.112ZM23.459,42.725a.852.852,0,0,0,0,1.7h0a.852.852,0,0,0,0-1.7ZM14.237,15.9a.852.852,0,1,0,1.189.194l0,0A.852.852,0,0,0,14.237,15.9ZM30.8,29.165a11.6,11.6,0,1,0-.013,0v0Zm-6.587,3.249a.439.439,0,0,0-.439-.439H22.646a.439.439,0,0,0-.439.439v.729a.439.439,0,0,0,.439.439h1.133a.439.439,0,0,0,.439-.439ZM26.453,27.4a2.454,2.454,0,0,0-.8-1.941,3.28,3.28,0,0,0-2.244-.72,3.413,3.413,0,0,0-2.147.628,2.072,2.072,0,0,0-.786,1.576.281.281,0,0,0,.263.3h.014l1.287.022a.439.439,0,0,0,.439-.325.822.822,0,0,1,.237-.4.958.958,0,0,1,.672-.246.979.979,0,0,1,.768.3,1.154,1.154,0,0,1,.268.8,1.59,1.59,0,0,1-.233.878,1.945,1.945,0,0,1-.632.624,4.43,4.43,0,0,0-1.071.966,1.884,1.884,0,0,0-.285.913.312.312,0,0,0,.284.337h1.424a.312.312,0,0,0,.312-.281,1.549,1.549,0,0,1,.114-.523,1.374,1.374,0,0,1,.518-.54,3.17,3.17,0,0,0,1.137-.988,2.333,2.333,0,0,0,.465-1.383ZM24.925,16.9h4.523V15.21a1.186,1.186,0,0,0-.439-.918,19.4,19.4,0,0,0-3.227-2.108Zm-4.281-7.9c.184.654.356.834.487.847a2.739,2.739,0,0,0,.343.931v.856l1.8,1.317-.672.878.439.729L22.695,16.9h1.532l-.356-2.4.439-.729-.672-.878,1.8-1.317v-.826a2.682,2.682,0,0,0,.343-.922c.132,0,.3-.193.487-.847.255-.878,0-1.023-.242-1a2.326,2.326,0,0,0,.1-.369c.386-2.31-.755-2.393-.755-2.393a1.759,1.759,0,0,0-.676-.615,2.311,2.311,0,0,0-1.41-.3,2.042,2.042,0,0,0-.562.105h0a2.478,2.478,0,0,0-.615.316,3.307,3.307,0,0,0-.637.523,2.559,2.559,0,0,0-.685,1.2,2.635,2.635,0,0,0,0,1.177h0a2.325,2.325,0,0,0,.1.369C20.662,7.978,20.385,8.114,20.644,8.992ZM17.469,15.21V16.9h4.523l-.878-4.716a19.377,19.377,0,0,0-3.227,2.108A1.185,1.185,0,0,0,17.469,15.21ZM40.584,37.662l-.878,4.7h4.523V40.687a1.186,1.186,0,0,0-.439-.918A19.386,19.386,0,0,0,40.584,37.662Zm-2.152.751,1.8-1.317v-.852a2.684,2.684,0,0,0,.356-.9c.132,0,.3-.193.487-.847.255-.878,0-1.023-.242-1a2.325,2.325,0,0,0,.1-.369c.386-2.31-.755-2.393-.755-2.393a1.756,1.756,0,0,0-.7-.659,2.311,2.311,0,0,0-1.41-.3,2.042,2.042,0,0,0-.562.105h0a2.478,2.478,0,0,0-.615.316,3.307,3.307,0,0,0-.637.523,2.557,2.557,0,0,0-.685,1.2,2.636,2.636,0,0,0,0,1.177h0a2.326,2.326,0,0,0,.1.369c-.228,0-.5.11-.242,1,.184.654.356.834.487.847a2.739,2.739,0,0,0,.343.931V37.1l1.8,1.317-.672.878.439.729-.338,2.345h1.533l-.356-2.4.439-.729ZM32.68,39.77a1.186,1.186,0,0,0-.439.918v1.677h4.532l-.878-4.716A19.4,19.4,0,0,0,32.68,39.77ZM11.01,37.662l-.865,4.7h4.532V40.687a1.186,1.186,0,0,0-.439-.918A19.4,19.4,0,0,0,11.01,37.662Zm-2.138.751,1.8-1.317v-.852a2.682,2.682,0,0,0,.343-.922c.132,0,.3-.193.487-.847.255-.878,0-1.023-.242-1a2.326,2.326,0,0,0,.1-.369c.386-2.31-.755-2.393-.755-2.393a1.761,1.761,0,0,0-.689-.641,2.311,2.311,0,0,0-1.41-.3,2.042,2.042,0,0,0-.562.105h0a2.478,2.478,0,0,0-.615.316,3.307,3.307,0,0,0-.637.523A2.557,2.557,0,0,0,6,31.918,2.635,2.635,0,0,0,6,33.1H6a2.326,2.326,0,0,0,.1.369c-.228,0-.5.11-.242,1,.184.654.356.834.487.847a2.739,2.739,0,0,0,.343.931V37.1l1.8,1.317-.672.878.439.729L7.91,42.365H9.442l-.356-2.4.439-.729ZM3.119,39.77a1.186,1.186,0,0,0-.439.918v1.677H7.212l-.878-4.7A19.358,19.358,0,0,0,3.119,39.77Z"/></g></svg>