<svg xmlns="http://www.w3.org/2000/svg" width="14.115" height="14.117" viewBox="0 0 14.115 14.117"><defs><style>.a{fill:#707070;}</style></defs><g transform="translate(-569.619 34.235)"><path class="a" d="M583.732-27.322a7.066,7.066,0,0,0-7.371-6.906,7.058,7.058,0,0,0-6.736,7.373,7.05,7.05,0,0,0,7.3,6.732A7.069,7.069,0,0,0,583.732-27.322Zm-1.313-2.765.032-.01.145.294-.177.015Zm-1.252-1.1a.017.017,0,0,1,.01-.006.263.263,0,0,0,.212-.341.211.211,0,0,1,.013-.058c.1.112.189.209.273.311.04.049-.066.217-.141.219-.115,0-.231,0-.346,0-.023,0-.064-.029-.064-.045S581.152-31.166,581.167-31.192Zm-8.291-.9.359-.07c.039.227-.077.22-.359.2Zm.387.33c-.02.037-.032.094-.062.106a.308.308,0,0,1-.318-.061l.345-.082ZM571.2-30.63c.03.158-.084.2-.131.284l-.027-.015Zm11.607,1.663c-.143,0-.286.009-.428,0a.4.4,0,0,1-.168-.091c-.217-.155-.232-.16-.511-.1l-.013.206c-.132-.046-.255-.094-.381-.133s-.267-.071-.41-.108v-.365c-.128.009-.246.015-.363.025a1.381,1.381,0,0,0-.568.127.781.781,0,0,1-.363.016.718.718,0,0,0-.419.194c-.033.022-.024.124-.017.187a.257.257,0,0,1-.137.275c-.164.1-.315.222-.47.336-.053.039-.121.065-.09.161.041.126.034.128.171.149-.008.086.022.183-.1.231-.018.007-.027.052-.028.08,0,.135-.01.27-.006.4a.213.213,0,0,0,.046.124c.173.2.351.4.525.6.082.095.188.05.282.048.131,0,.261-.034.392-.038a.3.3,0,0,0,.238-.087.342.342,0,0,1,.345-.012.47.47,0,0,0,.393.147c.042,0,.083.009.138.016-.014.153-.032.3-.037.443a.377.377,0,0,0,.036.184c.114.214.235.425.358.634a.147.147,0,0,1,0,.17c-.053.089-.1.184-.146.276a.3.3,0,0,0,.06.4.25.25,0,0,1,.094.233c0,.034,0,.07,0,.1a.549.549,0,0,0,.161.494.312.312,0,0,1,.088.263c-.007.087,0,.176,0,.272l.19.017a6.416,6.416,0,0,1-8.1,1.6,6.413,6.413,0,0,1-2.862-8.155c0,.069,0,.138,0,.207s.013.121.086.139a.226.226,0,0,1,.182.3.905.905,0,0,0,.241.7c.032.047.142.042.216.061a.708.708,0,0,0-.008-.2.588.588,0,0,0-.117-.185c-.124-.145-.1-.323-.131-.5h.134a.125.125,0,0,1,.013.036,1.28,1.28,0,0,0,.347.761.151.151,0,0,1,.016.2.161.161,0,0,0,0,.13.553.553,0,0,0,.5.363c.053,0,.1.032.157.036.032,0,.065-.027.1-.032.067-.009.135-.011.209-.017a.445.445,0,0,1,0,.1c-.019.07.015.089.076.1a.72.72,0,0,1,.584.339.465.465,0,0,0,.448.218c.214,0,.2.01.246.213a.249.249,0,0,1-.149.323.286.286,0,0,0-.179.322.457.457,0,0,1-.018.194.309.309,0,0,0,.087.342c.11.118.2.251.305.378.019.024.052.049.052.075,0,.18.12.229.267.284a1.305,1.305,0,0,1,.33.23.172.172,0,0,1,.045.12c0,.293.006.586,0,.879,0,.1.01.168.135.177-.025.147-.054.286-.07.426a.212.212,0,0,0,.036.154.533.533,0,0,1,.145.537.51.51,0,0,0,.074.372,1.922,1.922,0,0,0,.514.629c.141.111.294.06.442.065.05,0,.064-.109.019-.151a1.068,1.068,0,0,0-.151-.126.173.173,0,0,1-.066-.229c.025-.079.039-.161.06-.251-.12-.018-.246.008-.281-.143.042-.083.182-.12.152-.261a.539.539,0,0,1-.094-.036c-.025-.015-.066-.049-.062-.06a.133.133,0,0,1,.067-.074c.168-.064.338-.121.506-.184a.206.206,0,0,0,.086-.071c.153-.212.307-.424.453-.641a.307.307,0,0,0,.037-.165.425.425,0,0,0-.038-.168c-.058-.128.008-.224.074-.319a.115.115,0,0,1,.077-.035.485.485,0,0,1,.15,0c.177.039.277-.085.389-.18a.176.176,0,0,0,.033-.106c.023-.207.039-.415.068-.621a.42.42,0,0,1,.08-.161c.087-.129.218-.23.236-.4.007-.061,0-.1-.064-.107a.359.359,0,0,1-.285-.239.147.147,0,0,0-.165-.093,1.593,1.593,0,0,1-.832-.142c-.061-.03-.09-.058-.088-.126a.6.6,0,0,0-.129-.421c-.029-.035-.086-.078-.122-.071a.432.432,0,0,1-.507-.283c-.043-.085-.15-.138-.256-.231,0,.141-.065.153-.14.15a.491.491,0,0,0-.115.009.18.18,0,0,1-.227-.1c-.037-.081-.116-.085-.189-.111a.315.315,0,0,0-.436.141.322.322,0,0,1-.407.15c-.265-.057-.268-.043-.287-.31q-.006-.081-.012-.162c-.013-.167-.013-.167-.181-.194l-.2-.035a1.417,1.417,0,0,0,.1-.208,1.191,1.191,0,0,0,.027-.213l-.039-.02a3.754,3.754,0,0,0-.347.236.363.363,0,0,1-.411.04.319.319,0,0,1-.129-.275,2.612,2.612,0,0,1,.206-.5.088.088,0,0,1,.039-.041,1.084,1.084,0,0,1,.593-.194,5.322,5.322,0,0,0,.548,0c-.066.231.072.3.253.342a2.568,2.568,0,0,0,0-.27.192.192,0,0,1,.076-.191c.148-.11.3-.219.442-.332.034-.026.078-.067.079-.1a.4.4,0,0,1,.14-.254,2.092,2.092,0,0,1,.6-.475,1,1,0,0,0,.239-.246c.083-.1.167-.132.269-.022l.1-.117a1.048,1.048,0,0,1-.15-.047c-.026-.012-.058-.043-.059-.067a.138.138,0,0,1,.038-.1.2.2,0,0,1,.239.037.256.256,0,0,0,.344,0c.021-.023.071-.02.108-.029,0,.042.008.1-.015.122-.1.118-.094.156.051.2.1.032.21.062.312.092.065-.139,0-.191-.1-.234a.958.958,0,0,1-.162-.11c.055-.029.108-.062.164-.087.076-.034.11-.241.034-.27-.224-.083-.233-.258-.221-.449a.122.122,0,0,0-.006-.034s0-.006-.015-.018c-.069.032-.139.07-.213.1s-.139.045-.225.071c0-.049,0-.067,0-.085.026-.227.026-.227-.2-.277l-.135-.03a.233.233,0,0,0-.289.228s0,.008,0,.012c0,.1.031.224-.016.293s-.184.064-.261.12a.6.6,0,0,0-.157.212.151.151,0,0,1-.193.1v-.347L574.6-31.2a.326.326,0,0,1-.291-.317.074.074,0,0,1,.026-.057,2.64,2.64,0,0,1,.815-.394l.043.171c.07,0,.142.034.172-.077.008-.028.094-.035.143-.052l-.1-.158a.445.445,0,0,0,.369-.149c.07-.058.2-.043.294-.073.149-.046.238.033.333.145l-.477.258.6.145c.012-.009.023-.013.024-.018.033-.161.132-.2.29-.2.052,0,.11-.088.188-.157l-.211-.069c0-.008-.01-.015-.008-.021.038-.177-.058-.256-.211-.3a1.076,1.076,0,0,1-.19-.084.839.839,0,0,0-.773.03.136.136,0,0,0-.09.172,1.844,1.844,0,0,1,.014.187c-.1-.055-.225.032-.268-.121a.123.123,0,0,1,.045-.151c.052-.038.1-.085.145-.129l-.006-.035a3.6,3.6,0,0,0-.44.006c-.052.006-.095.084-.161.148l.169.044c.008.155.006.157-.144.168-.07.005-.151-.011-.179.087,0,.014-.037.029-.056.029-.111,0-.222,0-.345,0l-.027-.218a.46.46,0,0,0,.525-.235c-.066-.07-.121-.061-.189.009a.29.29,0,0,1-.465-.042c-.033-.044-.076-.109-.119-.112a.859.859,0,0,0-.361.025.945.945,0,0,0-.309.252c.063,0,.126,0,.189,0,.042,0,.107.01.118.035s0,.092-.01.142c.1.013.223.024.341.047.019,0,.028.058.046.1h-.4c-.009,0-.026-.01-.027-.017-.023-.126-.134-.106-.217-.129-.167-.045-.334-.087-.483-.125a6.405,6.405,0,0,1,8,.4.246.246,0,0,1-.165.183,1,1,0,0,0-.273.16c-.095.082-.054.19.065.223a.174.174,0,0,1,.089.075,1.159,1.159,0,0,1,.07.162l.265-.1.042.292h-.165a1.721,1.721,0,0,0-.274.007.371.371,0,0,0-.15.088.282.282,0,0,0-.067.093.317.317,0,0,1-.31.195c-.121,0-.162.058-.168.166,0,.042-.012.084-.019.132l.134.053-.031.138c-.187,0-.357.009-.527.011-.125,0-.167.09-.172.239a.868.868,0,0,0,.023.172.237.237,0,0,0,.269.228c.062,0,.123,0,.185,0,.14,0,.257-.007.323-.181a1.493,1.493,0,0,1,.275-.369.1.1,0,0,1,.088-.027.234.234,0,0,0,.281-.092.568.568,0,0,1,.074-.059c.018.164.154.206.256.281s.183.126.275.188c-.042.153-.168.053-.243.093a.205.205,0,0,0,.341.073c.018-.023.009-.066.015-.1s.021-.1.038-.171c-.125-.138-.437-.143-.427-.455.128-.012.263-.045.364.092a.364.364,0,0,0,.1.083.26.26,0,0,1,.135.27c-.015.106.066.158.124.222.037.039.079.073.123.114.094-.13.015-.378.272-.416.005.042.012.082.015.123.02.242.129.35.365.335.127-.008.188.03.215.154a2.224,2.224,0,0,0,.1.3C582.891-29,582.879-28.968,582.807-28.967Zm-9.333-2.043c.125-.1.153-.107.3-.054-.007.132-.037.237-.208.241Zm.863.852v-.192h.189C574.561-30.211,574.513-30.163,574.338-30.158Zm-.122.269c0-.133.087-.2.273-.2C574.505-29.906,574.443-29.863,574.216-29.889Zm-.394-.537c.038-.063.05-.107.079-.126a.469.469,0,0,1,.385-.058c.044.012.064.109.1.184Zm0,.293c.037-.158.16-.239.361-.208l-.254.356C573.838-30,573.8-30.037,573.824-30.133Zm.789-.072c.244.042.246.043.237.172C574.661-29.98,574.565-30.048,574.613-30.206Z"/><path class="a" d="M1003.346,84.96a1.7,1.7,0,0,1,.121.138c-.2.072-.2.083-.181.279.187-.031.412.068.537-.179-.26-.1-.317-.336-.367-.573-.111.012-.225,0-.264.128S1003.281,84.9,1003.346,84.96Z" transform="translate(-423.529 -116.109)"/><path class="a" d="M988.522,97.763c.025-.066.038-.149-.064-.159-.071-.007-.171-.009-.213.032a.309.309,0,0,0-.124.319A.556.556,0,0,0,988.522,97.763Z" transform="translate(-408.804 -128.784)"/><path class="a" d="M841.826,130.78a1.292,1.292,0,0,0-.128.062l-.083.038c.026.033.046.079.079.1a.122.122,0,0,0,.107-.017,2.36,2.36,0,0,0,.179-.178l-.009-.037A1.434,1.434,0,0,0,841.826,130.78Z" transform="translate(-265.7 -161.16)"/><path class="a" d="M830.108,135.323l-.055.134.033.031c.037-.017.1-.028.105-.053s-.027-.076-.043-.115Z" transform="translate(-254.406 -165.629)"/></g></svg>