<svg xmlns="http://www.w3.org/2000/svg" width="29.561" height="28.655" viewBox="0 0 29.561 28.655"><defs><style>.a{fill:#bbbdbf;fill-rule:evenodd;}</style></defs><g transform="translate(-1735.972 -3919.214)"><path class="a" d="M243.826,39.4V30.155c0-3.061.847-5.34,3.712-5.6,3.126,0,3.386,2.8,3.386,5.861V39.4h6.512c0-4.754.586-13.155-1.693-16.541a6.759,6.759,0,0,0-5.666-3.061,7.641,7.641,0,0,0-5.666,2.214c-.586.586,0,.26-.586.586V20.386a41.125,41.125,0,0,0-5.666,0l-.26,19.081h5.926Z" transform="translate(1508.028 3908.401)"/><path class="a" d="M223.5,39.716h5.991V20.7H223.5Z" transform="translate(1513.051 3908.087)"/><path class="a" d="M224.623,6.586c-4.233,1.954-1.107,7.033,3.126,5.34,3.647-1.433,1.107-7.88-3.126-5.34Z" transform="translate(1513.361 3913.214)"/></g></svg>