<svg xmlns="http://www.w3.org/2000/svg" width="16.482" height="19.884" viewBox="0 0 16.482 19.884"><defs><style>.a{fill:#707070;}</style></defs><g transform="translate(4.663 0)"><path class="a" d="M1440.547,131.561a3.582,3.582,0,0,1-3.578-3.579v-1.544a3.578,3.578,0,1,1,7.155,0v1.544A3.582,3.582,0,0,1,1440.547,131.561Zm0-7.722a2.6,2.6,0,0,0-2.6,2.6v1.544a2.6,2.6,0,1,0,5.2,0v-1.544A2.6,2.6,0,0,0,1440.547,123.838Z" transform="translate(-1436.969 -122.859)"/></g><g transform="translate(0 11.154)"><path class="a" d="M1448.2,142.977a.489.489,0,0,1-.49-.49,7.261,7.261,0,0,0-14.523,0,.49.49,0,0,1-.98,0,8.241,8.241,0,0,1,16.482,0A.489.489,0,0,1,1448.2,142.977Z" transform="translate(-1432.208 -134.247)"/></g></svg>