<svg xmlns="http://www.w3.org/2000/svg" width="15" height="24" viewBox="0 0 15 24"><defs><style>.a{fill:#ff7e1c;}</style></defs><g transform="translate(-147 -1070)"><g transform="translate(95 -155)"><path d="M59.5,1245a7.508,7.508,0,0,1-7.5-7.5.5.5,0,0,1,1,0,6.5,6.5,0,0,0,13,0,.5.5,0,0,1,1,0A7.508,7.508,0,0,1,59.5,1245Z"/></g><g transform="translate(95 -155)"><path d="M59.5,1249a.5.5,0,0,1-.5-.5v-4a.5.5,0,0,1,1,0v4A.5.5,0,0,1,59.5,1249Z"/></g><g transform="translate(95 -155)"><path d="M61.5,1249h-4a.5.5,0,0,1,0-1h4a.5.5,0,0,1,0,1Z"/></g><g transform="translate(95 -155)"><path class="a" d="M59.5,1241.5h0a4,4,0,0,1-4-4v-8a4,4,0,0,1,4-4h0a4,4,0,0,1,4,4v8A4,4,0,0,1,59.5,1241.5Z"/><path d="M59.5,1242a4.506,4.506,0,0,1-4.5-4.5v-8a4.5,4.5,0,0,1,9,0v8A4.506,4.506,0,0,1,59.5,1242Zm0-16a3.5,3.5,0,0,0-3.5,3.5v8a3.5,3.5,0,0,0,7,0v-8A3.5,3.5,0,0,0,59.5,1226Z"/></g><g transform="translate(95 -155)"><path d="M63.5,1231h-1a.5.5,0,0,1,0-1h1a.5.5,0,0,1,0,1Z"/><path d="M63.5,1234h-1a.5.5,0,0,1,0-1h1a.5.5,0,0,1,0,1Z"/><path d="M63.5,1237h-1a.5.5,0,0,1,0-1h1a.5.5,0,0,1,0,1Z"/></g><g transform="translate(95 -155)"><path d="M56.5,1231h-1a.5.5,0,0,1,0-1h1a.5.5,0,0,1,0,1Z"/><path d="M56.5,1234h-1a.5.5,0,0,1,0-1h1a.5.5,0,0,1,0,1Z"/><path d="M56.5,1237h-1a.5.5,0,0,1,0-1h1a.5.5,0,0,1,0,1Z"/></g></g></svg>