<svg xmlns="http://www.w3.org/2000/svg" width="55.884" height="50.78" viewBox="0 0 55.884 50.78"><defs><style>path{fill:#01c3d9;}</style></defs><g transform="translate(-5 -9.11)"><path d="M10.206,44.255,5.1,63.307a2.977,2.977,0,0,0,2.1,3.641L16.99,69.57Z" transform="translate(0 -13.322)"/><path d="M22.46,53.458,28.1,74.5a2.977,2.977,0,0,0,3.641,2.1l10.934-2.931Z" transform="translate(-6.619 -16.811)"/><path d="M46.028,44.042a3.668,3.668,0,0,0-.648-.828l-.856-.826a3.525,3.525,0,0,0-.857-.612,2.733,2.733,0,0,0-.956-.288,2.184,2.184,0,0,0-.98.127,2.692,2.692,0,0,0-1.516,1.573,2.193,2.193,0,0,0-.086.979,2.72,2.72,0,0,0,.324.944,3.511,3.511,0,0,0,.643.835l.856.826a3.449,3.449,0,0,0,.851.607,2.669,2.669,0,0,0,.954.278,2.265,2.265,0,0,0,.987-.132,2.485,2.485,0,0,0,.933-.634,2.377,2.377,0,0,0,.583-.939,2.235,2.235,0,0,0,.092-.974A2.537,2.537,0,0,0,46.028,44.042Z" transform="translate(-13.308 -12.269)"/><path d="M66.077,33.169,42.021,9.112l-17.056,0A3.967,3.967,0,0,0,21,13.076V30.135L45.055,54.191a2.972,2.972,0,0,0,4.2,0L66.076,37.373A2.971,2.971,0,0,0,66.077,33.169ZM29.866,17.98a2.973,2.973,0,1,1,0-4.2A2.971,2.971,0,0,1,29.866,17.98ZM40.828,34.269A4.754,4.754,0,0,1,39.766,35.9a4.842,4.842,0,0,1-1.612,1.138,4.452,4.452,0,0,1-1.73.36,4.238,4.238,0,0,1-1.693-.356,5.035,5.035,0,0,1-1.5-1.01l-.856-.826A5.074,5.074,0,0,1,31.3,33.733a4.385,4.385,0,0,1-.43-1.68,4.311,4.311,0,0,1,.285-1.741,5.213,5.213,0,0,1,2.68-2.779,4.23,4.23,0,0,1,1.724-.343,4.456,4.456,0,0,1,1.689.373,5.07,5.07,0,0,1,1.514,1.021l.856.826a5.145,5.145,0,0,1,1.07,1.46,4.214,4.214,0,0,1,.428,1.668A4.415,4.415,0,0,1,40.828,34.269Zm5.2,9.023L41,23.193l1.86-.459,5.029,20.1Zm11.524-8.1a4.739,4.739,0,0,1-1.062,1.636,4.838,4.838,0,0,1-1.613,1.138,4.443,4.443,0,0,1-1.729.36,4.232,4.232,0,0,1-1.695-.357,5.06,5.06,0,0,1-1.514-1.021l-.867-.836A5.089,5.089,0,0,1,48,34.635a4.3,4.3,0,0,1-.429-1.68,4.371,4.371,0,0,1,.291-1.736,5.218,5.218,0,0,1,2.68-2.779,4.36,4.36,0,0,1,1.724-.353,4.293,4.293,0,0,1,1.694.368,5.09,5.09,0,0,1,1.509,1.015l.867.836a5.074,5.074,0,0,1,1.075,1.477,4.305,4.305,0,0,1,.423,1.674A4.37,4.37,0,0,1,57.551,35.187Z" transform="translate(-6.064)"/><path d="M72.947,45.5a3.69,3.69,0,0,0-.649-.829l-.867-.836a3.513,3.513,0,0,0-.857-.612,2.667,2.667,0,0,0-.95-.283,2.216,2.216,0,0,0-.974.132,2.435,2.435,0,0,0-.922.623,2.386,2.386,0,0,0-.584.939,2.333,2.333,0,0,0-.1.979,2.552,2.552,0,0,0,.312.944,3.483,3.483,0,0,0,.643.835l.867.836a3.525,3.525,0,0,0,.857.612,2.657,2.657,0,0,0,.961.283,2.262,2.262,0,0,0,.985-.132,2.482,2.482,0,0,0,.933-.635,2.393,2.393,0,0,0,.583-.938,2.212,2.212,0,0,0,.087-.979A2.664,2.664,0,0,0,72.947,45.5Z" transform="translate(-23.515 -12.821)"/></g></svg>