<svg xmlns="http://www.w3.org/2000/svg" width="27.808" height="27.482" viewBox="0 0 27.808 27.482"><defs><style>.a{fill:#bbbdbf;fill-rule:evenodd;}</style></defs><g transform="translate(-1563 -3919.8)"><path class="a" d="M5.926,11.914h.26a11.816,11.816,0,0,0,1.433.26c.26.26.26.26.847.26l.847.586h0l1.107.586h.26l.847.586c.26,0,.26,0,.586.26.847.586.26.26.847.586h.26c.586.847,0,.26.586.586l.26.26.26.26h0l.586.586h.26l.586.586h.26v.26l.847.586h0v.26l.26.26c.26.586,0,0,.586.847l.847.847c.586.847,0,.26.847,1.107a2.3,2.3,0,0,1,.586,1.107l1.433,3.061c.26.26.26,0,.26.26s0,.26.26.586v.26c.26.26,0-.26.26.26.26,1.433,0,.26.26,1.107v.326c0,1.107,0,.586.26.847V31c.26.847.26-.586.26,1.693v1.693h4.819a7.624,7.624,0,0,1-.26-2.54v-.586a6.17,6.17,0,0,1-.26-1.433V28.716L26.7,27.284c-.26-1.107,0-.847-.26-1.107l-2.279-5.34h0l-.065-.521h-.26l-.26-.847v-.26L22.728,18.1h-.26l-.26-.586h0l-.586-.847h0a.255.255,0,0,1-.26-.26l-.26-.26c-.586-.586-.586-.847-1.107-1.433h-.26l-.26-.586-.26-.26-.847-.586H18.1l-.586-.847c-.26-.26-.847-.586-1.107-.847l-1.954-1.107h0l-1.693-.847h0v-.26l-1.693-.586h0L9.117,7.942c-.586-.26.26,0-.26,0l-.847-.26c-.586-.26-.847,0-1.693-.26a3.176,3.176,0,0,0-1.5-.26c0-.26.26-.26-.26-.26H0v4.233H2.54c.847.26,0,0,.586.26H4.819c.586.26-.26.26,1.107.521Z" transform="translate(1563 3912.9)"/><path class="a" d="M16.737,30.8h-.26c-.26-.26-.26-.586-.586-1.107,0-.26,0,0-.26-.26v-.26l-.847-.847-.26-.26V27.8h0l-.847-.847-1.433-1.693-.26-.26c-.586-.26-.26,0-.847-.26L10.029,23.9c-.586-.26.26,0-.847-.586h0l-.847-.586h-.26l-.586-.26s.26,0-.586-.26c-.586,0,0,0-.847-.26-1.107-.26-.26,0-.847-.26H4.624c-.847-.26-.26-.26-.586-.26l-.847-.26c-1.693,0-.586-.26-1.954-.26H0v4.494l2.54.13c.586,0,0,0,.586.26h.847c.26.26-.26,0,.586.26h.26c.586.26,0,0,.26.26h.586l.586.26a5.516,5.516,0,0,0,1.433.847l.26.26c.847.586.586.26,1.107.586l1.693,1.954c.26.26,0,.26.586.847h0c.586.586.26.26.586.847a3.328,3.328,0,0,1,.847,1.433l.26.586v.26c.26,1.107.26-.26.586,1.433,0,.847.26.26.26,1.433,0,2.214-.26,1.433.26,2.214h4.233c.26-3.061-.26-2.54-.26-3.386a1.745,1.745,0,0,0-.26-1.107c0-.586,0,0-.26-1.107,0-.847,0,.26-.26-.847l-.26-1.107c-.326-.326-.326-.065-.326-.912Z" transform="translate(1563 3908.017)"/></g></svg>