<svg xmlns="http://www.w3.org/2000/svg" width="24.834" height="24.834" viewBox="0 0 24.834 24.834"><defs><style>.a{fill:#389d9c;}</style></defs><g transform="translate(0 -1.132)"><g transform="translate(0 1.132)"><g transform="translate(0 0)"><path class="a" d="M24.477,24.48l-5.624-5.66a10.511,10.511,0,1,0-8.323,4.116,10.438,10.438,0,0,0,6.616-2.36l5.605,5.64a1.214,1.214,0,0,0,1.726,0A1.233,1.233,0,0,0,24.477,24.48ZM2.442,12.339A8.089,8.089,0,1,1,10.53,20.48,8.123,8.123,0,0,1,2.442,12.339Z" transform="translate(0 -1.742)"/></g></g></g></svg>