<svg xmlns="http://www.w3.org/2000/svg" xmlns:xlink="http://www.w3.org/1999/xlink" width="36" height="36" viewBox="0 0 36 36"><defs><style>.a,.c{fill:#fff;}.a{stroke:#707070;stroke-width:0.2px;}.b{fill:#bbbdbf;}.d{stroke:none;}.e{fill:none;}.f{filter:url(#a);}</style><filter id="a" x="0" y="0" width="36" height="36" filterUnits="userSpaceOnUse"><feOffset dy="1" input="SourceAlpha"/><feGaussianBlur stdDeviation="1" result="b"/><feFlood flood-opacity="0.102"/><feComposite operator="in" in2="b"/><feComposite in="SourceGraphic"/></filter></defs><g transform="translate(-1163 -7516)"><g class="f" transform="matrix(1, 0, 0, 1, 1163, 7516)"><g class="a" transform="translate(3 2)"><circle class="d" cx="15" cy="15" r="15"/><circle class="e" cx="15" cy="15" r="14.9"/></g></g><g transform="translate(1173 7527)"><path class="b" d="M2800.965,218.968c-1.854-.083-3.709-.158-5.563-.255a3.611,3.611,0,0,1-1.007-.2,2.409,2.409,0,0,1-1.592-2.289,34.659,34.659,0,0,1-.053-5.657c.025-.383.114-.762.161-1.144a2.226,2.226,0,0,1,2.041-1.854c1.768-.112,3.54-.226,5.31-.244,1.887-.019,3.776.065,5.664.122a9.3,9.3,0,0,1,1.4.154,2.1,2.1,0,0,1,1.833,1.863,19.1,19.1,0,0,1,.257,4.021c-.037,1.081-.141,2.161-.255,3.238a2.172,2.172,0,0,1-2.034,1.925c-1.853.108-3.707.175-5.561.256-.2.009-.4,0-.595,0Zm-1.505-8.424v5.136l4.176-2.568Z" transform="translate(-2792.66 -207.326)"/><path class="c" d="M2901.216,258.7l4.177,2.567-4.177,2.568Z" transform="translate(-2894.416 -255.478)"/></g></g></svg>