<svg xmlns="http://www.w3.org/2000/svg" xmlns:xlink="http://www.w3.org/1999/xlink" width="36" height="36" viewBox="0 0 36 36"><defs><style>.a{fill:#fff;stroke:#707070;stroke-width:0.2px;}.b{fill:#bbbdbf;}.c{stroke:none;}.d{fill:none;}.e{filter:url(#a);}</style><filter id="a" x="0" y="0" width="36" height="36" filterUnits="userSpaceOnUse"><feOffset dy="1" input="SourceAlpha"/><feGaussianBlur stdDeviation="1" result="b"/><feFlood flood-opacity="0.102"/><feComposite operator="in" in2="b"/><feComposite in="SourceGraphic"/></filter></defs><g transform="translate(-1126 -7516)"><g class="e" transform="matrix(1, 0, 0, 1, 1126, 7516)"><g class="a" transform="translate(3 2)"><circle class="c" cx="15" cy="15" r="15"/><circle class="d" cx="15" cy="15" r="14.9"/></g></g><g transform="translate(1138 7527)"><path class="b" d="M2905.342,511.913h0c0-.908,0-1.816,0-2.724a4.221,4.221,0,0,0-.036-.588,3.661,3.661,0,0,0-3.63-3.15q-2.8,0-5.593,0a3.744,3.744,0,0,0-.808.089,3.653,3.653,0,0,0-2.861,3.595q0,2.78,0,5.561a3.889,3.889,0,0,0,.046.6,3.663,3.663,0,0,0,3.6,3.086q2.793,0,5.585,0a4.109,4.109,0,0,0,.6-.044,3.66,3.66,0,0,0,3.1-3.568C2905.347,513.815,2905.342,512.864,2905.342,511.913ZM2904.1,514.7a2.421,2.421,0,0,1-2.108,2.418,2.348,2.348,0,0,1-.322.02q-2.788,0-5.577,0a2.423,2.423,0,0,1-2.434-2.424q0-2.8,0-5.593a2.421,2.421,0,0,1,2.426-2.426q1.4,0,2.8,0h2.78a2.413,2.413,0,0,1,2.38,1.9,2.533,2.533,0,0,1,.058.545Q2904.1,511.919,2904.1,514.7Z" transform="translate(-2892.412 -505.449)"/><path class="b" d="M2973.749,525.553a.772.772,0,1,1-.776.764A.771.771,0,0,1,2973.749,525.553Z" transform="translate(-2963.839 -523.273)"/><path class="b" d="M2923.083,532.751a3.37,3.37,0,1,0,3.362,3.384A3.377,3.377,0,0,0,2923.083,532.751Zm-.022,5.5a2.126,2.126,0,1,1,2.14-2.106A2.13,2.13,0,0,1,2923.061,538.246Z" transform="translate(-2916.61 -529.655)"/></g></g></svg>