<svg xmlns="http://www.w3.org/2000/svg" xmlns:xlink="http://www.w3.org/1999/xlink" width="36" height="36" viewBox="0 0 36 36"><defs><style>.a{fill:#fff;stroke:#707070;stroke-width:0.2px;}.b{fill:#bbbdbf;}.c{stroke:none;}.d{fill:none;}.e{filter:url(#a);}</style><filter id="a" x="0" y="0" width="36" height="36" filterUnits="userSpaceOnUse"><feOffset dy="1" input="SourceAlpha"/><feGaussianBlur stdDeviation="1" result="b"/><feFlood flood-opacity="0.102"/><feComposite operator="in" in2="b"/><feComposite in="SourceGraphic"/></filter></defs><g transform="translate(-1089 -7516)"><g class="e" transform="matrix(1, 0, 0, 1, 1089, 7516)"><g class="a" transform="translate(3 2)"><circle class="c" cx="15" cy="15" r="15"/><circle class="d" cx="15" cy="15" r="14.9"/></g></g><g transform="translate(1099 7527)"><path class="b" d="M1263,234.647v-.14a.865.865,0,0,1,.673-.221,6.518,6.518,0,0,0,3.072-.928.233.233,0,0,0,.107-.109,7.052,7.052,0,0,0-.818-.132,3.146,3.146,0,0,1-2.187-1.741.884.884,0,0,1-.09-.263c-.045-.289.076-.417.35-.316a5.545,5.545,0,0,0,1.08.261c.3.046.594-.051.889.009a2.854,2.854,0,0,1-1.352-.758,4.772,4.772,0,0,1-1.455-1.973,1.177,1.177,0,0,1-.072-.233c-.02-.12-.024-.241.087-.316a.281.281,0,0,1,.3.017,4.031,4.031,0,0,0,.563.277,2.638,2.638,0,0,0,.845.144,4.994,4.994,0,0,1-1.105-1.445,3.305,3.305,0,0,1-.132-2.672c.175-.472.364-.519.731-.185a10.53,10.53,0,0,0,2.693,1.907,12.846,12.846,0,0,0,2.991.925c.257.047.364,0,.382-.273a3.9,3.9,0,0,1,.715-2.045,3.219,3.219,0,0,1,3.7-1.221,8.017,8.017,0,0,1,.991.431.741.741,0,0,0,.635.048c.464-.156.908-.359,1.367-.526.164-.059.349-.156.489,0s.038.355-.048.52a3.788,3.788,0,0,1-.891,1.1c.251-.088.479-.166.7-.252.173-.065.359-.13.518.045v.07a1.986,1.986,0,0,1-1.011,1.537.564.564,0,0,0-.235.544,9.516,9.516,0,0,1-1.135,4.487,8.719,8.719,0,0,1-5.7,4.575,11.246,11.246,0,0,1-3.5.145,13.143,13.143,0,0,1-2.1-.293,6.736,6.736,0,0,1-1.545-.533A1,1,0,0,1,1263,234.647Z" transform="translate(-1263 -223.025)"/></g></g></svg>