<svg xmlns="http://www.w3.org/2000/svg" xmlns:xlink="http://www.w3.org/1999/xlink" width="36" height="36" viewBox="0 0 36 36"><defs><style>.a{fill:#fff;stroke:#707070;stroke-width:0.2px;}.b{fill:#bbbdbf;}.c{stroke:none;}.d{fill:none;}.e{filter:url(#a);}</style><filter id="a" x="0" y="0" width="36" height="36" filterUnits="userSpaceOnUse"><feOffset dy="1" input="SourceAlpha"/><feGaussianBlur stdDeviation="1" result="b"/><feFlood flood-opacity="0.102"/><feComposite operator="in" in2="b"/><feComposite in="SourceGraphic"/></filter></defs><g transform="translate(-1052 -7516)"><g class="e" transform="matrix(1, 0, 0, 1, 1052, 7516)"><g class="a" transform="translate(3 2)"><circle class="c" cx="15" cy="15" r="15"/><circle class="d" cx="15" cy="15" r="14.9"/></g></g><g transform="translate(1064 7527)"><g transform="translate(0)"><path class="b" d="M1742.429,337.388a2.381,2.381,0,0,1,1.6-.949,3.187,3.187,0,0,1,3.157.893,3.524,3.524,0,0,1,.749,2.168c.063,1.641.062,3.284.078,4.926,0,.446-.162.616-.6.627q-.827.019-1.655,0c-.442-.011-.589-.177-.589-.63,0-1.331.005-2.662-.008-3.993a3.238,3.238,0,0,0-.132-.808,1.121,1.121,0,0,0-1.03-.866,1.164,1.164,0,0,0-1.251.593,2.812,2.812,0,0,0-.332,1.148c-.041,1.27-.015,2.542-.017,3.813,0,.6-.139.743-.739.746-.48,0-.96.009-1.439,0-.455-.012-.6-.167-.6-.615q0-3.67,0-7.339c0-.456.162-.616.633-.622s.935,0,1.4,0c.574,0,.713.139.741.715C1742.4,337.233,1742.411,337.276,1742.429,337.388Z" transform="translate(-1735.371 -332.325)"/><path class="b" d="M1688.452,342.011q0,1.8,0,3.595c0,.51-.153.675-.654.685s-1.007.012-1.51,0c-.436-.012-.612-.191-.612-.623q-.006-3.667,0-7.333a.536.536,0,0,1,.588-.616c.527-.016,1.055-.014,1.581,0,.426.01.605.2.606.63C1688.454,339.566,1688.452,340.788,1688.452,342.011Z" transform="translate(-1685.308 -333.561)"/><path class="b" d="M1684.12,281.938a1.755,1.755,0,1,1-1.759-1.784A1.75,1.75,0,0,1,1684.12,281.938Z" transform="translate(-1680.61 -280.154)"/></g></g></g></svg>