<svg xmlns="http://www.w3.org/2000/svg" width="38.032" height="26.31" viewBox="0 0 38.032 26.31"><defs><style>.a{fill:#bbbdbf;fill-rule:evenodd;}</style></defs><path class="a" d="M165.726,8.026s-1.107.847-1.107,1.107c-.26,0-.26.26-.586.26h0v.26h-.26c0,.26,0,.26-.26.26,0,0-.26.847-.586.847h0c0,.26-.586.847-.586.847,0,.26-.26.26-.26.586s-.26.26-.26.586a3.278,3.278,0,0,0-.26.847h-.26a7.036,7.036,0,0,0-.26,1.107h-.26v.586l-.26.26a3.278,3.278,0,0,0-.26.847l-.26.847a.63.63,0,0,1-.586-.586.943.943,0,0,0-.586-.26c0-.26-.26-.26-.586-.586a.943.943,0,0,0-.586-.26.63.63,0,0,0-.586-.586l-.586-.26L154.2,13.626l-1.954-.847-2.279-1.107-1.954-.586-.847-.26v.847a1.039,1.039,0,0,0,.26.586v.586l.586.847a.255.255,0,0,1,.26.26l.847.847h.26c.26.26.586.26.847.586v.26h-.847a2.926,2.926,0,0,0-1.433.26l.26.586a1.039,1.039,0,0,0,.26.586c0,.26,0,.26.26.586l.26.26.586.586a4.234,4.234,0,0,0,1.107.586c0,.26,1.107.586,1.107.586h.26c-1.954.26-1.954.847-2.54.847h0c0,.586.26.586.586,1.107h.26c.26.586.586.586.847.847a.943.943,0,0,0,.586.26,6.827,6.827,0,0,0,2.279.26.943.943,0,0,1-.586.26l-.26.26a.255.255,0,0,1-.26.26c0,.586-.26.586-.26.847.26.586.26.586.26.847h.26c.26.26.586.586.847.586.586.26.847,0,1.433,0l-.26.26c0,.26,0,.26-.26.26l-.26.26-.26.26h-.26c0,.26-.586.586-.586.586a2.3,2.3,0,0,1-1.107.586,12.442,12.442,0,0,1-1.693.586,6.824,6.824,0,0,1-4.819,0,4.5,4.5,0,0,1-1.954-.586c-.26,0-1.693-.847-1.693-1.107a1.348,1.348,0,0,1-.847-.586l.586.586.847,1.107h0l.847.847h0l.26.26.26.26c.26,0,.26.26.586.26l.26.26a12.794,12.794,0,0,1,1.107.847.255.255,0,0,1,.26.26c.26,0,.586.26.847.26,0,.26.586.26.586.586l2.279.847,2.279.586a1.745,1.745,0,0,1,1.107.26h1.107a13.394,13.394,0,0,0,4.559,0c.26,0,1.954-.26,2.279-.26v-.26h.26a16.5,16.5,0,0,0,2.8-.847l1.693-.586a.255.255,0,0,1,.26-.26,5.16,5.16,0,0,1,1.693-.847c0-.26.586-.586.847-.847,0,0,.586-.586.847-.586h0c0-.26.847-.847.847-.847l.847-.847.586-.586.586-.847.586-1.107c.26,0,.847-1.107.847-1.107l.26-.847.26-1.107.26-.586h1.433c.26,0,.847-.26,1.107-.26.26-.26.847-.26,1.107-.586.26-.26.26-.26.586-.26,0-.26,0-.26.26-.586a7.486,7.486,0,0,1-4.233-.26,7.037,7.037,0,0,1,1.107-.26,7.037,7.037,0,0,0,1.107-.26c0-.26.586-.26.586-.586.26,0,.586-.586.586-.586.26-.26.586-.586.586-.847a8.147,8.147,0,0,1-4.559.586l-.26-1.107v-.26a3.278,3.278,0,0,1-.26-.847h0a1.219,1.219,0,0,0-.26-.586l-1.107-1.693c-.26,0-.26-.26-.586-.586l-.26-.26c-.26-.26-.847-.586-1.107-.847l-.847-.586a1.093,1.093,0,0,1-.847-.26h-.586a5.758,5.758,0,0,0-1.954-.26c.26,0,1.954-.586,2.279-.586.26-.26.586,0,1.107-.847,0-1.107-2.54,0-3.126.26.26-.26.847-.586.847-.847.26,0,.26,0,.26-.26V7.7c-.586.26-1.433.586-1.954.847-.26.26-.586.586-.847.586.26-.26.586-.586.586-.847-.065-.26-.065,0-.065-.26Z" transform="translate(-141.5 -7.7)"/></svg>