<svg xmlns="http://www.w3.org/2000/svg" width="55.565" height="39.411" viewBox="0 0 55.565 39.411"><defs><style>path{fill:#01c3d9;}</style></defs><g transform="translate(-4.082 -15)"><path d="M54.574,19.156a1,1,0,0,0-1.175-.787h0l-1.316.261V42a3,3,0,0,1-3,3H12.8l1.706,8.606a1.008,1.008,0,0,0,1.176.787l43.16-8.557a1,1,0,0,0,.786-1.176h0Z"/><path d="M50.082,42V16a1,1,0,0,0-1-1h-44a1,1,0,0,0-1,1V42a1,1,0,0,0,1,1h44A1,1,0,0,0,50.082,42ZM27,41A12,12,0,1,1,39,29,12,12,0,0,1,27,41Zm21-4H46V34h2Zm0-5H46V19H42V17h4a2,2,0,0,1,2,2Z"/><path d="M32.49,30.452l1.873,5a.98.98,0,0,1,.051.239,9.938,9.938,0,0,0,2.106-9.738,1,1,0,0,1-.286.758Z"/><path d="M17.9,26.707A1,1,0,0,1,18.6,25h4.648l2.858-5.464A1,1,0,0,1,26.994,19a9.984,9.984,0,0,0-7.281,16.826.991.991,0,0,1,.054-.378l1.874-5Z"/><path d="M23.857,27H21.018l2.492,2.493a1,1,0,0,1,.23,1.059l-1.262,3.365L26.6,32.086A1,1,0,0,1,27,32h.124a1,1,0,0,1,.406.086l4.12,1.831-1.262-3.365a1,1,0,0,1,.229-1.059L33.113,27h-2.84a1,1,0,0,1-.886-.536l-2.322-4.439-2.321,4.439A1,1,0,0,1,23.857,27Z"/><path d="M27.065,34.066,21.11,36.714a1,1,0,0,1-.365.076,9.96,9.96,0,0,0,12.538-.021.979.979,0,0,1-.262-.055Z"/><path d="M27.212,19.011a1,1,0,0,1,.809.525L30.878,25h4.649a1,1,0,0,1,.79.394A10,10,0,0,0,27.212,19.011Z"/></g></svg>