<?xml version="1.0" standalone="no"?>
<!DOCTYPE svg PUBLIC "-//W3C//DTD SVG 1.1//EN" "http://www.w3.org/Graphics/SVG/1.1/DTD/svg11.dtd" >
<svg xmlns="http://www.w3.org/2000/svg">
<metadata></metadata>
<defs>
<font id="max-boldregular" horiz-adv-x="1257" >
<font-face units-per-em="2048" ascent="1638" descent="-410" />
<missing-glyph horiz-adv-x="632" />
<glyph horiz-adv-x="0" />
<glyph horiz-adv-x="682" />
<glyph unicode=" "  horiz-adv-x="632" />
<glyph unicode="&#x09;" horiz-adv-x="632" />
<glyph unicode="&#xa0;" horiz-adv-x="632" />
<glyph unicode="!" horiz-adv-x="698" d="M184 1452v4q0 40 37 45l262 39h9q32 0 32 -31v-2l-35 -1028q0 -11 -8 -18.5t-20 -7.5h-211q-12 0 -20.5 7.5t-8.5 18.5zM193 41v242q0 19 10.5 30t27.5 11h252q16 0 27.5 -11.5t11.5 -29.5v-242q0 -18 -11.5 -29.5t-27.5 -11.5h-252q-17 0 -27.5 11t-10.5 30z" />
<glyph unicode="&#x22;" horiz-adv-x="854" d="M92 1026v451q0 17 9.5 26.5t23.5 9.5h211q13 0 24 -9.5t11 -22.5v-4l-37 -451q0 -15 -10 -26t-23 -11h-176q-13 0 -23 11t-10 26zM485 1026v451q0 16 10 26t23 10h213q12 0 22.5 -9.5t10.5 -22.5v-4l-35 -451q-2 -15 -11.5 -26t-21.5 -11h-178q-12 0 -22.5 11t-10.5 26z " />
<glyph unicode="#" horiz-adv-x="1521" d="M158 475q0 6 2 10l24 129q4 31 39 31h193l49 285l-189 -2q-38 0 -38 30v11l24 131q8 28 41 28h199l61 351q8 34 43 34h123q16 0 24 -1t14.5 -7.5t6.5 -19.5v-12l-61 -345h219l61 351q8 34 43 34h123q16 0 24 -1t14.5 -7.5t6.5 -19.5v-12l-61 -345h184q39 0 39 -28 q0 -2 -1 -6.5t-1 -6.5l-25 -129q-4 -30 -41 -30l-192 2l-49 -285h190q39 0 39 -31q0 -6 -2 -10l-24 -129q-4 -31 -39 -31h-199l-74 -411q-4 -33 -39 -33h-133q-39 0 -39 31q0 10 2 16l70 397h-217l-74 -411q-4 -33 -37 -33h-135q-39 0 -39 31q0 10 2 16l70 397h-182 q-39 0 -39 31zM627 645h217l51 285h-217z" />
<glyph unicode="$" horiz-adv-x="1423" d="M127 1071q0 220 117.5 332t361.5 131v205q0 15 10.5 28t26.5 13h160q16 0 27.5 -11.5t11.5 -29.5v-205q198 -12 389 -72q31 -10 31 -39q0 -10 -2 -14l-31 -154q-5 -26 -35 -26q-4 0 -11.5 1t-11.5 1q-249 61 -415 61q-143 0 -219 -41t-76 -141q0 -44 18.5 -76.5t38.5 -51 t72.5 -34.5t78 -21t97.5 -17q19 -3 29 -5q173 -27 251 -55q213 -76 258 -275q13 -57 13 -124q0 -217 -125.5 -331.5t-353.5 -137.5v-207q0 -18 -12 -30.5t-27 -12.5h-160q-16 0 -26.5 13.5t-10.5 29.5v202q-45 2 -89 6.5t-78.5 9t-70 11.5t-59 12t-50.5 12.5t-39.5 11 t-30.5 9.5t-19 6q-35 9 -35 43q0 9 2 11l35 161q5 29 35 29q2 0 6 -1t6 -1t48 -11.5t86 -20t99.5 -19.5t124 -17t123.5 -6q78 0 138.5 17.5t102.5 63t42 114.5q0 40 -9.5 70t-33.5 51.5t-47 35t-69.5 25t-80 17.5t-98.5 16q-58 9 -104 18t-101.5 26.5t-97.5 39t-83.5 55 t-68 74.5t-43 98.5t-16.5 126.5z" />
<glyph unicode="%" horiz-adv-x="1812" d="M35 1141q0 67 6 117t27.5 106t59 92t105 60t160.5 24t160.5 -24t105 -60t59.5 -92t28 -106.5t6 -116.5q0 -67 -6 -117.5t-28 -107t-59.5 -93t-105 -60.5t-160.5 -24t-160.5 24t-105 60.5t-59 93t-27.5 107t-6 117.5zM264 1141q0 -123 24.5 -173t104.5 -50t103.5 50 t23.5 173t-23.5 172t-103.5 49t-104.5 -50t-24.5 -171zM305 96q0 9 4 13l1026 1400q3 9 17 9q5 0 10 -5l135 -83q10 -7 10 -17q0 -2 -4 -10l-1026 -1403q-6 -6 -16 -6q-8 0 -10 2l-138 86q-8 3 -8 14zM1063 373q0 67 6 117.5t27.5 107t59 92.5t105 60t160.5 24t160.5 -24 t105 -60t59.5 -92.5t28 -107t6 -117.5q0 -66 -6 -116.5t-28 -107t-59.5 -92.5t-105 -60t-160.5 -24q-67 0 -121 12.5t-91 33t-64 52t-42.5 64t-24.5 75.5t-12 80t-3 83zM1292 373q0 -122 24.5 -171.5t104.5 -49.5t104.5 49.5t24.5 171.5q0 123 -24.5 173t-104.5 50 t-104.5 -50t-24.5 -173z" />
<glyph unicode="&#x26;" horiz-adv-x="1662" d="M119 406q0 78 22.5 138.5t57 97t83 61.5t92.5 35.5t95 15.5v57q-40 6 -76.5 16.5t-82.5 35.5t-79 59t-56 91t-23 128q0 93 34.5 165.5t88.5 115.5t128.5 70.5t147 37.5t151.5 10q125 0 224 -24q26 -3 26 -33q0 -9 -2 -15l-22 -159q-3 -29 -35 -29h-10q-65 10 -123 10 q-271 0 -271 -184q0 -130 158 -176q50 -15 161.5 -27t123.5 -14q6 -1 10.5 -3.5t5.5 -5t2 -6.5l2 -4v304q0 44 39 49l236 41q2 0 6 1t6 1q14 0 23.5 -9.5t9.5 -27.5v-334l262 -27q33 -4 33 -28v-138q0 -26 -33 -30l-262 -23v-323q0 -65 27.5 -95t101.5 -30q60 0 143 16h8 q22 0 25 -24l27 -136q2 -4 2 -12q0 -26 -27 -35q-143 -37 -260 -37q-187 0 -277 78t-90 258v375l-2 -4q-1 -4 -2 -6t-5.5 -4.5t-10.5 -3.5q-23 -3 -93 -10t-111.5 -13t-76.5 -14q-92 -22 -140 -66t-48 -127q0 -213 291 -213q1 0 94 6q2 0 4.5 1t3.5 1q36 0 39 -36l20 -154 v-8q0 -37 -30 -41q-74 -19 -166 -19q-91 0 -171.5 11t-161.5 41.5t-138 77.5t-93 124.5t-36 178.5z" />
<glyph unicode="'" horiz-adv-x="468" d="M92 971v506q0 17 9.5 26.5t23.5 9.5h221q12 0 22.5 -9.5t10.5 -22.5v-4l-35 -506q-1 -15 -11 -25t-22 -10h-186q-14 0 -23.5 10t-9.5 25z" />
<glyph unicode="(" horiz-adv-x="698" d="M121 688q0 278 68.5 532.5t195.5 430.5q16 22 35 22h6q34 -17 43 -26q2 0 68.5 -40.5t66.5 -43.5q10 -3 10 -17q0 -6 -2 -8q-204 -339 -204 -850q0 -513 204 -852q2 -2 2 -10q0 -14 -12 -23l-156 -96q-4 -4 -20 -4q-2 -2 -6 -2q-17 0 -35 25q-127 174 -195.5 428.5 t-68.5 533.5z" />
<glyph unicode=")" horiz-adv-x="698" d="M82 1548q0 15 12 23l156 96q2 1 10 3t10 3h9q16 0 32 -22q128 -177 197.5 -431.5t69.5 -531.5t-70 -532t-197 -430q-18 -25 -32 -25q-7 0 -9 2q-2 0 -11.5 5.5t-20 12t-11.5 7.5t-34 21.5l-66 41t-33 21.5q-10 7 -10 18q0 4 2 6q203 337 203 852q0 513 -203 850 q-4 4 -4 10z" />
<glyph unicode="*" horiz-adv-x="1595" d="M291 1028v152q0 34 35 34h6l303 -26l-203 196q-12 15 -12 27q0 14 16 27l131 94q11 8 25 8q13 0 31 -18l176 -242l176 242q13 18 31 18q11 0 22 -8l131 -94q19 -13 19 -27q0 -12 -15 -27l-200 -196l301 26h6q37 0 37 -34v-152q0 -35 -37 -35h-4l-301 15l200 -197 q15 -15 15 -27q0 -13 -19 -26l-131 -92q-15 -11 -22 -11q-17 0 -31 19l-176 241l-176 -241q-19 -19 -31 -19q-7 0 -25 11l-129 92q-18 12 -18 26q0 12 12 27l199 197l-301 -15h-4q-37 0 -37 35z" />
<glyph unicode="+" d="M88 594v143q0 37 41 37h375v375q0 41 39 41h174q39 0 39 -41v-373h372q41 0 41 -39v-143q0 -39 -41 -39h-372v-373q0 -41 -39 -41h-174q-39 0 -39 41v373h-375q-41 0 -41 39z" />
<glyph unicode="," horiz-adv-x="770" d="M215 -186l45 471q2 16 7.5 21t23.5 5h235q29 0 29 -18v-6l-80 -473q-3 -15 -9 -21t-22 -6h-200q-29 0 -29 23v4z" />
<glyph unicode="-" horiz-adv-x="835" d="M96 492v139q0 18 12.5 29.5t32.5 11.5h555q20 0 32.5 -11.5t12.5 -29.5v-139q0 -18 -14 -28.5t-31 -10.5h-555q-16 0 -30.5 10.5t-14.5 28.5z" />
<glyph unicode="." horiz-adv-x="770" d="M205 35v223q0 14 13.5 24.5t33.5 10.5h266q20 0 33.5 -10.5t13.5 -24.5v-223q0 -14 -13.5 -24.5t-33.5 -10.5h-266q-20 0 -33.5 10.5t-13.5 24.5z" />
<glyph unicode="/" horiz-adv-x="770" d="M49 -57q0 6 2 10l447 1673q7 21 28 21h9l165 -37q21 -6 21 -25q0 -6 -2 -8l-447 -1673q-7 -23 -28 -23q-6 0 -8 2l-166 37q-21 3 -21 23z" />
<glyph unicode="0" horiz-adv-x="1275" d="M102 537q0 73 5 130t19 118t38.5 105.5t65 86t96 67.5t135 41t178.5 15t178 -15t134.5 -41t96.5 -67.5t65 -86t38.5 -105.5t19.5 -118t5 -130q0 -72 -5 -129.5t-19.5 -118t-38.5 -105.5t-65 -86.5t-96.5 -67.5t-134.5 -41.5t-178 -15.5t-178.5 15.5t-135 41.5t-96.5 67.5 t-65 86.5t-38 105.5t-19 117.5t-5 130zM438 537q0 -59 1.5 -97.5t6 -79.5t13 -66t23 -48t36 -35.5t51.5 -19.5t70 -7q39 0 69 7t51 19.5t35.5 35.5t23 48t13 66t6 79.5t1.5 97.5q0 83 -3.5 132.5t-14.5 96.5t-33 71t-58.5 38t-91.5 14q-39 0 -69 -7t-51 -19t-35.5 -35.5 t-23 -48t-13 -65.5t-6 -79.5t-1.5 -97.5z" />
<glyph unicode="1" horiz-adv-x="731" d="M41 842v166q0 17 20 20l510 74h2q7 0 15 -8t8 -15v-1048q0 -13 -10 -22t-25 -9h-248q-15 0 -24.5 8.5t-9.5 22.5v774l-218 16q-20 0 -20 21z" />
<glyph unicode="2" horiz-adv-x="1245" d="M172 975v14q0 21 25 35q57 26 178 52t254 26q104 0 184.5 -19.5t130.5 -51.5t81.5 -77t43.5 -91.5t12 -100.5q0 -56 -10 -101.5t-33.5 -82t-48 -63t-67 -53t-75.5 -43.5t-89 -42l-248 -111v-37l596 23h2q13 0 21 -8.5t8 -16.5v-202q0 -9 -9 -17t-18 -8h-870 q-12 0 -20.5 9t-8.5 22l-2 172q-2 4 -2 10q0 29 3 50.5t6 38t15 32t18.5 24t29.5 23.5t35 22t48 27t56 31l131 74q13 7 46 24.5t47 26t37.5 26t34 33t19 39t8.5 51.5q0 43 -15 71.5t-44 41t-57.5 16.5t-69.5 4q-47 0 -93 -7t-73.5 -14t-77 -22.5t-73.5 -21.5q-12 -4 -17 -4 q-19 0 -22 30z" />
<glyph unicode="3" horiz-adv-x="1175" d="M100 979q0 24 25 35q57 28 188 58t267 30q105 0 186 -22t131 -57.5t82 -85t44.5 -98.5t12.5 -104q0 -269 -274 -321v-58q43 -5 81.5 -16t82 -36t75 -61.5t52 -96.5t20.5 -136q0 -270 -221 -395.5t-662 -128.5h-22q-28 0 -37.5 11.5t-9.5 43.5v107q0 53 35 53q12 2 22 2 q112 6 195 18t154 36.5t115 61t68.5 91t24.5 127.5q0 40 -10 71.5t-26 53.5t-44.5 39t-55.5 27t-70 17.5t-77 11t-87 7.5q-29 2 -29 49v113q0 25 6.5 33t22.5 12q17 4 50 12t50.5 12.5t46.5 13t45.5 15t40 17.5t36.5 22t28.5 26t23.5 32t13.5 39t5.5 47q0 50 -19 83.5 t-53 49.5t-68 22t-78 6q-65 0 -124 -13t-120 -35.5t-77 -26.5q-2 -1 -5 -2t-5 -2t-4 -1q-18 0 -25 33l-25 144q-2 6 -2 14z" />
<glyph unicode="4" horiz-adv-x="1427" d="M102 31v219q0 18 4 26l482 781q2 6 9 12t15 6h486q9 0 16.5 -7.5t7.5 -16.5v-828h176q12 0 20.5 -8.5t8.5 -21.5v-162q0 -13 -8.5 -22t-20.5 -9h-174v-387q0 -13 -7.5 -22t-18.5 -9h-258q-12 0 -20.5 9t-8.5 22v387h-682q-12 0 -19.5 8.5t-7.5 22.5zM375 223h438v643h-63 z" />
<glyph unicode="5" horiz-adv-x="1191" d="M131 -346q0 26 7.5 35.5t25.5 9.5q83 1 147 6t136 17t123.5 35.5t95 58.5t66 89.5t22.5 125.5q0 231 -260 231q-24 0 -52.5 -2.5t-48.5 -5t-54.5 -9t-46 -9t-48 -11t-37.5 -8.5h-4q-16 0 -35 19q-18 27 -18 40l45 777q2 8 9.5 15t14.5 7h791q28 0 28 -31v-178 q0 -14 -8 -23t-20 -9h-539l-18 -363q89 27 204 27q205 0 319 -119t114 -344q0 -87 -21.5 -159.5t-55 -125.5t-87 -95t-106 -69t-124.5 -47t-129 -30t-133.5 -15.5t-124 -6.5t-112.5 -1h-9q-31 0 -45 12q-12 8 -12 27v129z" />
<glyph unicode="6" horiz-adv-x="1275" d="M102 715q0 151 27 274.5t74 213t118 158t152 112t183.5 71.5t205 39t223.5 12h2q26 0 36 -11t10 -38v-131q0 -27 -9.5 -35t-33.5 -10q-9 -1 -31 -2q-41 -2 -65.5 -4t-76 -8.5t-87 -15t-86.5 -26t-87.5 -39.5t-77.5 -56t-68 -75.5t-48.5 -99t-28.5 -124.5l8 3q8 3 23 8 t34 11t44.5 12.5t52 11.5t58 8t61.5 3q125 0 215.5 -36t143 -104.5t76.5 -158.5t24 -207q0 -139 -35 -236t-105 -154t-166.5 -82.5t-228.5 -25.5q-152 0 -255 42.5t-165.5 136t-89.5 229t-27 334.5zM432 559q0 -197 46 -285t163 -88q114 0 155.5 66.5t41.5 216.5 q0 147 -45 215t-152 68q-57 0 -113.5 -15t-87.5 -30q-8 -60 -8 -134v-14z" />
<glyph unicode="7" horiz-adv-x="1163" d="M47 864v180q0 14 8 22.5t21 8.5h979q11 0 19.5 -10.5t8.5 -20.5v-204q0 -34 -16 -62q-362 -557 -539 -1179q-8 -37 -34 -37h-273q-33 0 -33 28q0 1 1 3.5t1 3.5q83 292 245 641t341 593h-700q-12 0 -20.5 9.5t-8.5 23.5z" />
<glyph unicode="8" horiz-adv-x="1298" d="M102 414q0 70 20 127t51 93.5t72.5 62t81.5 37t81 14.5v61q-2 1 -21.5 4t-37 6.5t-45 14t-50.5 24t-48 38t-42 55.5t-28 77.5t-11 101.5q0 93 30 166t79 118t118.5 74t141.5 40.5t155 11.5t155 -11.5t141.5 -40.5t119 -74t79.5 -118t30 -166q0 -55 -11 -101.5t-28 -77.5 t-42 -55.5t-48 -38t-50.5 -24t-45 -14t-37 -6.5t-21.5 -4v-61q41 -3 81 -14.5t81 -37t72.5 -62t51 -93.5t19.5 -127q0 -223 -135 -332t-412 -109t-412 109t-135 332zM438 426q0 -135 56.5 -188.5t154.5 -53.5q97 0 153 53t56 189q0 74 -18 124t-51 74t-66 33t-76 9t-76 -9 t-65.5 -33t-50 -74t-17.5 -124zM451 1104q0 -127 50 -174t148 -47q46 0 79.5 9.5t61.5 32.5t42 68t14 111q0 57 -12 99.5t-30.5 66t-46 37.5t-52.5 18t-56 4t-56 -4t-53 -18t-46.5 -37.5t-30.5 -66t-12 -99.5z" />
<glyph unicode="9" horiz-adv-x="1273" d="M102 608q0 139 35 236t105 154t166.5 82.5t228.5 25.5q152 0 255 -42.5t165.5 -135.5t89.5 -228.5t27 -334.5q0 -151 -27 -274.5t-74 -213.5t-118 -158.5t-152.5 -112t-184 -71t-205 -39t-223.5 -12.5h-2q-27 0 -36 11t-9 38v131q0 27 9 35t32 10q9 1 30 2q41 2 66 4 t76.5 8.5t87 15.5t86.5 26t87.5 39t78 56.5t68.5 76t48.5 99t29.5 124.5l-8 -3q-8 -3 -22.5 -8.5t-34 -11.5t-45 -12t-52 -11.5t-58.5 -8.5t-63 -3q-125 0 -215 36t-142 105t-76 158.5t-24 206.5zM438 610q0 -147 44 -214.5t153 -67.5q56 0 113.5 15.5t85.5 29.5 q10 59 10 133v14q0 196 -46.5 284.5t-162.5 88.5q-115 0 -156 -66t-41 -217z" />
<glyph unicode=":" horiz-adv-x="770" d="M225 41v223q0 18 12 30.5t27 12.5h242q15 0 27 -12.5t12 -30.5v-223q0 -18 -11.5 -29.5t-27.5 -11.5h-242q-16 0 -27.5 11.5t-11.5 29.5zM225 811v223q0 18 11.5 29.5t27.5 11.5h242q16 0 27.5 -11.5t11.5 -29.5v-223q0 -18 -12 -30.5t-27 -12.5h-242q-15 0 -27 12.5 t-12 30.5z" />
<glyph unicode=";" horiz-adv-x="770" d="M209 -186l47 471q2 16 7.5 21t23.5 5h235q29 0 29 -18v-6l-82 -473q-2 -15 -7.5 -21t-23.5 -6h-200q-29 0 -29 23v4zM240 811v223q0 18 11.5 29.5t27.5 11.5h243q16 0 27.5 -11.5t11.5 -29.5v-223q0 -18 -12 -30.5t-27 -12.5h-243q-15 0 -27 12.5t-12 30.5z" />
<glyph unicode="&#x3c;" d="M100 588v114q0 27 23 37l903 447q9 6 18 6q16 0 27 -18l84 -152q2 -4 2 -12q0 -20 -18 -29l-758 -334l758 -336q18 -9 18 -26q0 -11 -2 -15l-84 -151q-10 -17 -27 -17q-12 0 -18 4l-903 447q-23 13 -23 35z" />
<glyph unicode="=" d="M147 385v147q0 16 13 27.5t33 11.5h872q20 0 32.5 -11.5t12.5 -27.5v-147q0 -19 -14 -30t-31 -11h-872q-16 0 -31 11t-15 30zM147 791v147q0 16 13 27.5t33 11.5h872q20 0 32.5 -11.5t12.5 -27.5v-147q0 -18 -14 -28.5t-31 -10.5h-872q-16 0 -31 11t-15 28z" />
<glyph unicode="&#x3e;" d="M100 285q0 17 19 26l758 336l-758 334q-19 9 -19 29q0 8 2 12l84 152q11 18 27 18q9 0 18 -6l904 -447q22 -10 22 -37v-114q0 -22 -22 -35l-904 -447q-6 -4 -18 -4q-17 0 -27 17l-84 151q-2 4 -2 15z" />
<glyph unicode="?" d="M131 1440q0 26 29 35q222 65 440 65q62 0 118 -5.5t119 -19.5t113 -41t92 -66.5t65 -101t23 -139.5q0 -51 -14.5 -95.5t-32.5 -74t-54.5 -63t-58.5 -50t-67 -46.5q-18 -13 -49.5 -32.5t-49 -31t-40.5 -31t-35 -37t-20.5 -43.5t-8.5 -57q0 -42 9 -110v-7q0 -30 -43 -30 h-220q-8 0 -13 1t-8 2t-5.5 4.5t-3 5.5l-2 8t-2.5 9q-17 65 -17 146q0 51 12 93t28 70t50 59.5t59 49t74 49.5q4 2 24.5 15.5t26.5 17.5t24.5 17t25.5 20.5t21 20.5t20 24t14 25.5t11 29.5t3 31q0 154 -245 154q-46 0 -103.5 -7t-96 -14.5t-84 -17t-50.5 -10.5q-4 -2 -14 -2 q-26 0 -31 28l-29 129q-4 12 -4 23zM406 41v242q0 19 10.5 30t27.5 11h252q15 0 26 -11.5t11 -29.5v-242q0 -18 -11 -29.5t-26 -11.5h-252q-17 0 -27.5 11t-10.5 30z" />
<glyph unicode="@" horiz-adv-x="1933" d="M117 758q0 164 24.5 284t82.5 217.5t155.5 157.5t243 91.5t344.5 31.5t344.5 -31.5t243 -91.5t155.5 -157.5t82.5 -217.5t24.5 -284q0 -89 -11 -201q-2 -15 -15.5 -28t-33.5 -13h-98q-20 0 -32.5 14t-12.5 31v4q10 95 10 193q0 176 -30 291.5t-103 185.5 q-142 139 -526 139q-382 0 -523 -135q-73 -72 -103 -187.5t-30 -293.5q0 -114 11 -197t38.5 -155.5t75 -120t120.5 -82t174 -49.5t237 -15q101 0 219 15h6q20 0 32.5 -14.5t12.5 -30.5v-80q0 -19 -13 -30t-32 -13q-147 -13 -223 -13q-166 0 -294.5 21t-222.5 66t-158.5 108 t-103 153t-55 195.5t-16.5 241.5zM575 590q0 55 13.5 97t34.5 67.5t56 43.5t68 27t80 17l275 43v41q0 63 -35 81.5t-115 18.5q-96 0 -266 -45q-2 0 -6 -1t-6 -1q-18 0 -21 16l-24 109v10q0 19 20 27q26 9 70 20t126.5 23t158.5 12q174 0 261 -55.5t87 -196.5v-438 q0 -46 -8 -75t-30 -47t-47 -27.5t-71 -20.5q-92 -21 -229 -21q-64 0 -111.5 4t-104 20.5t-92 44.5t-60 80.5t-24.5 125.5zM831 594q0 -39 13.5 -64.5t37.5 -37t46.5 -15.5t50.5 -4q72 0 135 19v245l-174 -28q-57 -9 -83 -30.5t-26 -84.5z" />
<glyph unicode="A" horiz-adv-x="1593" d="M31 27q0 1 1 4t1 4l475 1452q3 10 13.5 18t21.5 8h510q27 0 37 -24l471 -1454q0 -2 1 -4.5t1 -3.5q0 -10 -9.5 -18.5t-21.5 -8.5h-285q-11 0 -22.5 10t-16.5 21l-149 506h-529l-149 -510q-3 -11 -14 -19t-23 -8h-281q-12 0 -22 8.5t-10 18.5zM596 778h395l-153 504h-90z " />
<glyph unicode="B" horiz-adv-x="1574" d="M190 33v1448q0 13 10.5 22.5t24.5 9.5h727q249 0 361 -90t112 -280q0 -82 -24 -142.5t-69.5 -98t-100.5 -58.5t-129 -33v-68q72 -6 126.5 -19t103 -38.5t79.5 -63t48.5 -95t17.5 -132.5q0 -395 -553 -395h-699q-14 0 -24.5 10t-10.5 23zM528 233h340q138 0 198 52t60 147 q0 83 -20.5 127.5t-75 67.5t-158.5 26l-344 13v-433zM528 872l340 17q112 5 163.5 51.5t51.5 153.5q0 99 -50 142.5t-156 43.5h-349v-408z" />
<glyph unicode="C" horiz-adv-x="1423" d="M119 760q0 209 36.5 352t120.5 238.5t218 138.5t331 43q250 0 482 -72q39 -13 39 -41q0 -2 -1.5 -6.5t-1.5 -7.5l-30 -156q-6 -24 -33 -24q-12 0 -18 2q-225 59 -375 59q-129 0 -211 -29t-129 -97t-64.5 -161t-17.5 -239q0 -145 17.5 -238.5t64.5 -161.5t129 -97.5 t211 -29.5q140 0 375 54q12 4 18 4q26 0 33 -27l30 -153q0 -2 1.5 -7t1.5 -8q0 -26 -39 -39q-222 -69 -482 -69q-197 0 -331 43.5t-218 139t-120.5 238.5t-36.5 351z" />
<glyph unicode="D" horiz-adv-x="1673" d="M190 33v1448q0 13 9.5 22.5t23.5 9.5h639q197 0 329.5 -43t214 -137.5t116 -233t34.5 -341.5q0 -204 -34.5 -343t-116 -234t-214 -138t-329.5 -43h-639q-13 0 -23 10t-10 23zM528 236h297q112 0 181 21.5t116.5 80.5t66.5 159t19 261q0 162 -18.5 262t-66 158.5 t-116.5 80t-182 21.5h-297v-1044z" />
<glyph unicode="E" horiz-adv-x="1394" d="M190 33v1448q0 13 10.5 22.5t24.5 9.5h1002q14 0 23.5 -8.5t9.5 -21.5v-187q0 -13 -9.5 -22.5t-23.5 -9.5h-699v-363h668q14 0 23.5 -9t9.5 -22v-188q0 -13 -9.5 -22t-23.5 -9h-668v-405h699q15 0 25 -9t10 -22v-184q0 -13 -10 -22t-25 -9h-1002q-14 0 -24.5 10t-10.5 23 z" />
<glyph unicode="F" horiz-adv-x="1265" d="M190 33v1448q0 13 10.5 22.5t24.5 9.5h953q15 0 24.5 -8.5t9.5 -21.5v-189q0 -13 -9.5 -21.5t-24.5 -8.5h-650v-453h584q14 0 23.5 -9t9.5 -22v-188q0 -13 -9.5 -22t-23.5 -9h-584v-528q0 -13 -10 -23t-24 -10h-269q-14 0 -24.5 10t-10.5 23z" />
<glyph unicode="G" horiz-adv-x="1622" d="M119 756q0 422 172.5 603t576.5 181q282 0 555 -84q39 -14 39 -41q0 -2 -1 -7.5t-1 -8.5l-33 -148q-5 -26 -34 -26q-3 0 -8.5 1t-8.5 1q-4 1 -60.5 14.5t-101.5 23t-124 18.5t-154 9q-103 0 -175 -14t-131 -49.5t-93.5 -97t-53 -155.5t-18.5 -226t17.5 -225.5t50.5 -155 t89.5 -97t126 -49.5t169.5 -14q48 0 100 4.5t80 8.5l28 5v400l-237 30q-13 2 -22 10t-9 19v176q0 10 9.5 18.5t21.5 8.5h534q14 0 23.5 -9t9.5 -22v-645q0 -88 -24.5 -129.5t-104.5 -63.5q-71 -20 -193.5 -33.5t-228.5 -13.5q-152 0 -267.5 18t-204 58.5t-147.5 101 t-96.5 150t-54 199.5t-16.5 256z" />
<glyph unicode="H" horiz-adv-x="1732" d="M190 31v1446q0 25 31 28l277 35h4q13 0 19.5 -8.5t6.5 -20.5v-606h674v572q0 24 33 28l276 35h5q11 0 18.5 -9t7.5 -20v-1480q0 -13 -9.5 -22t-23.5 -9h-272q-14 0 -24.5 9t-10.5 22v620h-674v-620q0 -13 -9 -22t-23 -9h-273q-14 0 -23.5 9t-9.5 22z" />
<glyph unicode="I" horiz-adv-x="718" d="M190 31v1446q0 25 31 28l277 35h4q13 0 19.5 -8.5t6.5 -20.5v-1480q0 -13 -9 -22t-23 -9h-273q-14 0 -23.5 9t-9.5 22z" />
<glyph unicode="J" horiz-adv-x="724" d="M-129 -246q0 25 9.5 33t35.5 8q15 1 52.5 2t56.5 2q32 2 50.5 4t42.5 8t36.5 16.5t25.5 28t18 45t5 64.5v1512q0 24 33 28l272 35h6q12 0 19.5 -9t7.5 -20v-1538q0 -115 -32.5 -194t-94 -121t-134 -59t-169.5 -17q-107 0 -199 10q-13 1 -20 3.5t-14 12.5t-7 27v119z" />
<glyph unicode="K" horiz-adv-x="1501" d="M190 31v1452q0 13 9.5 21.5t23.5 8.5h273q14 0 23 -8.5t9 -21.5v-596h97l446 608q13 18 33 18h2l324 -4q9 0 17.5 -10t8.5 -20q0 -11 -6 -17l-539 -690l582 -725q6 -6 6 -16q0 -11 -8.5 -21t-17.5 -10h-347q-28 0 -41 18l-460 619h-97v-606q0 -13 -9 -22t-23 -9h-273 q-14 0 -23.5 9t-9.5 22z" />
<glyph unicode="L" horiz-adv-x="1263" d="M190 31v1446q0 25 31 28l277 35h4q13 0 19.5 -8.5t6.5 -20.5v-1253h666q15 0 25 -9t10 -22v-196q0 -13 -10 -22t-25 -9h-971q-14 0 -23.5 9t-9.5 22z" />
<glyph unicode="M" horiz-adv-x="2172" d="M137 35v2l121 1438q1 17 13.5 27.5t29.5 10.5h528q16 0 28 -11t17 -27l216 -863h12l217 863q11 38 45 38h502q17 0 29.5 -10.5t13.5 -27.5l125 -1438v-2q0 -15 -12 -25t-29 -10h-258q-17 0 -29 11t-12 26l-72 1241h-63l-279 -977q-12 -37 -43 -37h-319q-34 0 -46 39 l-260 975h-65l-86 -1241q-2 -16 -13 -26.5t-28 -10.5h-240q-18 0 -30.5 10t-12.5 25z" />
<glyph unicode="N" horiz-adv-x="1792" d="M190 31v1452q0 12 10.5 21t24.5 9h551q30 0 41 -28l434 -1292h33l-16 1286q0 34 45 34h241q23 0 35.5 -7.5t12.5 -28.5v-1446q0 -13 -10 -22t-25 -9h-537q-13 0 -24.5 9.5t-14.5 23.5l-424 1227h-63l22 -1229q0 -13 -9 -22t-23 -9h-271q-14 0 -23.5 9t-9.5 22z" />
<glyph unicode="O" horiz-adv-x="1701" d="M119 756q0 107 9 194t31 169.5t58 145.5t92.5 116t132 87t178.5 53t230 19q149 0 264 -24.5t195 -73.5t134 -114.5t84.5 -157t43 -190t12.5 -224.5q0 -152 -18 -265t-66.5 -214.5t-129.5 -165.5t-211 -101t-308 -37q-127 0 -230 19t-178.5 53t-132 87t-92.5 116 t-58 145.5t-31 169t-9 193.5zM467 758q0 -101 4.5 -169.5t18.5 -135.5t40 -108t68.5 -73.5t104.5 -46.5t147 -14q73 0 129 11.5t97 32t69.5 56.5t46 76.5t27 101.5t13 122t3.5 147t-3.5 147t-13 122t-27 101.5t-45.5 76.5t-69 56.5t-97.5 32t-129.5 11.5q-85 0 -147 -14 t-104.5 -46.5t-68.5 -73.5t-40 -108t-18.5 -135.5t-4.5 -169.5z" />
<glyph unicode="P" horiz-adv-x="1492" d="M190 31v1450q0 13 10.5 22.5t24.5 9.5h729q264 0 377 -116q109 -112 109 -348t-113 -355q-120 -123 -426 -123h-14l-359 2v-542q0 -13 -9 -22t-23 -9h-273q-14 0 -23.5 9t-9.5 22zM528 786l254 9q102 3 161 15.5t93 45.5q54 54 54 191q0 130 -56 180q-35 32 -92.5 42.5 t-153.5 10.5h-260v-494z" />
<glyph unicode="Q" horiz-adv-x="1701" d="M119 756q0 107 9 194t31 169.5t58 145.5t92.5 116t132 87t178.5 53t230 19q149 0 264 -24.5t195 -73.5t134 -114.5t84.5 -157t43 -190t12.5 -224.5q0 -140 -15 -247t-55.5 -205t-108.5 -163.5t-176 -109t-255 -54.5l31 -149h358q14 0 23.5 -9t9.5 -22v-180 q0 -13 -9.5 -22t-23.5 -9h-315q-49 0 -90.5 13.5t-71.5 33t-56 53.5t-42 63.5t-32 75.5t-24 76t-20 79q-119 11 -211.5 42.5t-157 83t-108.5 116t-69 151t-35.5 178t-10.5 205.5zM467 758q0 -101 4.5 -169.5t18.5 -135.5t40 -108t68.5 -73.5t104.5 -46.5t147 -14 q73 0 129 11.5t97 32t69.5 56.5t46 76.5t27 101.5t13 122t3.5 147t-3.5 147t-13 122t-27 101.5t-45.5 76.5t-69 56.5t-97.5 32t-129.5 11.5q-85 0 -147 -14t-104.5 -46.5t-68.5 -73.5t-40 -108t-18.5 -135.5t-4.5 -169.5z" />
<glyph unicode="R" horiz-adv-x="1609" d="M190 31v1450q0 13 10.5 22.5t24.5 9.5h705q124 0 216 -21t161.5 -68.5t105 -130t35.5 -199.5q0 -168 -79 -257.5t-271 -111.5v-57q62 -3 107.5 -10.5t87 -23t69.5 -40.5t50 -63t33.5 -91t14.5 -123l13 -284q0 -9 -10.5 -21t-20.5 -12h-275q-15 0 -24.5 7.5t-9.5 19.5 l-21 358q-2 47 -20.5 81.5t-45.5 54.5t-69 32t-81.5 16.5t-92.5 5.5l-275 9v-553q0 -13 -9 -22t-23 -9h-273q-14 0 -23.5 9t-9.5 22zM528 793l293 14q144 6 212.5 56t68.5 175q0 127 -55.5 184.5t-188.5 57.5h-330v-487z" />
<glyph unicode="S" horiz-adv-x="1423" d="M129 1073q0 107 30 188t82 132.5t128 84t160.5 45.5t187.5 13q254 0 489 -70q41 -10 41 -45v-10l-30 -151q-2 -12 -12 -21.5t-23 -9.5q-4 0 -6 2q-14 3 -59.5 13t-67.5 14.5t-66 12t-75.5 11.5t-73.5 7t-82 3q-60 0 -106 -7t-89 -25.5t-66.5 -56.5t-23.5 -95 q0 -31 9.5 -56.5t23 -43.5t39.5 -33t48 -23.5t60 -17t64.5 -13t71.5 -11.5q6 -1 10.5 -1.5t9.5 -1.5q68 -11 104.5 -17.5t98 -23.5t97 -36.5t80 -54.5t67.5 -79t40 -109t17 -145q0 -104 -32.5 -185t-88 -133t-133.5 -85.5t-162 -47.5t-182 -14q-124 0 -252 18t-187.5 32.5 t-91.5 25.5q-35 12 -35 45v11l29 151q5 33 35 33q3 0 9 -1t9 -1q3 -1 43.5 -11t79.5 -18.5t93.5 -18.5t113.5 -16t111 -6q292 0 292 199q0 38 -10 66.5t-31.5 48.5t-45 33.5t-62.5 23t-72 15.5t-83 14q-18 3 -27 4q-55 9 -95.5 17t-95.5 25t-95 37.5t-82.5 55t-69 76.5 t-43.5 103t-17 134z" />
<glyph unicode="T" horiz-adv-x="1355" d="M14 1296v187q0 12 10 21t23 9h1264q13 0 22.5 -9t9.5 -21v-187q0 -14 -9.5 -23t-22.5 -9h-463v-1233q0 -13 -9.5 -22t-23.5 -9h-272q-14 0 -23.5 9t-9.5 22v1235h-463q-14 0 -23.5 8.5t-9.5 21.5z" />
<glyph unicode="U" horiz-adv-x="1654" d="M170 520v955q0 25 31 28l276 37h4q13 0 20 -9t7 -20v-1007q0 -73 14 -124t49 -91t98.5 -59t159.5 -19q173 0 245.5 68.5t72.5 212.5v983q0 24 33 28l274 37h6q12 0 19.5 -9t7.5 -20v-987q0 -282 -161.5 -416.5t-498.5 -134.5q-329 0 -493 129t-164 418z" />
<glyph unicode="V" horiz-adv-x="1540" d="M37 1477q0 11 10.5 23.5t18.5 12.5h282q40 0 47 -32l342 -1248h82l326 1248q6 19 16.5 25.5t30.5 6.5h285q8 0 17 -10.5t9 -21.5v-8l-430 -1440q-3 -14 -13.5 -23.5t-23.5 -9.5h-510q-26 0 -37 33l-450 1435q-2 2 -2 9z" />
<glyph unicode="W" horiz-adv-x="2322" d="M68 1468v7q0 12 9 25t17 13h275q22 0 33 -6t14 -26l211 -1239h63l230 1114q3 15 14 26t27 11h417q16 0 28 -11t15 -26l219 -1114h62l215 1239q4 20 15 26t34 6h262q9 0 18 -11t9 -23v-6l-291 -1438q-8 -35 -41 -35h-498q-16 0 -28 10.5t-15 24.5l-225 1108l-231 -1108 q-8 -35 -41 -35h-486q-16 0 -28 10.5t-15 24.5z" />
<glyph unicode="X" horiz-adv-x="1523" d="M12 37q0 4 2 6l506 739l-473 682q-2 4 -2 13q0 12 11 24t18 12h323q18 0 27 -6.5t20 -25.5l326 -520l307 520q10 20 19 26t28 6h293q14 0 21.5 -11t7.5 -23q0 -9 -4 -13l-449 -669l512 -754q6 -9 6 -16q0 -11 -8.5 -19t-21.5 -8h-332q-27 0 -39 20l-365 596l-368 -596 q-12 -20 -39 -20h-299q-13 0 -20 12.5t-7 24.5z" />
<glyph unicode="Y" horiz-adv-x="1486" d="M-6 1477q0 12 12 24t19 12h315q20 0 29 -6.5t20 -25.5l371 -641l356 641q10 20 19 26t28 6h303q14 0 21.5 -11t7.5 -23q0 -9 -4 -13l-569 -895v-540q0 -13 -10 -22t-25 -9h-271q-15 0 -24.5 8.5t-9.5 22.5v536l-584 897q-4 8 -4 13z" />
<glyph unicode="Z" horiz-adv-x="1415" d="M88 1298v185q0 14 9 22t24 8h1149q13 0 23 -9t10 -21v-185q0 -19 -15 -45l-784 -1005h790q14 0 23.5 -9t9.5 -22v-186q0 -13 -9.5 -22t-23.5 -9h-1163q-13 0 -23 9.5t-10 21.5v168q0 33 21 57l770 1010h-768q-15 0 -24 9t-9 23z" />
<glyph unicode="[" horiz-adv-x="743" d="M147 -164v1702q0 33 27 41l354 94q4 2 11 2q21 0 28 -20l58 -139q2 -4 2 -11q0 -21 -19 -26l-186 -78v-1428l186 -77q7 -2 13 -9.5t6 -15.5q0 -6 -2 -10l-58 -142q-7 -20 -26 -20q-9 0 -13 2l-354 94q-27 8 -27 41z" />
<glyph unicode="\" horiz-adv-x="655" d="M-111 1573q0 18 19 24l188 70q2 0 6.5 1t6.5 1q17 0 24 -18l631 -1788q2 -2 2 -8q0 -18 -21 -27l-188 -68q-2 -2 -10 -2q-21 0 -27 19l-629 1786q-2 4 -2 10z" />
<glyph unicode="]" horiz-adv-x="743" d="M119 -129q0 21 16 25l189 77v1428l-187 78q-18 5 -18 26q0 7 2 11l55 139q10 20 29 20q8 0 12 -2l354 -94q27 -8 27 -41v-1702q0 -33 -27 -41l-356 -94q-4 -2 -10 -2q-19 0 -29 20l-55 142q-2 4 -2 10z" />
<glyph unicode="^" d="M66 664q0 4 4 16l440 811q14 22 43 22h156q23 0 36 -22l443 -811q4 -12 4 -16q0 -16 -18 -25l-164 -74q-4 -4 -15 -4q-21 0 -30 19l-338 680l-334 -680q-9 -19 -31 -19q-8 0 -14 4l-164 74q-18 9 -18 25z" />
<glyph unicode="_" horiz-adv-x="1110" d="M0 -125h1110v-131h-1110v131z" />
<glyph unicode="`" horiz-adv-x="749" d="M141 1440q0 9 6 12l97 129q7 10 18 10q6 0 14 -4l322 -227q10 -7 10 -17q0 -9 -6 -12l-88 -119q-7 -10 -18 -10q-7 0 -15 4l-329 217q-11 7 -11 17z" />
<glyph unicode="a" horiz-adv-x="1198" d="M84 324q0 55 10.5 99t25.5 74.5t42 54.5t50.5 38t60.5 25.5t62.5 16.5t65.5 11l357 57v56q0 46 -9.5 71t-39.5 39q-43 21 -146 21q-46 0 -104.5 -7.5t-94.5 -15t-89.5 -20.5t-55.5 -13q-8 -4 -14 -4q-20 0 -23 19l-30 141q-2 4 -2 10q0 21 24 31q56 22 185 48t272 26 q206 0 311 -60q72 -39 101.5 -104.5t29.5 -159.5v-563q0 -58 -10 -94.5t-37.5 -59.5t-59.5 -34.5t-92 -24.5q-122 -29 -290 -29q-58 0 -103.5 2.5t-99.5 11.5t-94.5 24t-80 41.5t-65.5 62.5t-41.5 89t-15.5 120zM395 328q0 -41 13 -71t32 -46t47.5 -25t52 -11.5t52.5 -2.5 q90 0 168 23v317l-219 -35q-29 -4 -46 -8t-38.5 -14t-33 -25t-20 -40.5t-8.5 -61.5z" />
<glyph unicode="b" horiz-adv-x="1232" d="M137 201v1251q0 44 37 49l234 39h10q35 0 35 -35v-321l-23 -127q142 45 277 45q238 0 340 -123t102 -424q0 -103 -8.5 -179.5t-30 -144.5t-58.5 -114t-93.5 -79.5t-136 -49t-185.5 -15.5q-235 0 -383 50q-42 13 -66 28.5t-35 40t-13.5 46t-2.5 63.5zM453 203 q71 -17 157 -17q53 0 87.5 8.5t61.5 30t40.5 63t20.5 103.5t7 156q0 76 -3 128t-12 91t-22 61.5t-35.5 36.5t-49.5 18.5t-68 4.5q-37 0 -83 -6.5t-74 -13.5l-27 -7v-657z" />
<glyph unicode="c" horiz-adv-x="1040" d="M84 541q0 117 14.5 203t50 156t94.5 113t147.5 66t209.5 23q108 0 210.5 -16.5t141.5 -36.5q25 -13 25 -35v-10l-27 -127q-6 -25 -30 -25q-2 0 -7 1t-6 1q-129 33 -233 33q-156 0 -214.5 -75.5t-58.5 -268.5q0 -195 58.5 -271.5t214.5 -76.5q108 0 233 32q1 0 6 1t7 1 q25 0 30 -26l27 -125v-10q0 -20 -25 -33q-38 -21 -140 -37t-212 -16q-121 0 -209.5 23t-147.5 66t-94.5 112.5t-50 155.5t-14.5 202z" />
<glyph unicode="d" horiz-adv-x="1232" d="M84 528q0 112 11.5 196.5t41 158t79 120t127 73t183.5 26.5q49 0 100.5 -5.5t82.5 -11.5t61.5 -13t32.5 -7l-23 125v262q0 44 39 49l232 39h12q35 0 35 -35v-1325q0 -26 -3 -44.5t-14 -42.5t-37 -42.5t-67 -30.5q-159 -47 -352 -47q-155 0 -254.5 26t-165.5 91t-93.5 170 t-27.5 268zM403 547q0 -98 8.5 -163.5t23.5 -105t44.5 -60t62 -26.5t85.5 -6q36 0 74 5t59 11l20 5v663q-90 19 -166 19q-43 0 -70 -3.5t-53.5 -16t-41 -35t-26 -61t-16 -93.5t-4.5 -133z" />
<glyph unicode="e" horiz-adv-x="1202" d="M84 532q0 154 25 258t84.5 176t158.5 104t248 32q290 0 408 -139q102 -123 102 -408q0 -12 -1 -47.5t-1 -50.5q0 -54 -49 -54h-662q0 -63 21 -103.5t67 -70.5q74 -45 222 -45q30 0 61.5 3t54 6t53.5 9.5t43.5 9.5t40 10.5t29.5 8.5q2 2 6 2q25 0 33 -32l27 -113 q2 -6 2 -12q0 -24 -23 -35q-166 -68 -381 -68q-152 0 -257.5 29.5t-176 96t-103 172.5t-32.5 261zM397 594h402v12q0 73 -13 146q-18 78 -61 109.5t-121 31.5q-94 0 -137 -31t-57 -102q-9 -46 -13 -166z" />
<glyph unicode="f" horiz-adv-x="849" d="M25 881v163q0 13 9 22t23 9h158v139q0 164 86 245t264 81q139 0 275 -35q22 -5 22 -30v-7l-22 -139q-3 -26 -23 -26h-8q-95 14 -145 14q-74 0 -103 -23q-29 -26 -29 -88v-131h261q14 0 23 -9t9 -22v-163q0 -13 -9 -22t-23 -9h-261v-819q0 -14 -8.5 -22.5t-23.5 -8.5h-250 q-14 0 -24.5 9t-10.5 22v819h-158q-14 0 -23 9t-9 22z" />
<glyph unicode="g" horiz-adv-x="1251" d="M90 -199q0 34 7 62.5t17 48t28 35.5t32.5 25t37.5 17.5t36 11.5t36.5 8t30.5 7v33q-10 2 -34.5 6.5t-35 7t-30.5 9t-29.5 13.5t-23 20t-19.5 29t-11 39t-5 52q0 34 7.5 60t24.5 44t34 29.5t48 20.5t53 13.5t62 10.5q-21 6 -35.5 10t-41.5 16t-45.5 25.5t-41.5 37.5 t-37 53t-24 71.5t-10 92.5q0 211 122.5 302t360.5 91q63 0 113 -6t75.5 -12t77.5 -21q31 -8 80 -8q52 0 99 12q16 4 106 45q18 6 19 6q14 0 20 -20l51 -162q4 -12 4 -16q0 -12 -16 -23q-60 -43 -143 -43q-16 0 -86 12q32 -26 57.5 -73.5t25.5 -110.5q0 -332 -444 -332h-123 q-94 0 -94 -84q0 -49 34.5 -64.5t119.5 -15.5h194q60 0 110 -6.5t102 -25t88 -49t58.5 -83t22.5 -122.5q0 -96 -39.5 -166.5t-112 -112t-167 -61t-213.5 -19.5q-276 0 -404.5 57t-128.5 203zM393 -152q0 -73 57.5 -101t180.5 -28q108 0 165.5 30.5t57.5 107.5 q0 35 -12.5 56.5t-38 31.5t-51 13t-66.5 3h-139q-31 0 -54.5 -4t-48 -15t-38 -34.5t-13.5 -59.5zM428 727q0 -105 40.5 -155t143.5 -50q102 0 142.5 50t40.5 155t-40.5 154t-142.5 49q-103 0 -143.5 -49t-40.5 -154z" />
<glyph unicode="h" horiz-adv-x="1241" d="M137 31v1421q0 44 37 49l234 39h10q35 0 35 -35v-319l-23 -127q179 43 320 43q183 0 274.5 -65.5t91.5 -227.5v-778q0 -14 -9 -22.5t-24 -8.5h-249q-15 0 -24 8.5t-9 22.5v725q0 70 -29 102.5t-100 32.5q-46 0 -101 -6.5t-87 -12.5l-31 -6v-835q0 -14 -9 -22.5t-24 -8.5 h-250q-15 0 -24 8.5t-9 22.5z" />
<glyph unicode="i" horiz-adv-x="649" d="M168 31v989q0 13 9.5 22t23.5 9h250q14 0 23 -9t9 -22v-989q0 -13 -9 -22t-23 -9h-250q-14 0 -23.5 9t-9.5 22zM170 1251v236q0 53 57 53h197q57 0 57 -53v-236q0 -29 -13.5 -41t-43.5 -12h-197q-30 0 -43.5 12t-13.5 41z" />
<glyph unicode="j" horiz-adv-x="641" d="M-106 -379l2 121q1 24 10.5 31.5t32.5 7.5q9 0 25 1t38 1q42 0 69 5t51.5 21t36 49t11.5 85v1077q0 14 9 22.5t24 8.5h248q15 0 23.5 -8.5t8.5 -22.5v-1083q0 -87 -20.5 -152t-55 -105.5t-86.5 -65.5t-108.5 -34.5t-128.5 -9.5q-44 0 -72 1.5t-48 3.5l-30 3q-9 2 -10 2 t-8.5 2.5t-9.5 4.5t-6 6.5t-5 11t-1 14.5v2zM170 1251v236q0 53 57 53h197q57 0 57 -53v-236q0 -29 -13.5 -41t-43.5 -12h-197q-30 0 -43.5 12t-13.5 41z" />
<glyph unicode="k" horiz-adv-x="1187" d="M137 31v1421q0 44 37 49l232 39h10q37 0 37 -37v-862h65l287 420q12 14 29 14h4l288 -6q9 0 14 -6t5 -14q0 -5 -4 -9l-363 -487l381 -524q4 -8 4 -9q0 -8 -6.5 -14t-13.5 -6h-322q-19 0 -28 14l-275 418h-65v-401q0 -13 -9.5 -22t-23.5 -9h-250q-15 0 -24 8.5t-9 22.5z " />
<glyph unicode="l" horiz-adv-x="700" d="M137 270v1188q0 21 6.5 30.5t26.5 12.5l238 39h10q35 0 35 -35v-1206q0 -50 22.5 -71t56.5 -21q22 0 70 6q1 0 3 1t3 1q21 0 25 -25l26 -141v-6q0 -13 -7.5 -22t-12.5 -9q-67 -30 -197 -30q-152 0 -228.5 77.5t-76.5 210.5z" />
<glyph unicode="m" horiz-adv-x="1923" d="M137 31v893q0 56 37 82t133 49q80 20 192.5 33.5t207.5 13.5q178 0 272 -70q52 20 169.5 45t233.5 25q81 0 142.5 -8.5t115 -30t87 -57t52.5 -91t19 -131.5v-753q0 -14 -9 -22.5t-24 -8.5h-249q-15 0 -25 9t-10 22v710q0 82 -37 116t-111 34q-43 0 -95 -6.5t-83 -12.5 l-31 -6v-835q0 -14 -8.5 -22.5t-21.5 -8.5h-250q-15 0 -25 9t-10 22v710q0 83 -33 116.5t-106 33.5q-44 0 -98 -6.5t-86 -13.5l-33 -7v-833q0 -14 -9 -22.5t-24 -8.5h-250q-15 0 -24 8.5t-9 22.5z" />
<glyph unicode="n" horiz-adv-x="1241" d="M137 31v893q0 56 37 82t133 49q192 47 393 47q103 0 175.5 -14t129 -48.5t84 -98t27.5 -157.5v-753q0 -13 -9.5 -22t-23.5 -9h-249q-15 0 -25 9t-10 22v710q0 82 -33.5 116t-106.5 34q-43 0 -94.5 -6.5t-81.5 -13.5l-30 -7v-833q0 -14 -9 -22.5t-24 -8.5h-250 q-15 0 -24 8.5t-9 22.5z" />
<glyph unicode="o" horiz-adv-x="1208" d="M84 537q0 75 4.5 132t18 118.5t36.5 105.5t62 85.5t93 67.5t131.5 41t174.5 15t174 -15t131 -41t93 -67t62.5 -86t37 -106t18 -118.5t4.5 -131.5t-4.5 -131t-18 -118t-37 -105.5t-62.5 -86t-93 -67.5t-131 -41t-174 -15t-174.5 15t-131.5 41t-93 67.5t-62 86t-36.5 105.5 t-18 118t-4.5 131zM406 537q0 -60 1 -95.5t5 -78t12 -66t22 -48t35.5 -36.5t51.5 -19.5t71 -7.5q40 0 70 7.5t51.5 19.5t36 36t22.5 48.5t12.5 66t5.5 78t1 95.5t-1 96t-5.5 79t-13 66t-22.5 48t-35.5 36t-51.5 19.5t-70 7.5q-28 0 -51.5 -3t-42 -10.5t-33 -16.5 t-25.5 -24.5t-18.5 -30t-12.5 -39t-8 -45.5t-4.5 -54t-2 -60t-0.5 -69z" />
<glyph unicode="p" horiz-adv-x="1232" d="M137 -393v1259q0 81 30.5 114.5t104.5 57.5q201 64 426 64q85 0 152.5 -15t115 -40t81.5 -66.5t54 -85.5t31.5 -106t15 -119t3.5 -133q0 -69 -4 -125t-16 -116t-32.5 -106t-54 -88t-79 -69.5t-110.5 -43.5t-146 -16q-157 0 -279 37l23 -129v-223q0 -44 -37 -49l-234 -39 h-10q-35 0 -35 37zM453 205q71 -19 159 -19q53 0 87 8.5t61 30t41 63t21 103t7 154.5q0 94 -7.5 156t-20.5 99.5t-39 56.5t-54 24.5t-75 5.5q-36 0 -81 -6.5t-72 -13.5l-27 -7v-655z" />
<glyph unicode="q" horiz-adv-x="1232" d="M84 530q0 137 19.5 234.5t58 163.5t103 104t146 54t195.5 16q169 0 336 -41q83 -19 119.5 -59.5t36.5 -116.5v-1227q0 -44 -37 -49l-234 -39h-12q-35 0 -35 35v276l25 129q-137 -37 -277 -37q-82 0 -148 16t-112 42.5t-79.5 68.5t-53.5 87t-31.5 105t-15.5 114.5 t-4 123.5zM403 547q0 -98 8.5 -163.5t23.5 -105t44.5 -60t62 -26.5t85.5 -6q36 0 74 5t59 11l20 5v663q-78 19 -166 19q-63 0 -100 -12t-64 -49t-37 -103.5t-10 -177.5z" />
<glyph unicode="r" horiz-adv-x="780" d="M137 31v895q0 42 20.5 64t71.5 42q55 21 248 47q137 19 199 21h18q26 0 41 -10t15 -33v-150q0 -21 -6.5 -31t-30.5 -10q-164 0 -260 -22v-813q0 -14 -9 -22.5t-24 -8.5h-250q-11 0 -22 9t-11 22z" />
<glyph unicode="s" horiz-adv-x="1019" d="M92 66v12l27 131q3 24 22 24q7 0 11 -2q1 0 28.5 -7t54 -12.5t64 -12.5t78 -11t76.5 -4q76 0 124 27.5t48 89.5q0 35 -8.5 56.5t-34.5 35t-45 18.5t-67 14l-15 3q-7 1 -20 4q-130 23 -191 57q-139 79 -140 275q0 338 445 338q173 0 334 -47q22 -5 22 -31v-6l-24 -135 q-3 -21 -29 -21q-1 0 -3 1t-3 1q-2 0 -46 8t-100.5 14.5t-103.5 6.5q-176 0 -176 -107q0 -17 3 -31.5t11 -25.5t15 -19.5t22 -15t24 -11t29.5 -9t30 -6t34.5 -5.5t34 -6q40 -7 66.5 -13t63 -18t60.5 -27t50 -40t41.5 -56t25.5 -75.5t10 -99.5q0 -353 -446 -353 q-117 0 -227.5 21t-151.5 39q-1 0 -3.5 1.5t-3.5 2t-3.5 2t-4 3l-3.5 3.5t-3 5t-1.5 6.5t-0.5 7.5z" />
<glyph unicode="t" horiz-adv-x="845" d="M137 317v1031q0 41 37 49l234 41h10q35 0 35 -35v-328h272q14 0 23.5 -9t9.5 -22v-163q0 -13 -9.5 -22t-23.5 -9h-272v-518q0 -64 28.5 -94.5t102.5 -30.5q62 0 145 16h8q18 0 25 -22l26 -133v-13q0 -27 -26 -35q-130 -36 -258 -36q-188 0 -277.5 77t-89.5 256z" />
<glyph unicode="u" horiz-adv-x="1230" d="M127 360v654q0 44 37 49l233 39h11q34 0 34 -37v-717q0 -86 37.5 -126t136.5 -40q104 0 139.5 42.5t35.5 123.5v666q0 41 36 49l234 37q4 2 10 2q35 0 35 -37v-703q0 -204 -117.5 -296.5t-372.5 -92.5q-124 0 -212 19t-151.5 63.5t-94.5 120t-31 184.5z" />
<glyph unicode="v" horiz-adv-x="1150" d="M41 1038q0 16 9.5 26.5t27.5 10.5h237q21 0 31 -7t16 -28l193 -843h55l174 841q4 21 15 29t32 8h240q18 0 29.5 -11t11.5 -26q0 -2 -1 -6.5t-1 -7.5l-281 -991q-7 -33 -36 -33h-428q-28 0 -39 33l-283 991q-2 4 -2 14z" />
<glyph unicode="w" horiz-adv-x="1849" d="M55 1024v12q0 39 37 39h236q22 0 32.5 -7t14.5 -28l139 -843h55l133 790q7 33 39 33h387q32 0 39 -33l138 -790h55l127 843q3 20 13.5 27.5t31.5 7.5h223q18 0 28.5 -10.5t10.5 -28.5v-12l-219 -991q-7 -33 -37 -33h-430q-15 0 -25.5 9.5t-13.5 23.5l-141 755h-2 l-148 -755q-2 -14 -12 -23.5t-25 -9.5h-430q-30 0 -37 33z" />
<glyph unicode="x" horiz-adv-x="1204" d="M31 27q0 10 4 12l362 506l-323 483q-6 6 -6 14q0 12 8 22.5t16 10.5h248q20 0 27.5 -0.5t17.5 -6.5t18 -19l213 -344l189 342q6 11 11.5 16.5t14.5 8t15 3t22 0.5h244q8 0 16.5 -10.5t8.5 -22.5q0 -4 -4 -16l-326 -479l362 -508q5 -3 5 -12q0 -10 -6 -18.5t-15 -8.5h-281 q-16 0 -32 20l-248 373l-227 -373q-12 -20 -33 -20h-281q-9 0 -14.5 8.5t-5.5 18.5z" />
<glyph unicode="y" horiz-adv-x="1136" d="M41 1038q0 16 10 26.5t27 10.5h237q22 0 32.5 -7t14.5 -28l195 -843h55l174 841q4 21 15.5 29t32.5 8h241q17 0 28 -11t11 -26q0 -2 -1 -6.5t-1 -7.5l-324 -1141q-23 -79 -48.5 -130.5t-69.5 -96t-112.5 -65.5t-166.5 -21q-108 0 -209 14q-30 6 -30 37v2l2 127q1 13 3 20 t10.5 14t22.5 7h3q15 0 55.5 -2t64.5 -2q80 0 121 27.5t58 91.5l26 94h-153q-30 0 -37 33l-285 991q-2 6 -2 14z" />
<glyph unicode="z" horiz-adv-x="1058" d="M82 887v157q0 14 9 22.5t24 8.5h823q14 0 23.5 -9t9.5 -22v-131q0 -21 -17 -43l-487 -651h477q15 0 24 -8.5t9 -22.5v-157q0 -14 -9 -22.5t-24 -8.5h-821q-15 0 -24 8.5t-9 22.5v129q0 26 16 45l490 651h-481q-15 0 -24 8.5t-9 22.5z" />
<glyph unicode="{" horiz-adv-x="862" d="M106 616v136q0 14 10.5 25t26.5 14q76 10 98.5 51t22.5 155v541q0 33 27 41l356 94q2 2 10 2q20 0 29 -18l57 -141q0 -2 1 -6t1 -5q0 -18 -20 -26l-186 -78v-451q0 -102 -41.5 -154t-118.5 -85v-58q37 -16 62 -32.5t49.5 -43.5t36.5 -67.5t12 -95.5v-441l188 -77 q6 -2 12 -9t6 -16q0 -2 -1 -5t-1 -5l-57 -142q-10 -20 -29 -20q-1 0 -4.5 1t-5.5 1l-356 94q-27 8 -27 43v533q0 114 -22.5 155.5t-98.5 51.5q-16 3 -26.5 13.5t-10.5 24.5z" />
<glyph unicode="|" horiz-adv-x="569" d="M158 -289v1848q0 14 9.5 28.5t25.5 14.5h182q15 0 27 -12.5t12 -30.5v-1848q0 -18 -12 -30.5t-27 -12.5h-182q-16 0 -25.5 14.5t-9.5 28.5z" />
<glyph unicode="}" horiz-adv-x="862" d="M119 -129q0 21 16 25l189 77v441q0 55 12 95.5t36.5 67.5t49.5 43.5t61 32.5v58q-76 33 -117.5 85t-41.5 154v451l-187 78q-18 9 -18 26q0 7 2 11l55 141q9 18 29 18q8 0 12 -2l354 -94q27 -8 27 -41v-541q0 -114 22.5 -155t98.5 -51q16 -3 27.5 -14t11.5 -25v-136 q0 -14 -11.5 -24.5t-27.5 -13.5q-76 -10 -98.5 -51.5t-22.5 -155.5v-533q0 -35 -27 -43l-356 -94q-2 0 -5.5 -1t-4.5 -1q-19 0 -29 20l-55 142q-2 4 -2 10z" />
<glyph unicode="~" d="M141 616q0 12 17 25q159 115 282 115q68 0 189 -47q9 -4 46 -19t51 -20t39.5 -11t47.5 -6q81 0 195 82q10 10 20 10q16 0 23 -14l61 -133q4 -12 4 -18q0 -13 -16 -25q-159 -115 -283 -115q-67 0 -188 47q-12 5 -38.5 16t-40 16t-33.5 11.5t-37.5 9.5t-35.5 3 q-80 0 -194 -82q-10 -10 -21 -10q-16 0 -22 14l-62 133q-4 12 -4 18z" />
<glyph horiz-adv-x="1464" d="M68 539v131q0 12 8.5 20t21.5 8h1157q11 0 19 -6t8 -16v-4l-20 -135q-3 -27 -29 -27h-598q16 -76 37 -124.5t60 -86.5t101 -55t154 -17q138 0 352 49q3 0 10 1.5t9 1.5q24 0 31 -23l30 -156q0 -2 1 -5.5t1 -4.5q0 -25 -39 -41q-171 -67 -446 -67q-165 -1 -282 30 t-194.5 98t-120 164t-60.5 236h-181q-30 0 -30 29zM68 842v129q0 13 8 21.5t22 8.5h178q34 281 185 406t475 125q284 -2 446 -70q39 -13 39 -39q0 -2 -1 -6t-1 -6l-30 -154q-5 -22 -31 -22q-13 0 -19 2q-206 47 -352 47q-93 0 -157 -17.5t-103 -56.5t-60 -87t-36 -122h641 q10 0 17 -6.5t7 -17.5v-2l-18 -137q-1 -13 -10.5 -20t-18.5 -7h-1151q-13 0 -21.5 8.5t-8.5 22.5z" />
<glyph horiz-adv-x="460" d="M92 -150v451q0 15 10 26t23 11h211q13 0 24 -10t11 -23v-4l-37 -451q0 -15 -9.5 -25.5t-23.5 -10.5h-176q-14 0 -23.5 10.5t-9.5 25.5z" />
<glyph horiz-adv-x="1247" d="M158 -381l213 1159h-164q-31 0 -31 27v6l29 158q8 37 41 37h166l39 211q21 118 62.5 186t121 102.5t207.5 34.5q60 0 124.5 -9.5t96.5 -19.5q29 -10 29 -32q0 -1 -1 -4t-1 -5l-27 -127q-4 -30 -31 -30h-8q-78 12 -125 12q-83 0 -113 -34.5t-45 -121.5l-28 -163h252 q30 0 30 -27q0 -4 -2 -6l-28 -158q-8 -37 -41 -37h-250l-213 -1171q-3 -13 -15 -22t-28 -9h-221q-39 0 -39 33v10z" />
<glyph horiz-adv-x="854" d="M92 -150v451q0 15 10 26t23 11h211q13 0 24 -10t11 -23v-4l-37 -451q0 -15 -9.5 -25.5t-23.5 -10.5h-176q-14 0 -23.5 10.5t-9.5 25.5zM485 -150v451q0 15 10.5 26t22.5 11h213q12 0 22.5 -10t10.5 -23v-4l-35 -451q-1 -15 -11 -25.5t-22 -10.5h-178q-12 0 -22.5 10.5 t-10.5 25.5z" />
<glyph unicode="&#x85;" horiz-adv-x="2181" d="M209 35v215q0 14 12.5 24.5t32.5 10.5h281q20 0 33.5 -10.5t13.5 -24.5v-215q0 -14 -13.5 -24.5t-33.5 -10.5h-281q-20 0 -32.5 10.5t-12.5 24.5zM909 35v215q0 14 12.5 24.5t32.5 10.5h281q20 0 33.5 -10.5t13.5 -24.5v-215q0 -14 -13.5 -24.5t-33.5 -10.5h-281 q-20 0 -32.5 10.5t-12.5 24.5zM1610 35v215q0 14 12.5 24.5t32.5 10.5h280q20 0 33.5 -10.5t13.5 -24.5v-215q0 -14 -13.5 -24.5t-33.5 -10.5h-280q-20 0 -32.5 10.5t-12.5 24.5z" />
<glyph horiz-adv-x="1474" d="M260 549v162q0 12 9 20t24 8h299l-23 129v586q0 44 39 49l254 37h10q35 0 35 -37v-635l-22 -129h299q14 0 23.5 -8t9.5 -20v-162q0 -12 -9.5 -20.5t-23.5 -8.5h-299l22 -129v-735q0 -44 -37 -49l-256 -37h-10q-35 0 -35 37v784l23 129h-299q-15 0 -24 8.5t-9 20.5z" />
<glyph horiz-adv-x="1476" d="M260 180v162q0 12 9.5 20.5t23.5 8.5h299l-25 129v112l25 129h-299q-33 0 -33 29v162q0 12 9 20.5t24 8.5h299l-23 129v364q0 44 39 49l254 37h10q35 0 35 -35l2 -415l-24 -129h299q14 0 23.5 -8.5t9.5 -20.5v-162q0 -13 -9.5 -21t-23.5 -8h-299l22 -129v-112l-22 -129 h299q15 0 24 -8.5t9 -20.5v-162q0 -14 -9 -22t-24 -8h-299l24 -127v-365q0 -43 -39 -49l-256 -37q-2 0 -5 -1t-5 -1q-35 0 -35 37v416l23 127h-299q-14 0 -23.5 8.5t-9.5 21.5z" />
<glyph horiz-adv-x="1015" d="M156 1350q0 11 8 16l307 211h74l307 -211q8 -5 8 -16t-4 -15l-90 -116q-8 -11 -21 -11q-8 0 -12 4l-225 174l-225 -174q-4 -4 -13 -4q-12 0 -20 11l-90 116q-4 4 -4 15z" />
<glyph horiz-adv-x="2637" d="M35 1141q0 67 6 117t27.5 106t59 92t105 60t160.5 24t160.5 -24t105 -60t59.5 -92t28 -106.5t6 -116.5q0 -67 -6 -117.5t-28 -107t-59.5 -93t-105 -60.5t-160.5 -24t-160.5 24t-105 60.5t-59 93t-27.5 107t-6 117.5zM264 1141q0 -123 24.5 -173t104.5 -50t103.5 50 t23.5 173t-23.5 172t-103.5 49t-104.5 -50t-24.5 -171zM305 96q0 9 4 13l1026 1400q3 9 17 9q5 0 10 -5l135 -83q10 -7 10 -17q0 -2 -4 -10l-1026 -1403q-6 -6 -16 -6q-8 0 -10 2l-138 86q-8 3 -8 14zM1063 373q0 67 6 117.5t27.5 107t59 92.5t105 60t160.5 24t160.5 -24 t105 -60t59.5 -92.5t28 -107t6 -117.5q0 -66 -6 -116.5t-28 -107t-59.5 -92.5t-105 -60t-160.5 -24q-67 0 -121 12.5t-91 33t-64 52t-42.5 64t-24.5 75.5t-12 80t-3 83zM1292 373q0 -122 24.5 -171.5t104.5 -49.5t104.5 49.5t24.5 171.5q0 123 -24.5 173t-104.5 50 t-104.5 -50t-24.5 -173zM1886 373q0 67 6 117.5t28 107t59.5 92.5t105 60t160.5 24t160.5 -24t105 -60t59 -92.5t27.5 -107t6 -117.5q0 -46 -3 -83t-12 -80t-24.5 -75.5t-42.5 -64t-64 -52t-91 -33t-121 -12.5q-93 0 -160.5 24t-105 60t-59.5 92.5t-28 107t-6 116.5z M2116 373q0 -122 24.5 -171.5t104.5 -49.5t104.5 49.5t24.5 171.5q0 123 -24.5 173t-104.5 50t-104.5 -50t-24.5 -173z" />
<glyph horiz-adv-x="1423" d="M129 1073q0 107 30 188t82 132.5t128 84t160.5 45.5t187.5 13q254 0 489 -70q41 -10 41 -45v-10l-30 -151q-2 -12 -12 -21.5t-23 -9.5q-4 0 -6 2q-14 3 -59.5 13t-67.5 14.5t-66 12t-75.5 11.5t-73.5 7t-82 3q-60 0 -106 -7t-89 -25.5t-66.5 -56.5t-23.5 -95 q0 -31 9.5 -56.5t23 -43.5t39.5 -33t48 -23.5t60 -17t64.5 -13t71.5 -11.5q6 -1 10.5 -1.5t9.5 -1.5q68 -11 104.5 -17.5t98 -23.5t97 -36.5t80 -54.5t67.5 -79t40 -109t17 -145q0 -104 -32.5 -185t-88 -133t-133.5 -85.5t-162 -47.5t-182 -14q-124 0 -252 18t-187.5 32.5 t-91.5 25.5q-35 12 -35 45v11l29 151q5 33 35 33q3 0 9 -1t9 -1q3 -1 43.5 -11t79.5 -18.5t93.5 -18.5t113.5 -16t111 -6q292 0 292 199q0 38 -10 66.5t-31.5 48.5t-45 33.5t-62.5 23t-72 15.5t-83 14q-18 3 -27 4q-55 9 -95.5 17t-95.5 25t-95 37.5t-82.5 55t-69 76.5 t-43.5 103t-17 134zM393 1870q0 8 4 12l90 113q7 10 21 10q10 0 14 -4l223 -174l226 174q4 4 12 4q13 0 21 -10l90 -113q6 -6 6 -12q0 -10 -10 -17l-308 -213h-71l-310 213q-8 5 -8 17z" />
<glyph horiz-adv-x="768" d="M100 592q0 12 9 24l350 478q12 12 30 12q11 0 13 -2l149 -86q15 -10 15 -27q0 -6 -4 -14l-300 -385l297 -385q5 -3 5 -12q0 -18 -13 -27l-149 -86q-2 -2 -13 -2q-18 0 -30 12l-350 477q-9 9 -9 23z" />
<glyph horiz-adv-x="2287" d="M119 758q0 94 5 167t20.5 157.5t43 147.5t75.5 124t114.5 100t163 62.5t217.5 23.5q113 0 219 -35t168 -100v76q0 32 37 32h938q14 0 23 -8.5t9 -21.5v-187q0 -14 -9 -23t-23 -9h-684v-363h653q14 0 23.5 -9t9.5 -22v-188q0 -13 -9.5 -22t-23.5 -9h-653v-405h684 q15 0 23.5 -8.5t8.5 -22.5v-184q0 -13 -9 -22t-23 -9h-938q-37 0 -37 33v76q-62 -65 -168.5 -100.5t-218.5 -35.5q-121 0 -217.5 24t-163 62.5t-114.5 100t-75.5 124.5t-43 148t-20.5 158.5t-5 167.5zM465 756q0 -87 3 -149.5t11 -124t22.5 -102.5t37.5 -77t56.5 -56.5 t79 -32t105.5 -11.5q69 0 120.5 14t87 46.5t58 74.5t35 108.5t17 137.5t4.5 172t-4.5 172t-17 137.5t-35 108.5t-58 74.5t-87 46.5t-120.5 14q-60 0 -105.5 -11.5t-79 -32t-56.5 -56.5t-37.5 -77t-22.5 -102.5t-11 -124t-3 -149.5z" />
<glyph horiz-adv-x="1415" d="M88 1298v185q0 14 9 22t24 8h1149q13 0 23 -9t10 -21v-185q0 -19 -15 -45l-784 -1005h790q14 0 23.5 -9t9.5 -22v-186q0 -13 -9.5 -22t-23.5 -9h-1163q-13 0 -23 9.5t-10 21.5v168q0 33 21 57l770 1010h-768q-15 0 -24 9t-9 23zM348 1870q0 8 4 12l90 113q7 10 21 10 q10 0 12 -4l225 -174l226 174q2 4 12 4q12 0 20 -10l91 -113q4 -4 4 -12q0 -11 -9 -17l-307 -213h-73l-308 213q-8 5 -8 17z" />
<glyph horiz-adv-x="548" d="M90 1028q0 3 1 8t1 8l135 439q4 13 16.5 21.5t24.5 8.5h156q12 0 22.5 -10.5t10.5 -25.5v-7l-66 -444q-1 -15 -14.5 -26t-28.5 -11h-221q-15 0 -26 11t-11 28z" />
<glyph horiz-adv-x="548" d="M90 1026q0 1 1 3t1 3l64 445q3 17 16 26.5t29 9.5h219q17 0 27 -10.5t10 -27.5q0 -11 -2 -15l-136 -438q-4 -14 -15.5 -23.5t-22.5 -9.5h-156q-13 0 -24 11.5t-11 25.5z" />
<glyph horiz-adv-x="976" d="M90 1028q0 3 1 8t1 8l135 439q4 13 16.5 21.5t24.5 8.5h156q12 0 22.5 -10.5t10.5 -25.5v-7l-66 -444q-1 -15 -14.5 -26t-28.5 -11h-221q-15 0 -26 11t-11 28zM518 1028q0 3 1 8t1 8l137 439q3 13 14.5 21.5t24.5 8.5h156q12 0 22.5 -10.5t10.5 -25.5v-7l-66 -444 q-1 -15 -14.5 -26t-28.5 -11h-221q-15 0 -26 11t-11 28z" />
<glyph horiz-adv-x="976" d="M90 1026q0 1 1 3t1 3l64 445q3 17 16 26.5t29 9.5h219q17 0 27 -10.5t10 -27.5q0 -11 -2 -15l-136 -438q-4 -14 -15.5 -23.5t-22.5 -9.5h-156q-13 0 -24 11.5t-11 25.5zM520 1026v6l64 445q3 17 16 26.5t29 9.5h219q17 0 27 -10.5t10 -27.5q0 -11 -2 -15l-135 -438 q-4 -14 -16 -23.5t-23 -9.5h-156q-12 0 -22.5 11t-10.5 26z" />
<glyph horiz-adv-x="854" d="M158 524v365q0 37 25.5 63.5t62.5 26.5h364q37 0 62.5 -26.5t25.5 -63.5v-365q0 -37 -25.5 -63.5t-62.5 -26.5h-364q-37 0 -62.5 26.5t-25.5 63.5z" />
<glyph horiz-adv-x="1034" d="M-37 485v154q0 14 12.5 23.5t32.5 9.5h1018q20 0 33.5 -9.5t13.5 -23.5v-154q0 -16 -15 -25t-32 -9h-1018q-15 0 -30 9t-15 25z" />
<glyph horiz-adv-x="2205" d="M-6 485v154q0 14 13.5 23.5t33.5 9.5h2128q20 0 32.5 -9.5t12.5 -23.5v-154q0 -16 -15 -25t-32 -9h-2128q-15 0 -30 9t-15 25z" />
<glyph horiz-adv-x="1077" d="M160 1389q0 11 14 22q130 113 227 113h5q65 -2 145 -49q9 -4 28.5 -14.5t32 -17t29.5 -12t31 -6.5h2q50 0 143 80q8 8 19 8q16 0 22 -14l55 -108q5 -10 5 -17t-15 -22q-136 -113 -229 -113h-4q-60 0 -144 49q-8 4 -28.5 14.5t-32.5 16.5t-29 11.5t-30 6.5h-3 q-49 0 -143 -80q-12 -8 -18 -8q-17 0 -23 15l-55 108q-4 4 -4 17z" />
<glyph horiz-adv-x="2121" d="M47 1368v111q0 34 39 34h768q37 0 37 -34v-111q0 -35 -37 -35h-268v-676q0 -36 -37 -36h-160q-37 0 -37 36v676h-266q-39 0 -39 35zM930 655v2l53 822q3 34 39 34h334q24 0 28 -26l109 -473h10l113 473q2 10 10 18t21 8h327q34 0 37 -34l53 -822v-2q0 -34 -36 -34h-154 q-37 0 -37 36l-39 660h-37l-133 -477q-5 -25 -29 -25h-219q-20 0 -30 25l-127 477h-37l-37 -660q-3 -36 -37 -36h-145q-37 0 -37 34z" />
<glyph horiz-adv-x="1019" d="M92 66v12l27 131q3 24 22 24q7 0 11 -2q1 0 28.5 -7t54 -12.5t64 -12.5t78 -11t76.5 -4q76 0 124 27.5t48 89.5q0 35 -8.5 56.5t-34.5 35t-45 18.5t-67 14l-15 3q-7 1 -20 4q-130 23 -191 57q-139 79 -140 275q0 338 445 338q173 0 334 -47q22 -5 22 -31v-6l-24 -135 q-3 -21 -29 -21q-1 0 -3 1t-3 1q-2 0 -46 8t-100.5 14.5t-103.5 6.5q-176 0 -176 -107q0 -17 3 -31.5t11 -25.5t15 -19.5t22 -15t24 -11t29.5 -9t30 -6t34.5 -5.5t34 -6q40 -7 66.5 -13t63 -18t60.5 -27t50 -40t41.5 -56t25.5 -75.5t10 -99.5q0 -353 -446 -353 q-117 0 -227.5 21t-151.5 39q-1 0 -3.5 1.5t-3.5 2t-3.5 2t-4 3l-3.5 3.5t-3 5t-1.5 6.5t-0.5 7.5zM170 1438q0 8 4 12l90 113q8 10 21 10q6 0 14 -4l223 -174l226 174q8 4 12 4q12 0 20 -10l90 -113q7 -7 7 -12q0 -10 -11 -17l-307 -213h-72l-309 213q-8 5 -8 17z" />
<glyph horiz-adv-x="768" d="M102 991q0 17 15 27l149 86q2 2 13 2q18 0 30 -12l353 -478q6 -12 6 -24q0 -14 -9 -23l-350 -477q-12 -12 -30 -12q-9 0 -13 2l-149 86q-13 9 -13 27q0 9 5 12l297 385l-297 385q-7 7 -7 14z" />
<glyph horiz-adv-x="1902" d="M84 537q0 74 4.5 130.5t18 118t36.5 106t62 86t93 67.5t131.5 41.5t174.5 15.5q82 0 148 -13.5t104.5 -35t58 -37.5t29.5 -31q11 15 33 32t63 37.5t109 34t151 13.5q294 0 410 -144q100 -124 100 -403q0 -12 -1 -47.5t-1 -50.5q0 -54 -49 -54h-661q0 -64 22.5 -104.5 t69.5 -69.5q77 -47 217 -47q35 0 70 3.5t70 10.5t54.5 11.5t53 13.5t35.5 10q1 0 3 1t3 1q23 0 33 -32l28 -113v-12q0 -24 -22 -35q-166 -68 -381 -68q-89 0 -163.5 13.5t-119.5 34t-70.5 38.5t-37.5 33q-24 -37 -117 -78t-242 -41q-97 0 -174.5 15.5t-131.5 41t-93 67.5 t-62 86.5t-36.5 105.5t-18 117.5t-4.5 130.5zM406 537q0 -52 0.5 -83.5t3.5 -70.5t8.5 -61.5t15 -48t24 -39t35 -26t48.5 -17.5t63 -5q40 0 70 7.5t51.5 20t36 37t22.5 48.5t12.5 65.5t5.5 78t1 94.5t-1 95t-5.5 78.5t-12.5 65.5t-22.5 48.5t-36 37t-51.5 20t-70 7.5 q-36 0 -63.5 -5t-48 -17t-35 -26t-24 -39.5t-15 -48t-8.5 -61.5t-3.5 -71t-0.5 -84zM1092 588l401 2v14q0 104 -14 156q-17 72 -60 102.5t-121 30.5q-93 0 -136.5 -31t-57.5 -100q-8 -39 -12 -174z" />
<glyph horiz-adv-x="1058" d="M82 887v157q0 14 9 22.5t24 8.5h823q14 0 23.5 -9t9.5 -22v-131q0 -21 -17 -43l-487 -651h477q15 0 24 -8.5t9 -22.5v-157q0 -14 -9 -22.5t-24 -8.5h-821q-15 0 -24 8.5t-9 22.5v129q0 26 16 45l490 651h-481q-15 0 -24 8.5t-9 22.5zM184 1438q0 4 4 12l93 115 q7 10 18 10q8 0 14 -6l224 -174l225 174q6 6 14 6q9 0 19 -10l92 -115q4 -8 4 -12q0 -10 -10 -17l-308 -213h-71l-309 213q-9 6 -9 17z" />
<glyph horiz-adv-x="1486" d="M-6 1477q0 12 12 24t19 12h315q20 0 29 -6.5t20 -25.5l371 -641l356 641q10 20 19 26t28 6h303q14 0 21.5 -11t7.5 -23q0 -9 -4 -13l-569 -895v-540q0 -13 -10 -22t-25 -9h-271q-15 0 -24.5 8.5t-9.5 22.5v536l-584 897q-4 8 -4 13zM334 1745v158q0 12 12.5 22t30.5 10 h233q18 0 30.5 -10t12.5 -22v-158q0 -12 -12.5 -21.5t-30.5 -9.5h-233q-18 0 -30.5 9.5t-12.5 21.5zM817 1745v158q0 12 12 22t29 10h236q18 0 30.5 -10t12.5 -22v-158q0 -12 -12.5 -21.5t-30.5 -9.5h-236q-17 0 -29 9.5t-12 21.5z" />
<glyph unicode="&#xa1;" horiz-adv-x="698" d="M182 57v4l37 973q0 11 8.5 19t20.5 8h211q12 0 20 -8t8 -19l37 -1028v-2q0 -31 -35 -31h-8l-260 39q-39 6 -39 45zM190 1231v239q0 19 11.5 31t27.5 12h252q18 0 28.5 -11.5t10.5 -31.5v-239q0 -19 -11 -30t-28 -11h-252q-16 0 -27.5 11.5t-11.5 29.5z" />
<glyph unicode="&#xa2;" horiz-adv-x="1040" d="M84 539q0 130 19 223.5t63.5 165.5t121.5 113t191 55v143q0 14 10.5 28.5t26.5 14.5h143q14 0 25.5 -12.5t11.5 -30.5v-141q82 -6 154 -21.5t106 -32.5q25 -12 25 -32q0 -7 -2 -11l-25 -127q-5 -24 -30 -24q-11 0 -15 2q-3 1 -30.5 7.5t-44 9.5t-45.5 8t-57 7.5t-56 2.5 q-156 0 -214.5 -76.5t-58.5 -269.5q0 -195 58.5 -271.5t214.5 -76.5q113 0 233 32q4 2 15 2q25 0 30 -24l25 -125q2 -4 2 -12q0 -20 -25 -33q-76 -37 -260 -53v-142q0 -18 -11.5 -29.5t-25.5 -11.5h-143q-16 0 -26.5 13.5t-10.5 27.5v146q-114 13 -191 53.5t-121.5 112.5 t-63.5 165.5t-19 223.5z" />
<glyph unicode="&#xa3;" horiz-adv-x="1417" d="M117 31v176q0 9 0.5 13.5t4 10.5t11.5 9.5t21 5.5q260 43 260 266q0 60 -52.5 274t-52.5 320q0 103 29 181t77 125t119 76.5t145 40.5t165 11q134 0 255 -22t183 -43q21 -7 21 -31v-8l-35 -174q-4 -19 -27 -19q-6 0 -10 2q-2 0 -47.5 10t-81 17t-91 13.5t-100.5 6.5 t-81.5 -3.5t-77 -16t-67 -33t-44.5 -57t-18 -86.5q0 -48 16.5 -131.5t22.5 -98.5h405q14 0 23.5 -8.5t9.5 -21.5v-185q0 -13 -9.5 -21.5t-23.5 -8.5h-356q16 -58 16 -132q0 -39 -9 -74t-20 -57.5t-30 -44.5t-30.5 -31.5t-30 -23t-19.5 -14.5l669 8q13 0 22 -9.5t9 -23.5 v-186q0 -13 -9.5 -23t-21.5 -10h-1110q-13 0 -21.5 9.5t-8.5 21.5z" />
<glyph unicode="&#xa4;" horiz-adv-x="1533" d="M260 389q0 9 8 14l117 107q-37 90 -37 186q0 98 37 185l-117 106q-8 8 -8 17q0 12 12 24l131 133q13 13 25 13q9 0 16 -7l111 -100q90 41 213 41q120 0 213 -41l109 100q10 7 16 7q11 0 24 -13l134 -133q10 -15 10 -24q0 -8 -6 -17l-119 -106q37 -81 37 -185 q0 -102 -37 -186l119 -107q6 -6 6 -14q0 -14 -10 -24l-134 -136q-15 -10 -24 -10q-10 0 -16 6l-109 101q-93 -41 -213 -41q-123 0 -213 41l-111 -101q-4 -6 -16 -6q-10 0 -25 10l-131 136q-12 8 -12 24zM569 696q0 -122 41.5 -171.5t157.5 -49.5q115 0 156 50t41 171 t-41.5 171.5t-155.5 50.5q-116 0 -157.5 -50.5t-41.5 -171.5z" />
<glyph unicode="&#xa5;" horiz-adv-x="1445" d="M-6 1470q0 15 11.5 29t27.5 14h301q38 0 53 -32l350 -652l336 652q9 19 20 25.5t31 6.5h289q16 0 26.5 -14t10.5 -29q0 -6 -2 -8l-401 -649h266q13 0 21.5 -8.5t8.5 -22.5v-139q0 -12 -12.5 -21.5t-17.5 -9.5h-1180q-13 0 -22 9t-9 22v139q0 14 9 22.5t22 8.5h275 l-410 647q-4 8 -4 10zM186 346v135q0 13 9 22t22 9h1012q13 0 22 -9t9 -22v-135q0 -13 -10 -22t-21 -9h-328v-284q0 -13 -9.5 -22t-23.5 -9h-272q-14 0 -24.5 9t-10.5 22v284h-344q-13 0 -22 8.5t-9 22.5z" />
<glyph unicode="&#xa6;" horiz-adv-x="620" d="M184 -315v696q0 15 9.5 28t25.5 13h182q16 0 27.5 -12t11.5 -31v-694q0 -18 -12 -30.5t-27 -12.5h-182q-16 0 -25.5 14.5t-9.5 28.5zM184 643v696q0 17 9.5 30t25.5 13h182q15 0 27 -12.5t12 -30.5v-694q0 -18 -12 -30.5t-27 -12.5h-182q-16 0 -25.5 13.5t-9.5 27.5z" />
<glyph unicode="&#xa7;" horiz-adv-x="1554" d="M166 500q0 51 13.5 95t32 73t48 54.5t51.5 39t53 25.5t42 15t28 7v51q-16 6 -31.5 12.5t-51.5 30.5t-61.5 53t-46 80.5t-20.5 112.5q0 115 46.5 196t131.5 125q135 70 381 70q114 0 240.5 -19.5t214.5 -56.5q25 -11 25 -30v-7l-25 -137q-8 -35 -27 -35q-5 0 -20 5 q-4 1 -83.5 17.5t-158 27t-151.5 10.5q-83 0 -139 -13t-93 -51t-37 -102q0 -36 13.5 -62t34.5 -41.5t57 -26.5t68.5 -16t82.5 -12q5 0 9 -0.5t8 -1.5q50 -5 135 -16q61 -8 105 -16t94.5 -22t85 -32t69 -46.5t54.5 -65t32.5 -87t12.5 -112.5q0 -228 -265 -303 q-2 -1 -3.5 -1.5t-2.5 -0.5v-51q13 -3 31.5 -10.5t53 -30.5t61 -53t47 -82t20.5 -115q0 -222 -180 -310q-134 -65 -387 -65q-165 0 -299 28t-209 58q-25 11 -25 35q0 10 2 16l29 129q6 31 33 31q6 0 14 -4q5 -1 60 -14.5t103.5 -24t126 -20t144.5 -9.5q60 0 106.5 6.5 t87.5 23t63 49t22 79.5q0 90 -94 124q-49 17 -195 34q-12 2 -58.5 7.5t-72.5 10.5q-80 11 -136 24.5t-117 40.5t-98 64.5t-61 99t-24 142.5zM471 551q0 -149 209 -168l180 -18q38 4 72.5 14.5t71 30t58 54.5t21.5 81q0 150 -196 168q-162 20 -180 20q-33 -1 -69.5 -10 t-76 -27.5t-65 -56.5t-25.5 -88z" />
<glyph unicode="&#xa8;" horiz-adv-x="1095" d="M147 1323v158q0 14 11.5 23t29.5 9h236q19 0 31 -9t12 -23v-158q0 -12 -12.5 -21.5t-30.5 -9.5h-236q-18 0 -29.5 9t-11.5 22zM629 1323v158q0 14 12 23t31 9h235q18 0 29.5 -9t11.5 -23v-158q0 -13 -11.5 -22t-29.5 -9h-235q-18 0 -30.5 9.5t-12.5 21.5z" />
<glyph unicode="&#xa9;" horiz-adv-x="1933" d="M117 754q0 206 39 346.5t135 242.5t262 149.5t414 47.5t414 -47.5t262 -149.5t135 -242.5t39 -346.5q0 -136 -16.5 -241t-55.5 -195t-103 -152.5t-158 -106.5t-222 -65t-295 -21t-295 21t-222 65t-158 106.5t-103 152.5t-55.5 195t-16.5 241zM309 754q0 -178 29 -293 t102 -187q71 -71 197 -103t328 -32q195 0 319 29.5t197 95.5q80 72 111.5 190t31.5 302q0 182 -31.5 299.5t-111.5 187.5q-74 68 -198.5 99.5t-317.5 31.5q-199 0 -326 -34.5t-199 -106.5q-73 -72 -102 -187t-29 -292zM571 764q0 116 17.5 195.5t63 143t129.5 94t210 30.5 q83 0 161.5 -16.5t121.5 -34.5q20 -8 20 -25v-10l-18 -92q-4 -19 -25 -19q-1 0 -4.5 1t-5.5 1q-5 1 -28.5 7.5t-41 10.5t-42.5 9t-50.5 7.5t-48.5 2.5q-143 0 -193.5 -67.5t-50.5 -237.5t50.5 -237.5t193.5 -67.5q30 0 65.5 4.5t60 9.5t52.5 11.5t33 7.5q4 2 10 2 q22 0 25 -19l18 -90v-8q0 -17 -18 -25q-43 -22 -124.5 -36.5t-160.5 -14.5q-126 0 -210 30.5t-129.5 94t-63 143t-17.5 195.5z" />
<glyph unicode="&#xaa;" horiz-adv-x="946" d="M133 1071q0 34 7.5 62t19 47t32 34t38 24t47 16.5t50 11t54.5 8.5l209 33v20q0 30 -6.5 46t-28.5 26q-30 12 -102 12q-70 0 -236 -35q-3 0 -8 -1t-8 -1q-13 0 -15 15l-20 84v4q0 18 24 24q132 39 297 39q184 0 240 -61q35 -41 35 -136v-329q0 -68 -24.5 -95.5 t-100.5 -44.5q-78 -16 -178 -16q-29 0 -47.5 0.5t-51.5 3t-55.5 8.5t-51.5 15.5t-48 25.5t-36.5 37.5t-26.5 53t-9 69.5zM137 651v74q0 12 9.5 20.5t23.5 8.5h586q13 0 22.5 -8.5t9.5 -20.5v-74q0 -13 -9 -21.5t-23 -8.5h-586q-14 0 -23.5 8.5t-9.5 21.5zM311 1077 q0 -32 12 -52.5t36 -29.5t45.5 -11.5t54.5 -2.5q74 0 131 16v189l-184 -29q-25 -5 -35 -7.5t-28 -10.5t-25 -23.5t-7 -38.5z" />
<glyph unicode="&#xab;" horiz-adv-x="1218" d="M98 592q0 13 8 24l353 478q9 12 30 12q9 0 13 -2l143 -86q12 -8 12 -27q0 -6 -4 -14l-297 -385l297 -385q4 -4 4 -12q0 -20 -14 -27l-143 -86q-4 -4 -13 -4q-16 0 -30 14l-351 477q-8 12 -8 23zM567 592q0 12 6 24l353 478q14 14 30 14q5 0 13 -4l133 -86q12 -8 12 -27 q0 -10 -4 -14l-297 -385l297 -385q4 -2 4 -12q0 -19 -12 -27l-133 -86q-8 -4 -13 -4q-20 0 -30 14l-353 477q-6 9 -6 23z" />
<glyph unicode="&#xac;" d="M102 618v142q0 18 12.5 29.5t32.5 11.5h963q21 0 33 -13t12 -26v-434q0 -14 -12.5 -26.5t-32.5 -12.5h-166q-19 0 -33 11.5t-14 29.5v248h-750q-15 0 -30 11t-15 29z" />
<glyph unicode="&#xad;" horiz-adv-x="835" d="M96 492v139q0 18 12.5 29.5t32.5 11.5h555q20 0 32.5 -11.5t12.5 -29.5v-139q0 -18 -14 -28.5t-31 -10.5h-555q-16 0 -30.5 10.5t-14.5 28.5z" />
<glyph unicode="&#xae;" horiz-adv-x="1933" d="M117 754q0 206 39 346.5t135 242.5t262 149.5t414 47.5t414 -47.5t262 -149.5t135 -242.5t39 -346.5q0 -136 -16.5 -241t-55.5 -195t-103 -152.5t-158 -106.5t-222 -65t-295 -21t-295 21t-222 65t-158 106.5t-103 152.5t-55.5 195t-16.5 241zM309 754q0 -178 29 -293 t102 -187q71 -71 197 -103t328 -32q195 0 319 29.5t197 95.5q80 72 111.5 190t31.5 302q0 182 -31.5 299.5t-111.5 187.5q-74 68 -198.5 99.5t-317.5 31.5q-199 0 -326 -34.5t-199 -106.5q-73 -72 -102 -187t-29 -292zM612 346v830q0 11 7.5 17.5t19.5 6.5h405 q148 0 226 -56.5t78 -189.5q0 -96 -45.5 -146t-155.5 -63v-34q88 -7 129 -29q72 -39 80 -172l8 -164q0 -6 -7 -14t-14 -8h-169q-19 0 -23 18l-12 209q-2 32 -16 53t-41 31.5t-52.5 14t-66.5 5.5l-140 7v-316q0 -9 -7 -15.5t-17 -6.5h-164q-10 0 -16.5 7t-6.5 15zM823 791 l158 6q82 3 117 30.5t35 96.5q0 70 -35 98.5t-115 28.5h-160v-260z" />
<glyph unicode="&#xaf;" horiz-adv-x="958" d="M154 1450q0 24 30 31q151 43 295 43q145 0 295 -43q31 -7 31 -31v-8l-21 -119q-5 -23 -30 -23q-8 0 -17 3q-153 36 -258 36q-101 0 -258 -36q-6 -3 -16 -3q-26 0 -31 23l-18 119q-2 2 -2 8z" />
<glyph unicode="&#xb0;" horiz-adv-x="856" d="M96 1233q-2 126 96 216.5t236 90.5q137 0 235.5 -90.5t98.5 -216.5q0 -127 -98.5 -217t-235.5 -90q-138 0 -235 89.5t-97 217.5zM268 1233q0 -63 47 -106.5t113 -43.5t114 43.5t48 106.5q0 60 -48.5 104.5t-115.5 44.5q-64 0 -111 -44.5t-47 -104.5z" />
<glyph unicode="&#xb1;" d="M137 41v139q0 18 12.5 29.5t32.5 11.5h893q20 0 33.5 -12t13.5 -29v-139q0 -19 -15 -30t-32 -11h-893q-15 0 -30 11.5t-15 29.5zM137 684v143q0 39 41 39h324v269q0 41 39 41h172q39 0 39 -41v-269h321q41 0 41 -39v-143q0 -37 -41 -37h-321v-268q0 -39 -39 -39h-174 q-39 0 -39 39v268h-322q-41 0 -41 37z" />
<glyph unicode="&#xb2;" horiz-adv-x="1091" d="M127 1452q0 25 27 37q150 51 358 51q193 0 286 -68.5t93 -220.5q0 -189 -266 -331l-250 -134v-32l489 8q14 0 25.5 -8t11.5 -25v-123q0 -35 -37 -35h-665q-17 0 -29 10t-12 25v189q0 70 57 112q19 15 82 53.5t117 69.5l53 31q11 7 39.5 23t39.5 23t32.5 22t31 25.5 t21 26.5t16 33t4.5 37q0 68 -44 93.5t-134 25.5q-108 0 -285 -47h-6q-11 0 -21.5 8.5t-13.5 18.5l-18 94q-2 2 -2 8z" />
<glyph unicode="&#xb3;" horiz-adv-x="1067" d="M127 1454q0 21 27 31q47 18 149 36.5t209 18.5q169 0 267 -61.5t98 -194.5q0 -94 -56 -144t-147 -63v-33q112 -14 167.5 -65t55.5 -150q0 -62 -22 -110.5t-58 -79t-87 -50.5t-104.5 -28t-115.5 -8q-87 0 -180 12.5t-131 24.5q-25 11 -25 33v6l14 98q3 25 29 25q8 0 12 -2 q106 -25 238 -25q93 0 142.5 27t49.5 96q0 27 -9 47t-21.5 31.5t-35 20t-41 11.5t-48.5 7q-43 8 -103 14q-9 0 -21.5 8t-12.5 23v92q0 6 2 11.5t4.5 8.5t6.5 5t6.5 3t6 2t4.5 1q16 3 49.5 7t49.5 7q75 10 110 32.5t35 80.5q0 62 -42.5 85t-131.5 23q-35 0 -75.5 -5 t-65.5 -10t-71.5 -16t-61.5 -14h-15q-21 0 -28 27l-21 96q-2 2 -2 8z" />
<glyph unicode="&#xb4;" horiz-adv-x="749" d="M141 1343q0 10 11 17l321 227q8 4 14 4q12 0 19 -10l96 -129q6 -3 6 -12q0 -10 -10 -17l-330 -217q-8 -4 -14 -4q-11 0 -18 10l-89 119q-6 3 -6 12z" />
<glyph unicode="&#xb5;" horiz-adv-x="1243" d="M137 -395v1409q0 44 37 49l234 39h10q35 0 35 -35v-838q108 -39 219 -39q81 0 105 24.5t24 100.5v699q0 44 39 49l233 39h10q35 0 35 -35v-807q0 -158 -68 -222.5t-223 -64.5q-209 0 -403 66l29 -131v-250q0 -44 -37 -49l-234 -39h-10q-35 0 -35 35z" />
<glyph unicode="&#xb6;" horiz-adv-x="1517" d="M84 1028q0 119 26.5 205.5t68.5 137.5t107 81t129.5 39.5t149.5 9.5h15l362 -2q35 0 35 -31v-1816q0 -46 -37 -51l-170 -31h-10q-37 0 -37 37v946l-143 -2q-10 -2 -31 -2q-81 0 -145 11t-126 43t-103 84t-66 138.5t-25 202.5zM375 1028q0 -85 16 -136.5t54 -77t79.5 -33 t114.5 -9.5h84v512l-84 -2q-48 -1 -79 -4t-64.5 -11.5t-53 -25.5t-36.5 -44.5t-24 -69.5t-7 -99zM1128 -352v1808q0 45 35 53l172 31h11q15 0 25.5 -9t10.5 -28v-1810q0 -46 -36 -51l-170 -31h-11q-37 0 -37 37z" />
<glyph unicode="&#xb7;" horiz-adv-x="479" d="M88 473v215q0 19 11 30t28 11h227q15 0 26 -11.5t11 -29.5v-215q0 -18 -11 -29.5t-26 -11.5h-227q-17 0 -28 11t-11 30z" />
<glyph unicode="&#xb8;" horiz-adv-x="708" d="M143 -109q0 15 17 23q74 18 186 18q114 0 166.5 -42t52.5 -134q0 -97 -55 -138.5t-166 -41.5q-96 0 -178 21q-16 3 -16 22v4l6 60q3 16 22 16h8q57 -10 109 -10q44 0 65 13.5t21 51.5t-21 53t-65 15q-53 0 -115 -10h-8q-17 0 -20 16l-9 59v4z" />
<glyph unicode="&#xb9;" horiz-adv-x="862" d="M150 1368v98q0 30 30 33l342 41h2q13 0 23 -12t10 -27v-891q0 -18 -10 -28.5t-25 -10.5h-151q-15 0 -25 10.5t-10 28.5v717l-154 10q-18 2 -25 8t-7 23z" />
<glyph unicode="&#xba;" horiz-adv-x="944" d="M141 1200q0 41 2.5 73.5t11.5 69t23.5 64t39.5 53.5t59.5 43t84.5 27t113 10q87 0 149.5 -19.5t98 -49.5t56 -77.5t26.5 -91.5t6 -102q0 -59 -6 -103t-26.5 -91.5t-56 -78t-98 -50t-149.5 -19.5t-149.5 19.5t-97.5 50t-55 78t-26 91.5t-6 103zM152 651v74q0 12 8.5 20.5 t21.5 8.5h588q14 0 23.5 -8.5t9.5 -20.5v-74q0 -13 -9.5 -21.5t-23.5 -8.5h-588q-12 0 -21 8.5t-9 21.5zM319 1200q0 -41 1 -64.5t6 -52.5t15 -44.5t27.5 -30.5t44.5 -21t64 -6q44 0 73.5 10.5t46 26t24.5 47t10 59t2 76.5q0 48 -2 75t-10 58.5t-24.5 47t-46 26t-73.5 10.5 q-45 0 -75 -10.5t-46.5 -26t-24.5 -47t-10 -58t-2 -75.5z" />
<glyph unicode="&#xbb;" horiz-adv-x="1218" d="M102 991q0 17 15 27l133 86q4 4 12 4q17 0 31 -14l352 -478q6 -12 6 -24q0 -14 -6 -23l-352 -477q-11 -14 -31 -14q-4 0 -12 4l-133 86q-13 9 -13 27q0 9 5 12l297 385l-297 385q-7 7 -7 14zM553 991q0 20 14 27l150 86q2 2 12 2q19 0 31 -12l350 -478q8 -11 8 -24 q0 -15 -8 -23l-350 -477q-12 -12 -31 -12q-10 0 -12 2l-150 86q-12 8 -12 27q0 10 4 12l297 385l-299 385q-4 8 -4 14z" />
<glyph unicode="&#xbc;" horiz-adv-x="2228" d="M150 1368v98q0 30 30 33l342 41h2q13 0 23 -12t10 -27v-891q0 -18 -10 -28.5t-25 -10.5h-151q-15 0 -25 10.5t-10 28.5v717l-154 10q-18 2 -25 8t-7 23zM430 102v11l944 1396q3 9 15 9q2 0 5.5 -1t4.5 -1l135 -93q8 -8 8 -16q0 -2 -4 -10l-942 -1399q-6 -6 -16 -6 q-7 0 -11 2l-133 92q-6 2 -6 16zM1165 248v121q0 23 17 49l379 514q5 7 16.5 13.5t19.5 6.5h279q15 0 26 -11t11 -28v-530h106q18 0 29.5 -11t11.5 -26v-102q0 -15 -11.5 -26t-29.5 -11h-102v-168q0 -17 -10 -28t-25 -11h-143q-17 0 -27 11t-10 28v168h-500q-17 0 -27 11.5 t-10 29.5zM1378 383h324v410h-23z" />
<glyph unicode="&#xbd;" horiz-adv-x="2283" d="M150 1368v98q0 30 30 33l342 41h2q13 0 23 -12t10 -27v-891q0 -18 -10 -28.5t-25 -10.5h-151q-15 0 -25 10.5t-10 28.5v717l-154 10q-18 2 -25 8t-7 23zM430 102v11l944 1396q3 9 15 9q2 0 5.5 -1t4.5 -1l135 -93q8 -8 8 -16q0 -2 -4 -10l-942 -1399q-6 -6 -16 -6 q-7 0 -11 2l-133 92q-6 2 -6 16zM1319 872v9q0 27 27 37q54 19 151 35t207 16q193 0 286 -68.5t93 -220.5q0 -188 -266 -332l-250 -133v-33l487 8h2q13 0 25 -8t12 -24v-123q0 -15 -10.5 -25t-28.5 -10h-663q-19 0 -31 10t-12 25v188q0 71 57 113q20 15 83 53t116 69l53 31 q11 7 39.5 23t40 23.5t33 22t31 25.5t21.5 26.5t16.5 33t4.5 37.5q0 68 -44.5 93.5t-133.5 25.5q-108 0 -285 -47h-6q-12 0 -22.5 8.5t-12.5 17.5z" />
<glyph unicode="&#xbe;" horiz-adv-x="2478" d="M127 1454q0 21 27 31q47 18 149 36.5t209 18.5q169 0 267 -61.5t98 -194.5q0 -94 -56 -144t-147 -63v-33q112 -14 167.5 -65t55.5 -150q0 -62 -22 -110.5t-58 -79t-87 -50.5t-104.5 -28t-115.5 -8q-87 0 -180 12.5t-131 24.5q-25 11 -25 33v6l14 98q3 25 29 25q8 0 12 -2 q106 -25 238 -25q93 0 142.5 27t49.5 96q0 27 -9 47t-21.5 31.5t-35 20t-41 11.5t-48.5 7q-43 8 -103 14q-9 0 -21.5 8t-12.5 23v92q0 6 2 11.5t4.5 8.5t6.5 5t6.5 3t6 2t4.5 1q16 3 49.5 7t49.5 7q75 10 110 32.5t35 80.5q0 62 -42.5 85t-131.5 23q-35 0 -75.5 -5 t-65.5 -10t-71.5 -16t-61.5 -14h-15q-21 0 -28 27l-21 96q-2 2 -2 8zM678 102q0 2 1 6t1 5l942 1396q6 9 14 9q2 0 6 -1t5 -1l135 -93q8 -5 8 -16q0 -6 -4 -10l-942 -1399q-3 -6 -15 -6q-8 0 -10 2l-135 92q-6 3 -6 16zM1417 248v121q0 26 15 49l378 514q20 20 37 20h281 q15 0 25 -11t10 -28v-530h106q18 0 29.5 -11t11.5 -26v-102q0 -15 -11.5 -26t-29.5 -11h-100v-168q0 -17 -11 -28t-26 -11h-143q-15 0 -26 11t-11 28v170h-500q-15 0 -25 11t-10 28zM1628 383h326v410h-25z" />
<glyph unicode="&#xbf;" d="M121 346q0 51 14.5 95.5t32.5 74.5t54 63.5t59 50t67 46.5q19 13 59 37.5t59 38.5t43 38t34 52t10 65q0 21 -8 111q-2 2 -2 6q0 31 45 31h217q7 0 11.5 -0.5t8 -2t5.5 -3t3.5 -5t2 -5.5t2 -7t2.5 -8q16 -61 16 -145q0 -51 -11.5 -93t-28 -71t-49.5 -59.5t-59.5 -49 t-74.5 -49.5q-3 -2 -30.5 -20t-35 -24t-30 -23t-31 -28.5t-21 -29.5t-17.5 -36.5t-5 -39.5q0 -153 246 -153q46 0 103.5 7t96 14.5t83.5 17t50 10.5q6 2 15 2q23 0 33 -29l28 -129q0 -3 2 -10.5t2 -11.5q0 -25 -30 -35q-226 -66 -441 -66q-62 0 -118 5.5t-119 19.5t-113 41 t-92 66.5t-65 101t-23 139.5zM520 1231v242q0 19 11 29.5t28 10.5h250q17 0 28 -10.5t11 -29.5v-242q0 -19 -11 -30t-28 -11h-250q-17 0 -28 11t-11 30z" />
<glyph unicode="&#xc0;" horiz-adv-x="1593" d="M31 27q0 1 1 4t1 4l475 1452q3 10 13.5 18t21.5 8h510q27 0 37 -24l471 -1454q0 -2 1 -4.5t1 -3.5q0 -10 -9.5 -18.5t-21.5 -8.5h-285q-11 0 -22.5 10t-16.5 21l-149 506h-529l-149 -510q-3 -11 -14 -19t-23 -8h-281q-12 0 -22 8.5t-10 18.5zM547 1864q0 8 4 12l96 129 q10 10 21 10q6 0 14 -4l322 -227q8 -5 8 -17q0 -4 -4 -12l-88 -119q-10 -10 -19 -10q-6 0 -14 4l-332 217q-8 5 -8 17zM596 778h395l-153 504h-90z" />
<glyph unicode="&#xc1;" horiz-adv-x="1593" d="M31 27q0 1 1 4t1 4l475 1452q3 10 13.5 18t21.5 8h510q27 0 37 -24l471 -1454q0 -2 1 -4.5t1 -3.5q0 -10 -9.5 -18.5t-21.5 -8.5h-285q-11 0 -22.5 10t-16.5 21l-149 506h-529l-149 -510q-3 -11 -14 -19t-23 -8h-281q-12 0 -22 8.5t-10 18.5zM545 1769q0 10 10 17 l322 225q6 6 14 6t18 -10l97 -129q4 -4 4 -12q0 -11 -9 -17l-329 -217q-8 -4 -15 -4q-13 0 -20 10l-88 117q-4 8 -4 14zM596 778h395l-153 504h-90z" />
<glyph unicode="&#xc2;" horiz-adv-x="1593" d="M31 27q0 1 1 4t1 4l475 1452q3 10 13.5 18t21.5 8h510q27 0 37 -24l471 -1454q0 -2 1 -4.5t1 -3.5q0 -10 -9.5 -18.5t-21.5 -8.5h-285q-11 0 -22.5 10t-16.5 21l-149 506h-529l-149 -510q-3 -11 -14 -19t-23 -8h-281q-12 0 -22 8.5t-10 18.5zM426 1774q0 9 10 16l307 213 h72l309 -213q9 -6 9 -16q0 -8 -5 -13l-92 -119q-7 -10 -18 -10q-8 0 -14 6l-224 174l-225 -174q-6 -6 -14 -6q-9 0 -19 10l-92 119q-4 4 -4 13zM596 778h395l-153 504h-90z" />
<glyph unicode="&#xc3;" horiz-adv-x="1593" d="M31 27q0 1 1 4t1 4l475 1452q3 10 13.5 18t21.5 8h510q27 0 37 -24l471 -1454q0 -2 1 -4.5t1 -3.5q0 -10 -9.5 -18.5t-21.5 -8.5h-285q-11 0 -22.5 10t-16.5 21l-149 506h-529l-149 -510q-3 -11 -14 -19t-23 -8h-281q-12 0 -22 8.5t-10 18.5zM406 1806q0 7 14 21 q128 112 229 112h4q56 0 144 -47q2 -1 22 -12t27 -14.5t23 -11t27 -10t22 -3.5h2q23 0 51.5 14.5t46 28t45.5 37.5q12 8 18 8q17 0 23 -12l55 -111q4 -4 4 -16t-14 -23q-129 -112 -227 -112h-4q-59 2 -146 49q-9 4 -28.5 14.5t-32 17t-29.5 12t-31 5.5h-2q-22 0 -50 -14 t-45.5 -27t-47.5 -37q-10 -10 -19 -10q-14 0 -22 14l-55 109q-4 8 -4 18zM596 778h395l-153 504h-90z" />
<glyph unicode="&#xc4;" horiz-adv-x="1593" d="M31 27q0 1 1 4t1 4l475 1452q3 10 13.5 18t21.5 8h510q27 0 37 -24l471 -1454q0 -2 1 -4.5t1 -3.5q0 -10 -9.5 -18.5t-21.5 -8.5h-285q-11 0 -22.5 10t-16.5 21l-149 506h-529l-149 -510q-3 -11 -14 -19t-23 -8h-281q-12 0 -22 8.5t-10 18.5zM383 1747v158q0 12 11.5 21 t29.5 9h235q18 0 30.5 -9t12.5 -21v-158q0 -14 -12.5 -23.5t-30.5 -9.5h-235q-18 0 -29.5 9.5t-11.5 23.5zM596 778h395l-153 504h-90zM866 1747v158q0 12 11.5 21t29.5 9h236q18 0 29.5 -9t11.5 -21v-158q0 -14 -11.5 -23.5t-29.5 -9.5h-236q-18 0 -29.5 9.5t-11.5 23.5z " />
<glyph unicode="&#xc5;" horiz-adv-x="1593" d="M31 27q0 1 1 4t1 4l475 1452q3 10 13.5 18t21.5 8h510q27 0 37 -24l471 -1454q0 -2 1 -4.5t1 -3.5q0 -10 -9.5 -18.5t-21.5 -8.5h-285q-11 0 -22.5 10t-16.5 21l-149 506h-529l-149 -510q-3 -11 -14 -19t-23 -8h-281q-12 0 -22 8.5t-10 18.5zM479 1796q0 130 75.5 186 t231.5 56q155 0 231.5 -56t76.5 -186q0 -129 -76.5 -184.5t-231.5 -55.5q-156 0 -231.5 55t-75.5 185zM596 778h395l-153 504h-90zM686 1796q0 -74 20.5 -105.5t79.5 -31.5t80 32.5t21 106.5t-21 105.5t-80 31.5t-79.5 -32t-20.5 -107z" />
<glyph unicode="&#xc6;" horiz-adv-x="1980" d="M33 23v6l440 1458q3 11 14 18.5t23 7.5h1302q14 0 23.5 -8.5t9.5 -21.5v-187q0 -13 -9.5 -22.5t-23.5 -9.5h-587v-379h557q15 0 24 -8.5t9 -22.5v-186q0 -14 -9 -22.5t-24 -8.5h-557v-391h587q14 0 23.5 -9t9.5 -22v-184q0 -12 -10 -21.5t-23 -9.5h-890q-15 0 -26 10 t-11 23v536h-350l-150 -540q-3 -12 -13.5 -20.5t-23.5 -8.5h-285q-11 0 -20.5 7t-9.5 16zM592 817h293v471h-166z" />
<glyph unicode="&#xc7;" horiz-adv-x="1423" d="M119 760q0 209 36.5 352t120.5 238.5t218 138.5t331 43q250 0 482 -72q39 -13 39 -41q0 -2 -1.5 -6.5t-1.5 -7.5l-30 -156q-6 -24 -33 -24q-12 0 -18 2q-225 59 -375 59q-129 0 -211 -29t-129 -97t-64.5 -161t-17.5 -239q0 -145 17.5 -238.5t64.5 -161.5t129 -97.5 t211 -29.5q140 0 375 54q12 4 18 4q26 0 33 -27l30 -153q0 -2 1.5 -7t1.5 -8q0 -26 -39 -39q-222 -69 -482 -69q-197 0 -331 43.5t-218 139t-120.5 238.5t-36.5 351zM621 -109q0 15 16 23q73 18 186 18q114 0 166.5 -42.5t52.5 -135.5q0 -96 -54.5 -137t-166.5 -41 q-96 0 -178 21q-16 3 -16 22v4l6 60q3 16 22 16h9q58 -10 108 -10q44 0 65 13.5t21 51.5t-21 52t-65 14q-65 0 -115 -8q-1 0 -3.5 -1t-4.5 -1q-17 0 -20 18l-8 59v4z" />
<glyph unicode="&#xc8;" horiz-adv-x="1394" d="M190 33v1448q0 13 10.5 22.5t24.5 9.5h1002q14 0 23.5 -8.5t9.5 -21.5v-187q0 -13 -9.5 -22.5t-23.5 -9.5h-699v-363h668q14 0 23.5 -9t9.5 -22v-188q0 -13 -9.5 -22t-23.5 -9h-668v-405h699q15 0 25 -9t10 -22v-184q0 -13 -10 -22t-25 -9h-1002q-14 0 -24.5 10t-10.5 23 zM492 1866q0 4 4 12l98 129q7 10 18 10q9 0 15 -6l321 -225q10 -7 10 -17q0 -8 -6 -14l-88 -117q-5 -10 -18 -10q-7 0 -15 4l-329 217q-10 7 -10 17z" />
<glyph unicode="&#xc9;" horiz-adv-x="1394" d="M190 33v1448q0 13 10.5 22.5t24.5 9.5h1002q14 0 23.5 -8.5t9.5 -21.5v-187q0 -13 -9.5 -22.5t-23.5 -9.5h-699v-363h668q14 0 23.5 -9t9.5 -22v-188q0 -13 -9.5 -22t-23.5 -9h-668v-405h699q15 0 25 -9t10 -22v-184q0 -13 -10 -22t-25 -9h-1002q-14 0 -24.5 10t-10.5 23 zM514 1767q0 12 8 17l324 227q8 4 12 4q11 0 21 -10l96 -129q4 -4 4 -12q0 -12 -8 -17l-330 -217q-8 -4 -14 -4q-11 0 -21 10l-88 119q-4 4 -4 12z" />
<glyph unicode="&#xca;" horiz-adv-x="1394" d="M190 33v1448q0 13 10.5 22.5t24.5 9.5h1002q14 0 23.5 -8.5t9.5 -21.5v-187q0 -13 -9.5 -22.5t-23.5 -9.5h-699v-363h668q14 0 23.5 -9t9.5 -22v-188q0 -13 -9.5 -22t-23.5 -9h-668v-405h699q15 0 25 -9t10 -22v-184q0 -13 -10 -22t-25 -9h-1002q-14 0 -24.5 10t-10.5 23 zM379 1774q0 11 10 16l307 213h72l309 -213q8 -5 8 -16q0 -5 -4 -13l-92 -119q-7 -10 -18 -10q-9 0 -15 6l-223 174l-225 -174q-6 -6 -14 -6q-12 0 -19 10l-92 119q-4 8 -4 13z" />
<glyph unicode="&#xcb;" horiz-adv-x="1394" d="M190 33v1448q0 13 10.5 22.5t24.5 9.5h1002q14 0 23.5 -8.5t9.5 -21.5v-187q0 -13 -9.5 -22.5t-23.5 -9.5h-699v-363h668q14 0 23.5 -9t9.5 -22v-188q0 -13 -9.5 -22t-23.5 -9h-668v-405h699q15 0 25 -9t10 -22v-184q0 -13 -10 -22t-25 -9h-1002q-14 0 -24.5 10t-10.5 23 zM324 1745v158q0 13 12 22.5t29 9.5h235q19 0 31 -9t12 -23v-158q0 -12 -12.5 -21.5t-30.5 -9.5h-235q-17 0 -29 9.5t-12 21.5zM807 1745v158q0 14 11.5 23t29.5 9h235q19 0 31 -9t12 -23v-158q0 -12 -12.5 -21.5t-30.5 -9.5h-235q-18 0 -29.5 9t-11.5 22z" />
<glyph unicode="&#xcc;" horiz-adv-x="718" d="M115 1866q0 4 4 12l96 129q10 10 21 10q8 0 14 -6l321 -225q9 -6 9 -17q0 -9 -5 -14l-88 -117q-8 -10 -18 -10q-6 0 -14 4l-330 217q-10 5 -10 17zM190 31v1446q0 25 31 28l277 35h4q13 0 19.5 -8.5t6.5 -20.5v-1480q0 -13 -9 -22t-23 -9h-273q-14 0 -23.5 9t-9.5 22z " />
<glyph unicode="&#xcd;" horiz-adv-x="718" d="M106 1769q0 10 11 17l321 225q6 6 15 6q8 0 18 -10l96 -129q4 -4 4 -12q0 -12 -8 -17l-330 -217q-8 -4 -14 -4q-13 0 -20 10l-88 117q-5 10 -5 14zM190 31v1446q0 25 31 28l277 35h4q11 0 18.5 -9t7.5 -20v-1480q0 -13 -9 -22t-23 -9h-273q-14 0 -23.5 9t-9.5 22z" />
<glyph unicode="&#xce;" horiz-adv-x="718" d="M12 1774q0 11 8 16l308 213h73l308 -213q8 -5 8 -16t-4 -13l-90 -119q-10 -10 -21 -10q-9 0 -12 6l-225 174l-224 -174q-6 -6 -14 -6q-11 0 -21 10l-90 119q-4 2 -4 13zM190 31v1446q0 25 31 28l277 35h4q13 0 20.5 -9t7.5 -20v-1480q0 -14 -9.5 -22.5t-24.5 -8.5h-271 q-15 0 -25 9t-10 22z" />
<glyph unicode="&#xcf;" horiz-adv-x="718" d="M-37 1745v158q0 14 12 23t31 9h234q19 0 31 -9t12 -23v-158q0 -12 -12.5 -21.5t-30.5 -9.5h-234q-18 0 -30.5 9.5t-12.5 21.5zM190 31v1446q0 25 31 28l277 35h4q13 0 19.5 -8.5t6.5 -20.5v-1480q0 -13 -9 -22t-23 -9h-273q-14 0 -23.5 9t-9.5 22zM446 1745v158 q0 14 11.5 23t29.5 9h236q19 0 31 -9t12 -23v-158q0 -12 -12.5 -21.5t-30.5 -9.5h-236q-18 0 -29.5 9t-11.5 22z" />
<glyph unicode="&#xd0;" horiz-adv-x="1716" d="M14 690v152q0 14 11.5 22t23.5 8h182v611q0 12 10 21t23 9h639q197 0 329.5 -43t214 -137.5t116 -233t34.5 -341.5q0 -204 -34.5 -343t-116 -234t-214 -138t-329.5 -43h-639q-14 0 -23.5 10t-9.5 23v624h-182q-15 0 -25 10.5t-10 22.5zM571 236h295q112 0 181 21.5 t116.5 80.5t66.5 159t19 261q0 162 -18.5 262t-66 158.5t-116.5 80t-182 21.5h-295v-408h390q12 0 24 -8t12 -22v-152q0 -12 -10.5 -22.5t-25.5 -10.5h-390v-421z" />
<glyph unicode="&#xd1;" horiz-adv-x="1792" d="M190 31v1452q0 12 10.5 21t24.5 9h551q30 0 41 -28l434 -1292h33l-16 1286q0 34 45 34h241q23 0 35.5 -7.5t12.5 -28.5v-1446q0 -13 -10 -22t-25 -9h-537q-13 0 -24.5 9.5t-14.5 23.5l-424 1227h-63l22 -1229q0 -13 -9 -22t-23 -9h-271q-14 0 -23.5 9t-9.5 22zM545 1806 q0 7 14 21q128 112 229 112h5q55 0 143 -47q4 -2 18.5 -10t21.5 -11.5t20.5 -10t22 -10t20 -6.5t20.5 -3q23 0 52 15t44.5 27t48.5 38q8 8 19 8q14 0 20 -12l57 -111q3 -6 3 -16t-13 -23q-135 -112 -229 -112h-4q-59 2 -146 49q-9 4 -28 14.5t-31.5 17t-29.5 12t-31 5.5h-3 q-22 0 -50 -14t-45.5 -27t-47.5 -37q-10 -10 -18 -10q-15 0 -23 14l-55 109q-4 8 -4 18z" />
<glyph unicode="&#xd2;" horiz-adv-x="1701" d="M119 756q0 107 9 194t31 169.5t58 145.5t92.5 116t132 87t178.5 53t230 19q149 0 264 -24.5t195 -73.5t134 -114.5t84.5 -157t43 -190t12.5 -224.5q0 -152 -18 -265t-66.5 -214.5t-129.5 -165.5t-211 -101t-308 -37q-127 0 -230 19t-178.5 53t-132 87t-92.5 116 t-58 145.5t-31 169t-9 193.5zM467 758q0 -101 4.5 -169.5t18.5 -135.5t40 -108t68.5 -73.5t104.5 -46.5t147 -14q73 0 129 11.5t97 32t69.5 56.5t46 76.5t27 101.5t13 122t3.5 147t-3.5 147t-13 122t-27 101.5t-45.5 76.5t-69 56.5t-97.5 32t-129.5 11.5q-85 0 -147 -14 t-104.5 -46.5t-68.5 -73.5t-40 -108t-18.5 -135.5t-4.5 -169.5zM567 1866q0 4 4 12l99 129q7 10 18 10q8 0 14 -6l322 -225q8 -5 8 -17q0 -10 -4 -14l-88 -117q-5 -10 -18 -10q-7 0 -15 4l-329 217q-11 7 -11 17z" />
<glyph unicode="&#xd3;" horiz-adv-x="1701" d="M119 756q0 107 9 194t31 169.5t58 145.5t92.5 116t132 87t178.5 53t230 19q149 0 264 -24.5t195 -73.5t134 -114.5t84.5 -157t43 -190t12.5 -224.5q0 -152 -18 -265t-66.5 -214.5t-129.5 -165.5t-211 -101t-308 -37q-127 0 -230 19t-178.5 53t-132 87t-92.5 116 t-58 145.5t-31 169t-9 193.5zM467 758q0 -101 4.5 -169.5t18.5 -135.5t40 -108t68.5 -73.5t104.5 -46.5t147 -14q73 0 129 11.5t97 32t69.5 56.5t46 76.5t27 101.5t13 122t3.5 147t-3.5 147t-13 122t-27 101.5t-45.5 76.5t-69 56.5t-97.5 32t-129.5 11.5q-85 0 -147 -14 t-104.5 -46.5t-68.5 -73.5t-40 -108t-18.5 -135.5t-4.5 -169.5zM612 1769q0 11 9 17l323 225q6 6 14 6q9 0 19 -10l96 -129q4 -8 4 -12q0 -12 -8 -17l-330 -217q-8 -4 -14 -4q-13 0 -20 10l-89 117q-4 8 -4 14z" />
<glyph unicode="&#xd4;" horiz-adv-x="1701" d="M119 756q0 107 9 194t31 169.5t58 145.5t92.5 116t132 87t178.5 53t230 19q149 0 264 -24.5t195 -73.5t134 -114.5t84.5 -157t43 -190t12.5 -224.5q0 -152 -18 -265t-66.5 -214.5t-129.5 -165.5t-211 -101t-308 -37q-127 0 -230 19t-178.5 53t-132 87t-92.5 116 t-58 145.5t-31 169t-9 193.5zM467 758q0 -101 4.5 -169.5t18.5 -135.5t40 -108t68.5 -73.5t104.5 -46.5t147 -14q73 0 129 11.5t97 32t69.5 56.5t46 76.5t27 101.5t13 122t3.5 147t-3.5 147t-13 122t-27 101.5t-45.5 76.5t-69 56.5t-97.5 32t-129.5 11.5q-85 0 -147 -14 t-104.5 -46.5t-68.5 -73.5t-40 -108t-18.5 -135.5t-4.5 -169.5zM489 1774q0 10 9 16l309 213h72l307 -213q10 -7 10 -16t-4 -13l-92 -119q-10 -10 -19 -10q-8 0 -14 6l-225 174l-224 -174q-6 -6 -14 -6q-11 0 -18 10l-92 119q-5 5 -5 13z" />
<glyph unicode="&#xd5;" horiz-adv-x="1701" d="M119 756q0 107 9 194t31 169.5t58 145.5t92.5 116t132 87t178.5 53t230 19q149 0 264 -24.5t195 -73.5t134 -114.5t84.5 -157t43 -190t12.5 -224.5q0 -152 -18 -265t-66.5 -214.5t-129.5 -165.5t-211 -101t-308 -37q-127 0 -230 19t-178.5 53t-132 87t-92.5 116 t-58 145.5t-31 169t-9 193.5zM451 1806q0 7 14 21q128 112 229 112h4q54 0 146 -47q5 -3 22 -12.5t26 -14t23.5 -11t26.5 -9.5t23 -4h2q22 0 51 15t44 26.5t48 38.5q8 8 18 8q15 0 21 -12l57 -111q4 -8 4 -16q0 -9 -14 -23q-135 -112 -229 -112h-4q-54 2 -146 49 q-5 3 -27 14.5t-33 17t-29 11.5t-32 6h-2q-22 0 -50 -14t-45.5 -27t-47.5 -37q-10 -10 -19 -10q-14 0 -20 14l-57 109q-4 8 -4 18zM467 758q0 -101 4.5 -169.5t18.5 -135.5t40 -108t68.5 -73.5t104.5 -46.5t147 -14q73 0 129 11.5t97 32t69.5 56.5t46 76.5t27 101.5t13 122 t3.5 147t-3.5 147t-13 122t-27 101.5t-45.5 76.5t-69 56.5t-97.5 32t-129.5 11.5q-85 0 -147 -14t-104.5 -46.5t-68.5 -73.5t-40 -108t-18.5 -135.5t-4.5 -169.5z" />
<glyph unicode="&#xd6;" horiz-adv-x="1701" d="M119 756q0 107 9 194t31 169.5t58 145.5t92.5 116t132 87t178.5 53t230 19q149 0 264 -24.5t195 -73.5t134 -114.5t84.5 -157t43 -190t12.5 -224.5q0 -152 -18 -265t-66.5 -214.5t-129.5 -165.5t-211 -101t-308 -37q-127 0 -230 19t-178.5 53t-132 87t-92.5 116 t-58 145.5t-31 169t-9 193.5zM430 1747v158q0 12 12.5 21t30.5 9h236q18 0 29.5 -9t11.5 -21v-158q0 -14 -11.5 -23.5t-29.5 -9.5h-236q-18 0 -30.5 9.5t-12.5 23.5zM467 758q0 -101 4.5 -169.5t18.5 -135.5t40 -108t68.5 -73.5t104.5 -46.5t147 -14q73 0 129 11.5t97 32 t69.5 56.5t46 76.5t27 101.5t13 122t3.5 147t-3.5 147t-13 122t-27 101.5t-45.5 76.5t-69 56.5t-97.5 32t-129.5 11.5q-85 0 -147 -14t-104.5 -46.5t-68.5 -73.5t-40 -108t-18.5 -135.5t-4.5 -169.5zM913 1747v158q0 12 12.5 21t30.5 9h236q17 0 29 -9t12 -21v-158 q0 -14 -12 -23.5t-29 -9.5h-236q-18 0 -30.5 9.5t-12.5 23.5z" />
<glyph unicode="&#xd7;" d="M131 330q0 14 14 28l330 310l-330 307q-14 14 -14 29q0 17 12 26l115 113q12 12 27 12q17 0 28 -14l316 -322l315 322q11 14 29 14q14 0 26 -12l115 -113q12 -9 12 -26q0 -15 -14 -29l-330 -307l330 -310q14 -14 14 -28q0 -18 -12 -27l-115 -113q-12 -12 -26 -12 q-17 0 -29 15l-315 323l-316 -323q-12 -15 -28 -15q-15 0 -27 12l-115 113q-12 9 -12 27z" />
<glyph unicode="&#xd8;" horiz-adv-x="1728" d="M109 10q0 9 10 19l145 170q-131 179 -131 557q0 126 12.5 224.5t43 190t84.5 157t134 114.5t195 73.5t264 24.5q295 0 463 -102l139 164q10 10 21 10q12 0 20 -8l99 -74q12 -12 12 -21q0 -7 -10 -20l-146 -168q135 -181 135 -565q0 -125 -12.5 -223.5t-43.5 -190 t-85 -157t-134 -114.5t-195 -73.5t-263 -24.5q-302 0 -469 107l-139 -164q-10 -10 -18 -10q-9 0 -21 8l-98 76q-12 9 -12 20zM481 758q0 -184 23 -281l639 746q-85 82 -277 82q-73 0 -129 -11.5t-97 -32t-69.5 -56.5t-46 -76.5t-27 -101.5t-13 -122t-3.5 -147zM584 295 q84 -84 280 -84q73 0 129.5 11.5t97.5 32t69 56.5t45.5 76.5t27 101.5t13 122t3.5 147q0 193 -24 284z" />
<glyph unicode="&#xd9;" horiz-adv-x="1654" d="M170 520v955q0 25 31 28l276 37h4q13 0 20 -9t7 -20v-1007q0 -73 14 -124t49 -91t98.5 -59t159.5 -19q173 0 245.5 68.5t72.5 212.5v983q0 24 33 28l274 37h6q12 0 19.5 -9t7.5 -20v-987q0 -282 -161.5 -416.5t-498.5 -134.5q-329 0 -493 129t-164 418zM578 1866 q0 8 4 12l96 129q10 10 18 10q9 0 15 -6l321 -225q10 -7 10 -17q0 -6 -4 -14l-88 -117q-8 -10 -20 -10q-7 0 -15 4l-329 217q-8 5 -8 17z" />
<glyph unicode="&#xda;" horiz-adv-x="1654" d="M170 520v955q0 25 31 28l276 37h4q13 0 20 -9t7 -20v-1007q0 -73 14 -124t49 -91t98.5 -59t159.5 -19q173 0 245.5 68.5t72.5 212.5v983q0 24 33 28l274 37h6q12 0 19.5 -9t7.5 -20v-987q0 -282 -161.5 -416.5t-498.5 -134.5q-329 0 -493 129t-164 418zM578 1769 q0 10 10 17l321 225q6 6 15 6q11 0 18 -10l96 -129q6 -6 6 -12q0 -10 -10 -17l-329 -217q-8 -4 -15 -4q-13 0 -18 10l-90 117q-4 8 -4 14z" />
<glyph unicode="&#xdb;" horiz-adv-x="1654" d="M170 520v955q0 25 31 28l276 37h4q13 0 20 -9t7 -20v-1007q0 -73 14 -124t49 -91t98.5 -59t159.5 -19q173 0 245.5 68.5t72.5 212.5v983q0 24 33 28l274 37h6q12 0 19.5 -9t7.5 -20v-987q0 -282 -161.5 -416.5t-498.5 -134.5q-329 0 -493 129t-164 418zM467 1774 q0 9 10 16l307 213h72l309 -213q9 -6 9 -16q0 -8 -5 -13l-90 -116q-8 -11 -20 -11q-11 0 -15 4l-223 174l-225 -174q-4 -4 -12 -4q-13 0 -21 11l-90 116q-6 6 -6 13z" />
<glyph unicode="&#xdc;" horiz-adv-x="1654" d="M170 520v955q0 25 31 28l276 37h4q13 0 20 -9t7 -20v-1007q0 -73 14 -124t49 -91t98.5 -59t159.5 -19q173 0 245.5 68.5t72.5 212.5v983q0 24 33 28l274 37h6q12 0 19.5 -9t7.5 -20v-987q0 -282 -161.5 -416.5t-498.5 -134.5q-329 0 -493 129t-164 418zM424 1745v158 q0 14 12 23t31 9h235q18 0 29.5 -9t11.5 -23v-158q0 -13 -11.5 -22t-29.5 -9h-235q-18 0 -30.5 9.5t-12.5 21.5zM907 1745v158q0 14 12 23t31 9h234q19 0 31 -9t12 -23v-158q0 -12 -12.5 -21.5t-30.5 -9.5h-234q-18 0 -30.5 9.5t-12.5 21.5z" />
<glyph unicode="&#xdd;" horiz-adv-x="1486" d="M-6 1477q0 12 12 24t19 12h315q20 0 29 -6.5t20 -25.5l371 -641l356 641q10 20 19 26t28 6h303q14 0 21.5 -11t7.5 -23q0 -9 -4 -13l-569 -895v-540q0 -13 -10 -22t-25 -9h-271q-15 0 -24.5 8.5t-9.5 22.5v536l-584 897q-4 8 -4 13zM504 1769q0 12 8 17l324 227q8 4 14 4 q10 0 18 -10l97 -127q4 -8 4 -14q0 -12 -8 -17l-330 -215q-4 -4 -15 -4q-12 0 -20 10l-88 117q-4 8 -4 12z" />
<glyph unicode="&#xde;" horiz-adv-x="1492" d="M190 31v1446q0 25 31 28l277 35h4q13 0 19.5 -8.5t6.5 -20.5v-282h426q263 0 377 -117q109 -112 109 -348q0 -242 -117 -356q-118 -121 -428 -121h-367v-256q0 -13 -9 -22t-23 -9h-273q-14 0 -23.5 9t-9.5 22zM528 502l254 8q102 3 160.5 15t93.5 44q54 54 54 193 q0 121 -52 176q-35 35 -91.5 45t-158.5 10h-260v-491z" />
<glyph unicode="&#xdf;" horiz-adv-x="1284" d="M137 -395v1521q0 219 122.5 316.5t371.5 97.5q77 0 143.5 -11t126.5 -38t102 -67.5t66.5 -103.5t24.5 -144q0 -70 -14.5 -122.5t-46.5 -91.5t-66.5 -65t-89.5 -57q-23 -14 -23 -37t25 -35q104 -50 122 -60q149 -86 187 -233q14 -55 14 -119q0 -198 -116 -290.5 t-320 -92.5q-131 0 -234 39q-8 2 -16 11t-8 22v6l29 137q1 10 11 17.5t21 7.5q4 0 6 -2q11 -2 35.5 -8.5t50 -10.5t54.5 -4q81 0 133.5 44.5t52.5 134.5q0 47 -16 86.5t-42 67.5t-57.5 52.5t-62.5 46.5t-57 44t-42 51.5t-16 62.5q0 39 19.5 70.5t47 55t55.5 51t47.5 73.5 t19.5 107q0 90 -41.5 140t-122.5 50q-99 0 -143 -42.5t-44 -156.5v-1478q0 -23 -7.5 -34.5t-28.5 -12.5l-228 -31h-10q-35 0 -35 35z" />
<glyph unicode="&#xe0;" horiz-adv-x="1198" d="M84 324q0 55 10.5 99t25.5 74.5t42 54.5t50.5 38t60.5 25.5t62.5 16.5t65.5 11l357 57v56q0 46 -9.5 71t-39.5 39q-43 21 -146 21q-46 0 -104.5 -7.5t-94.5 -15t-89.5 -20.5t-55.5 -13q-8 -4 -14 -4q-20 0 -23 19l-30 141q-2 4 -2 10q0 21 24 31q56 22 185 48t272 26 q206 0 311 -60q72 -39 101.5 -104.5t29.5 -159.5v-563q0 -58 -10 -94.5t-37.5 -59.5t-59.5 -34.5t-92 -24.5q-122 -29 -290 -29q-58 0 -103.5 2.5t-99.5 11.5t-94.5 24t-80 41.5t-65.5 62.5t-41.5 89t-15.5 120zM381 1440q0 9 6 12l96 129q7 10 19 10q6 0 14 -4l322 -227 q10 -7 10 -17q0 -8 -4 -12l-90 -119q-7 -10 -19 -10q-6 0 -14 4l-330 217q-10 7 -10 17zM395 328q0 -41 13 -71t32 -46t47.5 -25t52 -11.5t52.5 -2.5q90 0 168 23v317l-219 -35q-29 -4 -46 -8t-38.5 -14t-33 -25t-20 -40.5t-8.5 -61.5z" />
<glyph unicode="&#xe1;" horiz-adv-x="1198" d="M84 324q0 55 10.5 99t25.5 74.5t42 54.5t50.5 38t60.5 25.5t62.5 16.5t65.5 11l357 57v56q0 46 -9.5 71t-39.5 39q-43 21 -146 21q-46 0 -104.5 -7.5t-94.5 -15t-89.5 -20.5t-55.5 -13q-8 -4 -14 -4q-20 0 -23 19l-30 141q-2 4 -2 10q0 21 24 31q56 22 185 48t272 26 q206 0 311 -60q72 -39 101.5 -104.5t29.5 -159.5v-563q0 -58 -10 -94.5t-37.5 -59.5t-59.5 -34.5t-92 -24.5q-122 -29 -290 -29q-58 0 -103.5 2.5t-99.5 11.5t-94.5 24t-80 41.5t-65.5 62.5t-41.5 89t-15.5 120zM391 1343q0 12 8 17l322 227q8 4 14 4q12 0 19 -10l98 -129 q4 -4 4 -12q0 -10 -10 -17l-330 -217q-8 -4 -14 -4q-12 0 -19 10l-88 119q-4 2 -4 12zM395 328q0 -41 13 -71t32 -46t47.5 -25t52 -11.5t52.5 -2.5q90 0 168 23v317l-219 -35q-29 -4 -46 -8t-38.5 -14t-33 -25t-20 -40.5t-8.5 -61.5z" />
<glyph unicode="&#xe2;" horiz-adv-x="1198" d="M84 324q0 55 10.5 99t25.5 74.5t42 54.5t50.5 38t60.5 25.5t62.5 16.5t65.5 11l357 57v56q0 46 -9.5 71t-39.5 39q-43 21 -146 21q-46 0 -104.5 -7.5t-94.5 -15t-89.5 -20.5t-55.5 -13q-8 -4 -14 -4q-20 0 -23 19l-30 141q-2 4 -2 10q0 21 24 31q56 22 185 48t272 26 q206 0 311 -60q72 -39 101.5 -104.5t29.5 -159.5v-563q0 -58 -10 -94.5t-37.5 -59.5t-59.5 -34.5t-92 -24.5q-122 -29 -290 -29q-58 0 -103.5 2.5t-99.5 11.5t-94.5 24t-80 41.5t-65.5 62.5t-41.5 89t-15.5 120zM254 1350q0 11 10 16l307 211h72l309 -211q9 -6 9 -16 q0 -5 -5 -15l-92 -116q-6 -11 -18 -11q-7 0 -15 4l-223 174l-225 -174q-8 -4 -14 -4q-13 0 -19 11l-92 116q-4 8 -4 15zM395 328q0 -41 13 -71t32 -46t47.5 -25t52 -11.5t52.5 -2.5q90 0 168 23v317l-219 -35q-29 -4 -46 -8t-38.5 -14t-33 -25t-20 -40.5t-8.5 -61.5z" />
<glyph unicode="&#xe3;" horiz-adv-x="1198" d="M84 324q0 55 10.5 99t25.5 74.5t42 54.5t50.5 38t60.5 25.5t62.5 16.5t65.5 11l357 57v56q0 46 -9.5 71t-39.5 39q-43 21 -146 21q-46 0 -104.5 -7.5t-94.5 -15t-89.5 -20.5t-55.5 -13q-8 -4 -14 -4q-20 0 -23 19l-30 141q-2 4 -2 10q0 21 24 31q56 22 185 48t272 26 q206 0 311 -60q72 -39 101.5 -104.5t29.5 -159.5v-563q0 -58 -10 -94.5t-37.5 -59.5t-59.5 -34.5t-92 -24.5q-122 -29 -290 -29q-58 0 -103 2.5t-99.5 11t-94.5 23t-80.5 41t-65.5 63t-41 90t-16 120.5zM225 1389q0 7 15 22q136 113 229 113h4q61 -2 145 -49 q9 -4 28.5 -14.5t32 -17t29.5 -12t31 -6.5h2q51 0 144 80q8 8 18 8q15 0 21 -14l57 -108q4 -8 4 -17q0 -8 -14 -22q-136 -113 -230 -113h-4q-57 0 -145 49q-8 4 -28.5 14.5t-32.5 16.5t-29 11.5t-31 6.5h-2q-22 0 -51 -15t-44 -26.5t-48 -38.5q-8 -8 -19 -8q-14 0 -20 15 l-58 108q-4 8 -4 17zM395 328q0 -41 13 -71t32 -46t47.5 -25t52 -11.5t52.5 -2.5q90 0 168 23v317l-219 -35q-29 -4 -46 -8t-38.5 -14t-33 -25t-20 -40.5t-8.5 -61.5z" />
<glyph unicode="&#xe4;" horiz-adv-x="1198" d="M84 324q0 55 10.5 99t25.5 74.5t42 54.5t50.5 38t60.5 25.5t62.5 16.5t65.5 11l357 57v56q0 46 -9.5 71t-39.5 39q-43 21 -146 21q-46 0 -104.5 -7.5t-94.5 -15t-89.5 -20.5t-55.5 -13q-8 -4 -14 -4q-20 0 -23 19l-30 141q-2 4 -2 10q0 21 24 31q56 22 185 48t272 26 q206 0 311 -60q72 -39 101.5 -104.5t29.5 -159.5v-563q0 -58 -10 -94.5t-37.5 -59.5t-59.5 -34.5t-92 -24.5q-122 -29 -290 -29q-58 0 -103 2.5t-99.5 11t-94.5 23t-80.5 41t-65.5 63t-41 90t-16 120.5zM199 1303v157q0 12 12.5 21.5t30.5 9.5h235q18 0 29.5 -9t11.5 -22 v-157q0 -14 -11.5 -23.5t-29.5 -9.5h-235q-18 0 -30.5 9.5t-12.5 23.5zM395 328q0 -41 13 -71t32 -46t47.5 -25t52 -11.5t52.5 -2.5q90 0 168 23v317l-219 -35q-29 -4 -46 -8t-38.5 -14t-33 -25t-20 -40.5t-8.5 -61.5zM682 1303v157q0 12 12.5 21.5t30.5 9.5h236 q17 0 28.5 -9.5t11.5 -21.5v-157q0 -14 -11.5 -23.5t-28.5 -9.5h-236q-18 0 -30.5 9.5t-12.5 23.5z" />
<glyph unicode="&#xe5;" horiz-adv-x="1198" d="M84 324q0 55 10.5 99t25.5 74.5t42 54.5t50.5 38t60.5 25.5t62.5 16.5t65.5 11l357 57v56q0 46 -9.5 71t-39.5 39q-43 21 -146 21q-46 0 -104.5 -7.5t-94.5 -15t-89.5 -20.5t-55.5 -13q-8 -4 -14 -4q-20 0 -23 19l-30 141q-2 4 -2 10q0 21 24 31q56 22 185 48t272 26 q206 0 311 -60q72 -39 101.5 -104.5t29.5 -159.5v-563q0 -58 -10 -94.5t-37.5 -59.5t-59.5 -34.5t-92 -24.5q-122 -29 -290 -29q-58 0 -103.5 2.5t-99.5 11.5t-94.5 24t-80 41.5t-65.5 62.5t-41.5 89t-15.5 120zM340 1401q0 118 69.5 168.5t211.5 50.5q141 0 210.5 -50.5 t69.5 -168.5q0 -119 -69 -170t-211 -51t-211.5 51t-69.5 170zM395 328q0 -41 13 -71t32 -46t47.5 -25t52 -11.5t52.5 -2.5q90 0 168 23v317l-219 -35q-29 -4 -46 -8t-38.5 -14t-33 -25t-20 -40.5t-8.5 -61.5zM528 1399q0 -68 19 -96.5t74 -28.5q53 0 72.5 29.5t19.5 97.5 t-19.5 97.5t-72.5 29.5q-55 0 -74 -29.5t-19 -99.5z" />
<glyph unicode="&#xe6;" horiz-adv-x="1914" d="M84 324q0 72 18 125.5t44.5 85.5t72.5 55t87 34t102 21l380 66q0 79 -30 116q-45 60 -170 60q-157 0 -377 -58h-6q-9 0 -16.5 6.5t-8.5 16.5l-28 131q0 3 -1 8.5t-1 7.5q0 17 24 29q43 20 176 47t260 27q80 0 146 -16.5t120.5 -57.5t79.5 -104q42 83 135 130.5t236 47.5 q147 0 241.5 -36t153.5 -108q99 -123 99 -407v-111q0 -55 -52 -55h-669q0 -113 98 -162q74 -39 209 -39q26 0 51.5 1.5t51 5.5t44.5 7t43.5 9t36 8.5t33.5 8.5t25 7q2 2 8 2q25 0 33 -32l26 -113q2 -6 2 -12q0 -25 -24 -35q-166 -68 -381 -68q-316 0 -420 193 q-105 -193 -381 -193q-62 0 -112.5 5t-107 17.5t-99.5 37.5t-78.5 62.5t-54.5 95.5t-19 133zM389 330q0 -158 195 -158q115 0 162 62t47 194v98l-238 -41q-43 -8 -69 -16t-50.5 -24.5t-35.5 -44.5t-11 -70zM1094 575h415q0 122 -14 179q-15 74 -58.5 106.5t-133.5 32.5 q-89 0 -134.5 -34.5t-60.5 -108.5q-14 -55 -14 -175z" />
<glyph unicode="&#xe7;" horiz-adv-x="1040" d="M84 541q0 117 14.5 203t50 156t94.5 113t147.5 66t209.5 23q108 0 210.5 -16.5t141.5 -36.5q25 -13 25 -35v-10l-27 -127q-6 -25 -30 -25q-2 0 -7 1t-6 1q-129 33 -233 33q-156 0 -214.5 -75.5t-58.5 -268.5q0 -195 58.5 -271.5t214.5 -76.5q108 0 233 32q1 0 6 1t7 1 q25 0 30 -26l27 -125v-10q0 -20 -25 -33q-38 -21 -140 -37t-212 -16q-121 0 -209.5 23t-147.5 66t-94.5 112.5t-50 155.5t-14.5 202zM406 -109q0 15 16 23q73 18 186 18q114 0 166.5 -42t52.5 -134q0 -97 -55 -138.5t-166 -41.5q-94 0 -180 21q-14 3 -14 22v4l6 60 q3 16 20 16h8q63 -10 111 -10q44 0 65 13.5t21 51.5t-21 53t-65 15q-53 0 -115 -10h-8q-17 0 -20 16l-8 59v4z" />
<glyph unicode="&#xe8;" horiz-adv-x="1202" d="M84 532q0 154 25 258t84.5 176t158.5 104t248 32q290 0 408 -139q102 -123 102 -408q0 -12 -1 -47.5t-1 -50.5q0 -54 -49 -54h-662q0 -63 21 -103.5t67 -70.5q74 -45 222 -45q30 0 61.5 3t54 6t53.5 9.5t43.5 9.5t40 10.5t29.5 8.5q2 2 6 2q25 0 33 -32l27 -113 q2 -6 2 -12q0 -24 -23 -35q-166 -68 -381 -68q-152 0 -257.5 29.5t-176 96t-103 172.5t-32.5 261zM352 1440q0 10 4 12l97 129q10 10 18 10q6 0 14 -4l322 -227q10 -7 10 -17q0 -8 -4 -12l-90 -119q-7 -10 -18 -10q-7 0 -15 4l-330 217q-8 5 -8 17zM397 594h402v12 q0 73 -13 146q-18 78 -61 109.5t-121 31.5q-94 0 -137 -31t-57 -102q-9 -46 -13 -166z" />
<glyph unicode="&#xe9;" horiz-adv-x="1202" d="M84 532q0 154 25 258t84.5 176t158.5 104t248 32q290 0 408 -139q102 -123 102 -408q0 -12 -1 -47.5t-1 -50.5q0 -54 -49 -54h-662q0 -63 21 -103.5t67 -70.5q74 -45 222 -45q30 0 61.5 3t54 6t53.5 9.5t43.5 9.5t40 10.5t29.5 8.5q2 2 6 2q25 0 33 -32l27 -113 q2 -6 2 -12q0 -24 -23 -35q-166 -68 -381 -68q-152 0 -257.5 29.5t-176 96t-103 172.5t-32.5 261zM371 1343q0 10 10 17l321 227q8 4 15 4q11 0 18 -10l99 -129q4 -4 4 -12q0 -10 -11 -17l-329 -217q-8 -4 -15 -4q-11 0 -18 10l-88 119q-6 3 -6 12zM397 594h402v12 q0 73 -13 146q-18 78 -61 109.5t-121 31.5q-94 0 -137 -31t-57 -102q-9 -46 -13 -166z" />
<glyph unicode="&#xea;" horiz-adv-x="1202" d="M84 532q0 154 25 258t84.5 176t158.5 104t248 32q290 0 408 -139q102 -123 102 -408q0 -12 -1 -47.5t-1 -50.5q0 -54 -49 -54h-662q0 -63 21 -103.5t67 -70.5q74 -45 222 -45q30 0 61.5 3t54 6t53.5 9.5t43.5 9.5t40 10.5t29.5 8.5q2 2 6 2q25 0 33 -32l27 -113 q2 -6 2 -12q0 -24 -23 -35q-166 -68 -381 -68q-152 0 -257.5 29.5t-176 96t-103 172.5t-32.5 261zM248 1348q0 11 8 16l309 213h72l307 -213q10 -5 10 -16q0 -5 -4 -13l-92 -116q-6 -13 -18 -13q-9 0 -15 6l-225 174l-223 -174q-6 -6 -15 -6q-12 0 -18 13l-92 116 q-4 8 -4 13zM397 594h402v12q0 73 -13 146q-18 78 -61 109.5t-121 31.5q-94 0 -137 -31t-57 -102q-9 -46 -13 -166z" />
<glyph unicode="&#xeb;" horiz-adv-x="1202" d="M84 532q0 154 25 258t84.5 176t158.5 104t248 32q290 0 408 -139q102 -123 102 -408q0 -12 -1 -47.5t-1 -50.5q0 -54 -49 -54h-662q0 -63 21 -103.5t67 -70.5q74 -45 222 -45q30 0 61.5 3t54 6t53.5 9.5t43.5 9.5t40 10.5t29.5 8.5q2 2 6 2q25 0 33 -32l27 -113 q2 -6 2 -12q0 -24 -23 -35q-166 -68 -381 -68q-152 0 -257.5 29.5t-176 96t-103 172.5t-32.5 261zM201 1303v157q0 12 12.5 21.5t30.5 9.5h233q18 0 30.5 -9.5t12.5 -21.5v-157q0 -14 -12.5 -23.5t-30.5 -9.5h-233q-18 0 -30.5 9.5t-12.5 23.5zM397 594h402v12q0 73 -13 146 q-18 78 -61 109.5t-121 31.5q-94 0 -137 -31t-57 -102q-9 -46 -13 -166zM684 1303v157q0 12 12 21.5t29 9.5h236q18 0 30.5 -9.5t12.5 -21.5v-157q0 -14 -12.5 -23.5t-30.5 -9.5h-236q-17 0 -29 9.5t-12 23.5z" />
<glyph unicode="&#xec;" horiz-adv-x="649" d="M78 1440q0 10 4 12l96 129q7 10 19 10q6 0 14 -4l321 -227q11 -7 11 -17q0 -8 -4 -12l-90 -119q-7 -10 -19 -10q-6 0 -14 4l-330 217q-8 5 -8 17zM166 31v989q0 14 9 22.5t24 8.5h247q15 0 24 -8.5t9 -22.5v-989q0 -14 -9 -22.5t-24 -8.5h-247q-15 0 -24 8.5t-9 22.5z " />
<glyph unicode="&#xed;" horiz-adv-x="649" d="M72 1343q0 12 8 17l321 227q8 4 15 4q10 0 20 -10l96 -129q5 -5 5 -12q0 -11 -9 -17l-331 -217q-8 -4 -15 -4q-8 0 -18 10l-88 119q-4 4 -4 12zM166 31v989q0 14 9 22.5t24 8.5h247q15 0 24 -8.5t9 -22.5v-989q0 -14 -9 -22.5t-24 -8.5h-247q-15 0 -24 8.5t-9 22.5z" />
<glyph unicode="&#xee;" horiz-adv-x="649" d="M-35 1348q0 11 8 16l310 213h71l308 -213q10 -7 10 -16q0 -7 -6 -13l-91 -116q-10 -13 -18 -13t-14 6l-226 174l-223 -174q-6 -6 -14 -6q-11 0 -21 13l-90 116q-4 8 -4 13zM164 31v989q0 14 9 22.5t24 8.5h247q15 0 24 -8.5t9 -22.5v-989q0 -14 -9 -22.5t-24 -8.5h-247 q-15 0 -24 8.5t-9 22.5z" />
<glyph unicode="&#xef;" horiz-adv-x="649" d="M-72 1303v157q0 12 12 21.5t29 9.5h236q18 0 30.5 -9.5t12.5 -21.5v-157q0 -14 -12.5 -23.5t-30.5 -9.5h-236q-17 0 -29 9.5t-12 23.5zM166 31v989q0 14 9 22.5t24 8.5h247q15 0 24 -8.5t9 -22.5v-989q0 -14 -9 -22.5t-24 -8.5h-247q-15 0 -24 8.5t-9 22.5zM412 1303v157 q0 13 11.5 22t29.5 9h235q18 0 30.5 -9.5t12.5 -21.5v-157q0 -14 -12.5 -23.5t-30.5 -9.5h-235q-18 0 -29.5 9.5t-11.5 23.5z" />
<glyph unicode="&#xf0;" horiz-adv-x="1208" d="M84 520q0 54 3.5 100t14.5 104t30 104.5t53.5 93t80 77.5t114 50.5t152.5 19.5q161 0 275 -92l10 6q-16 116 -70 208t-124 142l-199 -139q-12 -8 -18 -8q-9 0 -19 10l-84 90q-8 8 -8 17q0 6 12 18l148 96q-89 37 -297 37q-26 1 -39 13t-13 28v139q0 41 44 41q25 2 75 2 q278 0 463 -96l146 107q11 8 18 8q8 0 18 -10l88 -97q7 -11 7 -14q0 -10 -17 -21l-106 -77q56 -49 100.5 -109.5t88.5 -159.5t68.5 -250.5t24.5 -343.5v-4q0 -77 -1.5 -120t-11.5 -120t-28.5 -123.5t-56.5 -104.5t-91.5 -90.5t-137.5 -55.5t-191 -23q-121 0 -213 28 t-150 75.5t-94 118.5t-50.5 149.5t-14.5 175.5zM403 520q0 -70 4 -118t16 -92t34 -69t58.5 -40t88.5 -15q53 0 89 15t58 40t33.5 69.5t15 91.5t3.5 118q0 72 -3.5 118.5t-15 91.5t-33.5 70.5t-58 40.5t-89 15q-52 0 -88.5 -15t-58.5 -40.5t-34 -70t-16 -92t-4 -118.5z" />
<glyph unicode="&#xf1;" horiz-adv-x="1241" d="M137 31v893q0 56 37 82t133 49q192 47 393 47q103 0 175.5 -14t129 -48.5t84 -98t27.5 -157.5v-753q0 -13 -9.5 -22t-23.5 -9h-249q-15 0 -25 9t-10 22v710q0 82 -33.5 116t-106.5 34q-43 0 -94.5 -6.5t-81.5 -13.5l-30 -7v-833q0 -14 -9 -22.5t-24 -8.5h-250 q-15 0 -24 8.5t-9 22.5zM250 1389q0 8 14 22q130 113 230 113h4q63 -2 143 -49q8 -4 28.5 -14.5t33 -17t29.5 -12t30 -6.5h2q54 0 143 80q12 8 19 8q16 0 22 -14l56 -108q4 -8 4 -17q0 -7 -15 -22q-130 -113 -229 -113h-4q-60 0 -144 49q-8 4 -28 14.5t-32 16.5t-29 11.5 t-31 6.5h-2q-22 0 -50.5 -14.5t-45.5 -27t-48 -38.5q-12 -8 -18 -8q-17 0 -23 15l-55 108q-4 8 -4 17z" />
<glyph unicode="&#xf2;" horiz-adv-x="1208" d="M84 537q0 75 4.5 132t18 118.5t36.5 105.5t62 85.5t93 67.5t131.5 41t174.5 15t174 -15t131 -41t93 -67t62.5 -86t37 -106t18 -118.5t4.5 -131.5t-4.5 -131t-18 -118t-37 -105.5t-62.5 -86t-93 -67.5t-131 -41t-174 -15t-174.5 15t-131.5 41t-93 67.5t-62 86t-36.5 105.5 t-18 118t-4.5 131zM352 1440q0 8 4 12l99 129q7 10 18 10q6 0 14 -4l322 -227q8 -5 8 -17q0 -10 -4 -12l-88 -119q-7 -10 -18 -10q-7 0 -15 4l-330 217q-10 7 -10 17zM406 537q0 -60 1 -95.5t5 -78t12 -66t22 -48t35.5 -36.5t51.5 -19.5t71 -7.5q40 0 70 7.5t51.5 19.5 t36 36t22.5 48.5t12.5 66t5.5 78t1 95.5t-1 96t-5.5 79t-13 66t-22.5 48t-35.5 36t-51.5 19.5t-70 7.5q-28 0 -51.5 -3t-42 -10.5t-33 -16.5t-25.5 -24.5t-18.5 -30t-12.5 -39t-8 -45.5t-4.5 -54t-2 -60t-0.5 -69z" />
<glyph unicode="&#xf3;" horiz-adv-x="1208" d="M84 537q0 75 4.5 132t18 118.5t36.5 105.5t62 85.5t93 67.5t131.5 41t174.5 15t174 -15t131 -41t93 -67t62.5 -86t37 -106t18 -118.5t4.5 -131.5t-4.5 -131t-18 -118t-37 -105.5t-62.5 -86t-93 -67.5t-131 -41t-174 -15t-174.5 15t-131.5 41t-93 67.5t-62 86t-36.5 105.5 t-18 118t-4.5 131zM369 1343q0 12 8 17l321 227q8 4 15 4q10 0 20 -10l96 -129q5 -5 5 -12q0 -11 -9 -17l-329 -217q-12 -4 -17 -4q-8 0 -18 10l-88 119q-4 4 -4 12zM406 537q0 -60 1 -95.5t5 -78t12 -66t22 -48t35.5 -36.5t51.5 -19.5t71 -7.5q40 0 70 7.5t51.5 19.5t36 36 t22.5 48.5t12.5 66t5.5 78t1 95.5t-1 96t-5.5 79t-13 66t-22.5 48t-35.5 36t-51.5 19.5t-70 7.5q-28 0 -51.5 -3t-42 -10.5t-33 -16.5t-25.5 -24.5t-18.5 -30t-12.5 -39t-8 -45.5t-4.5 -54t-2 -60t-0.5 -69z" />
<glyph unicode="&#xf4;" horiz-adv-x="1208" d="M84 537q0 75 4.5 132t18 118.5t36.5 105.5t62 85.5t93 67.5t131.5 41t174.5 15t174 -15t131 -41t93 -67t62.5 -86t37 -106t18 -118.5t4.5 -131.5t-4.5 -131t-18 -118t-37 -105.5t-62.5 -86t-93 -67.5t-131 -41t-174 -15t-174.5 15t-131.5 41t-93 67.5t-62 86t-36.5 105.5 t-18 118t-4.5 131zM252 1348q0 11 8 16l309 213h72l307 -213q10 -7 10 -16q0 -5 -4 -13l-92 -116q-10 -13 -18 -13q-9 0 -15 6l-225 174l-223 -174q-6 -6 -14 -6q-13 0 -19 13l-92 116q-4 8 -4 13zM406 537q0 -60 1 -95.5t5 -78t12 -66t22 -48t35.5 -36.5t51.5 -19.5 t71 -7.5q40 0 70 7.5t51.5 19.5t36 36t22.5 48.5t12.5 66t5.5 78t1 95.5t-1 96t-5.5 79t-13 66t-22.5 48t-35.5 36t-51.5 19.5t-70 7.5q-28 0 -51.5 -3t-42 -10.5t-33 -16.5t-25.5 -24.5t-18.5 -30t-12.5 -39t-8 -45.5t-4.5 -54t-2 -60t-0.5 -69z" />
<glyph unicode="&#xf5;" horiz-adv-x="1208" d="M84 537q0 75 4.5 132t18 118.5t36.5 105.5t62 85.5t93 67.5t131.5 41t174.5 15t174 -15t131 -41t93 -67t62.5 -86t37 -106t18 -118.5t4.5 -131.5t-4.5 -131t-18 -118t-37 -105.5t-62.5 -86t-93 -67.5t-131 -41t-174 -15t-174.5 15t-131.5 41t-93 67.5t-62 86t-36.5 105.5 t-18 118t-4.5 131zM225 1389q0 7 15 22q130 113 229 113h4q63 -2 143 -49q8 -4 28.5 -14.5t33 -17t29.5 -12t30 -6.5h2q55 0 144 80q12 8 18 8q17 0 23 -14l55 -108q4 -8 4 -17q0 -8 -14 -22q-130 -113 -230 -113h-4q-59 0 -143 49q-8 4 -28.5 14.5t-32.5 16.5t-29 11.5 t-31 6.5h-2q-22 0 -51 -15t-44 -26.5t-48 -38.5q-12 -8 -19 -8q-16 0 -22 15l-56 108q-4 8 -4 17zM406 537q0 -60 1 -95.5t5 -78t12 -66t22 -48t35.5 -36.5t51.5 -19.5t71 -7.5q40 0 70 7.5t51.5 19.5t36 36t22.5 48.5t12.5 66t5.5 78t1 95.5t-1 96t-5.5 79t-13 66t-22.5 48 t-35.5 36t-51.5 19.5t-70 7.5q-28 0 -51.5 -3t-42 -10.5t-33 -16.5t-25.5 -24.5t-18.5 -30t-12.5 -39t-8 -45.5t-4.5 -54t-2 -60t-0.5 -69z" />
<glyph unicode="&#xf6;" horiz-adv-x="1208" d="M84 537q0 75 4.5 132t18 118.5t36.5 105.5t62 85.5t93 67.5t131.5 41t174.5 15t174 -15t131 -41t93 -67t62.5 -86t37 -106t18 -118.5t4.5 -131.5t-4.5 -131t-18 -118t-37 -105.5t-62.5 -86t-93 -67.5t-131 -41t-174 -15t-174.5 15t-131.5 41t-93 67.5t-62 86t-36.5 105.5 t-18 118t-4.5 131zM199 1303v157q0 13 11.5 22t29.5 9h235q18 0 30.5 -9.5t12.5 -21.5v-157q0 -14 -12.5 -23.5t-30.5 -9.5h-235q-18 0 -29.5 9.5t-11.5 23.5zM406 537q0 -60 1 -95.5t5 -78t12 -66t22 -48t35.5 -36.5t51.5 -19.5t71 -7.5q40 0 70 7.5t51.5 19.5t36 36 t22.5 48.5t12.5 66t5.5 78t1 95.5t-1 96t-5.5 79t-13 66t-22.5 48t-35.5 36t-51.5 19.5t-70 7.5q-28 0 -51.5 -3t-42 -10.5t-33 -16.5t-25.5 -24.5t-18.5 -30t-12.5 -39t-8 -45.5t-4.5 -54t-2 -60t-0.5 -69zM682 1303v157q0 13 11.5 22t29.5 9h235q18 0 29.5 -9t11.5 -22 v-157q0 -14 -11.5 -23.5t-29.5 -9.5h-235q-18 0 -29.5 9.5t-11.5 23.5z" />
<glyph unicode="&#xf7;" d="M92 590v149q0 14 12.5 24.5t32.5 10.5h983q20 0 32.5 -10.5t12.5 -24.5v-149q0 -15 -12.5 -26t-32.5 -11h-983q-20 0 -32.5 11t-12.5 26zM496 182v219q0 14 12.5 23.5t30.5 9.5h180q18 0 29.5 -9.5t11.5 -23.5v-219q0 -12 -11.5 -21t-29.5 -9h-180q-18 0 -30.5 9 t-12.5 21zM496 928v219q0 12 12.5 21.5t30.5 9.5h180q18 0 29.5 -9t11.5 -22v-219q0 -14 -11.5 -23.5t-29.5 -9.5h-180q-18 0 -30.5 9.5t-12.5 23.5z" />
<glyph unicode="&#xf8;" horiz-adv-x="1304" d="M74 -31q0 11 10 21l125 145q-57 71 -78.5 169t-21.5 233q0 74 4.5 131.5t19 118.5t38.5 106t65 86t97.5 67t137 41t182.5 15q200 0 326 -66l125 146q12 12 22 12q11 0 21 -10l72 -58q12 -10 12 -20q0 -13 -8 -21l-127 -145q58 -71 79 -167.5t21 -235.5q0 -74 -4.5 -131 t-19 -118t-38.5 -105.5t-65 -86t-97.5 -67.5t-137 -41t-181.5 -15q-201 0 -327 66l-125 -145q-13 -13 -23 -13t-20 10l-72 58q-12 10 -12 20zM432 537q0 -92 6 -131l373 436q-50 47 -160 47q-39 0 -69.5 -4.5t-53.5 -17t-39 -25.5t-26.5 -38.5t-16.5 -48t-9 -62t-4 -71.5 t-1 -85zM487 238q49 -52 164 -52q45 0 79 7.5t58 19.5t40 36.5t25 48t14 65.5t6 78t1 96q0 88 -8 143z" />
<glyph unicode="&#xf9;" horiz-adv-x="1230" d="M127 360v654q0 44 37 49l233 39h11q34 0 34 -37v-717q0 -86 37.5 -126t136.5 -40q104 0 139.5 42.5t35.5 123.5v666q0 41 36 49l234 37q4 2 10 2q35 0 35 -37v-703q0 -204 -117.5 -296.5t-372.5 -92.5q-124 0 -212 19t-151.5 63.5t-94.5 120t-31 184.5zM379 1440 q0 9 6 12l96 129q7 10 19 10q6 0 14 -4l322 -227q10 -7 10 -17q0 -9 -6 -12l-88 -119q-7 -10 -19 -10q-6 0 -14 4l-330 217q-10 7 -10 17z" />
<glyph unicode="&#xfa;" horiz-adv-x="1230" d="M127 360v654q0 44 37 49l233 39h11q34 0 34 -37v-717q0 -86 37.5 -126t136.5 -40q104 0 139.5 42.5t35.5 123.5v666q0 41 36 49l234 37q4 2 10 2q35 0 35 -37v-703q0 -204 -117.5 -296.5t-372.5 -92.5q-124 0 -212 19t-151.5 63.5t-94.5 120t-31 184.5zM381 1343 q0 10 10 17l322 227q8 4 14 4q11 0 18 -10l97 -129q6 -3 6 -12q0 -10 -10 -17l-330 -217q-8 -4 -14 -4q-12 0 -19 10l-90 119q-4 4 -4 12z" />
<glyph unicode="&#xfb;" horiz-adv-x="1230" d="M127 360v654q0 44 37 49l233 39h11q34 0 34 -37v-717q0 -86 37.5 -126t136.5 -40q104 0 139.5 42.5t35.5 123.5v666q0 41 36 49l234 37q4 2 10 2q35 0 35 -37v-703q0 -204 -117.5 -296.5t-372.5 -92.5q-124 0 -212 19t-151.5 63.5t-94.5 120t-31 184.5zM256 1348 q0 9 10 16l307 213h74l307 -213q9 -6 9 -16q0 -8 -5 -13l-90 -116q-10 -13 -20 -13q-8 0 -14 6l-224 174l-225 -174q-3 -6 -12 -6q-11 0 -21 13l-90 116q-6 6 -6 13z" />
<glyph unicode="&#xfc;" horiz-adv-x="1230" d="M127 360v654q0 44 37 49l233 39h11q34 0 34 -37v-717q0 -86 37.5 -126t136.5 -40q104 0 139.5 42.5t35.5 123.5v666q0 41 36 49l234 37q4 2 10 2q35 0 35 -37v-703q0 -204 -117.5 -296.5t-372.5 -92.5q-124 0 -212 19t-151.5 63.5t-94.5 120t-31 184.5zM213 1303v157 q0 13 11.5 22t29.5 9h235q18 0 30.5 -9.5t12.5 -21.5v-157q0 -14 -12.5 -23.5t-30.5 -9.5h-235q-18 0 -29.5 9.5t-11.5 23.5zM696 1303v157q0 13 11.5 22t29.5 9h236q18 0 30.5 -9.5t12.5 -21.5v-157q0 -14 -12.5 -23.5t-30.5 -9.5h-236q-18 0 -29.5 9.5t-11.5 23.5z" />
<glyph unicode="&#xfd;" horiz-adv-x="1136" d="M41 1038q0 16 10 26.5t27 10.5h237q22 0 32.5 -7t14.5 -28l195 -843h55l174 841q4 21 15.5 29t32.5 8h241q17 0 28 -11t11 -26q0 -2 -1 -6.5t-1 -7.5l-324 -1141q-23 -79 -48.5 -130.5t-69.5 -96t-112.5 -65.5t-166.5 -21q-108 0 -209 14q-30 6 -30 37v2l2 127q1 13 3 20 t10.5 14t22.5 7h3q15 0 55.5 -2t64.5 -2q80 0 121 27.5t58 91.5l26 94h-153q-30 0 -37 33l-285 991q-2 6 -2 14zM340 1343q0 12 8 17l322 227q8 4 14 4q11 0 21 -10l96 -129q4 -8 4 -12q0 -12 -8 -17l-332 -217q-8 -4 -14 -4q-9 0 -19 10l-88 119q-4 4 -4 12z" />
<glyph unicode="&#xfe;" horiz-adv-x="1232" d="M137 -393v1845q0 44 37 49l234 39h10q35 0 35 -35v-321l-23 -127q144 45 277 45q237 0 340.5 -130.5t103.5 -434.5q0 -98 -8.5 -173t-36.5 -152t-75 -126.5t-128.5 -81t-193.5 -31.5q-157 0 -279 37l23 -129v-223q0 -44 -37 -49l-234 -39h-10q-35 0 -35 37zM453 203 q71 -17 159 -17q66 0 104.5 13t65.5 52.5t37 109t10 186.5q0 150 -17 221t-55 95t-120 24q-36 0 -82 -6.5t-74 -13.5l-28 -7v-657z" />
<glyph unicode="&#xff;" horiz-adv-x="1136" d="M41 1038q0 16 10 26.5t27 10.5h237q22 0 32.5 -7t14.5 -28l195 -843h55l174 841q4 21 15.5 29t32.5 8h241q17 0 28 -11t11 -26q0 -2 -1 -6.5t-1 -7.5l-324 -1141q-23 -79 -48.5 -130.5t-69.5 -96t-112.5 -65.5t-166.5 -21q-108 0 -209 14q-30 6 -30 37v2l2 127q1 13 3 20 t10.5 14t22.5 7h3q15 0 55.5 -2t64.5 -2q80 0 121 27.5t58 91.5l26 94h-153q-30 0 -37 33l-285 991q-2 6 -2 14zM176 1303v157q0 12 12.5 21.5t30.5 9.5h236q17 0 29 -9.5t12 -21.5v-157q0 -14 -12 -23.5t-29 -9.5h-236q-18 0 -30.5 9.5t-12.5 23.5zM659 1303v157 q0 12 12.5 21.5t30.5 9.5h234q18 0 30.5 -9.5t12.5 -21.5v-157q0 -14 -12.5 -23.5t-30.5 -9.5h-234q-18 0 -30.5 9.5t-12.5 23.5z" />
<glyph unicode="&#x2000;" horiz-adv-x="1019" />
<glyph unicode="&#x2001;" horiz-adv-x="2038" />
<glyph unicode="&#x2002;" horiz-adv-x="1019" />
<glyph unicode="&#x2003;" horiz-adv-x="2038" />
<glyph unicode="&#x2004;" horiz-adv-x="679" />
<glyph unicode="&#x2005;" horiz-adv-x="509" />
<glyph unicode="&#x2006;" horiz-adv-x="339" />
<glyph unicode="&#x2007;" horiz-adv-x="339" />
<glyph unicode="&#x2008;" horiz-adv-x="254" />
<glyph unicode="&#x2009;" horiz-adv-x="407" />
<glyph unicode="&#x200a;" horiz-adv-x="113" />
<glyph unicode="&#x2010;" horiz-adv-x="835" d="M96 492v139q0 18 12.5 29.5t32.5 11.5h555q20 0 32.5 -11.5t12.5 -29.5v-139q0 -18 -14 -28.5t-31 -10.5h-555q-16 0 -30.5 10.5t-14.5 28.5z" />
<glyph unicode="&#x2011;" horiz-adv-x="835" d="M96 492v139q0 18 12.5 29.5t32.5 11.5h555q20 0 32.5 -11.5t12.5 -29.5v-139q0 -18 -14 -28.5t-31 -10.5h-555q-16 0 -30.5 10.5t-14.5 28.5z" />
<glyph unicode="&#x2012;" horiz-adv-x="835" d="M96 492v139q0 18 12.5 29.5t32.5 11.5h555q20 0 32.5 -11.5t12.5 -29.5v-139q0 -18 -14 -28.5t-31 -10.5h-555q-16 0 -30.5 10.5t-14.5 28.5z" />
<glyph unicode="&#x2013;" horiz-adv-x="1214" d="M96 492v139q0 18 20 29.5t51 11.5h882q31 0 51 -11.5t20 -29.5v-139q0 -18 -22 -28.5t-49 -10.5h-882q-25 0 -48 10.5t-23 28.5z" />
<glyph unicode="&#x2014;" horiz-adv-x="2238" d="M96 492v139q0 18 39.5 29.5t103.5 11.5h1762q64 0 103.5 -11.5t39.5 -29.5v-139q0 -18 -44.5 -28.5t-98.5 -10.5h-1762q-51 0 -97 10.5t-46 28.5z" />
<glyph unicode="&#x202f;" horiz-adv-x="407" />
<glyph unicode="&#x205f;" horiz-adv-x="509" />
<glyph unicode="&#x25fc;" horiz-adv-x="1075" d="M0 0v1075h1075v-1075h-1075z" />
<glyph unicode="&#xfb01;" horiz-adv-x="1374" d="M25 881v163q0 13 9 22t23 9h158v76q0 97 19.5 165.5t55 112t94.5 68.5t128 34t166 9q185 0 360 -51q23 -5 23 -29v-6l-25 -145q-3 -27 -22 -27h-8q-10 1 -49 7.5t-67 10.5t-74 7.5t-89 3.5q-122 0 -158.5 -32t-36.5 -142v-62h633q18 0 29.5 -11.5t11.5 -25.5v-1007 q0 -14 -8.5 -22.5t-23.5 -8.5h-248q-15 0 -25 9t-10 22v819h-359v-819q0 -14 -8.5 -22.5t-23.5 -8.5h-250q-14 0 -24.5 9t-10.5 22v819h-158q-14 0 -23 9t-9 22z" />
<glyph unicode="&#xfb02;" horiz-adv-x="1456" d="M25 881v163q0 13 9 22t23 9h158v139q0 164 86 245t264 81q139 0 275 -35q22 -5 22 -30v-7l-22 -139q-3 -26 -23 -26h-8q-95 14 -145 14q-73 0 -102.5 -24t-29.5 -87v-131h359v383q0 21 7 30.5t28 12.5l237 39h11q34 0 34 -35v-1206q0 -92 80 -92q20 0 68 6q2 0 4.5 1 t3.5 1q21 0 25 -25l26 -141v-6q0 -13 -7.5 -22t-12.5 -9q-67 -30 -197 -30q-152 0 -229.5 78t-77.5 210v580h-359v-819q0 -14 -8.5 -22.5t-23.5 -8.5h-250q-14 0 -24.5 9t-10.5 22v819h-158q-14 0 -23 9t-9 22z" />
</font>
</defs>
</svg>
