<svg xmlns="http://www.w3.org/2000/svg" width="240" height="150" viewBox="0 0 240 150"><defs><style>.a{fill:none;}.b{fill:#373737;}.c{fill:#fb6c42;}</style></defs><g transform="translate(-809 -1425)"><rect class="a" width="240" height="150" transform="translate(809 1425)"/><g transform="translate(883.504 1438)"><path class="b" d="M83.4,92.779c0-2.47,3.793-4.237,5.129-4.665a2.422,2.422,0,0,0,.076-4.605c-1.35-.468-5.205-2.334-5.205-4.69V45.012c0-2.306,3.755-4.062,5.118-4.515a2.422,2.422,0,0,0,.037-4.625c-1.089-.348-5.155-2.135-5.155-4.528V9.256c0-2.327,3.822-4.094,5.155-4.528A2.422,2.422,0,0,0,87.819,0H40.176A2.42,2.42,0,0,0,37.76,2.566a.133.133,0,0,0,0,.019,2.423,2.423,0,0,0,2.514,2.274c.067,0,.133-.008.2-.016h39.6a7.348,7.348,0,0,0-1.518,4.413V31.344a7.342,7.342,0,0,0,1.521,4.413H10.659a7.342,7.342,0,0,0,1.521-4.413V14.013H71.158a2.421,2.421,0,0,0,0-4.843H12.178a7.359,7.359,0,0,0-1.515-4.327h7.4a2.475,2.475,0,0,0,.394.016,2.422,2.422,0,0,0,2.324-2.445c0-.03,0-.062,0-.089A2.421,2.421,0,0,0,18.361,0H2.919a2.422,2.422,0,0,0-.737,4.728c1.09.347,5.155,2.134,5.155,4.527V31.343c0,2.327-3.822,4.094-5.155,4.528A2.422,2.422,0,0,0,2.219,40.5c1.136.373,5.118,2.147,5.118,4.516V78.819c0,2.355-3.854,4.221-5.2,4.688a2.421,2.421,0,0,0,.089,4.612c1.079.322,5.11,2.005,5.11,4.368V114.72c0,2.326-3.822,4.094-5.155,4.528a2.421,2.421,0,0,0,.737,4.727h84.9a2.421,2.421,0,0,0,.736-4.727c-1.089-.348-5.155-2.135-5.155-4.528ZM80.076,40.6a7.341,7.341,0,0,0-1.519,4.412V78.819a7.43,7.43,0,0,0,1.609,4.558H60.609A26.291,26.291,0,0,0,68.953,73.6a2.421,2.421,0,1,0-4.341-2.147A21.388,21.388,0,1,1,64.5,52.286a2.421,2.421,0,1,0,4.314-2.2A26.277,26.277,0,0,0,60.647,40.6ZM19.2,61.988A26.219,26.219,0,0,0,30.257,83.377H10.571a7.428,7.428,0,0,0,1.609-4.558V45.012A7.341,7.341,0,0,0,10.661,40.6h19.6A26.222,26.222,0,0,0,19.2,61.988Zm-8.534,57.145a7.342,7.342,0,0,0,1.517-4.412V92.487a7.211,7.211,0,0,0-1.426-4.267H80.1a7.626,7.626,0,0,0-1.543,4.559v17.184H20.891a2.421,2.421,0,0,0,0,4.843H78.559a7.354,7.354,0,0,0,1.516,4.327Zm0,0" transform="translate(0)"/><path class="c" d="M111.265,5.206A2.422,2.422,0,0,0,112.8.914a2.422,2.422,0,0,0-3.9,2.4,2.447,2.447,0,0,0,2.363,1.892Zm0,0" transform="translate(-82.113 -0.281)"/><path class="c" d="M275.886,246.2a2.42,2.42,0,1,0,2.894.826A2.443,2.443,0,0,0,275.886,246.2Zm0,0" transform="translate(-207.574 -186.451)"/><path class="c" d="M158.141,192.124a2.42,2.42,0,0,0-2.236-1.492h-.029a2.42,2.42,0,0,0-2.228,1.546l-6.424,16.567a9.558,9.558,0,1,0,17.738-.212Zm1.916,22.7a4.716,4.716,0,0,1-8.32-4.324l4.245-10.946,4.507,10.841a4.648,4.648,0,0,1-.432,4.429Zm0,0" transform="translate(-110.707 -144.473)"/></g></g></svg>