<svg xmlns="http://www.w3.org/2000/svg" width="202.175" height="126.359" viewBox="0 0 202.175 126.359"><defs><style>.a{fill:none;}.b{fill:#fff;}.c{fill:#fff;}</style></defs><g transform="translate(-317 -1656)"><rect class="a" width="202.175" height="126.359" transform="translate(317 1656)"/><g transform="translate(366.701 1667.793)"><g transform="translate(67.14 32.813)"><g transform="translate(0)"><rect class="b" width="4.291" height="33.374" transform="translate(0 3.034) rotate(-45)"/></g></g><g transform="translate(0 0)"><g transform="translate(0)"><path class="c" d="M90.112,68.663h0v6.2c-.309,1.281-2.377,8.818-8.582,8.818a2.146,2.146,0,0,0-2.146,2.146V98.7H38.621V83.682c0-6.788-4.209-8.582-6.436-8.582H19.312a4.04,4.04,0,0,1-4.291-4.291v-8a2.145,2.145,0,0,0-.723-1.6,12.382,12.382,0,0,0-7.859-3.27l-.027,0a1.884,1.884,0,0,1-2.074-1.672l10.416-18.88a2.173,2.173,0,0,0,.266-1.038V32.19A27.923,27.923,0,0,1,42.912,4.3h2.146V.008H42.912A32.219,32.219,0,0,0,10.73,32.19V35.8L.268,54.754A2.16,2.16,0,0,0,0,55.79q-.005.183,0,.366a6.256,6.256,0,0,0,6.436,6.071,7.682,7.682,0,0,1,4.291,1.607v6.975q-.007.244,0,.488a8.342,8.342,0,0,0,8.582,8.094H32.124c.367.024,2.205.341,2.205,4.291v17.164a2.146,2.146,0,0,0,2.146,2.146H81.53a2.146,2.146,0,0,0,2.146-2.146V87.783c6.707-1.268,9.9-8.344,10.684-12.255A2.136,2.136,0,0,0,94.4,75.1V68.663H90.112Z" transform="translate(0 -0.008)"/></g></g><g transform="translate(34.33 0)"><path class="b" d="M205.008.008A34.328,34.328,0,0,0,170.68,34.336a2.165,2.165,0,0,0,2.171,2.146h32.156a2.146,2.146,0,0,0,2.146-2.146V4.374a30.037,30.037,0,0,1-2.146,60v4.291a34.328,34.328,0,1,0,0-68.655ZM202.862,32.19H175.046A30.086,30.086,0,0,1,202.862,4.374V32.19Z" transform="translate(-170.68 -0.008)"/></g><g transform="translate(47.203 43.538)"><path class="b" d="M250.327,216.466l-5.808,5.808H234.68v4.291h10.727a2.146,2.146,0,0,0,1.517-.629l6.436-6.436Z" transform="translate(-234.68 -216.466)"/></g><g transform="translate(36.477 49.346)"><rect class="c" width="4.291" height="4.291"/></g><g transform="translate(27.894 49.346)"><rect class="c" width="4.291" height="4.291"/></g><g transform="translate(27.894 57.928)"><rect class="c" width="23.6" height="4.291"/></g></g></g></svg>