<svg xmlns="http://www.w3.org/2000/svg" width="240" height="150" viewBox="0 0 240 150"><defs><style>.a{fill:none;}.b{fill:#373737;}.c{fill:#fb6c42;}</style></defs><g transform="translate(-689 -129)"><rect class="a" width="240" height="150" transform="translate(689 129)"/><g transform="translate(398 99)"><g transform="translate(381 35)"><g transform="translate(10.781 36.668)"><path class="b" d="M227.983,224.924,231.8,231.6a.955.955,0,0,0,.6.452l3.558.889,12.2,12.2L249.5,243.8l-12.4-12.395a.946.946,0,0,0-.442-.251l-3.42-.858L230,224.606l2.784-2.784,5.688,3.251.859,3.419a.957.957,0,0,0,.25.444l12.4,12.4,1.348-1.348-12.2-12.2-.889-3.557a.956.956,0,0,0-.452-.6l-6.674-3.813a.953.953,0,0,0-1.144.153l-3.814,3.814A.954.954,0,0,0,227.983,224.924Z" transform="translate(-227.857 -219.678)"/><path class="b" d="M284.857,255.7l-20.976,20.977-1.348-1.348,20.976-20.977Z" transform="translate(-245.091 -236.909)"/><path class="b" d="M247.684,299.757a.955.955,0,0,0-.818-.462h-5.72a.954.954,0,0,0-.817.462l-2.86,4.767a.955.955,0,0,0,0,.983l2.86,4.767a.954.954,0,0,0,.817.463h5.72a.955.955,0,0,0,.818-.463l2.86-4.767a.954.954,0,0,0,0-.983Zm-1.357,9.072h-4.642l-2.288-3.813,2.288-3.813h4.642l2.288,3.813Z" transform="translate(-232.565 -259.248)"/><path class="c" d="M273.619,242.555a11.4,11.4,0,0,0,11.091-14.207.953.953,0,0,0-1.6-.444l-5.935,5.931-4.709-1.57-1.571-4.708,5.935-5.936a.954.954,0,0,0-.447-1.6,11.406,11.406,0,0,0-14.206,11.091,11.186,11.186,0,0,0,.231,2.235l-20.881,20.88a11.188,11.188,0,0,0-2.234-.231,11.441,11.441,0,1,0,11.442,11.441,11.265,11.265,0,0,0-.231-2.234l5-5,2.186,2.187a.954.954,0,0,0,1.348,0l.477-.477a1.069,1.069,0,0,1,1.513,1.511l0,0-.476.476a.954.954,0,0,0,0,1.348l11.374,11.374a7.7,7.7,0,1,0,10.932-10.833c-.016-.018-.033-.033-.049-.05l-11.374-11.373a.954.954,0,0,0-1.349,0l-.476.476a1.069,1.069,0,0,1-1.514-1.51l0,0,.477-.477a.952.952,0,0,0,0-1.348l-2.186-2.186,5-5A11.213,11.213,0,0,0,273.619,242.555Zm3.747,32.418a5.819,5.819,0,0,1-2.028-.37l7.446-7.447a5.781,5.781,0,0,1-5.418,7.817Zm-10.8-24.781a2.976,2.976,0,0,0,4.2,4.19l10.7,10.71c.116.116.225.239.33.364l-8.152,8.152c-.125-.1-.247-.213-.364-.329l-10.708-10.71a2.976,2.976,0,0,0-4.2-4.19l-1.525-1.525,8.2-8.183Zm3.851-9.589-21.629,21.625a.953.953,0,0,0-.252.906A9.6,9.6,0,1,1,241.6,256.2a.962.962,0,0,0,.906-.252l21.624-21.625a.954.954,0,0,0,.251-.906,9.486,9.486,0,0,1,9.78-11.823l-5.029,5.031a.952.952,0,0,0-.231.975l1.907,5.721a.956.956,0,0,0,.6.6l5.721,1.907a.953.953,0,0,0,.975-.229l5.029-5.03c.012.182.018.362.018.541a9.486,9.486,0,0,1-11.839,9.239.952.952,0,0,0-.906.25h.005Z" transform="translate(-227.853 -219.671)"/><path class="b" d="M315.123,305.593l-1.348,1.348-9.534-9.534,1.348-1.348Z" transform="translate(-265.822 -257.639)"/></g><path class="b" d="M275,146.765H216.625a10.223,10.223,0,0,0-10.208,10.209V275.6a10.223,10.223,0,0,0,10.208,10.211H275a10.223,10.223,0,0,0,10.211-10.208V156.974A10.223,10.223,0,0,0,275,146.765Zm-63.952,18.54h69.525v88.066H211.052Zm5.574-13.905H275a5.581,5.581,0,0,1,5.576,5.574v3.7H211.052v-3.7A5.58,5.58,0,0,1,216.625,151.4ZM275,281.181H216.625a5.581,5.581,0,0,1-5.574-5.574v-17.6h69.525v17.6A5.581,5.581,0,0,1,275,281.181Z" transform="translate(-206.417 -146.765)"/><path class="b" d="M275.588,372.549a9.27,9.27,0,1,0,9.27,9.27A9.28,9.28,0,0,0,275.588,372.549Zm0,13.9a4.635,4.635,0,1,1,4.635-4.635A4.639,4.639,0,0,1,275.588,386.454Z" transform="translate(-236.191 -258.991)"/></g></g></g></svg>