<svg xmlns="http://www.w3.org/2000/svg" id="prefix__back-up" width="80" height="80" viewBox="0 0 80 80">
    <defs>
        <linearGradient id="prefix__linear-gradient" x1=".5" x2=".5" y2="1" gradientUnits="objectBoundingBox">
            <stop offset="0" stop-color="#423f90"/>
            <stop offset="1" stop-color="#9d71ad"/>
        </linearGradient>
        <style>
            .prefix__cls-1{fill:url(#prefix__linear-gradient)}
        </style>
    </defs>
    <g id="prefix__Group_14" data-name="Group 14">
        <g id="prefix__Group_13" data-name="Group 13">
            <path id="prefix__Path_34" d="M60 40a1.82 1.82 0 0 0-1.283 3.106l3.634 3.634a1.819 1.819 0 0 0 1.286.533 1.76 1.76 0 0 0 .254-.018 1.823 1.823 0 0 0 1.337-.92l.833-1.505a16.347 16.347 0 1 1-12.6.188A1.818 1.818 0 0 0 52 41.687a19.981 19.981 0 0 0-5.425 3.559 3.575 3.575 0 0 0-2.936-1.609 3.619 3.619 0 0 0-1.257 7.018 19.87 19.87 0 0 0-1.6 3.891H7.273a3.641 3.641 0 0 1-3.636-3.636v-7.274A3.641 3.641 0 0 1 7.273 40h50.909a7.28 7.28 0 0 0 7.273-7.273v-7.273a7.2 7.2 0 0 0-1.7-4.622l.028-.023L49.027 3.244A9.076 9.076 0 0 0 42.065 0H23.39a9.076 9.076 0 0 0-6.962 3.244L1.676 20.81l.028.023A7.2 7.2 0 0 0 0 25.454v7.273a7.227 7.227 0 0 0 2.513 5.455A7.227 7.227 0 0 0 0 43.636v7.273a7.28 7.28 0 0 0 7.273 7.273h32.861c-.056.6-.134 1.2-.134 1.818a20 20 0 1 0 20-20zM19.212 5.584a5.446 5.446 0 0 1 4.178-1.948h18.675a5.446 5.446 0 0 1 4.178 1.948l10.579 12.6H8.632zM3.636 25.454a3.641 3.641 0 0 1 3.636-3.636h50.91a3.641 3.641 0 0 1 3.636 3.636v7.273a3.641 3.641 0 0 1-3.636 3.636H7.273a3.641 3.641 0 0 1-3.636-3.636v-7.273z" class="prefix__cls-1" data-name="Path 34"/>
            <path id="prefix__Path_35" d="M343.288 277.333a1.953 1.953 0 0 0-1.955 1.955v11.727a1.954 1.954 0 0 0 .573 1.382l5.864 5.864a1.954 1.954 0 1 0 2.764-2.764l-5.291-5.291v-10.918a1.954 1.954 0 0 0-1.955-1.955z" class="prefix__cls-1" data-name="Path 35" transform="translate(-283.711 -231.242)"/>
            <path id="prefix__Path_36" d="M44.621 157.151a1.953 1.953 0 0 0 1.955-1.955v-3.909a1.955 1.955 0 0 0-3.909 0v3.913a1.954 1.954 0 0 0 1.954 1.951z" class="prefix__cls-1" data-name="Path 36" transform="translate(-34.848 -124.069)"/>
            <path id="prefix__Path_37" d="M87.288 157.151a1.953 1.953 0 0 0 1.955-1.955v-3.909a1.955 1.955 0 0 0-3.909 0v3.913a1.953 1.953 0 0 0 1.954 1.951z" class="prefix__cls-1" data-name="Path 37" transform="translate(-70.84 -124.069)"/>
            <path id="prefix__Path_38" d="M129.955 157.151a1.953 1.953 0 0 0 1.955-1.955v-3.909a1.955 1.955 0 0 0-3.909 0v3.913a1.953 1.953 0 0 0 1.954 1.951z" class="prefix__cls-1" data-name="Path 38" transform="translate(-106.26 -124.069)"/>
            <circle id="prefix__Ellipse_2" cx="3.909" cy="3.909" r="3.909" class="prefix__cls-1" data-name="Ellipse 2" transform="translate(50.527 25.264)"/>
            <circle id="prefix__Ellipse_3" cx="3.909" cy="3.909" r="3.909" class="prefix__cls-1" data-name="Ellipse 3" transform="translate(39.7 25.264)"/>
            <path id="prefix__Path_39" d="M42.667 257.955v3.909a1.955 1.955 0 1 0 3.909 0v-3.909a1.955 1.955 0 1 0-3.909 0z" class="prefix__cls-1" data-name="Path 39" transform="translate(-34.849 -212.691)"/>
            <path id="prefix__Path_40" d="M85.333 257.955v3.909a1.955 1.955 0 0 0 3.909 0v-3.909a1.955 1.955 0 0 0-3.909 0z" class="prefix__cls-1" data-name="Path 40" transform="translate(-70.84 -212.691)"/>
            <path id="prefix__Path_41" d="M128 257.955v3.909a1.955 1.955 0 0 0 3.909 0v-3.909a1.955 1.955 0 0 0-3.909 0z" class="prefix__cls-1" data-name="Path 41" transform="translate(-106.26 -212.691)"/>
        </g>
    </g>
</svg>
