<svg xmlns="http://www.w3.org/2000/svg" width="240" height="150" viewBox="0 0 240 150"><defs><style>.a{fill:none;}.b{fill:#fb6c42;}.c{fill:#373737;}</style></defs><g transform="translate(-809 -407)"><rect class="a" width="240" height="150" transform="translate(809 407)"/><g transform="translate(-77 384)"><g transform="translate(942 37)"><g transform="translate(0)"><path class="b" d="M173.443,148.255a30.418,30.418,0,1,0,30.417,30.418A30.452,30.452,0,0,0,173.443,148.255Zm0,55.849a25.431,25.431,0,1,1,25.432-25.431A25.461,25.461,0,0,1,173.443,204.1Z" transform="translate(-133.052 -138.282)"/><path class="b" d="M195.754,178.982c2.8,0,5.086,1.967,5.086,4.385a2.493,2.493,0,1,0,4.987,0,9.541,9.541,0,0,0-7.579-9.08v-1.132a2.493,2.493,0,0,0-4.987,0v1.132a9.541,9.541,0,0,0-7.579,9.08c0,5.168,4.519,9.373,10.072,9.373,2.8,0,5.086,1.967,5.086,4.385s-2.281,4.386-5.086,4.386-5.086-1.967-5.086-4.386a2.493,2.493,0,0,0-4.986,0,9.541,9.541,0,0,0,7.579,9.081v.922a2.493,2.493,0,1,0,4.987,0v-.922a9.541,9.541,0,0,0,7.579-9.081c0-5.168-4.519-9.372-10.073-9.372-2.8,0-5.086-1.967-5.086-4.386S192.95,178.982,195.754,178.982Z" transform="translate(-155.374 -150.008)"/><path class="c" d="M247.838,174.677,228.369,155.23a8.512,8.512,0,0,0-3.307-2.052v-7.866a5.038,5.038,0,1,1,10.076,0V153.3a2.493,2.493,0,0,0,4.987,0v-7.993a10.025,10.025,0,0,0-20.05,0v7.711a8.517,8.517,0,0,0-3.833,2.214l-13.369,13.384c.006-.3.011-.6.011-.9a40.391,40.391,0,1,0-59.814,35.4H131.577a9.469,9.469,0,0,0-6.4,16.455,9.458,9.458,0,0,0,0,13.962,9.469,9.469,0,0,0,6.4,16.455H193.41a9.474,9.474,0,0,0,5.175-1.54A8.524,8.524,0,0,0,203.48,250h37.7a8.583,8.583,0,0,0,8.574-8.574V179.309a6.505,6.505,0,0,0-1.92-4.632ZM194.906,203.25a9.521,9.521,0,0,0-1.5-.121H181.963a40.323,40.323,0,0,0,12.944-11.282ZM127.09,167.725a35.4,35.4,0,1,1,70.218,6.468l-.486.487a6.5,6.5,0,0,0-1.915,4.627v2.672a35.407,35.407,0,0,1-67.817-14.254Zm0,58.841a4.494,4.494,0,0,1,4.488-4.488h18.2a2.493,2.493,0,1,0,0-4.986h-18.2a4.488,4.488,0,0,1,0-8.976H193.41a4.485,4.485,0,0,1,1.5.258v8.459a4.47,4.47,0,0,1-1.5.258H172.218a2.493,2.493,0,0,0,0,4.986H193.41a4.486,4.486,0,0,1,1.5.258V230.8a4.469,4.469,0,0,1-1.5.258H131.577A4.493,4.493,0,0,1,127.09,226.566Zm4.488,18.45a4.488,4.488,0,0,1,0-8.976H193.41a4.485,4.485,0,0,1,1.5.258v5.13a8.523,8.523,0,0,0,.572,3.075,4.479,4.479,0,0,1-2.068.512Zm113.194-3.587a3.591,3.591,0,0,1-3.588,3.587h-37.7a3.591,3.591,0,0,1-3.588-3.587V179.307a1.55,1.55,0,0,1,.457-1.1h0l1-1,.013-.013,18.408-18.429a3.607,3.607,0,0,1,.305-.27v9.546a2.493,2.493,0,0,0,4.987,0v-9.061l19.252,19.23a1.552,1.552,0,0,1,.458,1.1v62.119Z" transform="translate(-122.103 -127.334)"/><path class="c" d="M200.96,315.626a2.494,2.494,0,1,0,1.762.73A2.513,2.513,0,0,0,200.96,315.626Z" transform="translate(-162.064 -225.869)"/><g transform="translate(85.338 60.843)"><g transform="translate(0 0)"><path class="b" d="M327.792,254.969a1.16,1.16,0,0,0-1.159,1.16v4.235A15.044,15.044,0,0,0,301.125,271.2a1.159,1.159,0,0,0,2.319,0,12.754,12.754,0,0,1,22.161-8.61l-5.136,1.713a1.161,1.161,0,0,0,.733,2.2l6.956-2.319a1.161,1.161,0,0,0,.793-1.1v-6.956A1.16,1.16,0,0,0,327.792,254.969Z" transform="translate(-301.125 -254.969)"/></g></g><g transform="translate(87.656 75.916)"><path class="b" d="M332.656,286.589a1.16,1.16,0,0,0-1.16,1.16,12.753,12.753,0,0,1-22.161,8.608l5.136-1.713a1.16,1.16,0,1,0-.733-2.2l-6.956,2.319a1.16,1.16,0,0,0-.794,1.1v6.957a1.16,1.16,0,0,0,2.319,0v-4.236a15.044,15.044,0,0,0,25.507-10.837A1.159,1.159,0,0,0,332.656,286.589Z" transform="translate(-305.988 -286.589)"/></g></g></g></g></g></svg>