<svg xmlns="http://www.w3.org/2000/svg" width="80" height="80" viewBox="0 0 80 80">
    <defs>
        <linearGradient id="prefix__linear-gradient" x1=".5" x2=".5" y2="1" gradientUnits="objectBoundingBox">
            <stop offset="0" stop-color="#423f90"/>
            <stop offset="1" stop-color="#9d71ad"/>
        </linearGradient>
        <style>
            .prefix__cls-1{fill:url(#prefix__linear-gradient)}
        </style>
    </defs>
    <g id="prefix__bill" transform="translate(0 -.39)">
        <path id="prefix__Path_72" d="M351.227 44.606c.035 0 .071.005.107.005a1.319 1.319 0 0 0 .182-.014 2.945 2.945 0 0 1 2.886 2.941 1.318 1.318 0 1 0 2.636 0 5.588 5.588 0 0 0-4.386-5.45v-1.266a1.318 1.318 0 0 0-2.636 0v1.326a5.58 5.58 0 0 0 1.441 10.97 2.944 2.944 0 1 1-2.944 2.945 1.318 1.318 0 0 0-2.636 0 5.589 5.589 0 0 0 4.138 5.39V62.9a1.318 1.318 0 0 0 2.636 0v-1.386a5.58 5.58 0 0 0-1.194-11.03 2.943 2.943 0 0 1-.23-5.877zm0 0" class="prefix__cls-1" data-name="Path 72" transform="translate(-289.99 -32.67)"/>
        <path id="prefix__Path_73" d="M61.6.39c-7.974 0-14.778 5.465-17.327 12.782H12.1a1.394 1.394 0 0 0-1.3 1.423l-.3 47.757H1.33A1.3 1.3 0 0 0 0 63.65v6.06a10.474 10.474 0 0 0 9.721 10.65v.03h40.017v-.04c.324.013.458.04.663.04h.028A10.447 10.447 0 0 0 60.593 69.7V39.056c.324.019.667.029 1 .029C71.743 39.084 80 30.4 80 19.737S71.746.39 61.6.39zM10.214 77.667h-.008A7.821 7.821 0 0 1 2.592 69.7v-4.625h37.587v4.6a10.956 10.956 0 0 0 3 7.567c.136.143.305.253.447.423zM58 69.7a7.788 7.788 0 0 1-7.574 7.971H50.4a7.843 7.843 0 0 1-7.631-7.989V63.65a1.291 1.291 0 0 0-.351-.931 1.167 1.167 0 0 0-.887-.366H13.092l.3-46.457h30.16a21.452 21.452 0 0 0-.355 3.781 20.024 20.024 0 0 0 1.564 7.791H32.519a1.363 1.363 0 0 0 0 2.723h13.649A18.307 18.307 0 0 0 58 38.716zm3.6-33.334c-8.731 0-15.81-7.434-15.809-16.606S52.868 3.151 61.6 3.151s15.809 7.435 15.809 16.606S70.327 36.352 61.6 36.362zm0 0" class="prefix__cls-1" data-name="Path 73"/>
        <path id="prefix__Path_74" d="M127.98 212.746a4.087 4.087 0 1 0 4.219 4.084 4.157 4.157 0 0 0-4.219-4.084zm0 5.533a1.454 1.454 0 1 1 1.583-1.449 1.521 1.521 0 0 1-1.583 1.449zm0 0" class="prefix__cls-1" data-name="Path 74" transform="translate(-103.75 -176.083)"/>
        <path id="prefix__Path_75" d="M192.719 230.822a1.318 1.318 0 0 0 1.318 1.318h17.571a1.318 1.318 0 0 0 0-2.636h-17.571a1.318 1.318 0 0 0-1.318 1.318zm0 0" class="prefix__cls-1" data-name="Path 75" transform="translate(-161.67 -190.081)"/>
        <path id="prefix__Path_76" d="M127.98 143.2a4.087 4.087 0 1 0 4.219 4.085 4.158 4.158 0 0 0-4.219-4.085zm0 5.534a1.455 1.455 0 1 1 1.583-1.449 1.521 1.521 0 0 1-1.583 1.449zm0 0" class="prefix__cls-1" data-name="Path 76" transform="translate(-103.75 -118.419)"/>
        <path id="prefix__Path_77" d="M127.98 282.281a4.087 4.087 0 1 0 4.219 4.084 4.157 4.157 0 0 0-4.219-4.084zm0 5.533a1.454 1.454 0 1 1 1.583-1.449 1.521 1.521 0 0 1-1.583 1.449zm0 0" class="prefix__cls-1" data-name="Path 77" transform="translate(-103.75 -233.74)"/>
        <path id="prefix__Path_78" d="M211.608 299.5h-17.571a1.318 1.318 0 1 0 0 2.636h17.571a1.318 1.318 0 1 0 0-2.636zm0 0" class="prefix__cls-1" data-name="Path 78" transform="translate(-161.67 -248.156)"/>
    </g>
</svg>
