<svg xmlns="http://www.w3.org/2000/svg" width="240" height="150" viewBox="0 0 240 150"><defs><style>.a{fill:none;}.b{fill:#373737;}.c{fill:#fb6c42;}</style></defs><g transform="translate(-513 -984)"><g transform="translate(-132)"><rect class="a" width="240" height="150" transform="translate(645 984)"/><g transform="translate(274.073 -462.927)"><g transform="translate(436.927 1467.927)"><path class="b" d="M268.22,203.1H163.309a1.809,1.809,0,0,1-1.809-1.809V163.309a1.81,1.81,0,0,1,1.809-1.809H268.22a1.81,1.81,0,0,1,1.809,1.809v37.984A1.809,1.809,0,0,1,268.22,203.1Zm-103.1-3.618H266.411V165.118H165.118Z" transform="translate(-161.5 -161.5)"/><path class="b" d="M198.5,268.723H181.32a4.074,4.074,0,0,1-4.07-4.07V247.47a4.074,4.074,0,0,1,4.07-4.07h17.185a4.074,4.074,0,0,1,4.069,4.07v17.185A4.075,4.075,0,0,1,198.5,268.723ZM181.32,247.018a.452.452,0,0,0-.452.452v17.185a.451.451,0,0,0,.452.45h17.185a.451.451,0,0,0,.452-.452V247.47a.452.452,0,0,0-.452-.452Z" transform="translate(-168.206 -196.371)"/><path class="b" d="M252.053,268.723H234.87a4.075,4.075,0,0,1-4.07-4.07V247.47a4.074,4.074,0,0,1,4.07-4.07h17.185a4.074,4.074,0,0,1,4.07,4.07v17.185A4.076,4.076,0,0,1,252.053,268.723ZM234.87,247.018a.452.452,0,0,0-.452.452v17.185a.451.451,0,0,0,.452.452h17.185a.451.451,0,0,0,.452-.452V247.47a.452.452,0,0,0-.452-.452Z" transform="translate(-191.006 -196.371)"/><path class="c" d="M198.5,317.315H181.32a4.074,4.074,0,0,1-4.07-4.07V297.87a4.074,4.074,0,0,1,4.07-4.07h17.185a4.074,4.074,0,0,1,4.069,4.07v15.376A4.075,4.075,0,0,1,198.5,317.315Zm-17.184-19.9a.452.452,0,0,0-.452.452v15.376a.451.451,0,0,0,.452.45h17.185a.451.451,0,0,0,.452-.452V297.87a.452.452,0,0,0-.452-.452Z" transform="translate(-168.206 -217.83)"/><path class="b" d="M252.053,317.315H234.87a4.075,4.075,0,0,1-4.07-4.07V297.87a4.075,4.075,0,0,1,4.07-4.07h17.185a4.075,4.075,0,0,1,4.07,4.07v15.376A4.076,4.076,0,0,1,252.053,317.315Zm-17.183-19.9a.452.452,0,0,0-.452.452v15.376a.451.451,0,0,0,.452.452h17.185a.451.451,0,0,0,.452-.452V297.87a.451.451,0,0,0-.452-.452Z" transform="translate(-191.006 -217.83)"/><path class="c" d="M309.221,295.856h-20.8a4.074,4.074,0,0,1-4.069-4.07V247.47a4.074,4.074,0,0,1,4.069-4.07h20.8a4.075,4.075,0,0,1,4.07,4.07v44.316A4.074,4.074,0,0,1,309.221,295.856Zm-20.8-48.838a.453.453,0,0,0-.452.452v44.316a.452.452,0,0,0,.452.452h20.8a.451.451,0,0,0,.452-.452V247.47a.452.452,0,0,0-.452-.452Z" transform="translate(-213.807 -196.371)"/><path class="b" d="M309.612,284.817H298.759a1.809,1.809,0,0,1,0-3.618h10.853a1.809,1.809,0,0,1,0,3.618Z" transform="translate(-219.171 -212.465)"/><path class="c" d="M198.894,265.918h-7.236a1.809,1.809,0,0,1,0-3.618h7.236a1.809,1.809,0,0,1,0,3.618Z" transform="translate(-173.571 -204.418)"/><path class="b" d="M198.894,316.318h-7.236a1.809,1.809,0,0,1,0-3.618h7.236a1.809,1.809,0,0,1,0,3.618Z" transform="translate(-173.571 -225.877)"/><path class="b" d="M309.612,297.418H298.759a1.809,1.809,0,0,1,0-3.618h10.853a1.809,1.809,0,0,1,0,3.618Z" transform="translate(-219.171 -217.83)"/><path class="c" d="M197.958,266.852a1.809,1.809,0,0,1-1.808-1.808v-7.235a1.809,1.809,0,0,1,3.618,0v7.235A1.809,1.809,0,0,1,197.958,266.852Z" transform="translate(-176.253 -201.736)"/><path class="b" d="M245.208,266.852a1.808,1.808,0,0,1-1.278-3.087l7.235-7.235a1.809,1.809,0,1,1,2.558,2.558l-7.235,7.235A1.8,1.8,0,0,1,245.208,266.852Z" transform="translate(-196.371 -201.735)"/><path class="b" d="M252.444,266.852a1.8,1.8,0,0,1-1.279-.529l-7.235-7.235a1.809,1.809,0,1,1,2.558-2.558l7.235,7.235a1.808,1.808,0,0,1-1.279,3.087Z" transform="translate(-196.371 -201.735)"/><path class="b" d="M248.357,315.441a1.809,1.809,0,0,1-1.5-2.813l3.617-5.428a1.809,1.809,0,0,1,3.011,2.008l-3.618,5.428A1.8,1.8,0,0,1,248.357,315.441Z" transform="translate(-197.712 -223.193)"/><path class="b" d="M268.22,298.194H163.309a1.81,1.81,0,0,1-1.809-1.809V229.459a1.81,1.81,0,0,1,1.809-1.809H268.22a1.81,1.81,0,0,1,1.809,1.809v66.926A1.81,1.81,0,0,1,268.22,298.194Zm-103.1-3.618H266.411V231.268H165.118Z" transform="translate(-161.5 -189.665)"/><path class="b" d="M252.911,189.912H242.058a1.809,1.809,0,0,1-1.809-1.808v-9.044a1.809,1.809,0,0,1,1.809-1.808h10.853a1.809,1.809,0,1,1,0,3.617h-9.045v5.426h9.045a1.809,1.809,0,1,1,0,3.617Z" transform="translate(-195.029 -168.206)"/><path class="b" d="M252.911,205.662H242.058a1.81,1.81,0,0,1-1.809-1.808v-9.045A1.81,1.81,0,0,1,242.058,193h10.853a1.809,1.809,0,1,1,0,3.617h-9.045v5.427h9.045a1.809,1.809,0,1,1,0,3.618Z" transform="translate(-195.029 -174.912)"/><path class="b" d="M311.359,198.956a1.81,1.81,0,0,1-1.809-1.808V179.059a1.809,1.809,0,0,1,3.618,0v18.089A1.81,1.81,0,0,1,311.359,198.956Z" transform="translate(-224.536 -168.206)"/><path class="b" d="M316.785,191.721h-5.426a1.81,1.81,0,0,1-1.809-1.809V179.059a1.809,1.809,0,0,1,1.809-1.808h5.426a7.235,7.235,0,1,1,0,14.47Zm-3.617-3.618h3.617a3.618,3.618,0,1,0,0-7.235h-3.617Z" transform="translate(-224.536 -168.206)"/><path class="b" d="M326.237,207a1.807,1.807,0,0,1-1.449-.724l-5.426-7.235a1.808,1.808,0,1,1,2.894-2.17l5.426,7.235A1.809,1.809,0,0,1,326.237,207Z" transform="translate(-228.559 -176.253)"/><path class="b" d="M276.709,198.956a1.81,1.81,0,0,1-1.81-1.808V179.059a1.809,1.809,0,0,1,3.618,0v18.089A1.809,1.809,0,0,1,276.709,198.956Z" transform="translate(-209.782 -168.206)"/><path class="b" d="M282.135,191.721h-5.426a1.81,1.81,0,0,1-1.81-1.809V179.059a1.81,1.81,0,0,1,1.81-1.808h5.426a7.235,7.235,0,1,1,0,14.47Zm-3.618-3.618h3.618a3.618,3.618,0,0,0,0-7.235h-3.618Z" transform="translate(-209.782 -168.206)"/><path class="b" d="M291.586,207a1.807,1.807,0,0,1-1.449-.724l-5.426-7.235a1.808,1.808,0,1,1,2.893-2.17l5.428,7.235A1.809,1.809,0,0,1,291.586,207Z" transform="translate(-213.806 -176.253)"/></g></g></g></g></svg>