<svg xmlns="http://www.w3.org/2000/svg" id="prefix__central" width="80" height="80" viewBox="0 0 80 80">
    <defs>
        <linearGradient id="prefix__linear-gradient" x1=".5" x2=".5" y2="1" gradientUnits="objectBoundingBox">
            <stop offset="0" stop-color="#423f90"/>
            <stop offset="1" stop-color="#9d71ad"/>
        </linearGradient>
        <style>
            .prefix__cls-1{fill:url(#prefix__linear-gradient)}
        </style>
    </defs>
    <path id="prefix__Path_95" d="M196.156 177.8a1.479 1.479 0 0 0 1.48-1.479v-10.68a1.479 1.479 0 0 0-.96-1.385l-17.536-6.576a1.48 1.48 0 0 0-1.039 0l-17.536 6.576a1.479 1.479 0 0 0-.96 1.385v4.75a1.479 1.479 0 0 0 2.959 0v-2.615l14.577 5.466V192.8l-14.577-5.466v-10.022a1.479 1.479 0 0 0-2.959 0v11.046a1.479 1.479 0 0 0 .96 1.385l17.536 6.576a1.448 1.448 0 0 0 1.038 0l17.536-6.576a1.479 1.479 0 0 0 .96-1.385v-5.136a1.479 1.479 0 0 0-2.959 0v4.111L180.1 192.8v-19.558l14.577-5.466v8.549a1.479 1.479 0 0 0 1.479 1.475zm-17.536-7.168l-13.322-5 13.322-5 13.322 5z" class="prefix__cls-1" data-name="Path 95" transform="translate(-138.62 -136.999)"/>
    <path id="prefix__Path_96" d="M224.173 14.767v10.625a1.479 1.479 0 1 0 2.959 0V14.767a7.458 7.458 0 1 0-2.959 0zm1.479-11.808a4.5 4.5 0 1 1-4.5 4.5 4.5 4.5 0 0 1 4.501-4.5z" class="prefix__cls-1" data-name="Path 96" transform="translate(-185.653)"/>
    <path id="prefix__Path_97" d="M350.689 340.442a10.193 10.193 0 0 0-6.121 2.034l-3.542-3.542a1.479 1.479 0 1 0-2.092 2.092l3.542 3.542a10.244 10.244 0 1 0 8.213-4.126zm0 17.536a7.288 7.288 0 1 1 7.288-7.288 7.3 7.3 0 0 1-7.288 7.288z" class="prefix__cls-1" data-name="Path 97" transform="translate(-292.727 -292.727)"/>
    <path id="prefix__Path_98" d="M70.014 80.262a10.193 10.193 0 0 0 6.121-2.034l3.542 3.542a1.48 1.48 0 0 0 2.093-2.092l-3.542-3.542a10.244 10.244 0 1 0-8.214 4.126zm0-17.536a7.288 7.288 0 1 1-7.288 7.288 7.3 7.3 0 0 1 7.288-7.288z" class="prefix__cls-1" data-name="Path 98" transform="translate(-47.977 -47.977)"/>
    <path id="prefix__Path_99" d="M227.132 387.884V377.26a1.479 1.479 0 1 0-2.959 0v10.625a7.458 7.458 0 1 0 2.959 0zm-1.479 11.808a4.5 4.5 0 1 1 4.5-4.5 4.5 4.5 0 0 1-4.5 4.501z" class="prefix__cls-1" data-name="Path 99" transform="translate(-185.653 -322.652)"/>
    <path id="prefix__Path_100" d="M395.194 218.2a7.47 7.47 0 0 0-7.31 5.978H377.26a1.479 1.479 0 1 0 0 2.959h10.625a7.458 7.458 0 1 0 7.31-8.937zm0 11.956a4.5 4.5 0 1 1 4.5-4.5 4.5 4.5 0 0 1-4.5 4.495z" class="prefix__cls-1" data-name="Path 100" transform="translate(-322.652 -185.653)"/>
    <path id="prefix__Path_101" d="M14.767 227.132h10.625a1.479 1.479 0 1 0 0-2.959H14.767a7.458 7.458 0 1 0 0 2.959zm-7.31 3.019a4.5 4.5 0 1 1 4.5-4.5 4.5 4.5 0 0 1-4.499 4.5z" class="prefix__cls-1" data-name="Path 101" transform="translate(0 -185.653)"/>
    <path id="prefix__Path_102" d="M339.98 82.2a1.475 1.475 0 0 0 1.046-.433l3.542-3.542a10.257 10.257 0 1 0-2.092-2.092l-3.542 3.542a1.48 1.48 0 0 0 1.046 2.525zm10.709-19.477a7.288 7.288 0 1 1-7.288 7.288 7.3 7.3 0 0 1 7.288-7.286z" class="prefix__cls-1" data-name="Path 102" transform="translate(-292.726 -47.976)"/>
    <path id="prefix__Path_103" d="M79.676 338.935l-3.542 3.542a10.258 10.258 0 1 0 2.092 2.092l3.542-3.542a1.48 1.48 0 0 0-2.092-2.092zm-9.662 19.043a7.288 7.288 0 1 1 7.286-7.288 7.3 7.3 0 0 1-7.287 7.288z" class="prefix__cls-1" data-name="Path 103" transform="translate(-47.976 -292.727)"/>
</svg>
