<svg xmlns="http://www.w3.org/2000/svg" width="240" height="150" viewBox="0 0 240 150"><defs><style>.a{fill:none;}.b{fill:#fff;}.c{fill:#fff;}</style></defs><g transform="translate(-821 -1872)"><rect class="a" width="240" height="150" transform="translate(821 1872)"/><g transform="translate(167.356 -114.25)"><g transform="translate(713.644 1991.25)"><path class="b" d="M46.169,122.468H2.355A2.358,2.358,0,0,1,0,120.113V11.776A2.358,2.358,0,0,1,2.355,9.42H18.841V7.065A2.358,2.358,0,0,1,21.2,4.711H35.331a11.768,11.768,0,0,1,18.834,0H68.3a2.358,2.358,0,0,1,2.355,2.354V9.42H87.141A2.358,2.358,0,0,1,89.5,11.776V60.3a40.512,40.512,0,0,0-4.711-.879V14.131H70.655V21.2A2.358,2.358,0,0,1,68.3,23.552H21.2A2.358,2.358,0,0,1,18.841,21.2V14.131H4.711V117.758H43.4a40.656,40.656,0,0,0,2.769,4.709ZM23.552,9.42v9.422H65.944V9.42H52.9a2.362,2.362,0,0,1-2.038-1.175,7.063,7.063,0,0,0-12.237,0A2.362,2.362,0,0,1,36.591,9.42Zm-4.475,96.561h-.03a2.342,2.342,0,0,1-1.832-.912l-7.3-9.42a2.359,2.359,0,0,1,.419-3.3,2.354,2.354,0,0,1,3.3.419l5.489,7.081,9.667-11.839a2.355,2.355,0,1,1,3.648,2.98L20.9,105.116A2.346,2.346,0,0,1,19.077,105.982Zm20.241-2.467h0a2.356,2.356,0,0,1-.178-4.42c0,.161,0,.334,0,.545,0,1.292.061,2.6.183,3.874Zm.186-9.369h0a2.356,2.356,0,0,1,.536-4.65h.376a40.491,40.491,0,0,0-.91,4.649ZM19.077,77.72h-.03a2.342,2.342,0,0,1-1.832-.912l-7.3-9.42a2.358,2.358,0,0,1,.419-3.3,2.354,2.354,0,0,1,3.3.419l5.489,7.081,9.667-11.839a2.355,2.355,0,1,1,3.648,2.98L20.9,76.855A2.346,2.346,0,0,1,19.077,77.72ZM47.2,75.366H40.038a2.355,2.355,0,0,1,0-4.711H51.331a40.87,40.87,0,0,0-4.128,4.71Zm9.923-9.42H40.038a2.355,2.355,0,1,1,0-4.711H66.661a40.4,40.4,0,0,0-9.535,4.711ZM19.077,49.458h-.03a2.342,2.342,0,0,1-1.832-.912l-7.3-9.42a2.355,2.355,0,1,1,3.723-2.886l5.489,7.081,9.667-11.839a2.355,2.355,0,1,1,3.648,2.98L20.9,48.592A2.346,2.346,0,0,1,19.077,49.458ZM54.17,47.1H40.038a2.355,2.355,0,1,1,0-4.711H54.17a2.355,2.355,0,0,1,0,4.711Zm23.551-9.42H40.038a2.355,2.355,0,1,1,0-4.711H77.72a2.355,2.355,0,1,1,0,4.711Z" transform="translate(0 0)"/><g transform="translate(41.269 61.234)"><path class="c" d="M67.018,11.5A39.258,39.258,0,0,0,11.5,67.018,39.258,39.258,0,0,0,67.018,11.5ZM39.258,73.916A34.658,34.658,0,1,1,73.916,39.258,34.7,34.7,0,0,1,39.258,73.916Z"/><g transform="translate(27.102 14.783)"><path class="c" d="M191.353,118.576h-4.928a5.091,5.091,0,1,1,0-10.182h9.855a2.3,2.3,0,1,0,0-4.6H191.19V98.7a2.3,2.3,0,1,0-4.6,0v5.091h-.163a9.692,9.692,0,1,0,0,19.384h4.928a5.091,5.091,0,0,1,0,10.183H181.5a2.3,2.3,0,0,0,0,4.6h5.091v5.091a2.3,2.3,0,0,0,4.6,0v-5.091h.164a9.692,9.692,0,0,0,0-19.384Z" transform="translate(-176.734 -96.401)"/></g></g></g></g></g></svg>