<svg xmlns="http://www.w3.org/2000/svg" width="240" height="150" viewBox="0 0 240 150">
    <defs>
        <style>
        .a {
            fill: none;
        }

        .b {
            fill: #ffffff;
        }

        .c {
            fill: #ffffff;
        }
        </style>
    </defs>
    <g transform="translate(-943 -415)">
        <rect class="a" width="240" height="150" transform="translate(943 415)" />
        <g transform="translate(-66 383.131)">
            <g transform="translate(1060 37.869)">
                <path class="b" d="M43.063,47.127A20.063,20.063,0,1,0,23,27.063,20.087,20.087,0,0,0,43.063,47.127Zm0-35.668a15.6,15.6,0,1,1-15.6,15.6A15.623,15.623,0,0,1,43.063,11.459Z" transform="translate(26.044 6.376)" />
                <path class="c" d="M38.146,33.293A11.146,11.146,0,1,0,27,22.146,11.159,11.159,0,0,0,38.146,33.293Zm0-17.834a6.688,6.688,0,1,1-6.688,6.688A6.7,6.7,0,0,1,38.146,15.459Z" transform="translate(30.961 11.293)" />
                <path class="c" d="M134.756,116.922V47.815A11.159,11.159,0,0,0,123.61,36.668H103.547V26l-6.229-1.532q-.411-1.11-.927-2.216l3.326-5.5L87.788,4.828l-5.5,3.328q-1.107-.515-2.218-.927L78.543,1H61.672L60.14,7.229q-1.11.411-2.218.927l-5.5-3.326L40.494,16.761l3.328,5.5q-.515,1.1-.93,2.216L36.668,26V36.668H16.6A11.159,11.159,0,0,0,5.459,47.815v69.107H1v11.146a11.159,11.159,0,0,0,11.146,11.146H128.068a11.159,11.159,0,0,0,11.146-11.146V116.922ZM41.127,29.5l5.228-1.286.379-1.19a24.867,24.867,0,0,1,1.61-3.852l.575-1.11-2.8-4.621,6.987-6.984,4.621,2.8,1.112-.577a24.373,24.373,0,0,1,3.845-1.61l1.195-.377,1.286-5.23h9.88l1.286,5.232,1.195.377a24.373,24.373,0,0,1,3.846,1.61l1.112.577,4.621-2.8,6.987,6.987-2.8,4.619.575,1.11a24.335,24.335,0,0,1,1.61,3.852l.379,1.19L99.088,29.5v9.88L93.86,40.665l-.379,1.19a24.509,24.509,0,0,1-1.61,3.852l-.575,1.11,2.8,4.619-6.987,6.987-4.621-2.8-1.112.577a24.373,24.373,0,0,1-3.845,1.61l-1.195.377-1.286,5.23h-9.88l-1.286-5.228-1.19-.379a24.38,24.38,0,0,1-3.85-1.612l-1.112-.577-4.621,2.8L46.12,51.435l2.8-4.619-.575-1.11a24.335,24.335,0,0,1-1.61-3.852l-.379-1.19-5.228-1.284Zm11.3,34.549,5.5-3.326q1.1.515,2.218.927l1.529,6.229H78.543l1.532-6.229q1.11-.411,2.218-.927l5.5,3.326L99.719,52.119l-1.257-2.075h22.919v57.961H18.834V50.044H41.753L40.5,52.122ZM9.917,47.815A6.7,6.7,0,0,1,16.6,41.127H36.668v1.748L42.9,44.406c.145.395.328.787.493,1.179H18.834a4.463,4.463,0,0,0-4.459,4.459v57.961a4.463,4.463,0,0,0,4.459,4.459H121.381a4.463,4.463,0,0,0,4.459-4.459V50.044a4.463,4.463,0,0,0-4.459-4.459H96.825c.165-.395.348-.787.493-1.179l6.229-1.532V41.127H123.61a6.7,6.7,0,0,1,6.688,6.688v69.107H9.917Zm124.839,80.254a6.7,6.7,0,0,1-6.688,6.688H12.146a6.7,6.7,0,0,1-6.688-6.688v-6.688h129.3Z" transform="translate(-1 -1)" />
                <path class="b" d="M5,57H9.459v4.459H5Z" transform="translate(3.917 67.839)" />
                <path class="b" d="M9,57h4.459v4.459H9Z" transform="translate(8.834 67.839)" />
                <path class="b" d="M13,57h4.459v4.459H13Z" transform="translate(13.751 67.839)" />
                <path class="b" d="M13,48.834a17.834,17.834,0,1,0,34.028-7.426L52.289,37.2,49.5,33.717,44.66,37.592A17.822,17.822,0,0,0,13,48.834ZM30.834,35.459a13.35,13.35,0,0,1,10.351,4.916L28.77,50.306l-5.277-5.277-3.152,3.152,8.1,8.1L43.405,44.309a13.366,13.366,0,1,1-12.571-8.85Z" transform="translate(13.751 35.878)" />
                <path class="b" d="M52.834,66.668A17.834,17.834,0,1,0,35,48.834,17.855,17.855,0,0,0,52.834,66.668Zm0-31.21A13.376,13.376,0,1,1,39.459,48.834,13.389,13.389,0,0,1,52.834,35.459Z" transform="translate(40.795 35.878)" />
                <path class="b" d="M42.445,51.821l5.112-5.112,5.112,5.112,3.152-3.152-5.112-5.112,5.112-5.112-3.152-3.152L47.557,40.4l-5.112-5.112-3.152,3.152L44.4,43.557l-5.112,5.112Z" transform="translate(46.072 41.155)" />
            </g>
        </g>
    </g>
</svg>