<svg xmlns="http://www.w3.org/2000/svg" width="240" height="150" viewBox="0 0 240 150"><defs><style>.a{fill:none;}.b{fill:#373737;}.c{fill:#fb6c42;}</style></defs><g transform="translate(-53 -2275)"><rect class="a" width="240" height="150" transform="translate(53 2275)"/><g transform="translate(102 2279)"><path class="b" d="M38.613,29A31.613,31.613,0,1,0,70.226,60.613,31.648,31.648,0,0,0,38.613,29Zm0,58.71a27.1,27.1,0,1,1,27.1-27.1A27.127,27.127,0,0,1,38.613,87.71Z" transform="translate(7.548 35.226)"/><path class="b" d="M12.26,49.087a22.733,22.733,0,0,0,2.906,4.076l3.365-3.012A18.079,18.079,0,0,1,16.2,46.888Z" transform="translate(14.166 57.73)"/><path class="b" d="M15.527,43.506l-4.507.282a22.589,22.589,0,0,0,.863,4.934l4.335-1.269A18.027,18.027,0,0,1,15.527,43.506Z" transform="translate(12.606 53.475)"/><path class="b" d="M16.65,40.959l-4.191-1.68a22.67,22.67,0,0,0-1.335,4.83l4.462.709A17.846,17.846,0,0,1,16.65,40.959Z" transform="translate(12.738 48.157)"/><path class="c" d="M25.2,33h-.847A6.359,6.359,0,0,0,18,39.35l2.01,16.509a4.8,4.8,0,0,0,9.527.023l1.946-15.409.065-1.122A6.358,6.358,0,0,0,25.2,33Zm-.145,22.335a.286.286,0,0,1-.56-.023L22.575,40.194l-.059-.9a1.839,1.839,0,0,1,1.834-1.777H25.2a1.82,1.82,0,0,1,1.838,1.7Z" transform="translate(21.387 40.258)"/><path class="c" d="M24.774,47a6.774,6.774,0,1,0,6.774,6.774A6.782,6.782,0,0,0,24.774,47Zm0,9.032a2.258,2.258,0,1,1,2.258-2.258A2.26,2.26,0,0,1,24.774,56.032Z" transform="translate(21.387 57.871)"/><path class="b" d="M141,1H64.226V19.065H46.161V50.677h-8.4L35.8,56.562a40.233,40.233,0,0,0-10.071,4.182l-5.557-2.78L8.287,69.848l2.777,5.557a40.311,40.311,0,0,0-4.18,10.071L1,87.436v16.8L6.885,106.2a40.311,40.311,0,0,0,4.18,10.071l-2.777,5.557,11.882,11.884,5.557-2.78A40.4,40.4,0,0,0,35.8,135.115L37.759,141h16.8l1.962-5.885a40.233,40.233,0,0,0,10.071-4.182l5.557,2.78,11.882-11.884-1.7-3.41h40.6V100.355H141ZM71.262,128.219l-4.9-2.448-1.075.673a35.836,35.836,0,0,1-11.022,4.575l-1.235.285-1.727,5.18H41.013l-1.727-5.18-1.235-.285a35.836,35.836,0,0,1-11.022-4.575l-1.075-.673-4.893,2.448-7.278-7.28,2.445-4.893-.673-1.077a35.781,35.781,0,0,1-4.575-11.022L10.7,102.71l-5.182-1.725V90.69l5.18-1.727.282-1.237A35.837,35.837,0,0,1,15.553,76.7l.673-1.077-2.445-4.893,7.278-7.28,4.9,2.448,1.075-.673A35.837,35.837,0,0,1,38.05,60.654l1.235-.285,1.73-5.175H51.31l1.727,5.18,1.235.285a35.837,35.837,0,0,1,11.022,4.575l1.075.673,4.9-2.448,7.278,7.28L76.1,75.631l.673,1.077A35.781,35.781,0,0,1,81.344,87.73l.282,1.237,5.18,1.725v10.295l-5.18,1.727-.282,1.237a35.837,35.837,0,0,1-4.575,11.022l-.673,1.077,2.445,4.893ZM118.419,113.9H82.536a40.408,40.408,0,0,0,2.9-7.7l5.885-1.962v-16.8l-5.885-1.962a40.311,40.311,0,0,0-4.18-10.071l2.777-5.557L72.154,57.964,66.6,60.744a40.4,40.4,0,0,0-10.071-4.182l-1.962-5.885H50.677v-27.1h67.742Zm18.065-18.065H122.935V19.065H68.742V5.516h67.742Z"/><path class="c" d="M29.516,32.194a7.912,7.912,0,0,0,7.9,7.9h1.129V35.581H37.419a3.391,3.391,0,0,1-3.387-3.387,7.87,7.87,0,0,0-2.389-5.645A7.87,7.87,0,0,0,34.032,20.9a3.391,3.391,0,0,1,3.387-3.387h1.129V13H37.419a7.912,7.912,0,0,0-7.9,7.9,3.391,3.391,0,0,1-3.387,3.387H25v4.516h1.129A3.391,3.391,0,0,1,29.516,32.194Z" transform="translate(30.194 15.097)"/><path class="c" d="M54.032,44.9a7.912,7.912,0,0,0-7.9-7.9H45v4.516h1.129A3.391,3.391,0,0,1,49.516,44.9a7.87,7.87,0,0,0,2.389,5.645,7.87,7.87,0,0,0-2.389,5.645,3.391,3.391,0,0,1-3.387,3.387H45V64.1h1.129a7.912,7.912,0,0,0,7.9-7.9,3.391,3.391,0,0,1,3.387-3.387h1.129V48.29H57.419A3.391,3.391,0,0,1,54.032,44.9Z" transform="translate(55.355 45.29)"/><path class="b" d="M33,13H73.645v4.516H33Z" transform="translate(40.258 15.097)"/><path class="b" d="M33,17H64.613v4.516H33Z" transform="translate(40.258 20.129)"/><path class="b" d="M49,17h4.516v4.516H49Z" transform="translate(60.387 20.129)"/><path class="b" d="M33,21H73.645v4.516H33Z" transform="translate(40.258 25.161)"/><path class="b" d="M41,25H63.581v4.516H41Z" transform="translate(50.323 30.194)"/><path class="b" d="M41,29H63.581v4.516H41Z" transform="translate(50.323 35.226)"/><path class="b" d="M41,33H63.581v4.516H41Z" transform="translate(50.323 40.258)"/></g></g></svg>