<svg xmlns="http://www.w3.org/2000/svg" width="240" height="150" viewBox="0 0 240 150">
    <defs>
        <style>
        .a {
            fill: none;
        }

        .b {
            fill: #fff;
        }

        .c {
            fill: #fff;
        }
        </style>
    </defs>
    <g transform="translate(-853 -720)">
        <rect class="a" width="240" height="150" transform="translate(853 720)" />
        <g transform="translate(509 434)">
            <g transform="translate(404 297)">
                <g transform="translate(0 36.581)">
                    <g transform="translate(0)">
                        <path class="b" d="M132.032,232.8h-5.471V153.359a6.713,6.713,0,0,0-6.705-6.705H107.627a6.713,6.713,0,0,0-6.705,6.705V232.8H87.031V189.35a6.713,6.713,0,0,0-6.705-6.705H68.1a6.713,6.713,0,0,0-6.705,6.705V232.8H47.5V210.3A6.713,6.713,0,0,0,40.8,203.59H28.567a6.713,6.713,0,0,0-6.705,6.705v22.5H16.1a2.494,2.494,0,1,0,0,4.989H132.032a2.494,2.494,0,0,0,0-4.989Zm-89.521,0H26.85V210.3a1.718,1.718,0,0,1,1.717-1.717H40.795a1.718,1.718,0,0,1,1.717,1.717v22.5Zm39.531,0H66.38V189.35a1.718,1.718,0,0,1,1.717-1.717H80.325a1.719,1.719,0,0,1,1.717,1.717Zm39.531,0H105.911V153.359a1.718,1.718,0,0,1,1.717-1.717h12.228a1.718,1.718,0,0,1,1.717,1.717Z" transform="translate(-13.601 -146.654)" />
                    </g>
                </g>
                <g transform="translate(21.388)">
                    <path class="c" d="M190.912,2.623A2.486,2.486,0,0,0,188.3.006c-.04,0-.08-.006-.121-.006H173.084a2.494,2.494,0,0,0,0,4.989H182.4L157.744,29.647l-9.3-9.3a2.494,2.494,0,0,0-3.528,0L100.077,65.189a2.494,2.494,0,0,0,3.528,3.527l43.077-43.077,9.3,9.3a2.5,2.5,0,0,0,3.528,0L185.93,8.516V16.95a2.494,2.494,0,1,0,4.989,0V2.744C190.918,2.7,190.914,2.663,190.912,2.623Z" transform="translate(-99.346)" />
                </g>
                <g transform="translate(12.98 73.162)">
                    <g transform="translate(0)">
                        <circle class="c" cx="2.494" cy="2.494" r="2.494" />
                    </g>
                </g>
            </g>
        </g>
    </g>
</svg>