<svg xmlns="http://www.w3.org/2000/svg" width="240" height="150" viewBox="0 0 240 150"><defs><style>.a{fill:none;}.b{fill:#fb6c42;}.c{fill:#373737;}</style></defs><g transform="translate(-844 -1416)"><rect class="a" width="240" height="150" transform="translate(844 1416)"/><g transform="translate(591.481 1179.72)"><path class="b" d="M326.775,450.056a3.032,3.032,0,0,1,3.032-3.032h2.875a3.032,3.032,0,0,1,0,6.064h-2.875A3.032,3.032,0,0,1,326.775,450.056Z" transform="translate(-7.701 -151.482)"/><path class="c" d="M497.7,354.717a3.036,3.036,0,0,0-1.841,0,19.279,19.279,0,0,0,0,36.733,3.028,3.028,0,0,0,1.84,0,19.279,19.279,0,0,0,0-36.733Zm-.921,30.625a13.217,13.217,0,0,1,0-24.518,13.218,13.218,0,0,1,0,24.518Z" transform="translate(-124.588 -82.065)"/><path class="b" d="M388.788,311.578a3.032,3.032,0,1,0,4.288-4.287l-2.032-2.032a3.032,3.032,0,0,0-4.289,4.287Z" transform="translate(-52.071 -44.368)"/><path class="b" d="M721.76,453.088h2.875a3.032,3.032,0,0,0,0-6.064H721.76a3.032,3.032,0,0,0,0,6.064Z" transform="translate(-302.003 -151.482)"/><path class="b" d="M666.046,312.466a3.022,3.022,0,0,0,2.144-.888l2.033-2.032a3.032,3.032,0,0,0-4.288-4.288L663.9,307.29a3.032,3.032,0,0,0,2.144,5.176Z" transform="translate(-260.17 -44.368)"/><path class="c" d="M530.863,254.218a3.031,3.031,0,0,0,3.032-3.032v-2.875a3.032,3.032,0,0,0-6.064,0v2.875A3.032,3.032,0,0,0,530.863,254.218Z" transform="translate(-158.666 0)"/><path class="c" d="M411.1,552.082c-10.435-6.928-24.251-10.744-38.9-10.744s-28.468,3.816-38.9,10.744c-10.817,7.182-16.774,16.857-16.774,27.242a3.032,3.032,0,0,0,3.032,3.032h22.017a3.032,3.032,0,0,0,2.813-4.164l-3.53-8.768a3.032,3.032,0,0,0-5.625,2.265l1.854,4.6H322.807c1.064-7.163,5.884-13.877,13.84-19.159,9.452-6.275,22.077-9.732,35.548-9.732s26.1,3.456,35.549,9.732c7.956,5.283,12.777,12,13.841,19.159H407.313l1.854-4.6a3.032,3.032,0,0,0-5.625-2.266l-3.531,8.768a3.032,3.032,0,0,0,2.813,4.165h22.018a3.032,3.032,0,0,0,3.032-3.032C427.874,568.939,421.916,559.264,411.1,552.082Z" transform="translate(0 -222.299)"/><g transform="translate(349.935 332.203)"><g transform="translate(37.128 35.118)"><path class="c" d="M601.157,735.388a.869.869,0,1,0,.255.615A.877.877,0,0,0,601.157,735.388Z" transform="translate(-599.673 -735.133)"/></g><g transform="translate(13.524 37.9)"><path class="c" d="M508.233,746.3a3.3,3.3,0,1,0,3.3,3.3A3.307,3.307,0,0,0,508.233,746.3Zm0,4.868A1.565,1.565,0,1,1,509.8,749.6,1.567,1.567,0,0,1,508.233,751.167Z" transform="translate(-504.929 -746.299)"/></g><g transform="translate(29.47 37.9)"><path class="c" d="M572.236,746.3a3.3,3.3,0,1,0,3.3,3.3A3.307,3.307,0,0,0,572.236,746.3Zm0,4.868A1.565,1.565,0,1,1,573.8,749.6,1.567,1.567,0,0,1,572.236,751.167Z" transform="translate(-568.933 -746.299)"/></g><g transform="translate(0 8.342)"><path class="b" d="M491.293,642.309a.869.869,0,0,0-1.018.689l-1.263,6.559a.871.871,0,0,1-.854.7H463.071l-3.4-14.808h8.94a.869.869,0,1,0,0-1.738h-9.34l-.927-4.033a2.6,2.6,0,0,0-2.542-2.024h-4.281a.869.869,0,0,0,0,1.739H455.8a.865.865,0,0,1,.847.675l5.846,25.426a.869.869,0,0,0,.847.674h22.174a.869.869,0,1,0,0-1.739H464.03l-.56-2.434h24.687a2.611,2.611,0,0,0,2.561-2.114l1.264-6.559A.869.869,0,0,0,491.293,642.309Z" transform="translate(-450.647 -627.659)"/></g><g transform="translate(21.381 0)"><path class="c" d="M559.273,605.916a2.237,2.237,0,0,0-.337-2.78l-.868-.855a.51.51,0,0,1-.151-.4L558,600.66a2.235,2.235,0,0,0-1.594-2.312L555.26,598a.509.509,0,0,1-.32-.285l-.481-1.11a2.261,2.261,0,0,0-2.5-1.312l-1.167.229a.509.509,0,0,1-.418-.1l-.929-.75a2.261,2.261,0,0,0-2.825,0l-.928.75a.509.509,0,0,1-.418.1l-1.167-.229a2.26,2.26,0,0,0-2.5,1.312l-.482,1.11a.51.51,0,0,1-.32.285l-1.149.347a2.236,2.236,0,0,0-1.594,2.312l.087,1.221a.509.509,0,0,1-.151.4l-.868.855a2.237,2.237,0,0,0-.337,2.78l.642,1.043a.511.511,0,0,1,.051.423l-.376,1.168a2.237,2.237,0,0,0,.992,2.621l1.041.618a.509.509,0,0,1,.242.352l.2,1.2a2.234,2.234,0,0,0,2.1,1.867l1.191.059a.509.509,0,0,1,.38.2l.727.956a2.259,2.259,0,0,0,1.8.885,2.228,2.228,0,0,0,.944-.208l1.077-.5a.508.508,0,0,1,.431,0l1.077.5a2.261,2.261,0,0,0,2.741-.677l.726-.956a.509.509,0,0,1,.38-.2l1.192-.059a2.234,2.234,0,0,0,2.1-1.868l.2-1.2a.508.508,0,0,1,.242-.352l1.041-.618a2.237,2.237,0,0,0,.993-2.621l-.376-1.168a.508.508,0,0,1,.051-.423ZM557.792,605l-.642,1.043a2.246,2.246,0,0,0-.225,1.866l.376,1.168a.507.507,0,0,1-.225.594l-1.04.618a2.245,2.245,0,0,0-1.069,1.555l-.205,1.2a.506.506,0,0,1-.477.423l-1.192.059a2.244,2.244,0,0,0-1.678.885l-.727.956a.512.512,0,0,1-.621.153l-1.077-.5a2.244,2.244,0,0,0-1.9,0l-1.077.5a.513.513,0,0,1-.621-.153l-.727-.956a2.244,2.244,0,0,0-1.678-.885l-1.191-.059a.506.506,0,0,1-.477-.423l-.2-1.2a2.244,2.244,0,0,0-1.069-1.555l-1.04-.618a.507.507,0,0,1-.225-.594l.376-1.168a2.246,2.246,0,0,0-.225-1.866L538.285,605a.507.507,0,0,1,.076-.63l.868-.855a2.246,2.246,0,0,0,.665-1.761l-.087-1.221a.507.507,0,0,1,.361-.524l1.15-.347a2.244,2.244,0,0,0,1.413-1.258l.482-1.11a.513.513,0,0,1,.469-.307.485.485,0,0,1,.1.01l1.167.229a2.242,2.242,0,0,0,1.845-.457l.929-.75a.511.511,0,0,1,.64,0l.929.75a2.244,2.244,0,0,0,1.845.457L552.3,597a.512.512,0,0,1,.565.3l.481,1.11a2.243,2.243,0,0,0,1.414,1.258l1.15.346a.507.507,0,0,1,.361.524l-.087,1.221a2.245,2.245,0,0,0,.665,1.761l.868.855A.507.507,0,0,1,557.792,605Z" transform="translate(-536.468 -594.174)"/></g><g transform="translate(29.634 7.517)"><path class="c" d="M574.923,624.459a.869.869,0,0,0-1.184.33l-4.032,7.142a.869.869,0,0,0,1.514.855l4.032-7.142A.87.87,0,0,0,574.923,624.459Z" transform="translate(-569.594 -624.347)"/></g><g transform="translate(33.311 12.196)"><path class="c" d="M586.613,643.129a2.261,2.261,0,1,0,2.261,2.261A2.264,2.264,0,0,0,586.613,643.129Zm0,2.783a.522.522,0,1,1,.522-.522A.523.523,0,0,1,586.613,645.912Z" transform="translate(-584.352 -643.129)"/></g><g transform="translate(28.071 6.417)"><path class="c" d="M565.579,619.932a2.261,2.261,0,1,0,2.261,2.261A2.264,2.264,0,0,0,565.579,619.932Zm0,2.783a.522.522,0,1,1,.522-.522A.523.523,0,0,1,565.579,622.715Z" transform="translate(-563.318 -619.932)"/></g></g></g></g></svg>