<svg xmlns="http://www.w3.org/2000/svg" width="240" height="150" viewBox="0 0 240 150">
    <defs>
        <style>
        .a {
            fill: none;
        }

        .b {
            fill: #fff;
        }

        .c {
            fill: #fff;
        }
        </style>
    </defs>
    <g transform="translate(-1011 -714)">
        <rect class="a" width="240" height="150" transform="translate(1011 714)" />
        <g transform="translate(570.66 433)">
            <g transform="translate(515.34 291)">
                <g transform="translate(6.337 0)">
                    <g transform="translate(0 0)">
                        <path class="b" d="M575.513,102.451a1.365,1.365,0,0,0-1.365,1.365v12.83a.754.754,0,0,1-.753.753h-7.335V90.526a1.365,1.365,0,0,0-2.729,0V117.4H548.559l4.284-4.712a2.446,2.446,0,0,0,.59-1.963c0-.014,0-.028-.006-.041l-4.08-24.1,1.1-1.655a3.094,3.094,0,0,0,1.954.847,2.39,2.39,0,0,0,2.139-1.323h0l4.3-8.624,9.8,3.8a9.454,9.454,0,0,1,5.5,8.595v9.23a1.365,1.365,0,0,0,2.729,0v-9.23a12.178,12.178,0,0,0-7.2-11.122l-.026-.011-16.315-6.318V66.941a12.786,12.786,0,0,0,4.839-8.411,5.906,5.906,0,0,0,3.47-1.415,5.793,5.793,0,0,0,.6-8.174V43.886a16.912,16.912,0,1,0-33.824,0v5.187a5.478,5.478,0,0,0-1.407,3.652,5.782,5.782,0,0,0,2.012,4.39A5.9,5.9,0,0,0,532.5,58.53a12.651,12.651,0,0,0,5.116,8.613v3.624l-16.3,6.318-.026.01a12.178,12.178,0,0,0-7.2,11.122v28.427a3.487,3.487,0,0,0,3.483,3.483h13a1.364,1.364,0,1,0,0-2.729h-2.936V90.526a1.364,1.364,0,0,0-2.729,0V117.4h-7.336a.754.754,0,0,1-.753-.753V88.218a9.455,9.455,0,0,1,5.5-8.594l9.794-3.8,4.3,8.624a2.389,2.389,0,0,0,2.139,1.323,3.093,3.093,0,0,0,1.954-.847l1.1,1.655-4.079,24.1-.007.041a2.447,2.447,0,0,0,.59,1.963L542.4,117.4H536.94a1.365,1.365,0,0,0,0,2.729h36.455a3.487,3.487,0,0,0,3.483-3.483V103.816A1.365,1.365,0,0,0,575.513,102.451ZM556.285,74.838l-4.012,8.04-4.825-3.427,4.956-6.116Zm-8.066,8.508-1.04,1.566h-3.4l-1.04-1.566,2.742-1.947Zm-7.878-12.138V68.654a13.848,13.848,0,0,0,5.16.978,12.81,12.81,0,0,0,5.1-1.064v2.65l-5.127,6.329Zm20.584-18.482a3.057,3.057,0,0,1-1.062,2.32,3.183,3.183,0,0,1-1.576.725V49.681A3.087,3.087,0,0,1,560.926,52.726Zm-28.542,3.046a3.083,3.083,0,0,1-2.638-3.046,3.241,3.241,0,0,1,2.638-2.976Zm.073-8.8a6.744,6.744,0,0,0-1.3.294V43.886a14.183,14.183,0,1,1,28.365,0v3.283a6.076,6.076,0,0,0-1.23-.238c0-1.317.012-1.063-4.3-5.694a2.428,2.428,0,0,0-3.1-.378,26.307,26.307,0,0,1-15.9,4.281A2.426,2.426,0,0,0,532.457,46.969Zm2.656,9.877V47.884a29.159,29.159,0,0,0,17.055-4.6c1.976,2.121,3.046,3.234,3.39,3.657v9.905a10.224,10.224,0,0,1-20.445,0Zm3.569,26.031-4.011-8.04,3.874-1.5,4.956,6.118Zm1.566,28.1,3.95-23.336h2.56l3.95,23.336-5.23,5.754Z" transform="translate(-514.088 -26.974)" />
                    </g>
                </g>
                <path class="c" d="M542.554,455.9a1.623,1.623,0,0,0,2.3,0l28.073-28.072V430.4a1.623,1.623,0,0,0,3.247,0v-6.493a1.613,1.613,0,0,0-.114-.567c-.022-.054-.048-.109-.075-.163a1.633,1.633,0,0,0-.227-.337,1.42,1.42,0,0,0-.542-.412c-.016,0-.026-.019-.041-.023a1.609,1.609,0,0,0-.564-.113c-.024,0-.041-.008-.06-.008h-6.493a1.623,1.623,0,1,0,0,3.247h2.575L543.7,452.46l-14.274-14.274a1.624,1.624,0,0,0-2.3,0l-16.709,16.709-7.781-7.781a1.624,1.624,0,0,0-2.3,0l-14.61,14.61a1.623,1.623,0,1,0,2.3,2.3l13.463-13.463,7.781,7.781a1.624,1.624,0,0,0,2.3,0l16.709-16.709Z" transform="translate(-485.24 -335.447)" />
            </g>
        </g>
    </g>
</svg>