<svg xmlns="http://www.w3.org/2000/svg" width="80" height="80" viewBox="0 0 80 80">
    <defs>
        <linearGradient id="prefix__linear-gradient" x1=".5" x2=".5" y2="1" gradientUnits="objectBoundingBox">
            <stop offset="0" stop-color="#423f90"/>
            <stop offset="1" stop-color="#9d71ad"/>
        </linearGradient>
        <style>
            .prefix__cls-1{fill:url(#prefix__linear-gradient)}
        </style>
    </defs>
    <g id="prefix__price" transform="translate(-.296)">
        <g id="prefix__Group_19" data-name="Group 19" transform="translate(.296 42.209)">
            <g id="prefix__Group_18" data-name="Group 18">
                <path id="prefix__Path_45" d="M79.232 282.685a6.664 6.664 0 0 0-4.879-2.861 4.738 4.738 0 0 0-3.929 1.527c-.218.24-.453.5-.7.786a6.566 6.566 0 0 0-3.99-1.824 4.738 4.738 0 0 0-3.929 1.527c-2.162 2.381-5.989 7.031-8.994 10.733a6.108 6.108 0 0 0-1.255-.589c-1.437-.644-21.241-9.444-30.02-9.444-14.18 0-20.7 7.93-20.966 8.268a1.256 1.256 0 0 0 .149 1.719 1.146 1.146 0 0 0 1.655-.15 18.486 18.486 0 0 1 4.646-3.7 28.408 28.408 0 0 1 14.516-3.691c8.434 0 28.935 9.175 29.141 9.267a1.143 1.143 0 0 0 .116.045 3.856 3.856 0 0 1 2.257 1.959 4.113 4.113 0 0 1 .265 3.046 4 4 0 0 1-1.77 2.284 3.909 3.909 0 0 1-3.077.328l-12.827-3.676a1.171 1.171 0 0 0-1.446.854 1.23 1.23 0 0 0 .821 1.5l12.809 3.67a6.119 6.119 0 0 0 6.877-2.429 6.59 6.59 0 0 0 .857-1.808 6.7 6.7 0 0 0 .276-1.629l3.44-.377a1.163 1.163 0 0 0 .78-.434c.085-.106 8.52-10.642 12.078-14.561 1.479-1.629 4.119-.474 5.187 1.078 1.642 2.387-.4 4.993-1.063 5.735C72.991 293.489 67 301 65.927 302.353l-24.373 12.679-23.325-10.219a1.135 1.135 0 0 0-.456-.1H1.472a1.224 1.224 0 0 0 0 2.446h16.063L41.14 317.5a1.134 1.134 0 0 0 .982-.033L67.2 304.425a1.185 1.185 0 0 0 .381-.315c.069-.087 6.923-8.723 10.4-12.6 2.552-2.853 3.033-6.235 1.251-8.825zm-20.678 12.96l-3.063.335a6.62 6.62 0 0 0-.925-1.78c2.56-3.153 6.721-8.228 8.947-10.68a2.467 2.467 0 0 1 2.061-.766 4.267 4.267 0 0 1 2.577 1.2c-3.528 4.146-8.33 10.11-9.598 11.69z" class="prefix__cls-1" data-name="Path 45" transform="translate(-.296 -279.81)"/>
            </g>
        </g>
        <g id="prefix__Group_21" data-name="Group 21" transform="translate(11.73)">
            <g id="prefix__Group_20" data-name="Group 20">
                <path id="prefix__Path_46" d="M136.53 24.788h-10.519V10.926a1.223 1.223 0 0 0-2.446 0v15.085a1.223 1.223 0 0 0 1.223 1.223h8.435l-24.09 20.649-24.091-20.649h8.435a1.223 1.223 0 0 0 1.223-1.223V2.446h28.865V5.3a1.223 1.223 0 0 0 2.446 0V1.223A1.223 1.223 0 0 0 124.788 0H93.477a1.223 1.223 0 0 0-1.223 1.223v23.565H81.736a1.233 1.233 0 0 0-.8 2.152l27.4 23.483a1.234 1.234 0 0 0 1.592 0l27.4-23.483a1.233 1.233 0 0 0-.798-2.152z" class="prefix__cls-1" data-name="Path 46" transform="translate(-80.524)"/>
            </g>
        </g>
        <g id="prefix__Group_23" data-name="Group 23" transform="translate(31.3 7.828)">
            <g id="prefix__Group_22" data-name="Group 22">
                <path id="prefix__Path_47" d="M218.479 48.452a1.223 1.223 0 0 0-1.73 0l-15.655 15.655a1.233 1.233 0 0 0 .865 2.088 1.218 1.218 0 0 0 .865-.358l15.655-15.655a1.223 1.223 0 0 0 0-1.73z" class="prefix__cls-1" data-name="Path 47" transform="translate(-200.745 -48.094)"/>
            </g>
        </g>
        <g id="prefix__Group_25" data-name="Group 25" transform="translate(42.754 17.46)">
            <g id="prefix__Group_24" data-name="Group 24">
                <path id="prefix__Path_48" d="M276.661 112.219a3.832 3.832 0 1 0 3.832 3.832 3.837 3.837 0 0 0-3.832-3.832zm0 5.219a1.386 1.386 0 1 1 1.386-1.386 1.388 1.388 0 0 1-1.386 1.386z" class="prefix__cls-1" data-name="Path 48" transform="translate(-272.829 -112.219)"/>
            </g>
        </g>
        <g id="prefix__Group_27" data-name="Group 27" transform="translate(30.266 7.828)">
            <g id="prefix__Group_26" data-name="Group 26">
                <path id="prefix__Path_49" d="M196.5 48.094a3.832 3.832 0 1 0 3.832 3.832 3.837 3.837 0 0 0-3.832-3.832zm0 5.219a1.386 1.386 0 1 1 1.386-1.386 1.388 1.388 0 0 1-1.386 1.386z" class="prefix__cls-1" data-name="Path 49" transform="translate(-192.672 -48.094)"/>
            </g>
        </g>
    </g>
</svg>
