<svg xmlns="http://www.w3.org/2000/svg" width="80" height="80" viewBox="0 0 80 80">
    <defs>
        <linearGradient id="prefix__linear-gradient" x1=".5" x2=".5" y2="1" gradientUnits="objectBoundingBox">
            <stop offset="0" stop-color="#423f90"/>
            <stop offset="1" stop-color="#9d71ad"/>
        </linearGradient>
        <style>
            .prefix__cls-1{fill:url(#prefix__linear-gradient)}
        </style>
    </defs>
    <g id="prefix__price_1_" data-name="price (1)" transform="translate(-.005 -.001)">
        <path id="prefix__Path_109" d="M101.491 253.5a2.743 2.743 0 0 1 2.744 2.744 1.372 1.372 0 0 0 2.744 0 5.487 5.487 0 0 0-4.115-5.292v-1.567a1.372 1.372 0 1 0-2.744 0v1.567a5.476 5.476 0 0 0 1.372 10.779 2.744 2.744 0 1 1-2.744 2.744 1.372 1.372 0 0 0-2.744 0 5.488 5.488 0 0 0 4.115 5.292v1.567a1.372 1.372 0 0 0 2.744 0v-1.564a5.476 5.476 0 0 0-1.372-10.783 2.744 2.744 0 1 1 0-5.487zm0 0" class="prefix__cls-1" data-name="Path 109" transform="translate(-77.174 -207.188)"/>
        <path id="prefix__Path_110" d="M105.606 200.012h-8.23a1.372 1.372 0 0 0 0 2.744h8.231a1.372 1.372 0 0 0 0-2.744zm0 0" class="prefix__cls-1" data-name="Path 110" transform="translate(-77.174 -166.71)"/>
        <path id="prefix__Path_111" d="M105.606 424.012h-8.23a1.372 1.372 0 1 0 0 2.744h8.231a1.372 1.372 0 1 0 0-2.744zm0 0" class="prefix__cls-1" data-name="Path 111" transform="translate(-77.174 -353.613)"/>
        <path id="prefix__Path_112" d="M78.147 51.335l-22.585-33.9a23.37 23.37 0 0 0 3.664-3.957c2.565-3.6 3.023-7.017 1.289-9.62-3.45-5.18-14.347-5.139-24.808.094a38.891 38.891 0 0 0-4 2.337l-1.241-1.22a8.614 8.614 0 0 0-11.692 0L1.956 21.586A6.264 6.264 0 0 0 0 26.058V68c.009 6.624 6.2 11.993 13.846 12h21.543c7.643-.007 13.838-5.376 13.846-12V26.058A6.1 6.1 0 0 0 48 22.435h.012a38.165 38.165 0 0 0 5.219-3.154l22.252 33.387c2.976 4.464 1.212 10.174-3.94 12.752L52.89 74.753a11.66 11.66 0 0 1-2.615.923 1.327 1.327 0 0 0-1.091 1.631 1.574 1.574 0 0 0 1.882.946 15.1 15.1 0 0 0 3.355-1.191l18.652-9.333c6.626-3.312 8.9-10.653 5.074-16.394zM46.158 68c-.007 5.152-4.824 9.327-10.769 9.333H13.851C7.906 77.329 3.088 73.154 3.081 68V26.058a3.8 3.8 0 0 1 1.182-2.708L21.082 6.835a5.208 5.208 0 0 1 7.077 0l15 14.737a28.788 28.788 0 0 1-10.97 2.109 5.749 5.749 0 0 0 .119-1.012c0-3.68-3.446-6.662-7.692-6.667a1.7 1.7 0 0 0-.494.087 1.519 1.519 0 0 0-1.669 1.018 6.577 6.577 0 0 0 .752 5.414 8.224 8.224 0 0 0 4.495 3.116 5.148 5.148 0 0 1-4.965.7A4 4 0 0 1 20 22.669a1.447 1.447 0 0 0-1.538-1.333 1.447 1.447 0 0 0-1.538 1.333c0 2.956 2.241 5.56 5.513 6.394a8.288 8.288 0 0 0 8.63-2.786q.908.083 1.823.087a33.388 33.388 0 0 0 12.355-2.7 3.727 3.727 0 0 1 .909 2.391zM29.235 22.669a3.468 3.468 0 0 1-.068.583 5.62 5.62 0 0 1-3.293-2.064 3.807 3.807 0 0 1-.585-2.46 4.234 4.234 0 0 1 3.946 3.941zm17.241-2.555c-.153.077-.307.144-.461.219L33.754 8.289a35.717 35.717 0 0 1 3.492-2.02c8.667-4.338 18.1-4.829 20.6-1.066 1.143 1.714.7 4.16-1.242 6.887a19.728 19.728 0 0 1-2.646 2.956l-.016-.024a7.657 7.657 0 0 0-4.269-3.028l-6.025-1.765a1.6 1.6 0 0 0-1.907.85 1.294 1.294 0 0 0 .927 1.676L48.7 14.51a4.645 4.645 0 0 1 2.584 1.833l.392.588a34.719 34.719 0 0 1-5.2 3.187zm0 0" class="prefix__cls-1" data-name="Path 112"/>
        <path id="prefix__Path_113" d="M272.188 285.99a1.371 1.371 0 0 0 1.873.5l9.5-5.487a1.372 1.372 0 1 0-1.372-2.376l-9.5 5.487a1.372 1.372 0 0 0-.501 1.876zm0 0" class="prefix__cls-1" data-name="Path 113" transform="translate(-218.517 -232.183)"/>
        <path id="prefix__Path_114" d="M282.317 328.928a1.371 1.371 0 0 0 1.873.5l11.88-6.859a1.372 1.372 0 0 0-1.372-2.377l-11.88 6.859a1.372 1.372 0 0 0-.501 1.877zm0 0" class="prefix__cls-1" data-name="Path 114" transform="translate(-225.084 -266.88)"/>
        <path id="prefix__Path_115" d="M281.1 249.292a1.372 1.372 0 0 0 .686-.184l4.752-2.744a1.372 1.372 0 1 0-1.372-2.376l-4.752 2.744a1.372 1.372 0 0 0 .686 2.56zm0 0" class="prefix__cls-1" data-name="Path 115" transform="translate(-225.245 -203.25)"/>
    </g>
</svg>
