<svg xmlns="http://www.w3.org/2000/svg" width="240" height="150" viewBox="0 0 240 150"><defs><style>.a{fill:none;}.b{fill:#373737;}.c{fill:#fb6c42;}</style></defs><g transform="translate(-484 -1644)"><rect class="a" width="240" height="150" transform="translate(484 1644)"/><g transform="translate(532 1643.773)"><g transform="translate(0 6.227)"><path class="b" d="M140.189,6.227H34.243A3.077,3.077,0,0,0,31.166,9.3v61.18H3.077A3.077,3.077,0,0,0,0,73.562v52.161a18.682,18.682,0,0,0,18.66,18.661H124.606a18.682,18.682,0,0,0,18.661-18.661V9.3A3.078,3.078,0,0,0,140.189,6.227ZM6.155,125.722V76.639H31.166v49.084a12.505,12.505,0,1,1-25.011,0Zm130.956,0a12.52,12.52,0,0,1-12.506,12.506H32.5a18.591,18.591,0,0,0,4.822-12.506V12.382h99.791V125.722Z" transform="translate(0 -6.227)"/><path class="c" d="M197.6,84.01h39.443a3.077,3.077,0,1,0,0-6.155H197.6a3.077,3.077,0,1,0,0,6.155Z" transform="translate(-114.707 -48.465)"/><path class="c" d="M197.6,166.4h39.443a3.077,3.077,0,1,0,0-6.155H197.6a3.077,3.077,0,1,0,0,6.155Z" transform="translate(-114.707 -97.05)"/><path class="c" d="M197.6,248.8h39.443a3.077,3.077,0,0,0,0-6.155H197.6a3.077,3.077,0,0,0,0,6.155Z" transform="translate(-114.707 -145.637)"/><path class="c" d="M121.773,67.229a3.08,3.08,0,0,0,2.237.964h.026a3.078,3.078,0,0,0,2.247-1l16.9-18.514a3.077,3.077,0,1,0-4.546-4.15l-14.67,16.066-4.566-4.836a3.078,3.078,0,0,0-4.475,4.226Z" transform="translate(-67.277 -28.221)"/><path class="c" d="M138.642,130.5l-14.67,16.066-4.567-4.835a3.077,3.077,0,0,0-4.475,4.226l6.842,7.245a3.08,3.08,0,0,0,2.237.964h.026a3.078,3.078,0,0,0,2.247-1l16.9-18.513a3.077,3.077,0,1,0-4.546-4.15Z" transform="translate(-67.277 -78.917)"/><path class="c" d="M138.642,216.473l-14.67,16.066-4.567-4.835a3.077,3.077,0,0,0-4.475,4.226l6.842,7.245a3.08,3.08,0,0,0,2.237.964h.026a3.078,3.078,0,0,0,2.247-1l16.9-18.513a3.077,3.077,0,1,0-4.546-4.15Z" transform="translate(-67.277 -129.614)"/></g></g></g></svg>