<svg xmlns="http://www.w3.org/2000/svg" width="240" height="150" viewBox="0 0 240 150"><defs><style>.a{fill:none;}.b{fill:#373737;}.c{fill:#fb6c42;}</style></defs><g transform="translate(758 -1136)"><rect class="a" width="240" height="150" transform="translate(-758 1136)"/><g transform="translate(-702.411 1139)"><path class="b" d="M56.8,0h0a2.452,2.452,0,0,0-2.451,2.452V16.291A56.333,56.333,0,0,0,.448,70.983c-.006.066-.038.123-.038.192,0,.052.027.1.029.149-.007.4-.029.788-.029,1.185a56.338,56.338,0,0,0,53.935,56.217v13.84a2.452,2.452,0,0,0,2.451,2.452h0A72.509,72.509,0,0,0,56.8,0ZM5.371,73.626H15.12a2.451,2.451,0,1,0,0-4.9H5.506A51.116,51.116,0,0,1,16.891,40.075l7.057,6.833a2.452,2.452,0,0,0,3.412-3.522l-7.188-6.959A51.189,51.189,0,0,1,54.345,21.254V29.5a2.451,2.451,0,1,0,4.9,0V21.265A51.078,51.078,0,0,1,90.822,34.223l-6.293,6.5a2.451,2.451,0,1,0,3.522,3.409l6.269-6.475a51.114,51.114,0,0,1,13.55,31.066h-9.4a2.452,2.452,0,1,0,0,4.9H108a51.139,51.139,0,0,1-14.092,34.186l-6.665-6.453a2.45,2.45,0,0,0-3.409,3.521l6.533,6.325a51.08,51.08,0,0,1-31.124,12.547V115.3a2.451,2.451,0,0,0-4.9,0v8.462a51.079,51.079,0,0,1-31.278-12.5l5.305-5.481a2.451,2.451,0,0,0-3.522-3.409l-5.328,5.5A51.133,51.133,0,0,1,5.371,73.626Zm53.877,66.442V128.722a56.27,56.27,0,0,0,0-112.424V4.951a67.607,67.607,0,0,1,0,135.117Zm0,0" transform="translate(0)"/><path class="c" d="M157.426,190.5a9.806,9.806,0,1,0,19.612,0v-9.806a9.806,9.806,0,1,0-19.612,0Zm4.9-9.806a4.9,4.9,0,1,1,9.807,0V190.5a4.9,4.9,0,0,1-9.807,0Zm0,0" transform="translate(-100.629 -109.519)"/><path class="c" d="M105.791,186.652a4.908,4.908,0,0,1-4.9-4.9,2.451,2.451,0,1,0-4.9,0,9.806,9.806,0,1,0,16.286-7.355,9.8,9.8,0,1,0-16.286-7.355,2.451,2.451,0,1,0,4.9,0,4.9,4.9,0,1,1,4.9,4.9,2.451,2.451,0,1,0,0,4.9,4.9,4.9,0,1,1,0,9.805Zm0,0" transform="translate(-61.252 -100.769)"/><path class="c" d="M153.05,119.781a2.45,2.45,0,0,0,2.451-2.451V105.072a2.451,2.451,0,0,0-4.9,0v12.259A2.452,2.452,0,0,0,153.05,119.781Zm0,0" transform="translate(-96.253 -65.768)"/><path class="c" d="M153.05,252.809a2.452,2.452,0,0,0-2.452,2.451v12.258a2.451,2.451,0,1,0,4.9,0V255.26A2.45,2.45,0,0,0,153.05,252.809Zm0,0" transform="translate(-96.253 -162.022)"/></g></g></svg>