<svg xmlns="http://www.w3.org/2000/svg" width="240" height="150" viewBox="0 0 240 150">
    <defs>
        <style>
        .a {
            fill: none;
        }

        .b {
            fill: #ffffff;
        }

        .c {
            fill: #ffffff;
        }
        </style>
    </defs>
    <g transform="translate(-291 -134)">
        <rect class="a" width="240" height="150" transform="translate(291 134)" />
        <g transform="translate(171 104)">
            <g transform="translate(175 40)">
                <path class="b" d="M396.618,40.39a15.112,15.112,0,0,0,4.034-10.311,14.914,14.914,0,0,0-14.772-15.04c-6.144,0-20.3,9.189-25.965,17.444-5.85-8.254-19.955-17.177-25.858-17.177a14.931,14.931,0,0,0-14.773,15.04,15.121,15.121,0,0,0,3.767,10.017m0,0H294.52V76.292h7.8v69.642H417.641V76.319h7.773V40.39h-28.8m-9.083-.427h-22.6m0,0c-1.442-.428-1.9-.935-1.9-1.229,0-4.755,16.7-18.112,22.84-18.112,5.022,0,9.189,4.167,9.189,9.75a9.74,9.74,0,0,1-7.533,9.59m-32.35,0h-22.76m0,0a9.74,9.74,0,0,1-7.533-9.59c-.027-5.316,4.167-9.75,9.163-9.75,5.85,0,22.84,13.357,22.84,18.112,0,.427-.988.908-1.71,1.229M343.245,140.351H307.876V76.319h35.368Zm0-69.321H300.1V45.973h43.169V71.03Zm27.835,69.321H348.8v-94.4H371.08Zm40.951,0H376.663V76.319h35.368ZM419.8,71.03H376.663V45.973h43.169V71.03Z" transform="translate(-294.52 -15.039)" />
                <path class="c" d="M426.868,30.372c-.027-5.316,4.167-9.75,9.163-9.75,5.04,0,18.348,9.914,21.936,15.7H465.9c3.533-5.786,16.657-15.7,21.951-15.7,5.022,0,9.189,4.167,9.189,9.75a10.035,10.035,0,0,1-1.954,5.949h6.2a15.148,15.148,0,0,0,1.34-6.243,14.914,14.914,0,0,0-14.772-15.04c-6.144,0-20.3,9.189-25.965,17.444-5.85-8.254-19.955-17.177-25.858-17.177a14.931,14.931,0,0,0-14.772,15.04,15.154,15.154,0,0,0,1.22,5.976h6.344A10.036,10.036,0,0,1,426.868,30.372Z" transform="translate(-396.495 -15.039)" />
            </g>
        </g>
    </g>
</svg>