<svg xmlns="http://www.w3.org/2000/svg" width="90" height="95" viewBox="0 0 90 95">
    <defs>
        <linearGradient id="prefix__linear-gradient" x1=".5" x2=".5" y2="1" gradientUnits="objectBoundingBox">
            <stop offset="0" stop-color="#423f90"/>
            <stop offset=".82" stop-color="#8d68a8"/>
            <stop offset="1" stop-color="#9d71ad"/>
        </linearGradient>
        <style>
            .prefix__cls-1{fill:url(#prefix__linear-gradient)}
        </style>
    </defs>
    <g id="prefix__partner" transform="translate(-1 -1)">
        <path id="prefix__Path_133" d="M23 31h2v2h-2z" class="prefix__cls-1" data-name="Path 133" transform="translate(10.267 16.5)"/>
        <path id="prefix__Path_134" d="M27 31h2v2h-2z" class="prefix__cls-1" data-name="Path 134" transform="translate(12.133 16.5)"/>
        <path id="prefix__Path_135" d="M59.065 71.484H91v-5.3a11.178 11.178 0 0 0-3.035-7.733 10.232 10.232 0 0 0-4.814-2.876l-2.568-.675-.476-2.007a9.232 9.232 0 0 0 3.336-5.113l.737-.742a13.488 13.488 0 0 0 3.266-5.43 13.891 13.891 0 0 0 .65-4.212v-1.154a11.188 11.188 0 0 0-2.032-6.435 10.039 10.039 0 0 0-8.129-4.29h-5.806A10.039 10.039 0 0 0 64 29.806a11.188 11.188 0 0 0-2.032 6.435v1.152a13.944 13.944 0 0 0 .647 4.209 13.486 13.486 0 0 0 3.268 5.432l.737.742a9.236 9.236 0 0 0 3.336 5.115L69.48 54.9l-2.566.677a10.218 10.218 0 0 0-4.814 2.875 11.144 11.144 0 0 0-.825.993l-1.562-.824A23.84 23.84 0 0 0 61.968 48.5a23.312 23.312 0 0 0-9.9-19.242l5.526-10.416a8.229 8.229 0 0 0 2.924.545 8.97 8.97 0 0 0 8.71-9.194 8.722 8.722 0 1 0-17.419 0 9.381 9.381 0 0 0 3.25 7.154l-5.53 10.422a20.644 20.644 0 0 0-9.335-2.252 21 21 0 0 0-13.946 5.353 9.1 9.1 0 0 0-3.572-4.016 8.31 8.31 0 0 0 4.454-7.467L25.76 11.3A12.077 12.077 0 0 0 14.065 1a12.077 12.077 0 0 0-11.7 10.3l-1.346 7.81-.019.277a8.31 8.31 0 0 0 4.467 7.474 9.3 9.3 0 0 0-4.467 8v2.913h19.951a23.766 23.766 0 0 0-2.458 9.194h-7.568a5.118 5.118 0 0 0-4.844-3.831 5.371 5.371 0 0 0 0 10.726 5.118 5.118 0 0 0 4.844-3.831h7.569A23.568 23.568 0 0 0 23.51 63.24L21.8 64.6c-.062-.052-.118-.112-.181-.162a9.877 9.877 0 0 0-6.1-2.145h-2.9a9.87 9.87 0 0 0-6.1 2.145 10.99 10.99 0 0 0-4.065 8.581 5.367 5.367 0 0 0 1.479 3.728l3.277 3.279a7.734 7.734 0 0 0 1.579 2.816l-.266 1.12-.523.111a9.108 9.108 0 0 0-7 9.014V96h26.129v-2.913a9.108 9.108 0 0 0-7-9.014l-.523-.11-.266-1.12a7.734 7.734 0 0 0 1.579-2.816l3.307-3.311a5.346 5.346 0 0 0 1.452-3.7 11.166 11.166 0 0 0-1.878-6.175l1.746-1.382a21.06 21.06 0 0 0 14.647 6.025 20.653 20.653 0 0 0 6.717-1.131l3.266 8.619A9.3 9.3 0 0 0 46 86.806a8.722 8.722 0 1 0 8.71-9.194 8.211 8.211 0 0 0-1.841.211L49.6 69.2a22.3 22.3 0 0 0 8.675-7.908l1.539.812a11.429 11.429 0 0 0-.749 4.083zm1.451-67.419a5.98 5.98 0 0 1 5.806 6.129 5.815 5.815 0 1 1-11.613 0 5.98 5.98 0 0 1 5.807-6.129zM6.081 50.8a2.3 2.3 0 0 1 0-4.6 2.3 2.3 0 0 1 0 4.6zm54.435 36.006a5.815 5.815 0 1 1-5.806-6.129 5.98 5.98 0 0 1 5.806 6.129zm-42.1-68.952a4.486 4.486 0 0 1-4.355 4.6 4.486 4.486 0 0 1-4.355-4.6v-2.7a1.533 1.533 0 0 1 .8-1.37l3.552-1.875 3.552 1.875a1.533 1.533 0 0 1 .8 1.37zm-6.741 7.2a6.829 6.829 0 0 0 2.386.46 6.829 6.829 0 0 0 2.386-.46l.43 1.814-2.816 5.945-2.816-5.945zM3.9 19.516l1.321-7.664a9.127 9.127 0 0 1 8.839-7.787 9.127 9.127 0 0 1 8.84 7.786l1.321 7.664a5.229 5.229 0 0 1-3.13 4.752l-1.669.7-.375-1.578a7.822 7.822 0 0 0 2.272-5.539v-2.7a4.6 4.6 0 0 0-2.407-4.111L14.065 8.48l-4.851 2.56a4.6 4.6 0 0 0-2.407 4.111v2.7A7.829 7.829 0 0 0 9.078 23.4L8.7 24.974l-1.671-.7A5.232 5.232 0 0 1 3.9 19.516zm4.667 9.336l.335-.07 2.809 5.928H3.906a6.061 6.061 0 0 1 4.666-5.858zm7.842 5.858l2.809-5.93.337.07a5.967 5.967 0 0 1 4.439 4.35q-.618.729-1.177 1.512h-6.4zm.467 50.385l-2.816 5.947-2.812-5.942.093-.392a6.79 6.79 0 0 0 5.446 0zm1.539-7.482a4.486 4.486 0 0 1-4.355 4.6 4.486 4.486 0 0 1-4.355-4.6V75.5l4.355-2.3 4.355 2.3zm-9.843 9.465l.335-.07 2.809 5.928h-7.81a6.061 6.061 0 0 1 4.666-5.858zm15.653 5.858h-7.81l2.809-5.93.337.07a6.067 6.067 0 0 1 4.663 5.859zM22.2 74.519l-.878.88V73.6l-7.258-3.831L6.806 73.6v1.8l-.851-.85a2.247 2.247 0 0 1-.6-1.532 7.852 7.852 0 0 1 2.9-6.129 7.049 7.049 0 0 1 4.355-1.532h2.9a7.049 7.049 0 0 1 4.355 1.532 7.849 7.849 0 0 1 2.9 6.129 2.226 2.226 0 0 1-.565 1.501zM21.323 48.5c0-10.983 8.466-19.919 18.871-19.919S59.065 37.517 59.065 48.5a20.583 20.583 0 0 1-2.9 10.568V46.375l-8.71 3.065v-7.7L37.29 31.011 27.129 41.737v21.1A20.392 20.392 0 0 1 21.323 48.5zm23.225 19.363V53.691l2.9-1.022v14.215a18.294 18.294 0 0 1-2.9.979zM37.055 53.1h-4.12v3.065h2.9v3.065h-2.9v3.06h2.9v5.573a18.212 18.212 0 0 1-5.806-2.6V43.9h14.519v6.56zm-4.97-12.258l5.205-5.495 5.21 5.492zm18.27 10.809l2.9-1.022V62.84a19.143 19.143 0 0 1-2.9 2.418zm-11.613 16.69V55.732l2.9-1.022v13.63c-.48.041-.961.08-1.452.08s-.968-.039-1.448-.079zm43.705-9.793a7.382 7.382 0 0 1 3.465 2.07 8.052 8.052 0 0 1 2.188 5.567v2.234H76.484V62.8l3.485-4.906zM65.369 40.635a10.729 10.729 0 0 1-.5-3.241v-1.152a7.99 7.99 0 0 1 1.452-4.6 7.17 7.17 0 0 1 5.806-3.065h5.806a7.172 7.172 0 0 1 5.806 3.065 7.99 7.99 0 0 1 1.452 4.6v1.152a10.736 10.736 0 0 1-.5 3.241 10.521 10.521 0 0 1-.954 2.134v-.826a3.049 3.049 0 0 0-1.984-2.907 13.551 13.551 0 0 1-5.3-3.458l-1.424-1.5-1.423 1.5a13.551 13.551 0 0 1-5.3 3.458 3.052 3.052 0 0 0-1.986 2.908v.826a10.521 10.521 0 0 1-.951-2.135zm3.857 1.309a16.379 16.379 0 0 0 5.806-3.569 16.379 16.379 0 0 0 5.806 3.569v3.492a5.815 5.815 0 1 1-11.613 0zm5.806 12.686a8.2 8.2 0 0 0 2.408-.366l.37 1.563-2.778 3.91-2.778-3.91.37-1.563a8.2 8.2 0 0 0 2.408.366zm-7.415 3.92l2.476-.654 3.488 4.904v5.619H61.968v-2.234a8.047 8.047 0 0 1 2.185-5.567 7.382 7.382 0 0 1 3.464-2.069z" class="prefix__cls-1" data-name="Path 135"/>
    </g>
</svg>
