<svg xmlns="http://www.w3.org/2000/svg" width="240" height="150" viewBox="0 0 240 150"><defs><style>.a{fill:none;}.b{fill:#fff;}.c{fill:#fff;}</style></defs><g transform="translate(-505 -2255)"><rect class="a" width="240" height="150" transform="translate(505 2255)"/><g transform="translate(-474.266 -60.619)"><g transform="translate(1091.249 2323.619)"><path class="b" d="M233.789,60.476a11.52,11.52,0,0,0-3.759-1.661c-.178-.05-.352-.09-.53-.137v-7.9a6,6,0,0,1,2.816,1.068A3.206,3.206,0,0,1,233.267,53a3.389,3.389,0,0,1,.315,1.473,1.294,1.294,0,1,0,2.588,0,5.974,5.974,0,0,0-.568-2.589,6.118,6.118,0,0,0-2.918-2.839,9.882,9.882,0,0,0-3.183-.871V47.038a1.294,1.294,0,0,0-2.588,0V48.1a9.028,9.028,0,0,0-2.525.54,6.391,6.391,0,0,0-3.2,2.561,6.18,6.18,0,0,0-.945,3.269,5.2,5.2,0,0,0,2.437,4.6,12.641,12.641,0,0,0,3.721,1.485l.511.129v8.5a5.287,5.287,0,0,1-2.872-1.093,3.366,3.366,0,0,1-1.21-2.665,1.294,1.294,0,0,0-2.588,0,5.975,5.975,0,0,0,2.126,4.64,7.927,7.927,0,0,0,4.543,1.73v1.124a1.294,1.294,0,0,0,2.588,0V71.753a9.278,9.278,0,0,0,4-1.233,5.512,5.512,0,0,0,1.959-2.061,6.884,6.884,0,0,0-.026-6.131A5.734,5.734,0,0,0,233.789,60.476Zm-6.878-2.461a9.107,9.107,0,0,1-3.009-1.241,2.577,2.577,0,0,1-.781-.9,3.028,3.028,0,0,1-.292-1.4A3.568,3.568,0,0,1,223.836,52a4.015,4.015,0,0,1,1.472-.939,6.372,6.372,0,0,1,1.6-.357v7.309Zm6.273,9.214a2.816,2.816,0,0,1-.725.862,4.892,4.892,0,0,1-1.889.864,9.2,9.2,0,0,1-1.07.191V61.358a10.951,10.951,0,0,1,2.1.8,3.776,3.776,0,0,1,1.447,1.225,3.584,3.584,0,0,1,.531,2.05A3.733,3.733,0,0,1,233.184,67.229Z" transform="translate(-220.242 -45.744)"/></g><g transform="translate(1080.673 2357.457)"><path class="c" d="M33.731,5.788A19.759,19.759,0,1,0,5.788,33.731,19.759,19.759,0,1,0,33.731,5.788ZM32.143,32.143A17.512,17.512,0,0,1,7.377,7.377,17.512,17.512,0,1,1,32.143,32.143Z"/><path class="c" d="M146.67,129.256a1.119,1.119,0,0,0-1.588,0l-7.119,7.119-7.119-7.119a1.123,1.123,0,0,0-1.588,1.588l7.119,7.119-7.119,7.119a1.127,1.127,0,0,0,.79,1.921,1.1,1.1,0,0,0,.79-.333l7.119-7.119,7.119,7.119a1.13,1.13,0,0,0,.79.333,1.082,1.082,0,0,0,.79-.333,1.119,1.119,0,0,0,0-1.588l-7.1-7.119,7.119-7.119A1.119,1.119,0,0,0,146.67,129.256Z" transform="translate(-118.203 -118.203)"/></g><g transform="translate(1016.266 2385.942)"><path class="b" d="M153.27,251.045a12.218,12.218,0,0,0-5.016,1.118,12.295,12.295,0,0,0-15.378-3.436l-.17.095-5.088,3.018a12.282,12.282,0,0,0-15.111-3.112l-.2.115L92.822,260.773c-4.4-1.3-9.284-2.726-14-4.064-4.979-1.413-9.767-2.726-13.606-3.694-1.922-.485-3.6-.883-4.977-1.167-.689-.143-1.3-.255-1.842-.339a10.28,10.28,0,0,0-1.527-.141,9.373,9.373,0,0,0-1.141.085c-1.435.189-3.476.626-5.883,1.19-4.918,1.156-11.195,2.837-14.663,3.781v-5.87a7.428,7.428,0,0,0-7.407-7.407H7.407A7.429,7.429,0,0,0,0,250.556v57.4a7.428,7.428,0,0,0,7.407,7.407H27.774a7.428,7.428,0,0,0,7.407-7.407V303.5c4.4.957,14.152,3.064,24.438,5.177,6.957,1.428,14.146,2.857,20.084,3.935,2.97.539,5.627.989,7.8,1.307a40.3,40.3,0,0,0,5.075.52,10.81,10.81,0,0,0,2.881-.461,39.852,39.852,0,0,0,6.353-2.572c8.371-4.081,20.393-11.726,31.734-19.292,11.321-7.556,21.91-15.018,27.1-18.592A12.081,12.081,0,0,0,165.72,263.5,12.458,12.458,0,0,0,153.27,251.045ZM29.625,307.955a1.876,1.876,0,0,1-1.851,1.851H7.407a1.876,1.876,0,0,1-1.851-1.851v-57.4A1.876,1.876,0,0,1,7.407,248.7H27.774a1.876,1.876,0,0,1,1.851,1.851ZM157.5,268.946c-6.381,4.4-20.658,14.478-34.479,23.454-6.9,4.484-13.694,8.69-19.262,11.737a78.765,78.765,0,0,1-7.245,3.579,22.975,22.975,0,0,1-2.544.911,5.841,5.841,0,0,1-1.385.255,37.069,37.069,0,0,1-4.27-.461c-7.3-1.068-20.951-3.8-32.709-6.249-5.884-1.228-11.3-2.387-15.253-3.239-2.294-.494-4.064-.881-5.168-1.12V262.186c.543-.15,1.254-.344,2.107-.576,2.928-.794,7.4-1.985,11.4-2.972,2-.495,3.892-.935,5.394-1.248.748-.155,1.4-.279,1.9-.359a7.622,7.622,0,0,1,.879-.105,6.748,6.748,0,0,1,.7.078c1.533.229,4.675.965,8.5,1.966,11.534,3.013,29.72,8.458,37.067,10.689a16.6,16.6,0,0,1,6.355,3.324,7.382,7.382,0,0,1,1.713,2.257,6.338,6.338,0,0,1,.6,2.768,7.855,7.855,0,0,1-7.8,7.857l-7.168-.7-24.462-3.141a2.778,2.778,0,1,0-.709,5.51l24.541,3.149,7.6.744h.137a13.422,13.422,0,0,0,13.417-13.417,11.911,11.911,0,0,0-1.141-5.153,13.947,13.947,0,0,0-4.877-5.466,24.289,24.289,0,0,0-6.592-3.044c-1.289-.391-2.912-.883-4.768-1.441l15.074-9.234a6.7,6.7,0,0,1,7.681,1.065l-7.447,4.416a2.778,2.778,0,0,0,2.837,4.777l17.287-10.252a6.706,6.706,0,0,1,7.942,1.3l-20.129,11.937a2.778,2.778,0,0,0,2.837,4.777l21.766-12.909a2.644,2.644,0,0,0,1.72-1.021l.679-.4a6.793,6.793,0,0,1,3.051-.761,6.9,6.9,0,0,1,6.894,6.9A6.581,6.581,0,0,1,157.5,268.946Z" transform="translate(0 -243.149)"/></g></g></g></svg>