<svg xmlns="http://www.w3.org/2000/svg" width="240" height="150" viewBox="0 0 240 150"><defs><style>.a{fill:none;}.b{fill:#373737;}.c{fill:#fb6c42;}</style></defs><g transform="translate(-736 -1527)"><rect class="a" width="240" height="150" transform="translate(736 1527)"/><g transform="translate(595 1051.908)"><g transform="translate(202 485.092)"><g transform="translate(0 0)"><g transform="translate(0 0)"><path class="b" d="M141.462,62.851H122.553V2.555A2.555,2.555,0,0,0,118.191.749l-7.238,7.238L103.716.749a2.555,2.555,0,0,0-3.613,0L92.865,7.986,85.628.749a2.555,2.555,0,0,0-3.613,0L74.777,7.986,67.539.749a2.555,2.555,0,0,0-3.613,0L56.689,7.986,49.452.749a2.555,2.555,0,0,0-3.613,0L38.6,7.986,31.363.749a2.554,2.554,0,0,0-4.358,1.874v114.9a13.3,13.3,0,0,0,13.285,13.285h90.441a13.3,13.3,0,0,0,13.285-13.285V65.406A2.555,2.555,0,0,0,141.462,62.851ZM40.291,125.7a8.185,8.185,0,0,1-8.175-8.175V8.727l4.679,4.679a2.555,2.555,0,0,0,3.613,0l7.238-7.238,7.238,7.238a2.555,2.555,0,0,0,3.613,0l7.238-7.238,7.238,7.238a2.555,2.555,0,0,0,3.613,0l7.238-7.238,7.238,7.238a2.555,2.555,0,0,0,3.613,0l7.238-7.238,7.238,7.238a2.555,2.555,0,0,0,3.613,0l4.683-4.683V65.406c0,.023,0,.046,0,.069v52.051a13.216,13.216,0,0,0,2.825,8.175Zm98.617-8.175a8.175,8.175,0,0,1-16.351,0V67.961h16.351Z" transform="translate(-27.005 0)"/></g></g><g transform="translate(31.705 68.984)"><g transform="translate(0)"><path class="b" d="M194.128,270.007H153.652a2.555,2.555,0,1,0,0,5.11h40.476a2.555,2.555,0,1,0,0-5.11Z" transform="translate(-151.097 -270.007)"/></g></g><g transform="translate(18.258 68.984)"><path class="c" d="M102.829,270.756a2.554,2.554,0,1,0,.749,1.806A2.574,2.574,0,0,0,102.829,270.756Z" transform="translate(-98.468 -270.007)"/></g><g transform="translate(31.705 85.846)"><g transform="translate(0)"><path class="b" d="M194.128,336H153.652a2.555,2.555,0,1,0,0,5.11h40.476a2.555,2.555,0,1,0,0-5.11Z" transform="translate(-151.097 -336.005)"/></g></g><g transform="translate(18.258 85.846)"><path class="c" d="M102.829,336.754a2.554,2.554,0,1,0,.749,1.806A2.574,2.574,0,0,0,102.829,336.754Z" transform="translate(-98.468 -336.005)"/></g><g transform="translate(31.705 102.708)"><g transform="translate(0)"><path class="b" d="M194.128,402H153.652a2.555,2.555,0,1,0,0,5.11h40.476a2.555,2.555,0,1,0,0-5.11Z" transform="translate(-151.097 -402.003)"/></g></g><g transform="translate(18.258 102.708)"><path class="c" d="M102.829,402.752a2.554,2.554,0,1,0,.749,1.806A2.574,2.574,0,0,0,102.829,402.752Z" transform="translate(-98.468 -402.003)"/></g></g><g transform="translate(233.424 507.492)"><path class="c" d="M32.878,5.642A19.259,19.259,0,1,0,5.642,32.878,19.259,19.259,0,1,0,32.878,5.642ZM31.329,31.329A17.069,17.069,0,0,1,7.19,7.19,17.069,17.069,0,1,1,31.329,31.329Z"/><path class="c" d="M146.221,129.247a1.091,1.091,0,0,0-1.548,0l-6.939,6.939-6.939-6.939a1.095,1.095,0,0,0-1.548,1.548l6.939,6.939-6.939,6.939a1.1,1.1,0,0,0,.77,1.873,1.068,1.068,0,0,0,.77-.324l6.939-6.939,6.939,6.939a1.1,1.1,0,0,0,.77.324,1.055,1.055,0,0,0,.77-.324,1.091,1.091,0,0,0,0-1.548l-6.922-6.939,6.939-6.939A1.091,1.091,0,0,0,146.221,129.247Z" transform="translate(-118.474 -118.474)"/></g></g></g></svg>