<svg xmlns="http://www.w3.org/2000/svg" width="240" height="150" viewBox="0 0 240 150"><defs><style>.a{fill:none;}.b{fill:#fff;}.c{fill:#fff;}</style></defs><g transform="translate(-401 -1527)"><rect class="a" width="240" height="150" transform="translate(401 1527)"/><g transform="translate(437.995 1540)"><g transform="translate(27.005 0)"><g transform="translate(0 0)"><path class="b" d="M136.171,59.946H118.135V2.437a2.437,2.437,0,0,0-4.16-1.723l-6.9,6.9-6.9-6.9a2.437,2.437,0,0,0-3.446,0l-6.9,6.9-6.9-6.9a2.437,2.437,0,0,0-3.446,0l-6.9,6.9-6.9-6.9a2.437,2.437,0,0,0-3.446,0l-6.9,6.9-6.9-6.9a2.437,2.437,0,0,0-3.446,0l-6.9,6.9-6.9-6.9A2.436,2.436,0,0,0,27.005,2.5V112.093a12.685,12.685,0,0,0,12.671,12.671h86.26a12.685,12.685,0,0,0,12.671-12.671V62.382A2.437,2.437,0,0,0,136.171,59.946ZM39.676,119.891a7.806,7.806,0,0,1-7.8-7.8V8.323l4.463,4.463a2.437,2.437,0,0,0,3.446,0l6.9-6.9,6.9,6.9a2.437,2.437,0,0,0,3.446,0l6.9-6.9,6.9,6.9a2.437,2.437,0,0,0,3.446,0l6.9-6.9,6.9,6.9a2.437,2.437,0,0,0,3.446,0l6.9-6.9,6.9,6.9a2.437,2.437,0,0,0,3.446,0l4.466-4.466V62.382c0,.022,0,.044,0,.066v49.645a12.6,12.6,0,0,0,2.694,7.8Zm94.057-7.8a7.8,7.8,0,0,1-15.6,0V64.819h15.6Z" transform="translate(-27.005 0)"/></g></g><g transform="translate(63.311 22.544)"><path class="c" d="M185.256,108.679c-2.419,0-4.386-1.685-4.386-3.755s1.968-3.756,4.386-3.756,4.386,1.685,4.386,3.756a2.437,2.437,0,0,0,4.874,0,8.767,8.767,0,0,0-6.823-8.323V94.95a2.437,2.437,0,1,0-4.874,0V96.6A8.767,8.767,0,0,0,176,104.924c0,4.758,4.154,8.629,9.26,8.629,2.419,0,4.386,1.685,4.386,3.756s-1.967,3.755-4.386,3.755-4.386-1.685-4.386-3.755a2.437,2.437,0,0,0-4.874,0,8.767,8.767,0,0,0,6.823,8.323v1.988a2.437,2.437,0,1,0,4.874,0v-1.988a8.767,8.767,0,0,0,6.823-8.323C194.515,112.55,190.361,108.679,185.256,108.679Z" transform="translate(-175.996 -92.513)"/></g><g transform="translate(89.866 38.71)"><path class="b" d="M292.157,158.856h-4.749a2.437,2.437,0,0,0,0,4.874h4.749a2.437,2.437,0,1,0,0-4.874Z" transform="translate(-284.971 -158.856)"/></g><g transform="translate(45.652 38.71)"><g transform="translate(0)"><path class="b" d="M110.716,158.856h-4.749a2.437,2.437,0,1,0,0,4.874h4.749a2.437,2.437,0,1,0,0-4.874Z" transform="translate(-103.53 -158.856)"/></g></g><g transform="translate(57.243 65.795)"><g transform="translate(0)"><path class="c" d="M192.138,270.007h-38.6a2.437,2.437,0,1,0,0,4.874h38.6a2.437,2.437,0,1,0,0-4.874Z" transform="translate(-151.097 -270.007)"/></g></g><g transform="translate(44.419 65.795)"><path class="b" d="M102.628,270.721a2.436,2.436,0,1,0,.714,1.723A2.455,2.455,0,0,0,102.628,270.721Z" transform="translate(-98.468 -270.007)"/></g><g transform="translate(57.243 81.878)"><g transform="translate(0)"><path class="c" d="M192.138,336h-38.6a2.437,2.437,0,1,0,0,4.874h38.6a2.437,2.437,0,1,0,0-4.874Z" transform="translate(-151.097 -336.005)"/></g></g><g transform="translate(44.419 81.878)"><path class="b" d="M102.628,336.719a2.436,2.436,0,1,0,.714,1.723A2.455,2.455,0,0,0,102.628,336.719Z" transform="translate(-98.468 -336.005)"/></g><g transform="translate(57.243 97.96)"><g transform="translate(0)"><path class="c" d="M192.138,402h-38.6a2.437,2.437,0,1,0,0,4.874h38.6a2.437,2.437,0,1,0,0-4.874Z" transform="translate(-151.097 -402.003)"/></g></g><g transform="translate(44.419 97.96)"><path class="b" d="M102.628,402.717a2.436,2.436,0,1,0,.714,1.723A2.455,2.455,0,0,0,102.628,402.717Z" transform="translate(-98.468 -402.003)"/></g></g></g></svg>