<svg xmlns="http://www.w3.org/2000/svg" width="80" height="80" viewBox="0 0 80 80">
    <defs>
        <linearGradient id="prefix__linear-gradient" x1=".5" x2=".5" y2="1" gradientUnits="objectBoundingBox">
            <stop offset="0" stop-color="#423f90"/>
            <stop offset="1" stop-color="#9d71ad"/>
        </linearGradient>
        <style>
            .prefix__cls-1{fill:url(#prefix__linear-gradient)}
        </style>
    </defs>
    <g id="prefix__clipboard_1_" data-name="clipboard (1)" transform="translate(-16.102)">
        <g id="prefix__Group_58" data-name="Group 58" transform="translate(28.8 35.043)">
            <g id="prefix__Group_57" data-name="Group 57">
                <path id="prefix__Rectangle_29" d="M0 0H39V4H0z" class="prefix__cls-1" data-name="Rectangle 29"/>
            </g>
        </g>
        <g id="prefix__Group_60" data-name="Group 60" transform="translate(28.791 44.284)">
            <g id="prefix__Group_59" data-name="Group 59">
                <path id="prefix__Path_92" d="M80.1 240v3.241h31.539l3.242-3.241z" class="prefix__cls-1" data-name="Path 92" transform="translate(-80.102 -239.998)"/>
            </g>
        </g>
        <g id="prefix__Group_62" data-name="Group 62" transform="translate(28.839 53.141)">
            <g id="prefix__Group_61" data-name="Group 61">
                <path id="prefix__Path_93" d="M80.1 288v3.241h21.816l3.243-3.241z" class="prefix__cls-1" data-name="Path 93" transform="translate(-80.102 -287.998)"/>
            </g>
        </g>
        <g id="prefix__Group_64" data-name="Group 64" transform="translate(28.907 61.439)">
            <g id="prefix__Group_63" data-name="Group 63">
                <path id="prefix__Rectangle_30" d="M0 0H16V4H0z" class="prefix__cls-1" data-name="Rectangle 30"/>
            </g>
        </g>
        <g id="prefix__Group_66" data-name="Group 66" transform="translate(16.102)">
            <g id="prefix__Group_65" data-name="Group 65">
                <path id="prefix__Path_94" d="M95.165 31.686L90.637 27.5a3.388 3.388 0 0 0-4.528 0L51.32 59.692v8.456c7.708 0 5.758 0 8.988-.013l16.626-15.386v21.325a3.089 3.089 0 0 1-3.2 2.963H22.505a3.089 3.089 0 0 1-3.2-2.963V20.74a3.089 3.089 0 0 1 3.2-2.963h6.4V23.7h38.424v-5.922h6.4a3.089 3.089 0 0 1 3.2 2.963v11l3.2-2.984V20.74a6.178 6.178 0 0 0-6.4-5.926h-6.953a9.351 9.351 0 0 0-6.392-5.58 4.255 4.255 0 0 1-3.033-2.806 9.844 9.844 0 0 0-18.464 0 4.262 4.262 0 0 1-3.038 2.808 9.353 9.353 0 0 0-6.392 5.579h-6.952a6.178 6.178 0 0 0-6.4 5.926v53.333a6.179 6.179 0 0 0 6.4 5.926h51.227a6.179 6.179 0 0 0 6.4-5.926V49.786l15.03-13.91a2.811 2.811 0 0 0 .003-4.19zM32.111 17.73a6.047 6.047 0 0 1 4.625-5.647 7.336 7.336 0 0 0 5.228-4.836 6.564 6.564 0 0 1 12.31 0 7.328 7.328 0 0 0 5.226 4.835 6.036 6.036 0 0 1 4.628 5.7v2.963H32.111zm26.863 47.449c-.83 0-1.17.006-2.319.006l-2.133-1.974v-2.292l2.157-2 4.528 4.19zm4.5-4.161l-4.528-4.19 20.372-18.856 4.528 4.19zm22.635-20.951l-4.528-4.19 2.264-2.1 4.528 4.19zm4.528-4.19l-4.528-4.19 2.264-2.1 4.528 4.19z" class="prefix__cls-1" data-name="Path 94" transform="translate(-16.102)"/>
            </g>
        </g>
        <g id="prefix__Group_68" data-name="Group 68" transform="translate(45.742 7.292)">
            <g id="prefix__Group_67" data-name="Group 67">
                <circle id="prefix__Ellipse_5" cx="2.431" cy="2.431" r="2.431" class="prefix__cls-1" data-name="Ellipse 5"/>
            </g>
        </g>
    </g>
</svg>
