<svg xmlns="http://www.w3.org/2000/svg" width="240" height="150" viewBox="0 0 240 150"><defs><style>.a{fill:#fff;}.b{fill:#fff;}.c{fill:none;}</style></defs><g transform="translate(-782 -1654)"><g transform="translate(837.198 1665.026)"><g transform="translate(12.826 22.237)"><path class="a" d="M21,34.133a2.224,2.224,0,0,0-2.223,2.223V86.835a2.223,2.223,0,1,0,4.447,0V36.357A2.225,2.225,0,0,0,21,34.133Z" transform="translate(-18.774 -34.133)"/></g><g transform="translate(24.389 84.501)"><path class="a" d="M88.335,129.707H38.746a2.223,2.223,0,1,0,0,4.447H88.335a2.223,2.223,0,0,0,0-4.447Z" transform="translate(-36.523 -129.707)"/></g><g transform="translate(86.208 22.237)"><path class="a" d="M133.637,34.133a2.224,2.224,0,0,0-2.223,2.223V86.835a2.223,2.223,0,0,0,4.447,0V36.357A2.225,2.225,0,0,0,133.637,34.133Z" transform="translate(-131.414 -34.133)"/></g><g transform="translate(24.389 11.119)"><path class="a" d="M88.556,17.067H38.746a2.223,2.223,0,1,0,0,4.447h49.81a2.223,2.223,0,1,0,0-4.447Z" transform="translate(-36.523 -17.067)"/></g><g transform="translate(75.089)"><path class="a" d="M127.689,0a13.342,13.342,0,1,0,13.342,13.342A13.357,13.357,0,0,0,127.689,0Zm0,22.237a8.895,8.895,0,1,1,8.895-8.895A8.9,8.9,0,0,1,127.689,22.237Z" transform="translate(-114.347)"/></g><g transform="translate(1.707 73.382)"><path class="a" d="M15.049,112.64a13.342,13.342,0,1,0,13.342,13.342A13.357,13.357,0,0,0,15.049,112.64Zm0,22.237a8.895,8.895,0,1,1,8.895-8.895A8.9,8.9,0,0,1,15.049,134.877Z" transform="translate(-1.707 -112.64)"/></g><g transform="translate(75.089 73.382)"><path class="a" d="M127.689,112.64a13.342,13.342,0,1,0,13.342,13.342A13.357,13.357,0,0,0,127.689,112.64Zm0,22.237a8.895,8.895,0,1,1,8.895-8.895A8.9,8.9,0,0,1,127.689,134.877Z" transform="translate(-114.347 -112.64)"/></g><g transform="translate(39.51 52.033)"><path class="a" d="M61.957,79.87a2.224,2.224,0,0,0-2.223,2.223v49.813a2.223,2.223,0,0,0,4.447,0V82.094A2.224,2.224,0,0,0,61.957,79.87Z" transform="translate(-59.734 -79.87)"/></g><g transform="translate(51.295 113.409)"><path class="a" d="M129.859,174.08H80.047a2.223,2.223,0,1,0,0,4.447h49.811a2.223,2.223,0,0,0,0-4.447Z" transform="translate(-77.824 -174.08)"/></g><g transform="translate(112.892 51.812)"><path class="a" d="M174.6,79.531a2.224,2.224,0,0,0-2.223,2.223v49.811a2.223,2.223,0,1,0,4.447,0V81.754A2.224,2.224,0,0,0,174.6,79.531Z" transform="translate(-172.374 -79.531)"/></g><g transform="translate(51.295 40.027)"><path class="a" d="M129.858,61.44H80.046a2.223,2.223,0,1,0,0,4.447h49.812a2.223,2.223,0,0,0,0-4.447Z" transform="translate(-77.823 -61.44)"/></g><g transform="translate(28.391 28.908)"><g transform="translate(0)"><path class="a" d="M56.009,44.373A13.342,13.342,0,1,0,69.351,57.715,13.357,13.357,0,0,0,56.009,44.373Zm0,22.237A8.895,8.895,0,1,1,64.9,57.716,8.9,8.9,0,0,1,56.009,66.61Z" transform="translate(-42.667 -44.373)"/></g></g><g transform="translate(101.773 28.908)"><path class="a" d="M168.649,44.373a13.342,13.342,0,1,0,13.342,13.342A13.357,13.357,0,0,0,168.649,44.373Zm0,22.237a8.895,8.895,0,1,1,8.895-8.895A8.9,8.9,0,0,1,168.649,66.61Z" transform="translate(-155.307 -44.373)"/></g><g transform="translate(28.391 102.29)"><g transform="translate(0)"><path class="a" d="M56.009,157.013a13.342,13.342,0,1,0,13.342,13.342A13.357,13.357,0,0,0,56.009,157.013Zm0,22.237a8.895,8.895,0,1,1,8.895-8.895A8.9,8.9,0,0,1,56.009,179.25Z" transform="translate(-42.667 -157.013)"/></g></g><g transform="translate(101.773 102.29)"><path class="b" d="M168.649,157.013a13.342,13.342,0,1,0,13.342,13.342A13.357,13.357,0,0,0,168.649,157.013Zm0,22.237a8.895,8.895,0,1,1,8.895-8.895A8.9,8.9,0,0,1,168.649,179.25Z" transform="translate(-155.307 -157.013)"/></g><g transform="translate(92.879 93.395)"><path class="a" d="M156.568,155.13,145.45,144.012a2.223,2.223,0,1,0-3.144,3.144l11.119,11.119a2.223,2.223,0,0,0,3.144-3.144Z" transform="translate(-141.654 -143.36)"/></g><g transform="translate(19.497 93.395)"><path class="a" d="M43.928,155.13,32.81,144.012a2.223,2.223,0,1,0-3.144,3.144l11.119,11.119a2.223,2.223,0,1,0,3.144-3.144Z" transform="translate(-29.014 -143.36)"/></g><g transform="translate(92.879 20.013)"><path class="a" d="M156.568,42.49,145.45,31.372a2.223,2.223,0,0,0-3.144,3.144l11.119,11.119a2.223,2.223,0,0,0,3.144-3.144Z" transform="translate(-141.654 -30.72)"/></g><g transform="translate(19.497 20.013)"><path class="a" d="M43.928,42.49,32.81,31.372a2.223,2.223,0,0,0-3.144,3.144L40.784,45.634a2.223,2.223,0,0,0,3.145-3.144Z" transform="translate(-29.014 -30.72)"/></g><g transform="translate(1.707)"><path class="b" d="M15.049,0A13.342,13.342,0,1,0,28.391,13.342,13.357,13.357,0,0,0,15.049,0Zm0,22.237a8.895,8.895,0,1,1,8.895-8.895A8.9,8.9,0,0,1,15.049,22.237Z" transform="translate(-1.707)"/></g></g><rect class="c" width="240" height="150" transform="translate(782 1654)"/></g></svg>