<svg xmlns="http://www.w3.org/2000/svg" width="79.226" height="80" viewBox="0 0 79.226 80">
    <defs>
        <linearGradient id="prefix__linear-gradient" x1=".293" x2=".829" y1=".263" y2=".5" gradientUnits="objectBoundingBox">
            <stop offset="0" stop-color="#423f90"/>
            <stop offset="1" stop-color="#9d71ad"/>
        </linearGradient>
    </defs>
    <path id="prefix__smart-cart" d="M77.333 15.179a7.775 7.775 0 0 0-5.953-2.628H14.438l-.573-4.3C13.247 3.626 10.024 0 6.528 0H2.344a2.344 2.344 0 0 0 0 4.688h4.184c.752 0 2.344 1.59 2.69 4.187l6.709 50.319a9.477 9.477 0 0 0 3.209 5.847 9.686 9.686 0 0 0 4.5 2.238 8.621 8.621 0 1 0 15.246.17h12.28a8.62 8.62 0 1 0 15.333 0h6.141a2.344 2.344 0 0 0 0-4.688h-47.28a5.031 5.031 0 0 1-4.783-4.188l-.49-3.677h46.276a9.73 9.73 0 0 0 9.429-8.255l3.362-25.214a7.775 7.775 0 0 0-1.817-6.248zM35.146 71.38a3.933 3.933 0 1 1-3.932-3.932 3.937 3.937 0 0 1 3.932 3.932zm27.615 0a3.933 3.933 0 1 1-3.933-3.932 3.937 3.937 0 0 1 3.933 3.932zm11.045-53.113a3.15 3.15 0 0 1 .7 2.54L73.094 31.38H57.147l.942-14.141H71.38a3.152 3.152 0 0 1 2.426 1.028zM40.521 50.208l-.943-14.141h12.558l-.943 14.141zM39.266 31.38l-.942-14.141h15.067l-.942 14.141zm-5.64-14.141l.942 14.141h-17.62l-1.886-14.141zM17.573 36.068H34.88l.943 14.141H19.458zm48.786 14.14H55.891l.943-14.141h15.635l-1.327 9.954a5.031 5.031 0 0 1-4.783 4.187zm0 0"/>
</svg>
