<svg xmlns="http://www.w3.org/2000/svg" xmlns:xlink="http://www.w3.org/1999/xlink" width="80" height="80" viewBox="0 0 80 80">
    <defs>
        <linearGradient id="prefix__linear-gradient" x1=".293" x2=".829" y1=".263" y2=".5" gradientUnits="objectBoundingBox">
            <stop offset="0" stop-color="#423f90"/>
            <stop offset="1" stop-color="#9d71ad"/>
        </linearGradient>
        <linearGradient id="prefix__linear-gradient-2" x1=".264" x2=".86" y1=".5" y2=".802" xlink:href="#prefix__linear-gradient"/>
        <style>
            .prefix__cls-2{fill:url(#prefix__linear-gradient-2)}
        </style>
    </defs>
    <g id="prefix__Group_29" data-name="Group 29" transform="translate(-501 -471)">
        <path id="prefix__smart-cart" d="M72.369 15.179a7.077 7.077 0 0 0-5.569-2.627H13.511l-.536-4.3C12.4 3.626 9.381 0 6.109 0H2.193A2.272 2.272 0 0 0 0 2.344a2.272 2.272 0 0 0 2.193 2.343h3.916c.7 0 2.194 1.59 2.518 4.187L14.9 59.193a9.673 9.673 0 0 0 3 5.847 8.853 8.853 0 0 0 4.21 2.238 9.029 9.029 0 0 0-.974 4.1A8.367 8.367 0 0 0 29.21 80a8.367 8.367 0 0 0 8.067-8.62 9.036 9.036 0 0 0-.892-3.932h11.493a9.037 9.037 0 0 0-.892 3.932A8.367 8.367 0 0 0 55.052 80a8.367 8.367 0 0 0 8.067-8.62 9.036 9.036 0 0 0-.892-3.932h5.747a2.349 2.349 0 0 0 0-4.687H23.728a4.824 4.824 0 0 1-4.476-4.188l-.458-3.673H62.1a8.561 8.561 0 0 0 5.821-2.407 9.674 9.674 0 0 0 3-5.848l3.149-25.218a8.146 8.146 0 0 0-1.7-6.248zM32.89 71.38a3.688 3.688 0 1 1-3.68-3.932 3.817 3.817 0 0 1 3.68 3.932zm25.842 0a3.688 3.688 0 1 1-3.68-3.932 3.817 3.817 0 0 1 3.68 3.932zm10.336-53.113a3.3 3.3 0 0 1 .653 2.54L68.4 31.38H53.479l.882-14.141H66.8a2.864 2.864 0 0 1 2.27 1.028zM37.92 50.208l-.882-14.141H48.79l-.882 14.141zM36.745 31.38l-.882-14.141h14.1l-.881 14.141zm-5.278-14.141l.882 14.141H15.86L14.1 17.239zM16.445 36.068h16.2l.882 14.141H18.209zM62.1 50.208h-9.8l.882-14.141h14.635l-1.242 9.954a4.824 4.824 0 0 1-4.475 4.187zm0 0" transform="translate(501 471)"/>
        <g id="prefix__ban" transform="translate(547.219 471)">
            <g id="prefix__Group_5" data-name="Group 5">
                <g id="prefix__Group_4" data-name="Group 4">
                    <path id="prefix__Path_11" d="M16.891 0a16.891 16.891 0 1 0 16.89 16.891A16.817 16.817 0 0 0 16.891 0zm0 31.8A14.911 14.911 0 1 1 31.8 16.891 14.839 14.839 0 0 1 16.891 31.8z" class="prefix__cls-2" data-name="Path 11"/>
                </g>
            </g>
            <g id="prefix__Group_7" data-name="Group 7" transform="translate(3.965 3.968)">
                <g id="prefix__Group_6" data-name="Group 6">
                    <path id="prefix__Path_12" d="M80.546 62.582a12.913 12.913 0 0 0-18.075 17.943.99.99 0 0 0 1.5.129l16.698-16.563a.99.99 0 0 0-.123-1.509zm-17.093 15.8A10.938 10.938 0 0 1 78.4 63.556z" class="prefix__cls-2" data-name="Path 12" transform="translate(-60.099 -60.147)"/>
                </g>
            </g>
            <g id="prefix__Group_9" data-name="Group 9" transform="translate(8.954 9.02)">
                <g id="prefix__Group_8" data-name="Group 8">
                    <path id="prefix__Path_13" d="M154.195 137.12a.99.99 0 0 0-1.5-.129L136 153.553a.99.99 0 0 0 .123 1.509 12.913 12.913 0 0 0 18.075-17.943zm-2.789 15.153a10.8 10.8 0 0 1-13.137 1.815l14.945-14.826a10.851 10.851 0 0 1-1.809 13.011z" class="prefix__cls-2" data-name="Path 13" transform="translate(-135.704 -136.704)"/>
                </g>
            </g>
        </g>
    </g>
</svg>
