<svg xmlns="http://www.w3.org/2000/svg" width="240" height="150" viewBox="0 0 240 150"><defs><style>.a{fill:none;}.b{fill:#fb6c42;}.c{fill:#373737;}</style></defs><g transform="translate(-55 -714)"><rect class="a" width="240" height="150" transform="translate(55 714)"/><g transform="translate(108.931 723)"><path class="b" d="M226.764,189.777H215.769a2.518,2.518,0,0,0,0,5.036h10.995a2.518,2.518,0,0,0,0-5.036Z" transform="translate(-134.537 -119.766)"/><path class="b" d="M155.261,114V97.407a2.519,2.519,0,0,0-5.037,0V114a2.519,2.519,0,0,0,5.037,0Z" transform="translate(-94.761 -59.883)"/><path class="c" d="M57.869,0a2.517,2.517,0,0,0-2.517,2.519V16.163A57.86,57.86,0,0,0,.108,72.332c-.006.069-.039.127-.039.2,0,.055.027.1.03.153-.009.406-.03.81-.03,1.219a57.793,57.793,0,0,0,115.574,1.147h13.61a2.518,2.518,0,0,0,2.517-2.519C131.77,31.858,99.31,0,57.869,0ZM96.1,110.159l-6.845-6.628a2.517,2.517,0,1,0-3.5,3.618l6.709,6.5A52.478,52.478,0,0,1,60.5,126.532v-8.679a2.519,2.519,0,0,0-5.037,0v8.691a52.483,52.483,0,0,1-32.125-12.839l5.45-5.631a2.517,2.517,0,0,0-3.618-3.5L19.7,110.227A52.523,52.523,0,0,1,5.162,75.047H15.176a2.518,2.518,0,1,0,0-5.036H5.3A52.481,52.481,0,0,1,17,40.588l7.248,7.018a2.518,2.518,0,1,0,3.5-3.618L20.364,36.84a52.575,52.575,0,0,1,35.1-15.584v8.468a2.518,2.518,0,0,0,5.036,0V21.268A52.476,52.476,0,0,1,92.93,34.577l-6.463,6.677a2.517,2.517,0,1,0,3.616,3.5l6.44-6.652a52.508,52.508,0,0,1,13.915,31.91h-9.652a2.518,2.518,0,0,0,0,5.036h9.79A52.51,52.51,0,0,1,96.1,110.159Zm19.422-40.148A57.867,57.867,0,0,0,60.388,16.163V5.077c36.552,1.229,65.023,29.117,66.3,64.934Z" transform="translate(0)"/><path class="b" d="M113.84,156.028a2.528,2.528,0,0,0-2.451-.111l-7.552,3.778a2.518,2.518,0,1,0,2.252,4.5L110,162.243v26.142a2.519,2.519,0,1,0,5.037,0V158.169A2.519,2.519,0,0,0,113.84,156.028Z" transform="translate(-64.607 -98.23)"/><path class="b" d="M172.159,174.336a2.518,2.518,0,0,0,0-5.036H159.57a2.519,2.519,0,0,0-2.519,2.519v11.444a2.518,2.518,0,0,0,2.519,2.519h6.541a3.294,3.294,0,0,1,3.53,2.979v2.514a3.828,3.828,0,0,1-7.554,0,2.518,2.518,0,1,0-5.036,0c0,4.545,3.954,8.242,8.813,8.242s8.812-3.7,8.812-8.242v-2.514a8.313,8.313,0,0,0-8.565-8.015h-4.024v-6.41Z" transform="translate(-99.069 -106.843)"/></g></g></svg>