<svg xmlns="http://www.w3.org/2000/svg" width="240" height="150" viewBox="0 0 240 150">
    <defs>
        <style>
        .a {
            fill: none;
        }

        .b {
            fill: #ffffff;
        }

        .c {
            fill: #ffffff;
        }
        </style>
    </defs>
    <g transform="translate(-300 -399)">
        <rect class="a" width="240" height="150" transform="translate(300 399)" />
        <g transform="translate(-423 369)">
            <g transform="translate(784 39)">
                <path class="b" d="M25.025,12.991H60.14v4.388H25.025Z" transform="translate(29.841 15.54)" />
                <path class="b" d="M25.025,17.987H60.14v4.388H25.025Z" transform="translate(29.841 21.517)" />
                <path class="b" d="M5.04,25.981H42.347v4.39H5.04Z" transform="translate(5.935 31.079)" />
                <path class="b" d="M5.04,30.978H33.569v4.39H5.04Z" transform="translate(5.935 37.057)" />
                <path class="c" d="M42.347,9.993H5.04V36.328H42.347Zm-4.39,21.945H9.428V14.381H37.957Z" transform="translate(5.935 11.954)" />
                <path class="b" d="M101,62.729V15.363h6.756l-.4-2.548a14.977,14.977,0,0,0-4.278-8.3A15.159,15.159,0,0,0,92.218,0H15.406A15.374,15.374,0,0,0,.043,15.363V125.095H60.086A37.307,37.307,0,1,0,101,62.729ZM92.218,4.39a11.063,11.063,0,0,1,10.074,6.584H30.125a14.655,14.655,0,0,0-3.859-6.457,1.964,1.964,0,0,0-.154-.127ZM4.431,120.7V15.363a10.972,10.972,0,0,1,18.74-7.75A10.642,10.642,0,0,1,26.2,13.52l.31,1.843h70.1V60.379A37.292,37.292,0,0,0,54.841,120.7Zm96.566,0c-.7.505-1.408,1.012-2.154,1.474-.391.239-.786.481-1.208.72a30.2,30.2,0,0,1-4.586,2.2,32.931,32.931,0,0,1-31.557-4.39c-.505-.367-.993-.771-1.447-1.164a32.917,32.917,0,0,1,21.2-58.09,32.378,32.378,0,0,1,15.365,3.8l.127.068A32.921,32.921,0,0,1,101,120.7Z" transform="translate(-0.043 0)" />
                <path class="c" d="M62.934,56.488,75.355,44.066l-12.4-12.4L50.538,44.09,38.116,31.668l-12.4,12.4L38.134,56.488,25.712,68.909l12.4,12.4L50.538,68.883,62.96,81.307l12.4-12.4Zm.026,18.628L50.538,62.7,38.116,75.116,31.9,68.909l12.42-12.422L31.9,44.066l6.215-6.209L50.538,50.281,62.96,37.857l6.207,6.209L56.745,56.488,69.166,68.909Z" transform="translate(30.663 37.882)" />
                <path class="b" d="M5.04,35.975H33.569v4.388H5.04Z" transform="translate(5.935 43.034)" />
            </g>
        </g>
    </g>
</svg>