<svg xmlns="http://www.w3.org/2000/svg" width="240" height="150" viewBox="0 0 240 150"><defs><style>.a{fill:none;}.b{fill:#fff;}.c{fill:#fff;}</style></defs><g transform="translate(-931 -2015)"><rect class="a" width="240" height="150" transform="translate(931 2015)"/><g transform="translate(75.906 -0.136)"><g transform="translate(916.094 2021.136)"><g transform="translate(0 83.22)"><g transform="translate(0)"><path class="b" d="M47.264,8.11A27.686,27.686,0,1,0,8.11,47.264,27.686,27.686,0,1,0,47.264,8.11ZM45.039,45.039a24.538,24.538,0,0,1-34.7-34.7,24.538,24.538,0,0,1,34.7,34.7Z" transform="translate(0)"/><path class="b" d="M153.789,129.388a1.568,1.568,0,0,0-2.226,0l-9.975,9.975-9.975-9.975a1.574,1.574,0,0,0-2.226,2.226l9.975,9.975-9.975,9.975a1.579,1.579,0,0,0,1.107,2.692,1.535,1.535,0,0,0,1.107-.466l9.975-9.975,9.975,9.975a1.583,1.583,0,0,0,1.107.466,1.516,1.516,0,0,0,1.107-.466,1.568,1.568,0,0,0,0-2.226l-9.952-9.975,9.975-9.975A1.568,1.568,0,0,0,153.789,129.388Z" transform="translate(-113.901 -113.901)"/></g></g><path class="c" d="M88.068,128.878H38.2a26.831,26.831,0,0,0,3.4-4.3H88.068a6.451,6.451,0,0,0,6.444-6.444V32.219H77.328a2.15,2.15,0,0,1-2.148-2.147V12.888H10.741A6.451,6.451,0,0,0,4.3,19.332V88.089A26.846,26.846,0,0,0,0,91.654V19.332A10.729,10.729,0,0,1,8.79,8.789,10.729,10.729,0,0,1,19.333,0H96.659A10.752,10.752,0,0,1,107.4,10.74v98.807a10.726,10.726,0,0,1-8.789,10.542A10.729,10.729,0,0,1,88.068,128.878ZM19.333,4.3a6.451,6.451,0,0,0-6.049,4.3H77.328a2.141,2.141,0,0,1,1.523.634L98.176,28.551a2.138,2.138,0,0,1,.632,1.521V115.6a6.451,6.451,0,0,0,4.3-6.049V10.74A6.451,6.451,0,0,0,96.659,4.3ZM79.475,15.925v12h12ZM88.068,115.99H81.624v-4.3h6.444v4.295Zm-12.888,0H53.7v-4.3H75.18v4.295ZM88.068,107.4H81.624v-4.3h6.444V107.4Zm-12.888,0H53.7v-4.3H75.18V107.4Zm-30.074-2.942c-.1-.452-.215-.908-.34-1.354h.342v1.353Zm42.962-5.649H81.624v-4.3h6.444v4.295Zm-12.888,0H53.7v-4.3H75.18v4.295Zm-30.072,0H43.154a26.711,26.711,0,0,0-2.575-4.3h4.529v4.295Zm42.96-8.592H81.624v-4.3h6.444v4.295Zm-12.888,0H53.7v-4.3H75.18v4.295Zm-30.072,0H38.664v-4.3h6.444v4.295ZM32.22,87.08h0c-.744-.422-1.517-.812-2.3-1.16h2.3V87.08Zm55.848-9.753H81.624v-4.3h6.444v4.295Zm-12.888,0H53.7v-4.3H75.18v4.295Zm-30.072,0H38.664v-4.3h6.444v4.295Zm-12.888,0H10.741v-4.3H32.22v4.295Zm55.848-8.591H81.624v-4.3h6.444v4.295Zm-12.888,0H53.7v-4.3H75.18v4.295Zm-30.072,0H38.664v-4.3h6.444v4.295Zm-12.888,0H10.741v-4.3H32.22v4.295Zm55.848-8.592H81.624v-4.3h6.444v4.295Zm-12.888,0H53.7v-4.3H75.18v4.295Zm-30.072,0H38.664v-4.3h6.444v4.295Zm-12.888,0H10.741v-4.3H32.22v4.295Zm55.848-8.591H81.624v-4.3h6.444V51.55Zm-12.888,0H53.7v-4.3H75.18V51.55Zm-30.072,0H38.664v-4.3h6.444V51.55Zm-12.888,0H10.741v-4.3H32.22V51.55ZM49.4,40.811a10.74,10.74,0,1,1,10.74-10.74A10.752,10.752,0,0,1,49.4,40.811Zm0-17.184a6.444,6.444,0,1,0,6.444,6.444A6.451,6.451,0,0,0,49.4,23.628Z" transform="translate(9.842 0)"/></g></g></g></svg>