<svg xmlns="http://www.w3.org/2000/svg" width="240" height="150" viewBox="0 0 240 150"><defs><style>.a{fill:none;}.b{fill:#fb6c42;}.c{fill:#373737;}</style></defs><g transform="translate(-987 -988)"><g transform="translate(-47 5)"><rect class="a" width="240" height="150" transform="translate(1034 983)"/><g transform="translate(4 1551.92)"><g transform="translate(1081 -555.92)"><path class="b" d="M277.314,283.906a2.727,2.727,0,1,0,0,5.429,2.715,2.715,0,0,0,0-5.429Z" transform="translate(-190.996 -180.759)"/><path class="c" d="M169.428,198.783v70.709a2.714,2.714,0,0,0,2.714,2.714H294.834a2.713,2.713,0,0,0,2.714-2.714v-70.7a13.436,13.436,0,0,0,5.429-10.729V155.487a8.152,8.152,0,0,0-8.143-8.143H172.143A8.152,8.152,0,0,0,164,155.487V188.06A13.546,13.546,0,0,0,169.428,198.783Zm119.705,2.849a13.742,13.742,0,0,0,2.986-.33v16.616H263.89v-8.143a2.714,2.714,0,0,0-2.715-2.715H205.53a2.714,2.714,0,0,0-2.714,2.715v8.143H174.858V201.3a13.762,13.762,0,0,0,2.986.33,13.95,13.95,0,0,0,11.129-5.558,13.925,13.925,0,0,0,22.26,0,13.923,13.923,0,0,0,22.258,0,13.924,13.924,0,0,0,22.258,0,13.923,13.923,0,0,0,22.257,0A13.959,13.959,0,0,0,289.134,201.632ZM174.858,223.347h27.959v27.144H174.858Zm33.387-10.858h22.529v54.288H208.245Zm27.959,0h22.258v54.288H236.2Zm27.687,10.858h28.23v27.144H263.89Zm11.4-35.287a8.419,8.419,0,0,1-16.83,0v-8.143h16.83Zm-22.258,0a8.419,8.419,0,0,1-16.829,0v-8.143h16.829ZM236.2,174.488V152.772h16.829v21.715Zm-5.429,0H213.945V152.772h16.829Zm0,5.429v8.143a8.419,8.419,0,0,1-16.829,0v-8.143Zm-22.258,8.143a8.419,8.419,0,0,1-16.829,0v-8.143h16.829Zm-22.258,0a8.419,8.419,0,0,1-16.83,0v-8.143h16.83Zm-11.4,67.86h27.959v10.858H174.858Zm89.032,10.858V255.92h28.23v10.858ZM289.134,196.2a8.393,8.393,0,0,1-8.415-8.143v-8.143h16.829v8.143A8.381,8.381,0,0,1,289.134,196.2Zm5.7-43.43a2.717,2.717,0,0,1,2.714,2.715v19H280.719V152.772Zm-19.544,21.715h-16.83V152.772h16.83Zm-66.775-21.715v21.715H191.687V152.772Zm-36.373,0h14.115v21.715h-16.83v-19A2.717,2.717,0,0,1,172.143,152.772Z" transform="translate(-164 -147.344)"/><path class="b" d="M277.4,255.156a2.715,2.715,0,0,0-2.715,2.715v10.858a2.715,2.715,0,0,0,5.429,0V257.871A2.714,2.714,0,0,0,277.4,255.156Z" transform="translate(-191.084 -173.724)"/></g></g></g></g></svg>