<svg xmlns="http://www.w3.org/2000/svg" width="90" height="95" viewBox="0 0 90 95">
    <defs>
        <linearGradient id="prefix__linear-gradient" x1=".5" x2=".5" y2="1" gradientUnits="objectBoundingBox">
            <stop offset="0" stop-color="#423f90"/>
            <stop offset=".82" stop-color="#8d68a8"/>
            <stop offset="1" stop-color="#9d71ad"/>
        </linearGradient>
        <style>
            .prefix__cls-1{fill:url(#prefix__linear-gradient)}
        </style>
    </defs>
    <g id="prefix__camping-tent" transform="translate(0 42.433)">
        <path id="prefix__Path_116" d="M88.682 208.216h-1.594v-3a2.683 2.683 0 0 0-2.725-2.634h-3.712l-8.345-12.1-3.487-5.056h5.3a1.329 1.329 0 0 0 1.121-.6 1.237 1.237 0 0 0 .058-1.24l-3.414-6.6h2.235a1.329 1.329 0 0 0 1.121-.6 1.237 1.237 0 0 0 .058-1.24l-4.366-8.446-4.368-8.445a1.339 1.339 0 0 0-2.358 0l-4.368 8.445-1.688 3.264L46.318 152.8v-2.429a1.319 1.319 0 0 0-2.637 0v2.429l-11.83 17.158-6.056-11.709a1.317 1.317 0 0 0-.994-.692 1.36 1.36 0 0 0-.185-.013 1.324 1.324 0 0 0-1.179.7l-4.368 8.445-4.369 8.451a1.237 1.237 0 0 0 .058 1.24 1.329 1.329 0 0 0 1.121.6h2.235l-3.414 6.6a1.237 1.237 0 0 0 .058 1.24 1.329 1.329 0 0 0 1.121.6h5.3l-3.487 5.056-8.345 12.1h-3.71a2.683 2.683 0 0 0-2.725 2.634v3H1.318a1.275 1.275 0 1 0 0 2.549h18.3a1.275 1.275 0 1 0 0-2.549H5.549v-3a.086.086 0 0 1 .088-.085h78.726a.086.086 0 0 1 .088.085v3h-59.56a1.275 1.275 0 1 0 0 2.549h63.791a1.275 1.275 0 1 0 0-2.549zm-55.862-6.672l-6.4-6.187 14.934-16.5zm15.826-22.686l14.934 16.5-6.4 6.187zM39.18 192.1L45 176.624l5.82 15.476 3.946 10.489H35.234zm4.828-20.041l-20.385 22.52a1.244 1.244 0 0 0 .06 1.74l6.486 6.27h-10.06v-11.011l4.627-6.709v-.006L43.682 157.4v9.866a1.319 1.319 0 0 0 2.637 0V157.4l18.941 27.464v.006l4.627 6.709v11.007H59.831l6.486-6.27a1.244 1.244 0 0 0 .06-1.74l-20.385-22.52a1.4 1.4 0 0 0-1.984 0zM72.527 195.4l4.955 7.184h-4.955zm-7.143-33.733l2.235 4.321H63.15zm-3.553 6.87h7.107l3.05 5.9h-2.235a1.329 1.329 0 0 0-1.121.6 1.237 1.237 0 0 0-.058 1.24l3.414 6.6h-4.927L59.834 172.4zM26.85 165.99h-4.47l2.235-4.321zm-8.838 16.89l3.414-6.6a1.237 1.237 0 0 0-.058-1.24 1.329 1.329 0 0 0-1.121-.6h-2.235l3.05-5.9h7.107l2 3.862-7.23 10.478zm-.539 12.52v7.184h-4.955z" class="prefix__cls-1" data-name="Path 116" transform="translate(0 -158.198)"/>
        <path id="prefix__Path_117" d="M22.063 19.439h23.928a4.089 4.089 0 0 0 0-8.179h-4.356v-.133a5.5 5.5 0 0 0-5.5-5.5q-.125 0-.25.006A6.9 6.9 0 0 0 22.2 6.9v1.545h-.133a5.5 5.5 0 1 0 0 10.994zm0-8.445h5.63a1.274 1.274 0 1 0 0-2.549h-2.948V6.9a4.356 4.356 0 0 1 8.711 0v.19a1.274 1.274 0 0 0 1.7 1.255 2.949 2.949 0 0 1 3.935 2.778v1.407a1.274 1.274 0 0 0 1.274 1.274h5.63a1.541 1.541 0 0 1 0 3.081H22.063a2.948 2.948 0 0 1 0-5.9z" class="prefix__cls-1" data-name="Path 117" transform="translate(-14.261 -31.654)"/>
        <path id="prefix__Path_118" d="M302.29 36.006h23.928a5.5 5.5 0 1 0 0-10.994h-.133v-1.541a6.9 6.9 0 0 0-13.692-1.271q-.125-.006-.25-.006a5.5 5.5 0 0 0-5.5 5.5v.133h-4.353a4.089 4.089 0 1 0 0 8.179zm0-5.63h5.63a1.274 1.274 0 0 0 1.274-1.274v-1.408a2.949 2.949 0 0 1 3.935-2.778 1.274 1.274 0 0 0 1.7-1.255v-.19a4.356 4.356 0 1 1 8.711 0v1.541h-2.948a1.274 1.274 0 1 0 0 2.549h5.63a2.948 2.948 0 1 1 0 5.9H302.29a1.541 1.541 0 1 1 0-3.081z" class="prefix__cls-1" data-name="Path 118" transform="translate(-249.968 -59)"/>
    </g>
</svg>
