<svg xmlns="http://www.w3.org/2000/svg" width="240" height="150" viewBox="0 0 240 150"><defs><style>.a{fill:none;}.b{fill:#fff;}.c{fill:#fff;}</style></defs><g transform="translate(-1315 -1617)"><rect class="a" width="240" height="150" transform="translate(1315 1617)"/><g transform="translate(1371.002 1627.999)"><path class="b" d="M330.921,400.957a79.568,79.568,0,0,0-56,23.4,2.49,2.49,0,0,0,3.531,3.512,74.554,74.554,0,0,1,52.468-21.936,2.49,2.49,0,1,0,0-4.98Zm0,0" transform="translate(-205.921 -301.115)"/><path class="b" d="M201.152,388.388a2.489,2.489,0,0,0-3.457-.669,98.285,98.285,0,0,0-26.729,26.747,2.49,2.49,0,1,0,4.135,2.777,93.3,93.3,0,0,1,25.382-25.4,2.49,2.49,0,0,0,.669-3.457Zm0,0" transform="translate(-128.078 -290.852)"/><path class="b" d="M398.223,320.457a97.93,97.93,0,0,0-32.749,5.652,2.49,2.49,0,1,0,1.661,4.694,92.969,92.969,0,0,1,31.088-5.366,2.49,2.49,0,1,0,0-4.98Zm0,0" transform="translate(-273.223 -240.66)"/><path class="c" d="M35.676,110.4a113.494,113.494,0,0,1,66.263-41.747l.014,0A110.982,110.982,0,0,1,125,66.227a2.49,2.49,0,0,0,0-4.98,117.177,117.177,0,0,0-21.066,1.915V57.787c9-7.619,13.94-17.6,13.94-28.234,0-10.992-5.281-21.292-14.87-29a2.492,2.492,0,0,0-3.121,0c-9.589,7.71-14.87,18.01-14.87,29,0,10.631,4.941,20.615,13.94,28.234V64.18a117.9,117.9,0,0,0-13.96,4.1V53.7a2.481,2.481,0,0,0-.724-1.755h0L70.325,37.92a2.493,2.493,0,0,0-1.766-.734H40.089a2.49,2.49,0,0,0-1.765.734L24.379,51.947h0a2.482,2.482,0,0,0-.725,1.756v9.509q-2.6-.477-5.229-.837V53.5c6.806-5.855,10.54-13.49,10.54-21.625,0-8.5-4.074-16.453-11.47-22.4a2.49,2.49,0,0,0-3.12,0c-7.4,5.947-11.47,13.9-11.47,22.4,0,8.134,3.734,15.769,10.54,21.624v8.3Q8,61.293,2.489,61.287a2.49,2.49,0,0,0,0,4.98A112.31,112.31,0,0,1,59.043,81.53a117.549,117.549,0,0,0-11.762,9.135A99.066,99.066,0,0,0,2.489,79.838a2.49,2.49,0,1,0,0,4.98,94.005,94.005,0,0,1,40.88,9.463A117.684,117.684,0,0,0,32.779,106a77.892,77.892,0,0,0-30.29-6.12,2.49,2.49,0,0,0,0,4.98,72.876,72.876,0,0,1,27.189,5.256q-2.581,3.586-4.894,7.368L20.989,123.7A2.49,2.49,0,1,0,25.24,126.3l3.794-6.216a110.547,110.547,0,0,1,6.4-9.356,2.357,2.357,0,0,0,.246-.321ZM89.993,29.553c0-8.85,4.049-17.234,11.45-23.8,7.4,6.569,11.45,14.953,11.45,23.8,0,7.8-3.148,15.237-8.96,21.389V31.873a2.49,2.49,0,0,0-4.98,0V50.942c-5.814-6.152-8.96-13.59-8.96-21.389ZM7.885,31.873c0-6.352,2.843-12.384,8.05-17.178,5.207,4.792,8.05,10.826,8.05,17.178a22.512,22.512,0,0,1-5.56,14.578V29.881a2.49,2.49,0,1,0-4.98,0v16.57a22.512,22.512,0,0,1-5.56-14.578ZM76.517,51.212H55.069l-8.993-9.047H67.523ZM40.089,43.207l7.958,8.005H32.131ZM28.635,56.193H51.543V72.028q-1.732-.8-3.486-1.538V62.127a2.491,2.491,0,0,0-2.49-2.49H34.611a2.491,2.491,0,0,0-2.49,2.49v2.961q-1.736-.452-3.486-.854ZM43.077,68.525Q40.115,67.434,37.1,66.5V64.617h5.976Zm13.446,5.939V56.193h23.49V70.215A116.869,116.869,0,0,0,67.54,76.268q-1.938,1.087-3.829,2.25-3.531-2.156-7.187-4.053Zm0,0" transform="translate(0 0)"/><path class="b" d="M399.888,84.98a2.494,2.494,0,1,0-1.76-.73A2.507,2.507,0,0,0,399.888,84.98Zm0,0" transform="translate(-298.444 -60.079)"/><path class="b" d="M318.4,363.067a2.487,2.487,0,1,0,1.761-.73A2.512,2.512,0,0,0,318.4,363.067Zm0,0" transform="translate(-238.568 -272.112)"/></g></g></svg>