<svg xmlns="http://www.w3.org/2000/svg" width="240" height="140" viewBox="0 0 240 140"><defs><style>.a{fill:none;}.b{fill:#373737;}.c{fill:#fb6c42;}</style></defs><g transform="translate(-53 -394)"><rect class="a" width="240" height="140" transform="translate(53 394)"/><g transform="translate(-471 367)"><g transform="translate(578 38)"><g transform="translate(0)"><path class="b" d="M359.392,274.981V248.628H311.079V226.667h-4.392v21.961H258.372v26.353H243v35.137h35.137V274.981H262.765V253.02h43.922v21.961H291.314v35.137h35.137V274.981H311.079V253.02H355v21.961H339.628v35.137h35.137V274.981Zm-85.647,4.392v26.353H247.392V279.373Zm48.314,0v26.353H295.706V279.373Zm48.314,26.353H344.02V279.373h26.353Z" transform="translate(-243 -191.53)"/><path class="c" d="M534.8,75.137V40H499.667V75.137H534.8Zm-30.745-4.392V44.392h26.353V70.745Zm15.53,4.361h0Z" transform="translate(-451.353 -40)"/></g></g></g></g></svg>