<svg xmlns="http://www.w3.org/2000/svg" width="80" height="80" viewBox="0 0 80 80">
    <defs>
        <linearGradient id="prefix__linear-gradient" x1=".5" x2=".5" y2="1" gradientUnits="objectBoundingBox">
            <stop offset="0" stop-color="#423f90"/>
            <stop offset=".82" stop-color="#8d68a8"/>
            <stop offset="1" stop-color="#9d71ad"/>
        </linearGradient>
        <style>
            .prefix__cls-1{fill:url(#prefix__linear-gradient)}
        </style>
    </defs>
    <g id="prefix__update" transform="translate(0 -1)">
        <g id="prefix__Group_15" data-name="Group 15" transform="translate(0 1)">
            <path id="prefix__Path_42" d="M70 1H10C4.487 1 0 5.895 0 11.909v58.182C0 76.105 4.487 81 10 81h60c5.513 0 10-4.895 10-10.909V11.909C80 5.895 75.513 1 70 1zm0 72.727H10a3.5 3.5 0 0 1-3.333-3.636V19.182h66.666v50.909A3.5 3.5 0 0 1 70 73.727z" class="prefix__cls-1" data-name="Path 42" transform="translate(0 -1)"/>
        </g>
        <g id="prefix__Group_16" data-name="Group 16" transform="translate(23.533 53.065)">
            <path id="prefix__Path_43" d="M37.369 15.428a3.294 3.294 0 0 0-4.46 1.327 10.619 10.619 0 0 1-15.033 4.025l1.567-1.567A2.467 2.467 0 0 0 17.7 15H9.469A2.47 2.47 0 0 0 7 17.469V25.7a2.467 2.467 0 0 0 4.213 1.745l1.887-1.889a17.321 17.321 0 0 0 25.6-5.665 3.293 3.293 0 0 0-1.331-4.463z" class="prefix__cls-1" data-name="Path 43" transform="translate(-7 -15)"/>
        </g>
        <g id="prefix__Group_17" data-name="Group 17" transform="translate(24.373 29.821)">
            <path id="prefix__Path_44" d="M37.82 9.761a2.465 2.465 0 0 0-2.689.537l-1.886 1.886a17.305 17.305 0 0 0-25.6 5.7 3.292 3.292 0 0 0 1.34 4.457 3.248 3.248 0 0 0 1.557.4 3.3 3.3 0 0 0 2.9-1.731 10.6 10.6 0 0 1 15.026-4.049L26.9 18.526a2.467 2.467 0 0 0 1.745 4.213h8.229a2.47 2.47 0 0 0 2.469-2.469v-8.228a2.471 2.471 0 0 0-1.523-2.281z" class="prefix__cls-1" data-name="Path 44" transform="translate(-7.25 -8.75)"/>
        </g>
    </g>
</svg>
