<svg xmlns="http://www.w3.org/2000/svg" width="240" height="150" viewBox="0 0 240 150"><defs><style>.a{fill:none;}.b{fill:#fff;}.c{fill:#fff;}</style></defs><g transform="translate(658 -1202)"><rect class="a" width="240" height="150" transform="translate(-658 1202)"/><g transform="translate(-609 1205.672)"><path class="b" d="M71.025.328h0a2.429,2.429,0,0,0-2.429,2.429V15.548A55.815,55.815,0,0,0,15.3,67.49H2.462A2.429,2.429,0,0,0,.034,69.872l-.014.493c-.01.29-.019.582-.019.876A70.914,70.914,0,1,0,71.025.328ZM68.592,20.464v8.167a2.429,2.429,0,0,0,4.858,0V20.475A50.608,50.608,0,0,1,104.73,33.31L98.5,39.75a2.428,2.428,0,1,0,3.488,3.377l6.212-6.416a50.643,50.643,0,0,1,13.422,30.778h-9.308a2.429,2.429,0,1,0,0,4.857h9.442a50.652,50.652,0,0,1-13.96,33.867l-6.6-6.393a2.428,2.428,0,1,0-3.377,3.49l6.472,6.265A50.608,50.608,0,0,1,73.45,122v-8.372a2.429,2.429,0,1,0-4.858,0v8.383a50.614,50.614,0,0,1-30.986-12.384l5.257-5.43a2.428,2.428,0,1,0-3.49-3.377l-5.279,5.452A50.659,50.659,0,0,1,20.075,72.345h9.658a2.429,2.429,0,1,0,0-4.857H20.209a50.623,50.623,0,0,1,11.279-28.38l6.992,6.769a2.428,2.428,0,1,0,3.378-3.49l-7.121-6.894a50.716,50.716,0,0,1,33.855-15.03ZM70.913,137.3A66.13,66.13,0,0,1,4.867,72.346H15.19A55.743,55.743,0,1,0,73.449,15.554V5.234A66.055,66.055,0,0,1,70.913,137.3Zm0,0" transform="translate(0 0)"/><path class="c" d="M206.457,182.1a2.429,2.429,0,0,0,2.428,2.429H215.2a3.176,3.176,0,0,1,3.4,2.874v2.424a3.692,3.692,0,0,1-7.286,0,2.428,2.428,0,0,0-4.857,0,8.519,8.519,0,0,0,17,0V187.4a8.019,8.019,0,0,0-8.262-7.731h-3.881v-6.183h9.714a2.429,2.429,0,1,0,0-4.857H208.885a2.428,2.428,0,0,0-2.428,2.428Zm0,0" transform="translate(-133.007 -108.425)"/><path class="c" d="M140.618,172.434h9.714v9.715a2.429,2.429,0,0,0,4.858,0v-9.715a2.428,2.428,0,0,0,0-4.857v-2.429a2.429,2.429,0,0,0-4.858,0v2.429h-5.784l7.957-15.915a2.429,2.429,0,1,0-4.346-2.172l-9.714,19.429a2.429,2.429,0,0,0,2.172,3.515Zm0,0" transform="translate(-89.027 -95.23)"/><path class="c" d="M195.23,114.931a2.429,2.429,0,0,0,2.429-2.428v-9.715a2.429,2.429,0,0,0-4.858,0V112.5A2.429,2.429,0,0,0,195.23,114.931Zm0,0" transform="translate(-124.209 -64.444)"/><path class="c" d="M104.055,191.538a2.43,2.43,0,0,0,2.429,2.429h4.857a2.428,2.428,0,1,0,0-4.857h-4.857A2.429,2.429,0,0,0,104.055,191.538Zm0,0" transform="translate(-67.036 -121.62)"/></g></g></svg>