<svg xmlns="http://www.w3.org/2000/svg" width="59.649" height="95" viewBox="0 0 59.649 95">
    <defs>
        <linearGradient id="prefix__linear-gradient" x1=".5" x2=".5" y2="1" gradientUnits="objectBoundingBox">
            <stop offset="0" stop-color="#423f90"/>
            <stop offset=".82" stop-color="#8d68a8"/>
            <stop offset="1" stop-color="#9d71ad"/>
        </linearGradient>
        <style>
            .prefix__cls-1{fill:url(#prefix__linear-gradient)}
        </style>
    </defs>
    <g id="prefix__shopping-bag" transform="translate(-.001)">
        <g id="prefix__Group_76" data-name="Group 76" transform="translate(.001)">
            <path id="prefix__Path_131" d="M55.27 34.585a3.184 3.184 0 0 0-3.157-2.918h-4.871v-14.25a17.417 17.417 0 1 0-34.834 0v14.25H7.539a3.183 3.183 0 0 0-3.157 2.918L.016 89.877a4.75 4.75 0 0 0 4.362 5.109c.122.014.249.014.374.014H54.9a4.75 4.75 0 0 0 4.751-4.75q0-.187-.015-.374zM15.575 17.417a14.25 14.25 0 1 1 28.5 0v14.25h-28.5zm40.486 73.909a1.567 1.567 0 0 1-1.163.508H4.752a1.582 1.582 0 0 1-1.588-1.579v-.13l4.375-55.291h4.87v3.458a4.75 4.75 0 1 0 3.167 0v-3.458h28.5v3.458a4.75 4.75 0 1 0 3.167 0v-3.458h4.87l4.365 55.291a1.566 1.566 0 0 1-.416 1.2zM15.575 42.75a1.583 1.583 0 1 1-3.167 0 1.537 1.537 0 0 1 .244-.791 1.529 1.529 0 0 0 2.679 0 1.537 1.537 0 0 1 .244.791zm31.667 0a1.583 1.583 0 1 1-3.167 0 1.537 1.537 0 0 1 .244-.791 1.529 1.529 0 0 0 2.679 0 1.538 1.538 0 0 1 .244.791zm0 0" class="prefix__cls-1" data-name="Path 131" transform="translate(-.001)"/>
            <path id="prefix__Path_132" d="M125.221 282.6h9.533a2.383 2.383 0 0 1 2.384 2.384 2.383 2.383 0 0 0 4.767 0 7.15 7.15 0 0 0-7.15-7.15h-2.383v-2.384a2.383 2.383 0 1 0-4.767 0v2.383h-2.384a7.151 7.151 0 0 0-7.15 7.15v4.767a7.15 7.15 0 0 0 7.15 7.149h9.533a2.383 2.383 0 0 1 2.384 2.384v4.767a2.383 2.383 0 0 1-2.384 2.384h-9.533a2.384 2.384 0 0 1-2.384-2.384 2.383 2.383 0 0 0-4.767 0 7.151 7.151 0 0 0 7.15 7.15h2.38v2.383a2.383 2.383 0 1 0 4.767 0V311.2h2.383a7.15 7.15 0 0 0 7.15-7.15v-4.767a7.15 7.15 0 0 0-7.15-7.15h-9.533a2.384 2.384 0 0 1-2.384-2.383v-4.767a2.384 2.384 0 0 1 2.388-2.383zm0 0" class="prefix__cls-1" data-name="Path 132" transform="translate(-100.163 -233.371)"/>
        </g>
    </g>
</svg>
