<svg xmlns="http://www.w3.org/2000/svg" width="240" height="150" viewBox="0 0 240 150"><defs><style>.a{fill:none;}.b{fill:#fff;}.c{fill:#fff;}</style></defs><g transform="translate(-547 -1441)"><rect class="a" width="240" height="150" transform="translate(547 1441)"/><g transform="translate(439.672 1098.814)"><g transform="translate(244.553 360.498)"><path class="b" d="M308.566,401.974a.669.669,0,0,0-.669.669v6.284a.369.369,0,0,1-.369.369h-3.594V396.132a.668.668,0,0,0-1.337,0V409.3h-7.235l2.1-2.309a1.2,1.2,0,0,0,.289-.961l0-.02-2-11.806.539-.81a1.517,1.517,0,0,0,.957.415,1.171,1.171,0,0,0,1.048-.648h0l2.108-4.224,4.8,1.86A4.631,4.631,0,0,1,307.9,395v4.522a.669.669,0,0,0,1.338,0V395a5.966,5.966,0,0,0-3.528-5.448l-.014,0-7.992-3.1V384.58a6.262,6.262,0,0,0,2.371-4.121,2.888,2.888,0,0,0,1.7-.693,2.838,2.838,0,0,0,.3-4v-2.476a8.284,8.284,0,1,0-16.569,0v2.541a2.684,2.684,0,0,0-.69,1.789,2.834,2.834,0,0,0,.986,2.151,2.891,2.891,0,0,0,1.7.692A6.2,6.2,0,0,0,290,384.678v1.775l-7.983,3.094-.013.006A5.965,5.965,0,0,0,278.476,395v13.926a1.707,1.707,0,0,0,1.706,1.706h6.369a.668.668,0,0,0,0-1.337h-1.438V396.132a.668.668,0,0,0-1.337,0V409.3h-3.594a.371.371,0,0,1-.369-.37V395a4.629,4.629,0,0,1,2.7-4.209l4.8-1.86,2.109,4.224a1.17,1.17,0,0,0,1.047.648,1.518,1.518,0,0,0,.957-.415l.539.81-2,11.806,0,.019a1.2,1.2,0,0,0,.289.962l2.1,2.309H289.67a.668.668,0,0,0,0,1.337h17.858a1.708,1.708,0,0,0,1.705-1.707v-6.284A.669.669,0,0,0,308.566,401.974Zm-9.419-13.527-1.965,3.938-2.364-1.678,2.428-3Zm-3.951,4.167-.509.768h-1.667l-.509-.768,1.343-.953Zm-3.859-5.945v-1.251a6.778,6.778,0,0,0,2.527.479,6.275,6.275,0,0,0,2.5-.521v1.3l-2.511,3.1Zm10.083-9.053a1.494,1.494,0,0,1-.521,1.137,1.559,1.559,0,0,1-.772.355v-2.983A1.512,1.512,0,0,1,301.42,377.616Zm-13.982,1.492a1.511,1.511,0,0,1-1.293-1.492,1.587,1.587,0,0,1,1.293-1.458Zm.036-4.312a3.327,3.327,0,0,0-.639.145v-1.654a6.948,6.948,0,0,1,13.9,0v1.609a2.927,2.927,0,0,0-.6-.117c0-.645.006-.521-2.1-2.79a1.19,1.19,0,0,0-1.518-.185,12.884,12.884,0,0,1-7.792,2.1A1.189,1.189,0,0,0,287.474,374.8Zm1.3,4.839v-4.39a14.283,14.283,0,0,0,8.355-2.253c.967,1.039,1.491,1.584,1.66,1.791v4.853a5.008,5.008,0,0,1-10.015,0Zm1.748,12.751-1.965-3.938,1.9-.735,2.428,3Zm.768,13.765,1.935-11.432h1.254l1.935,11.432-2.562,2.819Z" transform="translate(-278.476 -365.001)"/></g><g transform="translate(167.256 462.329)"><g transform="translate(0)"><path class="c" d="M190.778,507.365h-18.1a2.264,2.264,0,0,0-2.263,2.263v18.1a2.263,2.263,0,0,0,2.263,2.262h18.1a2.262,2.262,0,0,0,2.262-2.262v-18.1A2.262,2.262,0,0,0,190.778,507.365Zm-2.263,18.1H174.938V511.891h13.577Z" transform="translate(-170.412 -507.365)"/></g></g><g transform="translate(201.199 455.541)"><path class="b" d="M238.232,497.875h-18.1a2.263,2.263,0,0,0-2.263,2.262v24.892a2.263,2.263,0,0,0,2.263,2.262h18.1a2.263,2.263,0,0,0,2.262-2.262V500.137A2.262,2.262,0,0,0,238.232,497.875Zm-2.263,24.891H222.392V502.4h13.578Z" transform="translate(-217.866 -497.875)"/></g><g transform="translate(235.142 446.49)"><g transform="translate(0 0)"><path class="b" d="M285.686,485.221h-18.1a2.262,2.262,0,0,0-2.262,2.262v33.943a2.262,2.262,0,0,0,2.262,2.262h18.1a2.263,2.263,0,0,0,2.263-2.262V487.483A2.262,2.262,0,0,0,285.686,485.221Zm-2.262,33.942H269.846V489.747h13.578Z" transform="translate(-265.32 -485.221)"/></g></g><g transform="translate(269.085 426.123)"><g transform="translate(0 0)"><path class="b" d="M333.139,456.748h-18.1a2.264,2.264,0,0,0-2.263,2.263V513.32a2.263,2.263,0,0,0,2.263,2.262h18.1a2.263,2.263,0,0,0,2.263-2.262V459.011A2.263,2.263,0,0,0,333.139,456.748Zm-2.262,54.309H317.3V461.274h13.577Z" transform="translate(-312.773 -456.748)"/></g></g><g transform="translate(228.633 359.854)"><path class="c" d="M261.956,364.1a36.37,36.37,0,0,0-5.737,7.5l3.922,2.259a31.8,31.8,0,0,1,5.023-6.569Z" transform="translate(-256.219 -364.1)"/></g><g transform="translate(250.704 416.01)"><path class="c" d="M296.405,443.671a31.723,31.723,0,0,1-8.165-1.062l-1.164,4.374a36.321,36.321,0,0,0,9.329,1.214h.034Z" transform="translate(-287.076 -442.609)"/></g><g transform="translate(259.932 349.186)"><path class="c" d="M300.079,349.186h-.1l.1,4.526a31.741,31.741,0,0,1,8.1,1.046l1.156-4.376A36.282,36.282,0,0,0,300.079,349.186Z" transform="translate(-299.977 -349.186)"/></g><g transform="translate(234.471 407.826)"><g transform="translate(0 0)"><path class="c" d="M267.577,431.168l-3.2,3.2a36.312,36.312,0,0,0,7.5,5.744l2.26-3.92A31.874,31.874,0,0,1,267.577,431.168Z" transform="translate(-264.381 -431.168)"/></g></g><g transform="translate(223.827 376.097)"><path class="c" d="M250.706,386.809a35.95,35.95,0,0,0-1.2,9.182l0,.181,4.527-.068a31.767,31.767,0,0,1,1.054-8.135Z" transform="translate(-249.5 -386.809)"/></g><g transform="translate(225.071 393.654)"><path class="c" d="M255.611,411.354l-4.371,1.175a36.015,36.015,0,0,0,3.634,8.723l3.913-2.273A31.409,31.409,0,0,1,255.611,411.354Z" transform="translate(-251.24 -411.354)"/></g><g transform="translate(268.264 412.823)"><g transform="translate(0 0)"><path class="c" d="M319.254,438.154a31.5,31.5,0,0,1-7.629,3.17l1.174,4.37a36.01,36.01,0,0,0,8.725-3.625Z" transform="translate(-311.625 -438.154)"/></g></g><g transform="translate(282.445 401.223)"><g transform="translate(0 0)"><path class="c" d="M336.487,421.936a31.781,31.781,0,0,1-5.036,6.559l3.2,3.2a36.372,36.372,0,0,0,5.752-7.493Z" transform="translate(-331.451 -421.936)"/></g></g><g transform="translate(241.844 350.438)"><path class="c" d="M283.409,350.936a35.977,35.977,0,0,0-8.72,3.643l2.276,3.911a31.479,31.479,0,0,1,7.623-3.185Z" transform="translate(-274.689 -350.936)"/></g><g transform="translate(287.417 367.17)"><g transform="translate(0)"><path class="c" d="M342.311,374.328l-3.909,2.28a31.519,31.519,0,0,1,3.194,7.621l4.367-1.187A36.01,36.01,0,0,0,342.311,374.328Z" transform="translate(-338.402 -374.328)"/></g></g><g transform="translate(290.643 385.255)"><g transform="translate(0 0)"><path class="c" d="M343.984,399.749a31.779,31.779,0,0,1-1.071,8.2l4.373,1.167a36.333,36.333,0,0,0,1.223-9.364v-.137Z" transform="translate(-342.913 -399.612)"/></g></g><g transform="translate(275.783 353.972)"><g transform="translate(0 0)"><path class="c" d="M324.388,355.877l-2.251,3.925a31.827,31.827,0,0,1,6.574,5.016l3.188-3.211A36.3,36.3,0,0,0,324.388,355.877Z" transform="translate(-322.137 -355.877)"/></g></g><g transform="translate(159.328 417.103)"><g transform="translate(0 0)"><path class="b" d="M228.726,446.4l-13.577-2.263L214.4,448.6l8.362,1.393-13.27,9.952H187.622a2.257,2.257,0,0,0-1.14.309l-27.154,15.84L161.609,480l26.626-15.532h22.016a2.267,2.267,0,0,0,1.358-.452l13.584-10.189-1.334,8.006,4.464.745L230.586,449A2.264,2.264,0,0,0,228.726,446.4Z" transform="translate(-159.328 -444.137)"/></g></g></g></g></svg>