<svg xmlns="http://www.w3.org/2000/svg" width="80" height="80" viewBox="0 0 80 80">
    <defs>
        <linearGradient id="prefix__linear-gradient" x1=".5" x2=".5" y2="1" gradientUnits="objectBoundingBox">
            <stop offset="0" stop-color="#423f90"/>
            <stop offset="1" stop-color="#9d71ad"/>
        </linearGradient>
        <style>
            .prefix__cls-1{fill:url(#prefix__linear-gradient)}
        </style>
    </defs>
    <g id="prefix__Out_line" data-name="Out line" transform="translate(-16 -16)">
        <path id="prefix__Path_65" d="M143.07 230.14v-12.962a1.178 1.178 0 0 0-1.178-1.178h-4.713a1.178 1.178 0 0 0-1.179 1.178v12.962h2.357v-11.783h2.357v11.783z" class="prefix__cls-1" data-name="Path 65" transform="translate(-99.677 -165.698)"/>
        <path id="prefix__Path_66" d="M271.07 241.675v-16.5a1.178 1.178 0 0 0-1.178-1.175h-4.713a1.178 1.178 0 0 0-1.179 1.178v16.5h2.357v-15.321h2.357v15.319z" class="prefix__cls-1" data-name="Path 66" transform="translate(-206 -171.99)"/>
        <path id="prefix__Path_67" d="M207.07 214.389v-21.211a1.178 1.178 0 0 0-1.178-1.178h-4.713a1.178 1.178 0 0 0-1.179 1.178v18.854h2.357v-17.675h2.357v20.032z" class="prefix__cls-1" data-name="Path 67" transform="translate(-152.838 -145.087)"/>
        <path id="prefix__Path_68" d="M335.07 204.962v-11.784a1.178 1.178 0 0 0-1.178-1.178h-4.713a1.178 1.178 0 0 0-1.179 1.178v12.962h2.357v-11.783h2.357v10.605z" class="prefix__cls-1" data-name="Path 68" transform="translate(-259.161 -145.814)"/>
        <path id="prefix__Path_69" d="M399.07 162.854v-17.676a1.178 1.178 0 0 0-1.178-1.178h-4.713a1.178 1.178 0 0 0-1.179 1.178v17.675h2.357v-16.5h2.357v16.5z" class="prefix__cls-1" data-name="Path 69" transform="translate(-311.117 -105.765)"/>
        <path id="prefix__Path_70" d="M115.88 42.757a1.179 1.179 0 0 0 1.667 0l9.727-9.727 9.774 10.86a1.178 1.178 0 0 0 .845.39h.031a1.178 1.178 0 0 0 .833-.345l15.664-15.664v3.047A1.178 1.178 0 0 0 155.6 32.5h4.713a1.178 1.178 0 0 0 1.178-1.178V17.178A1.178 1.178 0 0 0 160.312 16h-14.14a1.178 1.178 0 0 0-1.178 1.178v4.713a1.178 1.178 0 0 0 1.178 1.178h3.047l-11.25 11.252-9.774-10.86a1.178 1.178 0 0 0-1.709-.045l-14.14 14.14a1.178 1.178 0 0 0 0 1.666zm11.394-16.8l9.774 10.86a1.178 1.178 0 0 0 1.709.045l14.14-14.14a1.178 1.178 0 0 0-.833-2.012h-4.714v-2.353h11.784V30.14h-2.357v-4.713a1.178 1.178 0 0 0-2.012-.833l-16.8 16.8-9.774-10.86a1.178 1.178 0 0 0-.845-.39h-.031a1.178 1.178 0 0 0-.833.345l-9.772 9.772-1.869-1.869z" class="prefix__cls-1" data-name="Path 70" transform="translate(-72.359)"/>
        <path id="prefix__Path_71" d="M28.034 317.019v-2.357h4.011a1.265 1.265 0 0 0 1.337-1.178V310.4c13.266 10.731 33.771 10.345 46.5-.876L94.5 296.643a4.124 4.124 0 0 0 .415-5.967 5.591 5.591 0 0 0-6.669-1.092 5.4 5.4 0 0 0-4.2-2.1 5.493 5.493 0 0 0-4.352 1.846l-.567.67a5.917 5.917 0 0 0-.927-.511 6.446 6.446 0 0 0-4.492-.241 5.524 5.524 0 0 0-3.308 2.692l-3.371 6.6a6.7 6.7 0 0 0-2.22-.376H48.645l-2.283-2.012a11.922 11.922 0 0 0-12.98-1.534v-1.168a1.265 1.265 0 0 0-1.337-1.178h-4.011V291.1a1.265 1.265 0 0 0-1.337-1.178H16v2.357h9.36v23.567H16v2.354h10.7a1.265 1.265 0 0 0 1.334-1.181zm57.141-26.859a2.341 2.341 0 0 1 1.025 1.04l-10.609 9.35a22.552 22.552 0 0 1-4.767 3.214l11.012-13.02a2.757 2.757 0 0 1 3.339-.584zm-12.34 2.747a2.95 2.95 0 0 1 1.767-1.436 3.443 3.443 0 0 1 2.4.129 3.155 3.155 0 0 1 .524.294L70 300.792a5.428 5.428 0 0 0-.737-.885zm-28.363 4.913l2.674 2.357a1.434 1.434 0 0 0 .946.345h16.714a2.969 2.969 0 1 1 0 5.892H48.092v2.357h16.714a6.4 6.4 0 0 0 4.406-1.7 25.723 25.723 0 0 0 8.269-4.861l11.67-10.285a2.684 2.684 0 0 1 3.458 0 1.979 1.979 0 0 1 0 3.047L78 307.854c-12.085 10.649-31.678 10.649-43.762 0l-.85-.749v-9.6a8.942 8.942 0 0 1 11.089.321zm-13.763-3.19v17.675h-2.675V294.63z" class="prefix__cls-1" data-name="Path 71" transform="translate(0 -222.198)"/>
    </g>
</svg>
