<svg xmlns="http://www.w3.org/2000/svg" width="80" height="80" viewBox="0 0 80 80">
    <defs>
        <linearGradient id="prefix__linear-gradient" x1=".5" x2=".5" y2="1" gradientUnits="objectBoundingBox">
            <stop offset="0" stop-color="#423f90"/>
            <stop offset="1" stop-color="#9d71ad"/>
        </linearGradient>
        <style>
            .prefix__cls-1{fill:url(#prefix__linear-gradient)}
        </style>
    </defs>
    <g id="prefix__Outline" transform="translate(-15.996 -16)">
        <path id="prefix__Path_104" d="M64.375 73.655l1.884-1.909L51.216 56.5l37.3-37.8h22.094v5.4h-2.893a3.99 3.99 0 0 0-4.444-2.642 4.059 4.059 0 0 0 0 7.983 3.99 3.99 0 0 0 4.444-2.642h2.893v14.292L84.357 67.7l1.884 1.9 26.643-27a1.359 1.359 0 0 0 .39-.955V34.9h4a5.4 5.4 0 0 0 0-10.8h-4v-6.75a1.341 1.341 0 0 0-1.332-1.35H87.964a1.323 1.323 0 0 0-.942.4L48.39 55.545a1.363 1.363 0 0 0 0 1.909zm38.242-48.2a1.343 1.343 0 0 1 1.332-1.35v2.7a1.343 1.343 0 0 1-1.332-1.35zM117.27 26.8a2.7 2.7 0 0 1 0 5.4h-4v-5.4z" class="prefix__cls-1" data-name="Path 104" transform="translate(-26.603)"/>
        <path id="prefix__Path_105" d="M232.168 95.838a4.3 4.3 0 0 0 2.754 2.8 4.188 4.188 0 0 0 1.728 3.272 4.446 4.446 0 0 0 3.961.712 4.5 4.5 0 0 0 7.014 0 4.446 4.446 0 0 0 3.961-.712 4.188 4.188 0 0 0 1.728-3.272 4.3 4.3 0 0 0 2.754-2.8 4.129 4.129 0 0 0-.561-3.688 4.129 4.129 0 0 0 .561-3.688 4.3 4.3 0 0 0-2.754-2.8 4.188 4.188 0 0 0-1.728-3.272 4.445 4.445 0 0 0-3.961-.712 4.5 4.5 0 0 0-7.014 0 4.446 4.446 0 0 0-3.961.712 4.188 4.188 0 0 0-1.728 3.272 4.3 4.3 0 0 0-2.754 2.8 4.129 4.129 0 0 0 .561 3.688 4.129 4.129 0 0 0-.561 3.688zm3.227-4.814a1.49 1.49 0 0 1-.652-1.75 1.636 1.636 0 0 1 1.68-1.144 1.35 1.35 0 0 0 1.3-1.817 1.5 1.5 0 0 1 .543-1.761 1.722 1.722 0 0 1 2.12-.007 1.35 1.35 0 0 0 2.1-.69 1.734 1.734 0 0 1 3.269 0 1.35 1.35 0 0 0 2.1.69 1.721 1.721 0 0 1 2.119.007 1.5 1.5 0 0 1 .543 1.761 1.35 1.35 0 0 0 1.3 1.817 1.639 1.639 0 0 1 1.68 1.144 1.49 1.49 0 0 1-.652 1.75 1.35 1.35 0 0 0 0 2.252 1.49 1.49 0 0 1 .652 1.75 1.637 1.637 0 0 1-1.68 1.144 1.35 1.35 0 0 0-1.3 1.817 1.5 1.5 0 0 1-.543 1.761 1.722 1.722 0 0 1-2.119.007 1.35 1.35 0 0 0-2.1.69 1.734 1.734 0 0 1-3.269 0 1.35 1.35 0 0 0-2.1-.69 1.723 1.723 0 0 1-2.12-.007 1.5 1.5 0 0 1-.543-1.761 1.35 1.35 0 0 0-1.3-1.817 1.634 1.634 0 0 1-1.68-1.144 1.49 1.49 0 0 1 .652-1.75 1.35 1.35 0 0 0 0-2.252z" class="prefix__cls-1" data-name="Path 105" transform="translate(-180.165 -53.2)"/>
        <path id="prefix__Rectangle_35" d="M0 0H11.455V2.7H0z" class="prefix__cls-1" data-name="Rectangle 35" transform="rotate(-45 82.303 -6.023)"/>
        <path id="prefix__Rectangle_36" d="M0 0H11.455V2.7H0z" class="prefix__cls-1" data-name="Rectangle 36" transform="rotate(-45 89.12 -8.847)"/>
        <path id="prefix__Rectangle_37" d="M0 0H11.455V2.7H0z" class="prefix__cls-1" data-name="Rectangle 37" transform="rotate(-45 95.936 -11.67)"/>
        <path id="prefix__Rectangle_38" d="M0 0H11.455V2.7H0z" class="prefix__cls-1" data-name="Rectangle 38" transform="rotate(-45 102.753 -14.494)"/>
        <path id="prefix__Rectangle_39" d="M0 0H5.728V2.7H0z" class="prefix__cls-1" data-name="Rectangle 39" transform="rotate(-45 106.735 -24.173)"/>
        <path id="prefix__Rectangle_40" d="M0 0H2.7V4.654H0z" class="prefix__cls-1" data-name="Rectangle 40" transform="rotate(-45 74.824 -31.744)"/>
        <path id="prefix__Rectangle_41" d="M0 0H2.7V11.932H0z" class="prefix__cls-1" data-name="Rectangle 41" transform="rotate(-45 83.3 -35.253)"/>
        <path id="prefix__Path_106" d="M97.023 25.41a7.913 7.913 0 0 1 5.768 5.768 1.35 1.35 0 0 0 2.619 0 7.913 7.913 0 0 1 5.768-5.768 1.35 1.35 0 0 0 0-2.619 7.913 7.913 0 0 1-5.768-5.768 1.35 1.35 0 0 0-2.619 0 7.913 7.913 0 0 1-5.768 5.768 1.35 1.35 0 0 0 0 2.619zm7.077-4.654a10.6 10.6 0 0 0 3.345 3.345 10.6 10.6 0 0 0-3.345 3.345 10.6 10.6 0 0 0-3.345-3.345 10.6 10.6 0 0 0 3.345-3.345z" class="prefix__cls-1" data-name="Path 106" transform="translate(-66.713 -.001)"/>
        <path id="prefix__Rectangle_42" d="M0 0H14.398V2.7H0z" class="prefix__cls-1" data-name="Rectangle 42" transform="rotate(-45 110.972 -52.466)"/>
        <path id="prefix__Rectangle_43" d="M0 0H3.818V2.7H0z" class="prefix__cls-1" data-name="Rectangle 43" transform="rotate(-45 102.413 -72.896)"/>
        <path id="prefix__Path_107" d="M94.662 329.35h-12a1.342 1.342 0 0 0-1.333 1.35v1.279a20.7 20.7 0 0 0-22.458-1.26l-2.335 1.33H45.329a6.653 6.653 0 0 0-5.9 3.6 6.819 6.819 0 0 0 .394 6.959l-14.221-7.154a6.228 6.228 0 0 0-2.735-.661h-.573a6.269 6.269 0 0 0-6.129 4.854 6.358 6.358 0 0 0 3.285 7.142l16.361 8.283a11.937 11.937 0 0 0 5.367 1.282h53.484A1.342 1.342 0 0 0 96 355v-24.3a1.342 1.342 0 0 0-1.338-1.35zm-57.655 23.3l-16.361-8.283a3.647 3.647 0 0 1-1.887-4.083 3.6 3.6 0 0 1 3.491-2.8h.601a3.574 3.574 0 0 1 1.569.379l14.98 7.546a1.321 1.321 0 0 0 .593.141h17.336a1.35 1.35 0 0 0 0-2.7h-12a4.05 4.05 0 0 1 0-8.1h11.556a1.32 1.32 0 0 0 .654-.173l2.64-1.5a18.068 18.068 0 0 1 20.349 1.677l.8.649v18.247H41.181a9.286 9.286 0 0 1-4.174-.998zm56.322 1H84v-21.6h9.333z" class="prefix__cls-1" data-name="Path 107" transform="translate(0 -260.35)"/>
        <path id="prefix__Path_108" d="M442.025 436.05a2.025 2.025 0 1 0-2.025-2.025 2.025 2.025 0 0 0 2.025 2.025z" class="prefix__cls-1" data-name="Path 108" transform="translate(-353.455 -346.8)"/>
        <path id="prefix__Rectangle_44" d="M0 0H2.7V15.274H0z" class="prefix__cls-1" data-name="Rectangle 44" transform="rotate(-45 79.85 -25.841)"/>
    </g>
</svg>
