<svg xmlns="http://www.w3.org/2000/svg" width="240" height="150" viewBox="0 0 240 150">
    <defs>
        <style>
        .a {
            fill: none;
        }

        .b {
            fill: #fff;
            stroke: rgba(0, 0, 0, 0);
        }

        .c {
            fill: #fff;
        }
        </style>
    </defs>
    <g transform="translate(-90 -1258)">
        <rect class="a" width="240" height="150" transform="translate(90 1258)" />
        <g transform="translate(-1022.497 1823.503)">
            <g transform="translate(1169.497 -553.503)">
                <path class="b" d="M56.163,126h0L0,69.714,13.416,56.331l-.018-.018,39.929-39.8c-.678-.02-1.387-.031-2.108-.031a86.243,86.243,0,0,0-33.082,7.1A81.322,81.322,0,0,0,4.456,30.852a2.212,2.212,0,0,1-1.3.417,2.232,2.232,0,0,1-2.2-2.6,2.214,2.214,0,0,1,.9-1.449,86.617,86.617,0,0,1,14.466-7.683,98.068,98.068,0,0,1,15.627-5.168,83.835,83.835,0,0,1,19.364-2.342c2.091,0,4.2.087,6.254.259L69.9,0h31.279L126,24.768l0,31.581-4.13,4.121a35.872,35.872,0,0,1,3.163,15.349,32.372,32.372,0,0,1-2.4,11.624,37.927,37.927,0,0,1-8.458,12.41,23.913,23.913,0,0,1-9.045,5.5,34.141,34.141,0,0,1-11.281,1.875h-.018a32.95,32.95,0,0,1-15.246-3.6L56.164,126ZM16.578,59.488,6.322,69.717l49.845,49.975,10.256-10.229ZM59.223,16.953h0L19.735,56.337l49.841,49.946,5.121-5.106a26.592,26.592,0,0,1-9.238-13.062c-2.382-7.185-2.279-15.976.307-26.13a2.233,2.233,0,1,1,4.328,1.1c-4.068,15.982-1.3,28.376,7.8,34.9L121.534,54.5V26.621L99.331,4.467H71.742L63.2,12.986A72.994,72.994,0,0,1,90.269,23.309a8.736,8.736,0,1,1-2.059,5.581,8.509,8.509,0,0,1,.152-1.515A68.588,68.588,0,0,0,59.223,16.953Zm59.269,46.885h0L81.918,100.316a28.489,28.489,0,0,0,11.751,2.462c6.948,0,13.6-2.331,17.353-6.083,13.31-13.313,9.659-27.413,7.471-32.857ZM97,24.568a4.292,4.292,0,0,0-3,1.226l-.984,4.762A4.322,4.322,0,1,0,97,24.568Z" transform="translate(0 0)" />
                <g transform="translate(87.929 19.791)">
                    <path class="c" d="M801.592,197.609a9.035,9.035,0,1,1,9.02-9.035A9.038,9.038,0,0,1,801.592,197.609Zm0-12.5a3.468,3.468,0,1,0,3.452,3.468A3.464,3.464,0,0,0,801.592,185.106Z" transform="translate(-792.572 -179.539)" />
                </g>
            </g>
        </g>
    </g>
</svg>