<svg xmlns="http://www.w3.org/2000/svg" width="240" height="150" viewBox="0 0 240 150"><defs><style>.a{fill:none;}.b{fill:#ffffff;}.c{fill:#ffffff;font-size:12px;font-family:MyriadPro-BoldCond, Myriad Pro;font-weight:700;}</style></defs><g transform="translate(-544 454)"><rect class="a" width="240" height="150" transform="translate(544 -454)"/><g transform="translate(91.012 -1697.938)"><g transform="translate(501.988 1247.938)"><g transform="translate(0 0)"><path class="b" d="M454.174,380.85,477.9,357.127a2.746,2.746,0,0,0-1.84-4.7l.082.165-12.9-.439-.439-12.905a2.746,2.746,0,0,0-4.7-1.84L434.4,361a2.745,2.745,0,0,0-.8,2.032v2.746a61.943,61.943,0,1,0,15.87,15.87h2.746A2.748,2.748,0,0,0,454.174,380.85ZM455,416.818a56.507,56.507,0,1,1-21.06-43.931l.137,4.585-10.983,10.983a37.616,37.616,0,1,0,3.844,3.9l10.983-10.983,4.53.165A56.456,56.456,0,0,1,455,416.818Zm-58.264,1.84a2.746,2.746,0,0,0,3.871,0l5.491-5.492a8.3,8.3,0,1,1-3.871-3.872l-5.491,5.492A2.745,2.745,0,0,0,396.734,418.658Zm9.5-13.4a13.729,13.729,0,1,0,3.871,3.872l13.015-13.015a32.069,32.069,0,1,1-3.871-3.872Zm33.388-29.489-.384-11.7,18.4-18.4.3,9.143a2.746,2.746,0,0,0,2.746,2.745l9.143.3-18.506,18.286Z" transform="translate(-336.519 -336.599)"/></g><text class="c" transform="translate(11.174 81.271)"><tspan x="0" y="0">4</tspan></text><text class="c" transform="translate(105.278 81.271)"><tspan x="0" y="0">2</tspan></text><text class="c" transform="translate(58.462 128.925)"><tspan x="0" y="0">3</tspan></text><text class="c" transform="translate(58.462 35.986)"><tspan x="0" y="0">1</tspan></text></g></g></g></svg>