<svg xmlns="http://www.w3.org/2000/svg" width="240" height="150" viewBox="0 0 240 150">
    <defs>
        <style>
        .a {
            fill: none;
        }

        .b {
            fill: #ffffff;
        }

        .c {
            fill: #ffffff;
        }
        </style>
    </defs>
    <g transform="translate(-523 -393)">
        <rect class="a" width="240" height="150" transform="translate(523 393)" />
        <g transform="translate(274 398.929)">
            <g transform="translate(319.531 34.061)">
                <g transform="translate(0)">
                    <path class="b" d="M480.627,198.992a3.261,3.261,0,0,0-6.065,2.4,35.8,35.8,0,1,1-20.121-20.128,3.26,3.26,0,1,0,2.411-6.059,42.276,42.276,0,1,0,23.775,23.789Z" transform="translate(-398.926 -172.229)" />
                </g>
            </g>
            <g transform="translate(300 14.526)">
                <path class="c" d="M421.334,118.094a3.26,3.26,0,1,0-6.269,1.794,55.289,55.289,0,1,1-37.922-37.941,3.26,3.26,0,0,0,1.8-6.268,61.8,61.8,0,1,0,42.392,42.415Z" transform="translate(-300 -73.285)" />
            </g>
            <g transform="translate(339.065 53.591)">
                <path class="c" d="M543.362,291.954a3.261,3.261,0,1,0-6.5.58c.041.464.062.939.062,1.411a16.272,16.272,0,1,1-16.269-16.274c.5,0,.992.022,1.459.065a3.261,3.261,0,1,0,.6-6.494c-.665-.061-1.357-.092-2.058-.092a22.793,22.793,0,1,0,22.791,22.795C543.451,293.281,543.421,292.61,543.362,291.954Z" transform="translate(-497.865 -271.15)" />
            </g>
            <g transform="translate(359.861 0.071)">
                <g transform="translate(0)">
                    <path class="b" d="M681.041,21.992a6.5,6.5,0,0,0-6.027-4.027H663.645V6.6a6.521,6.521,0,0,0-11.133-4.612l-19,19a9.715,9.715,0,0,0-2.864,6.915V46.347l-26.5,26.5a3.261,3.261,0,1,0,4.611,4.611l26.5-26.5h18.451a9.716,9.716,0,0,0,6.915-2.863l19-19A6.5,6.5,0,0,0,681.041,21.992Zm-43.867,5.9a3.237,3.237,0,0,1,.954-2.3l19-18.994V19.876l-19.951,19.95V27.9Zm18.845,15.587a3.281,3.281,0,0,1-2.3.954h-11.93l19.95-19.95,13.278,0Z" transform="translate(-603.199 -0.071)" />
                </g>
            </g>
        </g>
    </g>
</svg>