<svg xmlns="http://www.w3.org/2000/svg" width="240" height="150" viewBox="0 0 240 150">
    <defs>
        <style>
        .a {
            fill: none;
        }

        .b {
            fill: #fff;
        }

        .c {
            fill: #fff;
        }
        </style>
    </defs>
    <g transform="translate(-367 -983)">
        <rect class="a" width="240" height="150" transform="translate(367 983)" />
        <g transform="translate(418.528 989.995)">
            <g transform="translate(0.013 19.38)">
                <path class="b" d="M136.451,115.207a49.326,49.326,0,0,0-98.548,0H30.918l-6.6-10.638a2.275,2.275,0,0,0-1.933-1.076H2.321a2.274,2.274,0,0,0-1.933,3.473l6.566,10.585L.388,128.14a2.274,2.274,0,0,0,1.933,3.473H22.389a2.275,2.275,0,0,0,1.933-1.076l6.685-10.781h6.9a49.327,49.327,0,0,0,98.548-4.549ZM21.122,127.064H6.4l4.444-7.165H25.559ZM10.853,115.207,6.4,108.042h14.72l4.444,7.165Zm76.439,47.057a47,47,0,0,1-9.119-.918c-19.178-3.574-34.594-20.586-35.661-41.589H51.8a35.482,35.482,0,1,0,0-4.549H42.511a44.78,44.78,0,1,1,44.78,47.057Zm-.119-47.057H84.844a3.264,3.264,0,1,1,.066,4.615l-.066-.066h2.329a2.274,2.274,0,1,0,0-4.549Zm2.323,9.747a7.81,7.81,0,1,0-9.746-9.746H70.241a17.1,17.1,0,1,1,0,4.549h9.507A7.811,7.811,0,0,0,89.5,124.954ZM89.45,139.01a21.649,21.649,0,1,0-23.8-23.8h-9.3a30.933,30.933,0,1,1,0,4.549h9.3A21.648,21.648,0,0,0,89.45,139.01Z" transform="translate(-0.046 -68.154)" />
            </g>
            <g transform="translate(22.745 0.005)">
                <g transform="translate(0 0)">
                    <rect class="c" width="18.196" height="4.549" />
                </g>
            </g>
            <g transform="translate(40.941 15.926)">
                <rect class="c" width="18.196" height="4.549" />
            </g>
            <g transform="translate(13.647 0.005)">
                <g transform="translate(0 0)">
                    <rect class="c" width="4.549" height="4.549" />
                </g>
            </g>
            <g transform="translate(9.098 43.22)">
                <rect class="c" width="18.196" height="4.549" />
            </g>
            <g transform="translate(0 43.22)">
                <rect class="c" width="4.549" height="4.549" />
            </g>
            <g transform="translate(18.196 93.258)">
                <rect class="c" width="13.647" height="4.549" />
            </g>
            <g transform="translate(9.098 93.258)">
                <rect class="c" width="4.549" height="4.549" />
            </g>
            <g transform="translate(45.49 113.729)">
                <rect class="c" width="4.549" height="4.549" />
            </g>
            <g transform="translate(9.098 131.925)">
                <rect class="c" width="18.196" height="4.549" />
            </g>
            <g transform="translate(0 131.925)">
                <rect class="c" width="4.549" height="4.549" />
            </g>
        </g>
    </g>
</svg>