<svg xmlns="http://www.w3.org/2000/svg" width="240" height="150" viewBox="0 0 240 150"><defs><style>.a{fill:none;}.b{fill:#373737;}.c{fill:#fb6c42;}</style></defs><g transform="translate(-28 -1640)"><rect class="a" width="240" height="150" transform="translate(28 1640)"/><g transform="translate(-4.328 1648)"><g transform="translate(116.328 0)"><g transform="translate(0 0)"><path class="b" d="M172.9,84.664c6.449-9.1,8.7-19.264,9.477-25.8h1.056a4.525,4.525,0,0,0,3.948-2.318,12.478,12.478,0,0,0,0-12.241,4.525,4.525,0,0,0-3.949-2.318h-.208V37.159A30.527,30.527,0,0,0,164.2,8.848l.067-1.275a5.389,5.389,0,0,0-2.334-4.709l-.153-.1a16.079,16.079,0,0,0-18.2.129,5.419,5.419,0,0,0-.777.663,5.323,5.323,0,0,0-1.5,3.625q0,.171,0,.344l.019.408.038.821a30.475,30.475,0,0,0-19.27,28.41v4.825h-.208a4.525,4.525,0,0,0-3.948,2.318,12.478,12.478,0,0,0,0,12.241,4.525,4.525,0,0,0,3.949,2.318h1.056c.776,6.539,3.028,16.7,9.477,25.8a24.655,24.655,0,0,0,8.952,7.774V94.95h-.928a22.352,22.352,0,0,0-22.333,23.27l.382,9.294a5.877,5.877,0,0,0,5.887,5.649h56.562a5.877,5.877,0,0,0,5.887-5.649l.382-9.294a22.352,22.352,0,0,0-22.333-23.27h-.928V92.439A24.657,24.657,0,0,0,172.9,84.664Zm-48.522,43.3h0a.687.687,0,0,1-.688-.661l-.382-9.294a17.017,17.017,0,0,1,1.927-8.643l1.67,18.6h-2.527Zm55.705-18.6a17.018,17.018,0,0,1,1.927,8.643l-.382,9.294a.687.687,0,0,1-.688.661H178.41Zm-57.529-55.7h-.258a7.294,7.294,0,0,1-.2-6.018c.063-.153.13-.3.2-.455h31.839a2.6,2.6,0,1,0,0-5.2h-26.84V37.159a25.284,25.284,0,0,1,14.324-22.84l.919,19.973a2.6,2.6,0,0,0,5.2-.239L146.5,7.281a.155.155,0,0,1,.066-.135,10.85,10.85,0,0,1,12.285-.087l.153.1a.157.157,0,0,1,.068.137l-.167,3.186h0l-1.238,23.548a2.6,2.6,0,0,0,2.461,2.734c.047,0,.093,0,.139,0a2.6,2.6,0,0,0,2.6-2.465l1.045-19.886a25.328,25.328,0,0,1,14.112,22.736v4.825h-3.05a2.6,2.6,0,0,0,0,5.2h8.049c.074.15.14.3.2.455a7.3,7.3,0,0,1-.2,6.018H122.55Zm9.574,74.3-2.175-24.22a17.232,17.232,0,0,1,3.546-2.118l2.365,26.338Zm39.691-26.338a17.221,17.221,0,0,1,3.546,2.118l-2.175,24.22H169.45Zm-6.943-1.471a17.511,17.511,0,0,1,1.842.1l-2.489,27.71H141.084l-2.489-27.71a17.515,17.515,0,0,1,1.842-.1h1.252a11.288,11.288,0,0,0,21.932,0h1.252Zm-18.3-2.678v-3.1a25.042,25.042,0,0,0,3.257.578,25.578,25.578,0,0,0,5.661,0,25.052,25.052,0,0,0,3.257-.578v.578h0v2.524a6.087,6.087,0,0,1-12.174,0Zm17.376-11.1a19.137,19.137,0,0,1-5.2,2.592,20.127,20.127,0,0,1-12.174,0,19.144,19.144,0,0,1-5.2-2.592,19.662,19.662,0,0,1-4.707-4.713c-5.577-7.871-7.672-16.839-8.454-22.8h48.912c-.777,5.946-2.868,14.9-8.464,22.8A19.663,19.663,0,0,1,163.944,86.37Z" transform="translate(-116.328 0)"/><path class="c" d="M296.739,163.038a2.575,2.575,0,0,0-.239-.45,2.492,2.492,0,0,0-.323-.4,2.619,2.619,0,0,0-2.346-.71,2.442,2.442,0,0,0-.486.148,2.566,2.566,0,0,0-.45.239,2.519,2.519,0,0,0-.718.718,2.573,2.573,0,0,0-.239.45,2.636,2.636,0,0,0-.148.486,2.566,2.566,0,0,0-.052.507,2.609,2.609,0,0,0,.052.51,2.764,2.764,0,0,0,.136.451c0,.012.008.024.012.035a2.638,2.638,0,0,0,.239.447,2.523,2.523,0,0,0,.718.718,2.636,2.636,0,0,0,.936.387,2.563,2.563,0,0,0,.507.052,2.621,2.621,0,0,0,1.839-.762,2.493,2.493,0,0,0,.323-.4,2.637,2.637,0,0,0,.239-.447c0-.012.008-.024.012-.035a2.763,2.763,0,0,0,.136-.451,2.6,2.6,0,0,0,.052-.51,2.56,2.56,0,0,0-.052-.507A2.627,2.627,0,0,0,296.739,163.038Z" transform="translate(-246.116 -119.447)"/><path class="c" d="M241.13,294.981a2.587,2.587,0,0,0-1.111,0h-7.59a2.6,2.6,0,0,0-1.641,4.906c.233.106.469.2.706.3a13.063,13.063,0,0,0,9.46,0c.237-.092.473-.19.706-.3a2.6,2.6,0,0,0-.53-4.906Z" transform="translate(-199.892 -218.215)"/></g></g></g></g></svg>