<svg xmlns="http://www.w3.org/2000/svg" width="240" height="150" viewBox="0 0 240 150">
    <defs>
        <style>
        .a {
            fill: none;
        }

        .b {
            fill: #ffffff;
        }

        .c {
            fill: #fb6c42;
        }
        </style>
    </defs>
    <g transform="translate(144 -168)">
        <rect class="a" width="240" height="150" transform="translate(-144 168)" />
        <g transform="translate(-165 66)">
            <g transform="translate(55 111)">
                <path class="b" d="M379.126,192.6l-35.58-35.58a8.535,8.535,0,0,0-6.082-2.519H288.251v5.732h14.331v42.991h5.732V160.232h29.151a2.867,2.867,0,0,1,2.029.84l4.892,4.892H331.242a5.732,5.732,0,0,0-5.732,5.732v25.795a5.732,5.732,0,0,0,5.732,5.732h42.992v22.929a2.866,2.866,0,0,1-2.866,2.866h-5.961a20.037,20.037,0,0,0-39.667,0H285.155a20.037,20.037,0,0,0-39.666,0h-5.962a2.866,2.866,0,0,1-2.866-2.866V200.357h-5.732v25.795a8.6,8.6,0,0,0,8.6,8.6h5.962a20,20,0,0,0,5.821,11.464H208v5.732H345.573a20.08,20.08,0,0,0,19.833-17.2h5.961a8.6,8.6,0,0,0,8.6-8.6V194.625A2.867,2.867,0,0,0,379.126,192.6ZM250.992,231.884a14.331,14.331,0,1,1,14.33,14.331A14.33,14.33,0,0,1,250.992,231.884Zm28.343,14.331a20,20,0,0,0,5.821-11.464H325.74a20,20,0,0,0,5.821,11.464Zm66.239,0a14.331,14.331,0,1,1,14.33-14.331A14.33,14.33,0,0,1,345.573,246.215Zm-14.331-48.724V171.7h18.876l24.116,24.116v1.679Z" transform="translate(-208 -120.107)" />
                <rect class="b" width="5.732" height="5.732" transform="translate(54.456 108.912)" />
                <rect class="b" width="5.732" height="5.732" transform="translate(134.707 108.912)" />
                <rect class="b" width="14.331" height="5.732" transform="translate(0 100.313)" />
                <rect class="b" width="8.598" height="5.732" transform="translate(5.732 88.849)" />
                <rect class="b" width="5.732" height="5.732" transform="translate(8.598 77.385)" />
                <path class="c" d="M245.259,133.018A37.259,37.259,0,1,0,208,95.759,37.259,37.259,0,0,0,245.259,133.018Zm0-68.786a31.527,31.527,0,1,1-31.527,31.527A31.527,31.527,0,0,1,245.259,64.232Z" transform="translate(-208 -58.5)" />
                <path class="b" d="M276.063,142.09a2.867,2.867,0,0,0,2.026-.84c1.846-1.846,18.036-18.392,18.036-30.687a20.063,20.063,0,0,0-40.125,0c0,12.3,16.19,28.842,18.036,30.687A2.866,2.866,0,0,0,276.063,142.09Zm0-45.858a14.348,14.348,0,0,1,14.331,14.33c0,7.354-9.02,18.719-14.331,24.508-5.311-5.79-14.33-17.154-14.33-24.508A14.347,14.347,0,0,1,276.063,96.232Z" transform="translate(-238.803 -79.036)" />
                <path class="b" d="M305.2,131.1a8.6,8.6,0,1,0-8.6,8.6A8.6,8.6,0,0,0,305.2,131.1Zm-11.464,0a2.866,2.866,0,1,1,2.866,2.866A2.866,2.866,0,0,1,293.732,131.1Z" transform="translate(-259.339 -99.571)" />
                <rect class="b" width="11.464" height="5.732" transform="translate(108.912 88.849)" />
            </g>
        </g>
    </g>
</svg>