<svg xmlns="http://www.w3.org/2000/svg" width="240" height="150" viewBox="0 0 240 150"><defs><style>.a{fill:none;}.b{fill:#fb6c42;}.c{fill:#373737;}</style></defs><g transform="translate(-55 -960)"><rect class="a" width="240" height="150" transform="translate(55 960)"/><g transform="translate(109 969)"><g transform="translate(41.565 84.962)"><path class="b" d="M164.833,328.647a2.589,2.589,0,1,0,.759,1.832A2.607,2.607,0,0,0,164.833,328.647Z" transform="translate(-160.41 -327.89)"/></g><g transform="translate(0 25.281)"><path class="c" d="M132.668,160.359a11.009,11.009,0,0,0-8.583-10.722,10.985,10.985,0,0,0-9.152-17.071H86.1l3.772-11.2A17.484,17.484,0,0,0,78.388,99.059l-4.546-1.382a2.59,2.59,0,0,0-3.191,1.6l-7.144,19.743a24.343,24.343,0,0,1-11.259,13.108l-7.136,3.886a8.417,8.417,0,0,0-6.79-3.445H2.591A2.591,2.591,0,0,0,0,135.158v67.2a2.591,2.591,0,0,0,2.591,2.591H38.322a8.428,8.428,0,0,0,7.275-4.184l3.657,1.434a39.679,39.679,0,0,0,14.544,2.75h45.277a10.986,10.986,0,0,0,9.125-17.113,10.981,10.981,0,0,0,6.459-16.9A11.009,11.009,0,0,0,132.668,160.359Zm-10.992,5.809H95.025a2.591,2.591,0,0,0,0,5.182h20.581a5.809,5.809,0,0,1,0,11.618H95.025a2.591,2.591,0,1,0,0,5.182h14.051a5.809,5.809,0,1,1,0,11.618H63.8a34.516,34.516,0,0,1-12.652-2.392l-4.4-1.725V170.23a2.591,2.591,0,1,0-5.182,0v26.3a3.246,3.246,0,0,1-3.243,3.243H5.182v-62.02h33.14a3.246,3.246,0,0,1,3.243,3.243v8.8a2.591,2.591,0,1,0,5.182,0v-8.767l7.98-4.346a29.52,29.52,0,0,0,13.654-15.9l6.307-17.43,2.193.666a12.3,12.3,0,0,1,8.08,15.7L80.037,134.33a2.591,2.591,0,0,0,2.455,3.418h32.442a5.809,5.809,0,1,1,0,11.618H95.025a2.591,2.591,0,1,0,0,5.182h26.652a5.809,5.809,0,0,1,0,11.619Z" transform="translate(0 -97.564)"/></g><g transform="translate(21.031 107.671)"><path class="b" d="M88.42,415.53a7.258,7.258,0,1,0,7.258,7.258A7.266,7.266,0,0,0,88.42,415.53Zm0,9.334a2.076,2.076,0,1,1,2.076-2.076A2.078,2.078,0,0,1,88.42,424.864Z" transform="translate(-81.162 -415.53)"/></g><g transform="translate(74.838)"><path class="b" d="M293.242.759a2.591,2.591,0,0,0-4.423,1.832A2.591,2.591,0,1,0,293.242.759Z" transform="translate(-288.819)"/></g><g transform="translate(74.838 9.674)"><path class="b" d="M291.411,37.333a2.591,2.591,0,0,0-2.591,2.591V46.23a2.591,2.591,0,0,0,5.182,0V39.924A2.591,2.591,0,0,0,291.411,37.333Z" transform="translate(-288.82 -37.333)"/></g><g transform="translate(92.866 34.013)"><path class="b" d="M376.963,131.266H360.984a2.591,2.591,0,1,0,0,5.182h15.979a2.591,2.591,0,0,0,0-5.182Z" transform="translate(-358.393 -131.266)"/></g><g transform="translate(40.825 34.006)"><path class="b" d="M176.124,131.239H160.145a2.591,2.591,0,1,0,0,5.182h15.979a2.591,2.591,0,1,0,0-5.182Z" transform="translate(-157.554 -131.239)"/></g><g transform="translate(52.643 11.813)"><path class="b" d="M215.13,53.893l-7.544-7.544a2.591,2.591,0,1,0-3.665,3.665l7.544,7.544a2.591,2.591,0,0,0,3.664-3.665Z" transform="translate(-203.162 -45.59)"/></g><g transform="translate(89.487 11.818)"><path class="b" d="M357.321,46.368a2.592,2.592,0,0,0-3.665,0l-7.544,7.544a2.591,2.591,0,0,0,3.665,3.665l7.544-7.544A2.592,2.592,0,0,0,357.321,46.368Z" transform="translate(-345.353 -45.609)"/></g></g></g></svg>