<svg xmlns="http://www.w3.org/2000/svg" width="240" height="150" viewBox="0 0 240 150"><defs><style>.a{fill:none;}.b{fill:#373737;}.c{fill:#fb6c42;}</style></defs><g transform="translate(-822 -973)"><rect class="a" width="240" height="150" transform="translate(822 973)"/><g transform="translate(877.999 984)"><path class="b" d="M39.227,105.291H18.581V80.517a2.065,2.065,0,0,0-2.065-2.065H5.306l13.082-28.03a2.054,2.054,0,0,0,.194-.873,24.809,24.809,0,0,1,20-24.3,47.176,47.176,0,0,0-5.545,22.237h4.129A43.4,43.4,0,0,1,80.517,4.129V0A47.469,47.469,0,0,0,41.3,20.748,28.921,28.921,0,0,0,14.456,49.082L.195,79.644a2.065,2.065,0,0,0,1.87,2.938H14.452v24.774a2.065,2.065,0,0,0,2.065,2.065H37.162V128h4.129V107.356a2.065,2.065,0,0,0-2.065-2.065Zm0,0" transform="translate(0 0)"/><path class="b" d="M234.839,80a26.839,26.839,0,1,0,26.839,26.839A26.87,26.87,0,0,0,234.839,80Zm0,41.29a14.452,14.452,0,1,1,14.452-14.452A14.468,14.468,0,0,1,234.839,121.29Zm-2.064-32.91a18.485,18.485,0,0,0-9.519,3.956L220.317,89.4a22.592,22.592,0,0,1,12.458-5.164Zm13.648,3.956A18.485,18.485,0,0,0,236.9,88.38V84.234A22.613,22.613,0,0,1,249.361,89.4ZM217.4,92.317l2.938,2.939a18.492,18.492,0,0,0,0,23.167l-2.938,2.939a22.647,22.647,0,0,1,0-29.044Zm2.918,31.964,2.939-2.939a18.492,18.492,0,0,0,23.167,0l2.939,2.939a22.65,22.65,0,0,1-29.044,0Zm31.964-2.919-2.938-2.939a18.492,18.492,0,0,0,0-23.167l2.938-2.939a22.65,22.65,0,0,1,0,29.044Zm0,0" transform="translate(-154.322 -59.355)"/><path class="b" d="M312,227.355v4.129A47.538,47.538,0,0,0,359.484,184h-4.129A43.4,43.4,0,0,1,312,227.355Zm0,0" transform="translate(-231.483 -136.516)"/><path class="c" d="M220.9,0H200.258a2.064,2.064,0,0,0-1.46,3.524l4.734,4.734-9.482,9.482a34.589,34.589,0,0,0-10.309-4.354V10.323a2.065,2.065,0,0,0-2.065-2.065H169.291a2.066,2.066,0,0,0-2.065,2.065v3.062A34.576,34.576,0,0,0,156.9,17.726l-2.669-2.669a2.062,2.062,0,0,0-2.919,0l-8.258,8.258a2.062,2.062,0,0,0,0,2.919l2.669,2.669a34.626,34.626,0,0,0-4.342,10.323h-3.062a2.066,2.066,0,0,0-2.065,2.065V53.678a2.065,2.065,0,0,0,2.065,2.065h3.063a34.67,34.67,0,0,0,4.355,10.309l-9.483,9.482L131.524,70.8A2.064,2.064,0,0,0,128,72.258V92.9a2.065,2.065,0,0,0,2.065,2.065H150.71a2.064,2.064,0,0,0,1.46-3.524l-4.734-4.734,9.482-9.482a34.589,34.589,0,0,0,10.309,4.354v3.064a2.065,2.065,0,0,0,2.065,2.065h.136l-6.146,13.6a2.051,2.051,0,0,0-.183.851V128h4.129v-26.4l6.731-14.9h7.721a2.065,2.065,0,0,0,2.065-2.065V81.584a34.6,34.6,0,0,0,10.323-4.342l2.669,2.669a2.062,2.062,0,0,0,2.919,0l8.258-8.258a2.062,2.062,0,0,0,0-2.919l-2.669-2.669a34.6,34.6,0,0,0,4.342-10.323h3.062a2.065,2.065,0,0,0,2.065-2.065V41.291a2.065,2.065,0,0,0-2.065-2.065h-3.062a34.7,34.7,0,0,0-4.354-10.309l9.48-9.482,4.734,4.734a2.064,2.064,0,0,0,3.524-1.46V2.065A2.065,2.065,0,0,0,220.9,0Zm-2.065,17.726-2.669-2.669a2.062,2.062,0,0,0-2.919,0L201.117,27.19a2.067,2.067,0,0,0-.235,2.639,30.6,30.6,0,0,1,5.006,11.846,2.061,2.061,0,0,0,2.027,1.68h2.665v8.258h-2.665a2.061,2.061,0,0,0-2.027,1.678,30.676,30.676,0,0,1-4.99,11.861,2.067,2.067,0,0,0,.233,2.64l2.4,2.4-5.339,5.339-2.4-2.4a2.066,2.066,0,0,0-2.64-.233,30.583,30.583,0,0,1-11.861,4.99,2.063,2.063,0,0,0-1.678,2.027v2.665h-8.258V79.916a2.063,2.063,0,0,0-1.678-2.027,30.6,30.6,0,0,1-11.846-5.006,2.067,2.067,0,0,0-2.639.235L143.059,85.25a2.062,2.062,0,0,0,0,2.919l2.667,2.669h-13.6v-13.6l2.669,2.669a2.062,2.062,0,0,0,2.919,0l12.133-12.133a2.065,2.065,0,0,0,.236-2.638,30.641,30.641,0,0,1-5.007-11.847,2.061,2.061,0,0,0-2.027-1.68h-2.665V43.355h2.665a2.063,2.063,0,0,0,2.027-1.678,30.616,30.616,0,0,1,4.99-11.861,2.067,2.067,0,0,0-.233-2.64l-2.4-2.4,5.339-5.339,2.4,2.4a2.064,2.064,0,0,0,2.64.233,30.6,30.6,0,0,1,11.861-4.99,2.063,2.063,0,0,0,1.678-2.027V12.387h8.258v2.665a2.063,2.063,0,0,0,1.678,2.027,30.612,30.612,0,0,1,11.847,5.007,2.063,2.063,0,0,0,2.638-.236L207.91,9.718a2.062,2.062,0,0,0,0-2.919l-2.667-2.669h13.6Zm0,0" transform="translate(-94.967)"/></g></g></svg>