<svg xmlns="http://www.w3.org/2000/svg" width="80" height="80" viewBox="0 0 80 80">
    <defs>
        <linearGradient id="prefix__linear-gradient" x1=".5" x2=".5" y2="1" gradientUnits="objectBoundingBox">
            <stop offset="0" stop-color="#423f90"/>
            <stop offset="1" stop-color="#9d71ad"/>
        </linearGradient>
        <style>
            .prefix__cls-1{fill:url(#prefix__linear-gradient)}
        </style>
    </defs>
    <g id="prefix__product" transform="translate(0 -.101)">
        <path id="prefix__Path_50" d="M79.82 57.233a5.6 5.6 0 0 0-4.32-4.374V18.215h2.649a1.426 1.426 0 0 0 1.324-1.509V1.611A1.426 1.426 0 0 0 78.144.1H19.867a1.426 1.426 0 0 0-1.324 1.509v15.096a1.426 1.426 0 0 0 1.324 1.509h2.649V48.4h-1.324a15.573 15.573 0 0 0-9.272 3.1v-7.625a1.426 1.426 0 0 0-1.32-1.509H1.324A1.426 1.426 0 0 0 0 43.875v34.717A1.426 1.426 0 0 0 1.324 80.1H10.6a1.426 1.426 0 0 0 1.324-1.509v-7.62a15.588 15.588 0 0 0 9.271 3.092H42.94a15.44 15.44 0 0 0 4.462-.671l28.676-8.754c2.822-.876 4.493-4.184 3.742-7.406zM21.192 3.12H76.82V15.2H21.192zm3.973 15.094h47.682v34.9l-15.372 4.7a5.613 5.613 0 0 0-3.5-3.505l-17.85-5.453a10.653 10.653 0 0 0-3.079-.453h-7.881zM9.271 77.082H2.649v-31.7h6.622zm66.119-15.36l-28.67 8.754a13.051 13.051 0 0 1-3.78.568H21.192a13.345 13.345 0 0 1-8.742-3.321l-.53-.453V55.2l.53-.453a13.337 13.337 0 0 1 8.742-3.32h11.854a8.285 8.285 0 0 1 2.4.355l17.84 5.45a2.96 2.96 0 0 1 1.946 2.6 1.625 1.625 0 0 0 .053.183 1.673 1.673 0 0 0-.035.2 2.909 2.909 0 0 1-.087.726 2.732 2.732 0 0 1-2.553 2.232 2.311 2.311 0 0 1-.69-.1l-11.258-3.44a1.214 1.214 0 0 0-1.306.37 1.658 1.658 0 0 0-.349 1.481 1.42 1.42 0 0 0 .968 1.064l11.258 3.442a4.767 4.767 0 0 0 1.379.2 5.449 5.449 0 0 0 5.1-4.435 6.091 6.091 0 0 0 .15-.925l16.144-4.94c.115-.033.24-.067.358-.089a2.681 2.681 0 0 1 2.9 2.22 3.338 3.338 0 0 1 .087.782 2.982 2.982 0 0 1-1.959 2.919zm0 0" class="prefix__cls-1" data-name="Path 50"/>
        <path id="prefix__Path_51" d="M249.189 114.479h11.887a1.189 1.189 0 0 0 0-2.377h-11.887a1.189 1.189 0 1 0 0 2.377zm0 0" class="prefix__cls-1" data-name="Path 51" transform="translate(-205.897 -90.692)"/>
    </g>
</svg>
