<svg xmlns="http://www.w3.org/2000/svg" width="240" height="150" viewBox="0 0 240 150"><defs><style>.a{fill:none;}.b,.c{fill:#fff;}.b{stroke:rgba(0,0,0,0);}</style></defs><g transform="translate(-372 -1286)"><rect class="a" width="240" height="150" transform="translate(372 1286)"/><path class="b" d="M109.387,211.191H4.857a3.279,3.279,0,0,1,0-6.558H64.677v-6.557a3.279,3.279,0,0,1,6.558,0v6.557h34.872v-15.88a26.861,26.861,0,0,1,0-53.315v-15.88H71.235v6.557a3.279,3.279,0,1,1-6.558,0v-6.557H-47.941v15.52H-54.5v-18.8A3.283,3.283,0,0,1-51.221,113H109.387a3.283,3.283,0,0,1,3.279,3.28v22.238a3.283,3.283,0,0,1-3.279,3.28,20.3,20.3,0,1,0,0,40.6,3.282,3.282,0,0,1,3.279,3.279v22.239A3.282,3.282,0,0,1,109.387,211.191Zm-131.454,0H-51.221a3.282,3.282,0,0,1-3.279-3.279v-18.8h6.558v15.521h25.874a3.283,3.283,0,0,1,3.28,3.28A3.283,3.283,0,0,1-22.067,211.191Zm13.408-.041a3.3,3.3,0,0,1-2.094-.744,3.322,3.322,0,0,1-.994-3.638A3.289,3.289,0,0,1-8.664,204.6a3.326,3.326,0,0,1,3.218,2.662A3.316,3.316,0,0,1-7,210.7,3.279,3.279,0,0,1-8.659,211.15Zm44.306-20.864a12.852,12.852,0,1,1,9.1-3.765A12.778,12.778,0,0,1,35.647,190.286Zm0-19.177a6.3,6.3,0,1,0,4.465,1.847A6.273,6.273,0,0,0,35.647,171.109ZM3.824,183.354A3.281,3.281,0,0,1,1.3,182.2a3.3,3.3,0,0,1,.2-4.424L35.65,143.62a3.279,3.279,0,1,1,4.637,4.638L6.135,182.41A3.244,3.244,0,0,1,3.824,183.354Zm64.131-5.986a3.283,3.283,0,0,1-3.279-3.28V150.1a3.279,3.279,0,1,1,6.558,0v23.986A3.283,3.283,0,0,1,67.955,177.368ZM6.223,161.211a12.865,12.865,0,1,1,0-25.731,12.865,12.865,0,1,1,0,25.731Zm0-19.176a6.311,6.311,0,1,0,4.464,10.776,6.311,6.311,0,0,0-4.464-10.776Z" transform="translate(473.715 1199)"/><g transform="translate(398 1333.979)"><path class="c" d="M131.655,190.185h-2.331V186.3h-3.885v3.886H99.792V186.3H95.906v3.886H93.575a5.835,5.835,0,0,0-5.831,5.829v34.2a5.835,5.835,0,0,0,5.831,5.829h38.081a5.836,5.836,0,0,0,5.83-5.829v-34.2A5.837,5.837,0,0,0,131.655,190.185Zm1.945,40.026a1.945,1.945,0,0,1-1.945,1.943H93.575a1.945,1.945,0,0,1-1.945-1.943V204.564H133.6Zm0-29.534H91.63v-4.663a1.946,1.946,0,0,1,1.945-1.943h2.332v3.887h3.885V194.07h25.647v3.887h3.885V194.07h2.331a1.946,1.946,0,0,1,1.945,1.943Z" transform="translate(-87.744 -186.299)"/><g transform="translate(7.384 22.345)"><rect class="c" width="3.887" height="3.885"/></g><g transform="translate(15.156 22.345)"><rect class="c" width="3.886" height="3.885"/></g><g transform="translate(22.929 22.345)"><rect class="c" width="3.885" height="3.885"/></g><g transform="translate(30.701 22.345)"><rect class="c" width="3.886" height="3.885"/></g><g transform="translate(38.471 22.345)"><rect class="c" width="3.887" height="3.885"/></g><g transform="translate(7.384 30.116)"><rect class="c" width="3.887" height="3.886"/></g><g transform="translate(15.156 30.116)"><rect class="c" width="3.886" height="3.886"/></g><g transform="translate(22.929 30.116)"><rect class="c" width="3.885" height="3.886"/></g><g transform="translate(30.701 30.116)"><rect class="c" width="3.886" height="3.886"/></g><g transform="translate(7.384 37.888)"><rect class="c" width="3.887" height="3.886"/></g><g transform="translate(15.156 37.888)"><rect class="c" width="3.886" height="3.886"/></g><g transform="translate(22.929 37.888)"><rect class="c" width="3.885" height="3.886"/></g><g transform="translate(30.701 37.888)"><rect class="c" width="3.886" height="3.886"/></g><g transform="translate(38.471 30.116)"><rect class="c" width="3.887" height="3.886"/></g></g></g></svg>