<svg xmlns="http://www.w3.org/2000/svg" width="240" height="150" viewBox="0 0 240 150"><defs><style>.a{fill:none;}.b{fill:#373737;}.c{fill:#fff;}.d{fill:#fb6c42;}</style></defs><g transform="translate(-589 -131)"><rect class="a" width="240" height="150" transform="translate(589 131)"/><g transform="translate(346 110)"><g transform="translate(269 47)"><g transform="translate(21.216 0)"><path class="b" d="M285.693,178.2a3.279,3.279,0,0,0,3.279-3.279V152.684a3.279,3.279,0,0,0-3.279-3.279H125.086a3.279,3.279,0,0,0-3.279,3.279v22.238a3.279,3.279,0,0,0,3.279,3.279,20.3,20.3,0,1,1,0,40.6,3.278,3.278,0,0,0-3.279,3.279v22.239a3.279,3.279,0,0,0,3.279,3.279H154.24a3.279,3.279,0,1,0,0-6.558H128.365v-15.88a26.859,26.859,0,0,0,0-53.315v-15.88H240.984v6.556a3.279,3.279,0,1,0,6.558,0v-6.556h34.872v15.88a26.859,26.859,0,0,0,0,53.315v15.88H247.542V234.48a3.279,3.279,0,0,0-6.558,0v6.557h-59.82a3.279,3.279,0,0,0,0,6.558h104.53a3.279,3.279,0,0,0,3.279-3.279V222.078a3.278,3.278,0,0,0-3.279-3.279,20.3,20.3,0,0,1,0-40.6Z" transform="translate(-121.807 -149.405)"/><path class="b" d="M316.426,234.253a3.279,3.279,0,0,0,3.279-3.279V206.987a3.279,3.279,0,1,0-6.558,0v23.987A3.279,3.279,0,0,0,316.426,234.253Z" transform="translate(-193.97 -169.885)"/><path class="b" d="M220.605,207.464a12.888,12.888,0,1,0-9.1,3.763A12.79,12.79,0,0,0,220.605,207.464Zm-15.415-9.1a6.314,6.314,0,1,1,1.849,4.464A6.272,6.272,0,0,1,205.19,198.362Z" transform="translate(-150.781 -163.017)"/><path class="b" d="M249.647,235.94a12.872,12.872,0,1,0,18.2,0A12.884,12.884,0,0,0,249.647,235.94Zm13.566,4.637a6.32,6.32,0,1,1-4.465-1.847A6.321,6.321,0,0,1,263.214,240.577Z" transform="translate(-168.602 -180.622)"/><path class="b" d="M215.774,236.774l34.152-34.152a3.279,3.279,0,0,0-4.637-4.638l-34.152,34.152a3.279,3.279,0,1,0,4.637,4.637Z" transform="translate(-155.139 -167.365)"/><path d="M193.414,296.47a3.279,3.279,0,1,0,3.219,2.663A3.31,3.31,0,0,0,193.414,296.47Z" transform="translate(-147.579 -204.87)"/></g><rect class="c" width="40.802" height="54.032" transform="translate(11.715 22.079)"/><g transform="translate(0 22.98)"><path class="d" d="M131.655,190.185h-2.331V186.3h-3.885v3.886H99.792V186.3H95.906v3.886H93.575a5.835,5.835,0,0,0-5.831,5.829v34.2a5.835,5.835,0,0,0,5.831,5.829h38.081a5.836,5.836,0,0,0,5.83-5.829v-34.2A5.837,5.837,0,0,0,131.655,190.185Zm1.945,40.026a1.945,1.945,0,0,1-1.945,1.943H93.575a1.945,1.945,0,0,1-1.945-1.943V204.564H133.6Zm0-29.534H91.63v-4.663a1.946,1.946,0,0,1,1.945-1.943h2.332v3.887h3.885V194.07h25.647v3.887h3.885V194.07h2.331a1.946,1.946,0,0,1,1.945,1.943Z" transform="translate(-87.744 -186.299)"/><g transform="translate(7.384 22.345)"><rect class="b" width="3.887" height="3.885"/></g><g transform="translate(15.156 22.345)"><rect class="b" width="3.886" height="3.885"/></g><g transform="translate(22.929 22.345)"><rect class="b" width="3.885" height="3.885"/></g><g transform="translate(30.701 22.345)"><rect class="b" width="3.886" height="3.885"/></g><g transform="translate(38.471 22.345)"><rect class="b" width="3.887" height="3.885"/></g><g transform="translate(7.384 30.116)"><rect class="b" width="3.887" height="3.886"/></g><g transform="translate(15.156 30.116)"><rect class="b" width="3.886" height="3.886"/></g><g transform="translate(22.929 30.116)"><rect class="b" width="3.885" height="3.886"/></g><g transform="translate(30.701 30.116)"><rect class="b" width="3.886" height="3.886"/></g><g transform="translate(7.384 37.888)"><rect class="b" width="3.887" height="3.886"/></g><g transform="translate(15.156 37.888)"><rect class="b" width="3.886" height="3.886"/></g><g transform="translate(22.929 37.888)"><rect class="b" width="3.885" height="3.886"/></g><g transform="translate(30.701 37.888)"><rect class="b" width="3.886" height="3.886"/></g><g transform="translate(38.471 30.116)"><rect class="b" width="3.887" height="3.886"/></g></g></g></g></g></svg>