<svg xmlns="http://www.w3.org/2000/svg" width="36" height="36" viewBox="0 0 36 36">
    <defs>
        <style>
            .cls-1,.cls-2{fill:none}.cls-2{stroke:#353942;stroke-miterlimit:10;stroke-width:2px}.cls-3{stroke:none}
        </style>
    </defs>
    <g id="perks_icon" data-name="perks icon" transform="translate(0 -1)">
        <g id="faq_icon" data-name="faq icon" transform="translate(0 1)">
            <path id="Rectangle_3" d="M0 0h36v36H0z" class="cls-1" data-name="Rectangle 3"/>
        </g>
        <g id="Rectangle_5" class="cls-2" data-name="Rectangle 5" transform="translate(3 17)">
            <rect width="30" height="17" class="cls-3" rx="2"/>
            <rect width="28" height="15" x="1" y="1" class="cls-1" rx="1"/>
        </g>
        <g id="Rectangle" class="cls-2">
            <path d="M0 0h8v17H0z" class="cls-3" transform="translate(14 17)"/>
            <path d="M1 1h6v15H1z" class="cls-1" transform="translate(14 17)"/>
        </g>
        <g id="Rectangle_5_Copy" class="cls-2" data-name="Rectangle 5 Copy" transform="translate(2 11)">
            <rect width="32" height="8" class="cls-3" rx="2"/>
            <rect width="30" height="6" x="1" y="1" class="cls-1" rx="1"/>
        </g>
        <path id="Combined_Shape" d="M1 8a5 5 0 0 1 4-8 4.977 4.977 0 0 1 1 3 5 5 0 0 1-5 5z" class="cls-2" data-name="Combined Shape" transform="translate(18 3)"/>
        <path id="Combined_Shape_Copy" d="M-1 8a4.978 4.978 0 0 0 1-3 5 5 0 0 0-5-5 4.977 4.977 0 0 0-1 3 5 5 0 0 0 5 5z" class="cls-2" data-name="Combined Shape Copy" transform="translate(18 3)"/>
    </g>
</svg>
