<svg xmlns="http://www.w3.org/2000/svg" width="30" height="28.357" viewBox="0 0 30 28.357">
    <defs>
        <style>
            .cls-1{fill:#fff}
        </style>
    </defs>
    <g id="peya-logo" transform="translate(-91.6 -1.5)">
        <path id="Path_13" d="M111.147 1.528h-.34l-1.5-.028H92.082a.477.477 0 0 0-.482.482V4.7c0 3 2.125 4.646 5.949 4.646l13.6.028a2.606 2.606 0 0 1 0 5.212H95.906a.486.486 0 0 0-.482.368l-3.6 14.278a.558.558 0 0 0 .085.425.5.5 0 0 0 .4.2h4.844a3.042 3.042 0 0 0 2.89-2.295l1.416-5.184h9.717a10.425 10.425 0 1 0-.028-20.85z" class="cls-1" data-name="Path 13"/>
    </g>
</svg>
