<?xml version="1.0" encoding="utf-8"?>
<!-- Generator: Adobe Illustrator 23.0.3, SVG Export Plug-In . SVG Version: 6.00 Build 0)  -->
<svg version="1.0" xmlns="http://www.w3.org/2000/svg" xmlns:xlink="http://www.w3.org/1999/xlink" x="0px" y="0px" width="96px"
	 height="96px" viewBox="0 0 96 96" enable-background="new 0 0 96 96" xml:space="preserve">
<g id="Data_Search">
</g>
<g id="Data_Import">
</g>
<g id="Data_Export">
</g>
<g id="XML_Document">
</g>
<g id="Add_Organization">
</g>
<g id="Display_Template">
</g>
<g id="Search">
</g>
<g id="Case_Person_1_">
	<g id="Compound_Shape_9_">
	</g>
</g>
<g id="eProcurement">
</g>
<g id="Add_to_Basket">
</g>
<g id="Food_and_Drink">
</g>
<g id="Matching_Criteria">
</g>
<g id="Pin">
</g>
<g id="Contract_Management">
</g>
<g id="ISP">
</g>
<g id="Application_Database_Setup">
</g>
<g id="Vacancy_List">
</g>
<g id="Year_Planner">
	<g id="Compound_Shape_4_">
	</g>
</g>
<g id="eSourcing_Tools">
</g>
<g id="Health_Insurance_1_">
</g>
<g id="Travel">
</g>
<g id="Job_Categories">
</g>
<g id="Layer_102_copy_13">
</g>
<g id="Standard_Reports">
</g>
<g id="Invoice_Management">
</g>
<g id="Newspaper">
</g>
<g id="TV_and_Books">
</g>
<g id="Employment_Contracts">
</g>
<g id="Successfully_Added_Organization">
</g>
<g id="Customer_Reports">
</g>
<g id="Sent">
</g>
<g id="Electricity_Bill">
</g>
<g id="Photo_and_Video">
</g>
<g id="Posting_Info">
</g>
<g id="Customer_Invoices">
</g>
<g id="Drop_Files">
	<g id="Compound_Shape_3_">
	</g>
</g>
<g id="Mobile_Phone">
</g>
<g id="Sport">
</g>
<g id="Department_Admin">
</g>
<g id="Travel_and_Expenses">
</g>
<g id="Store">
	<g id="Compound_Shape_7_">
	</g>
</g>
<g id="Office_to_Rent">
</g>
<g id="Mobile_Location">
</g>
<g id="Filetype_Config">
	<g>
		<g>
			<path fill="#68A611" d="M20,30h13V17h27l0,23h2l0-25H31c0,0.3-13,13-13,13v45h23v-2H20V30z M31,17.1V28H20L31,17.1z M77.3,57.5
				L73.6,57c-0.1-0.4-0.3-0.7-0.5-1.1l2.3-2.9c0.6-0.8,0.5-1.8-0.2-2.5l-3.8-3.8c-0.7-0.7-1.7-0.8-2.7,0l-2.7,2.1
				c-0.4-0.2-0.7-0.3-1.1-0.5l-0.5-3.7c-0.1-1-0.9-1.7-1.9-1.7h-5.3c-1,0-1.8,0.7-1.9,1.7L55,48.4c-0.4,0.1-0.7,0.3-1.1,0.5
				c-0.4-0.3-2.6-2-2.9-2.3c-0.8-0.6-1.8-0.5-2.5,0.2l-3.8,3.8c-0.7,0.7-0.7,1.8-0.2,2.5l2.3,2.9c-0.2,0.4-0.3,0.7-0.5,1.1l-3.7,0.5
				c-1,0.1-1.7,0.9-1.7,1.9v5.3c0,1,0.7,1.8,1.7,1.9l3.7,0.5c0.1,0.4,0.3,0.7,0.5,1.1L44.5,71c-0.6,0.8-0.5,1.8,0.2,2.5l3.8,3.8
				c0.7,0.7,1.8,0.7,2.5,0.2l2.9-2.3c0.4,0.2,0.7,0.3,1.1,0.5l0.5,3.7c0.1,1,0.9,1.7,1.9,1.7h5.3c1,0,1.8-0.7,1.9-1.7l0.5-3.7
				c0.4-0.1,0.7-0.3,1.1-0.5c0.4,0.3,2.6,2,2.9,2.3c0.8,0.6,1.8,0.5,2.5-0.2l3.8-3.8c0.7-0.7,0.7-1.8,0.2-2.5l-2.3-2.9
				c0.2-0.4,0.3-0.7,0.5-1.1l3.7-0.5c1-0.1,1.7-0.9,1.7-1.9v-5.3C79,58.4,78.3,57.6,77.3,57.5z M77,64.6l-4.8,0.6
				c-0.7,1.9-0.5,1.4-1.3,3.2l3,3.8l-3.6,3.6l-3.8-3c-1.8,0.8-1.4,0.7-3.2,1.3L62.6,79h-5.1l-0.6-4.8c-1.8-0.7-1.5-0.5-3.2-1.3
				l-3.8,3l-3.6-3.6l3-3.8c-0.9-1.8-0.7-1.4-1.3-3.2L43,64.6v-5.1l4.8-0.6c0.7-1.9,0.5-1.4,1.3-3.2l-3-3.8l3.6-3.6l3.8,3
				c1.7-0.8,1.3-0.7,3.2-1.3l0.6-4.8h5.1l0.6,4.8c1.8,0.7,1.5,0.5,3.2,1.3l3.8-3l3.6,3.6l-3,3.8c0.9,1.8,0.7,1.4,1.3,3.2l4.8,0.6
				V64.6z M60,54c-4.4,0-8,3.6-8,8c0,4.4,3.6,8,8,8c4.4,0,8-3.6,8-8C68,57.6,64.4,54,60,54z M60,68c-3.3,0-6-2.7-6-6
				c0-3.3,2.7-6,6-6c3.3,0,6,2.7,6,6C66,65.3,63.3,68,60,68z"/>
		</g>
	</g>
</g>
<g id="Organization">
	<g id="Compound_Shape_13_">
	</g>
</g>
<g id="Add_Case_System">
</g>
<g id="Happy_File">
</g>
<g id="Transport">
</g>
<g id="Gaming">
</g>
<g id="Remove_Candidate">
</g>
<g id="Add_Case_Person">
</g>
<g id="Advanced_Time_Reporting_copy_12">
</g>
<g id="eInvoice">
	<g id="Compound_Shape_2_">
	</g>
</g>
<g id="CO2_Emissions">
</g>
<g id="Family">
</g>
<g id="Mobile_Unfriendly">
	<g id="Compound_Shape_6_">
	</g>
</g>
<g id="Mobile_Friendly">
	<g id="Compound_Shape_5_">
	</g>
</g>
<g id="Snap_It">
</g>
<g id="Clock">
</g>
<g id="HR_Employees_Talent">
</g>
<g id="Dispatcher">
</g>
<g id="Coffee_Cup">
</g>
<g id="Sound_and_Picture">
	<g id="Compound_Shape_1_">
	</g>
</g>
<g id="Current_Edit">
</g>
<g id="Export_Template">
</g>
<g id="Loked_File">
	<g id="Compound_Shape">
	</g>
</g>
<g id="Time_Reporting_and_HR">
</g>
<g id="Buyer">
</g>
<g id="Piggy_Bank">
</g>
<g id="Market">
</g>
<g id="eShopping">
</g>
<g id="Search_Template">
</g>
<g id="Thumbs_Up">
</g>
<g id="Time_Reporting">
</g>
<g id="Web-Based">
</g>
<g id="Lifestyle">
</g>
<g id="Stored_Applications">
</g>
<g id="Vacation">
</g>
<g id="Accounting">
</g>
<g id="Purchase_Order">
	<g id="Normal_1_">
	</g>
</g>
<g id="Hardware">
	<g id="Normal">
	</g>
</g>
<g id="Database_Setup">
</g>
<g id="Reports">
</g>
<g id="Clipboard">
</g>
<g id="Accounts_Receivable">
</g>
<g id="Invoice_Confirmation">
</g>
<g id="More">
</g>
<g id="Calendar">
	<g id="Compound_Shape_12_">
	</g>
</g>
<g id="Administration">
	<g id="Compound_Shape_11_">
	</g>
</g>
<g id="Admin">
	<g id="Compound_Shape_10_">
	</g>
</g>
<g id="Deleted_Application">
</g>
<g id="Case_System">
</g>
<g id="Payroll_and_HR">
</g>
<g id="End_User">
</g>
<g id="Gift">
</g>
<g id="Payslip">
</g>
<g id="Bank">
</g>
<g id="Image">
</g>
<g id="Services">
</g>
<g id="Smiley">
</g>
<g id="Guides" display="none" opacity="0.2">
	<rect display="inline" fill-rule="evenodd" clip-rule="evenodd" fill="#0089D9" width="96" height="96"/>
</g>
</svg>
