<?xml version="1.0" encoding="utf-8"?>
<!-- Generator: Adobe Illustrator 23.0.3, SVG Export Plug-In . SVG Version: 6.00 Build 0)  -->
<svg version="1.0" xmlns="http://www.w3.org/2000/svg" xmlns:xlink="http://www.w3.org/1999/xlink" x="0px" y="0px" width="96px"
	 height="96px" viewBox="0 0 96 96" enable-background="new 0 0 96 96" xml:space="preserve">
<g id="Data_Search">
</g>
<g id="Data_Import">
</g>
<g id="Data_Export">
</g>
<g id="XML_Document">
</g>
<g id="Add_Organization">
</g>
<g id="Display_Template">
</g>
<g id="Search">
</g>
<g id="Case_Person_1_">
	<g id="Compound_Shape_9_">
	</g>
</g>
<g id="eProcurement">
</g>
<g id="Add_to_Basket">
</g>
<g id="Food_and_Drink">
</g>
<g id="Matching_Criteria">
</g>
<g id="Pin">
</g>
<g id="Contract_Management">
</g>
<g id="ISP">
</g>
<g id="Application_Database_Setup">
</g>
<g id="Vacancy_List">
</g>
<g id="Year_Planner">
	<g id="Compound_Shape_4_">
	</g>
</g>
<g id="eSourcing_Tools">
</g>
<g id="Health_Insurance_1_">
</g>
<g id="Travel">
</g>
<g id="Job_Categories">
</g>
<g id="Layer_102_copy_13">
</g>
<g id="Standard_Reports">
</g>
<g id="Invoice_Management">
</g>
<g id="Newspaper">
</g>
<g id="TV_and_Books">
</g>
<g id="Employment_Contracts">
</g>
<g id="Successfully_Added_Organization">
</g>
<g id="Customer_Reports">
</g>
<g id="Sent">
</g>
<g id="Electricity_Bill">
</g>
<g id="Photo_and_Video">
</g>
<g id="Posting_Info">
</g>
<g id="Customer_Invoices">
</g>
<g id="Drop_Files">
	<g id="Compound_Shape_3_">
	</g>
</g>
<g id="Mobile_Phone">
</g>
<g id="Sport">
</g>
<g id="Department_Admin">
</g>
<g id="Travel_and_Expenses">
</g>
<g id="Store">
	<g id="Compound_Shape_7_">
	</g>
</g>
<g id="Office_to_Rent">
</g>
<g id="Mobile_Location">
</g>
<g id="Filetype_Config">
</g>
<g id="Organization">
	<g id="Compound_Shape_13_">
	</g>
</g>
<g id="Add_Case_System">
</g>
<g id="Happy_File">
</g>
<g id="Transport">
</g>
<g id="Gaming">
</g>
<g id="Remove_Candidate">
</g>
<g id="Add_Case_Person">
</g>
<g id="Advanced_Time_Reporting_copy_12">
</g>
<g id="eInvoice">
	<g id="Compound_Shape_2_">
		<g>
			<g>
				<path fill="#68A611" d="M66.2,36H31.8c-0.4,0-0.8,0.3-0.8,0.8c0,0.4,0.3,0.8,0.8,0.8h34.5c0.4,0,0.8-0.3,0.8-0.8
					C67,36.3,66.7,36,66.2,36z M31.8,41.5h34.5c0.4,0,0.8-0.3,0.8-0.8c0-0.4-0.3-0.8-0.8-0.8H31.8c-0.4,0-0.8,0.3-0.8,0.8
					C31,41.2,31.3,41.5,31.8,41.5z M31.8,45.5h34.5c0.4,0,0.8-0.3,0.8-0.8c0-0.4-0.3-0.8-0.8-0.8H31.8c-0.4,0-0.8,0.3-0.8,0.8
					C31,45.2,31.3,45.5,31.8,45.5z M58.2,31.5c0.4,0,0.8-0.3,0.8-0.8c0-0.4-0.3-0.8-0.8-0.8h-2.5c-0.4,0-0.8,0.3-0.8,0.8
					c0,0.4,0.3,0.8,0.8,0.8H58.2z M21,20L34,6h41v56.1l2,1.9V4H34L19,19v62h37v-2H21V20z M40.8,54.6c0.5,0,0.8-0.4,0.8-0.8
					S41.3,53,40.8,53h-5.1c-0.5,0-0.8,0.3-0.8,0.7s0.4,0.8,0.8,0.8H40.8z M31,48.8c0,0.4,0.3,0.8,0.8,0.8H56V48H31.8
					C31.3,48,31,48.3,31,48.8z M31.5,54.6h1.7c0.5,0,0.8-0.4,0.8-0.8S33.7,53,33.2,53h-1.7c-0.5,0-0.8,0.3-0.8,0.7
					S31.1,54.6,31.5,54.6z M66.2,30h-5.5c-0.4,0-0.8,0.3-0.8,0.8c0,0.4,0.3,0.8,0.8,0.8h5.5c0.4,0,0.8-0.3,0.8-0.8
					C67,30.3,66.7,30,66.2,30z M83.1,74.1L62.5,54.9C61.6,54,60,54.7,60,56v28.6c0,1.3,1.6,2,2.5,1.1l5.5-6l4.7,10.7
					c0.3,0.8,1.2,1.1,2,0.8l4-1.8c0.8-0.3,1.1-1.2,0.8-2L74.9,77H82C83.8,77,84,75,83.1,74.1z M73.4,75c0,0-1,0-1,1l5.1,11.7l-3,1.3
					l-5-11.2c0,0-0.7-2.2-2.7-0.2L62,83V57l19,18H73.4z"/>
			</g>
		</g>
		<path fill-rule="evenodd" clip-rule="evenodd" fill="#68A611" d="M36,6l-2,0v13H21l0,2h15V6z"/>
	</g>
</g>
<g id="CO2_Emissions">
</g>
<g id="Family">
</g>
<g id="Mobile_Unfriendly">
	<g id="Compound_Shape_6_">
	</g>
</g>
<g id="Mobile_Friendly">
	<g id="Compound_Shape_5_">
	</g>
</g>
<g id="Snap_It">
</g>
<g id="Clock">
</g>
<g id="HR_Employees_Talent">
</g>
<g id="Dispatcher">
</g>
<g id="Coffee_Cup">
</g>
<g id="Sound_and_Picture">
	<g id="Compound_Shape_1_">
	</g>
</g>
<g id="Current_Edit">
</g>
<g id="Export_Template">
</g>
<g id="Loked_File">
	<g id="Compound_Shape">
	</g>
</g>
<g id="Time_Reporting_and_HR">
</g>
<g id="Buyer">
</g>
<g id="Piggy_Bank">
</g>
<g id="Market">
</g>
<g id="eShopping">
</g>
<g id="Search_Template">
</g>
<g id="Thumbs_Up">
</g>
<g id="Time_Reporting">
</g>
<g id="Web-Based">
</g>
<g id="Lifestyle">
</g>
<g id="Stored_Applications">
</g>
<g id="Vacation">
</g>
<g id="Accounting">
</g>
<g id="Purchase_Order">
	<g id="Normal_1_">
	</g>
</g>
<g id="Hardware">
	<g id="Normal">
	</g>
</g>
<g id="Database_Setup">
</g>
<g id="Reports">
</g>
<g id="Clipboard">
</g>
<g id="Accounts_Receivable">
</g>
<g id="Invoice_Confirmation">
</g>
<g id="More">
</g>
<g id="Calendar">
	<g id="Compound_Shape_12_">
	</g>
</g>
<g id="Administration">
	<g id="Compound_Shape_11_">
	</g>
</g>
<g id="Admin">
	<g id="Compound_Shape_10_">
	</g>
</g>
<g id="Deleted_Application">
</g>
<g id="Case_System">
</g>
<g id="Payroll_and_HR">
</g>
<g id="End_User">
</g>
<g id="Gift">
</g>
<g id="Payslip">
</g>
<g id="Bank">
</g>
<g id="Image">
</g>
<g id="Services">
</g>
<g id="Smiley">
</g>
<g id="Guides" display="none" opacity="0.2">
	<rect display="inline" fill-rule="evenodd" clip-rule="evenodd" fill="#0089D9" width="96" height="96"/>
	<rect display="inline" fill-rule="evenodd" clip-rule="evenodd" fill="#0089D9" width="96" height="96"/>
	<rect display="inline" fill-rule="evenodd" clip-rule="evenodd" fill="#0089D9" width="96" height="96"/>
	<rect display="inline" fill-rule="evenodd" clip-rule="evenodd" fill="#0089D9" width="96" height="96"/>
	<rect display="inline" fill-rule="evenodd" clip-rule="evenodd" fill="#0089D9" width="96" height="96"/>
	<rect display="inline" fill-rule="evenodd" clip-rule="evenodd" fill="#0089D9" width="96" height="96"/>
	<rect display="inline" fill-rule="evenodd" clip-rule="evenodd" fill="#0089D9" width="96" height="96"/>
	<rect display="inline" fill-rule="evenodd" clip-rule="evenodd" fill="#0089D9" width="96" height="96"/>
	<rect display="inline" fill-rule="evenodd" clip-rule="evenodd" fill="#0089D9" width="96" height="96"/>
	<rect display="inline" fill-rule="evenodd" clip-rule="evenodd" fill="#0089D9" width="96" height="96"/>
	<rect display="inline" fill-rule="evenodd" clip-rule="evenodd" fill="#0089D9" width="96" height="96"/>
	<rect display="inline" fill-rule="evenodd" clip-rule="evenodd" fill="#0089D9" width="96" height="96"/>
	<rect display="inline" fill-rule="evenodd" clip-rule="evenodd" fill="#0089D9" width="96" height="96"/>
	<rect display="inline" fill-rule="evenodd" clip-rule="evenodd" fill="#0089D9" width="96" height="96"/>
	<rect display="inline" fill-rule="evenodd" clip-rule="evenodd" fill="#0089D9" width="96" height="96"/>
	<rect display="inline" fill-rule="evenodd" clip-rule="evenodd" fill="#0089D9" width="96" height="96"/>
	<rect display="inline" fill-rule="evenodd" clip-rule="evenodd" fill="#0089D9" width="96" height="96"/>
	<rect display="inline" fill-rule="evenodd" clip-rule="evenodd" fill="#0089D9" width="96" height="96"/>
	<rect display="inline" fill-rule="evenodd" clip-rule="evenodd" fill="#0089D9" width="96" height="96"/>
	<rect display="inline" fill-rule="evenodd" clip-rule="evenodd" fill="#0089D9" width="96" height="96"/>
	<rect display="inline" fill-rule="evenodd" clip-rule="evenodd" fill="#0089D9" width="96" height="96"/>
	<rect display="inline" fill-rule="evenodd" clip-rule="evenodd" fill="#0089D9" width="96" height="96"/>
</g>
</svg>
