<svg xmlns="http://www.w3.org/2000/svg" xmlns:xlink="http://www.w3.org/1999/xlink" width="112.807" height="67.651" viewBox="0 0 112.807 67.651"><defs><style>.a{fill:url(#a);}.b{fill:#000916;}</style><linearGradient id="a" y1="0.5" x2="1" y2="0.5" gradientUnits="objectBoundingBox"><stop offset="0.188" stop-color="#d8d8d8"/><stop offset="1" stop-color="#bcbcbc"/></linearGradient></defs><g transform="translate(-396.27 -214.873)"><g transform="translate(470.416 219.225)"><path class="a" d="M431.995,250.765l-8.984,2.565,2.853-8.535a18.013,18.013,0,0,1-2.853-9.781,18.337,18.337,0,1,1,8.984,15.752Z" transform="translate(-421.779 -215.902)"/><path class="b" d="M422.574,255.026l3.211-9.612a18.812,18.812,0,0,1-2.774-9.886,19.122,19.122,0,1,1,9.669,16.611ZM432.9,250.42l.3.178a17.515,17.515,0,1,0-8.594-15.069,17.223,17.223,0,0,0,2.723,9.35l.209.318-2.495,7.467Z" transform="translate(-422.574 -216.417)"/></g><g transform="translate(480.409 233.559)"><path d="M444.436,223.095H426.917a.8.8,0,1,1,0-1.593h17.519a.8.8,0,0,1,0,1.593Z" transform="translate(-426.119 -221.502)"/></g><g transform="translate(480.409 238.337)"><path d="M444.436,224.79H426.917a.8.8,0,1,1,0-1.593h17.519a.8.8,0,0,1,0,1.593Z" transform="translate(-426.119 -223.197)"/></g><g transform="translate(480.409 243.115)"><path d="M444.436,226.485H426.917a.8.8,0,1,1,0-1.593h17.519a.8.8,0,0,1,0,1.593Z" transform="translate(-426.119 -224.892)"/></g><g transform="translate(396.27 214.873)"><path d="M462.512,282.525a1.5,1.5,0,0,1-.386-.054L446.809,278.1a33.819,33.819,0,1,1,17.113-29.4,33.293,33.293,0,0,1-4.907,17.494l4.837,14.475a1.412,1.412,0,0,1-1.339,1.858ZM430.1,217.692a31.007,31.007,0,1,0,15.8,57.673,1.425,1.425,0,0,1,1.108-.144l13.327,3.8-4.2-12.572a1.409,1.409,0,0,1,.152-1.209A30.484,30.484,0,0,0,461.1,248.7,31.04,31.04,0,0,0,430.1,217.692Z" transform="translate(-396.27 -214.873)"/><g transform="translate(16.913 25.369)"><path d="M434.686,226.692H403.679a1.409,1.409,0,1,1,0-2.819h31.007a1.409,1.409,0,1,1,0,2.819Z" transform="translate(-402.27 -223.873)"/></g><g transform="translate(16.913 33.826)"><path d="M434.686,229.692H403.679a1.409,1.409,0,0,1,0-2.819h31.007a1.409,1.409,0,0,1,0,2.819Z" transform="translate(-402.27 -226.873)"/></g><g transform="translate(16.913 42.282)"><path d="M434.686,232.692H403.679a1.409,1.409,0,1,1,0-2.819h31.007a1.409,1.409,0,1,1,0,2.819Z" transform="translate(-402.27 -229.873)"/></g></g></g></svg>