<svg xmlns="http://www.w3.org/2000/svg" width="237" height="178" viewBox="0 0 237 178"><defs><style>.a{opacity:0.47;}.b{fill:#d8deeb;}.c{fill:#30c2df;}.d{fill:#323233;}.e{fill:#fbd8c5;}.f{fill:#fff;}.g{fill:#e07252;}.h{fill:#323132;}.i{fill:#44566b;}.j{fill:#44556a;}.k{fill:#43556a;}.l{opacity:0.5;}.m{fill:#c5cbd5;}.n{fill:#f47423;}.o{fill:#fbb465;}.p{fill:#f3743d;}.q{fill:#ecb865;}.r{fill:#f9c711;}.s{fill:#f47841;}.t{fill:#294456;}.u{fill:#e0e1e1;}.v{fill:none;}</style></defs><g transform="translate(-565 -152)"><g transform="translate(186.51 -99.31)"><g class="a" transform="translate(396.463 291.031)"><path class="b" d="M423.151,478.824c-11.511-13.7-14.892-35.855-7.827-54.431,5.995-15.753,19.282-19.317,31.127-19.6,10.767-.258,20.849-1.456,31.427-7.282,11.676-6.429,10.795-15.4,16.218-23.152,13.773-19.661,37.8-25.824,54.245-10.564,15.319,14.231,21.393,42.452,36.9,56.3,8.343,7.455,19.041,10.33,25.545,20.7a33.372,33.372,0,0,1,4.624,21c-.885,7.462-4.714,14.283-9.92,16.686-2.837,1.312-5.891,1.319-8.887,1.315q-86.353-.155-172.7-.2" transform="translate(-411.645 -355.244)"/></g><g transform="translate(499.5 355.042)"><path class="c" d="M730.629,551.5l-.5,39.05a9.008,9.008,0,0,1-9.1,8.866,8.828,8.828,0,0,1-4.407-1.229,8.99,8.99,0,0,1-4.476-7.878l.5-39.043a8.953,8.953,0,0,1,9.033-8.871h.067a8.846,8.846,0,0,1,4.786,1.45A9.021,9.021,0,0,1,730.629,551.5Z" transform="translate(-711.708 -541.965)"/><path class="d" d="M720.3,599.028h-.1a9.271,9.271,0,0,1-4.622-1.289,9.434,9.434,0,0,1-4.687-8.254l.5-39.043a9.383,9.383,0,0,1,9.468-9.3h.076a9.246,9.246,0,0,1,5.009,1.52,9.407,9.407,0,0,1,4.3,8.019h0l-.5,39.05A9.459,9.459,0,0,1,720.3,599.028Zm.49-57.022a8.522,8.522,0,0,0-8.54,8.445l-.5,39.044a8.573,8.573,0,0,0,4.262,7.5,8.412,8.412,0,0,0,4.2,1.171,8.594,8.594,0,0,0,8.669-8.443l.5-39.049a8.551,8.551,0,0,0-3.905-7.288,8.4,8.4,0,0,0-4.555-1.38h-.127Z" transform="translate(-710.888 -541.145)"/></g><g transform="translate(468.37 350.427)"><path class="c" d="M621.48,596.114l.093-6.763.021-1.285L622.21,543a14.253,14.253,0,0,1,5.964-11.363,15.047,15.047,0,0,1,9.145-2.895l5.4.065,11.211.141h.744a15.122,15.122,0,0,1,9.985,3.885A14.225,14.225,0,0,1,669.4,543.6l-.1,44.461v8.049" transform="translate(-621.136 -528.399)"/><path class="d" d="M621.169,595.461l-.689-.009.73-53.11a14.505,14.505,0,0,1,6.105-11.636,15.376,15.376,0,0,1,9.354-2.961l17.352.207a15.42,15.42,0,0,1,10.217,3.975,14.609,14.609,0,0,1,4.847,11.02l-.1,44.456v8.048h-.689V587.4l.1-44.462a13.925,13.925,0,0,0-4.621-10.5,14.731,14.731,0,0,0-9.758-3.8h-.74l-16.618-.207a14.7,14.7,0,0,0-8.937,2.828A13.824,13.824,0,0,0,621.9,542.35l-.616,45.063Z" transform="translate(-620.48 -527.742)"/></g><g transform="translate(487.076 337.396)"><rect class="e" width="19.806" height="11.814" rx="5.907" transform="matrix(0.014, -1, 1, 0.014, 0.377, 20.181)"/><path class="d" d="M683.205,510.622h-.061l-4.121-.057a4.282,4.282,0,0,1-4.217-4.336l.169-12.112a4.277,4.277,0,0,1,4.336-4.217l4.121.057a4.282,4.282,0,0,1,4.216,4.336l-.169,12.112A4.282,4.282,0,0,1,683.205,510.622Zm-3.953-19.862a3.42,3.42,0,0,0-3.415,3.369l-.169,12.112a3.42,3.42,0,0,0,3.368,3.463l4.121.057a3.416,3.416,0,0,0,3.463-3.367l.169-12.112a3.42,3.42,0,0,0-3.367-3.463l-4.121-.057Z" transform="translate(-674.807 -489.899)"/></g><g transform="translate(462.206 366.236)"><path class="e" d="M656.928,616.151a6.738,6.738,0,0,1-7.778,5.509s0,0-.007,0l-6.053-1.04a6.578,6.578,0,0,1-2.5-.971,6.68,6.68,0,0,1-2.9,0L618.87,615.5l-9.775-2.149a6.747,6.747,0,0,1-5.254-5.874l.609-3.581,3.963-23.38a6.744,6.744,0,0,1,13.3,2.255l-3.2,18.845,21.82,4.8a2.318,2.318,0,0,1,1.78-1.408l2.934-.489a2.342,2.342,0,0,1,2.693,1.935v.01a2.362,2.362,0,0,1,0,.778,2.338,2.338,0,0,1-.138.475l3.819.654A6.75,6.75,0,0,1,656.928,616.151Z" transform="translate(-603.406 -574.477)"/><path class="d" d="M649.461,621.368a7.166,7.166,0,0,1-1.174-.1h-.155l-.032-.034-5.91-1.015a7.064,7.064,0,0,1-2.51-.939,7.162,7.162,0,0,1-2.907-.04l-28.6-6.291a7.168,7.168,0,0,1-5.59-6.249l-.006-.059,4.583-27.019a7.174,7.174,0,0,1,14.147,2.4l-3.13,18.442,21.091,4.643a2.771,2.771,0,0,1,1.949-1.341l2.931-.488a2.772,2.772,0,0,1,3.188,2.29l.006.045a2.8,2.8,0,0,1,0,.881c0,.022-.008.043-.012.065l3.34.572a7.193,7.193,0,0,1,5.857,8.271h0A7.182,7.182,0,0,1,649.461,621.368Zm-.925-.929a6.308,6.308,0,0,0,1.986-12.458l-4.343-.744.2-.495a1.877,1.877,0,0,0,.113-.387,1.922,1.922,0,0,0,0-.633l-.007-.047a1.912,1.912,0,0,0-2.192-1.547l-2.933.489a1.9,1.9,0,0,0-1.453,1.147l-.137.335-22.574-4.969,3.267-19.249a6.313,6.313,0,0,0-12.449-2.111l-4.563,26.9a6.308,6.308,0,0,0,4.913,5.441l28.6,6.291a6.286,6.286,0,0,0,2.711,0l.176-.039.151.1a6.19,6.19,0,0,0,2.336.907Z" transform="translate(-602.579 -573.656)"/></g><g transform="translate(462.216 395.584)"><rect class="d" width="3.633" height="0.861" transform="matrix(0.168, -0.986, 0.986, 0.168, 0, 3.581)"/></g><g transform="translate(464.395 354.318)"><path class="c" d="M628.066,549.923l-2.472,17.261-15.526-2.041,2.509-17.5c.666-4.768,4.663-8.141,8.926-7.536l.059.008a7.145,7.145,0,0,1,3.948,1.943A9.1,9.1,0,0,1,628.066,549.923Z" transform="translate(-609.678 -539.697)"/><path class="d" d="M625.144,566.916l-16.209-2.131,2.558-17.841a9.539,9.539,0,0,1,3.607-6.3,7.667,7.667,0,0,1,5.708-1.533l.056.007a7.471,7.471,0,0,1,4.142,2.035,9.4,9.4,0,0,1,2.659,8.16Zm-15.429-2.723,14.844,1.952,2.424-16.924a8.716,8.716,0,0,0-2.453-7.565,6.789,6.789,0,0,0-3.759-1.851l-.056-.008a6.987,6.987,0,0,0-5.2,1.4,8.847,8.847,0,0,0-3.339,5.842Z" transform="translate(-608.935 -539.043)"/></g><g transform="translate(473.948 307.832)"><path class="e" d="M670.183,405.534a4.566,4.566,0,0,1,4.521,4.607l-.117,11.993-.1,9.824c-.062,6.284-1.98,12.578-8.625,14.689a25.136,25.136,0,0,1-13.195.637c-5.571-1.284-10.33-5.062-10.708-11.091v-.028l-.344-5.289-.038-.589-.165-2.638a3.925,3.925,0,0,1,.083-7.809l.1-10.023a4.566,4.566,0,0,1,4.6-4.528h.021Z" transform="translate(-637.5 -404.858)"/><path class="d" d="M657.278,447.487a25.57,25.57,0,0,1-5.52-.6c-6.463-1.49-10.694-5.89-11.045-11.484l-.526-8.2a4.356,4.356,0,0,1,.064-8.557l.093-9.652a5,5,0,0,1,5.037-4.954l23.987.244h0a5,5,0,0,1,4.947,5.041l-.213,21.817c-.08,8.046-3.166,13.265-8.926,15.1A25.571,25.571,0,0,1,657.278,447.487ZM645.359,404.9a4.144,4.144,0,0,0-4.154,4.1l-.1,10.413-.387.035a3.5,3.5,0,0,0-.074,6.953l.359.041.571,8.93c.389,6.187,5.615,9.574,10.375,10.671a24.721,24.721,0,0,0,12.965-.627c5.45-1.731,8.251-6.537,8.328-14.284l.213-21.816a4.14,4.14,0,0,0-4.095-4.173h0l-23.965-.244Z" transform="translate(-636.681 -404.039)"/></g><g transform="translate(497.131 335.88)"><path class="d" d="M705.437,488.324a1.422,1.422,0,0,1-.23-.019l-.5-.087a1.367,1.367,0,0,1-.505-.2.43.43,0,1,1,.47-.721.5.5,0,0,0,.187.075l.489.085a.506.506,0,1,0,.175-1l-.495-.09a.5.5,0,0,0-.2,0,.43.43,0,1,1-.171-.843,1.33,1.33,0,0,1,.533,0l.484.088a1.366,1.366,0,0,1-.24,2.713Z" transform="translate(-704.01 -485.497)"/></g><g transform="translate(497.445 334.244)"><rect class="d" width="2.042" height="0.861" transform="translate(0 2.011) rotate(-80.011)"/></g><g transform="translate(490.247 341.293)"><path class="f" d="M685.706,502.469a.343.343,0,0,0-.4.271,4.022,4.022,0,0,0,7.8,1.848.335.335,0,0,0-.221-.419l-.03-.008Z" transform="translate(-684.834 -502.034)"/><path class="d" d="M688.473,506.953a4.454,4.454,0,0,1-4.411-5.093.782.782,0,0,1,.9-.633l.021,0,7.2,1.707a.766.766,0,0,1,.507.958A4.453,4.453,0,0,1,688.473,506.953ZM684.9,502.1a3.592,3.592,0,0,0,6.941,1.643Z" transform="translate(-684.015 -501.215)"/></g><g transform="translate(497 329.126)"><rect class="d" width="0.861" height="3.344" transform="translate(0 0.861) rotate(-89.055)"/></g><g transform="translate(477.587 322.245)"><rect class="d" width="0.861" height="9.856" transform="matrix(0.456, -0.89, 0.89, 0.456, 0, 0.766)"/></g><g transform="translate(485.779 323.093)"><path class="d" d="M678.6,460.019h-3.464a4.1,4.1,0,0,1-4.1-4.1v-3.464a4.1,4.1,0,0,1,4.1-4.1H678.6a4.1,4.1,0,0,1,4.1,4.1v3.464A4.1,4.1,0,0,1,678.6,460.019Zm-3.464-10.8a3.24,3.24,0,0,0-3.237,3.237v3.464a3.24,3.24,0,0,0,3.237,3.237H678.6a3.24,3.24,0,0,0,3.237-3.237v-3.464a3.24,3.24,0,0,0-3.237-3.237Z" transform="translate(-671.04 -448.36)"/></g><g transform="translate(499.921 323.093)"><path class="d" d="M719.671,460.019h-3.464a4.1,4.1,0,0,1-4.1-4.1v-3.464a4.1,4.1,0,0,1,4.1-4.1h3.464a4.1,4.1,0,0,1,4.1,4.1v3.464A4.1,4.1,0,0,1,719.671,460.019Zm-3.464-10.8a3.24,3.24,0,0,0-3.237,3.237v3.464a3.24,3.24,0,0,0,3.237,3.237h3.464a3.24,3.24,0,0,0,3.237-3.237v-3.464a3.24,3.24,0,0,0-3.237-3.237Z" transform="translate(-712.11 -448.36)"/></g><g transform="translate(471.741 297.297)"><path class="g" d="M674.1,383.956a3.5,3.5,0,0,0-1-1.98c-.641-.644.9-2.317-.21-3.843-4.438-6.081-42.669-3.219-35.81,1.033l-2.648,2.142a8.036,8.036,0,0,0-3.013,6.27l.733,22.478A2.145,2.145,0,0,0,634.3,412.2h3.443l-.1-1.611L637.6,410l-.169-2.641a3.925,3.925,0,0,1,.083-7.809s.069-6.766.093-9.231a.189.189,0,0,1,.344-.083,7.028,7.028,0,0,0,6.256,3.808l26.231.048a3.843,3.843,0,0,0,3.075-2.262c1.271-3.2.63-7.551.63-7.551A1.279,1.279,0,0,0,674.1,383.956Z" transform="translate(-631.024 -374.23)"/><path class="h" d="M637.407,411.81h-3.865A2.545,2.545,0,0,1,631,409.269l-.733-22.464a8.4,8.4,0,0,1,3.161-6.592l2.245-1.816a1.293,1.293,0,0,1-.554-1.191c.144-.894,1.5-1.636,4.132-2.268,8.859-2.124,29.82-2.458,33.2,2.176a3.182,3.182,0,0,1,.266,2.9c-.1.369-.206.788-.1.9a3.921,3.921,0,0,1,1.1,2.18,1.689,1.689,0,0,1,.052.375,17.454,17.454,0,0,1-.658,7.729,4.26,4.26,0,0,1-3.4,2.51l-.046,0-26.231-.048h-.01a7.389,7.389,0,0,1-6.2-3.344c-.029,2.87-.085,8.458-.085,8.458l0,.358-.356.032a3.543,3.543,0,0,0-3.184,3.118,3.529,3.529,0,0,0,3.11,3.9l.33.038Zm17.339-37.551a71.981,71.981,0,0,0-15.307,1.448c-3.24.777-3.512,1.489-3.534,1.623-.03.185.2.445.631.712l.474.294-3.081,2.492a7.6,7.6,0,0,0-2.866,5.962l.733,22.465a1.755,1.755,0,0,0,1.747,1.762h3.02l-.263-4.1a4.321,4.321,0,0,1-3.477-4.73,4.339,4.339,0,0,1,3.542-3.769c.014-1.406.068-6.756.089-8.889l0-.047a.585.585,0,0,1,1.065-.255l.024.041a6.6,6.6,0,0,0,5.9,3.594l26.208.048a3.46,3.46,0,0,0,2.736-2.027c1.211-3.05.607-7.29.6-7.333l0-.055a.9.9,0,0,0-.031-.227l-.01-.047a3.128,3.128,0,0,0-.883-1.756c-.431-.434-.269-1.057-.111-1.659a2.435,2.435,0,0,0-.139-2.231C670.127,375.263,662.58,374.259,654.746,374.259Z" transform="translate(-630.271 -373.443)"/></g><g class="a" transform="translate(578.733 336.405)"><circle class="b" cx="7.837" cy="7.837" r="7.837" transform="translate(0 0)"/></g><g transform="translate(426.615 389.372)"><g transform="translate(0 0)"><path class="i" d="M500.218,642.075a.661.661,0,1,1,.222-.908v0A.661.661,0,0,1,500.218,642.075Z" transform="translate(-499.214 -640.848)"/></g></g><g transform="translate(423.719 396.783)"><g transform="translate(0 0)"><path class="i" d="M492.2,664.079a.919.919,0,1,1,.008,0Z" transform="translate(-490.805 -662.371)"/></g></g><g transform="translate(471.827 422.927)"><path class="j" d="M651.916,738.989H630.864a.344.344,0,1,1,0-.689h21.052a.344.344,0,0,1,0,.689Z" transform="translate(-630.52 -738.3)"/></g><g transform="translate(496.949 422.927)"><path class="j" d="M709.072,738.989h-5.247a.344.344,0,1,1,0-.689h5.247a.344.344,0,0,1,0,.689Z" transform="translate(-703.48 -738.3)"/></g><g transform="translate(508.257 422.927)"><path class="j" d="M810.973,738.989H736.664a.344.344,0,0,1,0-.689h74.309a.344.344,0,1,1,0,.689Z" transform="translate(-736.32 -738.3)"/></g><g transform="translate(539.394 357.361)"><path class="k" d="M828.138,550.656a1.387,1.387,0,1,1,1.388-1.387A1.389,1.389,0,0,1,828.138,550.656Zm0-2.417a1.03,1.03,0,1,0,1.03,1.029A1.031,1.031,0,0,0,828.138,548.239Z" transform="translate(-826.75 -547.881)"/></g><g transform="translate(533.034 359.778)"><path class="k" d="M809.072,556.484a.792.792,0,1,1,.792-.792A.793.793,0,0,1,809.072,556.484Zm0-1.226a.434.434,0,1,0,.434.434A.435.435,0,0,0,809.072,555.258Z" transform="translate(-808.28 -554.9)"/></g><g transform="translate(437.908 401.892)"><path class="k" d="M533.108,679.407a1.1,1.1,0,1,1,1.1-1.1A1.1,1.1,0,0,1,533.108,679.407Zm0-1.839a.74.74,0,1,0,.74.74A.741.741,0,0,0,533.108,677.569Z" transform="translate(-532.01 -677.211)"/></g><g transform="translate(532.421 350.789)"><g transform="translate(0 0)"><path class="i" d="M807.539,528.865l-.313.31-.313-.31a.244.244,0,0,0-.344,0,.248.248,0,0,0,0,.344l.31.313-.31.313a.248.248,0,0,0,0,.344.251.251,0,0,0,.344,0h0l.313-.313.313.313a.248.248,0,0,0,.344-.344l-.313-.313.313-.313a.248.248,0,0,0,0-.344A.244.244,0,0,0,807.539,528.865Z" transform="translate(-806.498 -528.794)"/></g></g><g class="l" transform="translate(391.024 332.483)"><path class="m" d="M406.724,481.067a5.437,5.437,0,1,1-5.437-5.437,5.437,5.437,0,0,1,5.437,5.437Z" transform="translate(-395.85 -475.63)"/></g><g class="l" transform="translate(446.233 384.008)"><path class="m" d="M559.172,626.761a1.491,1.491,0,1,1-1.491-1.491,1.491,1.491,0,0,1,1.491,1.491Z" transform="translate(-556.19 -625.27)"/></g><g class="l" transform="translate(388.49 370.679)"><path class="m" d="M393.558,589.091a2.534,2.534,0,1,1-2.538-2.531h.007A2.534,2.534,0,0,1,393.558,589.091Z" transform="translate(-388.49 -586.56)"/></g><g transform="translate(571.285 378.54)"><path class="f" d="M939.611,613.964v8.288a3.571,3.571,0,0,1-3.567,3.574h-8.429l-4.6,2.679.578-2.686a3.571,3.571,0,0,1-3.226-3.557v-8.3a3.578,3.578,0,0,1,3.578-3.574h12.089a3.574,3.574,0,0,1,3.574,3.574Z" transform="translate(-920.026 -610.046)"/><path class="d" d="M921.861,628.54l.666-3.089a3.9,3.9,0,0,1-3.156-3.844v-8.3a3.926,3.926,0,0,1,3.922-3.918h12.089a3.923,3.923,0,0,1,3.918,3.918V621.6a3.915,3.915,0,0,1-3.911,3.918h-8.336Zm1.431-18.461a3.237,3.237,0,0,0-3.233,3.23v8.3a3.214,3.214,0,0,0,2.915,3.214l.385.037-.5,2.3,4-2.332h8.515a3.226,3.226,0,0,0,3.23-3.229v-8.288a3.233,3.233,0,0,0-3.23-3.23Z" transform="translate(-919.37 -609.39)"/></g><g transform="translate(575.341 382.396)"><path class="n" d="M942.378,621.066H931.387a.238.238,0,1,1,0-.476h10.991a.238.238,0,0,1,0,.476Z" transform="translate(-931.149 -620.59)"/></g><g transform="translate(577.583 384.93)"><path class="d" d="M946.646,628.424H937.9a.238.238,0,1,1,0-.476h8.749a.238.238,0,0,1,0,.476Z" transform="translate(-937.659 -627.949)"/></g><g transform="translate(579.828 387.468)"><path class="n" d="M950.922,635.794h-6.5a.238.238,0,0,1,0-.476h6.5a.238.238,0,0,1,0,.476Z" transform="translate(-944.18 -635.319)"/></g><g transform="translate(582.069 390.003)"><path class="d" d="M955.19,643.156h-4.263a.238.238,0,1,1,0-.476h4.263a.238.238,0,0,1,0,.476Z" transform="translate(-950.689 -642.68)"/></g><g transform="translate(575.452 390.003)"><path class="n" d="M935.97,643.156h-4.263a.238.238,0,0,1,0-.476h4.263a.238.238,0,0,1,0,.476Z" transform="translate(-931.47 -642.68)"/></g><g transform="translate(434.265 394.249)"><path class="i" d="M522.688,655.938l-.275-.275.275-.276a.224.224,0,0,0,0-.313.231.231,0,0,0-.313,0l-.275.275-.275-.275a.22.22,0,0,0-.31.31h0l.275.275-.275.275a.22.22,0,1,0,.277.343.214.214,0,0,0,.033-.033l.275-.275.275.275a.224.224,0,0,0,.313,0A.217.217,0,0,0,522.688,655.938Z" transform="translate(-521.432 -655.012)"/></g><g transform="translate(567.145 397.701)"><g transform="translate(0)"><path class="i" d="M908.348,666.265a.661.661,0,1,1,.222-.908v0a.658.658,0,0,1-.22.9Z" transform="translate(-907.344 -665.038)"/></g></g><g transform="translate(574.813 402.574)"><g transform="translate(0)"><path class="i" d="M930.852,680.12l-.275-.276.275-.275a.22.22,0,0,0-.313-.31l-.275.275-.276-.279a.217.217,0,0,0-.307,0l0,0a.223.223,0,0,0,0,.313h0l.275.275-.275.276a.22.22,0,0,0,.31.31l.276-.275.275.275a.22.22,0,1,0,.313-.31Z" transform="translate(-929.614 -679.191)"/></g></g><g class="l" transform="translate(600.45 405.129)"><path class="m" d="M1008.787,688.965a2.359,2.359,0,1,1-2.362-2.355h.007A2.358,2.358,0,0,1,1008.787,688.965Z" transform="translate(-1004.07 -686.61)"/></g><g transform="translate(405.29 411.389)"><rect class="o" width="188.563" height="6.408" rx="3.204" transform="translate(0.344 0.344)"/><path class="d" d="M623.284,711.887H440.527a3.251,3.251,0,0,1-3.247-3.247v-.6a3.251,3.251,0,0,1,3.247-3.247H623.284a3.251,3.251,0,0,1,3.247,3.247v.6A3.251,3.251,0,0,1,623.284,711.887Zm-182.758-6.408a2.561,2.561,0,0,0-2.558,2.558v.6a2.561,2.561,0,0,0,2.558,2.558H623.284a2.561,2.561,0,0,0,2.558-2.558v-.6a2.561,2.561,0,0,0-2.558-2.558Z" transform="translate(-437.28 -704.79)"/></g><g transform="translate(420.585 422.927)"><path class="j" d="M529.534,738.989H482.044a.344.344,0,1,1,0-.689h47.489a.344.344,0,0,1,0,.689Z" transform="translate(-481.7 -738.3)"/></g><g transform="translate(536.778 296.788)"><path class="p" d="M826.107,378.4v-5.441a14.178,14.178,0,0,1-5.515-1s-1.107.86-1.44,6.445Z" transform="translate(-819.152 -371.962)"/></g><g transform="translate(543.983 303.621)"><path class="q" d="M840.079,391.807v5.449a14.29,14.29,0,0,1,5.537.993s1.107-.856,1.436-6.441Z" transform="translate(-840.079 -391.807)"/></g><g transform="translate(415.012 345.689)"><path class="k" d="M467.078,517.1a1.561,1.561,0,1,1,1.561-1.561A1.563,1.563,0,0,1,467.078,517.1Zm0-2.643a1.082,1.082,0,1,0,1.082,1.082A1.083,1.083,0,0,0,467.078,514.461Z" transform="translate(-465.517 -513.982)"/></g><g transform="translate(425.76 340.921)"><g transform="translate(0 0)"><path class="i" d="M497.075,501.189a.546.546,0,1,1,.71-.305v0A.546.546,0,0,1,497.075,501.189Z" transform="translate(-496.731 -500.135)"/></g></g><g transform="translate(416.229 368.847)"><path class="d" d="M478.244,605.288a.351.351,0,0,1-.088-.011,12.22,12.22,0,1,1,15.281-10.655.339.339,0,0,1-.376.31.344.344,0,0,1-.31-.375,11.531,11.531,0,1,0-14.42,10.054.344.344,0,0,1-.087.677Z" transform="translate(-469.051 -581.24)"/></g><g transform="translate(429.06 390.376)"><path class="d" d="M506.659,646.639a.344.344,0,0,1-.027-.688,11.465,11.465,0,0,0,5.792-2.121.344.344,0,1,1,.4.559,12.153,12.153,0,0,1-6.139,2.249Z" transform="translate(-506.315 -643.765)"/></g><g transform="translate(437.152 386.404)"><path class="d" d="M530.16,634.943a.344.344,0,0,1-.261-.568,11.249,11.249,0,0,0,1.35-1.966.344.344,0,0,1,.606.327,11.948,11.948,0,0,1-1.433,2.087A.343.343,0,0,1,530.16,634.943Z" transform="translate(-529.816 -632.228)"/></g><g transform="translate(418.751 371.608)"><path class="q" d="M487.231,590.288a9.118,9.118,0,1,0,8.35,8.331A9.118,9.118,0,0,0,487.231,590.288Zm4.289,9.967h-3.894v3.883h-1.82v-3.883h-3.883v-1.82h3.883v-3.868h1.82v3.883h3.894Z" transform="translate(-477.032 -589.914)"/><path class="d" d="M485.845,608.183q-.383,0-.771-.031a9.457,9.457,0,1,1,.771.031Zm-.021-18.237a8.774,8.774,0,0,0-.694,17.519c.24.019.478.029.714.029a8.774,8.774,0,0,0,.7-17.519h0Q486.184,589.946,485.824,589.946Zm1.491,13.881h-2.509v-3.883h-3.883v-2.508h3.883v-3.869h2.509v3.884h3.894v2.494h-3.894Zm-1.82-.689h1.131v-3.883h3.894v-1.116h-3.894v-3.884h-1.131v3.869h-3.883v1.131h3.883Z" transform="translate(-476.376 -589.258)"/></g><g transform="translate(530.003 302.996)"><path class="d" d="M826.643,390.681H799.82a.344.344,0,0,1,0-.689h26.822a.344.344,0,1,1,0,.689Z" transform="translate(-799.476 -389.992)"/></g><g transform="translate(543.414 289.588)"><path class="d" d="M838.769,365.165a.344.344,0,0,1-.344-.344V351.4a.344.344,0,1,1,.689,0V364.82A.344.344,0,0,1,838.769,365.165Z" transform="translate(-838.425 -351.054)"/></g><g transform="translate(530.001 289.384)"><path class="d" d="M826.643,364.8h-.005a.344.344,0,0,1-.339-.35q0-.217,0-.434a13.07,13.07,0,0,0-26.138.412.344.344,0,1,1-.689.011A13.759,13.759,0,0,1,826.988,364c0,.151,0,.3,0,.456A.344.344,0,0,1,826.643,364.8Z" transform="translate(-799.471 -350.461)"/></g><g transform="translate(536.227 289.585)"><path class="d" d="M817.9,365.143a.344.344,0,0,1-.344-.344c0-5.552,2-8.984,3.682-10.886a10.944,10.944,0,0,1,3.726-2.845.344.344,0,0,1,.256.639c-.07.028-6.975,2.927-6.975,13.092A.344.344,0,0,1,817.9,365.143Z" transform="translate(-817.552 -351.043)"/></g><g transform="translate(543.418 289.585)"><path class="d" d="M845.967,365.143a.344.344,0,0,1-.344-.344c0-5.316-1.894-8.591-3.483-10.4a10.484,10.484,0,0,0-3.489-2.69.344.344,0,0,1,.256-.639c.074.03,7.4,3.082,7.4,13.731A.344.344,0,0,1,845.967,365.143Z" transform="translate(-838.436 -351.043)"/></g><g transform="translate(534.089 293.357)"><path class="d" d="M821.013,366.575c-7.532,0-9.551-3.913-9.633-4.079a.344.344,0,0,1,.617-.305c.018.036,1.943,3.7,9.016,3.7a.344.344,0,0,1,0,.689Z" transform="translate(-811.344 -361.999)"/></g><g transform="translate(543.418 293.358)"><path class="d" d="M838.78,366.577a.344.344,0,0,1,0-.689,12.535,12.535,0,0,0,7.2-1.854,5.678,5.678,0,0,0,1.814-1.843.344.344,0,0,1,.617.306C848.332,362.665,846.316,366.577,838.78,366.577Z" transform="translate(-838.436 -362.002)"/></g><g transform="translate(543.418 302.996)"><path class="d" d="M838.78,404.106a.344.344,0,0,1-.344-.344V390.336a.344.344,0,0,1,.689,0v13.426A.344.344,0,0,1,838.78,404.106Z" transform="translate(-838.436 -389.992)"/></g><g transform="translate(530.001 303.011)"><path class="d" d="M813.227,404.361a13.775,13.775,0,0,1-13.754-13.531q0-.229,0-.457a.344.344,0,0,1,.344-.339h.005a.344.344,0,0,1,.339.349q0,.217,0,.435a13.087,13.087,0,0,0,13.065,12.853l.22,0A13.086,13.086,0,0,0,826.3,390.385a.344.344,0,0,1,.339-.35h.006a.344.344,0,0,1,.344.338,13.775,13.775,0,0,1-13.529,13.986Z" transform="translate(-799.471 -390.035)"/></g><g transform="translate(543.418 303.011)"><path class="d" d="M838.78,404.138a.344.344,0,0,1-.128-.664c.07-.028,6.971-2.927,6.971-13.1a.344.344,0,1,1,.689,0c0,5.554-2,8.987-3.68,10.889a10.934,10.934,0,0,1-3.724,2.846A.347.347,0,0,1,838.78,404.138Z" transform="translate(-838.436 -390.035)"/></g><g transform="translate(536.227 303.011)"><path class="d" d="M825.087,404.139a.351.351,0,0,1-.128-.025c-.074-.03-7.407-3.082-7.407-13.734a.344.344,0,1,1,.689,0c0,10.191,6.9,13.067,6.974,13.095a.345.345,0,0,1-.128.665Z" transform="translate(-817.552 -390.035)"/></g><g transform="translate(543.418 308.766)"><path class="d" d="M848.105,411.321a.344.344,0,0,1-.309-.191h0c-.019-.037-1.941-3.693-9.017-3.693a.344.344,0,0,1,0-.689c7.536,0,9.551,3.909,9.634,4.075a.344.344,0,0,1-.308.5Z" transform="translate(-838.436 -406.749)"/></g><g transform="translate(534.089 308.766)"><path class="d" d="M811.688,411.321a.344.344,0,0,1-.308-.5c.082-.166,2.1-4.075,9.633-4.075a.344.344,0,0,1,0,.689c-7.109,0-9,3.655-9.016,3.691A.344.344,0,0,1,811.688,411.321Z" transform="translate(-811.344 -406.749)"/></g><g transform="translate(547.876 343.458)"><path class="r" d="M856.925,518.331a.369.369,0,0,0,.188.624c.768.107,2.038.317,3.437.635l-5.777,6.644a.151.151,0,0,1-.214.015.15.15,0,0,1-.049-.082l-1.846-8.162.369.037a1.022,1.022,0,0,0,.639-.152l14.142-9.561C866.12,510.022,863.6,512.377,856.925,518.331Z" transform="translate(-852.224 -508.046)"/><path class="d" d="M853.817,526.088a.5.5,0,0,1-.324-.121.5.5,0,0,1-.159-.266l-1.951-8.627.845.085a.681.681,0,0,0,.422-.1l14.131-9.554.436.529c-1.644,1.64-4.126,3.97-10.893,10a.023.023,0,0,0,0,.014c.5.091,1.852.3,3.466.661l.561.127-6.155,7.079a.493.493,0,0,1-.339.17Zm.188-.54h0Zm-1.741-7.7,1.658,7.33,5.147-5.919c-1.333-.283-2.408-.445-2.844-.506a.723.723,0,0,1-.387-.2.713.713,0,0,1,0-1.009l.013-.012c3.79-3.38,6.234-5.6,7.938-7.177l-10.768,7.28A1.347,1.347,0,0,1,852.264,517.849Z" transform="translate(-851.383 -507.503)"/></g><g transform="translate(541.207 339.273)"><path class="f" d="M860.277,496.364c-7.83,2.684-22.348,9.764-27.01,12.068a.458.458,0,0,0,.166.864l6.578.654a.99.99,0,0,0,.635-.151l13.924-9.269a.037.037,0,0,1,.048.02.036.036,0,0,1,0,.035c-1.694,1.68-4.352,4.005-10.705,9.668a.369.369,0,0,0,.185.624,32.341,32.341,0,0,1,7.785,2.015.454.454,0,0,0,.583-.207l8.158-15.917a.288.288,0,0,0-.343-.4Z" transform="translate(-832.672 -496.006)"/><path class="d" d="M851.4,512.616a.79.79,0,0,1-.314-.065,32.188,32.188,0,0,0-7.7-1.991.725.725,0,0,1-.383-.2.714.714,0,0,1,0-1.009l3.209-2.859c2.038-1.814,3.569-3.176,4.761-4.254l-10.8,7.189a1.353,1.353,0,0,1-.861.208l-6.577-.654a.8.8,0,0,1-.289-1.513c5.593-2.763,19.418-9.468,27.055-12.086l.01,0a.632.632,0,0,1,.754.883l-8.16,15.922A.8.8,0,0,1,851.4,512.616Zm-7.918-2.764s0,.014.012.023a33.113,33.113,0,0,1,7.87,2.046.11.11,0,0,0,.136-.052l8.091-15.786c-7.628,2.638-21.286,9.263-26.829,12a.11.11,0,0,0-.053.064.114.114,0,0,0,.007.087.112.112,0,0,0,.091.061l6.581.654a.645.645,0,0,0,.415-.1l13.979-9.3a.381.381,0,0,1,.456.573l-.039.045c-1.384,1.372-3.435,3.2-7.522,6.835l-3.2,2.846Z" transform="translate(-832.015 -495.35)"/></g><g transform="translate(432.431 323.64)"><path class="s" d="M521.762,453.826a1.808,1.808,0,0,0,.325-1.023,1.846,1.846,0,1,0-3.691-.018h0a1.813,1.813,0,0,0,.318,1.026.3.3,0,0,1-.071.417.3.3,0,0,1-.062.033,2.367,2.367,0,0,0-1.477,2.2v1.048a.262.262,0,0,0,.262.262h5.77a.262.262,0,0,0,.262-.262h0v-1.048a2.366,2.366,0,0,0-1.477-2.2.291.291,0,0,1-.191-.365A.278.278,0,0,1,521.762,453.826Z" transform="translate(-516.759 -450.604)"/><path class="d" d="M522.48,457.457h-5.77a.607.607,0,0,1-.606-.606V455.8a2.7,2.7,0,0,1,1.641-2.495,2.155,2.155,0,0,1-.35-1.178,2.193,2.193,0,0,1,2.19-2.181h.011a2.19,2.19,0,0,1,2.179,2.2,2.142,2.142,0,0,1-.344,1.154,2.7,2.7,0,0,1,1.654,2.5v1.048A.607.607,0,0,1,522.48,457.457Zm-5.687-.689h5.6V455.8a2.013,2.013,0,0,0-1.262-1.877.613.613,0,0,1-.347-.3.632.632,0,0,1-.044-.485.645.645,0,0,1,.071-.152l.008-.013a1.453,1.453,0,0,0,.263-.827,1.5,1.5,0,0,0-1.494-1.508h-.008a1.5,1.5,0,0,0-1.5,1.494,1.467,1.467,0,0,0,.258.83.643.643,0,0,1-.291.965,2.011,2.011,0,0,0-1.258,1.875Zm.983-3.415h0Zm3.592-.077.005,0Z" transform="translate(-516.104 -449.948)"/></g><g transform="translate(423.778 304.21)"><path class="q" d="M496.333,397.209a1.682,1.682,0,0,0,.306-.956,1.746,1.746,0,0,0-1.669-1.735,1.724,1.724,0,0,0-1.771,1.675c0,.015,0,.03,0,.045a1.69,1.69,0,0,0,.3.96.284.284,0,0,1-.125.425,2.215,2.215,0,0,0-1.4,2.053v.993a.247.247,0,0,0,.243.247h5.4a.247.247,0,0,0,.247-.247v-.982a2.215,2.215,0,0,0-1.4-2.053.281.281,0,0,1-.171-.358A.287.287,0,0,1,496.333,397.209Z" transform="translate(-491.63 -394.173)"/><path class="d" d="M496.966,400.6h-5.4a.6.6,0,0,1-.588-.592v-.993a2.546,2.546,0,0,1,1.545-2.343,2.026,2.026,0,0,1-.319-1.094v-.056a2.068,2.068,0,0,1,2.125-2.008,2.09,2.09,0,0,1,2,2.077,2.022,2.022,0,0,1-.324,1.089,2.549,2.549,0,0,1,1.553,2.345v.983A.592.592,0,0,1,496.966,400.6Zm-2.7-6.4a1.38,1.38,0,0,0-1.374,1.341v.035a1.337,1.337,0,0,0,.238.764.63.63,0,0,1-.16.874.621.621,0,0,1-.118.064,1.862,1.862,0,0,0-1.186,1.735v.895h5.207v-.885a1.861,1.861,0,0,0-1.182-1.732.622.622,0,0,1-.368-.793.63.63,0,0,1,.075-.146l0,0a1.334,1.334,0,0,0,.244-.761,1.4,1.4,0,0,0-1.339-1.388Zm1.667,2.447h0Z" transform="translate(-490.974 -393.518)"/></g><g transform="translate(415.708 323.865)"><path class="d" d="M473.457,457.626h-5.331a.589.589,0,0,1-.588-.588v-.967a2.529,2.529,0,0,1,1.521-2.317,2.048,2.048,0,1,1,3.771-1.161,2.007,2.007,0,0,1-.307,1.16,2.528,2.528,0,0,1,1.522,2.317v.968A.589.589,0,0,1,473.457,457.626Zm-5.23-.689h5.129v-.866a1.841,1.841,0,0,0-1.269-1.747.514.514,0,0,1-.239-.808h0a1.329,1.329,0,0,0,.293-.9,1.351,1.351,0,1,0-2.407.9.51.51,0,0,1-.239.8,1.841,1.841,0,0,0-1.269,1.748Zm.97-2.988h0Z" transform="translate(-467.538 -450.6)"/></g><g transform="translate(415.185 308.99)"><g transform="translate(0 2.381)"><path class="d" d="M467.008,427.285a.345.345,0,0,1-.325-.232,12.112,12.112,0,0,1,3.009-12.638.344.344,0,1,1,.479.495,11.422,11.422,0,0,0-2.838,11.917.345.345,0,0,1-.325.458Z" transform="translate(-466.019 -414.318)"/></g><g transform="translate(7.998 21.82)"><path class="d" d="M493.3,472.149a12.082,12.082,0,0,1-3.817-.616.344.344,0,0,1,.217-.653,11.44,11.44,0,0,0,7.449-.086.344.344,0,1,1,.233.648A12.1,12.1,0,0,1,493.3,472.149Z" transform="translate(-489.248 -470.773)"/></g><g transform="translate(22.989 9.491)"><path class="d" d="M533.129,440.139a.344.344,0,0,1-.332-.438,11.325,11.325,0,0,0,.423-3.081,11.523,11.523,0,0,0-.072-1.272.344.344,0,1,1,.684-.077,12.092,12.092,0,0,1-.372,4.617A.344.344,0,0,1,533.129,440.139Z" transform="translate(-532.785 -434.965)"/></g><g transform="translate(16.271)"><path class="d" d="M520.376,415.843a.345.345,0,0,1-.332-.255,11.333,11.333,0,0,0-6.561-7.525.344.344,0,1,1,.269-.634,12.017,12.017,0,0,1,6.957,7.979.346.346,0,0,1-.333.435Z" transform="translate(-513.273 -407.402)"/></g><g transform="translate(5.296 0.306)"><path class="d" d="M481.744,409.675a.344.344,0,0,1-.191-.632,11.482,11.482,0,0,1,1.241-.716.344.344,0,0,1,.306.617,10.8,10.8,0,0,0-1.166.672A.343.343,0,0,1,481.744,409.675Z" transform="translate(-481.4 -408.292)"/></g><g transform="translate(18.161 3.559)"><path class="d" d="M522.089,428.53a.346.346,0,0,1-.332-.438,9.519,9.519,0,0,0,.356-2.625,9.412,9.412,0,0,0-3.234-7.125.344.344,0,0,1,.452-.52,10.1,10.1,0,0,1,3.47,7.644,10.209,10.209,0,0,1-.382,2.813A.345.345,0,0,1,522.089,428.53Z" transform="translate(-518.762 -417.737)"/></g><g transform="translate(2.092 2.477)"><path class="d" d="M472.439,421.874a.344.344,0,0,1-.34-.4,10.175,10.175,0,0,1,4.418-6.821.344.344,0,0,1,.379.575,9.483,9.483,0,0,0-4.117,6.358A.344.344,0,0,1,472.439,421.874Z" transform="translate(-472.094 -414.596)"/></g><g transform="translate(9.375 20.078)"><path class="d" d="M495.966,467.309l-.223,0a10.269,10.269,0,0,1-2.235-.3.344.344,0,0,1,.166-.668,9.6,9.6,0,0,0,2.085.278,9.476,9.476,0,0,0,4.177-.872.344.344,0,1,1,.29.625A10.173,10.173,0,0,1,495.966,467.309Z" transform="translate(-493.246 -465.713)"/></g></g><g transform="translate(471.608 267.938)"><path class="t" d="M633.055,294.52a3.172,3.172,0,1,1,3.172-3.172A3.176,3.176,0,0,1,633.055,294.52Zm0-5.656a2.483,2.483,0,1,0,2.483,2.483A2.486,2.486,0,0,0,633.055,288.865Z" transform="translate(-629.883 -288.176)"/></g><g transform="translate(480.268 279.178)"><circle class="s" cx="2.828" cy="2.828" r="2.828" transform="translate(0.344 0.344)"/><path class="t" d="M658.207,327.165a3.172,3.172,0,1,1,3.172-3.172A3.176,3.176,0,0,1,658.207,327.165Zm0-5.656a2.483,2.483,0,1,0,2.483,2.483A2.486,2.486,0,0,0,658.207,321.51Z" transform="translate(-655.035 -320.821)"/></g><g transform="translate(476.067 257.31)"><circle class="q" cx="1.975" cy="1.975" r="1.975" transform="translate(0.238 0.238)"/><path class="t" d="M645.046,261.735a2.212,2.212,0,1,1,2.213-2.212A2.215,2.215,0,0,1,645.046,261.735Zm0-3.95a1.737,1.737,0,1,0,1.737,1.737A1.74,1.74,0,0,0,645.046,257.785Z" transform="translate(-642.833 -257.31)"/></g><g transform="translate(470.05 285.635)"><path class="t" d="M627.678,344.21A2.319,2.319,0,1,1,630,341.891,2.322,2.322,0,0,1,627.678,344.21Zm0-3.95a1.631,1.631,0,1,0,1.631,1.631A1.633,1.633,0,0,0,627.678,340.261Z" transform="translate(-625.359 -339.572)"/></g><g transform="translate(485.012 271.482)"><path class="t" d="M670.772,302.39a1.961,1.961,0,1,1,1.961-1.961A1.963,1.963,0,0,1,670.772,302.39Zm0-3.234a1.272,1.272,0,1,0,1.273,1.273A1.274,1.274,0,0,0,670.772,299.157Z" transform="translate(-668.811 -298.468)"/></g><g transform="translate(464.472 268.429)"><path class="t" d="M611.121,293.525a1.961,1.961,0,1,1,1.961-1.961A1.964,1.964,0,0,1,611.121,293.525Zm0-3.234a1.273,1.273,0,1,0,1.272,1.273A1.274,1.274,0,0,0,611.121,290.291Z" transform="translate(-609.16 -289.602)"/></g><g transform="translate(472.357 273.59)"><path class="t" d="M632.4,317.354a.387.387,0,0,1-.062-.005.345.345,0,0,1-.277-.4l2.2-12.075a.344.344,0,1,1,.678.123l-2.2,12.075A.344.344,0,0,1,632.4,317.354Z" transform="translate(-632.06 -304.59)"/></g><g transform="translate(475.989 261.061)"><path class="t" d="M642.953,275.987a.352.352,0,0,1-.065-.006.344.344,0,0,1-.273-.4l1.362-7.095a.344.344,0,1,1,.676.13l-1.362,7.095A.344.344,0,0,1,642.953,275.987Z" transform="translate(-642.609 -268.203)"/></g><g transform="translate(477.507 271.316)"><path class="t" d="M654.916,300.056a.349.349,0,0,1-.062-.006l-7.557-1.38a.344.344,0,1,1,.124-.678l7.557,1.38a.344.344,0,0,1-.062.683Z" transform="translate(-647.015 -297.987)"/></g><g transform="translate(467.78 270.208)"><path class="t" d="M622.938,295.9l-.04,0-3.828-.439a.344.344,0,1,1,.078-.684l3.828.439a.344.344,0,0,1-.039.686Z" transform="translate(-618.765 -294.77)"/></g><g transform="translate(476.336 273.235)"><path class="t" d="M648.993,310.779a.344.344,0,0,1-.273-.134l-5.031-6.53a.344.344,0,0,1,.545-.42l5.031,6.53a.344.344,0,0,1-.272.554Z" transform="translate(-643.617 -303.56)"/></g><g transform="translate(553.691 315.934)"><path class="d" d="M873.1,447.308a.345.345,0,0,1-.343-.314,67.871,67.871,0,0,0-4.466-18.955.344.344,0,1,1,.641-.252,68.565,68.565,0,0,1,4.512,19.148.344.344,0,0,1-.313.373Z" transform="translate(-868.271 -427.568)"/></g><g transform="translate(533.048 287.747)"><path class="d" d="M810.511,347.959a.342.342,0,0,1-.229-.087c-.573-.51-1.19-1.033-1.834-1.555a.344.344,0,1,1,.434-.534c.651.529,1.276,1.058,1.857,1.575a.344.344,0,0,1-.229.6Z" transform="translate(-808.321 -345.705)"/></g><g transform="translate(491.723 272.379)"><path class="d" d="M726.93,314.789a.343.343,0,0,1-.2-.066,67.833,67.833,0,0,0-38.091-12.961.344.344,0,0,1-.334-.354.334.334,0,0,1,.354-.334,68.516,68.516,0,0,1,38.476,13.093.344.344,0,0,1-.2.623Z" transform="translate(-688.302 -301.073)"/></g><g transform="translate(437.399 275.727)"><path class="d" d="M530.878,332.2a.344.344,0,0,1-.262-.568,69.162,69.162,0,0,1,31.089-20.82.344.344,0,1,1,.214.654,68.472,68.472,0,0,0-30.78,20.613A.344.344,0,0,1,530.878,332.2Z" transform="translate(-530.534 -310.796)"/></g><g transform="translate(431.456 299.382)"><path class="d" d="M513.617,385.316a.344.344,0,0,1-.291-.528c1.11-1.765,2.316-3.5,3.584-5.157a.344.344,0,0,1,.547.419c-1.255,1.64-2.448,3.358-3.548,5.1A.345.345,0,0,1,513.617,385.316Z" transform="translate(-513.273 -379.496)"/></g><g transform="translate(420.913 333.454)"><path class="d" d="M487.9,512.361a.344.344,0,0,1-.32-.217,68.641,68.641,0,0,1-4.931-25.688,70.614,70.614,0,0,1,.423-7.7.345.345,0,0,1,.685.075,69.846,69.846,0,0,0-.419,7.626,67.962,67.962,0,0,0,4.882,25.432.345.345,0,0,1-.32.472Z" transform="translate(-482.654 -478.449)"/></g><g transform="translate(439.762 388.416)"><path class="d" d="M542.021,642.909a.343.343,0,0,1-.23-.088c-1.549-1.386-3-2.789-4.3-4.169a.345.345,0,0,1,.5-.473c1.292,1.366,2.726,2.756,4.261,4.13a.344.344,0,0,1-.23.6Z" transform="translate(-537.395 -638.071)"/></g><g transform="translate(485.555 404.109)"><path class="u" d="M0,0H82.569a0,0,0,0,1,0,0V0A7.066,7.066,0,0,1,75.5,7.066H7.066A7.066,7.066,0,0,1,0,0V0A0,0,0,0,1,0,0Z" transform="translate(0.344 0.344)"/><path class="d" d="M746.237,691.4H677.8a7.419,7.419,0,0,1-7.41-7.41v-.344h83.257v.344A7.418,7.418,0,0,1,746.237,691.4Zm-75.15-7.066a6.729,6.729,0,0,0,6.713,6.377h68.437a6.73,6.73,0,0,0,6.713-6.377Z" transform="translate(-670.39 -683.649)"/></g><g transform="translate(491.295 360.838)"><rect class="f" width="71.472" height="46.305" rx="8.481" transform="translate(0.344 0.344)"/><path class="d" d="M755.955,604.974h-65.63a3.268,3.268,0,0,1-3.265-3.265V561.245a3.268,3.268,0,0,1,3.265-3.265h65.63a3.268,3.268,0,0,1,3.265,3.265v40.464A3.268,3.268,0,0,1,755.955,604.974Zm-65.63-46.3a2.579,2.579,0,0,0-2.576,2.576v40.464a2.579,2.579,0,0,0,2.576,2.576h65.63a2.579,2.579,0,0,0,2.576-2.576V561.245a2.579,2.579,0,0,0-2.576-2.576Z" transform="translate(-687.06 -557.98)"/></g><g transform="translate(521.486 378.258)"><g transform="translate(0 0)"><circle class="u" cx="5.547" cy="5.547" r="5.547"/></g></g><g transform="translate(489.315 327.387)"><path class="d" d="M684.137,460.83a2.832,2.832,0,0,0-2.827,2.83H682a2.14,2.14,0,1,1,4.28,0h.689A2.832,2.832,0,0,0,684.137,460.83Z" transform="translate(-681.31 -460.83)"/></g><g transform="translate(502.864 327.731)"><path class="d" d="M723.485,461.83a2.832,2.832,0,0,0-2.827,2.83h.689a2.14,2.14,0,1,1,4.28,0h.689A2.832,2.832,0,0,0,723.485,461.83Z" transform="translate(-720.658 -461.83)"/></g></g><rect class="v" width="237" height="178" transform="translate(565 152)"/></g></svg>