<svg xmlns="http://www.w3.org/2000/svg" width="28" height="16.794" viewBox="0 0 28 16.794"><defs><style>.a{fill:#777;}</style></defs><path class="a" d="M7.329,30.015A3.342,3.342,0,0,0,7.6,28.83a3.315,3.315,0,0,1,3.157-2.872A32.69,32.69,0,0,0,14.1,25.53a8.732,8.732,0,0,0,4.772-3.465,7.138,7.138,0,0,0,1.011-1.794,1.632,1.632,0,0,1,2.569-.842,1.21,1.21,0,0,1,.537,1.209,5.1,5.1,0,0,1-.4,1.429,12.764,12.764,0,0,1-4.543,6.24,1.208,1.208,0,0,0-.6,1.2c.04,1.043.009,2.089.013,3.133,0,.212.011.421-.191.561H10.9c-.345-.1-.36-.379-.318-.65.06-.393-.07-.764-.019-1.146-.074.6.263,1.242-.241,1.8-.852,0-1.7-.021-2.556.01-.364.013-.5-.082-.437-.444a1.308,1.308,0,0,0,0-.241,9.3,9.3,0,0,0,0-2.122Z" transform="translate(-7.31 -16.415)"/><path class="a" d="M37.259,35.077a.909.909,0,0,1-.112-.6c0-1.172,0-2.345.019-3.518a.6.6,0,0,0-.343-.6A9.7,9.7,0,0,1,33.643,27a.545.545,0,0,1,.022-.581,23.192,23.192,0,0,0,1.3-2.935c.04-.13.118-.241.264-.243.166,0,.237.13.312.261a8.912,8.912,0,0,0,2.277,2.647,1.661,1.661,0,0,0,.354.247,6.912,6.912,0,0,1,2.679,2.409c.211.274.354.274.585.039s.523-.388.725-.631a1.664,1.664,0,0,1,1.873-.444c1.98.464,2.741,1.382,2.968,3.595a3.646,3.646,0,0,0,.189,1.2v.964c-.143.508.041,1.036-.1,1.543H44.3a.487.487,0,0,1-.291-.5c.01-.416,0-.833,0-1.25,0,.417-.008.834,0,1.25a.487.487,0,0,1-.292.5Z" transform="translate(-19.203 -18.293)"/><path class="a" d="M31.908,14.195a8.43,8.43,0,0,1,.381,2.141c.025.137-.084.237-.226.263a.21.21,0,0,1-.26-.159,5.967,5.967,0,0,1-.184-2.245Z" transform="translate(-18.289 -14.195)"/><path class="a" d="M52.129,42.9a.671.671,0,0,0,.192-.609c-.005-.592,0-1.184,0-1.776h.229q0,.88,0,1.76c0,.221-.038.454.159.625Z" transform="translate(-27.611 -26.117)"/><path class="a" d="M12.81,43.346a10.946,10.946,0,0,0,.272-1.846c.037.446.084.892.107,1.34a.572.572,0,0,0,.2.507Z" transform="translate(-9.801 -26.563)"/><path class="a" d="M7.344,39.762a4.889,4.889,0,0,1,0,2.122Z" transform="translate(-7.326 -25.775)"/><path class="a" d="M58.291,43.6a5.131,5.131,0,0,1,.1-1.543c0,.466,0,.932,0,1.4C58.384,43.511,58.445,43.63,58.291,43.6Z" transform="translate(-30.396 -26.814)"/><path class="a" d="M45.354,25.407a3.137,3.137,0,1,1,3.159-3.143A3.135,3.135,0,0,1,45.354,25.407Z" transform="translate(-23.138 -16.432)"/><path class="a" d="M15.4,25.407a3.137,3.137,0,1,1,3.148-3.1A3.143,3.143,0,0,1,15.4,25.407Z" transform="translate(-9.562 -16.432)"/><path class="a" d="M36.276,15.554c-.082.165-.159.322-.236.48q-.337.69-.673,1.379c-.074.152-.161.29-.365.194a.27.27,0,0,1-.123-.405c.284-.59.572-1.179.87-1.763a.264.264,0,0,1,.357-.157A.333.333,0,0,1,36.276,15.554Z" transform="translate(-19.777 -14.675)"/><path class="a" d="M27.027,16.143a.441.441,0,0,1,.324.163q.6.585,1.2,1.173c.149.146.261.311.079.49s-.325.018-.449-.1c-.415-.4-.825-.8-1.233-1.205-.1-.1-.211-.208-.108-.374A.282.282,0,0,1,27.027,16.143Z" transform="translate(-16.136 -15.077)"/><path class="a" d="M39.282,18.66a.413.413,0,0,1-.189.266q-.679.495-1.358.991c-.156.115-.318.186-.459,0s0-.327.146-.435c.451-.332.908-.656,1.358-.99a.332.332,0,0,1,.356-.062A.26.26,0,0,1,39.282,18.66Z" transform="translate(-20.855 -16.1)"/><path class="a" d="M14.549,33.107c-.836,0-1.671-.009-2.507.005-.273,0-.361-.088-.367-.358-.011-.513-.083-1.025-.084-1.538,0-.466-.3-.44-.616-.468-.347-.031-.449.133-.459.449-.016.53-.083,1.058-.084,1.586,0,.307-.112.382-.4.368-.433-.022-.868-.01-1.3,0-.2,0-.333-.022-.338-.278a13.524,13.524,0,0,1,.25-3.591c.345-1.381.81-2.037,2.924-2.367a31.738,31.738,0,0,0,3.287-.441,9.324,9.324,0,0,0,4.914-3.6,7.042,7.042,0,0,0,1.082-1.918,1.1,1.1,0,0,1,.712-.79,1.19,1.19,0,0,1,1.169.26.872.872,0,0,1,.145.987,12.454,12.454,0,0,1-5.188,7.271.606.606,0,0,0-.3.6c.01,1.077-.018,2.154.015,3.229.014.463-.073.653-.591.617C16.062,33.068,15.3,33.107,14.549,33.107Z" transform="translate(-7.797 -16.873)"/><path class="a" d="M35.815,24.969a9.775,9.775,0,0,0,2.042,2.283,2.011,2.011,0,0,0,.465.34A7.546,7.546,0,0,1,41.1,30.113c.464.535.458.539,1.006.073.33-.281.688-.534.987-.845a1.157,1.157,0,0,1,1.185-.292A2.749,2.749,0,0,1,46.9,31.775a20.021,20.021,0,0,1,.226,3.217c0,.264-.063.378-.349.362-.51-.03-1.162.156-1.495-.094s-.068-.93-.1-1.42c0-.048,0-.1,0-.145,0-.906-.049-.935-.923-.748a.371.371,0,0,0-.336.432c0,.514-.03,1.028-.032,1.542,0,.268-.065.4-.382.4q-2.483-.025-4.967,0c-.348,0-.388-.141-.383-.427.018-1.125.005-2.251.03-3.375a.706.706,0,0,0-.43-.746,8.476,8.476,0,0,1-3.024-3.04.428.428,0,0,1,.009-.484C35.1,26.511,35.44,25.769,35.815,24.969Z" transform="translate(-19.699 -19.075)"/><path class="a" d="M45.84,20.137a2.588,2.588,0,1,1-2.6,2.584A2.542,2.542,0,0,1,45.84,20.137Z" transform="translate(-23.584 -16.886)"/><path class="a" d="M15.885,20.137a2.588,2.588,0,1,1-2.6,2.582A2.547,2.547,0,0,1,15.885,20.137Z" transform="translate(-10.017 -16.886)"/></svg>