<svg xmlns="http://www.w3.org/2000/svg" width="27.506" height="28" viewBox="0 0 27.506 28"><defs><style>.a{fill:#777;}</style></defs><g transform="translate(0 0)"><path class="a" d="M27.683,18.214a11.06,11.06,0,0,1,.861,3.9H29.86a11.072,11.072,0,0,1,.861-3.9C33.776,11.767,32.978,1.013,29.2,1,25.271.987,24.755,12.033,27.683,18.214Z" transform="translate(-15.205 -1)"/><path class="a" d="M20.154,22.555h.967a10.285,10.285,0,0,0-.772-3.52c-2.911-6.142-2.3-13.733-.179-17.242a8.075,8.075,0,0,0-5.432,5.336A10.147,10.147,0,0,0,17.87,18.32a4.832,4.832,0,0,1,1.846,3.8A.436.436,0,0,0,20.154,22.555Z" transform="translate(-8.66 -1.446)"/><path class="a" d="M39.188,32.5a20.955,20.955,0,0,1-1.343,3.806,10.285,10.285,0,0,0-.77,3.522h.971a.439.439,0,0,0,.438-.437c0-2.1.962-2.988,2.083-4.021.214-.2.429-.394.639-.608A2.7,2.7,0,0,1,39.188,32.5Z" transform="translate(-21.539 -18.719)"/><path class="a" d="M40.8,13.472a2.667,2.667,0,0,1,1.072-.993A3.022,3.022,0,0,1,44.836,10.2a2.564,2.564,0,0,1,.411.031,8.511,8.511,0,0,0-5.972-8.4C41.031,4.759,41.392,9.79,40.8,13.472Z" transform="translate(-22.777 -1.467)"/><path class="a" d="M31.992,52.051h-.687l-.551-.8H29.691l.551.8h-3.57l.551-.8H26.161l-.551.8h-.687a.437.437,0,1,0,0,.875h.416v3.465a.878.878,0,0,0,.875.875H30.7a.875.875,0,0,0,.875-.875V52.926h.416a.437.437,0,1,0,0-.875Z" transform="translate(-14.458 -29.266)"/><path class="a" d="M52.192,25.37a1.779,1.779,0,0,0-1.054-.42,1.769,1.769,0,0,0-2.152-1.234A2.131,2.131,0,0,0,45.241,25a1.833,1.833,0,0,0,.438,3.614H51.02a1.833,1.833,0,0,0,1.173-3.242Z" transform="translate(-25.348 -13.356)"/><path class="a" d="M6.321,17.449a11.217,11.217,0,0,1,.494-5.18c.022-.066.048-.131.074-.2a2.255,2.255,0,0,0-3.819,1.54A1.943,1.943,0,0,0,3.5,17.449Z" transform="translate(-1.565 -6.87)"/><path class="a" d="M54.625,7.494a.876.876,0,0,1,.875.875.437.437,0,1,0,.875,0,.876.876,0,0,1,.875-.875.437.437,0,1,0,0-.875,1.746,1.746,0,0,0-1.312.594,1.746,1.746,0,0,0-1.312-.594.437.437,0,1,0,0,.875Z" transform="translate(-31.165 -4.161)"/><path class="a" d="M8.312,34.542a1.966,1.966,0,0,0-1.531.732,1.965,1.965,0,0,0-1.531-.732.438.438,0,1,0,0,.875,1.1,1.1,0,0,1,1.094,1.094.438.438,0,0,0,.875,0,1.1,1.1,0,0,1,1.094-1.094.438.438,0,0,0,0-.875Z" transform="translate(-3.391 -19.867)"/></g></svg>