<svg xmlns="http://www.w3.org/2000/svg" width="28" height="28" viewBox="0 0 28 28"><defs><style>.a{fill:#777;}</style></defs><path class="a" d="M6.125,20.13m1.385-4.35a.606.606,0,0,0,.207.812.577.577,0,0,0,.278.08.595.595,0,0,0,.024-1.188A.57.57,0,0,0,7.509,15.78ZM6.125,20.13a.591.591,0,0,0,.494.667h.057a.581.581,0,0,0,.592-.53h0a.591.591,0,0,0-.5-.66.58.58,0,0,0-.638.522Zm20.5-.512a.591.591,0,0,0-.492.668.583.583,0,0,0,.539.514h.074a.595.595,0,0,0-.039-1.188.567.567,0,0,0-.079.009ZM25.383,16.7a.549.549,0,0,0,.3-.08.6.6,0,0,0,.208-.808.561.561,0,0,0-.781-.215.6.6,0,0,0-.208.808A.568.568,0,0,0,25.383,16.7ZM12.836,30.258a.568.568,0,0,0-.745.333.6.6,0,0,0,.278.751.538.538,0,0,0,.222.052.585.585,0,0,0,.575-.593.6.6,0,0,0-.333-.54Zm7.694,0h0a.6.6,0,0,0-.294.783.566.566,0,0,0,.757.3.6.6,0,0,0,.3-.781.567.567,0,0,0-.757-.3h0Zm2.533-17.023a.608.608,0,0,0-.124-.83.561.561,0,0,0-.8.128.608.608,0,0,0,.124.83h0A.561.561,0,0,0,23.063,13.235ZM16.683,31.1a.6.6,0,0,0,0,1.186h0a.6.6,0,0,0,0-1.186ZM10.469,12.392a.608.608,0,0,0-.13.83.562.562,0,0,0,.8.135.608.608,0,0,0,.13-.83l0,0A.561.561,0,0,0,10.469,12.392Zm11.162,9.252a5.025,5.025,0,0,1-4.936,5.11,5.113,5.113,0,0,1-.012-10.22,5.025,5.025,0,0,1,4.939,5.107v0Zm-4.439,2.267a.3.3,0,0,0-.3-.306h-.761a.3.3,0,0,0-.3.306v.509a.3.3,0,0,0,.3.306H16.9a.3.3,0,0,0,.3-.306Zm1.509-3.5a1.743,1.743,0,0,0-.539-1.354,2.161,2.161,0,0,0-1.512-.5,2.244,2.244,0,0,0-1.447.438,1.464,1.464,0,0,0-.53,1.1.194.194,0,0,0,.177.208h.009l.867.015a.3.3,0,0,0,.3-.227.578.578,0,0,1,.16-.279.633.633,0,0,1,.453-.172.648.648,0,0,1,.518.208.824.824,0,0,1,.181.561,1.14,1.14,0,0,1-.157.613,1.334,1.334,0,0,1-.426.435,3.024,3.024,0,0,0-.722.674,1.347,1.347,0,0,0-.192.637.215.215,0,0,0,.191.235h.96a.213.213,0,0,0,.21-.2,1.113,1.113,0,0,1,.077-.365.945.945,0,0,1,.349-.377,2.16,2.16,0,0,0,.766-.689,1.665,1.665,0,0,0,.314-.965Zm-1.03-7.328h3.048V11.908a.839.839,0,0,0-.3-.64A13.035,13.035,0,0,0,18.248,9.8ZM14.786,7.57c.124.456.24.582.328.591a1.954,1.954,0,0,0,.231.649v.6l1.21.919-.453.613.3.509-.231,1.636H17.2l-.24-1.673.3-.509-.453-.613,1.21-.919V8.8a1.913,1.913,0,0,0,.231-.643c.089,0,.2-.135.328-.591.172-.613,0-.714-.163-.7a1.669,1.669,0,0,0,.065-.257c.26-1.611-.509-1.67-.509-1.67a1.2,1.2,0,0,0-.456-.429,1.514,1.514,0,0,0-.95-.208,1.334,1.334,0,0,0-.379.074h0a1.65,1.65,0,0,0-.414.221,2.247,2.247,0,0,0-.429.365,1.8,1.8,0,0,0-.462.839,1.9,1.9,0,0,0,0,.821h0a1.668,1.668,0,0,0,.065.257C14.8,6.863,14.612,6.958,14.786,7.57Zm-2.14,4.338v1.176h3.048L15.1,9.794a13.023,13.023,0,0,0-2.175,1.47A.839.839,0,0,0,12.647,11.908ZM28.224,27.572l-.592,3.281H30.68v-1.17a.839.839,0,0,0-.3-.64A13.033,13.033,0,0,0,28.224,27.572Zm-1.45.524,1.21-.919v-.594a1.912,1.912,0,0,0,.24-.631c.089,0,.2-.135.328-.591.172-.613,0-.714-.163-.7a1.668,1.668,0,0,0,.065-.257c.26-1.611-.509-1.67-.509-1.67a1.2,1.2,0,0,0-.471-.46,1.514,1.514,0,0,0-.95-.208,1.334,1.334,0,0,0-.379.074h0a1.65,1.65,0,0,0-.414.221,2.247,2.247,0,0,0-.429.365,1.8,1.8,0,0,0-.462.839,1.9,1.9,0,0,0,0,.821h0a1.668,1.668,0,0,0,.065.257c-.154,0-.334.077-.163.7.124.456.24.582.328.591a1.954,1.954,0,0,0,.231.649v.594l1.21.919-.453.613.3.509-.228,1.636h1.033l-.24-1.673.3-.509Zm-3.877.947a.839.839,0,0,0-.3.64v1.17h3.054l-.592-3.29A13.04,13.04,0,0,0,22.9,29.042Zm-14.6-1.47-.583,3.281h3.054v-1.17a.839.839,0,0,0-.3-.64A13.035,13.035,0,0,0,8.294,27.572ZM6.852,28.1l1.21-.919v-.594a1.913,1.913,0,0,0,.231-.643c.089,0,.2-.135.328-.591.172-.613,0-.714-.163-.7a1.668,1.668,0,0,0,.065-.257c.26-1.611-.509-1.67-.509-1.67a1.2,1.2,0,0,0-.465-.447,1.514,1.514,0,0,0-.95-.208,1.334,1.334,0,0,0-.379.074h0a1.65,1.65,0,0,0-.414.221,2.247,2.247,0,0,0-.429.365,1.8,1.8,0,0,0-.462.839,1.9,1.9,0,0,0,0,.821h0a1.669,1.669,0,0,0,.065.257c-.154,0-.334.077-.163.7.124.456.24.582.328.591a1.954,1.954,0,0,0,.231.649v.594l1.21.919-.453.613.3.509L6.2,30.852H7.237L7,29.18l.3-.509Zm-3.877.947a.839.839,0,0,0-.3.64v1.17H5.734l-.592-3.281A13.012,13.012,0,0,0,2.976,29.042Z" transform="translate(-2.68 -4.289)"/></svg>