<svg xmlns="http://www.w3.org/2000/svg" width="28" height="25.443" viewBox="0 0 28 25.443"><defs><style>.a{fill:#777;}</style></defs><path class="a" d="M7.608,44.255,5.051,53.8A1.491,1.491,0,0,0,6.1,55.625l4.9,1.314Z" transform="translate(-5 -33.321)"/><path class="a" d="M22.46,53.458,25.284,64a1.491,1.491,0,0,0,1.824,1.054l5.478-1.469Z" transform="translate(-17.028 -39.661)"/><path class="a" d="M43.074,42.761a1.838,1.838,0,0,0-.324-.415l-.429-.414a1.767,1.767,0,0,0-.429-.307,1.369,1.369,0,0,0-.479-.144,1.094,1.094,0,0,0-.491.064,1.349,1.349,0,0,0-.76.788,1.1,1.1,0,0,0-.043.49,1.363,1.363,0,0,0,.162.473,1.759,1.759,0,0,0,.322.418l.429.414a1.728,1.728,0,0,0,.427.3,1.337,1.337,0,0,0,.478.139,1.135,1.135,0,0,0,.494-.066,1.245,1.245,0,0,0,.467-.318,1.191,1.191,0,0,0,.292-.47,1.12,1.12,0,0,0,.046-.488A1.271,1.271,0,0,0,43.074,42.761Z" transform="translate(-29.185 -31.407)"/><path class="a" d="M43.584,21.164,31.531,9.111H22.985A1.987,1.987,0,0,0,21,11.1v8.547L33.051,31.7a1.489,1.489,0,0,0,2.107,0l8.426-8.427A1.489,1.489,0,0,0,43.584,21.164Zm-18.143-7.61a1.489,1.489,0,1,1,0-2.106A1.489,1.489,0,0,1,25.441,13.554Zm5.492,8.161a2.382,2.382,0,0,1-.532.819,2.426,2.426,0,0,1-.808.57,2.23,2.23,0,0,1-.867.18,2.123,2.123,0,0,1-.848-.179,2.523,2.523,0,0,1-.754-.506l-.429-.414a2.542,2.542,0,0,1-.538-.74,2.2,2.2,0,0,1-.215-.842,2.16,2.16,0,0,1,.143-.872,2.612,2.612,0,0,1,1.343-1.392,2.119,2.119,0,0,1,.864-.172,2.233,2.233,0,0,1,.846.187,2.54,2.54,0,0,1,.758.511l.429.414a2.578,2.578,0,0,1,.536.731,2.111,2.111,0,0,1,.215.836A2.212,2.212,0,0,1,30.934,21.716Zm2.6,4.521-2.52-10.07.932-.23,2.52,10.07Zm5.774-4.061A2.374,2.374,0,0,1,38.78,23a2.424,2.424,0,0,1-.808.57,2.226,2.226,0,0,1-.866.18,2.12,2.12,0,0,1-.849-.179,2.535,2.535,0,0,1-.759-.512l-.434-.419a2.55,2.55,0,0,1-.536-.737,2.153,2.153,0,0,1-.215-.842,2.19,2.19,0,0,1,.146-.87A2.615,2.615,0,0,1,35.8,18.8a2.185,2.185,0,0,1,.864-.177,2.151,2.151,0,0,1,.849.184,2.55,2.55,0,0,1,.756.509l.434.419a2.542,2.542,0,0,1,.539.74,2.157,2.157,0,0,1,.212.839A2.19,2.19,0,0,1,39.312,22.176Z" transform="translate(-16.021 -9.11)"/><path class="a" d="M70,44.219a1.849,1.849,0,0,0-.325-.415l-.434-.419a1.76,1.76,0,0,0-.429-.307,1.336,1.336,0,0,0-.476-.142,1.11,1.11,0,0,0-.488.066,1.22,1.22,0,0,0-.462.312,1.2,1.2,0,0,0-.292.47,1.169,1.169,0,0,0-.048.49,1.279,1.279,0,0,0,.156.473,1.745,1.745,0,0,0,.322.418l.434.419a1.766,1.766,0,0,0,.429.307,1.331,1.331,0,0,0,.482.142,1.133,1.133,0,0,0,.494-.066,1.243,1.243,0,0,0,.468-.318,1.2,1.2,0,0,0,.292-.47,1.109,1.109,0,0,0,.044-.49A1.335,1.335,0,0,0,70,44.219Z" transform="translate(-47.734 -32.409)"/></svg>