<svg xmlns="http://www.w3.org/2000/svg" width="45" height="39" viewBox="0 0 45 39"><defs>.a{fill:#777;}</defs><g class="a" transform="translate(-77 -648)"><g class="a" transform="translate(8.5 579.5)"><path d="M107.5,334.9H99.7V331H76.3v3.9H68.5l3.9,3.942L68.5,342.7H80.2v-3.9H95.8v3.9h11.7l-3.9-3.858Z" transform="translate(0 -235.2)"/><path d="M74.106,95.093A15.377,15.377,0,0,1,72.4,88a15.6,15.6,0,0,1,31.2,0,15.455,15.455,0,0,1-1.6,6.885l3.494,1.726a19.242,19.242,0,0,0,2-8.611A19.495,19.495,0,1,0,68.5,88a19.317,19.317,0,0,0,2.132,8.882Z"/><path d="M178.066,144.2l-2.3-7.446,6.032-4.6h-7.457l-2.3-7.457-2.3,7.457H162.3l6.022,4.6-2.3,7.446,6.022-4.6Z" transform="translate(-84.045 -50.355)"/><path d="M129.784,230.654l-.9-2.954-.915,2.954H125l2.392,1.83-.9,2.954,2.392-1.82,2.382,1.82-.9-2.954,2.392-1.83Z" transform="translate(-50.624 -142.643)"/><path d="M317.284,230.654l-.9-2.954-.915,2.954H312.5l2.392,1.83-.9,2.954,2.392-1.82,2.382,1.82-.9-2.954,2.392-1.83Z" transform="translate(-218.624 -142.643)"/></g></g></svg>