<svg xmlns="http://www.w3.org/2000/svg" width="13.487" height="13.477" viewBox="0 0 13.487 13.477"><defs><style>.a{fill:#c5c5c5;}</style></defs><g transform="translate(0 0)"><path class="a" d="M125.435,224.473a5.375,5.375,0,1,1,5.4-5.34A5.388,5.388,0,0,1,125.435,224.473Zm.025-1.459a3.916,3.916,0,1,0-3.921-3.909A3.924,3.924,0,0,0,125.46,223.014Z" transform="translate(-120.08 -213.724)"/><path class="a" d="M219.557,313.872l1.2-1.152,1.359,1.329c.521.509,1.043,1.017,1.562,1.528.36.355.392.59.079.984a2.442,2.442,0,0,1-.573.506.5.5,0,0,1-.7-.094C221.51,315.935,220.528,314.9,219.557,313.872Z" transform="translate(-210.484 -303.691)"/><path class="a" d="M146.159,246.377a3.244,3.244,0,0,1,1.413-2.574c.1-.069.282-.012.427-.014-.028.146-.011.328-.094.43-.189.234-.454.406-.639.642a2.283,2.283,0,0,0-.522,1.784c.021.148-.123.318-.19.478a2.281,2.281,0,0,1-.332-.385A1.035,1.035,0,0,1,146.159,246.377Z" transform="translate(-143.78 -241.028)"/></g></svg>