<svg xmlns="http://www.w3.org/2000/svg" width="28" height="19.86" viewBox="0 0 28 19.86"><defs><style>.a{fill:#777;}</style></defs><path class="a" d="M33.85,18.756a.5.5,0,0,0-.592-.4h0l-.663.132V30.267a1.512,1.512,0,0,1-1.512,1.512H12.8l.86,4.337a.508.508,0,0,0,.593.4L36,32.2a.5.5,0,0,0,.4-.593h0Z" transform="translate(-8.407 -16.662)"/><path class="a" d="M27.262,28.606V15.5a.5.5,0,0,0-.5-.5H4.586a.5.5,0,0,0-.5.5v13.1a.5.5,0,0,0,.5.5H26.758A.5.5,0,0,0,27.262,28.606Zm-11.631-.5a6.047,6.047,0,1,1,6.047-6.047A6.047,6.047,0,0,1,15.631,28.1Zm10.582-2.016H25.2V24.574h1.008Zm0-2.52H25.2V17.016H23.189V16.008H25.2a1.008,1.008,0,0,1,1.008,1.008Z" transform="translate(-4.082 -15)"/><path class="a" d="M32.49,28.22l.944,2.52a.494.494,0,0,1,.026.12,5.008,5.008,0,0,0,1.061-4.907.5.5,0,0,1-.144.382Z" transform="translate(-18.175 -20.434)"/><path class="a" d="M17.454,22.884a.5.5,0,0,1,.353-.86h2.342l1.44-2.753a.5.5,0,0,1,.447-.27,5.031,5.031,0,0,0-3.669,8.479.5.5,0,0,1,.027-.19l.944-2.52Z" transform="translate(-10.49 -16.984)"/><path class="a" d="M22.449,24.532H21.018l1.256,1.256a.5.5,0,0,1,.116.534l-.636,1.7,2.077-.923a.5.5,0,0,1,.2-.043h.062a.5.5,0,0,1,.2.043l2.076.923-.636-1.7a.5.5,0,0,1,.115-.534l1.258-1.256H25.682a.5.5,0,0,1-.446-.27l-1.17-2.237L22.9,24.262A.5.5,0,0,1,22.449,24.532Z" transform="translate(-12.484 -18.485)"/><path class="a" d="M23.93,34.066l-3,1.334a.5.5,0,0,1-.184.038,5.019,5.019,0,0,0,6.318-.011.493.493,0,0,1-.132-.028Z" transform="translate(-12.348 -24.458)"/><path class="a" d="M27.212,19.011a.5.5,0,0,1,.408.265l1.44,2.753H31.4a.5.5,0,0,1,.4.2A5.04,5.04,0,0,0,27.212,19.011Z" transform="translate(-15.557 -16.99)"/></svg>