<svg xmlns="http://www.w3.org/2000/svg" xmlns:xlink="http://www.w3.org/1999/xlink" width="112.741" height="96.252" viewBox="0 0 112.741 96.252"><defs><style>.a{fill:url(#a);}.b{fill:#000916;}</style><linearGradient id="a" y1="0.5" x2="1" y2="0.5" gradientUnits="objectBoundingBox"><stop offset="0.188" stop-color="#d8d8d8"/><stop offset="1" stop-color="#bcbcbc"/></linearGradient></defs><g transform="translate(-610.941 -1429.585)"><g transform="translate(672.986 1429.585)"><g transform="translate(0 0)"><path d="M385.933,400.827a1.056,1.056,0,0,1-.239-1.065l3.625-10.849a24.938,24.938,0,0,1-3.678-13.109,25.362,25.362,0,1,1,12.824,22.031l-11.478,3.276a1.062,1.062,0,0,1-1.054-.285Zm1.821-25.022a22.815,22.815,0,0,0,3.612,12.4,1.061,1.061,0,0,1,.114.908l-3.147,9.421,9.985-2.852a1.063,1.063,0,0,1,.832.11,23.23,23.23,0,1,0-11.4-19.984Z" transform="translate(-385.64 -350.458)"/><g transform="translate(12.675 19.011)"><path d="M392.7,361.57h23.235a1.056,1.056,0,1,0,0-2.112H392.7a1.056,1.056,0,0,0,0,2.112Z" transform="translate(-391.641 -359.458)"/></g><g transform="translate(12.675 25.347)"><path d="M392.7,364.57h23.235a1.056,1.056,0,1,0,0-2.112H392.7a1.056,1.056,0,0,0,0,2.112Z" transform="translate(-391.641 -362.458)"/></g><g transform="translate(12.675 31.684)"><path d="M392.7,367.57h23.235a1.056,1.056,0,1,0,0-2.112H392.7a1.056,1.056,0,1,0,0,2.112Z" transform="translate(-391.641 -365.458)"/></g></g></g><g transform="translate(610.941 1467.723)"><g transform="translate(0 0)"><ellipse class="a" cx="27.626" cy="27.626" rx="27.626" ry="27.626" transform="translate(1.431 1.43)"/><path class="b" d="M481.977,488.435a29.057,29.057,0,1,1,29.055-29.059A29.091,29.091,0,0,1,481.977,488.435Zm0-55.252a26.2,26.2,0,1,0,26.193,26.194A26.225,26.225,0,0,0,481.977,433.183Z" transform="translate(-452.919 -430.321)"/></g><g transform="translate(21.568 14.654)"><path d="M463.558,444.248a.9.9,0,0,0-.9.9v1.8a.9.9,0,0,0,1.8,0v-1.8A.9.9,0,0,0,463.558,444.248Z" transform="translate(-456.355 -419.042)"/><path d="M467.759,435.441h-.1a7.2,7.2,0,0,0-7.2,7.2.9.9,0,1,0,1.8,0,5.4,5.4,0,0,1,5.481-5.4,5.507,5.507,0,0,1,5.323,5.323,5.379,5.379,0,0,1-2.479,4.619,8.594,8.594,0,0,0-3.824,7.3v2.559a.9.9,0,0,0,1.8,0v-2.559a6.888,6.888,0,0,1,3-5.79,7.169,7.169,0,0,0,3.3-6.159A7.253,7.253,0,0,0,467.759,435.441Z" transform="translate(-460.455 -435.441)"/></g></g></g></svg>