<svg xmlns="http://www.w3.org/2000/svg" xmlns:xlink="http://www.w3.org/1999/xlink" width="104.139" height="72.906" viewBox="0 0 104.139 72.906"><defs><style>.a{fill:#000916;}.b{fill:#fff;}.c{fill:url(#a);}</style><linearGradient id="a" x1="0.098" y1="0.537" x2="1.131" y2="0.537" gradientUnits="objectBoundingBox"><stop offset="0.188" stop-color="#d8d8d8"/><stop offset="1" stop-color="#bcbcbc"/></linearGradient></defs><g transform="translate(-438.693 -281.175)"><g transform="translate(514.723 281.175)"><path d="M474.452,295.987a1.07,1.07,0,0,1-.43-.088,1.1,1.1,0,0,1-.579-1.439l5.378-12.619a1.1,1.1,0,1,1,2.018.86l-5.378,12.621A1.1,1.1,0,0,1,474.452,295.987Z" transform="translate(-473.355 -281.175)"/></g><g transform="translate(526.072 299.491)"><path d="M479.625,297.379a1.1,1.1,0,0,1-.452-2.1l12.5-5.659a1.1,1.1,0,0,1,.9,2l-12.5,5.661A1.093,1.093,0,0,1,479.625,297.379Z" transform="translate(-478.529 -289.525)"/></g><g transform="translate(527.067 321.005)"><path d="M493.653,303.53a1.054,1.054,0,0,1-.164-.013l-13.569-2a1.1,1.1,0,0,1,.32-2.171l13.571,2a1.1,1.1,0,0,1-.158,2.182Z" transform="translate(-478.983 -299.334)"/></g><g transform="translate(445.269 292.21)"><path class="a" d="M447.547,341.99l-5.856-13.382,44.356-42.4,20.3,48.256Zm-3.231-12.858,4.58,10.474L503.2,332.65l-17.945-42.658Z" transform="translate(-441.691 -286.206)"/></g><g transform="translate(438.693 329.423)"><path class="b" d="M451.511,325.434h0a4.506,4.506,0,0,1-6-2.235l-5.914-13.1a4.508,4.508,0,0,1,2.257-5.964l.151-.068a4.508,4.508,0,0,1,5.979,2.3l5.762,13.167A4.507,4.507,0,0,1,451.511,325.434Z" transform="translate(-438.094 -302.577)"/><path class="a" d="M450.216,327.546a5.623,5.623,0,0,1-5.111-3.3l-5.914-13.1A5.6,5.6,0,0,1,442,303.73a5.664,5.664,0,0,1,4.466-.186,5.555,5.555,0,0,1,3.119,2.983l5.762,13.167a5.631,5.631,0,0,1-2.777,7.328h0A5.567,5.567,0,0,1,450.216,327.546Zm-5.767-22.187a3.407,3.407,0,0,0-1.4.3,3.487,3.487,0,0,0-1.939,1.97,3.379,3.379,0,0,0,.081,2.61l5.914,13.1a3.41,3.41,0,0,0,4.543,1.689h0a3.425,3.425,0,0,0,1.689-4.459l-5.762-13.167a3.418,3.418,0,0,0-3.126-2.046Z" transform="translate(-438.692 -303.171)"/></g><g transform="translate(468.144 341.425)"><path class="b" d="M474.822,312.828h0a4.308,4.308,0,0,1-3.683,4.891l-13.617,1.847a4.309,4.309,0,0,1-4.848-3.694l-.022-.158a4.309,4.309,0,0,1,3.74-4.85l13.637-1.689A4.306,4.306,0,0,1,474.822,312.828Z" transform="translate(-451.529 -308.047)"/><path class="a" d="M457.534,321.3a5.418,5.418,0,0,1-5.356-4.685,5.473,5.473,0,0,1,1.055-4.176,5.371,5.371,0,0,1,3.615-2.064l13.639-1.689a5.434,5.434,0,0,1,6.012,4.582h0a5.4,5.4,0,0,1-4.622,6.135l-13.615,1.849A5.493,5.493,0,0,1,457.534,321.3Zm13.613-10.463a2.939,2.939,0,0,0-.39.024l-13.639,1.689a3.209,3.209,0,0,0-2.786,3.615,3.26,3.26,0,0,0,3.635,2.911l13.615-1.847a3.205,3.205,0,0,0,2.746-3.643h0A3.231,3.231,0,0,0,471.146,310.836Z" transform="translate(-452.12 -308.643)"/></g><g transform="translate(486.555 282.631)"><path class="c" d="M489.985,343.663h0a5.412,5.412,0,0,1-7.164-2.86l-21.384-50.844a5.413,5.413,0,0,1,2.871-7.08l.25-.105a5.414,5.414,0,0,1,7.12,2.906l21.134,50.952A5.414,5.414,0,0,1,489.985,343.663Z" transform="translate(-459.918 -281.241)"/><path class="a" d="M488.407,345.818a6.543,6.543,0,0,1-6-3.99l-21.384-50.846a6.525,6.525,0,0,1,3.45-8.515l.254-.108a6.515,6.515,0,0,1,8.561,3.5l21.132,50.949a6.548,6.548,0,0,1-3.4,8.458h0A6.533,6.533,0,0,1,488.407,345.818ZM467.27,284.033a4.334,4.334,0,0,0-1.689.347l-.252.105a4.33,4.33,0,0,0-2.286,5.648l21.384,50.844a4.315,4.315,0,0,0,5.712,2.279h0a4.34,4.34,0,0,0,2.255-5.609L471.26,286.7a4.282,4.282,0,0,0-2.354-2.343A4.341,4.341,0,0,0,467.27,284.033Z" transform="translate(-460.513 -281.839)"/></g></g></svg>