<?xml version="1.0" encoding="UTF-8"?>
<svg width="63px" height="65px" viewBox="0 0 63 65" version="1.1" xmlns="http://www.w3.org/2000/svg" xmlns:xlink="http://www.w3.org/1999/xlink">
    <title>Liens@1x</title>
    <defs>
        <circle id="path-1" cx="27.5" cy="27.5" r="27.5"></circle>
        <filter x="-12.7%" y="-9.1%" width="125.5%" height="125.5%" filterUnits="objectBoundingBox" id="filter-2">
            <feOffset dx="0" dy="2" in="SourceAlpha" result="shadowOffsetOuter1"></feOffset>
            <feGaussianBlur stdDeviation="2" in="shadowOffsetOuter1" result="shadowBlurOuter1"></feGaussianBlur>
            <feComposite in="shadowBlurOuter1" in2="SourceAlpha" operator="out" result="shadowBlurOuter1"></feComposite>
            <feColorMatrix values="0 0 0 0 0   0 0 0 0 0   0 0 0 0 0  0 0 0 0.108173077 0" type="matrix" in="shadowBlurOuter1"></feColorMatrix>
        </filter>
        <filter x="-44.9%" y="-35.3%" width="190.7%" height="170.5%" filterUnits="objectBoundingBox" id="filter-3">
            <feOffset dx="0" dy="2" in="SourceAlpha" result="shadowOffsetOuter1"></feOffset>
            <feGaussianBlur stdDeviation="2" in="shadowOffsetOuter1" result="shadowBlurOuter1"></feGaussianBlur>
            <feColorMatrix values="0 0 0 0 0.854901961   0 0 0 0 0.419607843   0 0 0 0 0.137254902  0 0 0 1 0" type="matrix" in="shadowBlurOuter1" result="shadowMatrixOuter1"></feColorMatrix>
            <feMerge>
                <feMergeNode in="shadowMatrixOuter1"></feMergeNode>
                <feMergeNode in="SourceGraphic"></feMergeNode>
            </feMerge>
        </filter>
        <linearGradient x1="50%" y1="2.77555756e-15%" x2="50%" y2="70.8984375%" id="linearGradient-4">
            <stop stop-color="#FFFFFF" offset="0%"></stop>
            <stop stop-color="#FFFFFF" stop-opacity="0" offset="100%"></stop>
        </linearGradient>
        <linearGradient x1="50%" y1="0%" x2="50%" y2="100%" id="linearGradient-5">
            <stop stop-color="#FCED82" offset="0%"></stop>
            <stop stop-color="#F8D64B" offset="100%"></stop>
        </linearGradient>
        <linearGradient x1="50%" y1="100%" x2="50%" y2="3.061617e-15%" id="linearGradient-6">
            <stop stop-color="#FAE97B" offset="0%"></stop>
            <stop stop-color="#FDF6B2" offset="100%"></stop>
        </linearGradient>
        <filter x="-34.3%" y="-44.4%" width="171.4%" height="188.9%" filterUnits="objectBoundingBox" id="filter-7">
            <feOffset dx="0" dy="2" in="SourceAlpha" result="shadowOffsetOuter1"></feOffset>
            <feGaussianBlur stdDeviation="2" in="shadowOffsetOuter1" result="shadowBlurOuter1"></feGaussianBlur>
            <feColorMatrix values="0 0 0 0 0   0 0 0 0 0   0 0 0 0 0  0 0 0 0.153518357 0" type="matrix" in="shadowBlurOuter1" result="shadowMatrixOuter1"></feColorMatrix>
            <feMerge>
                <feMergeNode in="shadowMatrixOuter1"></feMergeNode>
                <feMergeNode in="SourceGraphic"></feMergeNode>
            </feMerge>
        </filter>
        <linearGradient x1="50%" y1="0%" x2="50%" y2="70.8984375%" id="linearGradient-8">
            <stop stop-color="#FFFFFF" stop-opacity="0" offset="0%"></stop>
            <stop stop-color="#FFFFFF" offset="100%"></stop>
        </linearGradient>
        <linearGradient x1="50%" y1="0%" x2="50%" y2="70.8984375%" id="linearGradient-9">
            <stop stop-color="#FFFFFF" offset="0%"></stop>
            <stop stop-color="#FFFFFF" stop-opacity="0" offset="100%"></stop>
        </linearGradient>
        <linearGradient x1="50%" y1="0%" x2="50%" y2="70.8984375%" id="linearGradient-10">
            <stop stop-color="#FFFFFF" offset="0%"></stop>
            <stop stop-color="#FFFFFF" stop-opacity="0" offset="100%"></stop>
        </linearGradient>
        <linearGradient x1="34.8606419%" y1="50%" x2="95.1910895%" y2="50%" id="linearGradient-11">
            <stop stop-color="#D0D2D5" offset="0%"></stop>
            <stop stop-color="#B2B7BB" offset="100%"></stop>
        </linearGradient>
        <linearGradient x1="100%" y1="50%" x2="0%" y2="50%" id="linearGradient-12">
            <stop stop-color="#C3C7CA" offset="0%"></stop>
            <stop stop-color="#D4D6D9" offset="96.3656039%"></stop>
        </linearGradient>
        <linearGradient x1="50%" y1="0%" x2="50%" y2="70.8984375%" id="linearGradient-13">
            <stop stop-color="#FFFFFF" offset="0%"></stop>
            <stop stop-color="#FFFFFF" stop-opacity="0" offset="100%"></stop>
        </linearGradient>
        <linearGradient x1="50%" y1="0%" x2="50%" y2="70.8984375%" id="linearGradient-14">
            <stop stop-color="#FFFFFF" stop-opacity="0" offset="0%"></stop>
            <stop stop-color="#F0F1F2" offset="100%"></stop>
        </linearGradient>
        <linearGradient x1="50%" y1="0%" x2="50%" y2="70.8984375%" id="linearGradient-15">
            <stop stop-color="#FFFFFF" stop-opacity="0" offset="0%"></stop>
            <stop stop-color="#F0F1F2" offset="100%"></stop>
        </linearGradient>
        <filter x="-115.4%" y="-100.0%" width="330.8%" height="330.8%" filterUnits="objectBoundingBox" id="filter-16">
            <feOffset dx="0" dy="2" in="SourceAlpha" result="shadowOffsetOuter1"></feOffset>
            <feGaussianBlur stdDeviation="2" in="shadowOffsetOuter1" result="shadowBlurOuter1"></feGaussianBlur>
            <feColorMatrix values="0 0 0 0 0   0 0 0 0 0   0 0 0 0 0  0 0 0 0.11 0" type="matrix" in="shadowBlurOuter1" result="shadowMatrixOuter1"></feColorMatrix>
            <feMerge>
                <feMergeNode in="shadowMatrixOuter1"></feMergeNode>
                <feMergeNode in="SourceGraphic"></feMergeNode>
            </feMerge>
        </filter>
        <circle id="path-17" cx="6.38235294" cy="6.38235294" r="5.10588235"></circle>
        <filter x="-68.5%" y="-49.0%" width="237.1%" height="237.1%" filterUnits="objectBoundingBox" id="filter-18">
            <feOffset dx="0" dy="2" in="SourceAlpha" result="shadowOffsetOuter1"></feOffset>
            <feGaussianBlur stdDeviation="2" in="shadowOffsetOuter1" result="shadowBlurOuter1"></feGaussianBlur>
            <feColorMatrix values="0 0 0 0 0   0 0 0 0 0   0 0 0 0 0  0 0 0 0.150295017 0" type="matrix" in="shadowBlurOuter1"></feColorMatrix>
        </filter>
    </defs>
    <g id="Page-1" stroke="none" stroke-width="1" fill="none" fill-rule="evenodd">
        <g id="Liens">
            <g id="Group-51" transform="translate(4.000000, 4.000000)">
                <g id="Oval-Copy-213">
                    <use fill="black" fill-opacity="1" filter="url(#filter-2)" xlink:href="#path-1"></use>
                    <use fill-opacity="0.6" fill="#F2A832" fill-rule="evenodd" xlink:href="#path-1"></use>
                </g>
                <path d="M27.5,49.9019608 C35.2022444,49.9019608 42.0005667,46.0318102 46.0564133,40.1300629 C48.5440619,36.5102331 50,32.1261232 50,27.4019608 C50,14.9755539 39.9264069,4.90196078 27.5,4.90196078 C15.0735931,4.90196078 5,14.9755539 5,27.4019608 C5,32.138975 6.46387044,36.5340839 8.96391206,40.1595883 C13.0221228,46.0447147 19.8106073,49.9019608 27.5,49.9019608 Z" id="Oval-Copy-219" fill-opacity="0.65" fill="#E68A2C" opacity="0.5"></path>
                <path d="M33,12 C38.3650732,12 43.3189787,13.7604182 47.3155891,16.7351272 C49.0284434,19.9106553 50,23.5428485 50,27.4019608 C50,32.1261232 48.5440619,36.5102331 46.0564133,40.1300629 C42.0005667,46.0318102 35.2022444,49.9019608 27.5,49.9019608 C20.1418136,49.9019608 13.6085968,46.3698458 9.50336184,40.9086278 C9.17308341,39.3241122 9,37.682269 9,36 C9,22.745166 19.745166,12 33,12 Z" id="Combined-Shape" fill="#DA6B23" opacity="0.5"></path>
                <g id="Group-43" transform="translate(10.000000, 8.000000)">
                    <g id="Group-17-Copy-5" filter="url(#filter-3)" transform="translate(3.039216, 3.615012)">
                        <g id="Group-11-Copy-10" transform="translate(0.000000, 0.032047)" stroke="#ECECEC">
                            <rect id="Rectangle" fill="#FFFFFF" x="0.5" y="0.5" width="25.745098" height="31.8235294" rx="2"></rect>
                            <line x1="4.25490196" y1="4.25490196" x2="22.4901961" y2="4.25490196" id="Line" stroke-width="0.75" stroke-linecap="round" stroke-linejoin="round"></line>
                            <line x1="4.25490196" y1="13.9803922" x2="22.4901961" y2="13.9803922" id="Line-Copy-4" stroke-width="0.75" stroke-linecap="round" stroke-linejoin="round"></line>
                            <line x1="4.25490196" y1="6.71386215" x2="22.4901961" y2="6.71386215" id="Line-Copy" stroke-width="0.75" stroke-linecap="round" stroke-linejoin="round"></line>
                            <line x1="4.25490196" y1="16.4393523" x2="22.4901961" y2="16.4393523" id="Line-Copy-5" stroke-width="0.75" stroke-linecap="round" stroke-linejoin="round"></line>
                            <line x1="4.25490196" y1="23.7058824" x2="22.4901961" y2="23.7058824" id="Line-Copy-8" stroke-width="0.75" stroke-linecap="round" stroke-linejoin="round"></line>
                            <line x1="4.25490196" y1="9.07730183" x2="22.4901961" y2="9.07730183" id="Line-Copy-2" stroke-width="0.75" stroke-linecap="round" stroke-linejoin="round"></line>
                            <line x1="4.25490196" y1="18.802792" x2="22.4901961" y2="18.802792" id="Line-Copy-6" stroke-width="0.75" stroke-linecap="round" stroke-linejoin="round"></line>
                            <line x1="4.25490196" y1="26.069322" x2="22.4901961" y2="26.069322" id="Line-Copy-9" stroke-width="0.75" stroke-linecap="round" stroke-linejoin="round"></line>
                            <line x1="4.25490196" y1="11.6434453" x2="22.4901961" y2="11.6434453" id="Line-Copy-3" stroke-width="0.75" stroke-linecap="round" stroke-linejoin="round"></line>
                            <line x1="4.25490196" y1="21.3689354" x2="22.4901961" y2="21.3689354" id="Line-Copy-7" stroke-width="0.75" stroke-linecap="round" stroke-linejoin="round"></line>
                            <line x1="4.25490196" y1="28.6354655" x2="22.4901961" y2="28.6354655" id="Line-Copy-10" stroke-width="0.75" stroke-linecap="round" stroke-linejoin="round"></line>
                        </g>
                        <polygon id="Path-9-Copy-10" fill="#FFFFFF" points="4.25490196 1.25924589 22.4901961 1.25924589 23.7852504 3.72058354 3.08125783 3.72058354"></polygon>
                        <path d="M25.9555318,0.645646513 L0.796453149,32.20993 C1.21619151,32.640361 1.76925158,32.8555766 2.45563337,32.8555766 C3.48520606,32.8555766 23.1207341,32.8555766 23.8315639,32.8555766 C24.5423936,32.8555766 25.4666784,32.8550348 26.013333,32.1642382 C26.5599875,31.4734416 26.745098,31.1740651 26.745098,30.2431734 C26.745098,29.3122816 26.745098,3.3436586 26.745098,2.8648623 C26.745098,2.38606599 26.7721393,2.00513228 26.5473797,1.4973621 C26.3975399,1.15884865 26.2002573,0.874943451 25.9555318,0.645646513 Z" id="Path-12-Copy-11" fill="url(#linearGradient-4)" opacity="0.596679688"></path>
                        <path d="M25.1649483,-2.15949263e-15 L0.00586966124,31.5642835 C0.42560802,31.9947145 0.978668095,32.20993 1.66504989,32.20993 C2.69462257,32.20993 22.3301506,32.20993 23.0409804,32.20993 C23.7518101,32.20993 24.6760949,32.2093883 25.2227495,31.5185917 C25.7694041,30.8277951 25.9545146,30.5284186 25.9545146,29.5975268 C25.9545146,28.666635 25.9545146,2.69801209 25.9545146,2.21921578 C25.9545146,1.74041948 25.9815559,1.35948577 25.7567962,0.851715587 C25.6069564,0.513202133 25.4096738,0.229296938 25.1649483,-2.15949263e-15 Z" id="Path-12-Copy-12" fill="url(#linearGradient-4)" opacity="0.596679688" transform="translate(12.980701, 16.104965) scale(-1, -1) translate(-12.980701, -16.104965) "></path>
                    </g>
                    <path d="M17.627451,5.84424365 C17.627451,4.30168968 16.2153255,4.4408921e-15 10.3176251,4.4408921e-15 C4.41992466,4.4408921e-15 3.03921569,4.39436966 3.03921569,5.84424365 C3.03921569,6.81082632 3.03921569,9.7254902 3.03921569,14.5882353 L5.47546088,14.5882353 C5.47546088,10.0406329 5.47546088,7.44640034 5.47546088,6.80553767 C5.47546088,5.84424365 6.55718755,2.56744116 10.3333333,2.56744116 C14.1094791,2.56744116 15.2077271,4.84558674 15.2077271,6.80553767 C15.2077271,7.57477815 17.627451,6.52887587 17.627451,5.84424365 Z" id="Path-2-Copy-25" fill="#F8D64B"></path>
                    <path d="M17.627451,5.84424365 C17.627451,4.30168968 16.2153255,8.8817842e-16 10.3176251,8.8817842e-16 C4.41992466,8.8817842e-16 6.55718755,2.56744116 10.3333333,2.56744116 C14.1094791,2.56744116 17.627451,6.52887587 17.627451,5.84424365 Z" id="Path-2-Copy-28" fill="url(#linearGradient-5)"></path>
                    <g id="Group-16-Copy-5" transform="translate(0.000000, 10.941176)">
                        <polygon id="Path-11-Copy-10" fill="#414141" points="13.4991729 3.64705882 13.4991729 11.6616091 7.29411765 11.6616091 7.29411765 3.64705882"></polygon>
                        <path d="M18.6666667,0 C19.7712362,-2.02906125e-16 20.6666667,0.8954305 20.6666667,2 L20.6666667,11.372549 C20.6666667,12.4771185 19.7712362,13.372549 18.6666667,13.372549 L2,13.372549 C0.8954305,13.372549 1.3527075e-16,12.4771185 0,11.372549 L0,2 C-1.3527075e-16,0.8954305 0.8954305,2.02906125e-16 2,0 L18.6666667,0 Z M10.3333333,4.11463047 C9.51805585,4.11463047 8.85714286,4.80544902 8.85714286,5.65761689 C8.85714286,6.33360798 9.2730304,6.90806805 9.85195229,7.11670256 L9.85195229,7.11670256 L9.85292139,9.9489395 C9.88866916,10.1783052 10.0488065,10.2929881 10.3333333,10.2929881 C10.6178602,10.2929881 10.7818814,10.1783052 10.8253968,9.9489395 L10.8253968,9.9489395 L10.8258475,7.11263786 C11.3989607,6.90068558 11.8095238,6.32926682 11.8095238,5.65761689 C11.8095238,4.80544902 11.1486108,4.11463047 10.3333333,4.11463047 Z" id="Combined-Shape-Copy-46" fill="#FFD511"></path>
                        <path d="M18.6666667,0 C19.7712362,-2.02906125e-16 20.6666667,0.8954305 20.6666667,2 L20.6666667,10.1568627 C20.6666667,11.2614322 19.7712362,12.1568627 18.6666667,12.1568627 L2,12.1568627 C0.8954305,12.1568627 1.3527075e-16,11.2614322 0,10.1568627 L0,2 C-1.3527075e-16,0.8954305 0.8954305,2.02906125e-16 2,0 L18.6666667,0 Z M10.3333333,4.11463047 C9.51805585,4.11463047 8.85714286,4.80544902 8.85714286,5.65761689 C8.85714286,6.33360798 9.2730304,6.90806805 9.85195229,7.11670256 L9.85195229,7.11670256 L9.85292139,9.9489395 C9.88866916,10.1783052 10.0488065,10.2929881 10.3333333,10.2929881 C10.6178602,10.2929881 10.7818814,10.1783052 10.8253968,9.9489395 L10.8253968,9.9489395 L10.8258475,7.11263786 C11.3989607,6.90068558 11.8095238,6.32926682 11.8095238,5.65761689 C11.8095238,4.80544902 11.1486108,4.11463047 10.3333333,4.11463047 Z" id="Combined-Shape-Copy-47" fill="#FAE97B"></path>
                        <path d="M20.6533901,0 L20.6525909,4.11469916 C19.8437957,4.12259587 19.1904762,4.81035863 19.1904762,5.65761689 C19.1904762,6.33360798 19.6063637,6.90806805 20.1852856,7.11670256 L20.1852856,7.11670256 L20.1862547,9.9489395 C20.2220025,10.1783052 20.3821398,10.2929881 20.6666667,10.2929881 L20.6503333,10.291 L20.6505594,12.1568627 L12.3333333,12.1568627 C11.2287638,12.1568627 10.3333333,11.2614322 10.3333333,10.1568627 L10.3333333,2 C10.3333333,0.8954305 11.2287638,2.02906125e-16 12.3333333,0 L20.6533901,0 Z" id="Combined-Shape-Copy-48" fill="url(#linearGradient-6)" transform="translate(15.500000, 6.078431) scale(-1, 1) translate(-15.500000, -6.078431) "></path>
                        <path d="M5.47486404,0 L5.38376187,13.372549 L2,13.372549 C0.8954305,13.372549 1.3527075e-16,12.4771185 0,11.372549 L0,2 C-1.3527075e-16,0.8954305 0.8954305,2.02906125e-16 2,0 L5.47486404,0 Z" id="Combined-Shape-Copy-49" fill="#FFD511"></path>
                        <line x1="19.4509804" y1="2.79377002" x2="19.4509804" y2="9.875563" id="Path-13-Copy-16" stroke="#FFF49F" stroke-width="0.75" stroke-linecap="round" stroke-linejoin="round"></line>
                        <line x1="1.36071747" y1="2.79377002" x2="1.36071747" y2="9.875563" id="Path-13-Copy-17" stroke="#FFE14B" stroke-width="0.75" stroke-linecap="round" stroke-linejoin="round"></line>
                    </g>
                    <polygon id="Path-10-Copy-15" fill="#ECECEC" points="7.53507968 3.64705882 24.3592029 3.64705882 25.5294118 4.64705882 7.29411765 4.64705882"></polygon>
                    <g id="Group-22-Copy-8" filter="url(#filter-7)" transform="translate(3.862745, 14.130465)">
                        <g id="Group-16-Copy" transform="translate(22.150433, 0.000000)">
                            <path d="M7.18701506,1.84068627 L5.10858369,1.84068627 C4.72888792,1.84068627 4.38513792,1.99458839 4.13631186,2.24341445 C3.8874858,2.49224051 3.73358369,2.83599051 3.73358369,3.21568627 L3.73358369,10.1568627 C3.73358369,10.5365585 3.8874858,10.8803085 4.13631186,11.1291346 C4.38513792,11.3779606 4.72888792,11.5318627 5.10858369,11.5318627 L7.18701506,11.5318627 C7.56671082,11.5318627 7.91046082,11.3779606 8.15928688,11.1291346 C8.40811294,10.8803085 8.56201506,10.5365585 8.56201506,10.1568627 L8.56201506,3.21568627 C8.56201506,2.83599051 8.40811294,2.49224051 8.15928688,2.24341445 C7.91046082,1.99458839 7.56671082,1.84068627 7.18701506,1.84068627 Z" id="Rectangle-Copy-57" stroke="#B3B7BB" stroke-width="1.25" transform="translate(6.147799, 6.686275) rotate(43.000000) translate(-6.147799, -6.686275) "></path>
                            <path d="M9.96749451,2.79997882 L8.8728675,3.80725085 C9.34375026,4.20732579 9.57919164,4.54014011 9.57919164,4.80569382 C9.57919164,5.20402439 9.38304732,5.41641863 9.200361,5.63366593 C9.01767469,5.85091323 5.49911723,9.60033672 5.31513967,9.80822874 C5.13116211,10.0161207 4.86099898,10.2213816 4.68310235,10.2213816 C4.50520573,10.2213816 4.26244355,10.2748821 4.01729829,10.0882149 C3.85386812,9.96377012 3.68852317,9.81823694 3.52126345,9.65161539 L2.43137255,10.6983258 C2.99070676,11.2188306 3.35400373,11.5007268 3.52126345,11.5440145 C3.77215303,11.608946 3.99490407,11.8085644 4.68310235,11.7402416 C5.37130063,11.6719188 5.81985739,11.549423 7.14064846,10.0882149 C8.46143953,8.62700685 10.0637078,6.92949008 10.3371745,6.63778054 C10.6106412,6.34607101 10.9820461,5.84772658 11.0482932,5.40571852 C11.1145404,4.96371046 11.218998,4.59902969 10.9004505,3.91729241 C10.6880855,3.46280089 10.3771001,3.09036302 9.96749451,2.79997882 Z" id="Path-6-Copy-4" fill="url(#linearGradient-8)" opacity="0.548665365"></path>
                            <path d="M4.41892921,1.53934266 C4.19026263,5.77186165 4.07592934,7.88812114 4.07592934,7.88812114" id="Path-13-Copy-8" stroke="#CFCFD1" stroke-width="0.5" opacity="0.6" stroke-linecap="round" stroke-linejoin="round" transform="translate(4.247429, 4.713732) rotate(40.000000) translate(-4.247429, -4.713732) "></path>
                        </g>
                        <g id="Group-18-Copy-4" transform="translate(24.098039, 12.006790) scale(-1, 1) rotate(70.000000) translate(-24.098039, -12.006790) translate(18.019608, 5.320515)">
                            <path d="M7.18701506,1.84068627 L5.10858369,1.84068627 C4.72888792,1.84068627 4.38513792,1.99458839 4.13631186,2.24341445 C3.8874858,2.49224051 3.73358369,2.83599051 3.73358369,3.21568627 L3.73358369,10.1568627 C3.73358369,10.5365585 3.8874858,10.8803085 4.13631186,11.1291346 C4.38513792,11.3779606 4.72888792,11.5318627 5.10858369,11.5318627 L7.18701506,11.5318627 C7.56671082,11.5318627 7.91046082,11.3779606 8.15928688,11.1291346 C8.40811294,10.8803085 8.56201506,10.5365585 8.56201506,10.1568627 L8.56201506,3.21568627 C8.56201506,2.83599051 8.40811294,2.49224051 8.15928688,2.24341445 C7.91046082,1.99458839 7.56671082,1.84068627 7.18701506,1.84068627 Z" id="Rectangle-Copy-5" stroke="#B3B7BB" stroke-width="1.25" transform="translate(6.147799, 6.686275) rotate(43.000000) translate(-6.147799, -6.686275) "></path>
                            <path d="M9.96749451,2.79997882 L8.8728675,3.80725085 C9.34375026,4.20732579 9.57919164,4.54014011 9.57919164,4.80569382 C9.57919164,5.20402439 9.38304732,5.41641863 9.200361,5.63366593 C9.01767469,5.85091323 5.49911723,9.60033672 5.31513967,9.80822874 C5.13116211,10.0161207 4.86099898,10.2213816 4.68310235,10.2213816 C4.50520573,10.2213816 4.26244355,10.2748821 4.01729829,10.0882149 C3.85386812,9.96377012 3.68852317,9.81823694 3.52126345,9.65161539 L2.43137255,10.6983258 C2.99070676,11.2188306 3.35400373,11.5007268 3.52126345,11.5440145 C3.77215303,11.608946 3.99490407,11.8085644 4.68310235,11.7402416 C5.37130063,11.6719188 5.81985739,11.549423 7.14064846,10.0882149 C8.46143953,8.62700685 10.0637078,6.92949008 10.3371745,6.63778054 C10.6106412,6.34607101 10.9820461,5.84772658 11.0482932,5.40571852 C11.1145404,4.96371046 11.218998,4.59902969 10.9004505,3.91729241 C10.6880855,3.46280089 10.3771001,3.09036302 9.96749451,2.79997882 Z" id="Path-6" fill="url(#linearGradient-8)" opacity="0.548665365"></path>
                            <path d="M8.36800835,5.32614007 C8.15209562,9.53067988 8.04413925,11.6329498 8.04413925,11.6329498" id="Path-13-Copy-3" stroke="#B2B7BB" stroke-width="0.5" opacity="0.6" stroke-linecap="round" stroke-linejoin="round" transform="translate(8.206074, 8.479545) rotate(40.000000) translate(-8.206074, -8.479545) "></path>
                            <line x1="4.41892921" y1="1.53934266" x2="4.07592934" y2="7.88812114" id="Path-13-Copy-2" stroke="#CFCFD1" stroke-width="0.5" opacity="0.6" stroke-linecap="round" stroke-linejoin="round" transform="translate(4.247429, 4.713732) rotate(40.000000) translate(-4.247429, -4.713732) "></line>
                            <path d="M9.5537148,2.3922467 C9.77880451,2.57864658 9.93722066,2.71455729 10.0289632,2.79997882 C10.2743986,3.02850372 10.4510725,3.22784102 10.4730293,3.25055059 C10.5244311,3.30371461 11.0031655,3.78666127 10.7114273,4.2080909 C10.4196891,4.62952054 9.20178608,4.1159962 8.83698374,3.78666127 C8.4721814,3.45732633 8.23507657,3.26945294 8.12155118,3.21035296 C8.00802579,3.15125298 7.79268444,3.02720841 7.36264245,3.21035296 C6.93260046,3.39349751 5.29283745,5.49941142 4.53249524,6.16798618 C3.77215303,6.83656094 2.07817696,6.64695609 2.79622836,5.84378174 C3.51427976,5.04060738 5.41413124,3.02027532 5.78096531,2.65124818 C6.14779937,2.28222104 6.3358685,1.9310193 7.14145729,1.70532621 C7.50377915,1.60381842 8.0758562,1.5427466 8.68124694,1.78663122 C8.79045151,1.83062481 9.00230097,1.94660176 9.1720577,2.06832109 C9.26059802,2.13180645 9.38781705,2.23978166 9.5537148,2.3922467 Z" id="Path-15" fill="url(#linearGradient-9)" opacity="0.615676153"></path>
                        </g>
                        <g id="Group-18-Copy-5" transform="translate(13.433195, 16.500674) scale(1, -1) rotate(77.000000) translate(-13.433195, -16.500674) translate(6.933195, 10.000674)">
                            <path d="M7.18701506,1.84068627 L5.10858369,1.84068627 C4.72888792,1.84068627 4.38513792,1.99458839 4.13631186,2.24341445 C3.8874858,2.49224051 3.73358369,2.83599051 3.73358369,3.21568627 L3.73358369,10.1568627 C3.73358369,10.5365585 3.8874858,10.8803085 4.13631186,11.1291346 C4.38513792,11.3779606 4.72888792,11.5318627 5.10858369,11.5318627 L7.18701506,11.5318627 C7.56671082,11.5318627 7.91046082,11.3779606 8.15928688,11.1291346 C8.40811294,10.8803085 8.56201506,10.5365585 8.56201506,10.1568627 L8.56201506,3.21568627 C8.56201506,2.83599051 8.40811294,2.49224051 8.15928688,2.24341445 C7.91046082,1.99458839 7.56671082,1.84068627 7.18701506,1.84068627 Z" id="Rectangle-Copy-5" stroke="#B3B7BB" stroke-width="1.25" transform="translate(6.147799, 6.686275) rotate(43.000000) translate(-6.147799, -6.686275) "></path>
                            <path d="M9.96749451,2.79997882 L8.8728675,3.80725085 C9.34375026,4.20732579 9.57919164,4.54014011 9.57919164,4.80569382 C9.57919164,5.20402439 9.38304732,5.41641863 9.200361,5.63366593 C9.01767469,5.85091323 5.49911723,9.60033672 5.31513967,9.80822874 C5.13116211,10.0161207 4.86099898,10.2213816 4.68310235,10.2213816 C4.50520573,10.2213816 4.26244355,10.2748821 4.01729829,10.0882149 C3.85386812,9.96377012 3.68852317,9.81823694 3.52126345,9.65161539 L2.43137255,10.6983258 C2.99070676,11.2188306 3.35400373,11.5007268 3.52126345,11.5440145 C3.77215303,11.608946 3.99490407,11.8085644 4.68310235,11.7402416 C5.37130063,11.6719188 5.81985739,11.549423 7.14064846,10.0882149 C8.46143953,8.62700685 10.0637078,6.92949008 10.3371745,6.63778054 C10.6106412,6.34607101 10.9820461,5.84772658 11.0482932,5.40571852 C11.1145404,4.96371046 11.218998,4.59902969 10.9004505,3.91729241 C10.6880855,3.46280089 10.3771001,3.09036302 9.96749451,2.79997882 Z" id="Path-6" fill="url(#linearGradient-8)" opacity="0.548665365"></path>
                            <path d="M8.36800835,5.32614007 C8.15209562,9.53067988 8.04413925,11.6329498 8.04413925,11.6329498" id="Path-13-Copy-3" stroke="#B2B7BB" stroke-width="0.5" opacity="0.6" stroke-linecap="round" stroke-linejoin="round" transform="translate(8.206074, 8.479545) rotate(40.000000) translate(-8.206074, -8.479545) "></path>
                            <line x1="4.41892921" y1="1.53934266" x2="4.07592934" y2="7.88812114" id="Path-13-Copy-2" stroke="#CFCFD1" stroke-width="0.5" opacity="0.6" stroke-linecap="round" stroke-linejoin="round" transform="translate(4.247429, 4.713732) rotate(40.000000) translate(-4.247429, -4.713732) "></line>
                            <path d="M9.5537148,2.3922467 C9.77880451,2.57864658 9.93722066,2.71455729 10.0289632,2.79997882 C10.2743986,3.02850372 10.4510725,3.22784102 10.4730293,3.25055059 C10.5244311,3.30371461 11.0031655,3.78666127 10.7114273,4.2080909 C10.4196891,4.62952054 9.20178608,4.1159962 8.83698374,3.78666127 C8.4721814,3.45732633 8.32293824,2.95808981 8.20941285,2.89898983 C8.09588746,2.83988985 7.88054611,2.71584528 7.45050412,2.89898983 C7.02046213,3.08213438 5.38069912,5.18804829 4.62035691,5.85662305 C3.8600147,6.52519781 2.07817696,6.64695609 2.79622836,5.84378174 C3.51427976,5.04060738 5.41413124,3.02027532 5.78096531,2.65124818 C6.14779937,2.28222104 6.23567723,1.69682111 7.04126602,1.47112802 C7.40358788,1.36962023 7.97566493,1.30854841 8.58105567,1.55243303 C8.69026024,1.59642662 9.08388983,1.86017699 9.25364656,1.98189632 C9.34218688,2.04538168 9.44220963,2.18216514 9.5537148,2.3922467 Z" id="Path-15" fill="url(#linearGradient-10)" opacity="0.615676153"></path>
                        </g>
                        <g id="Group-18-Copy-6" transform="translate(18.019608, 12.006790) scale(1, -1) rotate(65.000000) translate(-18.019608, -12.006790) translate(11.941176, 5.320515)">
                            <path d="M7.18701506,1.84068627 L5.10858369,1.84068627 C4.72888792,1.84068627 4.38513792,1.99458839 4.13631186,2.24341445 C3.8874858,2.49224051 3.73358369,2.83599051 3.73358369,3.21568627 L3.73358369,10.1568627 C3.73358369,10.5365585 3.8874858,10.8803085 4.13631186,11.1291346 C4.38513792,11.3779606 4.72888792,11.5318627 5.10858369,11.5318627 L7.18701506,11.5318627 C7.56671082,11.5318627 7.91046082,11.3779606 8.15928688,11.1291346 C8.40811294,10.8803085 8.56201506,10.5365585 8.56201506,10.1568627 L8.56201506,3.21568627 C8.56201506,2.83599051 8.40811294,2.49224051 8.15928688,2.24341445 C7.91046082,1.99458839 7.56671082,1.84068627 7.18701506,1.84068627 Z" id="Rectangle-Copy-5" stroke="#B3B7BB" stroke-width="1.25" transform="translate(6.147799, 6.686275) rotate(43.000000) translate(-6.147799, -6.686275) "></path>
                            <path d="M9.96749451,2.79997882 L8.8728675,3.80725085 C9.34375026,4.20732579 9.57919164,4.54014011 9.57919164,4.80569382 C9.57919164,5.20402439 9.38304732,5.41641863 9.200361,5.63366593 C9.01767469,5.85091323 5.49911723,9.60033672 5.31513967,9.80822874 C5.13116211,10.0161207 4.86099898,10.2213816 4.68310235,10.2213816 C4.50520573,10.2213816 4.26244355,10.2748821 4.01729829,10.0882149 C3.85386812,9.96377012 3.68852317,9.81823694 3.52126345,9.65161539 L2.43137255,10.6983258 C2.99070676,11.2188306 3.35400373,11.5007268 3.52126345,11.5440145 C3.77215303,11.608946 3.99490407,11.8085644 4.68310235,11.7402416 C5.37130063,11.6719188 5.81985739,11.549423 7.14064846,10.0882149 C8.46143953,8.62700685 10.0637078,6.92949008 10.3371745,6.63778054 C10.6106412,6.34607101 10.9820461,5.84772658 11.0482932,5.40571852 C11.1145404,4.96371046 11.218998,4.59902969 10.9004505,3.91729241 C10.6880855,3.46280089 10.3771001,3.09036302 9.96749451,2.79997882 Z" id="Path-6" fill="url(#linearGradient-8)" opacity="0.548665365"></path>
                            <path d="M8.36800835,5.32614007 C8.15209562,9.53067988 8.04413925,11.6329498 8.04413925,11.6329498" id="Path-13-Copy-3" stroke="#B2B7BB" stroke-width="0.5" opacity="0.6" stroke-linecap="round" stroke-linejoin="round" transform="translate(8.206074, 8.479545) rotate(40.000000) translate(-8.206074, -8.479545) "></path>
                            <line x1="4.41892921" y1="1.53934266" x2="4.07592934" y2="7.88812114" id="Path-13-Copy-2" stroke="#CFCFD1" stroke-width="0.5" opacity="0.6" stroke-linecap="round" stroke-linejoin="round" transform="translate(4.247429, 4.713732) rotate(40.000000) translate(-4.247429, -4.713732) "></line>
                            <path d="M9.5537148,2.3922467 C9.77880451,2.57864658 9.93722066,2.71455729 10.0289632,2.79997882 C10.2743986,3.02850372 10.4510725,3.22784102 10.4730293,3.25055059 C10.5244311,3.30371461 11.0031655,3.78666127 10.7114273,4.2080909 C10.4196891,4.62952054 9.20178608,4.1159962 8.83698374,3.78666127 C8.4721814,3.45732633 8.23507657,3.26945294 8.12155118,3.21035296 C8.00802579,3.15125298 7.79268444,3.02720841 7.36264245,3.21035296 C6.93260046,3.39349751 5.29283745,5.49941142 4.53249524,6.16798618 C3.77215303,6.83656094 2.07817696,6.64695609 2.79622836,5.84378174 C3.51427976,5.04060738 5.41413124,3.02027532 5.78096531,2.65124818 C6.14779937,2.28222104 6.3358685,1.9310193 7.14145729,1.70532621 C7.50377915,1.60381842 8.0758562,1.5427466 8.68124694,1.78663122 C8.79045151,1.83062481 9.00230097,1.94660176 9.1720577,2.06832109 C9.26059802,2.13180645 9.38781705,2.23978166 9.5537148,2.3922467 Z" id="Path-15" fill="url(#linearGradient-9)" opacity="0.615676153"></path>
                        </g>
                        <line x1="23.0319487" y1="6.43663525" x2="22.7094415" y2="12.7864877" id="Path-13-Copy-14" stroke="#CFCFD1" stroke-width="0.5" opacity="0.6" stroke-linecap="round" stroke-linejoin="round" transform="translate(22.870695, 9.611561) rotate(64.000000) translate(-22.870695, -9.611561) "></line>
                        <polygon id="Path-16-Copy-2" fill="url(#linearGradient-11)" points="24.3720492 9.0524979 20.8492933 10.5559859 20.8492933 11.5212671 24.5873208 9.94881054"></polygon>
                        <polygon id="Path-18-Copy-2" fill="url(#linearGradient-12)" points="12.1571713 15.3140612 14.4970175 13.9820551 14.9275376 13.7104471 14.2576222 13.273003 11.5223281 14.8421293"></polygon>
                        <line x1="12.0534275" y1="11.2453781" x2="11.7295584" y2="17.5521878" id="Path-13-Copy-15" stroke="#B2B7BB" stroke-width="0.5" stroke-linecap="round" stroke-linejoin="round" transform="translate(11.891493, 14.398783) rotate(57.000000) translate(-11.891493, -14.398783) "></line>
                        <g id="Group-14-Copy" transform="translate(24.581805, 1.616345)">
                            <path d="M7.12234225,0.775902104 C7.34743196,0.962301984 7.50584811,1.09821269 7.5975907,1.18363423 C7.84302604,1.41215912 8.01969994,1.61149642 8.04165676,1.634206 C8.06878982,1.66226927 8.33079098,2.02920893 8.51034294,2.47905141 C8.67094028,2.88140573 8.76157629,3.36016894 8.62383565,3.5591418 C8.33209743,3.98057144 6.77041354,2.4996516 6.40561119,2.17031667 C6.04080885,1.84098174 5.80370402,1.65310835 5.69017863,1.59400836 C5.57665324,1.53490838 5.36131189,1.41086381 4.9312699,1.59400836 C4.50122791,1.77715291 2.8614649,3.88306683 2.10112269,4.55164159 C1.34078048,5.22021635 -0.353195585,5.0306115 0.364855815,4.22743714 C1.08290721,3.42426278 2.98275869,1.40393073 3.34959276,1.03490358 C3.71642682,0.665876439 3.90449595,0.314674705 4.71008474,0.0889816157 C5.0724066,-0.0125261774 5.64448365,-0.0735979972 6.24987439,0.170286619 C6.35907896,0.214280213 6.57092842,0.330257164 6.74068515,0.45197649 C6.82922547,0.515461856 6.9564445,0.62343706 7.12234225,0.775902104 Z" id="Path-15-Copy-2" fill="url(#linearGradient-13)" opacity="0.615676153"></path>
                            <path d="M7.53612196,1.18363423 L6.80357745,2.19436691 C7.27446022,2.59444185 7.5099016,2.92725618 7.5099016,3.19280989 C7.5099016,3.59114045 7.31375727,3.8035347 7.13107096,4.020782 C6.94838464,4.23802929 2.94495162,8.08398189 2.76097406,8.2918739 C2.5769965,8.49976592 2.30683336,8.70502675 2.12893674,8.70502675 C1.95104011,8.70502675 1.70827794,8.7585273 1.46313268,8.57186009 C1.2997025,8.44741529 1.13435756,8.30188211 0.967097835,8.13526056 L1.25233157e-13,9.0819812 C0.242240996,9.31880448 0.413727534,9.47917783 0.514459615,9.56310124 C0.780767379,9.78497152 1.16034657,10.0804667 1.2131834,10.1014218 C1.42020014,10.1835245 1.703465,10.3820071 2.2517298,10.3275766 C2.93992808,10.2592538 3.38848484,9.93307841 4.70927591,8.47187033 C6.03006698,7.01066225 7.63233524,5.31314548 7.90580197,5.02143595 C8.17926869,4.72972641 8.74442161,4.19519851 8.81066873,3.75319044 C8.87691586,3.31118238 8.98137348,2.94650161 8.66282597,2.26476433 C8.45046096,1.81027281 8.07489296,1.44989611 7.53612196,1.18363423 Z" id="Path-6-Copy-5" fill="url(#linearGradient-14)"></path>
                            <line x1="5.9366358" y1="3.70979548" x2="5.61276671" y2="10.0166052" id="Path-13-Copy-9" stroke="#B2B7BB" stroke-width="0.5" opacity="0.6" stroke-linecap="round" stroke-linejoin="round" transform="translate(5.774701, 6.863200) rotate(40.000000) translate(-5.774701, -6.863200) "></line>
                        </g>
                        <g id="Group-21" transform="translate(7.842065, 19.032967) scale(-1, -1) rotate(-6.000000) translate(-7.842065, -19.032967) translate(1.342065, 12.032967)">
                            <g id="Group-16-Copy">
                                <path d="M7.18701506,1.84068627 L5.10858369,1.84068627 C4.72888792,1.84068627 4.38513792,1.99458839 4.13631186,2.24341445 C3.8874858,2.49224051 3.73358369,2.83599051 3.73358369,3.21568627 L3.73358369,10.1568627 C3.73358369,10.5365585 3.8874858,10.8803085 4.13631186,11.1291346 C4.38513792,11.3779606 4.72888792,11.5318627 5.10858369,11.5318627 L7.18701506,11.5318627 C7.56671082,11.5318627 7.91046082,11.3779606 8.15928688,11.1291346 C8.40811294,10.8803085 8.56201506,10.5365585 8.56201506,10.1568627 L8.56201506,3.21568627 C8.56201506,2.83599051 8.40811294,2.49224051 8.15928688,2.24341445 C7.91046082,1.99458839 7.56671082,1.84068627 7.18701506,1.84068627 Z" id="Rectangle-Copy-57" stroke="#B3B7BB" stroke-width="1.25" transform="translate(6.147799, 6.686275) rotate(43.000000) translate(-6.147799, -6.686275) "></path>
                                <path d="M9.96749451,2.79997882 L8.8728675,3.80725085 C9.34375026,4.20732579 9.57919164,4.54014011 9.57919164,4.80569382 C9.57919164,5.20402439 9.38304732,5.41641863 9.200361,5.63366593 C9.01767469,5.85091323 5.49911723,9.60033672 5.31513967,9.80822874 C5.13116211,10.0161207 4.86099898,10.2213816 4.68310235,10.2213816 C4.50520573,10.2213816 4.26244355,10.2748821 4.01729829,10.0882149 C3.85386812,9.96377012 3.68852317,9.81823694 3.52126345,9.65161539 L2.43137255,10.6983258 C2.99070676,11.2188306 3.35400373,11.5007268 3.52126345,11.5440145 C3.77215303,11.608946 3.99490407,11.8085644 4.68310235,11.7402416 C5.37130063,11.6719188 5.81985739,11.549423 7.14064846,10.0882149 C8.46143953,8.62700685 10.0637078,6.92949008 10.3371745,6.63778054 C10.6106412,6.34607101 10.9820461,5.84772658 11.0482932,5.40571852 C11.1145404,4.96371046 11.218998,4.59902969 10.9004505,3.91729241 C10.6880855,3.46280089 10.3771001,3.09036302 9.96749451,2.79997882 Z" id="Path-6-Copy-4" fill="url(#linearGradient-8)" opacity="0.548665365"></path>
                                <line x1="4.41892921" y1="1.53934266" x2="4.07592934" y2="7.88812114" id="Path-13-Copy-8" stroke="#CFCFD1" stroke-width="0.5" opacity="0.6" stroke-linecap="round" stroke-linejoin="round" transform="translate(4.247429, 4.713732) rotate(40.000000) translate(-4.247429, -4.713732) "></line>
                            </g>
                            <g id="Group-14-Copy" transform="translate(2.431373, 1.616345)">
                                <path d="M7.12234225,0.775902104 C7.34743196,0.962301984 7.50584811,1.09821269 7.5975907,1.18363423 C7.84302604,1.41215912 8.01969994,1.61149642 8.04165676,1.634206 C8.06878982,1.66226927 8.33079098,2.02920893 8.51034294,2.47905141 C8.67094028,2.88140573 8.76157629,3.36016894 8.62383565,3.5591418 C8.33209743,3.98057144 6.77041354,2.4996516 6.40561119,2.17031667 C6.04080885,1.84098174 5.80370402,1.65310835 5.69017863,1.59400836 C5.57665324,1.53490838 5.36131189,1.41086381 4.9312699,1.59400836 C4.50122791,1.77715291 2.8614649,3.88306683 2.10112269,4.55164159 C1.34078048,5.22021635 -0.353195585,5.0306115 0.364855815,4.22743714 C1.08290721,3.42426278 2.98275869,1.40393073 3.34959276,1.03490358 C3.71642682,0.665876439 3.90449595,0.314674705 4.71008474,0.0889816157 C5.0724066,-0.0125261774 5.64448365,-0.0735979972 6.24987439,0.170286619 C6.35907896,0.214280213 6.57092842,0.330257164 6.74068515,0.45197649 C6.82922547,0.515461856 6.9564445,0.62343706 7.12234225,0.775902104 Z" id="Path-15-Copy-2" fill="url(#linearGradient-13)" opacity="0.615676153"></path>
                                <path d="M7.53612196,1.18363423 L6.44149495,2.19090625 C6.91237771,2.59098119 7.1478191,2.92379551 7.1478191,3.18934922 C7.1478191,3.58767979 6.95167477,3.80007403 6.76898846,4.01732133 C6.58630214,4.23456863 3.06774468,7.98399213 2.88376712,8.19188414 C2.69978956,8.39977615 2.33550336,8.74817463 2.15760674,8.74817463 C1.97971012,8.74817463 1.73694794,8.80167518 1.49180268,8.61500797 C1.32837251,8.49056317 1.16302756,8.34502999 0.995767838,8.17840844 L1.25233157e-13,9.0819812 C0.242240996,9.31880448 0.413727534,9.47917783 0.514459615,9.56310124 C0.780767379,9.78497152 1.23706841,10.1398077 1.28990524,10.1607628 C1.49692198,10.2428655 1.84950318,10.3316344 2.39776798,10.2772038 C3.08596625,10.208881 3.38848484,9.93307841 4.70927591,8.47187033 C6.03006698,7.01066225 7.63233524,5.31314548 7.90580197,5.02143595 C8.17926869,4.72972641 8.55067357,4.23138199 8.6169207,3.78937392 C8.68316782,3.34736586 8.78762544,2.98268509 8.46907793,2.30094781 C8.25671292,1.84645629 7.9457276,1.47401843 7.53612196,1.18363423 Z" id="Path-6-Copy-5" fill="url(#linearGradient-15)"></path>
                                <line x1="5.9366358" y1="3.70979548" x2="5.61276671" y2="10.0166052" id="Path-13-Copy-9" stroke="#B2B7BB" stroke-width="0.5" opacity="0.6" stroke-linecap="round" stroke-linejoin="round" transform="translate(5.774701, 6.863200) rotate(40.000000) translate(-5.774701, -6.863200) "></line>
                            </g>
                        </g>
                        <path d="M9.86267186,19.5288927 C10.0950302,19.8485481 10.4610991,19.9722774 10.9608784,19.9000806 C11.4606578,19.8278837 12.1826688,19.4946861 13.1269114,18.9004876 L13.158392,19.5214093 L11.1558933,21.0559812 L10.666565,21.4347709 C10.0084997,21.3662208 9.530303,21.149519 9.23197491,20.7846657 C8.93364681,20.4198124 9.14387913,20.0012214 9.86267186,19.5288927 Z" id="Path-14-Copy-2" fill="#B2B7BB"></path>
                    </g>
                    <polygon id="Path-17-Copy-4" fill="#FFFFFF" points="6.86849225 4.64705882 21.4425058 4.64705882 18.632845 7.29411765 10.3466099 7.29411765"></polygon>
                    <g id="Group-55-Copy-4" filter="url(#filter-16)" transform="translate(21.760784, 2.309804)">
                        <circle id="Oval-Copy-355" fill="#00A769" cx="6.38235294" cy="6.38235294" r="6.38235294"></circle>
                        <g id="Oval-Copy-360">
                            <use fill="black" fill-opacity="1" filter="url(#filter-18)" xlink:href="#path-17"></use>
                            <use fill="#26B47C" fill-rule="evenodd" xlink:href="#path-17"></use>
                        </g>
                    </g>
                    <g id="Group-14-Copy-8" transform="translate(25.529412, 4.862745)">
                        <g id="Group-20-Copy-4" transform="translate(0.911765, 0.729412)">
                            <g id="Group-19" fill="#F3F3F3" fill-rule="nonzero">
                                <path d="M1.56260824,4.64468137 L1.56260824,3.22099877 C1.0751662,3.09430147 0.717611414,2.90226103 0.49036085,2.64525735 C0.262901799,2.38787377 0.148859544,2.07616422 0.148859544,1.70898897 C0.148859544,1.33744485 0.277704359,1.02554534 0.534977016,0.77310049 C0.792249673,0.520275735 1.1350019,0.374773284 1.56260824,0.336213235 L1.56260824,0 L2.10300591,0 L2.10300591,0.336213235 C2.4982968,0.379332108 2.81269483,0.502230392 3.04682545,0.704908088 C3.28053911,0.907775735 3.42939865,1.17883578 3.49423803,1.51846814 L2.55041849,1.63053922 C2.49329312,1.36346814 2.34422508,1.1822549 2.10300591,1.08708946 L2.10300591,2.41541667 C2.69990349,2.56262868 3.10624418,2.75371936 3.32265343,2.98811887 C3.5388542,3.22251838 3.64705882,3.52321078 3.64705882,3.89038603 C3.64705882,4.30011029 3.51091697,4.64563113 3.23884176,4.92656863 C2.96634957,5.20750613 2.5879461,5.37979167 2.10300591,5.44285539 L2.10300591,6.07843137 L1.56260824,6.07843137 L1.56260824,5.45995098 C1.13229157,5.41246324 0.783076256,5.26620098 0.514545314,5.02173407 C0.246222859,4.77688725 0.0746382587,4.43174632 0,3.98555147 L0.973424664,3.89038603 C1.01303715,4.07159926 1.08767541,4.22792892 1.19713095,4.35918505 C1.3065865,4.49044118 1.42792579,4.58560662 1.56260824,4.64468137 Z M1.56260824,1.07702206 C1.41583356,1.12242034 1.29887249,1.19935049 1.21193351,1.30838235 C1.12457756,1.41703431 1.08121232,1.53727328 1.08121232,1.66852941 C1.08121232,1.78876838 1.12124177,1.90007966 1.20046674,2.00303309 C1.28010868,2.10617647 1.40061403,2.18956495 1.56260824,2.25300858 L1.56260824,1.07702206 L1.56260824,1.07702206 Z M2.10300591,4.69235907 C2.28939307,4.66082721 2.44117143,4.58199755 2.5581325,4.45625 C2.67467659,4.33050245 2.73346986,4.18253064 2.73346986,4.01271446 C2.73346986,3.86094363 2.68426698,3.7300674 2.58606972,3.62027574 C2.48808095,3.51048407 2.32692068,3.42614583 2.1032144,3.36707108 L2.1032144,4.69235907 L2.10300591,4.69235907 Z" id="Shape"></path>
                            </g>
                            <line x1="1.82352941" y1="0.026495024" x2="1.82352941" y2="6.07843137" id="Path-2" stroke="#F3F3F3" stroke-width="0.5" stroke-linecap="round" stroke-linejoin="round"></line>
                        </g>
                    </g>
                </g>
            </g>
        </g>
    </g>
</svg>