<?xml version="1.0" encoding="UTF-8"?>
<svg width="63px" height="66px" viewBox="0 0 63 66" version="1.1" xmlns="http://www.w3.org/2000/svg" xmlns:xlink="http://www.w3.org/1999/xlink">
    <title>Odometer-and-Service-Records@1x</title>
    <defs>
        <circle id="path-1" cx="27.5" cy="27.5" r="27.5"></circle>
        <filter x="-12.7%" y="-9.1%" width="125.5%" height="125.5%" filterUnits="objectBoundingBox" id="filter-2">
            <feOffset dx="0" dy="2" in="SourceAlpha" result="shadowOffsetOuter1"></feOffset>
            <feGaussianBlur stdDeviation="2" in="shadowOffsetOuter1" result="shadowBlurOuter1"></feGaussianBlur>
            <feComposite in="shadowBlurOuter1" in2="SourceAlpha" operator="out" result="shadowBlurOuter1"></feComposite>
            <feColorMatrix values="0 0 0 0 0   0 0 0 0 0   0 0 0 0 0  0 0 0 0.108173077 0" type="matrix" in="shadowBlurOuter1"></feColorMatrix>
        </filter>
        <filter x="-28.0%" y="-22.3%" width="153.7%" height="144.7%" filterUnits="objectBoundingBox" id="filter-3">
            <feOffset dx="0" dy="1" in="SourceAlpha" result="shadowOffsetOuter1"></feOffset>
            <feGaussianBlur stdDeviation="2" in="shadowOffsetOuter1" result="shadowBlurOuter1"></feGaussianBlur>
            <feColorMatrix values="0 0 0 0 0.208253243   0 0 0 0 0.0203377706   0 0 0 0 0.328408062  0 0 0 0.580310315 0" type="matrix" in="shadowBlurOuter1" result="shadowMatrixOuter1"></feColorMatrix>
            <feMerge>
                <feMergeNode in="shadowMatrixOuter1"></feMergeNode>
                <feMergeNode in="SourceGraphic"></feMergeNode>
            </feMerge>
        </filter>
        <linearGradient x1="50%" y1="2.43406792%" x2="50%" y2="100%" id="linearGradient-4">
            <stop stop-color="#6236FF" offset="0%"></stop>
            <stop stop-color="#A288FF" offset="100%"></stop>
        </linearGradient>
        <path d="M18.2694244,1.24482891 C27.6110252,1.24482891 35.1838888,8.81769257 35.1838888,18.1592933 C35.1838888,21.9103386 33.9628706,25.3761998 31.8966108,28.1811002 L27.9122227,28.1809219 L27.9122227,25.5203551 L27.9105216,25.4064082 C27.8895035,24.7224249 27.6629977,24.0454155 26.6432948,24.0454155 L26.6432948,24.0454155 L9.69274605,24.0454155 C8.616393,24.0454155 8.42381811,24.7997377 8.42381811,25.5203551 L8.42381811,25.5203551 L8.42381811,28.1809219 L4.64223803,28.1811002 C2.57597828,25.3761998 1.35496004,21.9103386 1.35496004,18.1592933 C1.35496004,8.81769257 8.9278237,1.24482891 18.2694244,1.24482891 Z" id="path-5"></path>
        <filter x="-1.5%" y="-1.9%" width="103.0%" height="103.7%" filterUnits="objectBoundingBox" id="filter-6">
            <feOffset dx="0" dy="1" in="SourceAlpha" result="shadowOffsetInner1"></feOffset>
            <feComposite in="shadowOffsetInner1" in2="SourceAlpha" operator="arithmetic" k2="-1" k3="1" result="shadowInnerInner1"></feComposite>
            <feColorMatrix values="0 0 0 0 0   0 0 0 0 0   0 0 0 0 0  0 0 0 0.20741368 0" type="matrix" in="shadowInnerInner1"></feColorMatrix>
        </filter>
        <linearGradient x1="50%" y1="0%" x2="50%" y2="70.8984375%" id="linearGradient-7">
            <stop stop-color="#FFFFFF" offset="0%"></stop>
            <stop stop-color="#FFFFFF" stop-opacity="0" offset="100%"></stop>
        </linearGradient>
        <path d="M18.2694244,1.24482891 C20.4488451,1.24482891 22.5319932,1.65702101 24.4451637,2.40770035 C24.4920274,2.42608848 24.5620923,2.45412642 24.6553583,2.49181418 L24.6553583,2.49181418 L17.05196,24.0448289 L9.69274605,24.0454155 C8.67304316,24.0454155 8.44653729,24.7224249 8.42551923,25.4064082 L8.42381811,25.5203551 L8.42381811,28.1809219 L4.64244606,28.1813826 C2.57606024,25.3764324 1.35496004,21.9104645 1.35496004,18.1592933 C1.35496004,8.81769257 8.9278237,1.24482891 18.2694244,1.24482891 Z" id="path-8"></path>
        <filter x="-2.1%" y="-1.9%" width="104.3%" height="103.7%" filterUnits="objectBoundingBox" id="filter-9">
            <feOffset dx="0" dy="1" in="SourceAlpha" result="shadowOffsetInner1"></feOffset>
            <feComposite in="shadowOffsetInner1" in2="SourceAlpha" operator="arithmetic" k2="-1" k3="1" result="shadowInnerInner1"></feComposite>
            <feColorMatrix values="0 0 0 0 0   0 0 0 0 0   0 0 0 0 0  0 0 0 0.5 0" type="matrix" in="shadowInnerInner1"></feColorMatrix>
        </filter>
        <linearGradient x1="50%" y1="0%" x2="50%" y2="100%" id="linearGradient-10">
            <stop stop-color="#FAFAFA" offset="20.5315667%"></stop>
            <stop stop-color="#D8D8D8" offset="77.5258657%"></stop>
        </linearGradient>
        <linearGradient x1="50%" y1="0%" x2="50%" y2="100%" id="linearGradient-11">
            <stop stop-color="#FD9D00" offset="0%"></stop>
            <stop stop-color="#FA6400" offset="100%"></stop>
        </linearGradient>
        <linearGradient x1="50%" y1="0%" x2="50%" y2="70.8984375%" id="linearGradient-12">
            <stop stop-color="#FFFFFF" stop-opacity="0" offset="0%"></stop>
            <stop stop-color="#FFFFFF" offset="100%"></stop>
        </linearGradient>
        <linearGradient x1="50%" y1="0%" x2="50%" y2="70.8984375%" id="linearGradient-13">
            <stop stop-color="#FFFFFF" offset="0%"></stop>
            <stop stop-color="#FFFFFF" stop-opacity="0" offset="100%"></stop>
        </linearGradient>
    </defs>
    <g id="Page-1" stroke="none" stroke-width="1" fill="none" fill-rule="evenodd">
        <g id="Odometer-and-Service-Records" transform="translate(0.000000, 1.000000)">
            <g id="Group-49" transform="translate(4.000000, 4.000000)">
                <g id="Group-13" opacity="0.66">
                    <g id="Oval-Copy-209">
                        <use fill="black" fill-opacity="1" filter="url(#filter-2)" xlink:href="#path-1"></use>
                        <use fill-opacity="0.45" fill="#B100D9" fill-rule="evenodd" xlink:href="#path-1"></use>
                    </g>
                    <path d="M27.5,49.9019608 C35.2022444,49.9019608 42.0005667,46.0318102 46.0564133,40.1300629 C48.5440619,36.5102331 50,32.1261232 50,27.4019608 C50,14.9755539 39.9264069,4.90196078 27.5,4.90196078 C15.0735931,4.90196078 5,14.9755539 5,27.4019608 C5,32.138975 6.46387044,36.5340839 8.96391206,40.1595883 C13.0221228,46.0447147 19.8106073,49.9019608 27.5,49.9019608 Z" id="Oval-Copy-216" fill-opacity="0.5" fill="#7A027F"></path>
                </g>
                <path d="M27,26 C35.6288969,26 43.2760094,30.2035189 48.0053229,36.674542 C47.4570088,37.8878594 46.8031992,39.043399 46.0564133,40.1300629 C42.0005667,46.0318102 35.2022444,49.9019608 27.5,49.9019608 C19.8106073,49.9019608 13.0221228,46.0447147 8.96391206,40.1595883 C8.03782864,38.8166029 7.25392481,37.3680152 6.63393995,35.8355645 C11.3974479,29.8424732 18.7499951,26 27,26 Z" id="Combined-Shape" fill="#B835C1" opacity="0.5"></path>
                <g id="Group-14" transform="translate(5.500000, 3.500000)">
                    <g id="Group-14-Copy-6" filter="url(#filter-3)" transform="translate(0.913926, 0.731141)">
                        <circle id="Oval-Copy-57" fill="#52555B" cx="22.8393114" cy="38.6692456" r="3.41199226"></circle>
                        <g id="Group-7-Copy-15" transform="translate(2.936023, 0.000000)">
                            <path d="M18.1972921,1.61624421e-14 C28.247379,1.61624421e-14 36.3945841,8.14720517 36.3945841,18.1972921 C36.3945841,22.4197812 34.9564278,26.3063708 32.5432224,29.3939539 L3.85136171,29.3939539 C1.43815631,26.3063708 0,22.4197812 0,18.1972921 C0,8.14720517 8.14720517,1.61624421e-14 18.1972921,1.61624421e-14 Z" id="Combined-Shape" fill="#5107D2"></path>
                            <path d="M18.1972921,1.61624421e-14 L18.197,29.393 L3.85104769,29.3935679 C1.5016613,26.38745 0.0765179675,22.6240083 0.00299129167,18.5306018 L0,18.1972921 C0,8.17793108 8.09746479,0.0498343237 18.1051679,1.61624421e-14 L18.1051679,1.61624421e-14 L18.1972921,1.61624421e-14 Z" id="Combined-Shape" fill="url(#linearGradient-4)"></path>
                            <g id="Combined-Shape-Copy-2">
                                <use fill="#ECECEC" fill-rule="evenodd" xlink:href="#path-5"></use>
                                <use fill="black" fill-opacity="1" filter="url(#filter-6)" xlink:href="#path-5"></use>
                            </g>
                            <g id="Combined-Shape-Copy-2">
                                <use fill="url(#linearGradient-7)" fill-rule="evenodd" xlink:href="#path-8"></use>
                                <use fill="black" fill-opacity="1" filter="url(#filter-9)" xlink:href="#path-8"></use>
                            </g>
                            <path d="M18.1534775,19.8321934 C17.6634183,19.8321934 17.2197529,20.0308292 16.8986023,20.3519798 C16.5774517,20.6731303 16.378816,21.1167957 16.378816,21.606855 C16.378816,22.0969142 16.5774517,22.5405796 16.8986023,22.8617301 C17.2197529,23.1828807 17.6634183,23.3815165 18.1534775,23.3815165 C18.6435367,23.3815165 19.0872021,23.1828807 19.4083527,22.8617301 C19.7295032,22.5405796 19.928139,22.0969142 19.928139,21.606855 C19.928139,21.1167957 19.7295032,20.6731303 19.4083527,20.3519798 C19.0872021,20.0308292 18.6435367,19.8321934 18.1534775,19.8321934 Z" id="Oval-Copy-15" stroke="#414141" fill="#E50000"></path>
                            <line x1="25.6594092" y1="13.4554962" x2="18.1534775" y2="21.606855" id="Path-15-Copy" stroke="#E74C3C" stroke-linecap="round" stroke-linejoin="round"></line>
                            <line x1="18.1972921" y1="3.92866529" x2="18.1972921" y2="5.76436482" id="Path-16-Copy-2" stroke="#414141" stroke-linecap="round" stroke-linejoin="round"></line>
                            <line x1="22.7457443" y1="4.73068014" x2="22.7457443" y2="6.56637967" id="Path-16-Copy-3" stroke="#414141" stroke-linecap="round" stroke-linejoin="round" transform="translate(22.745744, 5.648530) rotate(20.000000) translate(-22.745744, -5.648530) "></line>
                            <line x1="26.7455861" y1="7.03998986" x2="26.7455861" y2="8.8756894" id="Path-16-Copy-4" stroke="#414141" stroke-linecap="round" stroke-linejoin="round" transform="translate(26.745586, 7.957840) rotate(40.000000) translate(-26.745586, -7.957840) "></line>
                            <line x1="29.7143774" y1="10.5780576" x2="29.7143774" y2="12.4137572" id="Path-16-Copy-5" stroke="#414141" stroke-linecap="round" stroke-linejoin="round" transform="translate(29.714377, 11.495907) rotate(60.000000) translate(-29.714377, -11.495907) "></line>
                            <line x1="6.67599677" y1="23.8792729" x2="6.67599677" y2="25.7149724" id="Path-16-Copy-6" stroke="#F4F4F4" stroke-linecap="round" stroke-linejoin="round" transform="translate(6.675997, 24.797123) rotate(60.000000) translate(-6.675997, -24.797123) "></line>
                            <line x1="31.3323466" y1="15.1470617" x2="31.3323466" y2="16.9827612" id="Path-16-Copy-7" stroke="#414141" stroke-linecap="round" stroke-linejoin="round" transform="translate(31.332347, 16.064911) rotate(81.000000) translate(-31.332347, -16.064911) "></line>
                            <line x1="5.05743614" y1="19.3085987" x2="5.05743614" y2="21.1442982" id="Path-16-Copy-8" stroke="#414141" stroke-linecap="round" stroke-linejoin="round" transform="translate(5.057436, 20.226448) rotate(81.000000) translate(-5.057436, -20.226448) "></line>
                            <line x1="31.2940383" y1="19.5367597" x2="31.2940383" y2="21.3724592" id="Path-16-Copy-9" stroke="#414141" stroke-linecap="round" stroke-linejoin="round" transform="translate(31.294038, 20.454609) rotate(100.000000) translate(-31.294038, -20.454609) "></line>
                            <line x1="5.09575846" y1="14.9172961" x2="5.09575846" y2="16.7529956" id="Path-16-Copy-10" stroke="#414141" stroke-linecap="round" stroke-linejoin="round" transform="translate(5.095758, 15.835146) rotate(100.000000) translate(-5.095758, -15.835146) "></line>
                            <line x1="29.7143774" y1="23.8768423" x2="29.7143774" y2="25.7125418" id="Path-16-Copy-11" stroke="#414141" stroke-linecap="round" stroke-linejoin="round" transform="translate(29.714377, 24.794692) rotate(120.000000) translate(-29.714377, -24.794692) "></line>
                            <line x1="6.67599677" y1="10.575627" x2="6.67599677" y2="12.4113265" id="Path-16-Copy-12" stroke="#414141" stroke-linecap="round" stroke-linejoin="round" transform="translate(6.675997, 11.493477) rotate(120.000000) translate(-6.675997, -11.493477) "></line>
                            <line x1="9.64587333" y1="7.03626594" x2="9.64587333" y2="8.87196548" id="Path-16-Copy-13" stroke="#414141" stroke-linecap="round" stroke-linejoin="round" transform="translate(9.645873, 7.954116) rotate(140.000000) translate(-9.645873, -7.954116) "></line>
                            <line x1="13.6471772" y1="4.72611208" x2="13.6471772" y2="6.56181162" id="Path-16-Copy-14" stroke="#414141" stroke-linecap="round" stroke-linejoin="round" transform="translate(13.647177, 5.643962) rotate(160.000000) translate(-13.647177, -5.643962) "></line>
                            <path d="M26.430295,26.0395577 L9.70254224,26.2895577 L9.95254224,30.5906844 L26.680295,30.3406844 L26.430295,26.0395577 Z" id="Rectangle-Copy" stroke="url(#linearGradient-11)" fill="url(#linearGradient-10)"></path>
                            <g id="Group-8-Copy" transform="translate(11.079138, 27.678153)" stroke="#111111" stroke-linecap="round" stroke-linejoin="round">
                                <line x1="13.574217" y1="0.042104087" x2="13.574217" y2="1.09522667" id="Path-17"></line>
                                <line x1="10.9343155" y1="0.042104087" x2="10.9343155" y2="1.09522667" id="Path-17-Copy"></line>
                                <line x1="8.30767783" y1="0.042104087" x2="8.30767783" y2="1.09522667" id="Path-17-Copy-2"></line>
                                <line x1="5.80171426" y1="0.042104087" x2="5.80171426" y2="1.09522667" id="Path-17-Copy-2"></line>
                                <line x1="3.12939594" y1="0.042104087" x2="3.12939594" y2="1.09522667" id="Path-17-Copy-2"></line>
                                <line x1="0.568665377" y1="0.042104087" x2="0.568665377" y2="1.09522667" id="Path-17-Copy-2"></line>
                            </g>
                        </g>
                        <circle id="Oval-Copy-58" fill="#F4F4F4" opacity="0.85" cx="10.3286731" cy="28.4332689" r="3.41199226"></circle>
                        <circle id="Oval-Copy-59" fill="#F4F4F4" opacity="0.854120164" cx="23.0656638" cy="39.1810445" r="2.27466151"></circle>
                        <g id="Group-5-Copy-40" transform="translate(15.832542, 31.845261)">
                            <path d="M7.00676983,11.5793844 C9.51929155,11.5793844 11.5560928,9.54258311 11.5560928,7.03006139 C11.5560928,4.51753967 9.51929155,2.48073837 7.00676983,2.48073837 C4.4942481,2.48073837 2.45744681,4.51753967 2.45744681,7.03006139 C2.45744681,9.54258311 4.4942481,11.5793844 7.00676983,11.5793844 Z" id="Oval-Copy" stroke="#6A6E77" stroke-width="2.3"></path>
                            <g id="Group-Copy-2" transform="translate(7.295946, 7.435733) rotate(45.000000) translate(-7.295946, -7.435733) translate(5.864128, 0.276642)" fill="#D8D8D8" stroke="#414141">
                                <rect id="Rectangle" x="0.5" y="0.5" width="1.27466151" height="2.41199226" rx="0.5"></rect>
                                <rect id="Rectangle" x="0.5" y="11.3046422" width="1.27466151" height="2.41199226" rx="0.5"></rect>
                            </g>
                            <g id="Group-Copy-3" transform="translate(6.549175, 7.435733) scale(-1, 1) rotate(45.000000) translate(-6.549175, -7.435733) translate(5.117357, 0.276642)" fill="#D8D8D8" stroke="#414141">
                                <rect id="Rectangle" x="0.5" y="0.5" width="1.27466151" height="2.41199226" rx="0.5"></rect>
                                <rect id="Rectangle" x="0.5" y="11.3046422" width="1.27466151" height="2.41199226" rx="0.5"></rect>
                            </g>
                            <g id="Group-Copy" transform="translate(5.785230, 0.000000)" fill="#414141" stroke="#414141">
                                <rect id="Rectangle" x="0.5" y="0.5" width="1.27466151" height="2.41199226" rx="0.5"></rect>
                                <rect id="Rectangle" x="0.5" y="11.3046422" width="1.27466151" height="2.41199226" rx="0.5"></rect>
                            </g>
                            <g id="Group-Copy-4" transform="translate(7.156120, 7.687137) rotate(90.000000) translate(-7.156120, -7.687137) translate(5.724301, 0.528046)" fill="#D8D8D8" stroke="#414141">
                                <rect id="Rectangle" x="0.5" y="0.5" width="1.27466151" height="2.41199226" rx="0.5"></rect>
                                <rect id="Rectangle" x="0.5" y="11.3046422" width="1.27466151" height="2.41199226" rx="0.5"></rect>
                            </g>
                            <path d="M7.00676983,11.5793844 C9.51929155,11.5793844 11.5560928,9.54258311 11.5560928,7.03006139 C11.5560928,4.51753967 9.51929155,2.48073837 7.00676983,2.48073837 C4.4942481,2.48073837 2.45744681,4.51753967 2.45744681,7.03006139 C2.45744681,9.54258311 4.4942481,11.5793844 7.00676983,11.5793844 Z" id="Oval-Copy" stroke="#414141" stroke-width="2"></path>
                            <path d="M7.00676983,11.5793844 C9.51929155,11.5793844 11.5560928,9.54258311 11.5560928,7.03006139 C11.5560928,4.51753967 9.51929155,2.48073837 7.00676983,2.48073837 C4.4942481,2.48073837 2.45744681,4.51753967 2.45744681,7.03006139 C2.45744681,9.54258311 4.4942481,11.5793844 7.00676983,11.5793844 Z" id="Oval-Copy" stroke="url(#linearGradient-12)" stroke-width="0.5" opacity="0.25"></path>
                            <path d="M7.00676983,10.4420537 C8.89116112,10.4420537 10.4187621,8.91445268 10.4187621,7.03006139 C10.4187621,5.1456701 8.89116112,3.61806913 7.00676983,3.61806913 C5.12237853,3.61806913 3.59477756,5.1456701 3.59477756,7.03006139 C3.59477756,8.91445268 5.12237853,10.4420537 7.00676983,10.4420537 Z" id="Oval-Copy" stroke="#B3B7BB" stroke-width="1.5"></path>
                            <path d="M7.00676983,10.4420537 C8.89116112,10.4420537 10.4187621,8.91445268 10.4187621,7.03006139 C10.4187621,5.1456701 8.89116112,3.61806913 7.00676983,3.61806913 C5.12237853,3.61806913 3.59477756,5.1456701 3.59477756,7.03006139 C3.59477756,8.91445268 5.12237853,10.4420537 7.00676983,10.4420537 Z" id="Oval-Copy" stroke="url(#linearGradient-12)" stroke-width="0.5" opacity="0.5"></path>
                        </g>
                        <polygon id="Path-18-Copy" fill="url(#linearGradient-13)" points="28.9853022 26.6817208 28.9853022 29.961113 14.1642546 29.961113"></polygon>
                        <g id="Group-12-Copy-2" transform="translate(10.513232, 28.676754) rotate(63.000000) translate(-10.513232, -28.676754) translate(3.354141, 21.517663)">
                            <circle id="Oval-Copy-54" fill="#52555B" cx="7.00676983" cy="6.82398453" r="3.41199226"></circle>
                            <circle id="Oval-Copy-54" fill="#F4F4F4" cx="7.23312221" cy="7.33578337" r="2.27466151"></circle>
                            <g id="Group-5-Copy-37" transform="translate(0.000000, 0.000000)">
                                <path d="M7.00676983,11.5793844 C9.51929155,11.5793844 11.5560928,9.54258311 11.5560928,7.03006139 C11.5560928,4.51753967 9.51929155,2.48073837 7.00676983,2.48073837 C4.4942481,2.48073837 2.45744681,4.51753967 2.45744681,7.03006139 C2.45744681,9.54258311 4.4942481,11.5793844 7.00676983,11.5793844 Z" id="Oval-Copy" stroke="#6A6E77" stroke-width="2.3"></path>
                                <g id="Group-Copy-2" transform="translate(7.295946, 7.435733) rotate(45.000000) translate(-7.295946, -7.435733) translate(5.864128, 0.276642)" fill="#D8D8D8" stroke="#414141">
                                    <rect id="Rectangle" x="0.5" y="0.5" width="1.27466151" height="2.41199226" rx="0.5"></rect>
                                    <rect id="Rectangle" x="0.5" y="11.3046422" width="1.27466151" height="2.41199226" rx="0.5"></rect>
                                </g>
                                <g id="Group-Copy-3" transform="translate(6.549175, 7.435733) scale(-1, 1) rotate(45.000000) translate(-6.549175, -7.435733) translate(5.117357, 0.276642)" fill="#D8D8D8" stroke="#414141">
                                    <rect id="Rectangle" x="0.5" y="0.5" width="1.27466151" height="2.41199226" rx="0.5"></rect>
                                    <rect id="Rectangle" x="0.5" y="11.3046422" width="1.27466151" height="2.41199226" rx="0.5"></rect>
                                </g>
                                <g id="Group-Copy" transform="translate(5.785230, 0.000000)" fill="#414141" stroke="#414141">
                                    <rect id="Rectangle" x="0.5" y="0.5" width="1.27466151" height="2.41199226" rx="0.5"></rect>
                                    <rect id="Rectangle" x="0.5" y="11.3046422" width="1.27466151" height="2.41199226" rx="0.5"></rect>
                                </g>
                                <g id="Group-Copy-4" transform="translate(7.156120, 7.687137) rotate(90.000000) translate(-7.156120, -7.687137) translate(5.724301, 0.528046)" fill="#D8D8D8" stroke="#414141">
                                    <rect id="Rectangle" x="0.5" y="0.5" width="1.27466151" height="2.41199226" rx="0.5"></rect>
                                    <rect id="Rectangle" x="0.5" y="11.3046422" width="1.27466151" height="2.41199226" rx="0.5"></rect>
                                </g>
                                <path d="M7.00676983,11.5793844 C9.51929155,11.5793844 11.5560928,9.54258311 11.5560928,7.03006139 C11.5560928,4.51753967 9.51929155,2.48073837 7.00676983,2.48073837 C4.4942481,2.48073837 2.45744681,4.51753967 2.45744681,7.03006139 C2.45744681,9.54258311 4.4942481,11.5793844 7.00676983,11.5793844 Z" id="Oval-Copy" stroke="#414141" stroke-width="2"></path>
                                <path d="M7.00676983,11.5793844 C9.51929155,11.5793844 11.5560928,9.54258311 11.5560928,7.03006139 C11.5560928,4.51753967 9.51929155,2.48073837 7.00676983,2.48073837 C4.4942481,2.48073837 2.45744681,4.51753967 2.45744681,7.03006139 C2.45744681,9.54258311 4.4942481,11.5793844 7.00676983,11.5793844 Z" id="Oval-Copy" stroke="url(#linearGradient-12)" stroke-width="0.5" opacity="0.25"></path>
                                <path d="M7.00676983,10.4420537 C8.89116112,10.4420537 10.4187621,8.91445268 10.4187621,7.03006139 C10.4187621,5.1456701 8.89116112,3.61806913 7.00676983,3.61806913 C5.12237853,3.61806913 3.59477756,5.1456701 3.59477756,7.03006139 C3.59477756,8.91445268 5.12237853,10.4420537 7.00676983,10.4420537 Z" id="Oval-Copy" stroke="#B3B7BB" stroke-width="1.5"></path>
                                <path d="M7.00676983,10.4420537 C8.89116112,10.4420537 10.4187621,8.91445268 10.4187621,7.03006139 C10.4187621,5.1456701 8.89116112,3.61806913 7.00676983,3.61806913 C5.12237853,3.61806913 3.59477756,5.1456701 3.59477756,7.03006139 C3.59477756,8.91445268 5.12237853,10.4420537 7.00676983,10.4420537 Z" id="Oval-Copy" stroke="url(#linearGradient-12)" stroke-width="0.5" opacity="0.5"></path>
                            </g>
                        </g>
                    </g>
                </g>
            </g>
        </g>
    </g>
</svg>