<?xml version="1.0" encoding="UTF-8"?>
<svg width="63px" height="65px" viewBox="0 0 63 65" version="1.1" xmlns="http://www.w3.org/2000/svg" xmlns:xlink="http://www.w3.org/1999/xlink">
    <title>Read-Report@1x</title>
    <defs>
        <circle id="path-1" cx="27.5" cy="27.5" r="27.5"></circle>
        <filter x="-12.7%" y="-9.1%" width="125.5%" height="125.5%" filterUnits="objectBoundingBox" id="filter-2">
            <feOffset dx="0" dy="2" in="SourceAlpha" result="shadowOffsetOuter1"></feOffset>
            <feGaussianBlur stdDeviation="2" in="shadowOffsetOuter1" result="shadowBlurOuter1"></feGaussianBlur>
            <feComposite in="shadowBlurOuter1" in2="SourceAlpha" operator="out" result="shadowBlurOuter1"></feComposite>
            <feColorMatrix values="0 0 0 0 0   0 0 0 0 0   0 0 0 0 0  0 0 0 0.108173077 0" type="matrix" in="shadowBlurOuter1"></feColorMatrix>
        </filter>
        <filter x="-42.9%" y="-32.2%" width="188.1%" height="166.3%" filterUnits="objectBoundingBox" id="filter-3">
            <feOffset dx="0" dy="2" in="SourceAlpha" result="shadowOffsetOuter1"></feOffset>
            <feGaussianBlur stdDeviation="2" in="shadowOffsetOuter1" result="shadowBlurOuter1"></feGaussianBlur>
            <feColorMatrix values="0 0 0 0 0   0 0 0 0 0   0 0 0 0 0  0 0 0 0.154665647 0" type="matrix" in="shadowBlurOuter1" result="shadowMatrixOuter1"></feColorMatrix>
            <feMerge>
                <feMergeNode in="shadowMatrixOuter1"></feMergeNode>
                <feMergeNode in="SourceGraphic"></feMergeNode>
            </feMerge>
        </filter>
        <linearGradient x1="50%" y1="0%" x2="50%" y2="70.8984375%" id="linearGradient-4">
            <stop stop-color="#FFFFFF" offset="0%"></stop>
            <stop stop-color="#FFFFFF" stop-opacity="0" offset="100%"></stop>
        </linearGradient>
        <linearGradient x1="50%" y1="0%" x2="50%" y2="70.8984375%" id="linearGradient-5">
            <stop stop-color="#FFFFFF" stop-opacity="0" offset="0%"></stop>
            <stop stop-color="#FFFFFF" offset="100%"></stop>
        </linearGradient>
        <linearGradient x1="50%" y1="0%" x2="50%" y2="99.9630524%" id="linearGradient-6">
            <stop stop-color="#BE84FF" offset="0%"></stop>
            <stop stop-color="#894CFF" offset="99.9815245%"></stop>
        </linearGradient>
        <linearGradient x1="50%" y1="0%" x2="50%" y2="100%" id="linearGradient-7">
            <stop stop-color="#FDE500" offset="0%"></stop>
            <stop stop-color="#FBC600" offset="100%"></stop>
        </linearGradient>
        <linearGradient x1="50%" y1="0%" x2="50%" y2="70.8984375%" id="linearGradient-8">
            <stop stop-color="#FFFFFF" offset="0%"></stop>
            <stop stop-color="#FFFFFF" stop-opacity="0" offset="100%"></stop>
        </linearGradient>
        <linearGradient x1="50%" y1="0%" x2="50%" y2="99.9630524%" id="linearGradient-9">
            <stop stop-color="#BE84FF" offset="0%"></stop>
            <stop stop-color="#894CFF" offset="99.9815245%"></stop>
        </linearGradient>
    </defs>
    <g id="Page-1" stroke="none" stroke-width="1" fill="none" fill-rule="evenodd">
        <g id="Read-Report">
            <g id="Group-18" transform="translate(4.000000, 4.000000)">
                <g id="Oval-Copy-194">
                    <use fill="black" fill-opacity="1" filter="url(#filter-2)" xlink:href="#path-1"></use>
                    <use fill-opacity="0.4" fill="#4B2DFF" fill-rule="evenodd" xlink:href="#path-1"></use>
                </g>
                <path d="M27.5,49.9019608 C35.2022444,49.9019608 42.0005667,46.0318102 46.0564133,40.1300629 C48.5440619,36.5102331 50,32.1261232 50,27.4019608 C50,14.9755539 39.9264069,4.90196078 27.5,4.90196078 C15.0735931,4.90196078 5,14.9755539 5,27.4019608 C5,32.138975 6.46387044,36.5340839 8.96391206,40.1595883 C13.0221228,46.0447147 19.8106073,49.9019608 27.5,49.9019608 Z" id="Oval-Copy-200" fill-opacity="0.5" fill="#4B2DFF"></path>
                <path d="M27.5,49.9019608 C35.2022444,49.9019608 42.0005667,46.0318102 46.0564133,40.1300629 C48.5440619,36.5102331 50,32.1261232 50,27.4019608 C50,18.8349505 45.2120253,11.3862316 38.1660281,7.58575621 C38.1234433,7.5627868 38.0593812,7.52863315 37.9738417,7.48329527 L12.5090668,44.1808702 C12.6008036,44.262386 12.6697942,44.3233143 12.7160385,44.3636549 C16.6699437,47.8127934 21.8409963,49.9019608 27.5,49.9019608 Z" id="Oval-Copy-200" fill-opacity="0.5" fill="#4B2DFF"></path>
                <g id="Group-14-Copy-4" filter="url(#filter-3)" transform="translate(12.500000, 8.750000)">
                    <g id="Group-8-Copy-16" transform="translate(16.896890, 20.392798) scale(-1, -1) translate(-16.896890, -20.392798) translate(3.495908, 3.495908)">
                        <polygon id="Path-10-Copy-13" fill="#F4F4F4" points="0.452532439 0.74806239 0.452532439 32.6563864 25.3902472 32.6563864 25.3902472 6.23127163 19.6992409 0.506926577"></polygon>
                        <polygon id="Path-3-Copy-18" fill="#5A5F67" opacity="0.0774414063" points="25.3902472 6.23127163 19.6992409 6.23127163 2.11665278 32.6563864 0.452532439 32.1106543 24.8728663 32.6563864 25.3902472 32.1106543"></polygon>
                        <polygon id="Path-9-Copy-15" fill="#B3B7BB" points="19.6003616 6.23127163 19.7850006 6.41329045 25.2314255 11.4834071 25.2314255 6.23127163"></polygon>
                        <path d="M19.7132908,0.5 L0.5,1 L1,32.6463899 L25.3956171,32.1463899 L25.3956171,6.15197012 L19.7132908,0.5 Z" id="Rectangle-Copy-33" stroke="#DCDCDD"></path>
                        <path d="M19.6992409,0.506926577 C19.6992409,3.21093777 19.6992409,4.7669587 19.6992409,5.17498936 C19.6992409,5.78703536 20.2290825,6.23127163 20.7294725,6.23127163 C21.0630658,6.23127163 22.6378046,6.23127163 25.4536889,6.23127163" id="Path-Copy-18" stroke="#DCDCDD"></path>
                        <g id="Group-5-Copy-3" transform="translate(11.394072, 2.622762)" stroke="#DCDCDD" stroke-linecap="round" stroke-linejoin="round">
                            <line x1="8.28582161" y1="0.635619692" x2="2.64777286" y2="0.635619692" id="Path-8-Copy-26"></line>
                            <line x1="1.03192776" y1="0.635619692" x2="0.00389692132" y2="0.635619692" id="Path-8-Copy-27"></line>
                        </g>
                        <g id="Group-4-Copy-3" transform="translate(4.208038, 31.204219) scale(-1, 1) translate(-4.208038, -31.204219) translate(0.129478, 30.038916)" stroke="#DCDCDD" stroke-linecap="round" stroke-linejoin="round">
                            <line x1="7.66953183" y1="0.635619692" x2="2.64777286" y2="0.635619692" id="Path-8-Copy-28"></line>
                            <line x1="1.03192776" y1="0.635619692" x2="0.00389692132" y2="0.635619692" id="Path-8-Copy-29"></line>
                        </g>
                    </g>
                    <g id="Group-8-Copy-17">
                        <line x1="25.4536889" y1="6.23127163" x2="19.6992409" y2="0.506926577" id="Path-2-Copy-18" stroke="#CFCFD1"></line>
                        <polygon id="Path-10-Copy-13" fill="#F4F4F4" points="0.452532439 0.74806239 0.452532439 32.6563864 25.3902472 32.6563864 25.3902472 6.23127163 19.6992409 0.506926577"></polygon>
                        <polygon id="Path-3-Copy-18" fill="url(#linearGradient-4)" opacity="0.685965402" points="25.3902472 6.23127163 19.6992409 6.23127163 2.11665278 32.6563864 0.452532439 32.1106543 24.8728663 32.6563864 25.3902472 32.1106543"></polygon>
                        <polygon id="Path-9-Copy-15" fill="#5A5F67" opacity="0.188081287" points="19.6003616 6.23127163 19.7850006 6.41329045 25.2314255 11.4834071 25.2314255 6.23127163"></polygon>
                        <path d="M19.7132908,0.5 L0.5,1 L1,32.6463899 L25.3956171,32.1463899 L25.3956171,6.15197012 L19.7132908,0.5 Z" id="Rectangle-Copy-33" stroke="#CFCFD1"></path>
                        <path d="M19.6992409,0.506926577 C19.6992409,3.21093777 19.6992409,4.7669587 19.6992409,5.17498936 C19.6992409,5.78703536 20.2290825,6.23127163 20.7294725,6.23127163 C21.0630658,6.23127163 22.6378046,6.23127163 25.4536889,6.23127163" id="Path-Copy-18" stroke="#CFCFD1"></path>
                        <g id="Group-5-Copy-3" opacity="0.514880952" transform="translate(11.394072, 2.622762)" stroke="#CFCFD1" stroke-linecap="round" stroke-linejoin="round">
                            <line x1="8.28582161" y1="0.635619692" x2="2.64777286" y2="0.635619692" id="Path-8-Copy-26"></line>
                            <line x1="1.03192776" y1="0.635619692" x2="0.00389692132" y2="0.635619692" id="Path-8-Copy-27"></line>
                        </g>
                        <g id="Group-2-Copy-11" opacity="0.558244978" transform="translate(22.776372, 9.958042) scale(1, -1) rotate(90.000000) translate(-22.776372, -9.958042) translate(18.115161, 8.792739)" stroke="#CFCFD1" stroke-linecap="round" stroke-linejoin="round">
                            <path d="M8.26618582,0.635619692 L2.64777286,0.635619692 L8.26618582,0.635619692 Z" id="Path-8-Copy-8"></path>
                            <line x1="1.03192776" y1="0.635619692" x2="0.00389692132" y2="0.635619692" id="Path-8-Copy-9"></line>
                        </g>
                        <polygon id="Path-11" fill="url(#linearGradient-5)" opacity="0.5" points="2.37074291 31.94608 19.6003616 6.47390427 14.5069413 4.66443266 3.67956551 2.62276172 1.22179754 2.62276172 1.22179754 31.94608"></polygon>
                    </g>
                    <g id="Group-4-Copy-13" transform="translate(4.208038, 31.204219) scale(-1, 1) translate(-4.208038, -31.204219) translate(0.129478, 30.038916)" stroke="#CFCFD1" stroke-linecap="round" stroke-linejoin="round">
                        <line x1="7.66953183" y1="0.635619692" x2="2.64777286" y2="0.635619692" id="Path-8-Copy-28"></line>
                        <line x1="1.03192776" y1="0.635619692" x2="0.00389692132" y2="0.635619692" id="Path-8-Copy-29"></line>
                    </g>
                    <g id="Group-3-Copy-9" transform="translate(4.661211, 8.286597)">
                        <circle id="Oval-Copy-4" stroke="url(#linearGradient-6)" cx="8.28659747" cy="8.28659747" r="7.78659747"></circle>
                        <polygon id="Path-5-Copy-11" fill="url(#linearGradient-7)" points="6.04830948 3.62538639 6.04830948 8.29383725 2.90030911 8.29383725 8.32243006 13.629201 13.744551 8.29383725 10.5550513 8.29383725 10.5550513 3.62538639"></polygon>
                        <polygon id="Path-5-Copy-11" fill="url(#linearGradient-8)" opacity="0.5" points="6.04830948 3.62538639 6.04830948 8.29383725 2.90030911 8.29383725 8.32243006 13.629201 8.38440249 3.62538639"></polygon>
                        <polygon id="Path-4-Copy-11" fill="url(#linearGradient-9)" points="13.744551 15.1276283 13.744551 17.2153446 2.90030911 17.2153446 2.90030911 15.1276283"></polygon>
                    </g>
                </g>
            </g>
        </g>
    </g>
</svg>