<?xml version="1.0" encoding="UTF-8"?>
<svg width="63px" height="65px" viewBox="0 0 63 65" version="1.1" xmlns="http://www.w3.org/2000/svg" xmlns:xlink="http://www.w3.org/1999/xlink">
    <title>Registration-and-Ownership@1x</title>
    <defs>
        <circle id="path-1" cx="27.5" cy="27.5" r="27.5"></circle>
        <filter x="-12.7%" y="-9.1%" width="125.5%" height="125.5%" filterUnits="objectBoundingBox" id="filter-2">
            <feOffset dx="0" dy="2" in="SourceAlpha" result="shadowOffsetOuter1"></feOffset>
            <feGaussianBlur stdDeviation="2" in="shadowOffsetOuter1" result="shadowBlurOuter1"></feGaussianBlur>
            <feComposite in="shadowBlurOuter1" in2="SourceAlpha" operator="out" result="shadowBlurOuter1"></feComposite>
            <feColorMatrix values="0 0 0 0 0   0 0 0 0 0   0 0 0 0 0  0 0 0 0.108173077 0" type="matrix" in="shadowBlurOuter1"></feColorMatrix>
        </filter>
        <filter x="-20.0%" y="-17.1%" width="140.0%" height="135.0%" filterUnits="objectBoundingBox" id="filter-3">
            <feOffset dx="0" dy="0" in="SourceAlpha" result="shadowOffsetOuter1"></feOffset>
            <feGaussianBlur stdDeviation="2" in="shadowOffsetOuter1" result="shadowBlurOuter1"></feGaussianBlur>
            <feColorMatrix values="0 0 0 0 0.454594466   0 0 0 0 0.683565444   0 0 0 0 0.56731864  0 0 0 1 0" type="matrix" in="shadowBlurOuter1" result="shadowMatrixOuter1"></feColorMatrix>
            <feMerge>
                <feMergeNode in="shadowMatrixOuter1"></feMergeNode>
                <feMergeNode in="SourceGraphic"></feMergeNode>
            </feMerge>
        </filter>
        <linearGradient x1="50%" y1="0%" x2="50%" y2="100%" id="linearGradient-4">
            <stop stop-color="#FAE500" offset="0%"></stop>
            <stop stop-color="#F4C700" offset="52.2223395%"></stop>
        </linearGradient>
        <linearGradient x1="50%" y1="23.392667%" x2="50%" y2="70.8984375%" id="linearGradient-5">
            <stop stop-color="#FFFFFF" offset="0%"></stop>
            <stop stop-color="#FFFFFF" stop-opacity="0" offset="100%"></stop>
        </linearGradient>
        <linearGradient x1="50%" y1="0%" x2="50%" y2="100%" id="linearGradient-6">
            <stop stop-color="#FFFBE4" offset="0%"></stop>
            <stop stop-color="#F7D533" offset="100%"></stop>
        </linearGradient>
        <linearGradient x1="50%" y1="0%" x2="50%" y2="52.2223395%" id="linearGradient-7">
            <stop stop-color="#FAE500" offset="0%"></stop>
            <stop stop-color="#F4C700" offset="100%"></stop>
        </linearGradient>
        <linearGradient x1="85.4492188%" y1="35.4492188%" x2="14.5507812%" y2="35.4492188%" id="linearGradient-8">
            <stop stop-color="#FFFFFF" stop-opacity="0" offset="0%"></stop>
            <stop stop-color="#FFFFFF" offset="100%"></stop>
        </linearGradient>
        <linearGradient x1="50%" y1="0%" x2="50%" y2="100%" id="linearGradient-9">
            <stop stop-color="#F7D533" offset="0%"></stop>
            <stop stop-color="#FFFBE4" offset="100%"></stop>
        </linearGradient>
        <linearGradient x1="50%" y1="0%" x2="50%" y2="100%" id="linearGradient-10">
            <stop stop-color="#FFF390" offset="0%"></stop>
            <stop stop-color="#FFE257" offset="100%"></stop>
        </linearGradient>
        <linearGradient x1="50%" y1="0%" x2="50%" y2="100%" id="linearGradient-11">
            <stop stop-color="#FFF390" offset="0%"></stop>
            <stop stop-color="#FFE257" offset="100%"></stop>
        </linearGradient>
        <linearGradient x1="50%" y1="0%" x2="50%" y2="100%" id="linearGradient-12">
            <stop stop-color="#FAE500" offset="0%"></stop>
            <stop stop-color="#F4C700" offset="52.2223395%"></stop>
        </linearGradient>
        <linearGradient x1="50%" y1="0%" x2="50%" y2="100%" id="linearGradient-13">
            <stop stop-color="#FFED00" offset="0%"></stop>
            <stop stop-color="#FFD500" offset="100%"></stop>
        </linearGradient>
        <linearGradient x1="50%" y1="0%" x2="50%" y2="100%" id="linearGradient-14">
            <stop stop-color="#FAE500" offset="0%"></stop>
            <stop stop-color="#F4C700" offset="52.2223395%"></stop>
        </linearGradient>
    </defs>
    <g id="Page-1" stroke="none" stroke-width="1" fill="none" fill-rule="evenodd">
        <g id="Registration-and-Ownership">
            <g id="Group-52" transform="translate(4.000000, 4.000000)">
                <g id="Group-44" opacity="0.65">
                    <g id="Oval-Copy-214">
                        <use fill="black" fill-opacity="1" filter="url(#filter-2)" xlink:href="#path-1"></use>
                        <use fill-opacity="0.45" fill="#C2EB2D" fill-rule="evenodd" xlink:href="#path-1"></use>
                    </g>
                    <path d="M27.5,49.9019608 C35.2022444,49.9019608 42.0005667,46.0318102 46.0564133,40.1300629 C48.5440619,36.5102331 50,32.1261232 50,27.4019608 C50,14.9755539 39.9264069,4.90196078 27.5,4.90196078 C15.0735931,4.90196078 5,14.9755539 5,27.4019608 C5,32.138975 6.46387044,36.5340839 8.96391206,40.1595883 C13.0221228,46.0447147 19.8106073,49.9019608 27.5,49.9019608 Z" id="Oval-Copy-222" fill-opacity="0.4" fill="#00A78F" opacity="0.52"></path>
                    <path d="M27.5,49.9019608 C35.2022444,49.9019608 42.0005667,46.0318102 46.0564133,40.1300629 C48.5440619,36.5102331 50,32.1261232 50,27.4019608 C50,25.5083644 49.7660796,23.6694031 49.3255592,21.9123972 C49.3069403,21.8381362 49.2781839,21.7270763 49.2392899,21.5792177 L7.20551898,37.1219186 C7.5651718,37.8276265 7.81913813,38.3094725 7.96741797,38.5674565 C8.63288431,39.7252654 8.99501269,40.2045776 9.0012431,40.2135568 C13.0636767,46.068285 19.8341369,49.9019608 27.5,49.9019608 Z" id="Oval-Copy-222" fill-opacity="0.4" fill="#00A78F" opacity="0.52"></path>
                    <path d="M27.5,4.90196078 C39.9264069,4.90196078 50,14.9755539 50,27.4019608 C50,31.89323 48.6840741,36.0771483 46.4167509,39.5891869 C42.9606297,41.7506298 38.8762179,43 34.5,43 C26.8106073,43 20.0221228,39.1427539 15.9639121,33.2576276 C13.4638704,29.6321231 12,25.2370142 12,20.5 C12,16.0093537 13.315561,11.825973 15.5823058,8.31423517 C19.0382659,6.15166881 23.1231905,4.90196078 27.5,4.90196078 Z" id="Combined-Shape" fill="#00A78F" opacity="0.41"></path>
                </g>
                <g id="Group-17-Copy-2" filter="url(#filter-3)" transform="translate(11.000000, 6.000000)">
                    <rect id="Rectangle-Copy-145" fill="url(#linearGradient-4)" x="1.02439024" y="4.17142857" width="31.6097561" height="37.7142857" rx="1.5"></rect>
                    <rect id="Rectangle-Copy-146" fill="#F4F4F4" x="0" y="3.60714286" width="32.195122" height="37.6071429" rx="1.5"></rect>
                    <rect id="Rectangle-Copy-147" stroke="#F9F9F9" stroke-width="0.75" x="0.375" y="3.98214286" width="31.445122" height="36.8571429" rx="1.5"></rect>
                    <rect id="Rectangle-Copy-148" fill="#FCC500" x="10.9756098" y="4.56777473e-15" width="10.2439024" height="3.60714286" rx="1"></rect>
                    <path d="M16.1638594,4.56777473e-15 L20.2195122,4.56777473e-15 C20.7717969,4.24427706e-15 21.2195122,0.44771525 21.2195122,1 L21.2195122,2.60714286 C21.2195122,3.15942761 20.7717969,3.60714286 20.2195122,3.60714286 L16.1471652,3.60714286 L16.1471652,3.60714286 L16.1638594,4.56777473e-15 Z" id="Rectangle-Copy-149" fill="#FCC500"></path>
                    <path d="M2.67073171,5.89285714 L29.7377135,5.89285714 C30.5661407,5.89285714 31.2377135,6.56443002 31.2377135,7.39285714 L31.2377135,40.0356483 C31.2377135,40.8640755 30.5661407,41.5356483 29.7377135,41.5356483 L2.67073171,41.5356483 C1.84230458,41.5356483 1.17073171,40.8640755 1.17073171,40.0356483 L1.17073171,7.39285714 C1.17073171,6.56443002 1.84230458,5.89285714 2.67073171,5.89285714 Z" id="Rectangle-Copy-150" fill="url(#linearGradient-5)" opacity="0.427687872"></path>
                    <g id="Group-7-Copy-30" transform="translate(4.682927, 6.800000)" stroke="#414141" stroke-linecap="round" stroke-linejoin="round" stroke-width="0.5">
                        <g id="Group-5" transform="translate(0.000000, 0.057143)">
                            <line x1="0.557491289" y1="1.71428571" x2="22.8571429" y2="1.71428571" id="Line"></line>
                            <line x1="0.557491289" y1="0.571428571" x2="9.47735192" y2="0.571428571" id="Line-Copy-4"></line>
                            <line x1="0.557491289" y1="2.85714286" x2="22.8571429" y2="2.85714286" id="Line-Copy-3"></line>
                        </g>
                        <g id="Group-5-Copy" transform="translate(0.000000, 5.771429)">
                            <line x1="0.557491289" y1="1.71428571" x2="22.8571429" y2="1.71428571" id="Line"></line>
                            <line x1="0.557491289" y1="0.571428571" x2="9.47735192" y2="0.571428571" id="Line-Copy-4"></line>
                            <line x1="0.557491289" y1="2.85714286" x2="22.8571429" y2="2.85714286" id="Line-Copy-3"></line>
                        </g>
                        <g id="Group-5-Copy-2" transform="translate(0.000000, 11.485714)">
                            <line x1="0.557491289" y1="1.71428571" x2="22.8571429" y2="1.71428571" id="Line"></line>
                            <line x1="0.557491289" y1="0.571428571" x2="9.47735192" y2="0.571428571" id="Line-Copy-4"></line>
                            <line x1="0.557491289" y1="2.85714286" x2="22.8571429" y2="2.85714286" id="Line-Copy-3"></line>
                        </g>
                        <g id="Group-5-Copy-3" transform="translate(0.000000, 17.200000)">
                            <line x1="0.557491289" y1="1.71428571" x2="22.8571429" y2="1.71428571" id="Line"></line>
                            <line x1="0.557491289" y1="0.571428571" x2="9.47735192" y2="0.571428571" id="Line-Copy-4"></line>
                            <line x1="0.557491289" y1="2.85714286" x2="22.8571429" y2="2.85714286" id="Line-Copy-3"></line>
                        </g>
                        <g id="Group-5-Copy-4" transform="translate(0.000000, 22.914286)">
                            <line x1="0.557491289" y1="1.71428571" x2="22.8571429" y2="1.71428571" id="Line"></line>
                            <line x1="0.557491289" y1="0.571428571" x2="9.47735192" y2="0.571428571" id="Line-Copy-4"></line>
                            <line x1="0.557491289" y1="2.85714286" x2="22.8571429" y2="2.85714286" id="Line-Copy-3"></line>
                        </g>
                        <g id="Group-5-Copy-5" transform="translate(0.000000, 28.628571)">
                            <line x1="0.557491289" y1="1.71428571" x2="22.8571429" y2="1.71428571" id="Line"></line>
                            <line x1="0.557491289" y1="0.571428571" x2="9.47735192" y2="0.571428571" id="Line-Copy-4"></line>
                            <line x1="0.557491289" y1="2.85714286" x2="22.8571429" y2="2.85714286" id="Line-Copy-3"></line>
                        </g>
                    </g>
                    <g id="Group-4-Copy-37" transform="translate(24.171531, 30.980693) rotate(190.000000) translate(-24.171531, -30.980693) translate(11.314389, 17.647360)">
                        <polygon id="Path-5" fill="#D8D8D8" points="14.3048873 23.8424333 13.4146578 25.7198038 11.1773508 25.7198038 10.7926922 24.0116846 9.30500741 22.8626609 9.30500741 21.5252355 7.97140265 20.5769466 7.5536643 18.8695595 6.63414634 18.1827758 9.90232868 16.0685939"></polygon>
                        <g id="Group-3" transform="translate(-0.000000, 0.000000)">
                            <path d="M6.69513124,4.50551807 C5.70028824,4.50551807 4.79911357,4.89827776 4.14698645,5.53487805 C3.49927277,6.16716997 3.09757026,7.04037106 3.09757026,8.00551807 C3.09757026,8.97066508 3.49927277,9.84386617 4.14698645,10.4761581 C4.79911357,11.1127584 5.70028824,11.5055181 6.69513124,11.5055181 C7.68997423,11.5055181 8.59114891,11.1127584 9.24327603,10.4761581 C9.8909897,9.84386617 10.2926922,8.97066508 10.2926922,8.00551807 C10.2926922,7.04037106 9.8909897,6.16716997 9.24327603,5.53487805 C8.59114891,4.89827776 7.68997423,4.50551807 6.69513124,4.50551807 Z" id="Oval-Copy-4" stroke="url(#linearGradient-6)"></path>
                            <path d="M6.69513124,4.25551807 C5.63195463,4.25551807 4.66917217,4.67575554 3.97235227,5.3559845 C3.27773908,6.03405927 2.84757026,6.97065981 2.84757026,8.00551807 C2.84757026,9.04037632 3.27773908,9.97697687 3.97235227,10.6550516 C4.66917217,11.3352806 5.63195463,11.7555181 6.69513124,11.7555181 C7.75830784,11.7555181 8.7210903,11.3352806 9.41791021,10.6550516 C10.1125234,9.97697687 10.5426922,9.04037632 10.5426922,8.00551807 C10.5426922,6.97065981 10.1125234,6.03405927 9.41791021,5.3559845 C8.7210903,4.67575554 7.75830784,4.25551807 6.69513124,4.25551807 Z" id="Oval-Copy-4" stroke="url(#linearGradient-7)" stroke-width="0.5"></path>
                            <path d="M15.843147,0.798748202 L17.0248156,0.809739475 C19.2050796,0.83001917 20.9674755,2.59266703 20.9874435,4.77293389 L21.0529614,11.926697 C21.073193,14.1357434 19.2988081,15.9429302 17.0897617,15.9631618 C17.0651499,15.9633872 17.0405366,15.9633855 17.0159248,15.9631566 L15.8342562,15.9521653 C13.6539922,15.9318856 11.8915963,14.1692377 11.8716283,11.9889709 L11.8061104,4.83520774 C11.7858788,2.62616138 13.5602637,0.818974527 15.7693101,0.798742924 C15.7939219,0.798517517 15.8185352,0.798519276 15.843147,0.798748202 Z" id="Rectangle-Copy-5" fill="#BFBFBF" transform="translate(16.429536, 8.380952) rotate(-65.000000) translate(-16.429536, -8.380952) "></path>
                            <path d="M15.7671205,1.04873334 C14.7361091,1.058216 13.8024924,1.4865172 13.1301192,2.17132013 C12.457746,2.85612306 12.0466163,3.79742772 12.0560999,4.8329182 L12.1216178,11.9866813 C12.1309778,13.0086814 12.5487194,13.9328021 13.2196206,14.6037992 C13.8905218,15.2747963 14.8145827,15.69267 15.8365815,15.7021761 L17.0897796,15.7131618 C18.1229627,15.7036888 19.0565794,15.2753876 19.7289526,14.5905846 C20.4013258,13.9057817 20.8124555,12.964477 20.8029719,11.9289866 L20.737454,4.77522343 C20.728094,3.75322334 20.3103524,2.8291027 19.6394512,2.15810556 C18.96855,1.48710841 18.0444891,1.06923477 17.0224903,1.05972866 L15.7671205,1.04873334 Z" id="Rectangle-Copy-5" stroke="#B3B7BB" stroke-width="0.5" transform="translate(16.429536, 8.380952) rotate(-65.000000) translate(-16.429536, -8.380952) "></path>
                            <path d="M23.1690739,4.1733803 L23.2269825,10.4963004 C23.2472142,12.7053468 21.4728292,14.5125336 19.2637829,14.5327652 C19.2391711,14.5329906 19.2145577,14.5329889 19.189946,14.53276 L18.0082774,14.5217687 C15.8280134,14.501489 14.0656175,12.7388411 14.0456494,10.5585743 L14.0140682,7.11028718 L14.0140682,7.11028718 L23.1690739,4.1733803 Z" id="Rectangle-Copy-5" fill="url(#linearGradient-8)" opacity="0.235653832" transform="translate(18.639183, 9.372019) rotate(-65.000000) translate(-18.639183, -9.372019) "></path>
                            <path d="M6.63738878,4.26956952 C5.48090146,4.26956952 4.43338533,4.72628854 3.67532782,5.46629706 C2.92168376,6.20199721 2.45446195,7.21805544 2.45446195,8.3409981 C2.45446195,9.46394075 2.92168376,10.479999 3.67532782,11.2156991 C4.43338533,11.9557077 5.48090146,12.4124267 6.63738878,12.4124267 C7.79387609,12.4124267 8.84139223,11.9557077 9.59944973,11.2156991 C10.3530938,10.479999 10.8203156,9.46394075 10.8203156,8.3409981 C10.8203156,7.21805544 10.3530938,6.20199721 9.59944973,5.46629706 C8.84139223,4.72628854 7.79387609,4.26956952 6.63738878,4.26956952 Z" id="Oval-Copy-4" stroke="url(#linearGradient-9)"></path>
                            <polygon id="Path-2-Copy-2" stroke="url(#linearGradient-10)" stroke-width="0.4" fill="#FCC500" stroke-linecap="round" stroke-linejoin="round" points="9.34384456 15.4340895 14.3610233 23.7873229 13.2447193 25.9912743 7.35341861 16.4301273"></polygon>
                            <polygon id="Path-3-Copy-2" stroke="url(#linearGradient-11)" stroke-width="0.4" fill="#FCC500" stroke-linecap="round" stroke-linejoin="round" points="13.2447193 25.9912743 11.1354826 25.8018907 10.9189408 24.2141362 9.31696282 22.7539478 9.31696282 21.6668227 7.94608432 20.4754094 7.59495283 18.915943 6.63414634 18.1827758 7.93191911 17.325276"></polygon>
                            <path d="M3.45212061,9.89953241 L9.6534824,9.90325886 C10.1377731,9.90354987 10.5522533,10.2508264 10.6373301,10.7275858 L11.7176302,16.7814495 C11.8146516,17.3251455 11.4525504,17.8445496 10.9088545,17.941571 C10.8473909,17.9525391 10.7850351,17.9577269 10.7226041,17.9570665 L2.59837193,17.8711276 C2.04611808,17.8652859 1.60316358,17.4128599 1.60900537,16.8606061 C1.60946245,16.817396 1.61271987,16.774261 1.61875714,16.7314724 L2.4613274,10.759821 C2.53097829,10.2661758 2.95358595,9.89923284 3.45212061,9.89953241 Z" id="Rectangle-Copy-6" fill="#D8D8D8" transform="translate(6.694676, 13.934423) rotate(-31.000000) translate(-6.694676, -13.934423) "></path>
                        </g>
                    </g>
                    <line x1="2.84506115" y1="3.72693458" x2="29.9715926" y2="3.72693458" id="Path-16-Copy-15" stroke="url(#linearGradient-12)" stroke-width="0.5" stroke-linecap="round" stroke-linejoin="round"></line>
                    <path d="M8.31707317,1.38967561 L23.8780488,1.38967561 C24.4303335,1.38967561 24.8780488,1.83739086 24.8780488,2.38967561 L24.8780488,3.62857143 C24.8780488,4.18085618 24.4303335,4.62857143 23.8780488,4.62857143 L8.31707317,4.62857143 C7.76478842,4.62857143 7.31707317,4.18085618 7.31707317,3.62857143 L7.31707317,2.38967561 C7.31707317,1.83739086 7.76478842,1.38967561 8.31707317,1.38967561 Z" id="Rectangle-Copy-151" fill="#FFD500"></path>
                    <path d="M8.31707317,1.38967561 L16.1365849,1.38967561 L16.1365849,1.38967561 L16.1297827,4.62857143 L8.31707317,4.62857143 C7.76478842,4.62857143 7.31707317,4.18085618 7.31707317,3.62857143 L7.31707317,2.38967561 C7.31707317,1.83739086 7.76478842,1.38967561 8.31707317,1.38967561 Z" id="Rectangle-Copy-152" fill="url(#linearGradient-13)"></path>
                    <path d="M16.097561,4 C16.7441382,4 17.2682927,3.48832543 17.2682927,2.85714286 C17.2682927,2.22596029 16.7441382,1.71428571 16.097561,1.71428571 C15.4509837,1.71428571 14.9268293,2.22596029 14.9268293,2.85714286 C14.9268293,3.48832543 15.4509837,4 16.097561,4 Z" id="Oval-Copy-83" fill="#FAF3A5"></path>
                    <path d="M16.097561,3.72693458 C16.5824939,3.72693458 16.9756098,3.34317865 16.9756098,2.86979172 C16.9756098,2.3964048 16.5824939,2.01264887 16.097561,2.01264887 C15.612628,2.01264887 15.2195122,2.3964048 15.2195122,2.86979172 C15.2195122,3.34317865 15.612628,3.72693458 16.097561,3.72693458 Z" id="Oval-Copy-84" fill="#FFC200"></path>
                    <path d="M35.1430643,33.7627972 C33.6175579,32.0118266 32.0724366,30.9492366 30.5077003,30.5750272 C28.9429641,30.2008178 27.0964133,30.3879225 24.9680482,31.1363413 L27.7337786,35.7440246 C27.9207352,35.9970996 28.147812,36.1629276 28.4150092,36.2415085 C28.6822064,36.3200894 29.013168,36.2813404 29.4078941,36.1252615 L34.6911029,34.0631212 C34.8006368,34.0227166 34.8813778,33.9852548 34.9333258,33.9507359 C34.9852738,33.916217 35.0551866,33.8535707 35.1430643,33.7627972 Z" id="Path-18-Copy-3" fill="#BFBFBF"></path>
                    <path d="M28.6658565,31.9071429 C27.4410356,31.9071429 26.3319117,32.3913397 25.5291614,33.1749768 C24.7286178,33.9564598 24.2329297,35.0359175 24.2329297,36.2285714 C24.2329297,37.4212253 24.7286178,38.500683 25.5291614,39.282166 C26.3319117,40.0658032 27.4410356,40.55 28.6658565,40.55 C29.8906774,40.55 30.9998014,40.0658032 31.8025517,39.282166 C32.6030952,38.500683 33.0987834,37.4212253 33.0987834,36.2285714 C33.0987834,35.0359175 32.6030952,33.9564598 31.8025517,33.1749768 C30.9998014,32.3913397 29.8906774,31.9071429 28.6658565,31.9071429 Z" id="Oval-Copy-85" stroke="url(#linearGradient-14)" stroke-width="0.5"></path>
                    <path d="M28.6658565,33.3 C27.5093692,33.3 26.4618531,33.756719 25.7037956,34.4967275 C24.9501515,35.2324277 24.4829297,36.2484859 24.4829297,37.3714286 C24.4829297,38.4943712 24.9501515,39.5104295 25.7037956,40.2461296 C26.4618531,40.9861381 27.5093692,41.4428571 28.6658565,41.4428571 C29.8223438,41.4428571 30.86986,40.9861381 31.6279175,40.2461296 C32.3815615,39.5104295 32.8487834,38.4943712 32.8487834,37.3714286 C32.8487834,36.2484859 32.3815615,35.2324277 31.6279175,34.4967275 C30.86986,33.756719 29.8223438,33.3 28.6658565,33.3 Z" id="Oval-Copy-86" stroke="url(#linearGradient-9)"></path>
                </g>
            </g>
        </g>
    </g>
</svg>