<svg xmlns="http://www.w3.org/2000/svg" xmlns:xlink="http://www.w3.org/1999/xlink" width="150" height="150" viewBox="0 0 150.993 130.863">
  <defs>
    <linearGradient id="linear-gradient" x1="0.143" y1="0.15" x2="0.746" y2="0.869" gradientUnits="objectBoundingBox">
      <stop offset="0" stop-color="#423f90"/>
      <stop offset="0.913" stop-color="#9a6fac"/>
      <stop offset="1" stop-color="#9d71ad"/>
    </linearGradient>
  </defs>
  <path id="master-mechanic" d="M-1355.965-763.047a2.236,2.236,0,0,0-.533-1.04c-.991-1.035-2.03-2.024-3.1-3.077-1.142,1.142-2.292,2.275-3.415,3.433a1.265,1.265,0,0,0-.187.641,2.286,2.286,0,0,1-2.355,1.947,2.355,2.355,0,0,1-2.242-2.256,2.332,2.332,0,0,1,2-2.339,1.313,1.313,0,0,0,.68-.228c1.135-1.088,2.242-2.2,3.361-3.315-.927-.955-1.792-1.885-2.709-2.759a1.13,1.13,0,0,0-.72-.139h-.115a2.769,2.769,0,0,1-2.6-3.787c.41.462.747.885,1.128,1.262a1.268,1.268,0,0,0,1.887.084,1.255,1.255,0,0,0-.036-1.885c-.373-.393-.812-.722-1.354-1.195,2.136-.585,3.876.712,3.83,2.654a1.5,1.5,0,0,0,.531,1.241c.773.737,1.514,1.507,2.389,2.384.91-.945,1.807-1.846,2.657-2.789a1.251,1.251,0,0,0,.133-.768,2.79,2.79,0,0,1,3.7-2.745c-.394.4-.759.761-1.117,1.131a1.277,1.277,0,0,0-.151,1.933,1.255,1.255,0,0,0,1.926-.056c.2-.184.39-.383.588-.571s.392-.367.6-.563a2.719,2.719,0,0,1-2.493,3.631,1.92,1.92,0,0,0-1.585.706c-.661.749-1.377,1.45-2.164,2.27,1.114,1.085,2.249,2.2,3.408,3.3a1.183,1.183,0,0,0,.625.2,2.267,2.267,0,0,1,2.015,2.365,2.288,2.288,0,0,1-2.17,2.232c-.052,0-.1.006-.156.006A2.36,2.36,0,0,1-1355.965-763.047Zm1.168-.255c.088.408.538.738.734.987.975,0,1.616-.542,1.481-1.266a1.547,1.547,0,0,0-.945-.988.834.834,0,0,0-.214-.028A1.133,1.133,0,0,0-1354.8-763.3Zm-10.816-1.266a1.555,1.555,0,0,0-.966.97,1.122,1.122,0,0,0,1.3,1.252c.406-.1.722-.561.97-.77-.03-.856-.51-1.477-1.1-1.477A.863.863,0,0,0-1365.613-764.568Zm-17.792-3.24c-4.981-.129-8.685-2.63-11.187-6.909-.957-1.635-1.864-3.3-2.771-4.964a.836.836,0,0,0-.857-.5c-1.827.027-3.656.016-5.484.013-.931,0-1.291-.339-1.3-1.278q-.019-4.044,0-8.088c0-.845.382-1.2,1.23-1.2,1.12-.008,2.239,0,3.359,0l82.119,0c.93,0,1.292.337,1.3,1.271q.014,4.01,0,8.02c0,.939-.351,1.27-1.289,1.273-1.828.006-3.656.019-5.484-.008a.945.945,0,0,0-.961.574c-1.107,2-2.125,4.057-3.4,5.939a12.81,12.81,0,0,1-10.933,5.9c-4.866.062-9.734.022-14.6.006a1.451,1.451,0,0,1-.777-.314c-.4-.294-.762-.648-1.2-1.029.613-.6,1.09-1.114,1.627-1.559a1.3,1.3,0,0,1,.769-.157q2.55-.006,5.1,0c2.687,0,5.373,0,8.06-.014a11.6,11.6,0,0,0,10.581-6.383c.526-.927,1.03-1.868,1.594-2.893h-66.043c-.012.045-.047.1-.032.129,1.462,2.824,2.886,5.67,5.767,7.4a11.591,11.591,0,0,0,6.04,1.752c5.324.009,10.648.018,15.971-.014a1.871,1.871,0,0,1,1.656.714,12.769,12.769,0,0,0,.884.933l.163.156c-.438.364-.866.742-1.321,1.085a.989.989,0,0,1-.552.188c-3.6,0-7.2.047-10.8.047C-1378.592-767.727-1381-767.746-1383.406-767.808Zm31.749-17.7a2.372,2.372,0,0,0,2.517,2.609,2.377,2.377,0,0,0,2.648-2.409,2.366,2.366,0,0,0-2.518-2.609h-.087A2.368,2.368,0,0,0-1351.656-785.509Zm6.252-1.206a2.765,2.765,0,0,0,.452,3.219,2.686,2.686,0,0,0,3.269.086l.634.407a2.412,2.412,0,0,0,.213-.634c.028-.63.01-1.262.01-1.98-.661,0-1.248-.022-1.831.017-.128.008-.355.257-.336.355a.623.623,0,0,0,.361.41,3.072,3.072,0,0,0,.8.018,1.386,1.386,0,0,1-1.712,1.091c-.808-.141-1.234-.8-1.162-1.812.071-.99.541-1.588,1.368-1.546a1.71,1.71,0,0,1,1.177.5c.362.483.725.426,1.173.354a1.734,1.734,0,0,0-1.511-1.612,3.7,3.7,0,0,0-.727-.075A2.341,2.341,0,0,0-1345.4-786.715Zm-48.807,1.2a2.325,2.325,0,0,0,2.486,2.61,2.33,2.33,0,0,0,2.636-2.4,2.329,2.329,0,0,0-2.491-2.61h-.083A2.3,2.3,0,0,0-1394.212-785.516Zm59.987,2.527c.377.025.692.05.8-.459.136-.63.522-.784,1.1-.7a2.62,2.62,0,0,0,.615,0,.6.6,0,0,1,.748.51c.139.707.6.758,1.272.564-.6-1.519-1.174-2.982-1.771-4.434-.172-.422-1.129-.493-1.3-.089-.629,1.486-1.213,2.99-1.863,4.607.05,0,.1-.006.149-.006C-1334.39-783-1334.306-782.995-1334.224-782.989Zm-46.063-.683c.154.7.613.806,1.294.6-.6-1.51-1.177-3.013-1.815-4.49-.071-.165-.491-.247-.746-.241a.746.746,0,0,0-.564.329c-.321.678-.58,1.385-.856,2.083-.3.769-.6,1.541-.914,2.347.646.138,1.1.117,1.231-.565a.628.628,0,0,1,.79-.542,4.815,4.815,0,0,0,.887,0q.055,0,.106,0A.54.54,0,0,1-1380.287-783.672Zm51.529-4.094v4.786l.868-.054V-786.5c.5,1.024.893,2.068,1.339,3.088a.814.814,0,0,0,.587.391.7.7,0,0,0,.52-.37c.4-.9.741-1.814,1.111-2.722a6.076,6.076,0,0,1,.3-.542v3.618h.83v-4.715c-1.243-.207-1.239-.205-1.66.84-.352.872-.713,1.74-1.116,2.724-.393-.969-.738-1.811-1.075-2.656-.312-.782-.4-1-.894-1A7.02,7.02,0,0,0-1328.759-787.767Zm-8.8,2.857c.995,0,1.149.152,1.2,1.13.041.856.061.87,1.079.709-.13-.782-.261-1.564-.412-2.474.662-.7.556-2-.411-2.15a22.634,22.634,0,0,0-3.343-.038v4.707h.85c.029-.632.057-1.232.087-1.884h.953Zm-17.236,0c.929,0,1.107.177,1.149,1.114.04.871.081.9,1.069.694-.131-.779-.262-1.561-.412-2.453a1.213,1.213,0,0,0,.3-1.461,1.6,1.6,0,0,0-1.012-.757,30.365,30.365,0,0,0-3.1-.036c0,1.414,0,2.737,0,4.06,0,.816.016.826.961.662v-1.822h1.049Zm-43.615,1.59c0,.108.171.3.267.305,1.084.022,2.169.014,3.305.014l-.06-.809h-2.577v-3.981h-.947C-1398.422-786.269-1398.428-784.792-1398.41-783.316Zm36.881-4.5c-.138.005-.384.211-.386.327-.027,1.476-.017,2.953-.017,4.412.944.156.95.151.951-.67,0-.315,0-.63,0-1.062.7,0,1.293.038,1.88-.009a1.367,1.367,0,0,0,1.252-1.525,1.309,1.309,0,0,0-1.285-1.472c-.373-.018-.747-.026-1.121-.026C-1360.679-787.84-1361.1-787.83-1361.529-787.815Zm-8.42.016c-.017.074-.048.129-.033.158.084.16.18.313.272.469.7,1.192,1.771,2.237,1.5,3.822-.015.089.326.34.489.328s.44-.288.421-.407c-.21-1.254.476-2.171,1.1-3.118.253-.383.487-.778.745-1.194-.793-.243-1.238-.042-1.518.629a10.679,10.679,0,0,1-.728,1.263c-.788-.525-.651-1.989-1.881-1.989A1.986,1.986,0,0,0-1369.949-787.8Zm-4.7.763h1.579v4.014h.922v-3.091c0-.91,0-.936.938-.906.589.019.824-.154.572-.813-1.163,0-2.346.019-3.528-.008h-.041C-1374.758-787.839-1374.816-787.569-1374.648-787.035Zm-13.721-.72c.774,1.563,2.291,2.761,1.8,4.71h1.033c-.572-2.007,1.049-3.176,1.717-4.711a1.055,1.055,0,0,0-1.474.639,15.446,15.446,0,0,1-.788,1.353,13.05,13.05,0,0,1-.863-1.479.82.82,0,0,0-.819-.6A2.948,2.948,0,0,0-1388.369-787.755Zm10.311,4.705h3.482c.054-.766.054-.771-.6-.777s-1.3,0-2,0v-3.962h-.879Zm-13.681-.658a1.558,1.558,0,0,1-1.485-1.771,1.516,1.516,0,0,1,1.618-1.629,1.565,1.565,0,0,1,1.526,1.8,1.537,1.537,0,0,1-1.568,1.6Zm42.665,0a1.559,1.559,0,0,1-1.583-1.75,1.55,1.55,0,0,1,1.618-1.65,1.574,1.574,0,0,1,1.553,1.785,1.564,1.564,0,0,1-1.561,1.615Zm-33.071-1.277.688-1.87.688,1.87Zm49.322-.01.673-1.894.677,1.894Zm-28.123-.622V-787a7.59,7.59,0,0,1,1.562.033c.228.049.479.42.547.689.1.387-.165.647-.577.662-.194.007-.388.009-.586.009C-1360.3-785.611-1360.616-785.616-1360.947-785.616Zm23.676-.089c-.1-.006-.2-.011-.292-.009-1.025.03-1.017-.005-1.007-.768.008-.6.325-.573.638-.544a.928.928,0,0,0,.375-.013c.526.065,1.247-.171,1.232.688-.01.565-.331.655-.691.655C-1337.1-785.694-1337.186-785.7-1337.271-785.7Zm-18.555-.031V-787a10.46,10.46,0,0,1,1.688.03.826.826,0,0,1,.5.632.818.818,0,0,1-.546.574,3.9,3.9,0,0,1-.656.047C-1355.15-785.715-1355.475-785.735-1355.826-785.735Zm51.037-9.371c-2.409-.1-4.514-.845-5.491-3.242a10.108,10.108,0,0,1-.693-3.591c-.075-4.818-.032-9.638-.028-14.457a8.556,8.556,0,0,1,.746-3.73,4.935,4.935,0,0,1,2.981-2.664,8.237,8.237,0,0,1,5.511.043,5.142,5.142,0,0,1,3.234,3.563,19.6,19.6,0,0,1,.4,5.491h-4.067c0-.311.009-.6,0-.882a27.828,27.828,0,0,0-.151-3.138,1.9,1.9,0,0,0-2.133-1.621,1.958,1.958,0,0,0-2.09,1.6,5.764,5.764,0,0,0-.145,1.287q-.014,7.331,0,14.663a5.128,5.128,0,0,0,.04.683,2.032,2.032,0,0,0,2.2,2.042,1.953,1.953,0,0,0,2.215-2c.112-1.247.055-2.509.07-3.764,0-.246,0-.492,0-.821,1.3,0,2.522-.009,3.747.015a.465.465,0,0,1,.3.342,38.309,38.309,0,0,1-.177,5.124c-.509,3.3-2.725,5.061-6.066,5.061Q-1304.59-795.1-1304.789-795.106Zm-77.689-.209a5.331,5.331,0,0,1-4.543-4.889,14.549,14.549,0,0,1-.141-1.978c-.011-4.75-.027-9.5.013-14.25a10.809,10.809,0,0,1,.411-2.828,5.054,5.054,0,0,1,3.722-3.665,8.462,8.462,0,0,1,4.4-.049,5.233,5.233,0,0,1,4.09,4.548,46.9,46.9,0,0,1,.3,4.7h-4.143c0-.268,0-.513,0-.757,0-.868.027-1.738-.02-2.6a2.1,2.1,0,0,0-2.234-2.245,2.1,2.1,0,0,0-2.223,2.255c-.036.637-.02,1.278-.02,1.917q0,6.543,0,13.086c0,.274.005.548.022.821a2.206,2.206,0,0,0,3.248,2.018,2.086,2.086,0,0,0,1.2-2.065c.04-1.163.018-2.329.022-3.494,0-.247,0-.494,0-.808h4.068c-.106,2.2.26,4.367-.406,6.489a5.014,5.014,0,0,1-4.11,3.758,12.441,12.441,0,0,1-2.033.173A9.748,9.748,0,0,1-1382.479-795.315Zm-31.4-.087c-1.068-.055-2.142-.015-3.288-.015q-1.564-9.422-3.116-18.779l-.126.007v18.726h-3.711v-27.4h5.946q1.556,9.529,3.1,19l.154.011c.109-.667.225-1.332.325-2q1.243-8.265,2.478-16.53c.049-.33.129-.536.538-.532,1.8.019,3.607.008,5.492.008.022.262.061.5.061.737q0,13.024.011,26.047c0,.519-.112.733-.679.711-1.112-.043-2.227-.013-3.387-.013V-814.4l-.147-.018c-.172,1.113-.346,2.226-.515,3.339-.749,4.967-1.505,9.933-2.234,14.9-.081.548-.262.776-.794.776Zm86.912-.04c-.156-.005-.378-.347-.439-.569-.976-3.566-1.929-7.139-2.891-10.709q-1.006-3.736-2.022-7.468a1.191,1.191,0,0,0-.33-.6v19.318h-3.832V-822.9h3.928c1.431,0,1.436,0,1.813,1.4q1.924,7.141,3.843,14.282c.028.1.062.205.093.308l.157-.026V-822.9c1.186,0,2.319-.009,3.451.014.119,0,.278.181.338.314a1.235,1.235,0,0,1,.022.474q0,13.088,0,26.178c0,.134-.013.268-.026.5-.635,0-1.267,0-1.9,0C-1325.5-795.412-1326.233-795.418-1326.968-795.442Zm-16.439,0c-.108,0-.271-.317-.3-.5-.213-1.283-.413-2.568-.581-3.858-.062-.478-.247-.645-.742-.633-1.346.035-2.694.03-4.041,0-.465-.009-.681.086-.746.609-.18,1.446-.435,2.882-.666,4.357h-3.916c.2-1.267.38-2.478.573-3.687q1.838-11.492,3.669-22.984c.089-.564.259-.805.891-.785,1.643.052,3.288.035,4.932.008.49-.008.662.153.739.639q1.677,10.581,3.39,21.156.413,2.568.816,5.138c.024.153.021.311.036.562l-1.691,0C-1341.838-795.413-1342.623-795.417-1343.407-795.437Zm-3.753-22.18c-.67,4.472-1.339,8.944-2.015,13.457h4.187c-.677-4.525-1.347-9-2.016-13.469Zm28.967,22.2c-.223,0-.446-.022-.672-.034V-822.9c1.3,0,2.508,0,3.717,0,.134,0,.268.018.456.031v27.453h-1.76Zm-52.635-.042v-27.4h4.2c.017.286.047.572.047.857,0,3.381.018,6.763-.013,10.144-.006.618.18.775.775.756,1.363-.043,2.728-.014,4.175-.014v-11.738h4.338v27.386h-4.325v-11.7h-4.933v11.709Zm-31.2-.013v-27.4h11.682v3.833h-7.382v7.712h5.826v3.91h-.792q-.628,0-1.256,0c-1.043,0-2.087.007-3.13-.015-.524-.011-.724.117-.717.682q.044,3.391,0,6.784c-.006.523.17.659.67.652,1.987-.024,3.975-.009,5.963-.009h.8v3.845Zm-25.836-34.235a9.105,9.105,0,0,1-1.247-4.229c-.054-.7-.009-1.4-.009-2.174h.978c5.6,0,11.195-.007,16.792.01a.9.9,0,0,0,.963-.557c.3-.63.669-1.228,1.084-1.973h-.782c-6.306,0-12.612-.018-18.917.017a2.617,2.617,0,0,1-2.462-1.408,10.708,10.708,0,0,1-1.257-5.947c0-.142.227-.328.39-.4a1.411,1.411,0,0,1,.542-.017q12.988,0,25.976.015a1.176,1.176,0,0,0,1.26-.763c.248-.552.577-1.068.913-1.677-.309-.019-.507-.041-.7-.041-9.276,0-18.552-.012-27.827.017a2.723,2.723,0,0,1-2.578-1.462,11.381,11.381,0,0,1-1.237-6.355h7.016q14.471,0,28.942.017a1.141,1.141,0,0,0,1.159-.695c1.551-2.82,3.05-5.674,4.727-8.418a13.122,13.122,0,0,1,8.046-5.831c0,1.132.014,2.168-.017,3.2,0,.137-.211.324-.366.39a12.1,12.1,0,0,0-6,5.475q-7.489,13.506-15.011,26.993c-1.243,2.235-2.474,4.476-3.748,6.694a1.084,1.084,0,0,1-.78.472c-4.569.031-9.139.025-13.708.031A2.462,2.462,0,0,1-1427.86-829.709Zm132.921,1.377c-5.026-.009-10.052.005-15.078-.018a1,1,0,0,1-.723-.437q-8.846-15.845-17.661-31.706a19.811,19.811,0,0,0-3.272-4.948,11.831,11.831,0,0,0-3.847-2.568c-.416-.164-.515-.362-.458-.814.109-.855.108-1.724.164-2.8,1.072.458,2.115.819,3.077,1.332a13.145,13.145,0,0,1,5.347,5.349c1.422,2.553,2.851,5.1,4.254,7.664a1.036,1.036,0,0,0,1.054.638q17.545-.029,35.09-.011h.983c.06,2.479-.112,4.833-1.618,6.882a2.394,2.394,0,0,1-2.1.929q-13.946-.021-27.894-.006h-.788c.454.832.818,1.562,1.252,2.248.095.15.437.2.666.2,1.717.012,3.434.012,5.151.012h22.937c0,2.478-.125,4.826-1.644,6.849a2.268,2.268,0,0,1-1.958.916q-10.006-.023-20.012-.009c-.178,0-.357.018-.7.037.474.842.868,1.625,1.356,2.345.1.141.443.139.72.136h.112q8.978.01,17.956,0h1.187c0,2.47-.131,4.84-1.654,6.882a2.223,2.223,0,0,1-1.9.9Zm-72.966-2.74a3.967,3.967,0,0,1-2.641-4.088h3.859c.5,1.566,1.452,2.119,2.926,1.711a1.17,1.17,0,0,0,1-.994c.077-.624-.378-.864-.822-1.027-.792-.289-1.613-.494-2.417-.751a16.3,16.3,0,0,1-2.066-.714,3.579,3.579,0,0,1-.783-6.011,6.538,6.538,0,0,1,5.226-1.286,5.222,5.222,0,0,1,3.073,1.2,3.758,3.758,0,0,1,1.294,2.945h-3.7a1.851,1.851,0,0,0-2.559-1.192c-.3.092-.687.426-.714.683a1.074,1.074,0,0,0,.556.813,12.828,12.828,0,0,0,1.938.651c.787.23,1.6.387,2.371.656a3.515,3.515,0,0,1,2.666,3.205,3.8,3.8,0,0,1-2.167,3.945,8.331,8.331,0,0,1-3.752.912A8.779,8.779,0,0,1-1367.905-831.072Zm-24.108.294c-.168,0-.307,0-.424,0-.731.015-.579.029-.864-1-.619-2.244-1.211-4.5-1.819-6.744a.613.613,0,0,0-.286-.382v8.084h-3.764c-.015-.208-.039-.384-.039-.561,0-3.952.013-7.9-.015-11.856,0-.617.177-.774.773-.757,1.484.043,2.97.031,4.454.01.42-.006.589.126.687.546.5,2.156,1.041,4.3,1.57,6.455a1.114,1.114,0,0,0,.291.563q.481-1.946.961-3.893c.261-1.064.527-2.126.769-3.195a.513.513,0,0,1,.6-.479c1.6.02,3.2.014,4.8,0,.366,0,.528.1.526.507-.016,4.157-.014,8.314-.019,12.471a.758.758,0,0,1-.065.177h-3.722v-8.1l-.2-.024c-.568,2.087-1.131,4.175-1.709,6.26-.175.632-.216,1.473-.641,1.812a1.112,1.112,0,0,1-.694.174C-1391.22-830.7-1391.648-830.774-1392.013-830.778Zm40.286.013c-1.089-.031-2.179-.009-3.335-.009v-9.807h-3.707v-3.344h11.4v3.292H-1351c-.015.337-.035.579-.036.82,0,2.785-.018,5.57.01,8.354.005.531-.159.695-.635.695Zm-29.278-.008h-2.631c.429-1.168.82-2.231,1.209-3.294,1.137-3.108,2.283-6.213,3.4-9.329a.768.768,0,0,1,.894-.594c.912.041,1.828.036,2.741.008a.657.657,0,0,1,.751.506c1.507,4.187,3.032,8.368,4.592,12.66h-4.2c-.143-.465-.309-.915-.416-1.38a.559.559,0,0,0-.67-.5c-1.027.027-2.056.032-3.084,0a.672.672,0,0,0-.77.571c-.406,1.327-.427,1.348-1.74,1.348Zm4.117-8.639-1.22,3.871h2.492l-1.12-3.874Zm42.972,8.606c-.107,0-.289-.355-.291-.547-.023-2.008-.017-4.017-.018-6.025,0-1.985.016-3.971-.011-5.957-.007-.517.151-.661.66-.656,1.084.011,2.168.01,3.252.009,1.244,0,2.488,0,3.731.015a6.435,6.435,0,0,1,1.883.29,3.33,3.33,0,0,1,2.472,2.745,3.6,3.6,0,0,1-1.844,4.026,3.875,3.875,0,0,1,1.871,3.341c.089.9.174,1.8.27,2.784-1.174,0-2.418.01-3.661-.017-.113,0-.291-.221-.321-.364-.111-.533-.171-1.076-.253-1.615s-.129-1.085-.261-1.611a1.241,1.241,0,0,0-1.183-.982c-.814-.048-1.632-.012-2.535-.012v4.6l-1.621,0C-1332.5-830.779-1333.209-830.784-1333.916-830.806Zm3.785-7.491c.988,0,1.941.064,2.88-.021a1.139,1.139,0,0,0,1.043-1.237,1.078,1.078,0,0,0-.96-1.155c-.973-.135-1.965-.134-2.963-.191Zm-16.325,7.452v-13.088h10.795v3.307h-6.819a7.238,7.238,0,0,0,.028,1.343c.03.148.378.327.584.331,1.234.022,2.469.021,3.7.02h1.87v3.106h-6.042c-.071.109-.113.145-.116.184-.142,1.487-.142,1.487,1.353,1.487h5.661v3.309Zm-30.226-25.726a21.629,21.629,0,0,1-3.677-5.5,1.405,1.405,0,0,0-.816-.683,1.792,1.792,0,0,1-1.4-1.178,21.253,21.253,0,0,1-.932-3.624,20.9,20.9,0,0,1,.563-8.286c.108-.394.277-.772.411-1.16a1.65,1.65,0,0,1,1.462-1.159,1.034,1.034,0,0,0,.681-.488c3.892-8.151,10.508-12,18.759-12.348,7.38.178,13.089,2.58,17.324,7.985a28.99,28.99,0,0,1,2.357,3.919c.251.453.459.8,1.033.822a1.483,1.483,0,0,1,1.432,1.156,20.232,20.232,0,0,1,.295,12.59,6.941,6.941,0,0,1-.676,1.414,1.27,1.27,0,0,1-1.305.706c-.393-.051-.548.135-.7.472-3.658,7.988-10.065,11.779-18.672,12.025-.24.007-.481.01-.719.01A20.429,20.429,0,0,1-1376.683-856.571Zm4.99-30.687a19.809,19.809,0,0,0-8.068,9.062c-.114.253-.368.585-.6.619a1.988,1.988,0,0,0-1.661,1.512,17.339,17.339,0,0,0-.772,5.808,9.52,9.52,0,0,0,.011,1.438,29.5,29.5,0,0,0,.745,3.945,2.5,2.5,0,0,0,1.285,1.376,1.936,1.936,0,0,1,1.11,1.049,20.372,20.372,0,0,0,22.415,11.438,19.475,19.475,0,0,0,14.911-11.73c.088-.2.316-.464.483-.467a1.882,1.882,0,0,0,1.82-1.51,16.407,16.407,0,0,0,.7-3.263,20.126,20.126,0,0,0-.724-8.2,1.594,1.594,0,0,0-1.454-1.248.964.964,0,0,1-.88-.706,19.314,19.314,0,0,0-5.668-7.445,20.707,20.707,0,0,0-13.031-4.629A20.668,20.668,0,0,0-1371.693-887.258Zm-.869,32.266a18.711,18.711,0,0,1-6.716-8.219,1.348,1.348,0,0,0-.792-.716,1.81,1.81,0,0,1-1.5-1.51c-.307-1.558-.508-3.136-.743-4.647.239-1.757.428-3.407.7-5.044.165-.988.535-1.865,1.809-1.836.139,0,.34-.258.42-.437a19.411,19.411,0,0,1,15.584-11.933,19.734,19.734,0,0,1,20.914,11.692,1.132,1.132,0,0,0,1.049.819,1.253,1.253,0,0,1,1.254,1.053,20,20,0,0,1,.141,10.358c-.236.9-.659,1.679-1.84,1.541-.14-.016-.393.255-.468.442a18.134,18.134,0,0,1-9.168,9.936,21.113,21.113,0,0,1-9.217,2.252A20.213,20.213,0,0,1-1372.562-854.993Zm11.758,2.734c8.379-.063,15.164-6.182,17-11.245a135.185,135.185,0,0,1-17.217,1.266,89.091,89.091,0,0,1-17.176-1.535C-1376.4-858.395-1369.784-852.192-1360.8-852.259Zm1.145-12.941a10.908,10.908,0,0,0,3.016.071v-5.887h-3.265c0,1.109.01,2.177-.009,3.244a.841.841,0,0,1-.193.6,1.8,1.8,0,0,1-1.81.253,1.285,1.285,0,0,1-.757-1.394c.026-.906.007-1.813.007-2.764h-3.414c0,1.31-.006,2.564,0,3.817a1.884,1.884,0,0,0,1.651,2.1,17.672,17.672,0,0,0,3.182-.013c.356-.013.674-.106,1.035-.106A1.879,1.879,0,0,1-1359.66-865.2Zm-15.99-10.448a5.541,5.541,0,0,0-4.589,5.376,5.147,5.147,0,0,0,4.5,5.141,14.711,14.711,0,0,0,3.177-.191c.175-.013.389-.123.516-.057a3.43,3.43,0,0,0,1.887.248,5.571,5.571,0,0,1,1.254.023v-5.913h-4.757v2.012h1.717c0,.46.018.843-.01,1.224a.505.505,0,0,1-.217.361,2.876,2.876,0,0,1-3.851-1.563,3.387,3.387,0,0,1,3.731-4.6,23.522,23.522,0,0,1,2.68.677c0-.473.031-.975-.016-1.47a.7.7,0,0,0-.343-.5,11.159,11.159,0,0,0-4.162-.92A7.856,7.856,0,0,0-1375.649-875.648Zm27.224,6.776,1.544.1v3.689h3.179c0-1.064.02-2.086-.009-3.108-.014-.495.163-.655.642-.59a6.651,6.651,0,0,0,.9.008v-2.244h-1.4c-.363-1.518-.023-1.756,1.838-1.295a5.558,5.558,0,0,1,.008-.877.868.868,0,0,0-.8-1.109,17.94,17.94,0,0,0-2.553-.394c-1.165-.046-1.754.616-1.759,1.785,0,.606,0,1.211,0,1.869h-1.588Zm-5.444,3.753h3.434v-9.3h-3.434Zm-7.141-23.457c-8.542.024-15,5.662-17.094,11.2a106.38,106.38,0,0,1,34.3-.074,18.626,18.626,0,0,0-17.145-11.127Z" transform="translate(1436.496 891.5)" stroke="rgba(0,0,0,0)" stroke-miterlimit="10" stroke-width="1" fill="#ffffff"/>
</svg>
