<svg xmlns="http://www.w3.org/2000/svg" xmlns:xlink="http://www.w3.org/1999/xlink" width="150" height="150" viewBox="0 0 150.995 76.592">
  <defs>
    <linearGradient id="linear-gradient" x1="0.066" y1="0.067" x2="1" y2="0.927" gradientUnits="objectBoundingBox">
      <stop offset="0" stop-color="#423f90"/>
      <stop offset="1" stop-color="#9d71ad"/>
    </linearGradient>
  </defs>
  <path id="tally" d="M-1326.25-815.478c-1.494-.359-3.041-.5-4.524-.9-1.213-.321-1.222-.479-1.077-1.737-1.781-.922-1.8-.933-.865-2.744,1.2-2.315,2.427-4.611,3.738-7.094-3.463-.251-6.825-.667-10.193-.7-8.232-.092-16.49-.41-24.691.106-10.171.64-20.33,1.777-30.43,3.161-10.661,1.46-21.244,3.482-31.868,5.218-3.12.509-5.722-.907-8.031-2.726-.657-.518-.841-1.716-1.808-2.156v-.773a11.4,11.4,0,0,1,2.14-1.081,276.848,276.848,0,0,1,34.462-6.645c10.88-1.456,21.81-2.372,32.777-2.809a299.205,299.205,0,0,1,40.852.931c2.138.207,2.36.057,3.966-2.929a5.764,5.764,0,0,1-4.7-2.987,18.446,18.446,0,0,1-10.808,2.94c-4.231-.285-6.51-3.234-8.465-6.209-2.823,1.29-5.446,2.668-8.2,3.7-4.3,1.619-7.765.978-10.026-3.17a8.951,8.951,0,0,0-.866-1.15c-2.86,1.521-5.641,3.1-8.518,4.487a27.859,27.859,0,0,1-5.083,1.773c-3.458.893-6.572.477-8.689-2.873-1.372.7-2.69,1.4-4.026,2.063a4.507,4.507,0,0,1-3.987.092,14.867,14.867,0,0,1-3.474-1.906c-3-2.515-5.226-5.6-5.725-9.588a4.4,4.4,0,0,1,.748-2.966,49.7,49.7,0,0,1,18.6-14.877,7.445,7.445,0,0,1,7.674.75,20.045,20.045,0,0,1,6.438,7.734,5.651,5.651,0,0,1-1.114,6.634c-2.151,2.148-4.356,4.241-6.448,6.549a20.063,20.063,0,0,0,2.749-1.648c2.965-2.466,6.012-4.861,8.754-7.562,5.593-5.51,10.983-11.226,16.505-16.808,2.925-2.957,5.95-5.814,8.935-8.712A3.267,3.267,0,0,1-1338-883c1.3.429,2.629.77,3.929,1.2.926.306,1.74.762,1.835,1.91.014.176.205.355.35.5,1.315,1.3,1.322,1.567-.142,2.818a154.509,154.509,0,0,0-22.279,22.78c-1.249,1.616-2.461,3.261-3.69,4.893l.279.433a10.11,10.11,0,0,0,2.619-1.193c3.847-3.346,7.711-6.684,11.38-10.222,6.944-6.7,13.413-13.892,21.1-19.8a4.131,4.131,0,0,1,3.745-.6,20.9,20.9,0,0,1,4.189,1.58c.441.209.661.884.984,1.345a3.414,3.414,0,0,0,.531.73c1.079.878,1.067,1.37-.1,2.311-2.771,2.235-5.6,4.4-8.3,6.721a94.39,94.39,0,0,0-16.679,19,6.822,6.822,0,0,0-.577,1.982c.724.169,1.527.62,2.155.444a7.568,7.568,0,0,0,3.15-1.579c3.214-3.081,6.333-6.263,9.4-9.492,2.45-2.58,4.741-5.31,7.183-7.9a2.55,2.55,0,0,1,1.865-.708,49.273,49.273,0,0,1,5.282.971c.97.218,1.646.779,1.32,1.9,1.782,1.063,1.792,1.361.4,2.894-3.231,3.553-6.46,7.109-9.63,10.717a30.985,30.985,0,0,0-2.16,3.14l.228.282c1.212-.573,2.434-1.125,3.632-1.725,4.875-2.439,8.65-6.284,12.589-9.913,1.292-1.19,2.443-2.537,3.767-3.688a2.636,2.636,0,0,1,1.912-.625,48.77,48.77,0,0,1,5.967,1.488c.5.159.823.921,1.21,1.417.163.209.238.509.435.667,1.211.974,1.212,1.4.028,2.526-3.884,3.7-7.843,7.323-11.609,11.138-3.252,3.294-6.282,6.807-9.405,10.228-.192.211-.343.46-.581.783,2.913.647,5.747,1.108,8.477,1.921,4.838,1.441,9.614,3.09,14.411,4.667a1.825,1.825,0,0,1,1.507,1.7.86.86,0,0,0,.4.573c1.118.66,1.035,1.556.554,2.548-.093.193-.191.385-.294.572-1.4,2.54-1.592,2.615-4.341,1.74a176.081,176.081,0,0,0-25.436-6.325,1.461,1.461,0,0,0-1.711.689c-1.943,2.982-3.941,5.929-5.873,8.917-.462.714-.912,1.24-1.714,1.24A2.323,2.323,0,0,1-1326.25-815.478Zm-69.566-31.749c4.076-.215,15.16-9.265,16.472-13.391C-1385.61-857.024-1390.652-852.235-1395.816-847.227Zm-28.968,6.537c-1.252-.03-1.958-.544-1.585-1.89-1.617-.544-1.8-.968-1.058-2.453,4.162-8.364,9.443-16.022,14.9-23.564,2.818-3.891,5.659-7.764,8.485-11.648.242-.333.45-.689.863-1.329-3.826.421-7.355.741-10.862,1.219-2.248.307-4.454.915-6.7,1.238a3.424,3.424,0,0,1-2.267-.452,20.9,20.9,0,0,1-5.59-6.132c-.687-1.1-.441-1.616,1.059-1.83q10.873-1.555,21.762-3c1.763-.236,3.547-.315,5.322-.466h14.684c1.905.172,3.816.294,5.713.526,3.146.383,6.282.846,9.424,1.251a1.972,1.972,0,0,1,1.69,1.356c.65,1.549,1.4,3.055,2.062,4.6a6.261,6.261,0,0,1,.186,1.266c.2,1.036-.225,1.367-1.252,1.293q-7.5-.538-15-1c-2.009-.126-4.021-.24-6.033-.267a1.926,1.926,0,0,0-1.4.588c-8.062,10.942-16.442,21.671-23.023,33.624-1.116,2.026-2.073,4.139-3.185,6.167a1.978,1.978,0,0,1-1.274,1.013q-.654.015-1.309.014C-1421.039-840.567-1422.912-840.645-1424.783-840.69Z" transform="translate(1436.5 891.5)" stroke="rgba(0,0,0,0)" stroke-miterlimit="10" stroke-width="1" fill="#ffffff"/>
</svg>
