<?xml version="1.0" encoding="utf-8"?>
<!-- Generator: Adobe Illustrator 23.0.3, SVG Export Plug-In . SVG Version: 6.00 Build 0)  -->
<svg version="1.0" xmlns="http://www.w3.org/2000/svg" xmlns:xlink="http://www.w3.org/1999/xlink" x="0px" y="0px" width="96px"
	 height="96px" viewBox="0 0 96 96" enable-background="new 0 0 96 96" xml:space="preserve">
<g id="Data_Search">
</g>
<g id="Data_Import">
</g>
<g id="Data_Export">
</g>
<g id="XML_Document">
</g>
<g id="Add_Organization">
</g>
<g id="Display_Template">
</g>
<g id="Search">
</g>
<g id="Case_Person_1_">
	<g id="Compound_Shape_9_">
	</g>
</g>
<g id="eProcurement">
</g>
<g id="Add_to_Basket">
</g>
<g id="Food_and_Drink">
</g>
<g id="Matching_Criteria">
</g>
<g id="Pin">
</g>
<g id="Contract_Management">
</g>
<g id="ISP">
</g>
<g id="Application_Database_Setup">
</g>
<g id="Vacancy_List">
</g>
<g id="Year_Planner">
	<g id="Compound_Shape_4_">
	</g>
</g>
<g id="eSourcing_Tools">
</g>
<g id="Health_Insurance_1_">
</g>
<g id="Travel">
</g>
<g id="Job_Categories">
</g>
<g id="Layer_102_copy_13">
</g>
<g id="Standard_Reports">
</g>
<g id="Invoice_Management">
</g>
<g id="Newspaper">
</g>
<g id="TV_and_Books">
</g>
<g id="Employment_Contracts">
</g>
<g id="Successfully_Added_Organization">
</g>
<g id="Customer_Reports">
</g>
<g id="Sent">
</g>
<g id="Electricity_Bill">
</g>
<g id="Photo_and_Video">
</g>
<g id="Posting_Info">
</g>
<g id="Customer_Invoices">
</g>
<g id="Drop_Files">
	<g id="Compound_Shape_3_">
	</g>
</g>
<g id="Mobile_Phone">
</g>
<g id="Sport">
</g>
<g id="Department_Admin">
</g>
<g id="Travel_and_Expenses">
</g>
<g id="Store">
	<g id="Compound_Shape_7_">
	</g>
</g>
<g id="Office_to_Rent">
</g>
<g id="Mobile_Location">
</g>
<g id="Filetype_Config">
</g>
<g id="Organization">
	<g id="Compound_Shape_13_">
	</g>
</g>
<g id="Add_Case_System">
</g>
<g id="Happy_File">
</g>
<g id="Transport">
</g>
<g id="Gaming">
</g>
<g id="Remove_Candidate">
</g>
<g id="Add_Case_Person">
</g>
<g id="Advanced_Time_Reporting_copy_12">
</g>
<g id="eInvoice">
	<g id="Compound_Shape_2_">
	</g>
</g>
<g id="CO2_Emissions">
</g>
<g id="Family">
</g>
<g id="Mobile_Unfriendly">
	<g id="Compound_Shape_6_">
	</g>
</g>
<g id="Mobile_Friendly">
	<g id="Compound_Shape_5_">
	</g>
</g>
<g id="Snap_It">
</g>
<g id="Clock">
</g>
<g id="HR_Employees_Talent">
</g>
<g id="Dispatcher">
</g>
<g id="Coffee_Cup">
</g>
<g id="Sound_and_Picture">
	<g id="Compound_Shape_1_">
	</g>
</g>
<g id="Current_Edit">
</g>
<g id="Export_Template">
</g>
<g id="Loked_File">
	<g id="Compound_Shape">
	</g>
</g>
<g id="Time_Reporting_and_HR">
</g>
<g id="Buyer">
</g>
<g id="Piggy_Bank">
</g>
<g id="Market">
</g>
<g id="eShopping">
</g>
<g id="Search_Template">
</g>
<g id="Thumbs_Up">
</g>
<g id="Time_Reporting">
</g>
<g id="Web-Based">
	<g>
		<g>
			<path fill-rule="evenodd" clip-rule="evenodd" fill="#68A611" d="M88.6,39c4.1,0,7.4-3.3,7.4-7.4s-3.3-7.4-7.4-7.4
				c-4.1,0-7.4,3.3-7.4,7.4c0,1.2,0.3,2.3,0.8,3.3L74.4,39c0,0-0.1-0.1-0.1-0.1c-4.6-6-12.4-8.6-20.2-6.7c-3.1,0.7-5.7,2.2-7.9,4
				L39.5,30c0.5-0.7,0.7-1.5,0.7-2.4c0-0.5-0.1-0.9-0.2-1.4l11.2-6.4c0.6,0.7,1.6,1.2,2.6,1.2c1.9,0,3.5-1.6,3.5-3.5
				c0-1.9-1.6-3.5-3.5-3.5c-1.9,0-3.5,1.6-3.5,3.5c0,0.3,0.1,0.7,0.2,1l-11.2,6.3c-0.8-1.1-2.1-1.8-3.5-1.8s-2.7,0.7-3.5,1.8
				L29.1,23c0.1-0.3,0.2-0.6,0.2-0.9c0-1.5-1.2-2.7-2.7-2.7c-1.5,0-2.7,1.2-2.7,2.7c0,1.5,1.2,2.7,2.7,2.7c0.8,0,1.5-0.4,2-0.9
				l3.1,1.8c-0.3,0.6-0.4,1.2-0.4,1.9c0,2.5,2,4.5,4.5,4.5c1,0,1.9-0.4,2.7-0.9l6.6,6.1c-0.7,0.7-1.4,1.5-2,2.3
				c-3.1-2-6.7-1.9-9.6-0.8c-3.1,1.2-5.7,3.8-6.2,7.5c-4.8,0.5-9,3.3-11.3,7l-6.2-2.7c0.2-0.6,0.3-1.2,0.3-1.8c0-2.8-2.3-5-5-5
				c-2.8,0-5,2.3-5,5c0,2.8,2.3,5,5,5c1.6,0,3-0.7,3.9-1.9l6.2,2.7c-0.7,1.5-1.1,3.1-1.1,4.8c0,10.2,12.1,14.2,16.3,12.9
				c3,5.5,9.6,9.8,17.4,9.8c5.1,0,9.8-2.3,13.3-5.1c4.1,3.2,13.9,0.7,15.4-4.6c8.3,0,13.5-4.3,13.5-11.4c0-6.4-5.4-12-11.8-12
				c-0.3-3.2-1.3-6.1-2.9-8.7l7.6-4.1C84.2,37.9,86.3,39,88.6,39z M86.2,26.9c0.9,0,1.6,0.7,1.6,1.6c0,0.9-0.7,1.6-1.6,1.6
				c-0.9,0-1.6-0.7-1.6-1.6C84.5,27.6,85.3,26.9,86.2,26.9z M33.8,26.5c-0.5,0-1-0.4-1-1c0-0.5,0.4-1,1-1c0.5,0,1,0.4,1,1
				C34.8,26.1,34.3,26.5,33.8,26.5z M3.3,47.6c-0.6,0-1.1-0.5-1.1-1.1c0-0.6,0.5-1.1,1.1-1.1c0.6,0,1.1,0.5,1.1,1.1
				C4.4,47.1,3.9,47.6,3.3,47.6z M76.1,48.8c-2.3-0.6-5.2-0.5-6.4,0c3.7,0.6,9,0.2,10.7,8c0.3,1.1,1.2-2.7-1.8-5.8
				c2.1,0.1,4,0.9,5.6,2.4c2.1,1.9,3.7,4.7,3.7,7.5c0,3.1-1.2,5.5-3.5,7.4c-2.1,1.8-5.8,2.5-8.5,2c0,0-2-0.5-3.2-1.5
				c0.6,1.3,2.4,2.8,2.4,2.8c-3.4,4.4-8.9,5.4-12.1,3.5c1.6-1.6,2.2-2.9,2.9-5c1.5-4.2-4.9,9.3-18.2,9.3c-18,0-19.1-19.3-19-13.6
				c0,1.5,0.3,3,0.8,4.4c-3.6,0.1-7-1.1-9.5-3.4c-2.2-2.1-3.5-4.8-3.5-7.7c0-1.3,0.3-2.5,0.7-3.7l4.9,2.1l0.7-1.4l-4.9-2.1
				c1.6-2.7,4.4-4.9,8.5-5.7c1.1-0.6,0.9,1.8,1.7,2.3c-0.5-5,3.5-9.7,6.9-10.6c1.9-0.5,5.3-0.4,6.2,2c-0.9,1.5-1.7,5-0.8,6.2
				c0.8-2.2,1.8-6.5,5.9-9.9l0.6,0.5l1-1.2l-0.4-0.3c1.9-1.3,4.2-2.4,7.3-3.1c7-1.7,13.7,0.5,17.8,5.8
				C74.7,42.7,75.8,45.4,76.1,48.8z"/>
		</g>
	</g>
</g>
<g id="Lifestyle">
</g>
<g id="Stored_Applications">
</g>
<g id="Vacation">
</g>
<g id="Accounting">
</g>
<g id="Purchase_Order">
	<g id="Normal_1_">
	</g>
</g>
<g id="Hardware">
	<g id="Normal">
	</g>
</g>
<g id="Database_Setup">
</g>
<g id="Reports">
</g>
<g id="Clipboard">
</g>
<g id="Accounts_Receivable">
</g>
<g id="Invoice_Confirmation">
</g>
<g id="More">
</g>
<g id="Calendar">
	<g id="Compound_Shape_12_">
	</g>
</g>
<g id="Administration">
	<g id="Compound_Shape_11_">
	</g>
</g>
<g id="Admin">
	<g id="Compound_Shape_10_">
	</g>
</g>
<g id="Deleted_Application">
</g>
<g id="Case_System">
</g>
<g id="Payroll_and_HR">
</g>
<g id="End_User">
</g>
<g id="Gift">
</g>
<g id="Payslip">
</g>
<g id="Bank">
</g>
<g id="Image">
</g>
<g id="Services">
</g>
<g id="Smiley">
</g>
<g id="Guides" display="none" opacity="0.2">
	<rect display="inline" fill-rule="evenodd" clip-rule="evenodd" fill="#0089D9" width="96" height="96"/>
</g>
</svg>
