<?xml version="1.0" encoding="utf-8"?>
<!-- Generator: Adobe Illustrator 23.0.3, SVG Export Plug-In . SVG Version: 6.00 Build 0)  -->
<svg version="1.0" xmlns="http://www.w3.org/2000/svg" xmlns:xlink="http://www.w3.org/1999/xlink" x="0px" y="0px" width="96px"
	 height="96px" viewBox="0 0 96 96" enable-background="new 0 0 96 96" xml:space="preserve">
<g id="Data_Search">
</g>
<g id="Data_Import">
</g>
<g id="Data_Export">
</g>
<g id="XML_Document">
</g>
<g id="Add_Organization">
</g>
<g id="Display_Template">
</g>
<g id="Search">
</g>
<g id="Case_Person_1_">
	<g id="Compound_Shape_9_">
	</g>
</g>
<g id="eProcurement">
</g>
<g id="Add_to_Basket">
</g>
<g id="Food_and_Drink">
</g>
<g id="Matching_Criteria">
</g>
<g id="Pin">
</g>
<g id="Contract_Management">
</g>
<g id="ISP">
</g>
<g id="Application_Database_Setup">
</g>
<g id="Vacancy_List">
</g>
<g id="Year_Planner">
	<g id="Compound_Shape_4_">
	</g>
</g>
<g id="eSourcing_Tools">
</g>
<g id="Health_Insurance_1_">
</g>
<g id="Travel">
</g>
<g id="Job_Categories">
</g>
<g id="Layer_102_copy_13">
</g>
<g id="Standard_Reports">
</g>
<g id="Invoice_Management">
</g>
<g id="Newspaper">
</g>
<g id="TV_and_Books">
</g>
<g id="Employment_Contracts">
</g>
<g id="Successfully_Added_Organization">
</g>
<g id="Customer_Reports">
</g>
<g id="Sent">
</g>
<g id="Electricity_Bill">
</g>
<g id="Photo_and_Video">
</g>
<g id="Posting_Info">
</g>
<g id="Customer_Invoices">
</g>
<g id="Drop_Files">
	<g id="Compound_Shape_3_">
	</g>
</g>
<g id="Mobile_Phone">
</g>
<g id="Sport">
</g>
<g id="Department_Admin">
</g>
<g id="Travel_and_Expenses">
</g>
<g id="Store">
	<g id="Compound_Shape_7_">
	</g>
</g>
<g id="Office_to_Rent">
</g>
<g id="Mobile_Location">
</g>
<g id="Filetype_Config">
</g>
<g id="Organization">
	<g id="Compound_Shape_13_">
	</g>
</g>
<g id="Add_Case_System">
</g>
<g id="Happy_File">
</g>
<g id="Transport">
</g>
<g id="Gaming">
</g>
<g id="Remove_Candidate">
</g>
<g id="Add_Case_Person">
</g>
<g id="Advanced_Time_Reporting_copy_12">
</g>
<g id="eInvoice">
	<g id="Compound_Shape_2_">
	</g>
</g>
<g id="CO2_Emissions">
</g>
<g id="Family">
</g>
<g id="Mobile_Unfriendly">
	<g id="Compound_Shape_6_">
	</g>
</g>
<g id="Mobile_Friendly">
	<g id="Compound_Shape_5_">
	</g>
</g>
<g id="Snap_It">
</g>
<g id="Clock">
</g>
<g id="HR_Employees_Talent">
</g>
<g id="Dispatcher">
</g>
<g id="Coffee_Cup">
</g>
<g id="Sound_and_Picture">
	<g id="Compound_Shape_1_">
	</g>
</g>
<g id="Current_Edit">
</g>
<g id="Export_Template">
</g>
<g id="Loked_File">
	<g id="Compound_Shape">
	</g>
</g>
<g id="Time_Reporting_and_HR">
</g>
<g id="Buyer">
</g>
<g id="Piggy_Bank">
</g>
<g id="Market">
</g>
<g id="eShopping">
</g>
<g id="Search_Template">
</g>
<g id="Thumbs_Up">
</g>
<g id="Time_Reporting">
</g>
<g id="Web-Based">
</g>
<g id="Lifestyle">
</g>
<g id="Stored_Applications">
</g>
<g id="Vacation">
</g>
<g id="Accounting">
</g>
<g id="Purchase_Order">
	<g id="Normal_1_">
	</g>
</g>
<g id="Hardware">
	<g id="Normal">
	</g>
</g>
<g id="Database_Setup">
</g>
<g id="Reports">
</g>
<g id="Clipboard">
</g>
<g id="Accounts_Receivable">
</g>
<g id="Invoice_Confirmation">
</g>
<g id="More">
</g>
<g id="Calendar">
	<g id="Compound_Shape_12_">
	</g>
</g>
<g id="Administration">
	<g id="Compound_Shape_11_">
	</g>
</g>
<g id="Admin">
	<g id="Compound_Shape_10_">
	</g>
</g>
<g id="Deleted_Application">
</g>
<g id="Case_System">
</g>
<g id="Payroll_and_HR">
</g>
<g id="End_User">
	<g>
		<g>
			<path fill-rule="evenodd" clip-rule="evenodd" fill="#68A611" d="M37.1,18.6c1.1-5.8,14.6,0.5,17.5-5.2c0.1-0.2,0.1-0.3,0.2-0.5
				c0,0.2-0.1,0.3-0.1,0.5c1.6,3.5,5,0.8,5.7,4.5c0.2-5.3-4.9-3.6-5.3-6.2c0,0,0,0,0-0.1C50.7,17.7,37.1,9.6,37.1,18.6z M37.1,46.2
				c-1.4,1.6-3.7,3.3-6.4,4.8h4c1.2-0.8,2.3-1.7,3.2-2.7c0.1-0.1,0.3-0.3,0.5-0.4c0.6,1.1,1.9,2.2,3.1,3.1H45
				c-1.2-0.6-3.6-1.9-4.8-3.5c0.5-0.5,0.8-0.9,1-1.5c0.2-0.6,0.3-1.4,0.3-2.2c0.5,0.4,1.2,0.6,2,0.6c-0.7-0.5-1.4-1.1-2.1-1.9
				c-0.1-0.9-0.4-1.7-0.9-2.3c-2-2-2.8-4.6-2.6-7.5c-3.2,0.5-4.2-4.1-4.2-6.9c0-1,0.6-1.5,1.4-1.7c0.2,0.6,0.3,1.2,0.4,2
				c0.3-0.9,0.4-1.6,0.5-2.1c0,0,0,0,0.1,0c0-0.2,0-0.4,0-0.6c0-0.4,0-0.8,0-1.2c0,0-0.1,0-0.1,0c-0.3-2.6-1.2-2.6-1.3-7.1
				C34.5,3.6,52.3,0.7,55.8,9.4c5,0,6.7,2.6,6.7,5.7c0,4.5-1.2,4.6-1.6,7.2c0,0-0.1,0-0.1,0c0,0.2,0,0.5,0,0.7c0,0.3,0,0.6,0,1
				c0,0,0.1,0,0.2,0c0.1,0.7,0.2,1.5,0.4,2.1c0.1-0.8,0.3-1.5,0.4-2c0.8,0.2,1.6,0.7,1.6,1.7c0,2.8-1.4,7.4-4.6,6.9
				c0.1,2.9-0.4,5.5-2.4,7.5c-0.5,0.6-0.8,1.5-1,2.4c-0.6,0.8-1.3,1.3-2,1.8c0.7,0,1.3-0.2,1.8-0.5c-0.1,0.9-0.1,1.7,0.1,2.3
				c0.2,0.6,0.4,1.2,0.8,1.8c-1.3,1.4-3.2,2.4-4.3,3H55c1.1-0.8,2.3-1.9,3-2.9c0.4,0,0.9,0.1,1,0.3c0.9,1,1.9,1.8,3,2.6h4.1
				c-2.8-1.5-5-3.2-6.4-4.8c-0.7-0.6-1.9-0.6-2.2-0.1c-0.4-0.5-0.8-3.2-0.2-4.3c1.8-1.8,3.1-3.9,3.1-7.3c3.2,0,4.7-5.7,4.7-8.6
				c0-1.5-0.7-3.3-2.6-3.3c0,0,0,0,0,0c0,0,0,0-0.1,0c0-2,2-2.1,2-7.4c0-3.3-2.1-7.8-7-7.8c-5-9.6-24.8-5.8-24.8,7.8
				c0,4.6,1.9,5.7,1.9,7.4c-2,0-2.7,1.8-2.7,3.3c0,3,1.5,8.6,4.7,8.6c0,3.4,1.3,5.5,3.1,7.3c0.6,1.1,0.2,3.7-0.2,4.3
				C39,45.6,37.8,45.6,37.1,46.2z M83,53.5c-0.3-0.4-0.8-0.5-1.3-0.5H14.5c-0.5,0-0.9,0.1-1.3,0.5c-0.3,0.4-0.5,0.8-0.4,1.3
				l1.7,37.6c0.1,0.9,0.8,1.6,1.7,1.6h63.9c0.9,0,1.6-0.7,1.7-1.6l1.7-37.6C83.5,54.3,83.3,53.9,83,53.5z M80,92H16l-0.1-2
				c0,0,0,0,0.1,0h64.1L80,92z M80.1,89C80.1,89,80,89,80.1,89L16,89c0,0-0.1,0-0.1,0L15,55h66L80.1,89z M48.1,76
				c2.8,0,4.9-1.8,4.9-4c0-2.2-2.1-4-4.9-4c-2.8,0-5.1,1.8-5.1,4C43,74.2,45.4,76,48.1,76z M48,69c2.1,0,4,1.4,4,3s-1.9,3-4,3
				c-2.1,0-4-1.4-4-3S45.9,69,48,69z"/>
		</g>
	</g>
</g>
<g id="Gift">
</g>
<g id="Payslip">
</g>
<g id="Bank">
</g>
<g id="Image">
</g>
<g id="Services">
</g>
<g id="Smiley">
</g>
<g id="Guides" display="none" opacity="0.2">
	<rect display="inline" fill-rule="evenodd" clip-rule="evenodd" fill="#0089D9" width="96" height="96"/>
</g>
</svg>
