<?xml version="1.0" encoding="utf-8"?>
<!-- Generator: Adobe Illustrator 23.0.3, SVG Export Plug-In . SVG Version: 6.00 Build 0)  -->
<svg version="1.0" xmlns="http://www.w3.org/2000/svg" xmlns:xlink="http://www.w3.org/1999/xlink" x="0px" y="0px" width="96px"
	 height="96px" viewBox="0 0 96 96" enable-background="new 0 0 96 96" xml:space="preserve">
<g id="Budget_2">
</g>
<g id="Budget_1">
</g>
<g id="Procurement_and_Invoices">
</g>
<g id="Retail_5">
</g>
<g id="Retail_4">
</g>
<g id="Retail_3">
</g>
<g id="Retail_2">
</g>
<g id="Retail">
</g>
<g id="eFlow">
</g>
<g id="Home">
</g>
<g id="Report_Other_Transactions_4">
</g>
<g id="Report_Other_Transactions_3">
</g>
<g id="Report_Other_Transactions_2">
</g>
<g id="Report_Other_Transactions">
</g>
<g id="Report_Work_Hours_4">
</g>
<g id="Report_Work_Hours_3">
</g>
<g id="Report_Work_Hours_2">
</g>
<g id="Report_Work_Hours">
</g>
<g id="Report_Absence">
</g>
<g id="Request_Absence_3">
</g>
<g id="Request_Absence_2">
</g>
<g id="Request_Absence">
</g>
<g id="Consumer">
</g>
<g id="Office">
</g>
<g id="PDF_Conversion_Queue">
</g>
<g id="Email_Queue">
	<g>
		<g>
			<path fill-rule="evenodd" clip-rule="evenodd" fill="#68A611" d="M71,44h-1V26h-2v-5h-2v-5H30v5h-2v5h-2v18h-1c-2.8,0-5,2.2-5,5
				v25c0,2.8,2.2,5,5,5h46c2.8,0,5-2.2,5-5V49C76,46.2,73.8,44,71,44z M70,46h1c0.3,0,0.7,0.1,1,0.2l-2,1.2V46z M32,18h32v3H32V18z
				 M30,23h2h32h2v3H30V23z M28,28h40c0,1.1,0,18.6,0,20.5L48,60.3L28,48.5C28,47.1,28,29.3,28,28z M25,46h1v1.4l-2-1.2
				C24.3,46.1,24.7,46,25,46z M71,77H25c-1.7,0-3-1.3-3-3l0-25c0-0.5,0.1-1,0.4-1.5l3.6,2.1v0h0l46,27.1C71.7,76.9,71.3,77,71,77z
				 M74,74c0,0.5-0.1,1-0.4,1.5L50,61.5l20-11.8h0v0l3.6-2.1C73.9,48,74,48.5,74,49V74z M54.5,36.4h5c0.3,0,0.5-0.4,0.5-0.7
				S59.8,35,59.5,35h-5c-0.3,0-0.5,0.4-0.5,0.7S54.2,36.4,54.5,36.4z M36.5,42.4h10c0.3,0,0.5-0.4,0.5-0.7c0-0.3-0.2-0.7-0.5-0.7
				h-10c-0.3,0-0.5,0.4-0.5,0.7C36,42,36.2,42.4,36.5,42.4z M60,49.7c0-0.3-0.2-0.7-0.5-0.7h-23c-0.3,0-0.5,0.4-0.5,0.7
				c0,0.3,0.2,0.7,0.5,0.7h23C59.8,50.4,60,50,60,49.7z M36.5,46.4h23c0.3,0,0.5-0.4,0.5-0.7h0c0-0.3-0.2-0.7-0.5-0.7h-23
				c-0.3,0-0.5,0.4-0.5,0.7C36,46,36.2,46.4,36.5,46.4z"/>
		</g>
	</g>
</g>
<g id="Access_Log">
</g>
<g id="Active_Postings_per_Channel">
</g>
<g id="Expired_Postings">
</g>
<g id="Active_Postings">
</g>
<g id="Active_Projects">
</g>
<g id="CV_Dropdowns">
</g>
<g id="Page_Overview">
</g>
<g id="Municipality_County_Country">
</g>
<g id="Compare_Translations">
</g>
<g id="Missing_Translations">
</g>
<g id="ACL_Visibility">
</g>
<g id="Guides" display="none" opacity="0.2">
	<rect display="inline" fill-rule="evenodd" clip-rule="evenodd" fill="#0089D9" width="96" height="96"/>
</g>
</svg>
