<?xml version="1.0" encoding="UTF-8"?>
<svg xmlns="http://www.w3.org/2000/svg" viewBox="0 0 269.01 66.68"><defs><style>.cls-1{fill:#282828;}.cls-2{fill:#68a611;}.cls-3{fill:#649911;}.cls-4{fill:#538f00;}.cls-5{fill:#5a9300;}.cls-6{fill:#69a000;}.cls-7{fill:#7fb823;}.cls-8{fill:#659e09;}.cls-9{fill:#8cbf27;}.cls-10{fill:#6fa80a;}.cls-11{fill:#73aa0b;}</style></defs><title>maventa-Asset 1</title><g id="Layer_2" data-name="Layer 2"><g id="Logo"><path class="cls-1" d="M92.38,51.13,80.45,20V51.13H76.63V15.55h6.23L94.13,44.9h.2l11.36-29.35h6.18V51.13h-4.13V20l-12,31.11Z"/><path class="cls-1" d="M136.85,51.13l-1-3.8a11.15,11.15,0,0,1-4,3.4,12.14,12.14,0,0,1-4.95.89,8.87,8.87,0,0,1-6.22-2,7.45,7.45,0,0,1-2.25-5.81q0-8.09,12.92-8.47l4.53-.15V33.49a6.77,6.77,0,0,0-1.35-4.64,5.55,5.55,0,0,0-4.32-1.5,17.63,17.63,0,0,0-7.54,2l-.89-3.28a18.15,18.15,0,0,1,4-1.49,18.57,18.57,0,0,1,4.71-.61q4.77,0,7.07,2.12c1.54,1.41,2.3,3.67,2.3,6.79v18.2Zm-9.15-2.85a8.24,8.24,0,0,0,5.93-2.06,7.68,7.68,0,0,0,2.15-5.8V38l-4,.17q-4.82.18-7,1.5a4.5,4.5,0,0,0-2.12,4.13A4.16,4.16,0,0,0,124,47.14,5.51,5.51,0,0,0,127.7,48.28Z"/><path class="cls-1" d="M153.69,51.13,143.56,24.46h4.34l5.74,15.82q2,5.55,2.29,7.2h.19a54.35,54.35,0,0,1,1.69-5.34q1.42-4.05,6.39-17.68h4.33L158.41,51.13Z"/><path class="cls-1" d="M183.64,51.62q-5.92,0-9.34-3.6t-3.42-10q0-6.45,3.18-10.24a10.56,10.56,0,0,1,8.53-3.8,10,10,0,0,1,7.93,3.3,12.63,12.63,0,0,1,2.92,8.7v2.56H175.07q.12,4.69,2.37,7.12a8.19,8.19,0,0,0,6.34,2.44,21.52,21.52,0,0,0,8.52-1.8v3.6a21.44,21.44,0,0,1-4.05,1.33A23.39,23.39,0,0,1,183.64,51.62Zm-1.1-24.27a6.58,6.58,0,0,0-5.12,2.1,9.53,9.53,0,0,0-2.25,5.79h13.94a8.89,8.89,0,0,0-1.7-5.85A6,6,0,0,0,182.54,27.35Z"/><path class="cls-1" d="M218.23,51.13V33.88A7,7,0,0,0,216.74,29a6,6,0,0,0-4.64-1.61q-4.18,0-6.14,2.27c-1.29,1.5-1.94,4-1.94,7.47v14h-4V24.46h3.15l1,3.65a8.31,8.31,0,0,1,3.48-3.06,11.37,11.37,0,0,1,5-1.08c3.22,0,5.63.78,7.26,2.33s2.43,4,2.43,7.43v17.4Z"/><path class="cls-1" d="M239.88,48.28a12.67,12.67,0,0,0,2.07-.16,13,13,0,0,0,1.58-.32v3.09a7.52,7.52,0,0,1-1.93.52,14.32,14.32,0,0,1-2.3.21q-7.74,0-7.74-8.15V27.6h-3.82v-2l3.69-1.19,1.65-6.18h2.52v6.18h7.74V27.6H235.6V43.3A5.4,5.4,0,0,0,236.74,47,4,4,0,0,0,239.88,48.28Z"/><path class="cls-1" d="M266,51.13l-1-3.8a11.13,11.13,0,0,1-4,3.4,12.22,12.22,0,0,1-5,.89,8.85,8.85,0,0,1-6.21-2,7.42,7.42,0,0,1-2.26-5.81q0-8.09,12.93-8.47l4.52-.15V33.49a6.77,6.77,0,0,0-1.35-4.64,5.55,5.55,0,0,0-4.32-1.5,17.66,17.66,0,0,0-7.54,2L251,26.12a17.77,17.77,0,0,1,4-1.49,18.45,18.45,0,0,1,4.71-.61c3.18,0,5.53.71,7.07,2.12s2.3,3.67,2.3,6.79v18.2Zm-9.14-2.85a8.22,8.22,0,0,0,5.92-2.06,7.65,7.65,0,0,0,2.16-5.8V38l-4,.17c-3.22.12-5.53.62-7,1.5a4.51,4.51,0,0,0-2.13,4.13,4.13,4.13,0,0,0,1.33,3.33A5.51,5.51,0,0,0,256.89,48.28Z"/><g id="Maventa"><path class="cls-2" d="M24.47,64.84a19.79,19.79,0,0,0,7.65,1.75A22.06,22.06,0,0,0,53.87,52.5a21.92,21.92,0,0,0-25.31,5.68A21.08,21.08,0,0,0,24.47,64.84Z"/><path class="cls-3" d="M32.27,65.91a21.75,21.75,0,0,1-7.57-1.67l-.23.68a19.78,19.78,0,0,0,7.65,1.74,22.06,22.06,0,0,0,19.32-9.54A22.84,22.84,0,0,1,32.27,65.91Z"/><path class="cls-4" d="M53.87,52.5A38.48,38.48,0,0,1,9.62,20.68,37.74,37.74,0,0,1,11.82.52H12a38.48,38.48,0,0,1,44.09,31.9A38.07,38.07,0,0,1,53.87,52.5Z"/><path class="cls-5" d="M11.82.52H12a38.48,38.48,0,0,1,44.09,31.9,37.61,37.61,0,0,1-2.19,20.15Z"/><path class="cls-6" d="M56.06,33.18a38,38,0,0,1,.46,5.91,48.24,48.24,0,0,0-.46-6.67A38.47,38.47,0,0,0,11.82.52a3.41,3.41,0,0,0,.45.61A38.89,38.89,0,0,1,56.06,33.18Z"/><path class="cls-7" d="M53.87,52.5A38.48,38.48,0,0,0,15.23,35,38.87,38.87,0,0,0,0,40.9,38.47,38.47,0,0,0,38.64,58.4,36.61,36.61,0,0,0,53.87,52.5Z"/><path class="cls-8" d="M15.23,35.07h-.15A38.35,38.35,0,0,0,53.87,52.5,38.43,38.43,0,0,0,15.23,35.07Z"/><path class="cls-9" d="M38.64,58.48a38.77,38.77,0,0,0,15.23-5.91,21.93,21.93,0,0,0-25.31,5.68c-.15.15-.3.38-.45.53A44.43,44.43,0,0,0,38.64,58.48Z"/><path class="cls-10" d="M53.87,52.57a22.17,22.17,0,0,0-15.69-.68A40.26,40.26,0,0,0,53.87,52.57Z"/><path class="cls-11" d="M53.79,52.57s.08,0,.08-.07A38.48,38.48,0,0,0,15.23,35,38.87,38.87,0,0,0,0,40.9a7.28,7.28,0,0,1,.45.76A38.48,38.48,0,0,1,53.79,52.57Z"/></g></g></g></svg>