<?xml version="1.0" encoding="utf-8"?>
<!-- Generator: Adobe Illustrator 23.0.3, SVG Export Plug-In . SVG Version: 6.00 Build 0)  -->
<svg version="1.0" xmlns="http://www.w3.org/2000/svg" xmlns:xlink="http://www.w3.org/1999/xlink" x="0px" y="0px" width="96px"
	 height="96px" viewBox="0 0 96 96" enable-background="new 0 0 96 96" xml:space="preserve">
<g id="Data_Search">
</g>
<g id="Data_Import">
</g>
<g id="Data_Export">
</g>
<g id="XML_Document">
</g>
<g id="Add_Organization">
</g>
<g id="Display_Template">
</g>
<g id="Search">
</g>
<g id="Case_Person_1_">
	<g id="Compound_Shape_9_">
	</g>
</g>
<g id="eProcurement">
</g>
<g id="Add_to_Basket">
</g>
<g id="Food_and_Drink">
</g>
<g id="Matching_Criteria">
</g>
<g id="Pin">
</g>
<g id="Contract_Management">
</g>
<g id="ISP">
</g>
<g id="Application_Database_Setup">
</g>
<g id="Vacancy_List">
</g>
<g id="Year_Planner">
	<g id="Compound_Shape_4_">
	</g>
</g>
<g id="eSourcing_Tools">
</g>
<g id="Health_Insurance_1_">
</g>
<g id="Travel">
</g>
<g id="Job_Categories">
</g>
<g id="Layer_102_copy_13">
</g>
<g id="Standard_Reports">
</g>
<g id="Invoice_Management">
</g>
<g id="Newspaper">
</g>
<g id="TV_and_Books">
</g>
<g id="Employment_Contracts">
</g>
<g id="Successfully_Added_Organization">
</g>
<g id="Customer_Reports">
</g>
<g id="Sent">
</g>
<g id="Electricity_Bill">
</g>
<g id="Photo_and_Video">
</g>
<g id="Posting_Info">
</g>
<g id="Customer_Invoices">
</g>
<g id="Drop_Files">
	<g id="Compound_Shape_3_">
	</g>
</g>
<g id="Mobile_Phone">
</g>
<g id="Sport">
</g>
<g id="Department_Admin">
</g>
<g id="Travel_and_Expenses">
</g>
<g id="Store">
	<g id="Compound_Shape_7_">
	</g>
</g>
<g id="Office_to_Rent">
</g>
<g id="Mobile_Location">
</g>
<g id="Filetype_Config">
</g>
<g id="Organization">
	<g id="Compound_Shape_13_">
	</g>
</g>
<g id="Add_Case_System">
</g>
<g id="Happy_File">
</g>
<g id="Transport">
</g>
<g id="Gaming">
</g>
<g id="Remove_Candidate">
</g>
<g id="Add_Case_Person">
</g>
<g id="Advanced_Time_Reporting_copy_12">
</g>
<g id="eInvoice">
	<g id="Compound_Shape_2_">
	</g>
</g>
<g id="CO2_Emissions">
</g>
<g id="Family">
</g>
<g id="Mobile_Unfriendly">
	<g id="Compound_Shape_6_">
	</g>
</g>
<g id="Mobile_Friendly">
	<g id="Compound_Shape_5_">
		<g>
			<g>
				<path fill-rule="evenodd" clip-rule="evenodd" fill="#68A611" d="M41,77c0,1.7,1.3,3,3,3c1.7,0,3-1.4,3-3c0-1.6-1.3-3-3-3
					C42.3,74,41,75.3,41,77z M46,77c0,1.1-0.9,2-2,2c-1.1,0-2-0.9-2-2s0.9-2,2-2C45.1,75,46,75.9,46,77z M50.7,39.1
					c-0.2-0.2-0.5-0.2-0.7,0l-8.5,8.5c-0.2,0.2-0.2,0.5,0,0.7c0.2,0.2,0.5,0.2,0.7,0l8.5-8.5C50.9,39.6,50.9,39.3,50.7,39.1z M27,83
					c-2.2,0-4-1.8-4-4V12c0-2.2,1.8-4,4-4h34c2.2,0,4,1.8,4,4v63.3l2-2V12c0-3.3-2.7-6-6-6H27c-3.3,0-6,2.7-6,6v67c0,3.3,2.7,6,6,6
					h24.4l-2-2H27z M78.9,67.1c-0.8-0.8-1.5-0.3-2.3,0.5L59,85.1l-5.5-5.5c-0.8-0.8-1.7-1.5-2.5-0.7c-0.8,0.8-0.2,1.7,0.6,2.5
					l5.9,5.9c0.1,0.1,0.2,0.1,0.2,0.2c0.1,0.1,0.1,0.2,0.3,0.3c0.4,0.4,0.8,0.5,1.3,0.3c0.2-0.1,0.4-0.2,0.7-0.4c0,0,0,0,0,0
					c0.2-0.2,0.4-0.3,0.6-0.5l17.9-17.9C79.2,68.7,79.7,67.9,78.9,67.1z M52.8,28.5c-0.2-0.2-0.5-0.2-0.7,0l-12,12
					c-0.2,0.2-0.2,0.5,0,0.7s0.5,0.2,0.7,0l12-12C53,29,53,28.7,52.8,28.5z M48.5,12c0.3,0,0.5-0.2,0.5-0.5c0-0.3-0.2-0.5-0.5-0.5
					h-9c-0.3,0-0.5,0.2-0.5,0.5c0,0.3,0.2,0.5,0.5,0.5H48.5z M51.4,34.1c-0.2-0.2-0.5-0.2-0.7,0L35.1,49.7c-0.2,0.2-0.2,0.5,0,0.7
					c0.2,0.2,0.5,0.2,0.7,0l15.6-15.6C51.6,34.6,51.6,34.3,51.4,34.1z"/>
			</g>
		</g>
		<path fill="#68A611" d="M66,16H22v-1h44V16z"/>
		<path fill="#68A611" d="M66,71H22l0-1h44L66,71z"/>
	</g>
</g>
<g id="Snap_It">
</g>
<g id="Clock">
</g>
<g id="HR_Employees_Talent">
</g>
<g id="Dispatcher">
</g>
<g id="Coffee_Cup">
</g>
<g id="Sound_and_Picture">
	<g id="Compound_Shape_1_">
	</g>
</g>
<g id="Current_Edit">
</g>
<g id="Export_Template">
</g>
<g id="Loked_File">
	<g id="Compound_Shape">
	</g>
</g>
<g id="Time_Reporting_and_HR">
</g>
<g id="Buyer">
</g>
<g id="Piggy_Bank">
</g>
<g id="Market">
</g>
<g id="eShopping">
</g>
<g id="Search_Template">
</g>
<g id="Thumbs_Up">
</g>
<g id="Time_Reporting">
</g>
<g id="Web-Based">
</g>
<g id="Lifestyle">
</g>
<g id="Stored_Applications">
</g>
<g id="Vacation">
</g>
<g id="Accounting">
</g>
<g id="Purchase_Order">
	<g id="Normal_1_">
	</g>
</g>
<g id="Hardware">
	<g id="Normal">
	</g>
</g>
<g id="Database_Setup">
</g>
<g id="Reports">
</g>
<g id="Clipboard">
</g>
<g id="Accounts_Receivable">
</g>
<g id="Invoice_Confirmation">
</g>
<g id="More">
</g>
<g id="Calendar">
	<g id="Compound_Shape_12_">
	</g>
</g>
<g id="Administration">
	<g id="Compound_Shape_11_">
	</g>
</g>
<g id="Admin">
	<g id="Compound_Shape_10_">
	</g>
</g>
<g id="Deleted_Application">
</g>
<g id="Case_System">
</g>
<g id="Payroll_and_HR">
</g>
<g id="End_User">
</g>
<g id="Gift">
</g>
<g id="Payslip">
</g>
<g id="Bank">
</g>
<g id="Image">
</g>
<g id="Services">
</g>
<g id="Smiley">
</g>
<g id="Guides" display="none" opacity="0.2">
	<rect display="inline" fill-rule="evenodd" clip-rule="evenodd" fill="#0089D9" width="96" height="96"/>
	<rect display="inline" fill-rule="evenodd" clip-rule="evenodd" fill="#0089D9" width="96" height="96"/>
	<rect display="inline" fill-rule="evenodd" clip-rule="evenodd" fill="#0089D9" width="96" height="96"/>
	<rect display="inline" fill-rule="evenodd" clip-rule="evenodd" fill="#0089D9" width="96" height="96"/>
	<rect display="inline" fill-rule="evenodd" clip-rule="evenodd" fill="#0089D9" width="96" height="96"/>
	<rect display="inline" fill-rule="evenodd" clip-rule="evenodd" fill="#0089D9" width="96" height="96"/>
	<rect display="inline" fill-rule="evenodd" clip-rule="evenodd" fill="#0089D9" width="96" height="96"/>
	<rect display="inline" fill-rule="evenodd" clip-rule="evenodd" fill="#0089D9" width="96" height="96"/>
	<rect display="inline" fill-rule="evenodd" clip-rule="evenodd" fill="#0089D9" width="96" height="96"/>
	<rect display="inline" fill-rule="evenodd" clip-rule="evenodd" fill="#0089D9" width="96" height="96"/>
	<rect display="inline" fill-rule="evenodd" clip-rule="evenodd" fill="#0089D9" width="96" height="96"/>
	<rect display="inline" fill-rule="evenodd" clip-rule="evenodd" fill="#0089D9" width="96" height="96"/>
	<rect display="inline" fill-rule="evenodd" clip-rule="evenodd" fill="#0089D9" width="96" height="96"/>
	<rect display="inline" fill-rule="evenodd" clip-rule="evenodd" fill="#0089D9" width="96" height="96"/>
	<rect display="inline" fill-rule="evenodd" clip-rule="evenodd" fill="#0089D9" width="96" height="96"/>
	<rect display="inline" fill-rule="evenodd" clip-rule="evenodd" fill="#0089D9" width="96" height="96"/>
	<rect display="inline" fill-rule="evenodd" clip-rule="evenodd" fill="#0089D9" width="96" height="96"/>
	<rect display="inline" fill-rule="evenodd" clip-rule="evenodd" fill="#0089D9" width="96" height="96"/>
</g>
</svg>
