<svg version="1.1" id="Layer_1" xmlns="http://www.w3.org/2000/svg" xmlns:xlink="http://www.w3.org/1999/xlink" x="0px" y="0px" viewBox="0 0 64 56" enable-background="new 0 0 64 56" xml:space="preserve"> <g>   <path fill="#007aca" d="M50,44L50,44c8.3,0,14-6.7,14-15c0-7.8-5.9-14.1-13.4-14.9C48.8,6,41.6,0,33,0c-9.3,0-16.9,7-17.9,16     c-0.4,0-0.7,0-1.1,0C6,16-0.4,22.6,0,30.7C0.4,38.2,6.9,44,14.4,44c0.1,0,0,0.1,0,0l1.3-2.4l2-3.6h-3.4c-4.3,0-8-3.2-8.3-7.4    C5.7,25.9,9.4,22,14,22c0.2,0,0.4,0,0.6,0l5.8,0.4l0.6-5.8C21.7,10.4,27.1,5.7,33.5,6c5.5,0.2,10.1,4.4,11.3,9.8l0.9,3.8l4.3,0.4    c4.7,0.5,8.2,4.5,8,9.2c-0.2,4.9-4.4,8.7-9.3,8.7h-2.5"></path>   <path fill="#007aca" d="M32,24L20,44h7c0.6,0,1,0.4,1,1v9c0,1.1,0.9,2,2,2h4c1.1,0,2-0.9,2-2v-9c0-0.6,0.4-1,1-1h7L32,24z"></path> </g> </svg>