<?xml version="1.0" encoding="utf-8"?>
<!-- Generator: Adobe Illustrator 16.0.0, SVG Export Plug-In . SVG Version: 6.00 Build 0)  -->
<!DOCTYPE svg PUBLIC "-//W3C//DTD SVG 1.1//EN" "http://www.w3.org/Graphics/SVG/1.1/DTD/svg11.dtd">
<svg version="1.1" id="Capa_1" xmlns="http://www.w3.org/2000/svg" xmlns:xlink="http://www.w3.org/1999/xlink" x="0px" y="0px"
	 width="611.969px" height="613.894px" viewBox="653.606 -13.894 611.969 613.894"
	 enable-background="new 653.606 -13.894 611.969 613.894" xml:space="preserve">
<g>
	<path fill="#545E73" d="M1189.875,85.714L1189.875,85.714C1182.043,37.907,1070.153,0,933.215,0
		C796.275,0,684.386,37.907,676.554,85.714l0,0h-0.481v5.357v123.214v5.357V225v117.857v5.355v5.357v128.57h0.481
		c7.832,47.797,119.732,85.715,256.661,85.715c136.928,0,248.828-37.918,256.66-85.715h0.482V353.571v-5.357v-5.355V225v-5.357
		v-5.357V91.071v-5.357H1189.875z"/>
	<g>
		<path fill="#D60C34" d="M933.215,439.286c-142.019,0-257.144-40.779-257.144-91.072v133.929h0.481
			c7.832,47.798,119.732,85.716,256.661,85.716s248.828-37.918,256.66-85.716h0.482V348.214
			C1190.357,398.507,1075.232,439.286,933.215,439.286z"/>
		<path fill="#D60C34" d="M676.071,342.857v5.355c0-1.8,0.192-3.578,0.481-5.355H676.071z"/>
		<path fill="#D60C34" d="M1189.875,342.857c0.289,1.777,0.482,3.557,0.482,5.355v-5.355H1189.875z"/>
	</g>
	<g>
		<path fill="#CC3366" d="M933.215,310.714c-142.019,0-257.144-40.778-257.144-91.071v133.928h0.481
			c7.832,47.797,119.732,85.715,256.661,85.715s248.828-37.918,256.66-85.715h0.482V219.643
			C1190.357,269.936,1075.232,310.714,933.215,310.714z"/>
		<path fill="#CC3366" d="M676.071,214.286v5.357c0-1.8,0.192-3.579,0.481-5.357H676.071z"/>
		<path fill="#CC3366" d="M1189.875,214.286c0.289,1.779,0.482,3.557,0.482,5.357v-5.357H1189.875z"/>
	</g>
	<ellipse fill="#CC99CC" cx="933.215" cy="91.072" rx="257.144" ry="91.072"/>
	<g>
		<path fill="#CC6699" d="M933.215,182.143c-142.019,0-257.144-40.779-257.144-91.072V225h0.481
			c7.832,47.796,119.732,85.714,256.661,85.714s248.828-37.917,256.66-85.714h0.482V91.071
			C1190.357,141.364,1075.232,182.143,933.215,182.143z"/>
		<path fill="#8697CB" d="M676.071,85.714v5.357c0-1.8,0.192-3.579,0.481-5.357H676.071z"/>
		<path fill="#8697CB" d="M1189.875,85.714c0.289,1.778,0.482,3.557,0.482,5.357v-5.357H1189.875z"/>
	</g>
	<g>
		<g>
			<path fill="#CC6699" d="M1190.84,483.332c-0.547-42.171-33.89-76.189-74.99-76.189c-27.514,0-51.491,15.279-64.553,37.993
				c-4.512-1.511-9.322-2.356-14.325-2.356c-22.104,0-40.554,15.985-45.086,37.329C973.082,489.375,960,509.1,960,531.868
				c0,31.585,25.104,57.418,55.8,57.418h115.446c0.654,0,1.275-0.075,1.929-0.097c0.645,0.021,1.275,0.097,1.929,0.097h46.18
				c28.574,0,51.953-24.054,51.953-53.454C1233.215,509.797,1214.871,487.993,1190.84,483.332z"/>
			<path fill="#FFFFFF" d="M1181.261,600h-46.179c-0.675,0-1.35-0.043-2.014-0.086c-0.504,0.043-1.158,0.086-1.833,0.086H1015.8
				c-36.675,0-66.515-30.568-66.515-68.121c0-24.236,12.954-46.843,33.387-58.961c7.35-23.946,29.421-40.854,54.278-40.854
				c3.171,0,6.343,0.268,9.472,0.813c16.028-22.672,41.937-36.45,69.428-36.45c43.95,0,80.615,34.555,85.223,78.558
				c25.265,8.636,42.856,32.988,42.856,60.847C1243.929,571.211,1215.814,600,1181.261,600z M1132.65,578.475l1.991,0.064
				l46.618,0.032c22.735,0,41.239-19.18,41.239-42.739c0-20.539-14.175-38.187-33.707-41.989l-8.562-1.66l-0.117-8.711
				c-0.461-36.183-29.282-65.613-64.266-65.613c-22.875,0-43.531,12.202-55.264,32.625l-4.383,7.616l-8.324-2.796
				c-3.559-1.2-7.232-1.811-10.918-1.811c-16.5,0-31.051,12.139-34.598,28.843l-1.093,5.089l-4.661,2.293
				c-15.738,7.769-25.896,24.312-25.896,42.161c0,25.746,20.229,46.692,45.085,46.692L1132.65,578.475z"/>
		</g>
	</g>
</g>
</svg>
